G04 #@! TF.GenerationSoftware,KiCad,Pcbnew,5.1.4-e60b266~84~ubuntu18.04.1*
G04 #@! TF.CreationDate,2019-09-03T19:41:16+02:00*
G04 #@! TF.ProjectId,xFaders_keys,78466164-6572-4735-9f6b-6579732e6b69,rev?*
G04 #@! TF.SameCoordinates,Original*
G04 #@! TF.FileFunction,Copper,L2,Bot*
G04 #@! TF.FilePolarity,Positive*
%FSLAX46Y46*%
G04 Gerber Fmt 4.6, Leading zero omitted, Abs format (unit mm)*
G04 Created by KiCad (PCBNEW 5.1.4-e60b266~84~ubuntu18.04.1) date 2019-09-03 19:41:16*
%MOMM*%
%LPD*%
G04 APERTURE LIST*
%ADD10C,2.200000*%
%ADD11O,2.200000X2.200000*%
%ADD12R,2.200000X2.200000*%
%ADD13O,1.700000X1.700000*%
%ADD14R,1.700000X1.700000*%
%ADD15C,0.800000*%
%ADD16C,0.250000*%
G04 APERTURE END LIST*
D10*
X133350000Y-147320000D03*
X139700000Y-144780000D03*
X356870000Y-147320000D03*
X363220000Y-144780000D03*
D11*
X351790000Y-165100000D03*
D12*
X351790000Y-175260000D03*
D11*
X331470000Y-165100000D03*
D12*
X331470000Y-175260000D03*
D11*
X311150000Y-165100000D03*
D12*
X311150000Y-175260000D03*
D11*
X290830000Y-165100000D03*
D12*
X290830000Y-175260000D03*
D11*
X270510000Y-165100000D03*
D12*
X270510000Y-175260000D03*
D11*
X351790000Y-144780000D03*
D12*
X351790000Y-154940000D03*
D11*
X331470000Y-144780000D03*
D12*
X331470000Y-154940000D03*
D11*
X311150000Y-144780000D03*
D12*
X311150000Y-154940000D03*
D11*
X290830000Y-144780000D03*
D12*
X290830000Y-154940000D03*
D11*
X270510000Y-144780000D03*
D12*
X270510000Y-154940000D03*
D11*
X240030000Y-165100000D03*
D12*
X240030000Y-175260000D03*
D11*
X219710000Y-165100000D03*
D12*
X219710000Y-175260000D03*
D11*
X199390000Y-165100000D03*
D12*
X199390000Y-175260000D03*
D11*
X179070000Y-165100000D03*
D12*
X179070000Y-175260000D03*
D11*
X158750000Y-165100000D03*
D12*
X158750000Y-175260000D03*
D11*
X240030000Y-144780000D03*
D12*
X240030000Y-154940000D03*
D11*
X219710000Y-144780000D03*
D12*
X219710000Y-154940000D03*
D11*
X199390000Y-144780000D03*
D12*
X199390000Y-154940000D03*
D11*
X179070000Y-144780000D03*
D12*
X179070000Y-154940000D03*
D11*
X158750000Y-144780000D03*
D12*
X158750000Y-154940000D03*
D11*
X128270000Y-165100000D03*
D12*
X128270000Y-175260000D03*
D11*
X107950000Y-165100000D03*
D12*
X107950000Y-175260000D03*
D11*
X87630000Y-165100000D03*
D12*
X87630000Y-175260000D03*
D11*
X67310000Y-165100000D03*
D12*
X67310000Y-175260000D03*
D11*
X46990000Y-165100000D03*
D12*
X46990000Y-175260000D03*
D11*
X129540000Y-144780000D03*
D12*
X129540000Y-154940000D03*
D11*
X107950000Y-144780000D03*
D12*
X107950000Y-154940000D03*
D11*
X87630000Y-144780000D03*
D12*
X87630000Y-154940000D03*
D11*
X67310000Y-144780000D03*
D12*
X67310000Y-154940000D03*
D11*
X46990000Y-144780000D03*
D12*
X46990000Y-154940000D03*
D10*
X356870000Y-177800000D03*
X363220000Y-175260000D03*
X356870000Y-167640000D03*
X363220000Y-165100000D03*
X336550000Y-177800000D03*
X342900000Y-175260000D03*
X316230000Y-177800000D03*
X322580000Y-175260000D03*
X295910000Y-177800000D03*
X302260000Y-175260000D03*
X275590000Y-167640000D03*
X281940000Y-165100000D03*
X336550000Y-167640000D03*
X342900000Y-165100000D03*
X316230000Y-167640000D03*
X322580000Y-165100000D03*
X295910000Y-167640000D03*
X302260000Y-165100000D03*
X275590000Y-177800000D03*
X281940000Y-175260000D03*
X336550000Y-147320000D03*
X342900000Y-144780000D03*
X316230000Y-147320000D03*
X322580000Y-144780000D03*
X295910000Y-147320000D03*
X302260000Y-144780000D03*
X275590000Y-147320000D03*
X281940000Y-144780000D03*
X245110000Y-177800000D03*
X251460000Y-175260000D03*
X224790000Y-177800000D03*
X231140000Y-175260000D03*
X204470000Y-177800000D03*
X210820000Y-175260000D03*
X184150000Y-177800000D03*
X190500000Y-175260000D03*
X163830000Y-177800000D03*
X170180000Y-175260000D03*
X245110000Y-167640000D03*
X251460000Y-165100000D03*
X224790000Y-167640000D03*
X231140000Y-165100000D03*
X204470000Y-167640000D03*
X210820000Y-165100000D03*
X184150000Y-167640000D03*
X190500000Y-165100000D03*
X163830000Y-167640000D03*
X170180000Y-165100000D03*
X245110000Y-147320000D03*
X251460000Y-144780000D03*
X224790000Y-147320000D03*
X231140000Y-144780000D03*
X204470000Y-147320000D03*
X210820000Y-144780000D03*
X184150000Y-147320000D03*
X190500000Y-144780000D03*
X163830000Y-147320000D03*
X170180000Y-144780000D03*
X133350000Y-177800000D03*
X139700000Y-175260000D03*
X113030000Y-177800000D03*
X119380000Y-175260000D03*
X92710000Y-177800000D03*
X99060000Y-175260000D03*
X72390000Y-177800000D03*
X78740000Y-175260000D03*
X52070000Y-177800000D03*
X58420000Y-175260000D03*
X133350000Y-167640000D03*
X139700000Y-165100000D03*
X113030000Y-167640000D03*
X119380000Y-165100000D03*
X92710000Y-167640000D03*
X99060000Y-165100000D03*
X72390000Y-167640000D03*
X78740000Y-165100000D03*
X52070000Y-167640000D03*
X58420000Y-165100000D03*
X113030000Y-147320000D03*
X119380000Y-144780000D03*
X92710000Y-147320000D03*
X99060000Y-144780000D03*
X72390000Y-147320000D03*
X78740000Y-144780000D03*
X52070000Y-147320000D03*
X58420000Y-144780000D03*
D13*
X386080000Y-180340000D03*
X383540000Y-180340000D03*
X386080000Y-177800000D03*
X383540000Y-177800000D03*
X386080000Y-175260000D03*
X383540000Y-175260000D03*
X386080000Y-172720000D03*
X383540000Y-172720000D03*
X386080000Y-170180000D03*
X383540000Y-170180000D03*
X386080000Y-167640000D03*
X383540000Y-167640000D03*
X386080000Y-165100000D03*
X383540000Y-165100000D03*
X386080000Y-162560000D03*
X383540000Y-162560000D03*
X386080000Y-160020000D03*
X383540000Y-160020000D03*
X386080000Y-157480000D03*
D14*
X383540000Y-157480000D03*
D15*
X383540000Y-187960000D03*
X382270000Y-189230000D03*
X381000000Y-190500000D03*
X381000000Y-177800000D03*
X389890000Y-173990000D03*
X389890000Y-170180000D03*
D16*
X383540000Y-187960000D02*
X383540000Y-180340000D01*
X382270000Y-179070000D02*
X383540000Y-177800000D01*
X382270000Y-189230000D02*
X382270000Y-179070000D01*
X332920000Y-165100000D02*
X331470000Y-165100000D01*
X334345001Y-163674999D02*
X332920000Y-165100000D01*
X343584001Y-163674999D02*
X334345001Y-163674999D01*
X345009002Y-165100000D02*
X343584001Y-163674999D01*
X351790000Y-165100000D02*
X345009002Y-165100000D01*
X314025001Y-163674999D02*
X312600000Y-165100000D01*
X323264001Y-163674999D02*
X314025001Y-163674999D01*
X324689002Y-165100000D02*
X323264001Y-163674999D01*
X312600000Y-165100000D02*
X311150000Y-165100000D01*
X331470000Y-165100000D02*
X324689002Y-165100000D01*
X292280000Y-165100000D02*
X290830000Y-165100000D01*
X293705001Y-163674999D02*
X292280000Y-165100000D01*
X304369002Y-165100000D02*
X302944001Y-163674999D01*
X302944001Y-163674999D02*
X293705001Y-163674999D01*
X311150000Y-165100000D02*
X304369002Y-165100000D01*
X282624001Y-163674999D02*
X273385001Y-163674999D01*
X271960000Y-165100000D02*
X270510000Y-165100000D01*
X284049002Y-165100000D02*
X282624001Y-163674999D01*
X273385001Y-163674999D02*
X271960000Y-165100000D01*
X290830000Y-165100000D02*
X284049002Y-165100000D01*
X241480000Y-165100000D02*
X240030000Y-165100000D01*
X242905001Y-163674999D02*
X241480000Y-165100000D01*
X252144001Y-163674999D02*
X242905001Y-163674999D01*
X253569002Y-165100000D02*
X252144001Y-163674999D01*
X270510000Y-165100000D02*
X253569002Y-165100000D01*
X222585001Y-163674999D02*
X221160000Y-165100000D01*
X233249002Y-165100000D02*
X231824001Y-163674999D01*
X221160000Y-165100000D02*
X219710000Y-165100000D01*
X231824001Y-163674999D02*
X222585001Y-163674999D01*
X240030000Y-165100000D02*
X233249002Y-165100000D01*
X202265001Y-163674999D02*
X200840000Y-165100000D01*
X200840000Y-165100000D02*
X199390000Y-165100000D01*
X211504001Y-163674999D02*
X202265001Y-163674999D01*
X212929002Y-165100000D02*
X211504001Y-163674999D01*
X219710000Y-165100000D02*
X212929002Y-165100000D01*
X180520000Y-165100000D02*
X179070000Y-165100000D01*
X191184001Y-163674999D02*
X181945001Y-163674999D01*
X181945001Y-163674999D02*
X180520000Y-165100000D01*
X192609002Y-165100000D02*
X191184001Y-163674999D01*
X199390000Y-165100000D02*
X192609002Y-165100000D01*
X160200000Y-165100000D02*
X158750000Y-165100000D01*
X161625001Y-163674999D02*
X160200000Y-165100000D01*
X170864001Y-163674999D02*
X161625001Y-163674999D01*
X172289002Y-165100000D02*
X170864001Y-163674999D01*
X179070000Y-165100000D02*
X172289002Y-165100000D01*
X129720000Y-165100000D02*
X128270000Y-165100000D01*
X131145001Y-163674999D02*
X129720000Y-165100000D01*
X140384001Y-163674999D02*
X131145001Y-163674999D01*
X141809002Y-165100000D02*
X140384001Y-163674999D01*
X110825001Y-163674999D02*
X109400000Y-165100000D01*
X120064001Y-163674999D02*
X110825001Y-163674999D01*
X121489002Y-165100000D02*
X120064001Y-163674999D01*
X109400000Y-165100000D02*
X107950000Y-165100000D01*
X128270000Y-165100000D02*
X121489002Y-165100000D01*
X89080000Y-165100000D02*
X87630000Y-165100000D01*
X99744001Y-163674999D02*
X90505001Y-163674999D01*
X101169002Y-165100000D02*
X99744001Y-163674999D01*
X90505001Y-163674999D02*
X89080000Y-165100000D01*
X107950000Y-165100000D02*
X101169002Y-165100000D01*
X68760000Y-165100000D02*
X67310000Y-165100000D01*
X70185001Y-163674999D02*
X68760000Y-165100000D01*
X79424001Y-163674999D02*
X70185001Y-163674999D01*
X80849002Y-165100000D02*
X79424001Y-163674999D01*
X87630000Y-165100000D02*
X80849002Y-165100000D01*
X48440000Y-165100000D02*
X46990000Y-165100000D01*
X49865001Y-163674999D02*
X48440000Y-165100000D01*
X59104001Y-163674999D02*
X49865001Y-163674999D01*
X60529002Y-165100000D02*
X59104001Y-163674999D01*
X67310000Y-165100000D02*
X60529002Y-165100000D01*
X384904999Y-176435001D02*
X385230001Y-176109999D01*
X385230001Y-176109999D02*
X386080000Y-175260000D01*
X358940998Y-165100000D02*
X370275999Y-176435001D01*
X370275999Y-176435001D02*
X384904999Y-176435001D01*
X351790000Y-165100000D02*
X358940998Y-165100000D01*
X141809002Y-165100000D02*
X158750000Y-165100000D01*
X381000000Y-190500000D02*
X381000000Y-177800000D01*
X334345001Y-143354999D02*
X332920000Y-144780000D01*
X343584001Y-143354999D02*
X334345001Y-143354999D01*
X332920000Y-144780000D02*
X331470000Y-144780000D01*
X345009002Y-144780000D02*
X343584001Y-143354999D01*
X351790000Y-144780000D02*
X345009002Y-144780000D01*
X323264001Y-143354999D02*
X314025001Y-143354999D01*
X324689002Y-144780000D02*
X323264001Y-143354999D01*
X312600000Y-144780000D02*
X311150000Y-144780000D01*
X314025001Y-143354999D02*
X312600000Y-144780000D01*
X331470000Y-144780000D02*
X324689002Y-144780000D01*
X292280000Y-144780000D02*
X290830000Y-144780000D01*
X302944001Y-143354999D02*
X293705001Y-143354999D01*
X293705001Y-143354999D02*
X292280000Y-144780000D01*
X304369002Y-144780000D02*
X302944001Y-143354999D01*
X311150000Y-144780000D02*
X304369002Y-144780000D01*
X282624001Y-143354999D02*
X273385001Y-143354999D01*
X271960000Y-144780000D02*
X270510000Y-144780000D01*
X284049002Y-144780000D02*
X282624001Y-143354999D01*
X273385001Y-143354999D02*
X271960000Y-144780000D01*
X290830000Y-144780000D02*
X284049002Y-144780000D01*
X241480000Y-144780000D02*
X240030000Y-144780000D01*
X242905001Y-143354999D02*
X241480000Y-144780000D01*
X252144001Y-143354999D02*
X242905001Y-143354999D01*
X253569002Y-144780000D02*
X252144001Y-143354999D01*
X270510000Y-144780000D02*
X253569002Y-144780000D01*
X366324001Y-148684999D02*
X370840000Y-153200998D01*
X365015997Y-148684999D02*
X366324001Y-148684999D01*
X351790000Y-144780000D02*
X361110998Y-144780000D01*
X361110998Y-144780000D02*
X365015997Y-148684999D01*
X385230001Y-171870001D02*
X386080000Y-172720000D01*
X384904999Y-171544999D02*
X385230001Y-171870001D01*
X383165997Y-171544999D02*
X384904999Y-171544999D01*
X370840000Y-159219002D02*
X383165997Y-171544999D01*
X370840000Y-153200998D02*
X370840000Y-159219002D01*
X222585001Y-143354999D02*
X221160000Y-144780000D01*
X231824001Y-143354999D02*
X222585001Y-143354999D01*
X233249002Y-144780000D02*
X231824001Y-143354999D01*
X221160000Y-144780000D02*
X219710000Y-144780000D01*
X240030000Y-144780000D02*
X233249002Y-144780000D01*
X200840000Y-144780000D02*
X199390000Y-144780000D01*
X212929002Y-144780000D02*
X211504001Y-143354999D01*
X202265001Y-143354999D02*
X200840000Y-144780000D01*
X211504001Y-143354999D02*
X202265001Y-143354999D01*
X219710000Y-144780000D02*
X212929002Y-144780000D01*
X180520000Y-144780000D02*
X179070000Y-144780000D01*
X181945001Y-143354999D02*
X180520000Y-144780000D01*
X191184001Y-143354999D02*
X181945001Y-143354999D01*
X192609002Y-144780000D02*
X191184001Y-143354999D01*
X199390000Y-144780000D02*
X192609002Y-144780000D01*
X161625001Y-143354999D02*
X160200000Y-144780000D01*
X160200000Y-144780000D02*
X158750000Y-144780000D01*
X170864001Y-143354999D02*
X161625001Y-143354999D01*
X172289002Y-144780000D02*
X170864001Y-143354999D01*
X179070000Y-144780000D02*
X172289002Y-144780000D01*
X89080000Y-144780000D02*
X87630000Y-144780000D01*
X90505001Y-143354999D02*
X89080000Y-144780000D01*
X99744001Y-143354999D02*
X90505001Y-143354999D01*
X101169002Y-144780000D02*
X99744001Y-143354999D01*
X107950000Y-144780000D02*
X101169002Y-144780000D01*
X68760000Y-144780000D02*
X67310000Y-144780000D01*
X79424001Y-143354999D02*
X70185001Y-143354999D01*
X80849002Y-144780000D02*
X79424001Y-143354999D01*
X70185001Y-143354999D02*
X68760000Y-144780000D01*
X87630000Y-144780000D02*
X80849002Y-144780000D01*
X48440000Y-144780000D02*
X46990000Y-144780000D01*
X59104001Y-143354999D02*
X49865001Y-143354999D01*
X49865001Y-143354999D02*
X48440000Y-144780000D01*
X60529002Y-144780000D02*
X59104001Y-143354999D01*
X67310000Y-144780000D02*
X60529002Y-144780000D01*
X141809002Y-144780000D02*
X158750000Y-144780000D01*
X140384001Y-143354999D02*
X141809002Y-144780000D01*
X131145001Y-143354999D02*
X140384001Y-143354999D01*
X109400000Y-144780000D02*
X110825001Y-143354999D01*
X107950000Y-144780000D02*
X109400000Y-144780000D01*
X110825001Y-143354999D02*
X120064001Y-143354999D01*
X129720000Y-144780000D02*
X131145001Y-143354999D01*
X120064001Y-143354999D02*
X121489002Y-144780000D01*
X121489002Y-144780000D02*
X129720000Y-144780000D01*
X384810000Y-173990000D02*
X383540000Y-172720000D01*
X389890000Y-173990000D02*
X384810000Y-173990000D01*
X384389999Y-169330001D02*
X383540000Y-170180000D01*
X388714999Y-169004999D02*
X384715001Y-169004999D01*
X389890000Y-170180000D02*
X388714999Y-169004999D01*
X384715001Y-169004999D02*
X384389999Y-169330001D01*
X46990000Y-150844366D02*
X50514366Y-147320000D01*
X50514366Y-147320000D02*
X52070000Y-147320000D01*
X46990000Y-154940000D02*
X46990000Y-150844366D01*
X70834366Y-147320000D02*
X72390000Y-147320000D01*
X67310000Y-150844366D02*
X70834366Y-147320000D01*
X67310000Y-154940000D02*
X67310000Y-150844366D01*
X91154366Y-147320000D02*
X92710000Y-147320000D01*
X87630000Y-150844366D02*
X91154366Y-147320000D01*
X87630000Y-154940000D02*
X87630000Y-150844366D01*
X107950000Y-153242944D02*
X107950000Y-154940000D01*
X107950000Y-150844366D02*
X107950000Y-153242944D01*
X111474366Y-147320000D02*
X107950000Y-150844366D01*
X113030000Y-147320000D02*
X111474366Y-147320000D01*
X131794366Y-147320000D02*
X133350000Y-147320000D01*
X129540000Y-149574366D02*
X131794366Y-147320000D01*
X129540000Y-154940000D02*
X129540000Y-149574366D01*
X50514366Y-167640000D02*
X52070000Y-167640000D01*
X46990000Y-171164366D02*
X50514366Y-167640000D01*
X46990000Y-175260000D02*
X46990000Y-171164366D01*
X49530000Y-177800000D02*
X46990000Y-175260000D01*
X52070000Y-177800000D02*
X49530000Y-177800000D01*
X69850000Y-177800000D02*
X67310000Y-175260000D01*
X72390000Y-177800000D02*
X69850000Y-177800000D01*
X70834366Y-167640000D02*
X72390000Y-167640000D01*
X67310000Y-171164366D02*
X70834366Y-167640000D01*
X67310000Y-175260000D02*
X67310000Y-171164366D01*
X87630000Y-173562944D02*
X87630000Y-175260000D01*
X87630000Y-171164366D02*
X87630000Y-173562944D01*
X91154366Y-167640000D02*
X87630000Y-171164366D01*
X92710000Y-167640000D02*
X91154366Y-167640000D01*
X90170000Y-177800000D02*
X87630000Y-175260000D01*
X92710000Y-177800000D02*
X90170000Y-177800000D01*
X107950000Y-171164366D02*
X107950000Y-173562944D01*
X111474366Y-167640000D02*
X107950000Y-171164366D01*
X107950000Y-173562944D02*
X107950000Y-175260000D01*
X113030000Y-167640000D02*
X111474366Y-167640000D01*
X110490000Y-177800000D02*
X107950000Y-175260000D01*
X113030000Y-177800000D02*
X110490000Y-177800000D01*
X128270000Y-173562944D02*
X128270000Y-175260000D01*
X128270000Y-171164366D02*
X128270000Y-173562944D01*
X131794366Y-167640000D02*
X128270000Y-171164366D01*
X133350000Y-167640000D02*
X131794366Y-167640000D01*
X130810000Y-177800000D02*
X128270000Y-175260000D01*
X133350000Y-177800000D02*
X130810000Y-177800000D01*
X158750000Y-153242944D02*
X158750000Y-154940000D01*
X158750000Y-150844366D02*
X158750000Y-153242944D01*
X162274366Y-147320000D02*
X158750000Y-150844366D01*
X163830000Y-147320000D02*
X162274366Y-147320000D01*
X179070000Y-153242944D02*
X179070000Y-154940000D01*
X179070000Y-150844366D02*
X179070000Y-153242944D01*
X182594366Y-147320000D02*
X179070000Y-150844366D01*
X184150000Y-147320000D02*
X182594366Y-147320000D01*
X199390000Y-153242944D02*
X199390000Y-154940000D01*
X199390000Y-150844366D02*
X199390000Y-153242944D01*
X202914366Y-147320000D02*
X199390000Y-150844366D01*
X204470000Y-147320000D02*
X202914366Y-147320000D01*
X219710000Y-150844366D02*
X219710000Y-153242944D01*
X219710000Y-153242944D02*
X219710000Y-154940000D01*
X223234366Y-147320000D02*
X219710000Y-150844366D01*
X224790000Y-147320000D02*
X223234366Y-147320000D01*
X243554366Y-147320000D02*
X245110000Y-147320000D01*
X240030000Y-150844366D02*
X243554366Y-147320000D01*
X240030000Y-154940000D02*
X240030000Y-150844366D01*
X158750000Y-171164366D02*
X158750000Y-173562944D01*
X158750000Y-173562944D02*
X158750000Y-175260000D01*
X162274366Y-167640000D02*
X158750000Y-171164366D01*
X163830000Y-167640000D02*
X162274366Y-167640000D01*
X161290000Y-177800000D02*
X158750000Y-175260000D01*
X163830000Y-177800000D02*
X161290000Y-177800000D01*
X181610000Y-177800000D02*
X179070000Y-175260000D01*
X184150000Y-177800000D02*
X181610000Y-177800000D01*
X179070000Y-171164366D02*
X182594366Y-167640000D01*
X182594366Y-167640000D02*
X184150000Y-167640000D01*
X179070000Y-175260000D02*
X179070000Y-171164366D01*
X202914366Y-167640000D02*
X204470000Y-167640000D01*
X199390000Y-171164366D02*
X202914366Y-167640000D01*
X199390000Y-175260000D02*
X199390000Y-171164366D01*
X201930000Y-177800000D02*
X199390000Y-175260000D01*
X204470000Y-177800000D02*
X201930000Y-177800000D01*
X223234366Y-167640000D02*
X224790000Y-167640000D01*
X219710000Y-171164366D02*
X223234366Y-167640000D01*
X219710000Y-175260000D02*
X219710000Y-171164366D01*
X222250000Y-177800000D02*
X219710000Y-175260000D01*
X224790000Y-177800000D02*
X222250000Y-177800000D01*
X242570000Y-177800000D02*
X240030000Y-175260000D01*
X245110000Y-177800000D02*
X242570000Y-177800000D01*
X243554366Y-167640000D02*
X245110000Y-167640000D01*
X240030000Y-171164366D02*
X243554366Y-167640000D01*
X240030000Y-175260000D02*
X240030000Y-171164366D01*
X274034366Y-147320000D02*
X275590000Y-147320000D01*
X270510000Y-150844366D02*
X274034366Y-147320000D01*
X270510000Y-154940000D02*
X270510000Y-150844366D01*
X290830000Y-150844366D02*
X294354366Y-147320000D01*
X294354366Y-147320000D02*
X295910000Y-147320000D01*
X290830000Y-154940000D02*
X290830000Y-150844366D01*
X311150000Y-153242944D02*
X311150000Y-154940000D01*
X311150000Y-150844366D02*
X311150000Y-153242944D01*
X314674366Y-147320000D02*
X311150000Y-150844366D01*
X316230000Y-147320000D02*
X314674366Y-147320000D01*
X334994366Y-147320000D02*
X336550000Y-147320000D01*
X331470000Y-150844366D02*
X334994366Y-147320000D01*
X331470000Y-154940000D02*
X331470000Y-150844366D01*
X351790000Y-153242944D02*
X351790000Y-154940000D01*
X351790000Y-150844366D02*
X351790000Y-153242944D01*
X355314366Y-147320000D02*
X351790000Y-150844366D01*
X356870000Y-147320000D02*
X355314366Y-147320000D01*
X273050000Y-177800000D02*
X270510000Y-175260000D01*
X275590000Y-177800000D02*
X273050000Y-177800000D01*
X274034366Y-167640000D02*
X275590000Y-167640000D01*
X270510000Y-171164366D02*
X274034366Y-167640000D01*
X270510000Y-175260000D02*
X270510000Y-171164366D01*
X293370000Y-177800000D02*
X290830000Y-175260000D01*
X295910000Y-177800000D02*
X293370000Y-177800000D01*
X294354366Y-167640000D02*
X295910000Y-167640000D01*
X290830000Y-171164366D02*
X294354366Y-167640000D01*
X290830000Y-175260000D02*
X290830000Y-171164366D01*
X314674366Y-167640000D02*
X316230000Y-167640000D01*
X311150000Y-171164366D02*
X314674366Y-167640000D01*
X311150000Y-175260000D02*
X311150000Y-171164366D01*
X313690000Y-177800000D02*
X311150000Y-175260000D01*
X316230000Y-177800000D02*
X313690000Y-177800000D01*
X334010000Y-177800000D02*
X331470000Y-175260000D01*
X336550000Y-177800000D02*
X334010000Y-177800000D01*
X334994366Y-167640000D02*
X336550000Y-167640000D01*
X331470000Y-171164366D02*
X334994366Y-167640000D01*
X331470000Y-175260000D02*
X331470000Y-171164366D01*
X351790000Y-171164366D02*
X351790000Y-173562944D01*
X355314366Y-167640000D02*
X351790000Y-171164366D01*
X351790000Y-173562944D02*
X351790000Y-175260000D01*
X356870000Y-167640000D02*
X355314366Y-167640000D01*
X354330000Y-177800000D02*
X351790000Y-175260000D01*
X356870000Y-177800000D02*
X354330000Y-177800000D01*
M02*
