G04 #@! TF.GenerationSoftware,KiCad,Pcbnew,5.1.4-e60b266~84~ubuntu18.04.1*
G04 #@! TF.CreationDate,2019-09-03T19:41:16+02:00*
G04 #@! TF.ProjectId,xFaders_keys,78466164-6572-4735-9f6b-6579732e6b69,rev?*
G04 #@! TF.SameCoordinates,Original*
G04 #@! TF.FileFunction,Legend,Top*
G04 #@! TF.FilePolarity,Positive*
%FSLAX46Y46*%
G04 Gerber Fmt 4.6, Leading zero omitted, Abs format (unit mm)*
G04 Created by KiCad (PCBNEW 5.1.4-e60b266~84~ubuntu18.04.1) date 2019-09-03 19:41:16*
%MOMM*%
%LPD*%
G04 APERTURE LIST*
%ADD10C,0.120000*%
%ADD11C,0.150000*%
G04 APERTURE END LIST*
D10*
X130175000Y-156845000D02*
X130175000Y-142875000D01*
X144145000Y-156845000D02*
X130175000Y-156845000D01*
X144145000Y-142875000D02*
X144145000Y-156845000D01*
X130175000Y-142875000D02*
X144145000Y-142875000D01*
X353695000Y-156845000D02*
X353695000Y-142875000D01*
X367665000Y-156845000D02*
X353695000Y-156845000D01*
X367665000Y-142875000D02*
X367665000Y-156845000D01*
X353695000Y-142875000D02*
X367665000Y-142875000D01*
X350320000Y-172120000D02*
X353260000Y-172120000D01*
X350320000Y-171880000D02*
X353260000Y-171880000D01*
X350320000Y-172000000D02*
X353260000Y-172000000D01*
X351790000Y-166440000D02*
X351790000Y-167460000D01*
X351790000Y-173920000D02*
X351790000Y-172900000D01*
X350320000Y-167460000D02*
X350320000Y-172900000D01*
X353260000Y-167460000D02*
X350320000Y-167460000D01*
X353260000Y-172900000D02*
X353260000Y-167460000D01*
X350320000Y-172900000D02*
X353260000Y-172900000D01*
X330000000Y-172120000D02*
X332940000Y-172120000D01*
X330000000Y-171880000D02*
X332940000Y-171880000D01*
X330000000Y-172000000D02*
X332940000Y-172000000D01*
X331470000Y-166440000D02*
X331470000Y-167460000D01*
X331470000Y-173920000D02*
X331470000Y-172900000D01*
X330000000Y-167460000D02*
X330000000Y-172900000D01*
X332940000Y-167460000D02*
X330000000Y-167460000D01*
X332940000Y-172900000D02*
X332940000Y-167460000D01*
X330000000Y-172900000D02*
X332940000Y-172900000D01*
X309680000Y-172120000D02*
X312620000Y-172120000D01*
X309680000Y-171880000D02*
X312620000Y-171880000D01*
X309680000Y-172000000D02*
X312620000Y-172000000D01*
X311150000Y-166440000D02*
X311150000Y-167460000D01*
X311150000Y-173920000D02*
X311150000Y-172900000D01*
X309680000Y-167460000D02*
X309680000Y-172900000D01*
X312620000Y-167460000D02*
X309680000Y-167460000D01*
X312620000Y-172900000D02*
X312620000Y-167460000D01*
X309680000Y-172900000D02*
X312620000Y-172900000D01*
X289360000Y-172120000D02*
X292300000Y-172120000D01*
X289360000Y-171880000D02*
X292300000Y-171880000D01*
X289360000Y-172000000D02*
X292300000Y-172000000D01*
X290830000Y-166440000D02*
X290830000Y-167460000D01*
X290830000Y-173920000D02*
X290830000Y-172900000D01*
X289360000Y-167460000D02*
X289360000Y-172900000D01*
X292300000Y-167460000D02*
X289360000Y-167460000D01*
X292300000Y-172900000D02*
X292300000Y-167460000D01*
X289360000Y-172900000D02*
X292300000Y-172900000D01*
X269040000Y-172120000D02*
X271980000Y-172120000D01*
X269040000Y-171880000D02*
X271980000Y-171880000D01*
X269040000Y-172000000D02*
X271980000Y-172000000D01*
X270510000Y-166440000D02*
X270510000Y-167460000D01*
X270510000Y-173920000D02*
X270510000Y-172900000D01*
X269040000Y-167460000D02*
X269040000Y-172900000D01*
X271980000Y-167460000D02*
X269040000Y-167460000D01*
X271980000Y-172900000D02*
X271980000Y-167460000D01*
X269040000Y-172900000D02*
X271980000Y-172900000D01*
X350320000Y-151800000D02*
X353260000Y-151800000D01*
X350320000Y-151560000D02*
X353260000Y-151560000D01*
X350320000Y-151680000D02*
X353260000Y-151680000D01*
X351790000Y-146120000D02*
X351790000Y-147140000D01*
X351790000Y-153600000D02*
X351790000Y-152580000D01*
X350320000Y-147140000D02*
X350320000Y-152580000D01*
X353260000Y-147140000D02*
X350320000Y-147140000D01*
X353260000Y-152580000D02*
X353260000Y-147140000D01*
X350320000Y-152580000D02*
X353260000Y-152580000D01*
X330000000Y-151800000D02*
X332940000Y-151800000D01*
X330000000Y-151560000D02*
X332940000Y-151560000D01*
X330000000Y-151680000D02*
X332940000Y-151680000D01*
X331470000Y-146120000D02*
X331470000Y-147140000D01*
X331470000Y-153600000D02*
X331470000Y-152580000D01*
X330000000Y-147140000D02*
X330000000Y-152580000D01*
X332940000Y-147140000D02*
X330000000Y-147140000D01*
X332940000Y-152580000D02*
X332940000Y-147140000D01*
X330000000Y-152580000D02*
X332940000Y-152580000D01*
X309680000Y-151800000D02*
X312620000Y-151800000D01*
X309680000Y-151560000D02*
X312620000Y-151560000D01*
X309680000Y-151680000D02*
X312620000Y-151680000D01*
X311150000Y-146120000D02*
X311150000Y-147140000D01*
X311150000Y-153600000D02*
X311150000Y-152580000D01*
X309680000Y-147140000D02*
X309680000Y-152580000D01*
X312620000Y-147140000D02*
X309680000Y-147140000D01*
X312620000Y-152580000D02*
X312620000Y-147140000D01*
X309680000Y-152580000D02*
X312620000Y-152580000D01*
X289360000Y-151800000D02*
X292300000Y-151800000D01*
X289360000Y-151560000D02*
X292300000Y-151560000D01*
X289360000Y-151680000D02*
X292300000Y-151680000D01*
X290830000Y-146120000D02*
X290830000Y-147140000D01*
X290830000Y-153600000D02*
X290830000Y-152580000D01*
X289360000Y-147140000D02*
X289360000Y-152580000D01*
X292300000Y-147140000D02*
X289360000Y-147140000D01*
X292300000Y-152580000D02*
X292300000Y-147140000D01*
X289360000Y-152580000D02*
X292300000Y-152580000D01*
X269040000Y-151800000D02*
X271980000Y-151800000D01*
X269040000Y-151560000D02*
X271980000Y-151560000D01*
X269040000Y-151680000D02*
X271980000Y-151680000D01*
X270510000Y-146120000D02*
X270510000Y-147140000D01*
X270510000Y-153600000D02*
X270510000Y-152580000D01*
X269040000Y-147140000D02*
X269040000Y-152580000D01*
X271980000Y-147140000D02*
X269040000Y-147140000D01*
X271980000Y-152580000D02*
X271980000Y-147140000D01*
X269040000Y-152580000D02*
X271980000Y-152580000D01*
X238560000Y-172120000D02*
X241500000Y-172120000D01*
X238560000Y-171880000D02*
X241500000Y-171880000D01*
X238560000Y-172000000D02*
X241500000Y-172000000D01*
X240030000Y-166440000D02*
X240030000Y-167460000D01*
X240030000Y-173920000D02*
X240030000Y-172900000D01*
X238560000Y-167460000D02*
X238560000Y-172900000D01*
X241500000Y-167460000D02*
X238560000Y-167460000D01*
X241500000Y-172900000D02*
X241500000Y-167460000D01*
X238560000Y-172900000D02*
X241500000Y-172900000D01*
X218240000Y-172120000D02*
X221180000Y-172120000D01*
X218240000Y-171880000D02*
X221180000Y-171880000D01*
X218240000Y-172000000D02*
X221180000Y-172000000D01*
X219710000Y-166440000D02*
X219710000Y-167460000D01*
X219710000Y-173920000D02*
X219710000Y-172900000D01*
X218240000Y-167460000D02*
X218240000Y-172900000D01*
X221180000Y-167460000D02*
X218240000Y-167460000D01*
X221180000Y-172900000D02*
X221180000Y-167460000D01*
X218240000Y-172900000D02*
X221180000Y-172900000D01*
X197920000Y-172120000D02*
X200860000Y-172120000D01*
X197920000Y-171880000D02*
X200860000Y-171880000D01*
X197920000Y-172000000D02*
X200860000Y-172000000D01*
X199390000Y-166440000D02*
X199390000Y-167460000D01*
X199390000Y-173920000D02*
X199390000Y-172900000D01*
X197920000Y-167460000D02*
X197920000Y-172900000D01*
X200860000Y-167460000D02*
X197920000Y-167460000D01*
X200860000Y-172900000D02*
X200860000Y-167460000D01*
X197920000Y-172900000D02*
X200860000Y-172900000D01*
X177600000Y-172120000D02*
X180540000Y-172120000D01*
X177600000Y-171880000D02*
X180540000Y-171880000D01*
X177600000Y-172000000D02*
X180540000Y-172000000D01*
X179070000Y-166440000D02*
X179070000Y-167460000D01*
X179070000Y-173920000D02*
X179070000Y-172900000D01*
X177600000Y-167460000D02*
X177600000Y-172900000D01*
X180540000Y-167460000D02*
X177600000Y-167460000D01*
X180540000Y-172900000D02*
X180540000Y-167460000D01*
X177600000Y-172900000D02*
X180540000Y-172900000D01*
X157280000Y-172120000D02*
X160220000Y-172120000D01*
X157280000Y-171880000D02*
X160220000Y-171880000D01*
X157280000Y-172000000D02*
X160220000Y-172000000D01*
X158750000Y-166440000D02*
X158750000Y-167460000D01*
X158750000Y-173920000D02*
X158750000Y-172900000D01*
X157280000Y-167460000D02*
X157280000Y-172900000D01*
X160220000Y-167460000D02*
X157280000Y-167460000D01*
X160220000Y-172900000D02*
X160220000Y-167460000D01*
X157280000Y-172900000D02*
X160220000Y-172900000D01*
X238560000Y-151800000D02*
X241500000Y-151800000D01*
X238560000Y-151560000D02*
X241500000Y-151560000D01*
X238560000Y-151680000D02*
X241500000Y-151680000D01*
X240030000Y-146120000D02*
X240030000Y-147140000D01*
X240030000Y-153600000D02*
X240030000Y-152580000D01*
X238560000Y-147140000D02*
X238560000Y-152580000D01*
X241500000Y-147140000D02*
X238560000Y-147140000D01*
X241500000Y-152580000D02*
X241500000Y-147140000D01*
X238560000Y-152580000D02*
X241500000Y-152580000D01*
X218240000Y-151800000D02*
X221180000Y-151800000D01*
X218240000Y-151560000D02*
X221180000Y-151560000D01*
X218240000Y-151680000D02*
X221180000Y-151680000D01*
X219710000Y-146120000D02*
X219710000Y-147140000D01*
X219710000Y-153600000D02*
X219710000Y-152580000D01*
X218240000Y-147140000D02*
X218240000Y-152580000D01*
X221180000Y-147140000D02*
X218240000Y-147140000D01*
X221180000Y-152580000D02*
X221180000Y-147140000D01*
X218240000Y-152580000D02*
X221180000Y-152580000D01*
X197920000Y-151800000D02*
X200860000Y-151800000D01*
X197920000Y-151560000D02*
X200860000Y-151560000D01*
X197920000Y-151680000D02*
X200860000Y-151680000D01*
X199390000Y-146120000D02*
X199390000Y-147140000D01*
X199390000Y-153600000D02*
X199390000Y-152580000D01*
X197920000Y-147140000D02*
X197920000Y-152580000D01*
X200860000Y-147140000D02*
X197920000Y-147140000D01*
X200860000Y-152580000D02*
X200860000Y-147140000D01*
X197920000Y-152580000D02*
X200860000Y-152580000D01*
X177600000Y-151800000D02*
X180540000Y-151800000D01*
X177600000Y-151560000D02*
X180540000Y-151560000D01*
X177600000Y-151680000D02*
X180540000Y-151680000D01*
X179070000Y-146120000D02*
X179070000Y-147140000D01*
X179070000Y-153600000D02*
X179070000Y-152580000D01*
X177600000Y-147140000D02*
X177600000Y-152580000D01*
X180540000Y-147140000D02*
X177600000Y-147140000D01*
X180540000Y-152580000D02*
X180540000Y-147140000D01*
X177600000Y-152580000D02*
X180540000Y-152580000D01*
X157280000Y-151800000D02*
X160220000Y-151800000D01*
X157280000Y-151560000D02*
X160220000Y-151560000D01*
X157280000Y-151680000D02*
X160220000Y-151680000D01*
X158750000Y-146120000D02*
X158750000Y-147140000D01*
X158750000Y-153600000D02*
X158750000Y-152580000D01*
X157280000Y-147140000D02*
X157280000Y-152580000D01*
X160220000Y-147140000D02*
X157280000Y-147140000D01*
X160220000Y-152580000D02*
X160220000Y-147140000D01*
X157280000Y-152580000D02*
X160220000Y-152580000D01*
X126800000Y-172120000D02*
X129740000Y-172120000D01*
X126800000Y-171880000D02*
X129740000Y-171880000D01*
X126800000Y-172000000D02*
X129740000Y-172000000D01*
X128270000Y-166440000D02*
X128270000Y-167460000D01*
X128270000Y-173920000D02*
X128270000Y-172900000D01*
X126800000Y-167460000D02*
X126800000Y-172900000D01*
X129740000Y-167460000D02*
X126800000Y-167460000D01*
X129740000Y-172900000D02*
X129740000Y-167460000D01*
X126800000Y-172900000D02*
X129740000Y-172900000D01*
X106480000Y-172120000D02*
X109420000Y-172120000D01*
X106480000Y-171880000D02*
X109420000Y-171880000D01*
X106480000Y-172000000D02*
X109420000Y-172000000D01*
X107950000Y-166440000D02*
X107950000Y-167460000D01*
X107950000Y-173920000D02*
X107950000Y-172900000D01*
X106480000Y-167460000D02*
X106480000Y-172900000D01*
X109420000Y-167460000D02*
X106480000Y-167460000D01*
X109420000Y-172900000D02*
X109420000Y-167460000D01*
X106480000Y-172900000D02*
X109420000Y-172900000D01*
X86160000Y-172120000D02*
X89100000Y-172120000D01*
X86160000Y-171880000D02*
X89100000Y-171880000D01*
X86160000Y-172000000D02*
X89100000Y-172000000D01*
X87630000Y-166440000D02*
X87630000Y-167460000D01*
X87630000Y-173920000D02*
X87630000Y-172900000D01*
X86160000Y-167460000D02*
X86160000Y-172900000D01*
X89100000Y-167460000D02*
X86160000Y-167460000D01*
X89100000Y-172900000D02*
X89100000Y-167460000D01*
X86160000Y-172900000D02*
X89100000Y-172900000D01*
X65840000Y-172120000D02*
X68780000Y-172120000D01*
X65840000Y-171880000D02*
X68780000Y-171880000D01*
X65840000Y-172000000D02*
X68780000Y-172000000D01*
X67310000Y-166440000D02*
X67310000Y-167460000D01*
X67310000Y-173920000D02*
X67310000Y-172900000D01*
X65840000Y-167460000D02*
X65840000Y-172900000D01*
X68780000Y-167460000D02*
X65840000Y-167460000D01*
X68780000Y-172900000D02*
X68780000Y-167460000D01*
X65840000Y-172900000D02*
X68780000Y-172900000D01*
X45520000Y-172120000D02*
X48460000Y-172120000D01*
X45520000Y-171880000D02*
X48460000Y-171880000D01*
X45520000Y-172000000D02*
X48460000Y-172000000D01*
X46990000Y-166440000D02*
X46990000Y-167460000D01*
X46990000Y-173920000D02*
X46990000Y-172900000D01*
X45520000Y-167460000D02*
X45520000Y-172900000D01*
X48460000Y-167460000D02*
X45520000Y-167460000D01*
X48460000Y-172900000D02*
X48460000Y-167460000D01*
X45520000Y-172900000D02*
X48460000Y-172900000D01*
X128070000Y-151800000D02*
X131010000Y-151800000D01*
X128070000Y-151560000D02*
X131010000Y-151560000D01*
X128070000Y-151680000D02*
X131010000Y-151680000D01*
X129540000Y-146120000D02*
X129540000Y-147140000D01*
X129540000Y-153600000D02*
X129540000Y-152580000D01*
X128070000Y-147140000D02*
X128070000Y-152580000D01*
X131010000Y-147140000D02*
X128070000Y-147140000D01*
X131010000Y-152580000D02*
X131010000Y-147140000D01*
X128070000Y-152580000D02*
X131010000Y-152580000D01*
X106480000Y-151800000D02*
X109420000Y-151800000D01*
X106480000Y-151560000D02*
X109420000Y-151560000D01*
X106480000Y-151680000D02*
X109420000Y-151680000D01*
X107950000Y-146120000D02*
X107950000Y-147140000D01*
X107950000Y-153600000D02*
X107950000Y-152580000D01*
X106480000Y-147140000D02*
X106480000Y-152580000D01*
X109420000Y-147140000D02*
X106480000Y-147140000D01*
X109420000Y-152580000D02*
X109420000Y-147140000D01*
X106480000Y-152580000D02*
X109420000Y-152580000D01*
X86160000Y-151800000D02*
X89100000Y-151800000D01*
X86160000Y-151560000D02*
X89100000Y-151560000D01*
X86160000Y-151680000D02*
X89100000Y-151680000D01*
X87630000Y-146120000D02*
X87630000Y-147140000D01*
X87630000Y-153600000D02*
X87630000Y-152580000D01*
X86160000Y-147140000D02*
X86160000Y-152580000D01*
X89100000Y-147140000D02*
X86160000Y-147140000D01*
X89100000Y-152580000D02*
X89100000Y-147140000D01*
X86160000Y-152580000D02*
X89100000Y-152580000D01*
X65840000Y-151800000D02*
X68780000Y-151800000D01*
X65840000Y-151560000D02*
X68780000Y-151560000D01*
X65840000Y-151680000D02*
X68780000Y-151680000D01*
X67310000Y-146120000D02*
X67310000Y-147140000D01*
X67310000Y-153600000D02*
X67310000Y-152580000D01*
X65840000Y-147140000D02*
X65840000Y-152580000D01*
X68780000Y-147140000D02*
X65840000Y-147140000D01*
X68780000Y-152580000D02*
X68780000Y-147140000D01*
X65840000Y-152580000D02*
X68780000Y-152580000D01*
X45520000Y-151800000D02*
X48460000Y-151800000D01*
X45520000Y-151560000D02*
X48460000Y-151560000D01*
X45520000Y-151680000D02*
X48460000Y-151680000D01*
X46990000Y-146120000D02*
X46990000Y-147140000D01*
X46990000Y-153600000D02*
X46990000Y-152580000D01*
X45520000Y-147140000D02*
X45520000Y-152580000D01*
X48460000Y-147140000D02*
X45520000Y-147140000D01*
X48460000Y-152580000D02*
X48460000Y-147140000D01*
X45520000Y-152580000D02*
X48460000Y-152580000D01*
X353695000Y-187325000D02*
X353695000Y-173355000D01*
X367665000Y-187325000D02*
X353695000Y-187325000D01*
X367665000Y-173355000D02*
X367665000Y-187325000D01*
X353695000Y-173355000D02*
X367665000Y-173355000D01*
X353695000Y-177165000D02*
X353695000Y-163195000D01*
X367665000Y-177165000D02*
X353695000Y-177165000D01*
X367665000Y-163195000D02*
X367665000Y-177165000D01*
X353695000Y-163195000D02*
X367665000Y-163195000D01*
X333375000Y-187325000D02*
X333375000Y-173355000D01*
X347345000Y-187325000D02*
X333375000Y-187325000D01*
X347345000Y-173355000D02*
X347345000Y-187325000D01*
X333375000Y-173355000D02*
X347345000Y-173355000D01*
X313055000Y-187325000D02*
X313055000Y-173355000D01*
X327025000Y-187325000D02*
X313055000Y-187325000D01*
X327025000Y-173355000D02*
X327025000Y-187325000D01*
X313055000Y-173355000D02*
X327025000Y-173355000D01*
X292735000Y-187325000D02*
X292735000Y-173355000D01*
X306705000Y-187325000D02*
X292735000Y-187325000D01*
X306705000Y-173355000D02*
X306705000Y-187325000D01*
X292735000Y-173355000D02*
X306705000Y-173355000D01*
X272415000Y-177165000D02*
X272415000Y-163195000D01*
X286385000Y-177165000D02*
X272415000Y-177165000D01*
X286385000Y-163195000D02*
X286385000Y-177165000D01*
X272415000Y-163195000D02*
X286385000Y-163195000D01*
X333375000Y-177165000D02*
X333375000Y-163195000D01*
X347345000Y-177165000D02*
X333375000Y-177165000D01*
X347345000Y-163195000D02*
X347345000Y-177165000D01*
X333375000Y-163195000D02*
X347345000Y-163195000D01*
X313055000Y-177165000D02*
X313055000Y-163195000D01*
X327025000Y-177165000D02*
X313055000Y-177165000D01*
X327025000Y-163195000D02*
X327025000Y-177165000D01*
X313055000Y-163195000D02*
X327025000Y-163195000D01*
X292735000Y-177165000D02*
X292735000Y-163195000D01*
X306705000Y-177165000D02*
X292735000Y-177165000D01*
X306705000Y-163195000D02*
X306705000Y-177165000D01*
X292735000Y-163195000D02*
X306705000Y-163195000D01*
X272415000Y-187325000D02*
X272415000Y-173355000D01*
X286385000Y-187325000D02*
X272415000Y-187325000D01*
X286385000Y-173355000D02*
X286385000Y-187325000D01*
X272415000Y-173355000D02*
X286385000Y-173355000D01*
X333375000Y-156845000D02*
X333375000Y-142875000D01*
X347345000Y-156845000D02*
X333375000Y-156845000D01*
X347345000Y-142875000D02*
X347345000Y-156845000D01*
X333375000Y-142875000D02*
X347345000Y-142875000D01*
X313055000Y-156845000D02*
X313055000Y-142875000D01*
X327025000Y-156845000D02*
X313055000Y-156845000D01*
X327025000Y-142875000D02*
X327025000Y-156845000D01*
X313055000Y-142875000D02*
X327025000Y-142875000D01*
X292735000Y-156845000D02*
X292735000Y-142875000D01*
X306705000Y-156845000D02*
X292735000Y-156845000D01*
X306705000Y-142875000D02*
X306705000Y-156845000D01*
X292735000Y-142875000D02*
X306705000Y-142875000D01*
X272415000Y-156845000D02*
X272415000Y-142875000D01*
X286385000Y-156845000D02*
X272415000Y-156845000D01*
X286385000Y-142875000D02*
X286385000Y-156845000D01*
X272415000Y-142875000D02*
X286385000Y-142875000D01*
X241935000Y-187325000D02*
X241935000Y-173355000D01*
X255905000Y-187325000D02*
X241935000Y-187325000D01*
X255905000Y-173355000D02*
X255905000Y-187325000D01*
X241935000Y-173355000D02*
X255905000Y-173355000D01*
X221615000Y-187325000D02*
X221615000Y-173355000D01*
X235585000Y-187325000D02*
X221615000Y-187325000D01*
X235585000Y-173355000D02*
X235585000Y-187325000D01*
X221615000Y-173355000D02*
X235585000Y-173355000D01*
X201295000Y-187325000D02*
X201295000Y-173355000D01*
X215265000Y-187325000D02*
X201295000Y-187325000D01*
X215265000Y-173355000D02*
X215265000Y-187325000D01*
X201295000Y-173355000D02*
X215265000Y-173355000D01*
X180975000Y-187325000D02*
X180975000Y-173355000D01*
X194945000Y-187325000D02*
X180975000Y-187325000D01*
X194945000Y-173355000D02*
X194945000Y-187325000D01*
X180975000Y-173355000D02*
X194945000Y-173355000D01*
X160655000Y-187325000D02*
X160655000Y-173355000D01*
X174625000Y-187325000D02*
X160655000Y-187325000D01*
X174625000Y-173355000D02*
X174625000Y-187325000D01*
X160655000Y-173355000D02*
X174625000Y-173355000D01*
X241935000Y-177165000D02*
X241935000Y-163195000D01*
X255905000Y-177165000D02*
X241935000Y-177165000D01*
X255905000Y-163195000D02*
X255905000Y-177165000D01*
X241935000Y-163195000D02*
X255905000Y-163195000D01*
X221615000Y-177165000D02*
X221615000Y-163195000D01*
X235585000Y-177165000D02*
X221615000Y-177165000D01*
X235585000Y-163195000D02*
X235585000Y-177165000D01*
X221615000Y-163195000D02*
X235585000Y-163195000D01*
X201295000Y-177165000D02*
X201295000Y-163195000D01*
X215265000Y-177165000D02*
X201295000Y-177165000D01*
X215265000Y-163195000D02*
X215265000Y-177165000D01*
X201295000Y-163195000D02*
X215265000Y-163195000D01*
X180975000Y-177165000D02*
X180975000Y-163195000D01*
X194945000Y-177165000D02*
X180975000Y-177165000D01*
X194945000Y-163195000D02*
X194945000Y-177165000D01*
X180975000Y-163195000D02*
X194945000Y-163195000D01*
X160655000Y-177165000D02*
X160655000Y-163195000D01*
X174625000Y-177165000D02*
X160655000Y-177165000D01*
X174625000Y-163195000D02*
X174625000Y-177165000D01*
X160655000Y-163195000D02*
X174625000Y-163195000D01*
X241935000Y-156845000D02*
X241935000Y-142875000D01*
X255905000Y-156845000D02*
X241935000Y-156845000D01*
X255905000Y-142875000D02*
X255905000Y-156845000D01*
X241935000Y-142875000D02*
X255905000Y-142875000D01*
X221615000Y-156845000D02*
X221615000Y-142875000D01*
X235585000Y-156845000D02*
X221615000Y-156845000D01*
X235585000Y-142875000D02*
X235585000Y-156845000D01*
X221615000Y-142875000D02*
X235585000Y-142875000D01*
X201295000Y-156845000D02*
X201295000Y-142875000D01*
X215265000Y-156845000D02*
X201295000Y-156845000D01*
X215265000Y-142875000D02*
X215265000Y-156845000D01*
X201295000Y-142875000D02*
X215265000Y-142875000D01*
X180975000Y-156845000D02*
X180975000Y-142875000D01*
X194945000Y-156845000D02*
X180975000Y-156845000D01*
X194945000Y-142875000D02*
X194945000Y-156845000D01*
X180975000Y-142875000D02*
X194945000Y-142875000D01*
X160655000Y-156845000D02*
X160655000Y-142875000D01*
X174625000Y-156845000D02*
X160655000Y-156845000D01*
X174625000Y-142875000D02*
X174625000Y-156845000D01*
X160655000Y-142875000D02*
X174625000Y-142875000D01*
X130175000Y-187325000D02*
X130175000Y-173355000D01*
X144145000Y-187325000D02*
X130175000Y-187325000D01*
X144145000Y-173355000D02*
X144145000Y-187325000D01*
X130175000Y-173355000D02*
X144145000Y-173355000D01*
X109855000Y-187325000D02*
X109855000Y-173355000D01*
X123825000Y-187325000D02*
X109855000Y-187325000D01*
X123825000Y-173355000D02*
X123825000Y-187325000D01*
X109855000Y-173355000D02*
X123825000Y-173355000D01*
X89535000Y-187325000D02*
X89535000Y-173355000D01*
X103505000Y-187325000D02*
X89535000Y-187325000D01*
X103505000Y-173355000D02*
X103505000Y-187325000D01*
X89535000Y-173355000D02*
X103505000Y-173355000D01*
X69215000Y-187325000D02*
X69215000Y-173355000D01*
X83185000Y-187325000D02*
X69215000Y-187325000D01*
X83185000Y-173355000D02*
X83185000Y-187325000D01*
X69215000Y-173355000D02*
X83185000Y-173355000D01*
X48895000Y-187325000D02*
X48895000Y-173355000D01*
X62865000Y-187325000D02*
X48895000Y-187325000D01*
X62865000Y-173355000D02*
X62865000Y-187325000D01*
X48895000Y-173355000D02*
X62865000Y-173355000D01*
X130175000Y-177165000D02*
X130175000Y-163195000D01*
X144145000Y-177165000D02*
X130175000Y-177165000D01*
X144145000Y-163195000D02*
X144145000Y-177165000D01*
X130175000Y-163195000D02*
X144145000Y-163195000D01*
X109855000Y-177165000D02*
X109855000Y-163195000D01*
X123825000Y-177165000D02*
X109855000Y-177165000D01*
X123825000Y-163195000D02*
X123825000Y-177165000D01*
X109855000Y-163195000D02*
X123825000Y-163195000D01*
X89535000Y-177165000D02*
X89535000Y-163195000D01*
X103505000Y-177165000D02*
X89535000Y-177165000D01*
X103505000Y-163195000D02*
X103505000Y-177165000D01*
X89535000Y-163195000D02*
X103505000Y-163195000D01*
X69215000Y-177165000D02*
X69215000Y-163195000D01*
X83185000Y-177165000D02*
X69215000Y-177165000D01*
X83185000Y-163195000D02*
X83185000Y-177165000D01*
X69215000Y-163195000D02*
X83185000Y-163195000D01*
X48895000Y-177165000D02*
X48895000Y-163195000D01*
X62865000Y-177165000D02*
X48895000Y-177165000D01*
X62865000Y-163195000D02*
X62865000Y-177165000D01*
X48895000Y-163195000D02*
X62865000Y-163195000D01*
X109855000Y-156845000D02*
X109855000Y-142875000D01*
X123825000Y-156845000D02*
X109855000Y-156845000D01*
X123825000Y-142875000D02*
X123825000Y-156845000D01*
X109855000Y-142875000D02*
X123825000Y-142875000D01*
X89535000Y-156845000D02*
X89535000Y-142875000D01*
X103505000Y-156845000D02*
X89535000Y-156845000D01*
X103505000Y-142875000D02*
X103505000Y-156845000D01*
X89535000Y-142875000D02*
X103505000Y-142875000D01*
X69215000Y-156845000D02*
X69215000Y-142875000D01*
X83185000Y-156845000D02*
X69215000Y-156845000D01*
X83185000Y-142875000D02*
X83185000Y-156845000D01*
X69215000Y-142875000D02*
X83185000Y-142875000D01*
X48895000Y-156845000D02*
X48895000Y-142875000D01*
X62865000Y-156845000D02*
X48895000Y-156845000D01*
X62865000Y-142875000D02*
X62865000Y-156845000D01*
X48895000Y-142875000D02*
X62865000Y-142875000D01*
X382210000Y-156150000D02*
X383540000Y-156150000D01*
X382210000Y-157480000D02*
X382210000Y-156150000D01*
X384810000Y-156150000D02*
X387410000Y-156150000D01*
X384810000Y-158750000D02*
X384810000Y-156150000D01*
X382210000Y-158750000D02*
X384810000Y-158750000D01*
X387410000Y-156150000D02*
X387410000Y-181670000D01*
X382210000Y-158750000D02*
X382210000Y-181670000D01*
X382210000Y-181670000D02*
X387410000Y-181670000D01*
D11*
X135826666Y-142390761D02*
X135969523Y-142438380D01*
X136207619Y-142438380D01*
X136302857Y-142390761D01*
X136350476Y-142343142D01*
X136398095Y-142247904D01*
X136398095Y-142152666D01*
X136350476Y-142057428D01*
X136302857Y-142009809D01*
X136207619Y-141962190D01*
X136017142Y-141914571D01*
X135921904Y-141866952D01*
X135874285Y-141819333D01*
X135826666Y-141724095D01*
X135826666Y-141628857D01*
X135874285Y-141533619D01*
X135921904Y-141486000D01*
X136017142Y-141438380D01*
X136255238Y-141438380D01*
X136398095Y-141486000D01*
X136731428Y-141438380D02*
X136969523Y-142438380D01*
X137160000Y-141724095D01*
X137350476Y-142438380D01*
X137588571Y-141438380D01*
X138445714Y-141438380D02*
X137969523Y-141438380D01*
X137921904Y-141914571D01*
X137969523Y-141866952D01*
X138064761Y-141819333D01*
X138302857Y-141819333D01*
X138398095Y-141866952D01*
X138445714Y-141914571D01*
X138493333Y-142009809D01*
X138493333Y-142247904D01*
X138445714Y-142343142D01*
X138398095Y-142390761D01*
X138302857Y-142438380D01*
X138064761Y-142438380D01*
X137969523Y-142390761D01*
X137921904Y-142343142D01*
X358870476Y-142390761D02*
X359013333Y-142438380D01*
X359251428Y-142438380D01*
X359346666Y-142390761D01*
X359394285Y-142343142D01*
X359441904Y-142247904D01*
X359441904Y-142152666D01*
X359394285Y-142057428D01*
X359346666Y-142009809D01*
X359251428Y-141962190D01*
X359060952Y-141914571D01*
X358965714Y-141866952D01*
X358918095Y-141819333D01*
X358870476Y-141724095D01*
X358870476Y-141628857D01*
X358918095Y-141533619D01*
X358965714Y-141486000D01*
X359060952Y-141438380D01*
X359299047Y-141438380D01*
X359441904Y-141486000D01*
X359775238Y-141438380D02*
X360013333Y-142438380D01*
X360203809Y-141724095D01*
X360394285Y-142438380D01*
X360632380Y-141438380D01*
X360918095Y-141438380D02*
X361537142Y-141438380D01*
X361203809Y-141819333D01*
X361346666Y-141819333D01*
X361441904Y-141866952D01*
X361489523Y-141914571D01*
X361537142Y-142009809D01*
X361537142Y-142247904D01*
X361489523Y-142343142D01*
X361441904Y-142390761D01*
X361346666Y-142438380D01*
X361060952Y-142438380D01*
X360965714Y-142390761D01*
X360918095Y-142343142D01*
X362441904Y-141438380D02*
X361965714Y-141438380D01*
X361918095Y-141914571D01*
X361965714Y-141866952D01*
X362060952Y-141819333D01*
X362299047Y-141819333D01*
X362394285Y-141866952D01*
X362441904Y-141914571D01*
X362489523Y-142009809D01*
X362489523Y-142247904D01*
X362441904Y-142343142D01*
X362394285Y-142390761D01*
X362299047Y-142438380D01*
X362060952Y-142438380D01*
X361965714Y-142390761D01*
X361918095Y-142343142D01*
X349772380Y-171394285D02*
X348772380Y-171394285D01*
X348772380Y-171156190D01*
X348820000Y-171013333D01*
X348915238Y-170918095D01*
X349010476Y-170870476D01*
X349200952Y-170822857D01*
X349343809Y-170822857D01*
X349534285Y-170870476D01*
X349629523Y-170918095D01*
X349724761Y-171013333D01*
X349772380Y-171156190D01*
X349772380Y-171394285D01*
X348772380Y-170489523D02*
X348772380Y-169870476D01*
X349153333Y-170203809D01*
X349153333Y-170060952D01*
X349200952Y-169965714D01*
X349248571Y-169918095D01*
X349343809Y-169870476D01*
X349581904Y-169870476D01*
X349677142Y-169918095D01*
X349724761Y-169965714D01*
X349772380Y-170060952D01*
X349772380Y-170346666D01*
X349724761Y-170441904D01*
X349677142Y-170489523D01*
X348772380Y-169251428D02*
X348772380Y-169156190D01*
X348820000Y-169060952D01*
X348867619Y-169013333D01*
X348962857Y-168965714D01*
X349153333Y-168918095D01*
X349391428Y-168918095D01*
X349581904Y-168965714D01*
X349677142Y-169013333D01*
X349724761Y-169060952D01*
X349772380Y-169156190D01*
X349772380Y-169251428D01*
X349724761Y-169346666D01*
X349677142Y-169394285D01*
X349581904Y-169441904D01*
X349391428Y-169489523D01*
X349153333Y-169489523D01*
X348962857Y-169441904D01*
X348867619Y-169394285D01*
X348820000Y-169346666D01*
X348772380Y-169251428D01*
X350142380Y-175521904D02*
X349142380Y-175521904D01*
X350142380Y-174950476D02*
X349570952Y-175379047D01*
X349142380Y-174950476D02*
X349713809Y-175521904D01*
X329452380Y-171394285D02*
X328452380Y-171394285D01*
X328452380Y-171156190D01*
X328500000Y-171013333D01*
X328595238Y-170918095D01*
X328690476Y-170870476D01*
X328880952Y-170822857D01*
X329023809Y-170822857D01*
X329214285Y-170870476D01*
X329309523Y-170918095D01*
X329404761Y-171013333D01*
X329452380Y-171156190D01*
X329452380Y-171394285D01*
X328547619Y-170441904D02*
X328500000Y-170394285D01*
X328452380Y-170299047D01*
X328452380Y-170060952D01*
X328500000Y-169965714D01*
X328547619Y-169918095D01*
X328642857Y-169870476D01*
X328738095Y-169870476D01*
X328880952Y-169918095D01*
X329452380Y-170489523D01*
X329452380Y-169870476D01*
X329452380Y-169394285D02*
X329452380Y-169203809D01*
X329404761Y-169108571D01*
X329357142Y-169060952D01*
X329214285Y-168965714D01*
X329023809Y-168918095D01*
X328642857Y-168918095D01*
X328547619Y-168965714D01*
X328500000Y-169013333D01*
X328452380Y-169108571D01*
X328452380Y-169299047D01*
X328500000Y-169394285D01*
X328547619Y-169441904D01*
X328642857Y-169489523D01*
X328880952Y-169489523D01*
X328976190Y-169441904D01*
X329023809Y-169394285D01*
X329071428Y-169299047D01*
X329071428Y-169108571D01*
X329023809Y-169013333D01*
X328976190Y-168965714D01*
X328880952Y-168918095D01*
X329822380Y-175521904D02*
X328822380Y-175521904D01*
X329822380Y-174950476D02*
X329250952Y-175379047D01*
X328822380Y-174950476D02*
X329393809Y-175521904D01*
X309132380Y-171394285D02*
X308132380Y-171394285D01*
X308132380Y-171156190D01*
X308180000Y-171013333D01*
X308275238Y-170918095D01*
X308370476Y-170870476D01*
X308560952Y-170822857D01*
X308703809Y-170822857D01*
X308894285Y-170870476D01*
X308989523Y-170918095D01*
X309084761Y-171013333D01*
X309132380Y-171156190D01*
X309132380Y-171394285D01*
X308227619Y-170441904D02*
X308180000Y-170394285D01*
X308132380Y-170299047D01*
X308132380Y-170060952D01*
X308180000Y-169965714D01*
X308227619Y-169918095D01*
X308322857Y-169870476D01*
X308418095Y-169870476D01*
X308560952Y-169918095D01*
X309132380Y-170489523D01*
X309132380Y-169870476D01*
X308560952Y-169299047D02*
X308513333Y-169394285D01*
X308465714Y-169441904D01*
X308370476Y-169489523D01*
X308322857Y-169489523D01*
X308227619Y-169441904D01*
X308180000Y-169394285D01*
X308132380Y-169299047D01*
X308132380Y-169108571D01*
X308180000Y-169013333D01*
X308227619Y-168965714D01*
X308322857Y-168918095D01*
X308370476Y-168918095D01*
X308465714Y-168965714D01*
X308513333Y-169013333D01*
X308560952Y-169108571D01*
X308560952Y-169299047D01*
X308608571Y-169394285D01*
X308656190Y-169441904D01*
X308751428Y-169489523D01*
X308941904Y-169489523D01*
X309037142Y-169441904D01*
X309084761Y-169394285D01*
X309132380Y-169299047D01*
X309132380Y-169108571D01*
X309084761Y-169013333D01*
X309037142Y-168965714D01*
X308941904Y-168918095D01*
X308751428Y-168918095D01*
X308656190Y-168965714D01*
X308608571Y-169013333D01*
X308560952Y-169108571D01*
X309502380Y-175521904D02*
X308502380Y-175521904D01*
X309502380Y-174950476D02*
X308930952Y-175379047D01*
X308502380Y-174950476D02*
X309073809Y-175521904D01*
X288812380Y-171394285D02*
X287812380Y-171394285D01*
X287812380Y-171156190D01*
X287860000Y-171013333D01*
X287955238Y-170918095D01*
X288050476Y-170870476D01*
X288240952Y-170822857D01*
X288383809Y-170822857D01*
X288574285Y-170870476D01*
X288669523Y-170918095D01*
X288764761Y-171013333D01*
X288812380Y-171156190D01*
X288812380Y-171394285D01*
X287907619Y-170441904D02*
X287860000Y-170394285D01*
X287812380Y-170299047D01*
X287812380Y-170060952D01*
X287860000Y-169965714D01*
X287907619Y-169918095D01*
X288002857Y-169870476D01*
X288098095Y-169870476D01*
X288240952Y-169918095D01*
X288812380Y-170489523D01*
X288812380Y-169870476D01*
X287812380Y-169537142D02*
X287812380Y-168870476D01*
X288812380Y-169299047D01*
X289182380Y-175521904D02*
X288182380Y-175521904D01*
X289182380Y-174950476D02*
X288610952Y-175379047D01*
X288182380Y-174950476D02*
X288753809Y-175521904D01*
X268492380Y-171394285D02*
X267492380Y-171394285D01*
X267492380Y-171156190D01*
X267540000Y-171013333D01*
X267635238Y-170918095D01*
X267730476Y-170870476D01*
X267920952Y-170822857D01*
X268063809Y-170822857D01*
X268254285Y-170870476D01*
X268349523Y-170918095D01*
X268444761Y-171013333D01*
X268492380Y-171156190D01*
X268492380Y-171394285D01*
X267587619Y-170441904D02*
X267540000Y-170394285D01*
X267492380Y-170299047D01*
X267492380Y-170060952D01*
X267540000Y-169965714D01*
X267587619Y-169918095D01*
X267682857Y-169870476D01*
X267778095Y-169870476D01*
X267920952Y-169918095D01*
X268492380Y-170489523D01*
X268492380Y-169870476D01*
X267492380Y-169013333D02*
X267492380Y-169203809D01*
X267540000Y-169299047D01*
X267587619Y-169346666D01*
X267730476Y-169441904D01*
X267920952Y-169489523D01*
X268301904Y-169489523D01*
X268397142Y-169441904D01*
X268444761Y-169394285D01*
X268492380Y-169299047D01*
X268492380Y-169108571D01*
X268444761Y-169013333D01*
X268397142Y-168965714D01*
X268301904Y-168918095D01*
X268063809Y-168918095D01*
X267968571Y-168965714D01*
X267920952Y-169013333D01*
X267873333Y-169108571D01*
X267873333Y-169299047D01*
X267920952Y-169394285D01*
X267968571Y-169441904D01*
X268063809Y-169489523D01*
X268862380Y-175521904D02*
X267862380Y-175521904D01*
X268862380Y-174950476D02*
X268290952Y-175379047D01*
X267862380Y-174950476D02*
X268433809Y-175521904D01*
X349772380Y-151074285D02*
X348772380Y-151074285D01*
X348772380Y-150836190D01*
X348820000Y-150693333D01*
X348915238Y-150598095D01*
X349010476Y-150550476D01*
X349200952Y-150502857D01*
X349343809Y-150502857D01*
X349534285Y-150550476D01*
X349629523Y-150598095D01*
X349724761Y-150693333D01*
X349772380Y-150836190D01*
X349772380Y-151074285D01*
X348867619Y-150121904D02*
X348820000Y-150074285D01*
X348772380Y-149979047D01*
X348772380Y-149740952D01*
X348820000Y-149645714D01*
X348867619Y-149598095D01*
X348962857Y-149550476D01*
X349058095Y-149550476D01*
X349200952Y-149598095D01*
X349772380Y-150169523D01*
X349772380Y-149550476D01*
X348772380Y-148645714D02*
X348772380Y-149121904D01*
X349248571Y-149169523D01*
X349200952Y-149121904D01*
X349153333Y-149026666D01*
X349153333Y-148788571D01*
X349200952Y-148693333D01*
X349248571Y-148645714D01*
X349343809Y-148598095D01*
X349581904Y-148598095D01*
X349677142Y-148645714D01*
X349724761Y-148693333D01*
X349772380Y-148788571D01*
X349772380Y-149026666D01*
X349724761Y-149121904D01*
X349677142Y-149169523D01*
X350142380Y-155201904D02*
X349142380Y-155201904D01*
X350142380Y-154630476D02*
X349570952Y-155059047D01*
X349142380Y-154630476D02*
X349713809Y-155201904D01*
X329452380Y-151074285D02*
X328452380Y-151074285D01*
X328452380Y-150836190D01*
X328500000Y-150693333D01*
X328595238Y-150598095D01*
X328690476Y-150550476D01*
X328880952Y-150502857D01*
X329023809Y-150502857D01*
X329214285Y-150550476D01*
X329309523Y-150598095D01*
X329404761Y-150693333D01*
X329452380Y-150836190D01*
X329452380Y-151074285D01*
X328547619Y-150121904D02*
X328500000Y-150074285D01*
X328452380Y-149979047D01*
X328452380Y-149740952D01*
X328500000Y-149645714D01*
X328547619Y-149598095D01*
X328642857Y-149550476D01*
X328738095Y-149550476D01*
X328880952Y-149598095D01*
X329452380Y-150169523D01*
X329452380Y-149550476D01*
X328785714Y-148693333D02*
X329452380Y-148693333D01*
X328404761Y-148931428D02*
X329119047Y-149169523D01*
X329119047Y-148550476D01*
X329822380Y-155201904D02*
X328822380Y-155201904D01*
X329822380Y-154630476D02*
X329250952Y-155059047D01*
X328822380Y-154630476D02*
X329393809Y-155201904D01*
X309132380Y-151074285D02*
X308132380Y-151074285D01*
X308132380Y-150836190D01*
X308180000Y-150693333D01*
X308275238Y-150598095D01*
X308370476Y-150550476D01*
X308560952Y-150502857D01*
X308703809Y-150502857D01*
X308894285Y-150550476D01*
X308989523Y-150598095D01*
X309084761Y-150693333D01*
X309132380Y-150836190D01*
X309132380Y-151074285D01*
X308227619Y-150121904D02*
X308180000Y-150074285D01*
X308132380Y-149979047D01*
X308132380Y-149740952D01*
X308180000Y-149645714D01*
X308227619Y-149598095D01*
X308322857Y-149550476D01*
X308418095Y-149550476D01*
X308560952Y-149598095D01*
X309132380Y-150169523D01*
X309132380Y-149550476D01*
X308132380Y-149217142D02*
X308132380Y-148598095D01*
X308513333Y-148931428D01*
X308513333Y-148788571D01*
X308560952Y-148693333D01*
X308608571Y-148645714D01*
X308703809Y-148598095D01*
X308941904Y-148598095D01*
X309037142Y-148645714D01*
X309084761Y-148693333D01*
X309132380Y-148788571D01*
X309132380Y-149074285D01*
X309084761Y-149169523D01*
X309037142Y-149217142D01*
X309502380Y-155201904D02*
X308502380Y-155201904D01*
X309502380Y-154630476D02*
X308930952Y-155059047D01*
X308502380Y-154630476D02*
X309073809Y-155201904D01*
X288812380Y-151074285D02*
X287812380Y-151074285D01*
X287812380Y-150836190D01*
X287860000Y-150693333D01*
X287955238Y-150598095D01*
X288050476Y-150550476D01*
X288240952Y-150502857D01*
X288383809Y-150502857D01*
X288574285Y-150550476D01*
X288669523Y-150598095D01*
X288764761Y-150693333D01*
X288812380Y-150836190D01*
X288812380Y-151074285D01*
X287907619Y-150121904D02*
X287860000Y-150074285D01*
X287812380Y-149979047D01*
X287812380Y-149740952D01*
X287860000Y-149645714D01*
X287907619Y-149598095D01*
X288002857Y-149550476D01*
X288098095Y-149550476D01*
X288240952Y-149598095D01*
X288812380Y-150169523D01*
X288812380Y-149550476D01*
X287907619Y-149169523D02*
X287860000Y-149121904D01*
X287812380Y-149026666D01*
X287812380Y-148788571D01*
X287860000Y-148693333D01*
X287907619Y-148645714D01*
X288002857Y-148598095D01*
X288098095Y-148598095D01*
X288240952Y-148645714D01*
X288812380Y-149217142D01*
X288812380Y-148598095D01*
X289182380Y-155201904D02*
X288182380Y-155201904D01*
X289182380Y-154630476D02*
X288610952Y-155059047D01*
X288182380Y-154630476D02*
X288753809Y-155201904D01*
X268492380Y-151074285D02*
X267492380Y-151074285D01*
X267492380Y-150836190D01*
X267540000Y-150693333D01*
X267635238Y-150598095D01*
X267730476Y-150550476D01*
X267920952Y-150502857D01*
X268063809Y-150502857D01*
X268254285Y-150550476D01*
X268349523Y-150598095D01*
X268444761Y-150693333D01*
X268492380Y-150836190D01*
X268492380Y-151074285D01*
X267587619Y-150121904D02*
X267540000Y-150074285D01*
X267492380Y-149979047D01*
X267492380Y-149740952D01*
X267540000Y-149645714D01*
X267587619Y-149598095D01*
X267682857Y-149550476D01*
X267778095Y-149550476D01*
X267920952Y-149598095D01*
X268492380Y-150169523D01*
X268492380Y-149550476D01*
X268492380Y-148598095D02*
X268492380Y-149169523D01*
X268492380Y-148883809D02*
X267492380Y-148883809D01*
X267635238Y-148979047D01*
X267730476Y-149074285D01*
X267778095Y-149169523D01*
X268862380Y-155201904D02*
X267862380Y-155201904D01*
X268862380Y-154630476D02*
X268290952Y-155059047D01*
X267862380Y-154630476D02*
X268433809Y-155201904D01*
X238012380Y-171394285D02*
X237012380Y-171394285D01*
X237012380Y-171156190D01*
X237060000Y-171013333D01*
X237155238Y-170918095D01*
X237250476Y-170870476D01*
X237440952Y-170822857D01*
X237583809Y-170822857D01*
X237774285Y-170870476D01*
X237869523Y-170918095D01*
X237964761Y-171013333D01*
X238012380Y-171156190D01*
X238012380Y-171394285D01*
X237107619Y-170441904D02*
X237060000Y-170394285D01*
X237012380Y-170299047D01*
X237012380Y-170060952D01*
X237060000Y-169965714D01*
X237107619Y-169918095D01*
X237202857Y-169870476D01*
X237298095Y-169870476D01*
X237440952Y-169918095D01*
X238012380Y-170489523D01*
X238012380Y-169870476D01*
X237012380Y-169251428D02*
X237012380Y-169156190D01*
X237060000Y-169060952D01*
X237107619Y-169013333D01*
X237202857Y-168965714D01*
X237393333Y-168918095D01*
X237631428Y-168918095D01*
X237821904Y-168965714D01*
X237917142Y-169013333D01*
X237964761Y-169060952D01*
X238012380Y-169156190D01*
X238012380Y-169251428D01*
X237964761Y-169346666D01*
X237917142Y-169394285D01*
X237821904Y-169441904D01*
X237631428Y-169489523D01*
X237393333Y-169489523D01*
X237202857Y-169441904D01*
X237107619Y-169394285D01*
X237060000Y-169346666D01*
X237012380Y-169251428D01*
X238382380Y-175521904D02*
X237382380Y-175521904D01*
X238382380Y-174950476D02*
X237810952Y-175379047D01*
X237382380Y-174950476D02*
X237953809Y-175521904D01*
X217692380Y-171394285D02*
X216692380Y-171394285D01*
X216692380Y-171156190D01*
X216740000Y-171013333D01*
X216835238Y-170918095D01*
X216930476Y-170870476D01*
X217120952Y-170822857D01*
X217263809Y-170822857D01*
X217454285Y-170870476D01*
X217549523Y-170918095D01*
X217644761Y-171013333D01*
X217692380Y-171156190D01*
X217692380Y-171394285D01*
X217692380Y-169870476D02*
X217692380Y-170441904D01*
X217692380Y-170156190D02*
X216692380Y-170156190D01*
X216835238Y-170251428D01*
X216930476Y-170346666D01*
X216978095Y-170441904D01*
X217692380Y-169394285D02*
X217692380Y-169203809D01*
X217644761Y-169108571D01*
X217597142Y-169060952D01*
X217454285Y-168965714D01*
X217263809Y-168918095D01*
X216882857Y-168918095D01*
X216787619Y-168965714D01*
X216740000Y-169013333D01*
X216692380Y-169108571D01*
X216692380Y-169299047D01*
X216740000Y-169394285D01*
X216787619Y-169441904D01*
X216882857Y-169489523D01*
X217120952Y-169489523D01*
X217216190Y-169441904D01*
X217263809Y-169394285D01*
X217311428Y-169299047D01*
X217311428Y-169108571D01*
X217263809Y-169013333D01*
X217216190Y-168965714D01*
X217120952Y-168918095D01*
X218062380Y-175521904D02*
X217062380Y-175521904D01*
X218062380Y-174950476D02*
X217490952Y-175379047D01*
X217062380Y-174950476D02*
X217633809Y-175521904D01*
X197372380Y-171394285D02*
X196372380Y-171394285D01*
X196372380Y-171156190D01*
X196420000Y-171013333D01*
X196515238Y-170918095D01*
X196610476Y-170870476D01*
X196800952Y-170822857D01*
X196943809Y-170822857D01*
X197134285Y-170870476D01*
X197229523Y-170918095D01*
X197324761Y-171013333D01*
X197372380Y-171156190D01*
X197372380Y-171394285D01*
X197372380Y-169870476D02*
X197372380Y-170441904D01*
X197372380Y-170156190D02*
X196372380Y-170156190D01*
X196515238Y-170251428D01*
X196610476Y-170346666D01*
X196658095Y-170441904D01*
X196800952Y-169299047D02*
X196753333Y-169394285D01*
X196705714Y-169441904D01*
X196610476Y-169489523D01*
X196562857Y-169489523D01*
X196467619Y-169441904D01*
X196420000Y-169394285D01*
X196372380Y-169299047D01*
X196372380Y-169108571D01*
X196420000Y-169013333D01*
X196467619Y-168965714D01*
X196562857Y-168918095D01*
X196610476Y-168918095D01*
X196705714Y-168965714D01*
X196753333Y-169013333D01*
X196800952Y-169108571D01*
X196800952Y-169299047D01*
X196848571Y-169394285D01*
X196896190Y-169441904D01*
X196991428Y-169489523D01*
X197181904Y-169489523D01*
X197277142Y-169441904D01*
X197324761Y-169394285D01*
X197372380Y-169299047D01*
X197372380Y-169108571D01*
X197324761Y-169013333D01*
X197277142Y-168965714D01*
X197181904Y-168918095D01*
X196991428Y-168918095D01*
X196896190Y-168965714D01*
X196848571Y-169013333D01*
X196800952Y-169108571D01*
X197742380Y-175521904D02*
X196742380Y-175521904D01*
X197742380Y-174950476D02*
X197170952Y-175379047D01*
X196742380Y-174950476D02*
X197313809Y-175521904D01*
X177052380Y-171394285D02*
X176052380Y-171394285D01*
X176052380Y-171156190D01*
X176100000Y-171013333D01*
X176195238Y-170918095D01*
X176290476Y-170870476D01*
X176480952Y-170822857D01*
X176623809Y-170822857D01*
X176814285Y-170870476D01*
X176909523Y-170918095D01*
X177004761Y-171013333D01*
X177052380Y-171156190D01*
X177052380Y-171394285D01*
X177052380Y-169870476D02*
X177052380Y-170441904D01*
X177052380Y-170156190D02*
X176052380Y-170156190D01*
X176195238Y-170251428D01*
X176290476Y-170346666D01*
X176338095Y-170441904D01*
X176052380Y-169537142D02*
X176052380Y-168870476D01*
X177052380Y-169299047D01*
X177422380Y-175521904D02*
X176422380Y-175521904D01*
X177422380Y-174950476D02*
X176850952Y-175379047D01*
X176422380Y-174950476D02*
X176993809Y-175521904D01*
X156732380Y-171394285D02*
X155732380Y-171394285D01*
X155732380Y-171156190D01*
X155780000Y-171013333D01*
X155875238Y-170918095D01*
X155970476Y-170870476D01*
X156160952Y-170822857D01*
X156303809Y-170822857D01*
X156494285Y-170870476D01*
X156589523Y-170918095D01*
X156684761Y-171013333D01*
X156732380Y-171156190D01*
X156732380Y-171394285D01*
X156732380Y-169870476D02*
X156732380Y-170441904D01*
X156732380Y-170156190D02*
X155732380Y-170156190D01*
X155875238Y-170251428D01*
X155970476Y-170346666D01*
X156018095Y-170441904D01*
X155732380Y-169013333D02*
X155732380Y-169203809D01*
X155780000Y-169299047D01*
X155827619Y-169346666D01*
X155970476Y-169441904D01*
X156160952Y-169489523D01*
X156541904Y-169489523D01*
X156637142Y-169441904D01*
X156684761Y-169394285D01*
X156732380Y-169299047D01*
X156732380Y-169108571D01*
X156684761Y-169013333D01*
X156637142Y-168965714D01*
X156541904Y-168918095D01*
X156303809Y-168918095D01*
X156208571Y-168965714D01*
X156160952Y-169013333D01*
X156113333Y-169108571D01*
X156113333Y-169299047D01*
X156160952Y-169394285D01*
X156208571Y-169441904D01*
X156303809Y-169489523D01*
X157102380Y-175521904D02*
X156102380Y-175521904D01*
X157102380Y-174950476D02*
X156530952Y-175379047D01*
X156102380Y-174950476D02*
X156673809Y-175521904D01*
X238012380Y-151074285D02*
X237012380Y-151074285D01*
X237012380Y-150836190D01*
X237060000Y-150693333D01*
X237155238Y-150598095D01*
X237250476Y-150550476D01*
X237440952Y-150502857D01*
X237583809Y-150502857D01*
X237774285Y-150550476D01*
X237869523Y-150598095D01*
X237964761Y-150693333D01*
X238012380Y-150836190D01*
X238012380Y-151074285D01*
X238012380Y-149550476D02*
X238012380Y-150121904D01*
X238012380Y-149836190D02*
X237012380Y-149836190D01*
X237155238Y-149931428D01*
X237250476Y-150026666D01*
X237298095Y-150121904D01*
X237012380Y-148645714D02*
X237012380Y-149121904D01*
X237488571Y-149169523D01*
X237440952Y-149121904D01*
X237393333Y-149026666D01*
X237393333Y-148788571D01*
X237440952Y-148693333D01*
X237488571Y-148645714D01*
X237583809Y-148598095D01*
X237821904Y-148598095D01*
X237917142Y-148645714D01*
X237964761Y-148693333D01*
X238012380Y-148788571D01*
X238012380Y-149026666D01*
X237964761Y-149121904D01*
X237917142Y-149169523D01*
X238382380Y-155201904D02*
X237382380Y-155201904D01*
X238382380Y-154630476D02*
X237810952Y-155059047D01*
X237382380Y-154630476D02*
X237953809Y-155201904D01*
X217692380Y-151074285D02*
X216692380Y-151074285D01*
X216692380Y-150836190D01*
X216740000Y-150693333D01*
X216835238Y-150598095D01*
X216930476Y-150550476D01*
X217120952Y-150502857D01*
X217263809Y-150502857D01*
X217454285Y-150550476D01*
X217549523Y-150598095D01*
X217644761Y-150693333D01*
X217692380Y-150836190D01*
X217692380Y-151074285D01*
X217692380Y-149550476D02*
X217692380Y-150121904D01*
X217692380Y-149836190D02*
X216692380Y-149836190D01*
X216835238Y-149931428D01*
X216930476Y-150026666D01*
X216978095Y-150121904D01*
X217025714Y-148693333D02*
X217692380Y-148693333D01*
X216644761Y-148931428D02*
X217359047Y-149169523D01*
X217359047Y-148550476D01*
X218062380Y-155201904D02*
X217062380Y-155201904D01*
X218062380Y-154630476D02*
X217490952Y-155059047D01*
X217062380Y-154630476D02*
X217633809Y-155201904D01*
X197372380Y-151074285D02*
X196372380Y-151074285D01*
X196372380Y-150836190D01*
X196420000Y-150693333D01*
X196515238Y-150598095D01*
X196610476Y-150550476D01*
X196800952Y-150502857D01*
X196943809Y-150502857D01*
X197134285Y-150550476D01*
X197229523Y-150598095D01*
X197324761Y-150693333D01*
X197372380Y-150836190D01*
X197372380Y-151074285D01*
X197372380Y-149550476D02*
X197372380Y-150121904D01*
X197372380Y-149836190D02*
X196372380Y-149836190D01*
X196515238Y-149931428D01*
X196610476Y-150026666D01*
X196658095Y-150121904D01*
X196372380Y-149217142D02*
X196372380Y-148598095D01*
X196753333Y-148931428D01*
X196753333Y-148788571D01*
X196800952Y-148693333D01*
X196848571Y-148645714D01*
X196943809Y-148598095D01*
X197181904Y-148598095D01*
X197277142Y-148645714D01*
X197324761Y-148693333D01*
X197372380Y-148788571D01*
X197372380Y-149074285D01*
X197324761Y-149169523D01*
X197277142Y-149217142D01*
X197742380Y-155201904D02*
X196742380Y-155201904D01*
X197742380Y-154630476D02*
X197170952Y-155059047D01*
X196742380Y-154630476D02*
X197313809Y-155201904D01*
X177052380Y-151074285D02*
X176052380Y-151074285D01*
X176052380Y-150836190D01*
X176100000Y-150693333D01*
X176195238Y-150598095D01*
X176290476Y-150550476D01*
X176480952Y-150502857D01*
X176623809Y-150502857D01*
X176814285Y-150550476D01*
X176909523Y-150598095D01*
X177004761Y-150693333D01*
X177052380Y-150836190D01*
X177052380Y-151074285D01*
X177052380Y-149550476D02*
X177052380Y-150121904D01*
X177052380Y-149836190D02*
X176052380Y-149836190D01*
X176195238Y-149931428D01*
X176290476Y-150026666D01*
X176338095Y-150121904D01*
X176147619Y-149169523D02*
X176100000Y-149121904D01*
X176052380Y-149026666D01*
X176052380Y-148788571D01*
X176100000Y-148693333D01*
X176147619Y-148645714D01*
X176242857Y-148598095D01*
X176338095Y-148598095D01*
X176480952Y-148645714D01*
X177052380Y-149217142D01*
X177052380Y-148598095D01*
X177422380Y-155201904D02*
X176422380Y-155201904D01*
X177422380Y-154630476D02*
X176850952Y-155059047D01*
X176422380Y-154630476D02*
X176993809Y-155201904D01*
X156732380Y-151074285D02*
X155732380Y-151074285D01*
X155732380Y-150836190D01*
X155780000Y-150693333D01*
X155875238Y-150598095D01*
X155970476Y-150550476D01*
X156160952Y-150502857D01*
X156303809Y-150502857D01*
X156494285Y-150550476D01*
X156589523Y-150598095D01*
X156684761Y-150693333D01*
X156732380Y-150836190D01*
X156732380Y-151074285D01*
X156732380Y-149550476D02*
X156732380Y-150121904D01*
X156732380Y-149836190D02*
X155732380Y-149836190D01*
X155875238Y-149931428D01*
X155970476Y-150026666D01*
X156018095Y-150121904D01*
X156732380Y-148598095D02*
X156732380Y-149169523D01*
X156732380Y-148883809D02*
X155732380Y-148883809D01*
X155875238Y-148979047D01*
X155970476Y-149074285D01*
X156018095Y-149169523D01*
X157102380Y-155201904D02*
X156102380Y-155201904D01*
X157102380Y-154630476D02*
X156530952Y-155059047D01*
X156102380Y-154630476D02*
X156673809Y-155201904D01*
X126252380Y-171394285D02*
X125252380Y-171394285D01*
X125252380Y-171156190D01*
X125300000Y-171013333D01*
X125395238Y-170918095D01*
X125490476Y-170870476D01*
X125680952Y-170822857D01*
X125823809Y-170822857D01*
X126014285Y-170870476D01*
X126109523Y-170918095D01*
X126204761Y-171013333D01*
X126252380Y-171156190D01*
X126252380Y-171394285D01*
X126252380Y-169870476D02*
X126252380Y-170441904D01*
X126252380Y-170156190D02*
X125252380Y-170156190D01*
X125395238Y-170251428D01*
X125490476Y-170346666D01*
X125538095Y-170441904D01*
X125252380Y-169251428D02*
X125252380Y-169156190D01*
X125300000Y-169060952D01*
X125347619Y-169013333D01*
X125442857Y-168965714D01*
X125633333Y-168918095D01*
X125871428Y-168918095D01*
X126061904Y-168965714D01*
X126157142Y-169013333D01*
X126204761Y-169060952D01*
X126252380Y-169156190D01*
X126252380Y-169251428D01*
X126204761Y-169346666D01*
X126157142Y-169394285D01*
X126061904Y-169441904D01*
X125871428Y-169489523D01*
X125633333Y-169489523D01*
X125442857Y-169441904D01*
X125347619Y-169394285D01*
X125300000Y-169346666D01*
X125252380Y-169251428D01*
X126622380Y-175521904D02*
X125622380Y-175521904D01*
X126622380Y-174950476D02*
X126050952Y-175379047D01*
X125622380Y-174950476D02*
X126193809Y-175521904D01*
X105932380Y-170918095D02*
X104932380Y-170918095D01*
X104932380Y-170680000D01*
X104980000Y-170537142D01*
X105075238Y-170441904D01*
X105170476Y-170394285D01*
X105360952Y-170346666D01*
X105503809Y-170346666D01*
X105694285Y-170394285D01*
X105789523Y-170441904D01*
X105884761Y-170537142D01*
X105932380Y-170680000D01*
X105932380Y-170918095D01*
X105932380Y-169870476D02*
X105932380Y-169680000D01*
X105884761Y-169584761D01*
X105837142Y-169537142D01*
X105694285Y-169441904D01*
X105503809Y-169394285D01*
X105122857Y-169394285D01*
X105027619Y-169441904D01*
X104980000Y-169489523D01*
X104932380Y-169584761D01*
X104932380Y-169775238D01*
X104980000Y-169870476D01*
X105027619Y-169918095D01*
X105122857Y-169965714D01*
X105360952Y-169965714D01*
X105456190Y-169918095D01*
X105503809Y-169870476D01*
X105551428Y-169775238D01*
X105551428Y-169584761D01*
X105503809Y-169489523D01*
X105456190Y-169441904D01*
X105360952Y-169394285D01*
X106302380Y-175521904D02*
X105302380Y-175521904D01*
X106302380Y-174950476D02*
X105730952Y-175379047D01*
X105302380Y-174950476D02*
X105873809Y-175521904D01*
X85612380Y-170918095D02*
X84612380Y-170918095D01*
X84612380Y-170680000D01*
X84660000Y-170537142D01*
X84755238Y-170441904D01*
X84850476Y-170394285D01*
X85040952Y-170346666D01*
X85183809Y-170346666D01*
X85374285Y-170394285D01*
X85469523Y-170441904D01*
X85564761Y-170537142D01*
X85612380Y-170680000D01*
X85612380Y-170918095D01*
X85040952Y-169775238D02*
X84993333Y-169870476D01*
X84945714Y-169918095D01*
X84850476Y-169965714D01*
X84802857Y-169965714D01*
X84707619Y-169918095D01*
X84660000Y-169870476D01*
X84612380Y-169775238D01*
X84612380Y-169584761D01*
X84660000Y-169489523D01*
X84707619Y-169441904D01*
X84802857Y-169394285D01*
X84850476Y-169394285D01*
X84945714Y-169441904D01*
X84993333Y-169489523D01*
X85040952Y-169584761D01*
X85040952Y-169775238D01*
X85088571Y-169870476D01*
X85136190Y-169918095D01*
X85231428Y-169965714D01*
X85421904Y-169965714D01*
X85517142Y-169918095D01*
X85564761Y-169870476D01*
X85612380Y-169775238D01*
X85612380Y-169584761D01*
X85564761Y-169489523D01*
X85517142Y-169441904D01*
X85421904Y-169394285D01*
X85231428Y-169394285D01*
X85136190Y-169441904D01*
X85088571Y-169489523D01*
X85040952Y-169584761D01*
X85982380Y-175521904D02*
X84982380Y-175521904D01*
X85982380Y-174950476D02*
X85410952Y-175379047D01*
X84982380Y-174950476D02*
X85553809Y-175521904D01*
X65292380Y-170918095D02*
X64292380Y-170918095D01*
X64292380Y-170680000D01*
X64340000Y-170537142D01*
X64435238Y-170441904D01*
X64530476Y-170394285D01*
X64720952Y-170346666D01*
X64863809Y-170346666D01*
X65054285Y-170394285D01*
X65149523Y-170441904D01*
X65244761Y-170537142D01*
X65292380Y-170680000D01*
X65292380Y-170918095D01*
X64292380Y-170013333D02*
X64292380Y-169346666D01*
X65292380Y-169775238D01*
X65662380Y-175521904D02*
X64662380Y-175521904D01*
X65662380Y-174950476D02*
X65090952Y-175379047D01*
X64662380Y-174950476D02*
X65233809Y-175521904D01*
X44972380Y-170918095D02*
X43972380Y-170918095D01*
X43972380Y-170680000D01*
X44020000Y-170537142D01*
X44115238Y-170441904D01*
X44210476Y-170394285D01*
X44400952Y-170346666D01*
X44543809Y-170346666D01*
X44734285Y-170394285D01*
X44829523Y-170441904D01*
X44924761Y-170537142D01*
X44972380Y-170680000D01*
X44972380Y-170918095D01*
X43972380Y-169489523D02*
X43972380Y-169680000D01*
X44020000Y-169775238D01*
X44067619Y-169822857D01*
X44210476Y-169918095D01*
X44400952Y-169965714D01*
X44781904Y-169965714D01*
X44877142Y-169918095D01*
X44924761Y-169870476D01*
X44972380Y-169775238D01*
X44972380Y-169584761D01*
X44924761Y-169489523D01*
X44877142Y-169441904D01*
X44781904Y-169394285D01*
X44543809Y-169394285D01*
X44448571Y-169441904D01*
X44400952Y-169489523D01*
X44353333Y-169584761D01*
X44353333Y-169775238D01*
X44400952Y-169870476D01*
X44448571Y-169918095D01*
X44543809Y-169965714D01*
X45342380Y-175521904D02*
X44342380Y-175521904D01*
X45342380Y-174950476D02*
X44770952Y-175379047D01*
X44342380Y-174950476D02*
X44913809Y-175521904D01*
X127522380Y-150598095D02*
X126522380Y-150598095D01*
X126522380Y-150360000D01*
X126570000Y-150217142D01*
X126665238Y-150121904D01*
X126760476Y-150074285D01*
X126950952Y-150026666D01*
X127093809Y-150026666D01*
X127284285Y-150074285D01*
X127379523Y-150121904D01*
X127474761Y-150217142D01*
X127522380Y-150360000D01*
X127522380Y-150598095D01*
X126522380Y-149121904D02*
X126522380Y-149598095D01*
X126998571Y-149645714D01*
X126950952Y-149598095D01*
X126903333Y-149502857D01*
X126903333Y-149264761D01*
X126950952Y-149169523D01*
X126998571Y-149121904D01*
X127093809Y-149074285D01*
X127331904Y-149074285D01*
X127427142Y-149121904D01*
X127474761Y-149169523D01*
X127522380Y-149264761D01*
X127522380Y-149502857D01*
X127474761Y-149598095D01*
X127427142Y-149645714D01*
X127892380Y-155201904D02*
X126892380Y-155201904D01*
X127892380Y-154630476D02*
X127320952Y-155059047D01*
X126892380Y-154630476D02*
X127463809Y-155201904D01*
X105932380Y-150598095D02*
X104932380Y-150598095D01*
X104932380Y-150360000D01*
X104980000Y-150217142D01*
X105075238Y-150121904D01*
X105170476Y-150074285D01*
X105360952Y-150026666D01*
X105503809Y-150026666D01*
X105694285Y-150074285D01*
X105789523Y-150121904D01*
X105884761Y-150217142D01*
X105932380Y-150360000D01*
X105932380Y-150598095D01*
X105265714Y-149169523D02*
X105932380Y-149169523D01*
X104884761Y-149407619D02*
X105599047Y-149645714D01*
X105599047Y-149026666D01*
X106302380Y-155201904D02*
X105302380Y-155201904D01*
X106302380Y-154630476D02*
X105730952Y-155059047D01*
X105302380Y-154630476D02*
X105873809Y-155201904D01*
X85612380Y-150598095D02*
X84612380Y-150598095D01*
X84612380Y-150360000D01*
X84660000Y-150217142D01*
X84755238Y-150121904D01*
X84850476Y-150074285D01*
X85040952Y-150026666D01*
X85183809Y-150026666D01*
X85374285Y-150074285D01*
X85469523Y-150121904D01*
X85564761Y-150217142D01*
X85612380Y-150360000D01*
X85612380Y-150598095D01*
X84612380Y-149693333D02*
X84612380Y-149074285D01*
X84993333Y-149407619D01*
X84993333Y-149264761D01*
X85040952Y-149169523D01*
X85088571Y-149121904D01*
X85183809Y-149074285D01*
X85421904Y-149074285D01*
X85517142Y-149121904D01*
X85564761Y-149169523D01*
X85612380Y-149264761D01*
X85612380Y-149550476D01*
X85564761Y-149645714D01*
X85517142Y-149693333D01*
X85982380Y-155201904D02*
X84982380Y-155201904D01*
X85982380Y-154630476D02*
X85410952Y-155059047D01*
X84982380Y-154630476D02*
X85553809Y-155201904D01*
X65292380Y-150598095D02*
X64292380Y-150598095D01*
X64292380Y-150360000D01*
X64340000Y-150217142D01*
X64435238Y-150121904D01*
X64530476Y-150074285D01*
X64720952Y-150026666D01*
X64863809Y-150026666D01*
X65054285Y-150074285D01*
X65149523Y-150121904D01*
X65244761Y-150217142D01*
X65292380Y-150360000D01*
X65292380Y-150598095D01*
X64387619Y-149645714D02*
X64340000Y-149598095D01*
X64292380Y-149502857D01*
X64292380Y-149264761D01*
X64340000Y-149169523D01*
X64387619Y-149121904D01*
X64482857Y-149074285D01*
X64578095Y-149074285D01*
X64720952Y-149121904D01*
X65292380Y-149693333D01*
X65292380Y-149074285D01*
X65662380Y-155201904D02*
X64662380Y-155201904D01*
X65662380Y-154630476D02*
X65090952Y-155059047D01*
X64662380Y-154630476D02*
X65233809Y-155201904D01*
X44972380Y-150598095D02*
X43972380Y-150598095D01*
X43972380Y-150360000D01*
X44020000Y-150217142D01*
X44115238Y-150121904D01*
X44210476Y-150074285D01*
X44400952Y-150026666D01*
X44543809Y-150026666D01*
X44734285Y-150074285D01*
X44829523Y-150121904D01*
X44924761Y-150217142D01*
X44972380Y-150360000D01*
X44972380Y-150598095D01*
X44972380Y-149074285D02*
X44972380Y-149645714D01*
X44972380Y-149360000D02*
X43972380Y-149360000D01*
X44115238Y-149455238D01*
X44210476Y-149550476D01*
X44258095Y-149645714D01*
X45342380Y-155201904D02*
X44342380Y-155201904D01*
X45342380Y-154630476D02*
X44770952Y-155059047D01*
X44342380Y-154630476D02*
X44913809Y-155201904D01*
X358870476Y-172870761D02*
X359013333Y-172918380D01*
X359251428Y-172918380D01*
X359346666Y-172870761D01*
X359394285Y-172823142D01*
X359441904Y-172727904D01*
X359441904Y-172632666D01*
X359394285Y-172537428D01*
X359346666Y-172489809D01*
X359251428Y-172442190D01*
X359060952Y-172394571D01*
X358965714Y-172346952D01*
X358918095Y-172299333D01*
X358870476Y-172204095D01*
X358870476Y-172108857D01*
X358918095Y-172013619D01*
X358965714Y-171966000D01*
X359060952Y-171918380D01*
X359299047Y-171918380D01*
X359441904Y-171966000D01*
X359775238Y-171918380D02*
X360013333Y-172918380D01*
X360203809Y-172204095D01*
X360394285Y-172918380D01*
X360632380Y-171918380D01*
X361441904Y-172251714D02*
X361441904Y-172918380D01*
X361203809Y-171870761D02*
X360965714Y-172585047D01*
X361584761Y-172585047D01*
X362441904Y-171918380D02*
X361965714Y-171918380D01*
X361918095Y-172394571D01*
X361965714Y-172346952D01*
X362060952Y-172299333D01*
X362299047Y-172299333D01*
X362394285Y-172346952D01*
X362441904Y-172394571D01*
X362489523Y-172489809D01*
X362489523Y-172727904D01*
X362441904Y-172823142D01*
X362394285Y-172870761D01*
X362299047Y-172918380D01*
X362060952Y-172918380D01*
X361965714Y-172870761D01*
X361918095Y-172823142D01*
X358870476Y-162710761D02*
X359013333Y-162758380D01*
X359251428Y-162758380D01*
X359346666Y-162710761D01*
X359394285Y-162663142D01*
X359441904Y-162567904D01*
X359441904Y-162472666D01*
X359394285Y-162377428D01*
X359346666Y-162329809D01*
X359251428Y-162282190D01*
X359060952Y-162234571D01*
X358965714Y-162186952D01*
X358918095Y-162139333D01*
X358870476Y-162044095D01*
X358870476Y-161948857D01*
X358918095Y-161853619D01*
X358965714Y-161806000D01*
X359060952Y-161758380D01*
X359299047Y-161758380D01*
X359441904Y-161806000D01*
X359775238Y-161758380D02*
X360013333Y-162758380D01*
X360203809Y-162044095D01*
X360394285Y-162758380D01*
X360632380Y-161758380D01*
X361441904Y-162091714D02*
X361441904Y-162758380D01*
X361203809Y-161710761D02*
X360965714Y-162425047D01*
X361584761Y-162425047D01*
X362156190Y-161758380D02*
X362251428Y-161758380D01*
X362346666Y-161806000D01*
X362394285Y-161853619D01*
X362441904Y-161948857D01*
X362489523Y-162139333D01*
X362489523Y-162377428D01*
X362441904Y-162567904D01*
X362394285Y-162663142D01*
X362346666Y-162710761D01*
X362251428Y-162758380D01*
X362156190Y-162758380D01*
X362060952Y-162710761D01*
X362013333Y-162663142D01*
X361965714Y-162567904D01*
X361918095Y-162377428D01*
X361918095Y-162139333D01*
X361965714Y-161948857D01*
X362013333Y-161853619D01*
X362060952Y-161806000D01*
X362156190Y-161758380D01*
X338550476Y-172870761D02*
X338693333Y-172918380D01*
X338931428Y-172918380D01*
X339026666Y-172870761D01*
X339074285Y-172823142D01*
X339121904Y-172727904D01*
X339121904Y-172632666D01*
X339074285Y-172537428D01*
X339026666Y-172489809D01*
X338931428Y-172442190D01*
X338740952Y-172394571D01*
X338645714Y-172346952D01*
X338598095Y-172299333D01*
X338550476Y-172204095D01*
X338550476Y-172108857D01*
X338598095Y-172013619D01*
X338645714Y-171966000D01*
X338740952Y-171918380D01*
X338979047Y-171918380D01*
X339121904Y-171966000D01*
X339455238Y-171918380D02*
X339693333Y-172918380D01*
X339883809Y-172204095D01*
X340074285Y-172918380D01*
X340312380Y-171918380D01*
X341121904Y-172251714D02*
X341121904Y-172918380D01*
X340883809Y-171870761D02*
X340645714Y-172585047D01*
X341264761Y-172585047D01*
X342074285Y-172251714D02*
X342074285Y-172918380D01*
X341836190Y-171870761D02*
X341598095Y-172585047D01*
X342217142Y-172585047D01*
X318230476Y-172870761D02*
X318373333Y-172918380D01*
X318611428Y-172918380D01*
X318706666Y-172870761D01*
X318754285Y-172823142D01*
X318801904Y-172727904D01*
X318801904Y-172632666D01*
X318754285Y-172537428D01*
X318706666Y-172489809D01*
X318611428Y-172442190D01*
X318420952Y-172394571D01*
X318325714Y-172346952D01*
X318278095Y-172299333D01*
X318230476Y-172204095D01*
X318230476Y-172108857D01*
X318278095Y-172013619D01*
X318325714Y-171966000D01*
X318420952Y-171918380D01*
X318659047Y-171918380D01*
X318801904Y-171966000D01*
X319135238Y-171918380D02*
X319373333Y-172918380D01*
X319563809Y-172204095D01*
X319754285Y-172918380D01*
X319992380Y-171918380D01*
X320801904Y-172251714D02*
X320801904Y-172918380D01*
X320563809Y-171870761D02*
X320325714Y-172585047D01*
X320944761Y-172585047D01*
X321230476Y-171918380D02*
X321849523Y-171918380D01*
X321516190Y-172299333D01*
X321659047Y-172299333D01*
X321754285Y-172346952D01*
X321801904Y-172394571D01*
X321849523Y-172489809D01*
X321849523Y-172727904D01*
X321801904Y-172823142D01*
X321754285Y-172870761D01*
X321659047Y-172918380D01*
X321373333Y-172918380D01*
X321278095Y-172870761D01*
X321230476Y-172823142D01*
X297910476Y-172870761D02*
X298053333Y-172918380D01*
X298291428Y-172918380D01*
X298386666Y-172870761D01*
X298434285Y-172823142D01*
X298481904Y-172727904D01*
X298481904Y-172632666D01*
X298434285Y-172537428D01*
X298386666Y-172489809D01*
X298291428Y-172442190D01*
X298100952Y-172394571D01*
X298005714Y-172346952D01*
X297958095Y-172299333D01*
X297910476Y-172204095D01*
X297910476Y-172108857D01*
X297958095Y-172013619D01*
X298005714Y-171966000D01*
X298100952Y-171918380D01*
X298339047Y-171918380D01*
X298481904Y-171966000D01*
X298815238Y-171918380D02*
X299053333Y-172918380D01*
X299243809Y-172204095D01*
X299434285Y-172918380D01*
X299672380Y-171918380D01*
X300481904Y-172251714D02*
X300481904Y-172918380D01*
X300243809Y-171870761D02*
X300005714Y-172585047D01*
X300624761Y-172585047D01*
X300958095Y-172013619D02*
X301005714Y-171966000D01*
X301100952Y-171918380D01*
X301339047Y-171918380D01*
X301434285Y-171966000D01*
X301481904Y-172013619D01*
X301529523Y-172108857D01*
X301529523Y-172204095D01*
X301481904Y-172346952D01*
X300910476Y-172918380D01*
X301529523Y-172918380D01*
X277590476Y-162710761D02*
X277733333Y-162758380D01*
X277971428Y-162758380D01*
X278066666Y-162710761D01*
X278114285Y-162663142D01*
X278161904Y-162567904D01*
X278161904Y-162472666D01*
X278114285Y-162377428D01*
X278066666Y-162329809D01*
X277971428Y-162282190D01*
X277780952Y-162234571D01*
X277685714Y-162186952D01*
X277638095Y-162139333D01*
X277590476Y-162044095D01*
X277590476Y-161948857D01*
X277638095Y-161853619D01*
X277685714Y-161806000D01*
X277780952Y-161758380D01*
X278019047Y-161758380D01*
X278161904Y-161806000D01*
X278495238Y-161758380D02*
X278733333Y-162758380D01*
X278923809Y-162044095D01*
X279114285Y-162758380D01*
X279352380Y-161758380D01*
X280161904Y-162091714D02*
X280161904Y-162758380D01*
X279923809Y-161710761D02*
X279685714Y-162425047D01*
X280304761Y-162425047D01*
X281209523Y-162758380D02*
X280638095Y-162758380D01*
X280923809Y-162758380D02*
X280923809Y-161758380D01*
X280828571Y-161901238D01*
X280733333Y-161996476D01*
X280638095Y-162044095D01*
X338550476Y-162710761D02*
X338693333Y-162758380D01*
X338931428Y-162758380D01*
X339026666Y-162710761D01*
X339074285Y-162663142D01*
X339121904Y-162567904D01*
X339121904Y-162472666D01*
X339074285Y-162377428D01*
X339026666Y-162329809D01*
X338931428Y-162282190D01*
X338740952Y-162234571D01*
X338645714Y-162186952D01*
X338598095Y-162139333D01*
X338550476Y-162044095D01*
X338550476Y-161948857D01*
X338598095Y-161853619D01*
X338645714Y-161806000D01*
X338740952Y-161758380D01*
X338979047Y-161758380D01*
X339121904Y-161806000D01*
X339455238Y-161758380D02*
X339693333Y-162758380D01*
X339883809Y-162044095D01*
X340074285Y-162758380D01*
X340312380Y-161758380D01*
X340598095Y-161758380D02*
X341217142Y-161758380D01*
X340883809Y-162139333D01*
X341026666Y-162139333D01*
X341121904Y-162186952D01*
X341169523Y-162234571D01*
X341217142Y-162329809D01*
X341217142Y-162567904D01*
X341169523Y-162663142D01*
X341121904Y-162710761D01*
X341026666Y-162758380D01*
X340740952Y-162758380D01*
X340645714Y-162710761D01*
X340598095Y-162663142D01*
X341693333Y-162758380D02*
X341883809Y-162758380D01*
X341979047Y-162710761D01*
X342026666Y-162663142D01*
X342121904Y-162520285D01*
X342169523Y-162329809D01*
X342169523Y-161948857D01*
X342121904Y-161853619D01*
X342074285Y-161806000D01*
X341979047Y-161758380D01*
X341788571Y-161758380D01*
X341693333Y-161806000D01*
X341645714Y-161853619D01*
X341598095Y-161948857D01*
X341598095Y-162186952D01*
X341645714Y-162282190D01*
X341693333Y-162329809D01*
X341788571Y-162377428D01*
X341979047Y-162377428D01*
X342074285Y-162329809D01*
X342121904Y-162282190D01*
X342169523Y-162186952D01*
X318230476Y-162710761D02*
X318373333Y-162758380D01*
X318611428Y-162758380D01*
X318706666Y-162710761D01*
X318754285Y-162663142D01*
X318801904Y-162567904D01*
X318801904Y-162472666D01*
X318754285Y-162377428D01*
X318706666Y-162329809D01*
X318611428Y-162282190D01*
X318420952Y-162234571D01*
X318325714Y-162186952D01*
X318278095Y-162139333D01*
X318230476Y-162044095D01*
X318230476Y-161948857D01*
X318278095Y-161853619D01*
X318325714Y-161806000D01*
X318420952Y-161758380D01*
X318659047Y-161758380D01*
X318801904Y-161806000D01*
X319135238Y-161758380D02*
X319373333Y-162758380D01*
X319563809Y-162044095D01*
X319754285Y-162758380D01*
X319992380Y-161758380D01*
X320278095Y-161758380D02*
X320897142Y-161758380D01*
X320563809Y-162139333D01*
X320706666Y-162139333D01*
X320801904Y-162186952D01*
X320849523Y-162234571D01*
X320897142Y-162329809D01*
X320897142Y-162567904D01*
X320849523Y-162663142D01*
X320801904Y-162710761D01*
X320706666Y-162758380D01*
X320420952Y-162758380D01*
X320325714Y-162710761D01*
X320278095Y-162663142D01*
X321468571Y-162186952D02*
X321373333Y-162139333D01*
X321325714Y-162091714D01*
X321278095Y-161996476D01*
X321278095Y-161948857D01*
X321325714Y-161853619D01*
X321373333Y-161806000D01*
X321468571Y-161758380D01*
X321659047Y-161758380D01*
X321754285Y-161806000D01*
X321801904Y-161853619D01*
X321849523Y-161948857D01*
X321849523Y-161996476D01*
X321801904Y-162091714D01*
X321754285Y-162139333D01*
X321659047Y-162186952D01*
X321468571Y-162186952D01*
X321373333Y-162234571D01*
X321325714Y-162282190D01*
X321278095Y-162377428D01*
X321278095Y-162567904D01*
X321325714Y-162663142D01*
X321373333Y-162710761D01*
X321468571Y-162758380D01*
X321659047Y-162758380D01*
X321754285Y-162710761D01*
X321801904Y-162663142D01*
X321849523Y-162567904D01*
X321849523Y-162377428D01*
X321801904Y-162282190D01*
X321754285Y-162234571D01*
X321659047Y-162186952D01*
X297910476Y-162710761D02*
X298053333Y-162758380D01*
X298291428Y-162758380D01*
X298386666Y-162710761D01*
X298434285Y-162663142D01*
X298481904Y-162567904D01*
X298481904Y-162472666D01*
X298434285Y-162377428D01*
X298386666Y-162329809D01*
X298291428Y-162282190D01*
X298100952Y-162234571D01*
X298005714Y-162186952D01*
X297958095Y-162139333D01*
X297910476Y-162044095D01*
X297910476Y-161948857D01*
X297958095Y-161853619D01*
X298005714Y-161806000D01*
X298100952Y-161758380D01*
X298339047Y-161758380D01*
X298481904Y-161806000D01*
X298815238Y-161758380D02*
X299053333Y-162758380D01*
X299243809Y-162044095D01*
X299434285Y-162758380D01*
X299672380Y-161758380D01*
X299958095Y-161758380D02*
X300577142Y-161758380D01*
X300243809Y-162139333D01*
X300386666Y-162139333D01*
X300481904Y-162186952D01*
X300529523Y-162234571D01*
X300577142Y-162329809D01*
X300577142Y-162567904D01*
X300529523Y-162663142D01*
X300481904Y-162710761D01*
X300386666Y-162758380D01*
X300100952Y-162758380D01*
X300005714Y-162710761D01*
X299958095Y-162663142D01*
X300910476Y-161758380D02*
X301577142Y-161758380D01*
X301148571Y-162758380D01*
X277590476Y-172870761D02*
X277733333Y-172918380D01*
X277971428Y-172918380D01*
X278066666Y-172870761D01*
X278114285Y-172823142D01*
X278161904Y-172727904D01*
X278161904Y-172632666D01*
X278114285Y-172537428D01*
X278066666Y-172489809D01*
X277971428Y-172442190D01*
X277780952Y-172394571D01*
X277685714Y-172346952D01*
X277638095Y-172299333D01*
X277590476Y-172204095D01*
X277590476Y-172108857D01*
X277638095Y-172013619D01*
X277685714Y-171966000D01*
X277780952Y-171918380D01*
X278019047Y-171918380D01*
X278161904Y-171966000D01*
X278495238Y-171918380D02*
X278733333Y-172918380D01*
X278923809Y-172204095D01*
X279114285Y-172918380D01*
X279352380Y-171918380D01*
X279638095Y-171918380D02*
X280257142Y-171918380D01*
X279923809Y-172299333D01*
X280066666Y-172299333D01*
X280161904Y-172346952D01*
X280209523Y-172394571D01*
X280257142Y-172489809D01*
X280257142Y-172727904D01*
X280209523Y-172823142D01*
X280161904Y-172870761D01*
X280066666Y-172918380D01*
X279780952Y-172918380D01*
X279685714Y-172870761D01*
X279638095Y-172823142D01*
X281114285Y-171918380D02*
X280923809Y-171918380D01*
X280828571Y-171966000D01*
X280780952Y-172013619D01*
X280685714Y-172156476D01*
X280638095Y-172346952D01*
X280638095Y-172727904D01*
X280685714Y-172823142D01*
X280733333Y-172870761D01*
X280828571Y-172918380D01*
X281019047Y-172918380D01*
X281114285Y-172870761D01*
X281161904Y-172823142D01*
X281209523Y-172727904D01*
X281209523Y-172489809D01*
X281161904Y-172394571D01*
X281114285Y-172346952D01*
X281019047Y-172299333D01*
X280828571Y-172299333D01*
X280733333Y-172346952D01*
X280685714Y-172394571D01*
X280638095Y-172489809D01*
X338550476Y-142390761D02*
X338693333Y-142438380D01*
X338931428Y-142438380D01*
X339026666Y-142390761D01*
X339074285Y-142343142D01*
X339121904Y-142247904D01*
X339121904Y-142152666D01*
X339074285Y-142057428D01*
X339026666Y-142009809D01*
X338931428Y-141962190D01*
X338740952Y-141914571D01*
X338645714Y-141866952D01*
X338598095Y-141819333D01*
X338550476Y-141724095D01*
X338550476Y-141628857D01*
X338598095Y-141533619D01*
X338645714Y-141486000D01*
X338740952Y-141438380D01*
X338979047Y-141438380D01*
X339121904Y-141486000D01*
X339455238Y-141438380D02*
X339693333Y-142438380D01*
X339883809Y-141724095D01*
X340074285Y-142438380D01*
X340312380Y-141438380D01*
X340598095Y-141438380D02*
X341217142Y-141438380D01*
X340883809Y-141819333D01*
X341026666Y-141819333D01*
X341121904Y-141866952D01*
X341169523Y-141914571D01*
X341217142Y-142009809D01*
X341217142Y-142247904D01*
X341169523Y-142343142D01*
X341121904Y-142390761D01*
X341026666Y-142438380D01*
X340740952Y-142438380D01*
X340645714Y-142390761D01*
X340598095Y-142343142D01*
X342074285Y-141771714D02*
X342074285Y-142438380D01*
X341836190Y-141390761D02*
X341598095Y-142105047D01*
X342217142Y-142105047D01*
X318230476Y-142390761D02*
X318373333Y-142438380D01*
X318611428Y-142438380D01*
X318706666Y-142390761D01*
X318754285Y-142343142D01*
X318801904Y-142247904D01*
X318801904Y-142152666D01*
X318754285Y-142057428D01*
X318706666Y-142009809D01*
X318611428Y-141962190D01*
X318420952Y-141914571D01*
X318325714Y-141866952D01*
X318278095Y-141819333D01*
X318230476Y-141724095D01*
X318230476Y-141628857D01*
X318278095Y-141533619D01*
X318325714Y-141486000D01*
X318420952Y-141438380D01*
X318659047Y-141438380D01*
X318801904Y-141486000D01*
X319135238Y-141438380D02*
X319373333Y-142438380D01*
X319563809Y-141724095D01*
X319754285Y-142438380D01*
X319992380Y-141438380D01*
X320278095Y-141438380D02*
X320897142Y-141438380D01*
X320563809Y-141819333D01*
X320706666Y-141819333D01*
X320801904Y-141866952D01*
X320849523Y-141914571D01*
X320897142Y-142009809D01*
X320897142Y-142247904D01*
X320849523Y-142343142D01*
X320801904Y-142390761D01*
X320706666Y-142438380D01*
X320420952Y-142438380D01*
X320325714Y-142390761D01*
X320278095Y-142343142D01*
X321230476Y-141438380D02*
X321849523Y-141438380D01*
X321516190Y-141819333D01*
X321659047Y-141819333D01*
X321754285Y-141866952D01*
X321801904Y-141914571D01*
X321849523Y-142009809D01*
X321849523Y-142247904D01*
X321801904Y-142343142D01*
X321754285Y-142390761D01*
X321659047Y-142438380D01*
X321373333Y-142438380D01*
X321278095Y-142390761D01*
X321230476Y-142343142D01*
X297910476Y-142390761D02*
X298053333Y-142438380D01*
X298291428Y-142438380D01*
X298386666Y-142390761D01*
X298434285Y-142343142D01*
X298481904Y-142247904D01*
X298481904Y-142152666D01*
X298434285Y-142057428D01*
X298386666Y-142009809D01*
X298291428Y-141962190D01*
X298100952Y-141914571D01*
X298005714Y-141866952D01*
X297958095Y-141819333D01*
X297910476Y-141724095D01*
X297910476Y-141628857D01*
X297958095Y-141533619D01*
X298005714Y-141486000D01*
X298100952Y-141438380D01*
X298339047Y-141438380D01*
X298481904Y-141486000D01*
X298815238Y-141438380D02*
X299053333Y-142438380D01*
X299243809Y-141724095D01*
X299434285Y-142438380D01*
X299672380Y-141438380D01*
X299958095Y-141438380D02*
X300577142Y-141438380D01*
X300243809Y-141819333D01*
X300386666Y-141819333D01*
X300481904Y-141866952D01*
X300529523Y-141914571D01*
X300577142Y-142009809D01*
X300577142Y-142247904D01*
X300529523Y-142343142D01*
X300481904Y-142390761D01*
X300386666Y-142438380D01*
X300100952Y-142438380D01*
X300005714Y-142390761D01*
X299958095Y-142343142D01*
X300958095Y-141533619D02*
X301005714Y-141486000D01*
X301100952Y-141438380D01*
X301339047Y-141438380D01*
X301434285Y-141486000D01*
X301481904Y-141533619D01*
X301529523Y-141628857D01*
X301529523Y-141724095D01*
X301481904Y-141866952D01*
X300910476Y-142438380D01*
X301529523Y-142438380D01*
X277590476Y-142390761D02*
X277733333Y-142438380D01*
X277971428Y-142438380D01*
X278066666Y-142390761D01*
X278114285Y-142343142D01*
X278161904Y-142247904D01*
X278161904Y-142152666D01*
X278114285Y-142057428D01*
X278066666Y-142009809D01*
X277971428Y-141962190D01*
X277780952Y-141914571D01*
X277685714Y-141866952D01*
X277638095Y-141819333D01*
X277590476Y-141724095D01*
X277590476Y-141628857D01*
X277638095Y-141533619D01*
X277685714Y-141486000D01*
X277780952Y-141438380D01*
X278019047Y-141438380D01*
X278161904Y-141486000D01*
X278495238Y-141438380D02*
X278733333Y-142438380D01*
X278923809Y-141724095D01*
X279114285Y-142438380D01*
X279352380Y-141438380D01*
X279638095Y-141438380D02*
X280257142Y-141438380D01*
X279923809Y-141819333D01*
X280066666Y-141819333D01*
X280161904Y-141866952D01*
X280209523Y-141914571D01*
X280257142Y-142009809D01*
X280257142Y-142247904D01*
X280209523Y-142343142D01*
X280161904Y-142390761D01*
X280066666Y-142438380D01*
X279780952Y-142438380D01*
X279685714Y-142390761D01*
X279638095Y-142343142D01*
X281209523Y-142438380D02*
X280638095Y-142438380D01*
X280923809Y-142438380D02*
X280923809Y-141438380D01*
X280828571Y-141581238D01*
X280733333Y-141676476D01*
X280638095Y-141724095D01*
X247110476Y-172870761D02*
X247253333Y-172918380D01*
X247491428Y-172918380D01*
X247586666Y-172870761D01*
X247634285Y-172823142D01*
X247681904Y-172727904D01*
X247681904Y-172632666D01*
X247634285Y-172537428D01*
X247586666Y-172489809D01*
X247491428Y-172442190D01*
X247300952Y-172394571D01*
X247205714Y-172346952D01*
X247158095Y-172299333D01*
X247110476Y-172204095D01*
X247110476Y-172108857D01*
X247158095Y-172013619D01*
X247205714Y-171966000D01*
X247300952Y-171918380D01*
X247539047Y-171918380D01*
X247681904Y-171966000D01*
X248015238Y-171918380D02*
X248253333Y-172918380D01*
X248443809Y-172204095D01*
X248634285Y-172918380D01*
X248872380Y-171918380D01*
X249158095Y-171918380D02*
X249777142Y-171918380D01*
X249443809Y-172299333D01*
X249586666Y-172299333D01*
X249681904Y-172346952D01*
X249729523Y-172394571D01*
X249777142Y-172489809D01*
X249777142Y-172727904D01*
X249729523Y-172823142D01*
X249681904Y-172870761D01*
X249586666Y-172918380D01*
X249300952Y-172918380D01*
X249205714Y-172870761D01*
X249158095Y-172823142D01*
X250396190Y-171918380D02*
X250491428Y-171918380D01*
X250586666Y-171966000D01*
X250634285Y-172013619D01*
X250681904Y-172108857D01*
X250729523Y-172299333D01*
X250729523Y-172537428D01*
X250681904Y-172727904D01*
X250634285Y-172823142D01*
X250586666Y-172870761D01*
X250491428Y-172918380D01*
X250396190Y-172918380D01*
X250300952Y-172870761D01*
X250253333Y-172823142D01*
X250205714Y-172727904D01*
X250158095Y-172537428D01*
X250158095Y-172299333D01*
X250205714Y-172108857D01*
X250253333Y-172013619D01*
X250300952Y-171966000D01*
X250396190Y-171918380D01*
X226790476Y-172870761D02*
X226933333Y-172918380D01*
X227171428Y-172918380D01*
X227266666Y-172870761D01*
X227314285Y-172823142D01*
X227361904Y-172727904D01*
X227361904Y-172632666D01*
X227314285Y-172537428D01*
X227266666Y-172489809D01*
X227171428Y-172442190D01*
X226980952Y-172394571D01*
X226885714Y-172346952D01*
X226838095Y-172299333D01*
X226790476Y-172204095D01*
X226790476Y-172108857D01*
X226838095Y-172013619D01*
X226885714Y-171966000D01*
X226980952Y-171918380D01*
X227219047Y-171918380D01*
X227361904Y-171966000D01*
X227695238Y-171918380D02*
X227933333Y-172918380D01*
X228123809Y-172204095D01*
X228314285Y-172918380D01*
X228552380Y-171918380D01*
X228885714Y-172013619D02*
X228933333Y-171966000D01*
X229028571Y-171918380D01*
X229266666Y-171918380D01*
X229361904Y-171966000D01*
X229409523Y-172013619D01*
X229457142Y-172108857D01*
X229457142Y-172204095D01*
X229409523Y-172346952D01*
X228838095Y-172918380D01*
X229457142Y-172918380D01*
X229933333Y-172918380D02*
X230123809Y-172918380D01*
X230219047Y-172870761D01*
X230266666Y-172823142D01*
X230361904Y-172680285D01*
X230409523Y-172489809D01*
X230409523Y-172108857D01*
X230361904Y-172013619D01*
X230314285Y-171966000D01*
X230219047Y-171918380D01*
X230028571Y-171918380D01*
X229933333Y-171966000D01*
X229885714Y-172013619D01*
X229838095Y-172108857D01*
X229838095Y-172346952D01*
X229885714Y-172442190D01*
X229933333Y-172489809D01*
X230028571Y-172537428D01*
X230219047Y-172537428D01*
X230314285Y-172489809D01*
X230361904Y-172442190D01*
X230409523Y-172346952D01*
X206470476Y-172870761D02*
X206613333Y-172918380D01*
X206851428Y-172918380D01*
X206946666Y-172870761D01*
X206994285Y-172823142D01*
X207041904Y-172727904D01*
X207041904Y-172632666D01*
X206994285Y-172537428D01*
X206946666Y-172489809D01*
X206851428Y-172442190D01*
X206660952Y-172394571D01*
X206565714Y-172346952D01*
X206518095Y-172299333D01*
X206470476Y-172204095D01*
X206470476Y-172108857D01*
X206518095Y-172013619D01*
X206565714Y-171966000D01*
X206660952Y-171918380D01*
X206899047Y-171918380D01*
X207041904Y-171966000D01*
X207375238Y-171918380D02*
X207613333Y-172918380D01*
X207803809Y-172204095D01*
X207994285Y-172918380D01*
X208232380Y-171918380D01*
X208565714Y-172013619D02*
X208613333Y-171966000D01*
X208708571Y-171918380D01*
X208946666Y-171918380D01*
X209041904Y-171966000D01*
X209089523Y-172013619D01*
X209137142Y-172108857D01*
X209137142Y-172204095D01*
X209089523Y-172346952D01*
X208518095Y-172918380D01*
X209137142Y-172918380D01*
X209708571Y-172346952D02*
X209613333Y-172299333D01*
X209565714Y-172251714D01*
X209518095Y-172156476D01*
X209518095Y-172108857D01*
X209565714Y-172013619D01*
X209613333Y-171966000D01*
X209708571Y-171918380D01*
X209899047Y-171918380D01*
X209994285Y-171966000D01*
X210041904Y-172013619D01*
X210089523Y-172108857D01*
X210089523Y-172156476D01*
X210041904Y-172251714D01*
X209994285Y-172299333D01*
X209899047Y-172346952D01*
X209708571Y-172346952D01*
X209613333Y-172394571D01*
X209565714Y-172442190D01*
X209518095Y-172537428D01*
X209518095Y-172727904D01*
X209565714Y-172823142D01*
X209613333Y-172870761D01*
X209708571Y-172918380D01*
X209899047Y-172918380D01*
X209994285Y-172870761D01*
X210041904Y-172823142D01*
X210089523Y-172727904D01*
X210089523Y-172537428D01*
X210041904Y-172442190D01*
X209994285Y-172394571D01*
X209899047Y-172346952D01*
X186150476Y-172870761D02*
X186293333Y-172918380D01*
X186531428Y-172918380D01*
X186626666Y-172870761D01*
X186674285Y-172823142D01*
X186721904Y-172727904D01*
X186721904Y-172632666D01*
X186674285Y-172537428D01*
X186626666Y-172489809D01*
X186531428Y-172442190D01*
X186340952Y-172394571D01*
X186245714Y-172346952D01*
X186198095Y-172299333D01*
X186150476Y-172204095D01*
X186150476Y-172108857D01*
X186198095Y-172013619D01*
X186245714Y-171966000D01*
X186340952Y-171918380D01*
X186579047Y-171918380D01*
X186721904Y-171966000D01*
X187055238Y-171918380D02*
X187293333Y-172918380D01*
X187483809Y-172204095D01*
X187674285Y-172918380D01*
X187912380Y-171918380D01*
X188245714Y-172013619D02*
X188293333Y-171966000D01*
X188388571Y-171918380D01*
X188626666Y-171918380D01*
X188721904Y-171966000D01*
X188769523Y-172013619D01*
X188817142Y-172108857D01*
X188817142Y-172204095D01*
X188769523Y-172346952D01*
X188198095Y-172918380D01*
X188817142Y-172918380D01*
X189150476Y-171918380D02*
X189817142Y-171918380D01*
X189388571Y-172918380D01*
X165830476Y-172870761D02*
X165973333Y-172918380D01*
X166211428Y-172918380D01*
X166306666Y-172870761D01*
X166354285Y-172823142D01*
X166401904Y-172727904D01*
X166401904Y-172632666D01*
X166354285Y-172537428D01*
X166306666Y-172489809D01*
X166211428Y-172442190D01*
X166020952Y-172394571D01*
X165925714Y-172346952D01*
X165878095Y-172299333D01*
X165830476Y-172204095D01*
X165830476Y-172108857D01*
X165878095Y-172013619D01*
X165925714Y-171966000D01*
X166020952Y-171918380D01*
X166259047Y-171918380D01*
X166401904Y-171966000D01*
X166735238Y-171918380D02*
X166973333Y-172918380D01*
X167163809Y-172204095D01*
X167354285Y-172918380D01*
X167592380Y-171918380D01*
X167925714Y-172013619D02*
X167973333Y-171966000D01*
X168068571Y-171918380D01*
X168306666Y-171918380D01*
X168401904Y-171966000D01*
X168449523Y-172013619D01*
X168497142Y-172108857D01*
X168497142Y-172204095D01*
X168449523Y-172346952D01*
X167878095Y-172918380D01*
X168497142Y-172918380D01*
X169354285Y-171918380D02*
X169163809Y-171918380D01*
X169068571Y-171966000D01*
X169020952Y-172013619D01*
X168925714Y-172156476D01*
X168878095Y-172346952D01*
X168878095Y-172727904D01*
X168925714Y-172823142D01*
X168973333Y-172870761D01*
X169068571Y-172918380D01*
X169259047Y-172918380D01*
X169354285Y-172870761D01*
X169401904Y-172823142D01*
X169449523Y-172727904D01*
X169449523Y-172489809D01*
X169401904Y-172394571D01*
X169354285Y-172346952D01*
X169259047Y-172299333D01*
X169068571Y-172299333D01*
X168973333Y-172346952D01*
X168925714Y-172394571D01*
X168878095Y-172489809D01*
X247110476Y-162710761D02*
X247253333Y-162758380D01*
X247491428Y-162758380D01*
X247586666Y-162710761D01*
X247634285Y-162663142D01*
X247681904Y-162567904D01*
X247681904Y-162472666D01*
X247634285Y-162377428D01*
X247586666Y-162329809D01*
X247491428Y-162282190D01*
X247300952Y-162234571D01*
X247205714Y-162186952D01*
X247158095Y-162139333D01*
X247110476Y-162044095D01*
X247110476Y-161948857D01*
X247158095Y-161853619D01*
X247205714Y-161806000D01*
X247300952Y-161758380D01*
X247539047Y-161758380D01*
X247681904Y-161806000D01*
X248015238Y-161758380D02*
X248253333Y-162758380D01*
X248443809Y-162044095D01*
X248634285Y-162758380D01*
X248872380Y-161758380D01*
X249205714Y-161853619D02*
X249253333Y-161806000D01*
X249348571Y-161758380D01*
X249586666Y-161758380D01*
X249681904Y-161806000D01*
X249729523Y-161853619D01*
X249777142Y-161948857D01*
X249777142Y-162044095D01*
X249729523Y-162186952D01*
X249158095Y-162758380D01*
X249777142Y-162758380D01*
X250681904Y-161758380D02*
X250205714Y-161758380D01*
X250158095Y-162234571D01*
X250205714Y-162186952D01*
X250300952Y-162139333D01*
X250539047Y-162139333D01*
X250634285Y-162186952D01*
X250681904Y-162234571D01*
X250729523Y-162329809D01*
X250729523Y-162567904D01*
X250681904Y-162663142D01*
X250634285Y-162710761D01*
X250539047Y-162758380D01*
X250300952Y-162758380D01*
X250205714Y-162710761D01*
X250158095Y-162663142D01*
X226790476Y-162710761D02*
X226933333Y-162758380D01*
X227171428Y-162758380D01*
X227266666Y-162710761D01*
X227314285Y-162663142D01*
X227361904Y-162567904D01*
X227361904Y-162472666D01*
X227314285Y-162377428D01*
X227266666Y-162329809D01*
X227171428Y-162282190D01*
X226980952Y-162234571D01*
X226885714Y-162186952D01*
X226838095Y-162139333D01*
X226790476Y-162044095D01*
X226790476Y-161948857D01*
X226838095Y-161853619D01*
X226885714Y-161806000D01*
X226980952Y-161758380D01*
X227219047Y-161758380D01*
X227361904Y-161806000D01*
X227695238Y-161758380D02*
X227933333Y-162758380D01*
X228123809Y-162044095D01*
X228314285Y-162758380D01*
X228552380Y-161758380D01*
X228885714Y-161853619D02*
X228933333Y-161806000D01*
X229028571Y-161758380D01*
X229266666Y-161758380D01*
X229361904Y-161806000D01*
X229409523Y-161853619D01*
X229457142Y-161948857D01*
X229457142Y-162044095D01*
X229409523Y-162186952D01*
X228838095Y-162758380D01*
X229457142Y-162758380D01*
X230314285Y-162091714D02*
X230314285Y-162758380D01*
X230076190Y-161710761D02*
X229838095Y-162425047D01*
X230457142Y-162425047D01*
X206470476Y-162710761D02*
X206613333Y-162758380D01*
X206851428Y-162758380D01*
X206946666Y-162710761D01*
X206994285Y-162663142D01*
X207041904Y-162567904D01*
X207041904Y-162472666D01*
X206994285Y-162377428D01*
X206946666Y-162329809D01*
X206851428Y-162282190D01*
X206660952Y-162234571D01*
X206565714Y-162186952D01*
X206518095Y-162139333D01*
X206470476Y-162044095D01*
X206470476Y-161948857D01*
X206518095Y-161853619D01*
X206565714Y-161806000D01*
X206660952Y-161758380D01*
X206899047Y-161758380D01*
X207041904Y-161806000D01*
X207375238Y-161758380D02*
X207613333Y-162758380D01*
X207803809Y-162044095D01*
X207994285Y-162758380D01*
X208232380Y-161758380D01*
X208565714Y-161853619D02*
X208613333Y-161806000D01*
X208708571Y-161758380D01*
X208946666Y-161758380D01*
X209041904Y-161806000D01*
X209089523Y-161853619D01*
X209137142Y-161948857D01*
X209137142Y-162044095D01*
X209089523Y-162186952D01*
X208518095Y-162758380D01*
X209137142Y-162758380D01*
X209470476Y-161758380D02*
X210089523Y-161758380D01*
X209756190Y-162139333D01*
X209899047Y-162139333D01*
X209994285Y-162186952D01*
X210041904Y-162234571D01*
X210089523Y-162329809D01*
X210089523Y-162567904D01*
X210041904Y-162663142D01*
X209994285Y-162710761D01*
X209899047Y-162758380D01*
X209613333Y-162758380D01*
X209518095Y-162710761D01*
X209470476Y-162663142D01*
X186150476Y-162710761D02*
X186293333Y-162758380D01*
X186531428Y-162758380D01*
X186626666Y-162710761D01*
X186674285Y-162663142D01*
X186721904Y-162567904D01*
X186721904Y-162472666D01*
X186674285Y-162377428D01*
X186626666Y-162329809D01*
X186531428Y-162282190D01*
X186340952Y-162234571D01*
X186245714Y-162186952D01*
X186198095Y-162139333D01*
X186150476Y-162044095D01*
X186150476Y-161948857D01*
X186198095Y-161853619D01*
X186245714Y-161806000D01*
X186340952Y-161758380D01*
X186579047Y-161758380D01*
X186721904Y-161806000D01*
X187055238Y-161758380D02*
X187293333Y-162758380D01*
X187483809Y-162044095D01*
X187674285Y-162758380D01*
X187912380Y-161758380D01*
X188245714Y-161853619D02*
X188293333Y-161806000D01*
X188388571Y-161758380D01*
X188626666Y-161758380D01*
X188721904Y-161806000D01*
X188769523Y-161853619D01*
X188817142Y-161948857D01*
X188817142Y-162044095D01*
X188769523Y-162186952D01*
X188198095Y-162758380D01*
X188817142Y-162758380D01*
X189198095Y-161853619D02*
X189245714Y-161806000D01*
X189340952Y-161758380D01*
X189579047Y-161758380D01*
X189674285Y-161806000D01*
X189721904Y-161853619D01*
X189769523Y-161948857D01*
X189769523Y-162044095D01*
X189721904Y-162186952D01*
X189150476Y-162758380D01*
X189769523Y-162758380D01*
X165830476Y-162710761D02*
X165973333Y-162758380D01*
X166211428Y-162758380D01*
X166306666Y-162710761D01*
X166354285Y-162663142D01*
X166401904Y-162567904D01*
X166401904Y-162472666D01*
X166354285Y-162377428D01*
X166306666Y-162329809D01*
X166211428Y-162282190D01*
X166020952Y-162234571D01*
X165925714Y-162186952D01*
X165878095Y-162139333D01*
X165830476Y-162044095D01*
X165830476Y-161948857D01*
X165878095Y-161853619D01*
X165925714Y-161806000D01*
X166020952Y-161758380D01*
X166259047Y-161758380D01*
X166401904Y-161806000D01*
X166735238Y-161758380D02*
X166973333Y-162758380D01*
X167163809Y-162044095D01*
X167354285Y-162758380D01*
X167592380Y-161758380D01*
X167925714Y-161853619D02*
X167973333Y-161806000D01*
X168068571Y-161758380D01*
X168306666Y-161758380D01*
X168401904Y-161806000D01*
X168449523Y-161853619D01*
X168497142Y-161948857D01*
X168497142Y-162044095D01*
X168449523Y-162186952D01*
X167878095Y-162758380D01*
X168497142Y-162758380D01*
X169449523Y-162758380D02*
X168878095Y-162758380D01*
X169163809Y-162758380D02*
X169163809Y-161758380D01*
X169068571Y-161901238D01*
X168973333Y-161996476D01*
X168878095Y-162044095D01*
X247110476Y-142390761D02*
X247253333Y-142438380D01*
X247491428Y-142438380D01*
X247586666Y-142390761D01*
X247634285Y-142343142D01*
X247681904Y-142247904D01*
X247681904Y-142152666D01*
X247634285Y-142057428D01*
X247586666Y-142009809D01*
X247491428Y-141962190D01*
X247300952Y-141914571D01*
X247205714Y-141866952D01*
X247158095Y-141819333D01*
X247110476Y-141724095D01*
X247110476Y-141628857D01*
X247158095Y-141533619D01*
X247205714Y-141486000D01*
X247300952Y-141438380D01*
X247539047Y-141438380D01*
X247681904Y-141486000D01*
X248015238Y-141438380D02*
X248253333Y-142438380D01*
X248443809Y-141724095D01*
X248634285Y-142438380D01*
X248872380Y-141438380D01*
X249205714Y-141533619D02*
X249253333Y-141486000D01*
X249348571Y-141438380D01*
X249586666Y-141438380D01*
X249681904Y-141486000D01*
X249729523Y-141533619D01*
X249777142Y-141628857D01*
X249777142Y-141724095D01*
X249729523Y-141866952D01*
X249158095Y-142438380D01*
X249777142Y-142438380D01*
X250396190Y-141438380D02*
X250491428Y-141438380D01*
X250586666Y-141486000D01*
X250634285Y-141533619D01*
X250681904Y-141628857D01*
X250729523Y-141819333D01*
X250729523Y-142057428D01*
X250681904Y-142247904D01*
X250634285Y-142343142D01*
X250586666Y-142390761D01*
X250491428Y-142438380D01*
X250396190Y-142438380D01*
X250300952Y-142390761D01*
X250253333Y-142343142D01*
X250205714Y-142247904D01*
X250158095Y-142057428D01*
X250158095Y-141819333D01*
X250205714Y-141628857D01*
X250253333Y-141533619D01*
X250300952Y-141486000D01*
X250396190Y-141438380D01*
X226790476Y-142390761D02*
X226933333Y-142438380D01*
X227171428Y-142438380D01*
X227266666Y-142390761D01*
X227314285Y-142343142D01*
X227361904Y-142247904D01*
X227361904Y-142152666D01*
X227314285Y-142057428D01*
X227266666Y-142009809D01*
X227171428Y-141962190D01*
X226980952Y-141914571D01*
X226885714Y-141866952D01*
X226838095Y-141819333D01*
X226790476Y-141724095D01*
X226790476Y-141628857D01*
X226838095Y-141533619D01*
X226885714Y-141486000D01*
X226980952Y-141438380D01*
X227219047Y-141438380D01*
X227361904Y-141486000D01*
X227695238Y-141438380D02*
X227933333Y-142438380D01*
X228123809Y-141724095D01*
X228314285Y-142438380D01*
X228552380Y-141438380D01*
X229457142Y-142438380D02*
X228885714Y-142438380D01*
X229171428Y-142438380D02*
X229171428Y-141438380D01*
X229076190Y-141581238D01*
X228980952Y-141676476D01*
X228885714Y-141724095D01*
X229933333Y-142438380D02*
X230123809Y-142438380D01*
X230219047Y-142390761D01*
X230266666Y-142343142D01*
X230361904Y-142200285D01*
X230409523Y-142009809D01*
X230409523Y-141628857D01*
X230361904Y-141533619D01*
X230314285Y-141486000D01*
X230219047Y-141438380D01*
X230028571Y-141438380D01*
X229933333Y-141486000D01*
X229885714Y-141533619D01*
X229838095Y-141628857D01*
X229838095Y-141866952D01*
X229885714Y-141962190D01*
X229933333Y-142009809D01*
X230028571Y-142057428D01*
X230219047Y-142057428D01*
X230314285Y-142009809D01*
X230361904Y-141962190D01*
X230409523Y-141866952D01*
X206470476Y-142390761D02*
X206613333Y-142438380D01*
X206851428Y-142438380D01*
X206946666Y-142390761D01*
X206994285Y-142343142D01*
X207041904Y-142247904D01*
X207041904Y-142152666D01*
X206994285Y-142057428D01*
X206946666Y-142009809D01*
X206851428Y-141962190D01*
X206660952Y-141914571D01*
X206565714Y-141866952D01*
X206518095Y-141819333D01*
X206470476Y-141724095D01*
X206470476Y-141628857D01*
X206518095Y-141533619D01*
X206565714Y-141486000D01*
X206660952Y-141438380D01*
X206899047Y-141438380D01*
X207041904Y-141486000D01*
X207375238Y-141438380D02*
X207613333Y-142438380D01*
X207803809Y-141724095D01*
X207994285Y-142438380D01*
X208232380Y-141438380D01*
X209137142Y-142438380D02*
X208565714Y-142438380D01*
X208851428Y-142438380D02*
X208851428Y-141438380D01*
X208756190Y-141581238D01*
X208660952Y-141676476D01*
X208565714Y-141724095D01*
X209708571Y-141866952D02*
X209613333Y-141819333D01*
X209565714Y-141771714D01*
X209518095Y-141676476D01*
X209518095Y-141628857D01*
X209565714Y-141533619D01*
X209613333Y-141486000D01*
X209708571Y-141438380D01*
X209899047Y-141438380D01*
X209994285Y-141486000D01*
X210041904Y-141533619D01*
X210089523Y-141628857D01*
X210089523Y-141676476D01*
X210041904Y-141771714D01*
X209994285Y-141819333D01*
X209899047Y-141866952D01*
X209708571Y-141866952D01*
X209613333Y-141914571D01*
X209565714Y-141962190D01*
X209518095Y-142057428D01*
X209518095Y-142247904D01*
X209565714Y-142343142D01*
X209613333Y-142390761D01*
X209708571Y-142438380D01*
X209899047Y-142438380D01*
X209994285Y-142390761D01*
X210041904Y-142343142D01*
X210089523Y-142247904D01*
X210089523Y-142057428D01*
X210041904Y-141962190D01*
X209994285Y-141914571D01*
X209899047Y-141866952D01*
X186150476Y-142390761D02*
X186293333Y-142438380D01*
X186531428Y-142438380D01*
X186626666Y-142390761D01*
X186674285Y-142343142D01*
X186721904Y-142247904D01*
X186721904Y-142152666D01*
X186674285Y-142057428D01*
X186626666Y-142009809D01*
X186531428Y-141962190D01*
X186340952Y-141914571D01*
X186245714Y-141866952D01*
X186198095Y-141819333D01*
X186150476Y-141724095D01*
X186150476Y-141628857D01*
X186198095Y-141533619D01*
X186245714Y-141486000D01*
X186340952Y-141438380D01*
X186579047Y-141438380D01*
X186721904Y-141486000D01*
X187055238Y-141438380D02*
X187293333Y-142438380D01*
X187483809Y-141724095D01*
X187674285Y-142438380D01*
X187912380Y-141438380D01*
X188817142Y-142438380D02*
X188245714Y-142438380D01*
X188531428Y-142438380D02*
X188531428Y-141438380D01*
X188436190Y-141581238D01*
X188340952Y-141676476D01*
X188245714Y-141724095D01*
X189150476Y-141438380D02*
X189817142Y-141438380D01*
X189388571Y-142438380D01*
X165830476Y-142390761D02*
X165973333Y-142438380D01*
X166211428Y-142438380D01*
X166306666Y-142390761D01*
X166354285Y-142343142D01*
X166401904Y-142247904D01*
X166401904Y-142152666D01*
X166354285Y-142057428D01*
X166306666Y-142009809D01*
X166211428Y-141962190D01*
X166020952Y-141914571D01*
X165925714Y-141866952D01*
X165878095Y-141819333D01*
X165830476Y-141724095D01*
X165830476Y-141628857D01*
X165878095Y-141533619D01*
X165925714Y-141486000D01*
X166020952Y-141438380D01*
X166259047Y-141438380D01*
X166401904Y-141486000D01*
X166735238Y-141438380D02*
X166973333Y-142438380D01*
X167163809Y-141724095D01*
X167354285Y-142438380D01*
X167592380Y-141438380D01*
X168497142Y-142438380D02*
X167925714Y-142438380D01*
X168211428Y-142438380D02*
X168211428Y-141438380D01*
X168116190Y-141581238D01*
X168020952Y-141676476D01*
X167925714Y-141724095D01*
X169354285Y-141438380D02*
X169163809Y-141438380D01*
X169068571Y-141486000D01*
X169020952Y-141533619D01*
X168925714Y-141676476D01*
X168878095Y-141866952D01*
X168878095Y-142247904D01*
X168925714Y-142343142D01*
X168973333Y-142390761D01*
X169068571Y-142438380D01*
X169259047Y-142438380D01*
X169354285Y-142390761D01*
X169401904Y-142343142D01*
X169449523Y-142247904D01*
X169449523Y-142009809D01*
X169401904Y-141914571D01*
X169354285Y-141866952D01*
X169259047Y-141819333D01*
X169068571Y-141819333D01*
X168973333Y-141866952D01*
X168925714Y-141914571D01*
X168878095Y-142009809D01*
X135350476Y-172870761D02*
X135493333Y-172918380D01*
X135731428Y-172918380D01*
X135826666Y-172870761D01*
X135874285Y-172823142D01*
X135921904Y-172727904D01*
X135921904Y-172632666D01*
X135874285Y-172537428D01*
X135826666Y-172489809D01*
X135731428Y-172442190D01*
X135540952Y-172394571D01*
X135445714Y-172346952D01*
X135398095Y-172299333D01*
X135350476Y-172204095D01*
X135350476Y-172108857D01*
X135398095Y-172013619D01*
X135445714Y-171966000D01*
X135540952Y-171918380D01*
X135779047Y-171918380D01*
X135921904Y-171966000D01*
X136255238Y-171918380D02*
X136493333Y-172918380D01*
X136683809Y-172204095D01*
X136874285Y-172918380D01*
X137112380Y-171918380D01*
X138017142Y-172918380D02*
X137445714Y-172918380D01*
X137731428Y-172918380D02*
X137731428Y-171918380D01*
X137636190Y-172061238D01*
X137540952Y-172156476D01*
X137445714Y-172204095D01*
X138921904Y-171918380D02*
X138445714Y-171918380D01*
X138398095Y-172394571D01*
X138445714Y-172346952D01*
X138540952Y-172299333D01*
X138779047Y-172299333D01*
X138874285Y-172346952D01*
X138921904Y-172394571D01*
X138969523Y-172489809D01*
X138969523Y-172727904D01*
X138921904Y-172823142D01*
X138874285Y-172870761D01*
X138779047Y-172918380D01*
X138540952Y-172918380D01*
X138445714Y-172870761D01*
X138398095Y-172823142D01*
X115030476Y-172870761D02*
X115173333Y-172918380D01*
X115411428Y-172918380D01*
X115506666Y-172870761D01*
X115554285Y-172823142D01*
X115601904Y-172727904D01*
X115601904Y-172632666D01*
X115554285Y-172537428D01*
X115506666Y-172489809D01*
X115411428Y-172442190D01*
X115220952Y-172394571D01*
X115125714Y-172346952D01*
X115078095Y-172299333D01*
X115030476Y-172204095D01*
X115030476Y-172108857D01*
X115078095Y-172013619D01*
X115125714Y-171966000D01*
X115220952Y-171918380D01*
X115459047Y-171918380D01*
X115601904Y-171966000D01*
X115935238Y-171918380D02*
X116173333Y-172918380D01*
X116363809Y-172204095D01*
X116554285Y-172918380D01*
X116792380Y-171918380D01*
X117697142Y-172918380D02*
X117125714Y-172918380D01*
X117411428Y-172918380D02*
X117411428Y-171918380D01*
X117316190Y-172061238D01*
X117220952Y-172156476D01*
X117125714Y-172204095D01*
X118554285Y-172251714D02*
X118554285Y-172918380D01*
X118316190Y-171870761D02*
X118078095Y-172585047D01*
X118697142Y-172585047D01*
X94710476Y-172870761D02*
X94853333Y-172918380D01*
X95091428Y-172918380D01*
X95186666Y-172870761D01*
X95234285Y-172823142D01*
X95281904Y-172727904D01*
X95281904Y-172632666D01*
X95234285Y-172537428D01*
X95186666Y-172489809D01*
X95091428Y-172442190D01*
X94900952Y-172394571D01*
X94805714Y-172346952D01*
X94758095Y-172299333D01*
X94710476Y-172204095D01*
X94710476Y-172108857D01*
X94758095Y-172013619D01*
X94805714Y-171966000D01*
X94900952Y-171918380D01*
X95139047Y-171918380D01*
X95281904Y-171966000D01*
X95615238Y-171918380D02*
X95853333Y-172918380D01*
X96043809Y-172204095D01*
X96234285Y-172918380D01*
X96472380Y-171918380D01*
X97377142Y-172918380D02*
X96805714Y-172918380D01*
X97091428Y-172918380D02*
X97091428Y-171918380D01*
X96996190Y-172061238D01*
X96900952Y-172156476D01*
X96805714Y-172204095D01*
X97710476Y-171918380D02*
X98329523Y-171918380D01*
X97996190Y-172299333D01*
X98139047Y-172299333D01*
X98234285Y-172346952D01*
X98281904Y-172394571D01*
X98329523Y-172489809D01*
X98329523Y-172727904D01*
X98281904Y-172823142D01*
X98234285Y-172870761D01*
X98139047Y-172918380D01*
X97853333Y-172918380D01*
X97758095Y-172870761D01*
X97710476Y-172823142D01*
X74390476Y-172870761D02*
X74533333Y-172918380D01*
X74771428Y-172918380D01*
X74866666Y-172870761D01*
X74914285Y-172823142D01*
X74961904Y-172727904D01*
X74961904Y-172632666D01*
X74914285Y-172537428D01*
X74866666Y-172489809D01*
X74771428Y-172442190D01*
X74580952Y-172394571D01*
X74485714Y-172346952D01*
X74438095Y-172299333D01*
X74390476Y-172204095D01*
X74390476Y-172108857D01*
X74438095Y-172013619D01*
X74485714Y-171966000D01*
X74580952Y-171918380D01*
X74819047Y-171918380D01*
X74961904Y-171966000D01*
X75295238Y-171918380D02*
X75533333Y-172918380D01*
X75723809Y-172204095D01*
X75914285Y-172918380D01*
X76152380Y-171918380D01*
X77057142Y-172918380D02*
X76485714Y-172918380D01*
X76771428Y-172918380D02*
X76771428Y-171918380D01*
X76676190Y-172061238D01*
X76580952Y-172156476D01*
X76485714Y-172204095D01*
X77438095Y-172013619D02*
X77485714Y-171966000D01*
X77580952Y-171918380D01*
X77819047Y-171918380D01*
X77914285Y-171966000D01*
X77961904Y-172013619D01*
X78009523Y-172108857D01*
X78009523Y-172204095D01*
X77961904Y-172346952D01*
X77390476Y-172918380D01*
X78009523Y-172918380D01*
X54070476Y-172870761D02*
X54213333Y-172918380D01*
X54451428Y-172918380D01*
X54546666Y-172870761D01*
X54594285Y-172823142D01*
X54641904Y-172727904D01*
X54641904Y-172632666D01*
X54594285Y-172537428D01*
X54546666Y-172489809D01*
X54451428Y-172442190D01*
X54260952Y-172394571D01*
X54165714Y-172346952D01*
X54118095Y-172299333D01*
X54070476Y-172204095D01*
X54070476Y-172108857D01*
X54118095Y-172013619D01*
X54165714Y-171966000D01*
X54260952Y-171918380D01*
X54499047Y-171918380D01*
X54641904Y-171966000D01*
X54975238Y-171918380D02*
X55213333Y-172918380D01*
X55403809Y-172204095D01*
X55594285Y-172918380D01*
X55832380Y-171918380D01*
X56737142Y-172918380D02*
X56165714Y-172918380D01*
X56451428Y-172918380D02*
X56451428Y-171918380D01*
X56356190Y-172061238D01*
X56260952Y-172156476D01*
X56165714Y-172204095D01*
X57689523Y-172918380D02*
X57118095Y-172918380D01*
X57403809Y-172918380D02*
X57403809Y-171918380D01*
X57308571Y-172061238D01*
X57213333Y-172156476D01*
X57118095Y-172204095D01*
X135350476Y-162710761D02*
X135493333Y-162758380D01*
X135731428Y-162758380D01*
X135826666Y-162710761D01*
X135874285Y-162663142D01*
X135921904Y-162567904D01*
X135921904Y-162472666D01*
X135874285Y-162377428D01*
X135826666Y-162329809D01*
X135731428Y-162282190D01*
X135540952Y-162234571D01*
X135445714Y-162186952D01*
X135398095Y-162139333D01*
X135350476Y-162044095D01*
X135350476Y-161948857D01*
X135398095Y-161853619D01*
X135445714Y-161806000D01*
X135540952Y-161758380D01*
X135779047Y-161758380D01*
X135921904Y-161806000D01*
X136255238Y-161758380D02*
X136493333Y-162758380D01*
X136683809Y-162044095D01*
X136874285Y-162758380D01*
X137112380Y-161758380D01*
X138017142Y-162758380D02*
X137445714Y-162758380D01*
X137731428Y-162758380D02*
X137731428Y-161758380D01*
X137636190Y-161901238D01*
X137540952Y-161996476D01*
X137445714Y-162044095D01*
X138636190Y-161758380D02*
X138731428Y-161758380D01*
X138826666Y-161806000D01*
X138874285Y-161853619D01*
X138921904Y-161948857D01*
X138969523Y-162139333D01*
X138969523Y-162377428D01*
X138921904Y-162567904D01*
X138874285Y-162663142D01*
X138826666Y-162710761D01*
X138731428Y-162758380D01*
X138636190Y-162758380D01*
X138540952Y-162710761D01*
X138493333Y-162663142D01*
X138445714Y-162567904D01*
X138398095Y-162377428D01*
X138398095Y-162139333D01*
X138445714Y-161948857D01*
X138493333Y-161853619D01*
X138540952Y-161806000D01*
X138636190Y-161758380D01*
X115506666Y-162710761D02*
X115649523Y-162758380D01*
X115887619Y-162758380D01*
X115982857Y-162710761D01*
X116030476Y-162663142D01*
X116078095Y-162567904D01*
X116078095Y-162472666D01*
X116030476Y-162377428D01*
X115982857Y-162329809D01*
X115887619Y-162282190D01*
X115697142Y-162234571D01*
X115601904Y-162186952D01*
X115554285Y-162139333D01*
X115506666Y-162044095D01*
X115506666Y-161948857D01*
X115554285Y-161853619D01*
X115601904Y-161806000D01*
X115697142Y-161758380D01*
X115935238Y-161758380D01*
X116078095Y-161806000D01*
X116411428Y-161758380D02*
X116649523Y-162758380D01*
X116840000Y-162044095D01*
X117030476Y-162758380D01*
X117268571Y-161758380D01*
X117697142Y-162758380D02*
X117887619Y-162758380D01*
X117982857Y-162710761D01*
X118030476Y-162663142D01*
X118125714Y-162520285D01*
X118173333Y-162329809D01*
X118173333Y-161948857D01*
X118125714Y-161853619D01*
X118078095Y-161806000D01*
X117982857Y-161758380D01*
X117792380Y-161758380D01*
X117697142Y-161806000D01*
X117649523Y-161853619D01*
X117601904Y-161948857D01*
X117601904Y-162186952D01*
X117649523Y-162282190D01*
X117697142Y-162329809D01*
X117792380Y-162377428D01*
X117982857Y-162377428D01*
X118078095Y-162329809D01*
X118125714Y-162282190D01*
X118173333Y-162186952D01*
X95186666Y-162710761D02*
X95329523Y-162758380D01*
X95567619Y-162758380D01*
X95662857Y-162710761D01*
X95710476Y-162663142D01*
X95758095Y-162567904D01*
X95758095Y-162472666D01*
X95710476Y-162377428D01*
X95662857Y-162329809D01*
X95567619Y-162282190D01*
X95377142Y-162234571D01*
X95281904Y-162186952D01*
X95234285Y-162139333D01*
X95186666Y-162044095D01*
X95186666Y-161948857D01*
X95234285Y-161853619D01*
X95281904Y-161806000D01*
X95377142Y-161758380D01*
X95615238Y-161758380D01*
X95758095Y-161806000D01*
X96091428Y-161758380D02*
X96329523Y-162758380D01*
X96520000Y-162044095D01*
X96710476Y-162758380D01*
X96948571Y-161758380D01*
X97472380Y-162186952D02*
X97377142Y-162139333D01*
X97329523Y-162091714D01*
X97281904Y-161996476D01*
X97281904Y-161948857D01*
X97329523Y-161853619D01*
X97377142Y-161806000D01*
X97472380Y-161758380D01*
X97662857Y-161758380D01*
X97758095Y-161806000D01*
X97805714Y-161853619D01*
X97853333Y-161948857D01*
X97853333Y-161996476D01*
X97805714Y-162091714D01*
X97758095Y-162139333D01*
X97662857Y-162186952D01*
X97472380Y-162186952D01*
X97377142Y-162234571D01*
X97329523Y-162282190D01*
X97281904Y-162377428D01*
X97281904Y-162567904D01*
X97329523Y-162663142D01*
X97377142Y-162710761D01*
X97472380Y-162758380D01*
X97662857Y-162758380D01*
X97758095Y-162710761D01*
X97805714Y-162663142D01*
X97853333Y-162567904D01*
X97853333Y-162377428D01*
X97805714Y-162282190D01*
X97758095Y-162234571D01*
X97662857Y-162186952D01*
X74866666Y-162710761D02*
X75009523Y-162758380D01*
X75247619Y-162758380D01*
X75342857Y-162710761D01*
X75390476Y-162663142D01*
X75438095Y-162567904D01*
X75438095Y-162472666D01*
X75390476Y-162377428D01*
X75342857Y-162329809D01*
X75247619Y-162282190D01*
X75057142Y-162234571D01*
X74961904Y-162186952D01*
X74914285Y-162139333D01*
X74866666Y-162044095D01*
X74866666Y-161948857D01*
X74914285Y-161853619D01*
X74961904Y-161806000D01*
X75057142Y-161758380D01*
X75295238Y-161758380D01*
X75438095Y-161806000D01*
X75771428Y-161758380D02*
X76009523Y-162758380D01*
X76200000Y-162044095D01*
X76390476Y-162758380D01*
X76628571Y-161758380D01*
X76914285Y-161758380D02*
X77580952Y-161758380D01*
X77152380Y-162758380D01*
X54546666Y-162710761D02*
X54689523Y-162758380D01*
X54927619Y-162758380D01*
X55022857Y-162710761D01*
X55070476Y-162663142D01*
X55118095Y-162567904D01*
X55118095Y-162472666D01*
X55070476Y-162377428D01*
X55022857Y-162329809D01*
X54927619Y-162282190D01*
X54737142Y-162234571D01*
X54641904Y-162186952D01*
X54594285Y-162139333D01*
X54546666Y-162044095D01*
X54546666Y-161948857D01*
X54594285Y-161853619D01*
X54641904Y-161806000D01*
X54737142Y-161758380D01*
X54975238Y-161758380D01*
X55118095Y-161806000D01*
X55451428Y-161758380D02*
X55689523Y-162758380D01*
X55880000Y-162044095D01*
X56070476Y-162758380D01*
X56308571Y-161758380D01*
X57118095Y-161758380D02*
X56927619Y-161758380D01*
X56832380Y-161806000D01*
X56784761Y-161853619D01*
X56689523Y-161996476D01*
X56641904Y-162186952D01*
X56641904Y-162567904D01*
X56689523Y-162663142D01*
X56737142Y-162710761D01*
X56832380Y-162758380D01*
X57022857Y-162758380D01*
X57118095Y-162710761D01*
X57165714Y-162663142D01*
X57213333Y-162567904D01*
X57213333Y-162329809D01*
X57165714Y-162234571D01*
X57118095Y-162186952D01*
X57022857Y-162139333D01*
X56832380Y-162139333D01*
X56737142Y-162186952D01*
X56689523Y-162234571D01*
X56641904Y-162329809D01*
X115506666Y-142390761D02*
X115649523Y-142438380D01*
X115887619Y-142438380D01*
X115982857Y-142390761D01*
X116030476Y-142343142D01*
X116078095Y-142247904D01*
X116078095Y-142152666D01*
X116030476Y-142057428D01*
X115982857Y-142009809D01*
X115887619Y-141962190D01*
X115697142Y-141914571D01*
X115601904Y-141866952D01*
X115554285Y-141819333D01*
X115506666Y-141724095D01*
X115506666Y-141628857D01*
X115554285Y-141533619D01*
X115601904Y-141486000D01*
X115697142Y-141438380D01*
X115935238Y-141438380D01*
X116078095Y-141486000D01*
X116411428Y-141438380D02*
X116649523Y-142438380D01*
X116840000Y-141724095D01*
X117030476Y-142438380D01*
X117268571Y-141438380D01*
X118078095Y-141771714D02*
X118078095Y-142438380D01*
X117840000Y-141390761D02*
X117601904Y-142105047D01*
X118220952Y-142105047D01*
X95186666Y-142390761D02*
X95329523Y-142438380D01*
X95567619Y-142438380D01*
X95662857Y-142390761D01*
X95710476Y-142343142D01*
X95758095Y-142247904D01*
X95758095Y-142152666D01*
X95710476Y-142057428D01*
X95662857Y-142009809D01*
X95567619Y-141962190D01*
X95377142Y-141914571D01*
X95281904Y-141866952D01*
X95234285Y-141819333D01*
X95186666Y-141724095D01*
X95186666Y-141628857D01*
X95234285Y-141533619D01*
X95281904Y-141486000D01*
X95377142Y-141438380D01*
X95615238Y-141438380D01*
X95758095Y-141486000D01*
X96091428Y-141438380D02*
X96329523Y-142438380D01*
X96520000Y-141724095D01*
X96710476Y-142438380D01*
X96948571Y-141438380D01*
X97234285Y-141438380D02*
X97853333Y-141438380D01*
X97520000Y-141819333D01*
X97662857Y-141819333D01*
X97758095Y-141866952D01*
X97805714Y-141914571D01*
X97853333Y-142009809D01*
X97853333Y-142247904D01*
X97805714Y-142343142D01*
X97758095Y-142390761D01*
X97662857Y-142438380D01*
X97377142Y-142438380D01*
X97281904Y-142390761D01*
X97234285Y-142343142D01*
X74866666Y-142390761D02*
X75009523Y-142438380D01*
X75247619Y-142438380D01*
X75342857Y-142390761D01*
X75390476Y-142343142D01*
X75438095Y-142247904D01*
X75438095Y-142152666D01*
X75390476Y-142057428D01*
X75342857Y-142009809D01*
X75247619Y-141962190D01*
X75057142Y-141914571D01*
X74961904Y-141866952D01*
X74914285Y-141819333D01*
X74866666Y-141724095D01*
X74866666Y-141628857D01*
X74914285Y-141533619D01*
X74961904Y-141486000D01*
X75057142Y-141438380D01*
X75295238Y-141438380D01*
X75438095Y-141486000D01*
X75771428Y-141438380D02*
X76009523Y-142438380D01*
X76200000Y-141724095D01*
X76390476Y-142438380D01*
X76628571Y-141438380D01*
X76961904Y-141533619D02*
X77009523Y-141486000D01*
X77104761Y-141438380D01*
X77342857Y-141438380D01*
X77438095Y-141486000D01*
X77485714Y-141533619D01*
X77533333Y-141628857D01*
X77533333Y-141724095D01*
X77485714Y-141866952D01*
X76914285Y-142438380D01*
X77533333Y-142438380D01*
X54546666Y-142390761D02*
X54689523Y-142438380D01*
X54927619Y-142438380D01*
X55022857Y-142390761D01*
X55070476Y-142343142D01*
X55118095Y-142247904D01*
X55118095Y-142152666D01*
X55070476Y-142057428D01*
X55022857Y-142009809D01*
X54927619Y-141962190D01*
X54737142Y-141914571D01*
X54641904Y-141866952D01*
X54594285Y-141819333D01*
X54546666Y-141724095D01*
X54546666Y-141628857D01*
X54594285Y-141533619D01*
X54641904Y-141486000D01*
X54737142Y-141438380D01*
X54975238Y-141438380D01*
X55118095Y-141486000D01*
X55451428Y-141438380D02*
X55689523Y-142438380D01*
X55880000Y-141724095D01*
X56070476Y-142438380D01*
X56308571Y-141438380D01*
X57213333Y-142438380D02*
X56641904Y-142438380D01*
X56927619Y-142438380D02*
X56927619Y-141438380D01*
X56832380Y-141581238D01*
X56737142Y-141676476D01*
X56641904Y-141724095D01*
X384476666Y-154602380D02*
X384476666Y-155316666D01*
X384429047Y-155459523D01*
X384333809Y-155554761D01*
X384190952Y-155602380D01*
X384095714Y-155602380D01*
X385476666Y-155602380D02*
X384905238Y-155602380D01*
X385190952Y-155602380D02*
X385190952Y-154602380D01*
X385095714Y-154745238D01*
X385000476Y-154840476D01*
X384905238Y-154888095D01*
M02*
