G04 #@! TF.GenerationSoftware,KiCad,Pcbnew,5.1.4-e60b266~84~ubuntu18.04.1*
G04 #@! TF.CreationDate,2019-09-03T19:41:16+02:00*
G04 #@! TF.ProjectId,xFaders_keys,78466164-6572-4735-9f6b-6579732e6b69,rev?*
G04 #@! TF.SameCoordinates,Original*
G04 #@! TF.FileFunction,Copper,L1,Top*
G04 #@! TF.FilePolarity,Positive*
%FSLAX46Y46*%
G04 Gerber Fmt 4.6, Leading zero omitted, Abs format (unit mm)*
G04 Created by KiCad (PCBNEW 5.1.4-e60b266~84~ubuntu18.04.1) date 2019-09-03 19:41:16*
%MOMM*%
%LPD*%
G04 APERTURE LIST*
%ADD10C,2.200000*%
%ADD11O,2.200000X2.200000*%
%ADD12R,2.200000X2.200000*%
%ADD13O,1.700000X1.700000*%
%ADD14R,1.700000X1.700000*%
%ADD15C,0.800000*%
%ADD16C,0.250000*%
G04 APERTURE END LIST*
D10*
X133350000Y-147320000D03*
X139700000Y-144780000D03*
X356870000Y-147320000D03*
X363220000Y-144780000D03*
D11*
X351790000Y-165100000D03*
D12*
X351790000Y-175260000D03*
D11*
X331470000Y-165100000D03*
D12*
X331470000Y-175260000D03*
D11*
X311150000Y-165100000D03*
D12*
X311150000Y-175260000D03*
D11*
X290830000Y-165100000D03*
D12*
X290830000Y-175260000D03*
D11*
X270510000Y-165100000D03*
D12*
X270510000Y-175260000D03*
D11*
X351790000Y-144780000D03*
D12*
X351790000Y-154940000D03*
D11*
X331470000Y-144780000D03*
D12*
X331470000Y-154940000D03*
D11*
X311150000Y-144780000D03*
D12*
X311150000Y-154940000D03*
D11*
X290830000Y-144780000D03*
D12*
X290830000Y-154940000D03*
D11*
X270510000Y-144780000D03*
D12*
X270510000Y-154940000D03*
D11*
X240030000Y-165100000D03*
D12*
X240030000Y-175260000D03*
D11*
X219710000Y-165100000D03*
D12*
X219710000Y-175260000D03*
D11*
X199390000Y-165100000D03*
D12*
X199390000Y-175260000D03*
D11*
X179070000Y-165100000D03*
D12*
X179070000Y-175260000D03*
D11*
X158750000Y-165100000D03*
D12*
X158750000Y-175260000D03*
D11*
X240030000Y-144780000D03*
D12*
X240030000Y-154940000D03*
D11*
X219710000Y-144780000D03*
D12*
X219710000Y-154940000D03*
D11*
X199390000Y-144780000D03*
D12*
X199390000Y-154940000D03*
D11*
X179070000Y-144780000D03*
D12*
X179070000Y-154940000D03*
D11*
X158750000Y-144780000D03*
D12*
X158750000Y-154940000D03*
D11*
X128270000Y-165100000D03*
D12*
X128270000Y-175260000D03*
D11*
X107950000Y-165100000D03*
D12*
X107950000Y-175260000D03*
D11*
X87630000Y-165100000D03*
D12*
X87630000Y-175260000D03*
D11*
X67310000Y-165100000D03*
D12*
X67310000Y-175260000D03*
D11*
X46990000Y-165100000D03*
D12*
X46990000Y-175260000D03*
D11*
X129540000Y-144780000D03*
D12*
X129540000Y-154940000D03*
D11*
X107950000Y-144780000D03*
D12*
X107950000Y-154940000D03*
D11*
X87630000Y-144780000D03*
D12*
X87630000Y-154940000D03*
D11*
X67310000Y-144780000D03*
D12*
X67310000Y-154940000D03*
D11*
X46990000Y-144780000D03*
D12*
X46990000Y-154940000D03*
D10*
X356870000Y-177800000D03*
X363220000Y-175260000D03*
X356870000Y-167640000D03*
X363220000Y-165100000D03*
X336550000Y-177800000D03*
X342900000Y-175260000D03*
X316230000Y-177800000D03*
X322580000Y-175260000D03*
X295910000Y-177800000D03*
X302260000Y-175260000D03*
X275590000Y-167640000D03*
X281940000Y-165100000D03*
X336550000Y-167640000D03*
X342900000Y-165100000D03*
X316230000Y-167640000D03*
X322580000Y-165100000D03*
X295910000Y-167640000D03*
X302260000Y-165100000D03*
X275590000Y-177800000D03*
X281940000Y-175260000D03*
X336550000Y-147320000D03*
X342900000Y-144780000D03*
X316230000Y-147320000D03*
X322580000Y-144780000D03*
X295910000Y-147320000D03*
X302260000Y-144780000D03*
X275590000Y-147320000D03*
X281940000Y-144780000D03*
X245110000Y-177800000D03*
X251460000Y-175260000D03*
X224790000Y-177800000D03*
X231140000Y-175260000D03*
X204470000Y-177800000D03*
X210820000Y-175260000D03*
X184150000Y-177800000D03*
X190500000Y-175260000D03*
X163830000Y-177800000D03*
X170180000Y-175260000D03*
X245110000Y-167640000D03*
X251460000Y-165100000D03*
X224790000Y-167640000D03*
X231140000Y-165100000D03*
X204470000Y-167640000D03*
X210820000Y-165100000D03*
X184150000Y-167640000D03*
X190500000Y-165100000D03*
X163830000Y-167640000D03*
X170180000Y-165100000D03*
X245110000Y-147320000D03*
X251460000Y-144780000D03*
X224790000Y-147320000D03*
X231140000Y-144780000D03*
X204470000Y-147320000D03*
X210820000Y-144780000D03*
X184150000Y-147320000D03*
X190500000Y-144780000D03*
X163830000Y-147320000D03*
X170180000Y-144780000D03*
X133350000Y-177800000D03*
X139700000Y-175260000D03*
X113030000Y-177800000D03*
X119380000Y-175260000D03*
X92710000Y-177800000D03*
X99060000Y-175260000D03*
X72390000Y-177800000D03*
X78740000Y-175260000D03*
X52070000Y-177800000D03*
X58420000Y-175260000D03*
X133350000Y-167640000D03*
X139700000Y-165100000D03*
X113030000Y-167640000D03*
X119380000Y-165100000D03*
X92710000Y-167640000D03*
X99060000Y-165100000D03*
X72390000Y-167640000D03*
X78740000Y-165100000D03*
X52070000Y-167640000D03*
X58420000Y-165100000D03*
X113030000Y-147320000D03*
X119380000Y-144780000D03*
X92710000Y-147320000D03*
X99060000Y-144780000D03*
X72390000Y-147320000D03*
X78740000Y-144780000D03*
X52070000Y-147320000D03*
X58420000Y-144780000D03*
D13*
X386080000Y-180340000D03*
X383540000Y-180340000D03*
X386080000Y-177800000D03*
X383540000Y-177800000D03*
X386080000Y-175260000D03*
X383540000Y-175260000D03*
X386080000Y-172720000D03*
X383540000Y-172720000D03*
X386080000Y-170180000D03*
X383540000Y-170180000D03*
X386080000Y-167640000D03*
X383540000Y-167640000D03*
X386080000Y-165100000D03*
X383540000Y-165100000D03*
X386080000Y-162560000D03*
X383540000Y-162560000D03*
X386080000Y-160020000D03*
X383540000Y-160020000D03*
X386080000Y-157480000D03*
D14*
X383540000Y-157480000D03*
D15*
X383540000Y-187960000D03*
X382270000Y-189230000D03*
X381000000Y-190500000D03*
X381000000Y-177800000D03*
X389890000Y-173990000D03*
X389890000Y-170180000D03*
D16*
X231140000Y-144780000D02*
X231140000Y-165100000D01*
X231140000Y-165100000D02*
X231140000Y-175260000D01*
X231140000Y-175260000D02*
X243840000Y-187960000D01*
X243840000Y-187960000D02*
X383540000Y-187960000D01*
X210820000Y-144780000D02*
X210820000Y-165100000D01*
X210820000Y-165100000D02*
X210820000Y-175260000D01*
X210820000Y-175260000D02*
X224790000Y-189230000D01*
X224790000Y-189230000D02*
X382270000Y-189230000D01*
X190500000Y-144780000D02*
X190500000Y-165100000D01*
X190500000Y-165100000D02*
X190500000Y-175260000D01*
X190500000Y-175260000D02*
X205740000Y-190500000D01*
X205740000Y-190500000D02*
X381000000Y-190500000D01*
X381000000Y-177800000D02*
X383540000Y-175260000D01*
X170180000Y-144780000D02*
X170180000Y-165100000D01*
X170180000Y-165100000D02*
X170180000Y-175260000D01*
X389890000Y-182683002D02*
X389890000Y-173990000D01*
X381348001Y-191225001D02*
X389890000Y-182683002D01*
X170180000Y-175260000D02*
X186145001Y-191225001D01*
X186145001Y-191225001D02*
X381348001Y-191225001D01*
X363220000Y-165100000D02*
X363220000Y-175260000D01*
X363220000Y-150660998D02*
X363220000Y-144780000D01*
X363220000Y-165100000D02*
X363220000Y-150660998D01*
X385230001Y-171029999D02*
X386080000Y-170180000D01*
X384904999Y-171355001D02*
X385230001Y-171029999D01*
X382975999Y-171355001D02*
X384904999Y-171355001D01*
X376720998Y-165100000D02*
X382975999Y-171355001D01*
X363220000Y-165100000D02*
X376720998Y-165100000D01*
X139700000Y-144780000D02*
X139700000Y-165100000D01*
X139700000Y-165100000D02*
X139700000Y-175260000D01*
X390615001Y-182594411D02*
X390615001Y-170905001D01*
X390615001Y-170905001D02*
X389890000Y-170180000D01*
X153575010Y-191675010D02*
X381534402Y-191675010D01*
X381534402Y-191675010D02*
X390615001Y-182594411D01*
X139700000Y-176815634D02*
X139700000Y-175260000D01*
X139700000Y-181671000D02*
X139700000Y-176815634D01*
X149704010Y-191675010D02*
X139700000Y-181671000D01*
X153575010Y-191675010D02*
X149704010Y-191675010D01*
X342900000Y-165100000D02*
X342900000Y-175260000D01*
X342900000Y-165100000D02*
X342900000Y-144780000D01*
X342900000Y-175260000D02*
X342900000Y-185420000D01*
X342900000Y-185420000D02*
X382739002Y-185420000D01*
X386929999Y-168489999D02*
X386080000Y-167640000D01*
X387255001Y-168815001D02*
X386929999Y-168489999D01*
X387255001Y-180904001D02*
X387255001Y-168815001D01*
X382739002Y-185420000D02*
X387255001Y-180904001D01*
X119380000Y-175260000D02*
X119380000Y-165100000D01*
X119380000Y-165100000D02*
X119380000Y-144780000D01*
X121469990Y-142690010D02*
X119380000Y-144780000D01*
X363239012Y-142690010D02*
X121469990Y-142690010D01*
X382690001Y-166790001D02*
X383540000Y-167640000D01*
X379885891Y-163985891D02*
X382690001Y-166790001D01*
X379885891Y-159336889D02*
X379885891Y-163985891D01*
X363239012Y-142690010D02*
X379885891Y-159336889D01*
X322580000Y-165100000D02*
X322580000Y-175260000D01*
X387705011Y-166725011D02*
X386929999Y-165949999D01*
X387705011Y-181090401D02*
X387705011Y-166725011D01*
X386929999Y-165949999D02*
X386080000Y-165100000D01*
X333190009Y-185870009D02*
X382925403Y-185870009D01*
X382925403Y-185870009D02*
X387705011Y-181090401D01*
X322580000Y-175260000D02*
X333190009Y-185870009D01*
X322580000Y-144780000D02*
X322580000Y-165100000D01*
X99060000Y-169278998D02*
X99060000Y-165100000D01*
X99060000Y-175260000D02*
X99060000Y-169278998D01*
X99060000Y-165100000D02*
X99060000Y-144780000D01*
X380335901Y-161895901D02*
X383540000Y-165100000D01*
X380335901Y-159150489D02*
X380335901Y-161895901D01*
X99060000Y-144780000D02*
X101600000Y-142240000D01*
X363425412Y-142240000D02*
X380335901Y-159150489D01*
X101600000Y-142240000D02*
X363425412Y-142240000D01*
X386929999Y-163409999D02*
X386080000Y-162560000D01*
X388155021Y-181276801D02*
X388155021Y-164635021D01*
X383111804Y-186320018D02*
X388155021Y-181276801D01*
X309041016Y-186320018D02*
X383111804Y-186320018D01*
X302260000Y-179539002D02*
X309041016Y-186320018D01*
X388155021Y-164635021D02*
X386929999Y-163409999D01*
X302260000Y-175260000D02*
X302260000Y-179539002D01*
X302260000Y-175260000D02*
X302260000Y-165100000D01*
X302260000Y-165100000D02*
X302260000Y-144780000D01*
X78740000Y-169278998D02*
X78740000Y-165100000D01*
X78740000Y-175260000D02*
X78740000Y-169278998D01*
X78740000Y-150660998D02*
X78740000Y-144780000D01*
X78740000Y-165100000D02*
X78740000Y-150660998D01*
X380785911Y-159805911D02*
X383540000Y-162560000D01*
X380785911Y-158964089D02*
X380785911Y-159805911D01*
X363611813Y-141789991D02*
X380785911Y-158964089D01*
X78740000Y-144780000D02*
X81730010Y-141789990D01*
X81730010Y-141789990D02*
X363611813Y-141789991D01*
X281940000Y-144780000D02*
X281940000Y-165100000D01*
X281940000Y-165100000D02*
X281940000Y-175260000D01*
X281940000Y-175260000D02*
X281940000Y-179070000D01*
X386929999Y-160869999D02*
X386080000Y-160020000D01*
X388605031Y-162545031D02*
X386929999Y-160869999D01*
X388605031Y-181463201D02*
X388605031Y-162545031D01*
X383298205Y-186770027D02*
X388605031Y-181463201D01*
X292649030Y-186770028D02*
X383298205Y-186770027D01*
X284949002Y-179070000D02*
X292649030Y-186770028D01*
X281940000Y-179070000D02*
X284949002Y-179070000D01*
X58420000Y-175260000D02*
X58420000Y-165100000D01*
X58420000Y-165100000D02*
X58420000Y-144780000D01*
X61860019Y-141339981D02*
X58420000Y-144780000D01*
X363798213Y-141339981D02*
X61860019Y-141339981D01*
X381628233Y-159170001D02*
X363798213Y-141339981D01*
X382690001Y-159170001D02*
X381628233Y-159170001D01*
X383540000Y-160020000D02*
X382690001Y-159170001D01*
X251460000Y-144780000D02*
X251460000Y-165100000D01*
X251460000Y-165100000D02*
X251460000Y-175260000D01*
X386929999Y-158329999D02*
X386080000Y-157480000D01*
X389055041Y-181649601D02*
X389055041Y-160455041D01*
X389055041Y-160455041D02*
X386929999Y-158329999D01*
X383484606Y-187220036D02*
X389055041Y-181649601D01*
X263420036Y-187220036D02*
X383484606Y-187220036D01*
X251460000Y-175260000D02*
X263420036Y-187220036D01*
M02*
