M48
; DRILL file {KiCad 5.1.4-e60b266~84~ubuntu18.04.1} date Di 03 Sep 2019 19:41:37 CEST
; FORMAT={-:-/ absolute / metric / decimal}
; #@! TF.CreationDate,2019-09-03T19:41:37+02:00
; #@! TF.GenerationSoftware,Kicad,Pcbnew,5.1.4-e60b266~84~ubuntu18.04.1
FMAT,2
METRIC
T1C0.400
T2C1.000
T3C1.100
T4C1.500
T5C1.700
T6C3.200
T7C4.000
%
G90
G05
T1
X381.0Y-177.8
X381.0Y-190.5
X382.27Y-189.23
X383.54Y-187.96
X389.89Y-170.18
X389.89Y-173.99
T2
X383.54Y-157.48
X383.54Y-160.02
X383.54Y-162.56
X383.54Y-165.1
X383.54Y-167.64
X383.54Y-170.18
X383.54Y-172.72
X383.54Y-175.26
X383.54Y-177.8
X383.54Y-180.34
X386.08Y-157.48
X386.08Y-160.02
X386.08Y-162.56
X386.08Y-165.1
X386.08Y-167.64
X386.08Y-170.18
X386.08Y-172.72
X386.08Y-175.26
X386.08Y-177.8
X386.08Y-180.34
T3
X290.83Y-165.1
X290.83Y-175.26
X199.39Y-144.78
X199.39Y-154.94
X219.71Y-144.78
X219.71Y-154.94
X199.39Y-165.1
X199.39Y-175.26
X46.99Y-165.1
X46.99Y-175.26
X87.63Y-165.1
X87.63Y-175.26
X351.79Y-165.1
X351.79Y-175.26
X158.75Y-165.1
X158.75Y-175.26
X158.75Y-144.78
X158.75Y-154.94
X270.51Y-165.1
X270.51Y-175.26
X270.51Y-144.78
X270.51Y-154.94
X67.31Y-144.78
X67.31Y-154.94
X311.15Y-144.78
X311.15Y-154.94
X179.07Y-165.1
X179.07Y-175.26
X107.95Y-144.78
X107.95Y-154.94
X219.71Y-165.1
X219.71Y-175.26
X46.99Y-144.78
X46.99Y-154.94
X331.47Y-165.1
X331.47Y-175.26
X240.03Y-165.1
X240.03Y-175.26
X128.27Y-165.1
X128.27Y-175.26
X290.83Y-144.78
X290.83Y-154.94
X107.95Y-165.1
X107.95Y-175.26
X331.47Y-144.78
X331.47Y-154.94
X351.79Y-144.78
X351.79Y-154.94
X179.07Y-144.78
X179.07Y-154.94
X311.15Y-165.1
X311.15Y-175.26
X87.63Y-144.78
X87.63Y-154.94
X67.31Y-165.1
X67.31Y-175.26
X129.54Y-144.78
X129.54Y-154.94
X240.03Y-144.78
X240.03Y-154.94
T4
X204.47Y-177.8
X210.82Y-175.26
X316.23Y-177.8
X322.58Y-175.26
X133.35Y-167.64
X139.7Y-165.1
X72.39Y-167.64
X78.74Y-165.1
X92.71Y-147.32
X99.06Y-144.78
X275.59Y-147.32
X281.94Y-144.78
X52.07Y-167.64
X58.42Y-165.1
X184.15Y-147.32
X190.5Y-144.78
X295.91Y-167.64
X302.26Y-165.1
X133.35Y-177.8
X139.7Y-175.26
X245.11Y-167.64
X251.46Y-165.1
X336.55Y-147.32
X342.9Y-144.78
X275.59Y-177.8
X281.94Y-175.26
X72.39Y-147.32
X78.74Y-144.78
X133.35Y-147.32
X139.7Y-144.78
X163.83Y-177.8
X170.18Y-175.26
X224.79Y-147.32
X231.14Y-144.78
X316.23Y-167.64
X322.58Y-165.1
X163.83Y-167.64
X170.18Y-165.1
X295.91Y-177.8
X302.26Y-175.26
X204.47Y-147.32
X210.82Y-144.78
X113.03Y-167.64
X119.38Y-165.1
X184.15Y-167.64
X190.5Y-165.1
X52.07Y-177.8
X58.42Y-175.26
X113.03Y-177.8
X119.38Y-175.26
X92.71Y-167.64
X99.06Y-165.1
X356.87Y-167.64
X363.22Y-165.1
X275.59Y-167.64
X281.94Y-165.1
X356.87Y-177.8
X363.22Y-175.26
X224.79Y-167.64
X231.14Y-165.1
X295.91Y-147.32
X302.26Y-144.78
X113.03Y-147.32
X119.38Y-144.78
X224.79Y-177.8
X231.14Y-175.26
X245.11Y-177.8
X251.46Y-175.26
X72.39Y-177.8
X78.74Y-175.26
X163.83Y-147.32
X170.18Y-144.78
X184.15Y-177.8
X190.5Y-175.26
X316.23Y-147.32
X322.58Y-144.78
X204.47Y-167.64
X210.82Y-165.1
X92.71Y-177.8
X99.06Y-175.26
X245.11Y-147.32
X251.46Y-144.78
X52.07Y-147.32
X58.42Y-144.78
X336.55Y-167.64
X342.9Y-165.1
X356.87Y-147.32
X363.22Y-144.78
X336.55Y-177.8
X342.9Y-175.26
T5
X71.12Y-180.34
X81.28Y-180.34
X162.56Y-149.86
X172.72Y-149.86
X182.88Y-180.34
X193.04Y-180.34
X314.96Y-149.86
X325.12Y-149.86
X203.2Y-170.18
X213.36Y-170.18
X91.44Y-180.34
X101.6Y-180.34
X243.84Y-149.86
X254.0Y-149.86
X50.8Y-149.86
X60.96Y-149.86
X335.28Y-170.18
X345.44Y-170.18
X355.6Y-149.86
X365.76Y-149.86
X335.28Y-180.34
X345.44Y-180.34
X203.2Y-180.34
X213.36Y-180.34
X314.96Y-180.34
X325.12Y-180.34
X132.08Y-170.18
X142.24Y-170.18
X71.12Y-170.18
X81.28Y-170.18
X91.44Y-149.86
X101.6Y-149.86
X274.32Y-149.86
X284.48Y-149.86
X50.8Y-170.18
X60.96Y-170.18
X182.88Y-149.86
X193.04Y-149.86
X294.64Y-170.18
X304.8Y-170.18
X132.08Y-180.34
X142.24Y-180.34
X243.84Y-170.18
X254.0Y-170.18
X335.28Y-149.86
X345.44Y-149.86
X274.32Y-180.34
X284.48Y-180.34
X71.12Y-149.86
X81.28Y-149.86
X132.08Y-149.86
X142.24Y-149.86
X162.56Y-180.34
X172.72Y-180.34
X223.52Y-149.86
X233.68Y-149.86
X314.96Y-170.18
X325.12Y-170.18
X162.56Y-170.18
X172.72Y-170.18
X294.64Y-180.34
X304.8Y-180.34
X203.2Y-149.86
X213.36Y-149.86
X111.76Y-170.18
X121.92Y-170.18
X182.88Y-170.18
X193.04Y-170.18
X50.8Y-180.34
X60.96Y-180.34
X111.76Y-180.34
X121.92Y-180.34
X91.44Y-170.18
X101.6Y-170.18
X355.6Y-170.18
X365.76Y-170.18
X274.32Y-170.18
X284.48Y-170.18
X355.6Y-180.34
X365.76Y-180.34
X223.52Y-170.18
X233.68Y-170.18
X294.64Y-149.86
X304.8Y-149.86
X111.76Y-149.86
X121.92Y-149.86
X223.52Y-180.34
X233.68Y-180.34
X243.84Y-180.34
X254.0Y-180.34
T6
X375.92Y-180.34
X152.4Y-180.34
X152.4Y-170.18
X41.91Y-149.86
X41.91Y-180.34
X375.92Y-149.86
X41.91Y-170.18
X375.92Y-170.18
X264.16Y-149.86
X264.16Y-180.34
X152.4Y-149.86
X264.16Y-170.18
T7
X360.68Y-170.18
X279.4Y-170.18
X360.68Y-180.34
X228.6Y-170.18
X299.72Y-149.86
X116.84Y-149.86
X228.6Y-180.34
X248.92Y-180.34
X76.2Y-180.34
X167.64Y-149.86
X187.96Y-180.34
X320.04Y-149.86
X208.28Y-170.18
X96.52Y-180.34
X248.92Y-149.86
X55.88Y-149.86
X340.36Y-170.18
X360.68Y-149.86
X340.36Y-180.34
X208.28Y-180.34
X320.04Y-180.34
X137.16Y-170.18
X76.2Y-170.18
X96.52Y-149.86
X279.4Y-149.86
X55.88Y-170.18
X187.96Y-149.86
X299.72Y-170.18
X137.16Y-180.34
X248.92Y-170.18
X340.36Y-149.86
X279.4Y-180.34
X76.2Y-149.86
X137.16Y-149.86
X167.64Y-180.34
X228.6Y-149.86
X320.04Y-170.18
X167.64Y-170.18
X299.72Y-180.34
X208.28Y-149.86
X116.84Y-170.18
X187.96Y-170.18
X55.88Y-180.34
X116.84Y-180.34
X96.52Y-170.18
T0
M30
