G04 #@! TF.GenerationSoftware,KiCad,Pcbnew,5.1.6+dfsg1-1*
G04 #@! TF.CreationDate,2021-04-10T12:13:44+02:00*
G04 #@! TF.ProjectId,xfaders,78666164-6572-4732-9e6b-696361645f70,rev?*
G04 #@! TF.SameCoordinates,Original*
G04 #@! TF.FileFunction,Copper,L2,Bot*
G04 #@! TF.FilePolarity,Positive*
%FSLAX46Y46*%
G04 Gerber Fmt 4.6, Leading zero omitted, Abs format (unit mm)*
G04 Created by KiCad (PCBNEW 5.1.6+dfsg1-1) date 2021-04-10 12:13:44*
%MOMM*%
%LPD*%
G01*
G04 APERTURE LIST*
G04 #@! TA.AperFunction,ComponentPad*
%ADD10C,1.600000*%
G04 #@! TD*
G04 #@! TA.AperFunction,ComponentPad*
%ADD11R,1.500000X1.050000*%
G04 #@! TD*
G04 #@! TA.AperFunction,ComponentPad*
%ADD12O,1.500000X1.050000*%
G04 #@! TD*
G04 #@! TA.AperFunction,ComponentPad*
%ADD13R,2.250000X1.727200*%
G04 #@! TD*
G04 #@! TA.AperFunction,ComponentPad*
%ADD14O,2.250000X1.727200*%
G04 #@! TD*
G04 #@! TA.AperFunction,ComponentPad*
%ADD15O,1.727200X1.727200*%
G04 #@! TD*
G04 #@! TA.AperFunction,ComponentPad*
%ADD16O,1.700000X1.700000*%
G04 #@! TD*
G04 #@! TA.AperFunction,ComponentPad*
%ADD17R,1.700000X1.700000*%
G04 #@! TD*
G04 #@! TA.AperFunction,ComponentPad*
%ADD18O,1.905000X2.000000*%
G04 #@! TD*
G04 #@! TA.AperFunction,ComponentPad*
%ADD19R,1.905000X2.000000*%
G04 #@! TD*
G04 #@! TA.AperFunction,ComponentPad*
%ADD20O,1.600000X1.600000*%
G04 #@! TD*
G04 #@! TA.AperFunction,ComponentPad*
%ADD21R,1.600000X1.600000*%
G04 #@! TD*
G04 #@! TA.AperFunction,ComponentPad*
%ADD22C,3.800000*%
G04 #@! TD*
G04 #@! TA.AperFunction,ComponentPad*
%ADD23R,1.730000X2.030000*%
G04 #@! TD*
G04 #@! TA.AperFunction,ComponentPad*
%ADD24O,1.730000X2.030000*%
G04 #@! TD*
G04 #@! TA.AperFunction,ViaPad*
%ADD25C,0.800000*%
G04 #@! TD*
G04 #@! TA.AperFunction,Conductor*
%ADD26C,0.250000*%
G04 #@! TD*
G04 #@! TA.AperFunction,Conductor*
%ADD27C,0.500000*%
G04 #@! TD*
G04 #@! TA.AperFunction,Conductor*
%ADD28C,0.750000*%
G04 #@! TD*
G04 APERTURE END LIST*
D10*
X66929000Y-68199000D03*
X61929000Y-68199000D03*
X69389000Y-71374000D03*
X64389000Y-71374000D03*
D11*
X67564000Y-103124000D03*
D12*
X67564000Y-105664000D03*
X67564000Y-104394000D03*
D13*
X104140000Y-63449200D03*
D14*
X104140000Y-65989200D03*
X104140000Y-68529200D03*
X104140000Y-71069200D03*
X104140000Y-73609200D03*
X104140000Y-76149200D03*
X104140000Y-78689200D03*
X104140000Y-81229200D03*
X104140000Y-83769200D03*
X104140000Y-86309200D03*
X104140000Y-88849200D03*
X104140000Y-91389200D03*
X104140000Y-93929200D03*
X104140000Y-96469200D03*
X104140000Y-99009200D03*
X104140000Y-101549200D03*
X104140000Y-104089200D03*
X104140000Y-106629200D03*
X104140000Y-109169200D03*
X104140000Y-111709200D03*
X119380000Y-111709200D03*
X119380000Y-109169200D03*
X119380000Y-106629200D03*
X119380000Y-104089200D03*
X119380000Y-101549200D03*
X119380000Y-99009200D03*
X119380000Y-96469200D03*
X119380000Y-93929200D03*
X119380000Y-91389200D03*
X119380000Y-88849200D03*
X119380000Y-86309200D03*
X119380000Y-83769200D03*
X119380000Y-81229200D03*
X119380000Y-78689200D03*
X119380000Y-76149200D03*
X119380000Y-73609200D03*
X119380000Y-71069200D03*
X119380000Y-68529200D03*
X119380000Y-65989200D03*
X119380000Y-63398400D03*
D15*
X113040000Y-67259200D03*
X110500000Y-67259200D03*
D16*
X63754000Y-85344000D03*
D17*
X66294000Y-85344000D03*
D16*
X63754000Y-94234000D03*
D17*
X66294000Y-94234000D03*
D16*
X57658000Y-67818000D03*
D17*
X57658000Y-70358000D03*
D16*
X63754000Y-77089000D03*
D17*
X66294000Y-77089000D03*
D18*
X70358000Y-62738000D03*
X67818000Y-62738000D03*
D19*
X65278000Y-62738000D03*
D20*
X61214000Y-108204000D03*
D10*
X61214000Y-100584000D03*
D20*
X63754000Y-100584000D03*
D10*
X63754000Y-108204000D03*
D20*
X110637320Y-110464600D03*
D10*
X110637320Y-102844600D03*
D20*
X110525560Y-85384640D03*
D10*
X110525560Y-77764640D03*
D20*
X113629440Y-101676200D03*
D10*
X113629440Y-109296200D03*
D20*
X107010200Y-85430360D03*
D10*
X107010200Y-77810360D03*
D20*
X110637320Y-92892880D03*
D10*
X110637320Y-100512880D03*
D20*
X113903760Y-88447880D03*
D10*
X113903760Y-96067880D03*
D20*
X135890000Y-62230000D03*
X128270000Y-80010000D03*
X135890000Y-64770000D03*
X128270000Y-77470000D03*
X135890000Y-67310000D03*
X128270000Y-74930000D03*
X135890000Y-69850000D03*
X128270000Y-72390000D03*
X135890000Y-72390000D03*
X128270000Y-69850000D03*
X135890000Y-74930000D03*
X128270000Y-67310000D03*
X135890000Y-77470000D03*
X128270000Y-64770000D03*
X135890000Y-80010000D03*
D21*
X128270000Y-62230000D03*
X128270000Y-88900000D03*
D20*
X135890000Y-106680000D03*
X128270000Y-91440000D03*
X135890000Y-104140000D03*
X128270000Y-93980000D03*
X135890000Y-101600000D03*
X128270000Y-96520000D03*
X135890000Y-99060000D03*
X128270000Y-99060000D03*
X135890000Y-96520000D03*
X128270000Y-101600000D03*
X135890000Y-93980000D03*
X128270000Y-104140000D03*
X135890000Y-91440000D03*
X128270000Y-106680000D03*
X135890000Y-88900000D03*
D22*
X58674000Y-62484000D03*
X58674000Y-112014000D03*
X165354000Y-112014000D03*
X165354000Y-62484000D03*
D23*
X142240000Y-68580000D03*
D24*
X144780000Y-68580000D03*
X147320000Y-68580000D03*
X157480000Y-68580000D03*
X154940000Y-68580000D03*
D23*
X152400000Y-68580000D03*
X162560000Y-68580000D03*
D24*
X165100000Y-68580000D03*
X167640000Y-68580000D03*
X147320000Y-77470000D03*
X144780000Y-77470000D03*
D23*
X142240000Y-77470000D03*
X152400000Y-77470000D03*
D24*
X154940000Y-77470000D03*
X157480000Y-77470000D03*
X167640000Y-77470000D03*
X165100000Y-77470000D03*
D23*
X162560000Y-77470000D03*
X142240000Y-86360000D03*
D24*
X144780000Y-86360000D03*
X147320000Y-86360000D03*
D23*
X152400000Y-86360000D03*
D24*
X154940000Y-86360000D03*
X157480000Y-86360000D03*
X167640000Y-86360000D03*
X165100000Y-86360000D03*
D23*
X162560000Y-86360000D03*
X142240000Y-95250000D03*
D24*
X144780000Y-95250000D03*
X147320000Y-95250000D03*
X157480000Y-95250000D03*
X154940000Y-95250000D03*
D23*
X152400000Y-95250000D03*
X162560000Y-95250000D03*
D24*
X165100000Y-95250000D03*
X167640000Y-95250000D03*
X147320000Y-104140000D03*
X144780000Y-104140000D03*
D23*
X142240000Y-104140000D03*
X152400000Y-104140000D03*
D24*
X154940000Y-104140000D03*
X157480000Y-104140000D03*
X167640000Y-104140000D03*
X165100000Y-104140000D03*
D23*
X162560000Y-104140000D03*
D17*
X72945001Y-105410000D03*
D16*
X72945001Y-102870000D03*
X75485001Y-105410000D03*
X75485001Y-102870000D03*
X78025001Y-105410000D03*
X78025001Y-102870000D03*
X80565001Y-105410000D03*
X80565001Y-102870000D03*
X83105001Y-105410000D03*
X83105001Y-102870000D03*
X85645001Y-105410000D03*
X85645001Y-102870000D03*
X88185001Y-105410000D03*
X88185001Y-102870000D03*
X90725001Y-105410000D03*
X90725001Y-102870000D03*
X93265001Y-105410000D03*
X93265001Y-102870000D03*
X95805001Y-105410000D03*
X95805001Y-102870000D03*
X95805001Y-85725000D03*
X95805001Y-88265000D03*
X93265001Y-85725000D03*
X93265001Y-88265000D03*
X90725001Y-85725000D03*
X90725001Y-88265000D03*
X88185001Y-85725000D03*
X88185001Y-88265000D03*
X85645001Y-85725000D03*
X85645001Y-88265000D03*
X83105001Y-85725000D03*
X83105001Y-88265000D03*
X80565001Y-85725000D03*
X80565001Y-88265000D03*
X78025001Y-85725000D03*
X78025001Y-88265000D03*
X75485001Y-85725000D03*
X75485001Y-88265000D03*
X72945001Y-85725000D03*
D17*
X72945001Y-88265000D03*
X72945001Y-71120000D03*
D16*
X72945001Y-68580000D03*
X75485001Y-71120000D03*
X75485001Y-68580000D03*
X78025001Y-71120000D03*
X78025001Y-68580000D03*
X80565001Y-71120000D03*
X80565001Y-68580000D03*
X83105001Y-71120000D03*
X83105001Y-68580000D03*
X85645001Y-71120000D03*
X85645001Y-68580000D03*
X88185001Y-71120000D03*
X88185001Y-68580000D03*
X90725001Y-71120000D03*
X90725001Y-68580000D03*
X93265001Y-71120000D03*
X93265001Y-68580000D03*
X95805001Y-71120000D03*
X95805001Y-68580000D03*
D25*
X133350000Y-74930000D03*
X132004846Y-97865154D03*
X122174000Y-99314000D03*
X131069358Y-77083642D03*
X110662720Y-69001640D03*
X70612000Y-106934000D03*
X131064000Y-105664000D03*
X133604000Y-106680000D03*
X106426000Y-75438000D03*
X102977144Y-67376159D03*
X131064000Y-84074000D03*
X137414000Y-84074000D03*
X99314000Y-99314000D03*
X101854000Y-96139000D03*
X108204000Y-109982000D03*
X108204000Y-113030000D03*
X94996000Y-111506000D03*
X93472000Y-110490000D03*
X101600000Y-105904200D03*
X90932000Y-108966000D03*
X80264000Y-107950000D03*
X90424000Y-107696000D03*
X83058000Y-107950000D03*
X116332000Y-101600000D03*
X108204000Y-97409000D03*
X95504000Y-97409000D03*
X88519000Y-97409000D03*
X107950000Y-73914000D03*
X96774000Y-73152000D03*
X89662000Y-73152000D03*
X107950000Y-75438000D03*
X96774000Y-74422000D03*
X92202000Y-74676000D03*
X85979000Y-100584000D03*
X83439000Y-100584000D03*
X109474000Y-75692000D03*
X87249000Y-76454000D03*
X92964000Y-77724000D03*
X97896680Y-86111080D03*
X96707960Y-83769200D03*
X71369347Y-108716653D03*
D26*
X119118600Y-111709200D02*
X119380000Y-111709200D01*
X117479980Y-98966872D02*
X117479980Y-110070580D01*
X117479980Y-110070580D02*
X119118600Y-111709200D01*
X118626262Y-97820590D02*
X117479980Y-98966872D01*
X132110590Y-97820590D02*
X118626262Y-97820590D01*
X135890000Y-101600000D02*
X132110590Y-97820590D01*
X135890000Y-74930000D02*
X133350000Y-74930000D01*
X132713590Y-104140000D02*
X135890000Y-104140000D01*
X131298591Y-102725001D02*
X132713590Y-104140000D01*
X125585001Y-102725001D02*
X131298591Y-102725001D01*
X122174000Y-99314000D02*
X125585001Y-102725001D01*
X135503642Y-77083642D02*
X135890000Y-77470000D01*
X131069358Y-77083642D02*
X135503642Y-77083642D01*
X136689999Y-69050001D02*
X135890000Y-69850000D01*
X138500001Y-67239999D02*
X136689999Y-69050001D01*
X143589999Y-67239999D02*
X138500001Y-67239999D01*
X144780000Y-68430000D02*
X143589999Y-67239999D01*
X144780000Y-68580000D02*
X144780000Y-68430000D01*
X136689999Y-66510001D02*
X135890000Y-67310000D01*
X153020001Y-66510001D02*
X136689999Y-66510001D01*
X154940000Y-68580000D02*
X154940000Y-68430000D01*
X154940000Y-68430000D02*
X153020001Y-66510001D01*
X137021370Y-64770000D02*
X135890000Y-64770000D01*
X161440000Y-64770000D02*
X137021370Y-64770000D01*
X165100000Y-68430000D02*
X161440000Y-64770000D01*
X165100000Y-68580000D02*
X165100000Y-68430000D01*
X115141670Y-63398400D02*
X118005000Y-63398400D01*
X118005000Y-63398400D02*
X119380000Y-63398400D01*
X111851399Y-67812961D02*
X111851399Y-66688671D01*
X111851399Y-66688671D02*
X115141670Y-63398400D01*
X110662720Y-69001640D02*
X111851399Y-67812961D01*
X113903760Y-97246440D02*
X110637320Y-100512880D01*
X113903760Y-96067880D02*
X113903760Y-97246440D01*
X110637320Y-100512880D02*
X110637320Y-102844600D01*
X147320000Y-86510000D02*
X147320000Y-86360000D01*
X135890000Y-88900000D02*
X144930000Y-88900000D01*
X144930000Y-88900000D02*
X147320000Y-86510000D01*
X113629440Y-105836720D02*
X110637320Y-102844600D01*
X113629440Y-109296200D02*
X113629440Y-105836720D01*
X68072000Y-104394000D02*
X67564000Y-104394000D01*
X70612000Y-106934000D02*
X68072000Y-104394000D01*
X137021370Y-72390000D02*
X135890000Y-72390000D01*
X139850000Y-72390000D02*
X137021370Y-72390000D01*
X144780000Y-77320000D02*
X139850000Y-72390000D01*
X144780000Y-77470000D02*
X144780000Y-77320000D01*
X129320000Y-62230000D02*
X128270000Y-62230000D01*
X129395001Y-62305001D02*
X129320000Y-62230000D01*
X129395001Y-65020003D02*
X129395001Y-62305001D01*
X135639997Y-71264999D02*
X129395001Y-65020003D01*
X148884999Y-71264999D02*
X135639997Y-71264999D01*
X154940000Y-77320000D02*
X148884999Y-71264999D01*
X154940000Y-77470000D02*
X154940000Y-77320000D01*
X129684999Y-73804999D02*
X128270000Y-72390000D01*
X136430001Y-73804999D02*
X129684999Y-73804999D01*
X163909999Y-78810001D02*
X141114999Y-78810001D01*
X165100000Y-77470000D02*
X165100000Y-77620000D01*
X165100000Y-77620000D02*
X163909999Y-78810001D01*
X141114999Y-78810001D02*
X137015001Y-74710003D01*
X137015001Y-74710003D02*
X137015001Y-74389999D01*
X137015001Y-74389999D02*
X136430001Y-73804999D01*
X129069999Y-65569999D02*
X128270000Y-64770000D01*
X128633001Y-68724999D02*
X129794000Y-67564000D01*
X127491411Y-68724999D02*
X128633001Y-68724999D01*
X129794000Y-66294000D02*
X129069999Y-65569999D01*
X125984000Y-70232410D02*
X127491411Y-68724999D01*
X125984000Y-75184000D02*
X125984000Y-70232410D01*
X126926997Y-76126997D02*
X125984000Y-75184000D01*
X129087407Y-76126997D02*
X126926997Y-76126997D01*
X131845409Y-78884999D02*
X129087407Y-76126997D01*
X129794000Y-67564000D02*
X129794000Y-66294000D01*
X137454999Y-78884999D02*
X131845409Y-78884999D01*
X144780000Y-86210000D02*
X137454999Y-78884999D01*
X144780000Y-86360000D02*
X144780000Y-86210000D01*
X127144999Y-70975001D02*
X127470001Y-70649999D01*
X127733996Y-73518998D02*
X127144999Y-72930001D01*
X127470001Y-70649999D02*
X128270000Y-69850000D01*
X128524000Y-73518998D02*
X127733996Y-73518998D01*
X131350001Y-76344999D02*
X128524000Y-73518998D01*
X136430001Y-76344999D02*
X131350001Y-76344999D01*
X139345013Y-79260011D02*
X136430001Y-76344999D01*
X147990011Y-79260011D02*
X139345013Y-79260011D01*
X127144999Y-72930001D02*
X127144999Y-70975001D01*
X154940000Y-86210000D02*
X147990011Y-79260011D01*
X154940000Y-86360000D02*
X154940000Y-86210000D01*
X137021370Y-91440000D02*
X135890000Y-91440000D01*
X160170000Y-91440000D02*
X137021370Y-91440000D01*
X165100000Y-86510000D02*
X160170000Y-91440000D01*
X165100000Y-86360000D02*
X165100000Y-86510000D01*
X142860001Y-93180001D02*
X136689999Y-93180001D01*
X136689999Y-93180001D02*
X135890000Y-93980000D01*
X144780000Y-95250000D02*
X144780000Y-95100000D01*
X144780000Y-95100000D02*
X142860001Y-93180001D01*
X136689999Y-97319999D02*
X135890000Y-96520000D01*
X153020001Y-97319999D02*
X136689999Y-97319999D01*
X154940000Y-95400000D02*
X153020001Y-97319999D01*
X154940000Y-95250000D02*
X154940000Y-95400000D01*
X137021370Y-99060000D02*
X135890000Y-99060000D01*
X162555000Y-99060000D02*
X137021370Y-99060000D01*
X165100000Y-96515000D02*
X162555000Y-99060000D01*
X165100000Y-95250000D02*
X165100000Y-96515000D01*
X132729847Y-92309847D02*
X129320000Y-88900000D01*
X129320000Y-88900000D02*
X128270000Y-88900000D01*
X132729847Y-97803437D02*
X132729847Y-92309847D01*
X135111411Y-100185001D02*
X132729847Y-97803437D01*
X140975001Y-100185001D02*
X135111411Y-100185001D01*
X144780000Y-103990000D02*
X140975001Y-100185001D01*
X144780000Y-104140000D02*
X144780000Y-103990000D01*
X129069999Y-99859999D02*
X128270000Y-99060000D01*
X132224999Y-103014999D02*
X129069999Y-99859999D01*
X136430001Y-103014999D02*
X132224999Y-103014999D01*
X154864999Y-105480001D02*
X138895003Y-105480001D01*
X138895003Y-105480001D02*
X136430001Y-103014999D01*
X154940000Y-105405000D02*
X154864999Y-105480001D01*
X154940000Y-104140000D02*
X154940000Y-105405000D01*
X165100000Y-104290000D02*
X163459990Y-105930010D01*
X165100000Y-104140000D02*
X165100000Y-104290000D01*
X131173001Y-105554999D02*
X131064000Y-105664000D01*
X163459990Y-105930010D02*
X136805012Y-105930010D01*
X136805012Y-105930010D02*
X136430001Y-105554999D01*
X136430001Y-105554999D02*
X131173001Y-105554999D01*
X104401400Y-76149200D02*
X104140000Y-76149200D01*
X125699410Y-69880590D02*
X110670010Y-69880590D01*
X110670010Y-69880590D02*
X104401400Y-76149200D01*
X128270000Y-67310000D02*
X125699410Y-69880590D01*
X121829201Y-105554999D02*
X120755000Y-106629200D01*
X128810001Y-105554999D02*
X121829201Y-105554999D01*
X129935002Y-106680000D02*
X128810001Y-105554999D01*
X120755000Y-106629200D02*
X119380000Y-106629200D01*
X135890000Y-106680000D02*
X129935002Y-106680000D01*
X118648590Y-87660590D02*
X106426000Y-75438000D01*
X128270000Y-93980000D02*
X121950590Y-87660590D01*
X121950590Y-87660590D02*
X118648590Y-87660590D01*
X96655000Y-102020001D02*
X95805001Y-102870000D01*
X98314411Y-100360590D02*
X96655000Y-102020001D01*
X104893738Y-100360590D02*
X98314411Y-100360590D01*
X105590010Y-102041538D02*
X105590010Y-101056862D01*
X104893738Y-102737810D02*
X105590010Y-102041538D01*
X105590010Y-101056862D02*
X104893738Y-100360590D01*
X103386262Y-102737810D02*
X104893738Y-102737810D01*
X102325001Y-103799071D02*
X103386262Y-102737810D01*
X102765000Y-109169200D02*
X102325001Y-108729201D01*
X102325001Y-108729201D02*
X102325001Y-103799071D01*
X104140000Y-109169200D02*
X102765000Y-109169200D01*
X103175493Y-67177810D02*
X102977144Y-67376159D01*
X104893738Y-67177810D02*
X103175493Y-67177810D01*
X119641400Y-65989200D02*
X120830010Y-64800590D01*
X119380000Y-65989200D02*
X119641400Y-65989200D01*
X120830010Y-64800590D02*
X120830010Y-62906062D01*
X120830010Y-62906062D02*
X120133738Y-62209790D01*
X120133738Y-62209790D02*
X109861758Y-62209790D01*
X109861758Y-62209790D02*
X104893738Y-67177810D01*
D27*
X128270000Y-81280000D02*
X131064000Y-84074000D01*
X128270000Y-80010000D02*
X128270000Y-81280000D01*
X131064000Y-84074000D02*
X137414000Y-84074000D01*
D28*
X99314000Y-98679000D02*
X101854000Y-96139000D01*
X99314000Y-99314000D02*
X99314000Y-98679000D01*
X108204000Y-109982000D02*
X108204000Y-113030000D01*
D26*
X72095002Y-84875001D02*
X72945001Y-85725000D01*
X71770000Y-84549999D02*
X72095002Y-84875001D01*
X71770000Y-69755001D02*
X71770000Y-84549999D01*
X72945001Y-68580000D02*
X71770000Y-69755001D01*
X72095002Y-102020001D02*
X72945001Y-102870000D01*
X71374000Y-87296001D02*
X71374000Y-101298999D01*
X71374000Y-101298999D02*
X72095002Y-102020001D01*
X72945001Y-85725000D02*
X71374000Y-87296001D01*
X96387810Y-112897810D02*
X94996000Y-111506000D01*
X104893738Y-112897810D02*
X96387810Y-112897810D01*
X106490029Y-96279229D02*
X106490029Y-111301519D01*
X106490029Y-111301519D02*
X104893738Y-112897810D01*
X104140000Y-93929200D02*
X106490029Y-96279229D01*
X74635002Y-84875001D02*
X75485001Y-85725000D01*
X74310000Y-69755001D02*
X74310000Y-84549999D01*
X74310000Y-84549999D02*
X74635002Y-84875001D01*
X75485001Y-68580000D02*
X74310000Y-69755001D01*
X74635002Y-102020001D02*
X75485001Y-102870000D01*
X74310000Y-101694999D02*
X74635002Y-102020001D01*
X74310000Y-86900001D02*
X74310000Y-101694999D01*
X75485001Y-85725000D02*
X74310000Y-86900001D01*
X104761548Y-110490000D02*
X93472000Y-110490000D01*
X106040020Y-109211528D02*
X104761548Y-110490000D01*
X106040020Y-98369220D02*
X106040020Y-109211528D01*
X104140000Y-96469200D02*
X106040020Y-98369220D01*
X76850000Y-84549999D02*
X77175002Y-84875001D01*
X77175002Y-84875001D02*
X78025001Y-85725000D01*
X76850000Y-69755001D02*
X76850000Y-84549999D01*
X78025001Y-68580000D02*
X76850000Y-69755001D01*
X77175002Y-102020001D02*
X78025001Y-102870000D01*
X76660002Y-101505001D02*
X77175002Y-102020001D01*
X76660002Y-87089999D02*
X76660002Y-101505001D01*
X78025001Y-85725000D02*
X76660002Y-87089999D01*
X101600000Y-105904200D02*
X98538200Y-108966000D01*
X98538200Y-108966000D02*
X90932000Y-108966000D01*
X80264000Y-105711001D02*
X80565001Y-105410000D01*
X80264000Y-107950000D02*
X80264000Y-105711001D01*
X79715002Y-84875001D02*
X80565001Y-85725000D01*
X79390000Y-84549999D02*
X79715002Y-84875001D01*
X79390000Y-69755001D02*
X79390000Y-84549999D01*
X80565001Y-68580000D02*
X79390000Y-69755001D01*
X79715002Y-102020001D02*
X80565001Y-102870000D01*
X79390000Y-101694999D02*
X79715002Y-102020001D01*
X79390000Y-86900001D02*
X79390000Y-101694999D01*
X80565001Y-85725000D02*
X79390000Y-86900001D01*
X103878600Y-101549200D02*
X97790000Y-107637800D01*
X104140000Y-101549200D02*
X103878600Y-101549200D01*
X97790000Y-107637800D02*
X90482200Y-107637800D01*
X90482200Y-107637800D02*
X90424000Y-107696000D01*
X83058000Y-105457001D02*
X83105001Y-105410000D01*
X83058000Y-107950000D02*
X83058000Y-105457001D01*
X82255002Y-84875001D02*
X83105001Y-85725000D01*
X81740002Y-84360001D02*
X82255002Y-84875001D01*
X81740002Y-69944999D02*
X81740002Y-84360001D01*
X83105001Y-68580000D02*
X81740002Y-69944999D01*
X81930000Y-101694999D02*
X82255002Y-102020001D01*
X82255002Y-102020001D02*
X83105001Y-102870000D01*
X81930000Y-86900001D02*
X81930000Y-101694999D01*
X83105001Y-85725000D02*
X81930000Y-86900001D01*
X103878600Y-71069200D02*
X101854000Y-69044600D01*
X104140000Y-71069200D02*
X103878600Y-71069200D01*
X101854000Y-69044600D02*
X101854000Y-66040000D01*
X88985999Y-66040000D02*
X86820002Y-68205997D01*
X86495000Y-70270001D02*
X85645001Y-71120000D01*
X86820002Y-69944999D02*
X86495000Y-70270001D01*
X86820002Y-68205997D02*
X86820002Y-69944999D01*
X101854000Y-66040000D02*
X88985999Y-66040000D01*
X84795002Y-84875001D02*
X85645001Y-85725000D01*
X84470000Y-84549999D02*
X84795002Y-84875001D01*
X84470000Y-69755001D02*
X84470000Y-84549999D01*
X85645001Y-68580000D02*
X84470000Y-69755001D01*
X84470000Y-101694999D02*
X84795002Y-102020001D01*
X84795002Y-102020001D02*
X85645001Y-102870000D01*
X84470000Y-86900001D02*
X84470000Y-101694999D01*
X85645001Y-85725000D02*
X84470000Y-86900001D01*
X116332000Y-101600000D02*
X116332000Y-114808000D01*
X86495000Y-103719999D02*
X85645001Y-102870000D01*
X95654001Y-114808000D02*
X86820002Y-105974001D01*
X86820002Y-104045001D02*
X86495000Y-103719999D01*
X86820002Y-105974001D02*
X86820002Y-104045001D01*
X116332000Y-114808000D02*
X95654001Y-114808000D01*
X111762321Y-93850679D02*
X108204000Y-97409000D01*
X111762321Y-84936521D02*
X111762321Y-93850679D01*
X105515000Y-78689200D02*
X111762321Y-84936521D01*
X104140000Y-78689200D02*
X105515000Y-78689200D01*
X95504000Y-97409000D02*
X88519000Y-97409000D01*
X119380000Y-71069200D02*
X110794800Y-71069200D01*
X110794800Y-71069200D02*
X107950000Y-73914000D01*
X96774000Y-73152000D02*
X89662000Y-73152000D01*
X91900002Y-104045001D02*
X90725001Y-102870000D01*
X93829002Y-104045001D02*
X91900002Y-104045001D01*
X94440002Y-103434001D02*
X93829002Y-104045001D01*
X94440002Y-101686850D02*
X94440002Y-103434001D01*
X103386262Y-92740590D02*
X94440002Y-101686850D01*
X104893738Y-92740590D02*
X103386262Y-92740590D01*
X105046028Y-92892880D02*
X104893738Y-92740590D01*
X110637320Y-92892880D02*
X105046028Y-92892880D01*
X119380000Y-73609200D02*
X109778800Y-73609200D01*
X109778800Y-73609200D02*
X107950000Y-75438000D01*
X96774000Y-74422000D02*
X92456000Y-74422000D01*
X92456000Y-74422000D02*
X92202000Y-74676000D01*
X90979001Y-100584000D02*
X85979000Y-100584000D01*
X93265001Y-102870000D02*
X90979001Y-100584000D01*
X72945001Y-100966410D02*
X72945001Y-88265000D01*
X74310000Y-102331409D02*
X72945001Y-100966410D01*
X81129002Y-104045001D02*
X74921000Y-104045001D01*
X81930000Y-103434001D02*
X81930000Y-103244003D01*
X81930000Y-103244003D02*
X81129002Y-104045001D01*
X82541000Y-104045001D02*
X81930000Y-103434001D01*
X83669002Y-104045001D02*
X82541000Y-104045001D01*
X74310000Y-103434001D02*
X74310000Y-102331409D01*
X84280002Y-103434001D02*
X83669002Y-104045001D01*
X74921000Y-104045001D02*
X74310000Y-103434001D01*
X84280002Y-102305999D02*
X84280002Y-103434001D01*
X83439000Y-101464997D02*
X84280002Y-102305999D01*
X83439000Y-100584000D02*
X83439000Y-101464997D01*
X119380000Y-76149200D02*
X109931200Y-76149200D01*
X109931200Y-76149200D02*
X109474000Y-75692000D01*
X88519000Y-77724000D02*
X92964000Y-77724000D01*
X87249000Y-76454000D02*
X88519000Y-77724000D01*
X90725001Y-85725000D02*
X91900002Y-86900001D01*
X97107759Y-86900001D02*
X97896680Y-86111080D01*
X91900002Y-86900001D02*
X97107759Y-86900001D01*
X90140801Y-83769200D02*
X88185001Y-85725000D01*
X96707960Y-83769200D02*
X90140801Y-83769200D01*
X90274991Y-66490010D02*
X100526010Y-66490010D01*
X88185001Y-68580000D02*
X90274991Y-66490010D01*
X103878600Y-88849200D02*
X104140000Y-88849200D01*
X100526010Y-85496610D02*
X103878600Y-88849200D01*
X100526010Y-66490010D02*
X100526010Y-85496610D01*
X107061000Y-88849200D02*
X104140000Y-88849200D01*
X110525560Y-85384640D02*
X107061000Y-88849200D01*
X91900002Y-67404999D02*
X99219001Y-67404999D01*
X90725001Y-68580000D02*
X91900002Y-67404999D01*
X103878600Y-91389200D02*
X104140000Y-91389200D01*
X99219001Y-86729601D02*
X103878600Y-91389200D01*
X99219001Y-67404999D02*
X99219001Y-86729601D01*
D28*
X65278000Y-67818000D02*
X70358000Y-62738000D01*
X61929000Y-68152000D02*
X61595000Y-67818000D01*
X61929000Y-68199000D02*
X61929000Y-68152000D01*
X61595000Y-67818000D02*
X65278000Y-67818000D01*
X57658000Y-67818000D02*
X61595000Y-67818000D01*
D26*
X67875002Y-103124000D02*
X67564000Y-103124000D01*
X71369347Y-106618345D02*
X67875002Y-103124000D01*
X71369347Y-108716653D02*
X71369347Y-106618345D01*
M02*
