G04 #@! TF.GenerationSoftware,KiCad,Pcbnew,5.1.6+dfsg1-1*
G04 #@! TF.CreationDate,2021-04-10T12:13:44+02:00*
G04 #@! TF.ProjectId,xfaders,78666164-6572-4732-9e6b-696361645f70,rev?*
G04 #@! TF.SameCoordinates,Original*
G04 #@! TF.FileFunction,Soldermask,Bot*
G04 #@! TF.FilePolarity,Negative*
%FSLAX46Y46*%
G04 Gerber Fmt 4.6, Leading zero omitted, Abs format (unit mm)*
G04 Created by KiCad (PCBNEW 5.1.6+dfsg1-1) date 2021-04-10 12:13:44*
%MOMM*%
%LPD*%
G01*
G04 APERTURE LIST*
%ADD10C,0.100000*%
G04 APERTURE END LIST*
D10*
G36*
X165923085Y-110137975D02*
G01*
X166278143Y-110285045D01*
X166278145Y-110285046D01*
X166597690Y-110498559D01*
X166869441Y-110770310D01*
X167027646Y-111007081D01*
X167082955Y-111089857D01*
X167230025Y-111444915D01*
X167305000Y-111821842D01*
X167305000Y-112206158D01*
X167230025Y-112583085D01*
X167213160Y-112623800D01*
X167082954Y-112938145D01*
X166869441Y-113257690D01*
X166597690Y-113529441D01*
X166278145Y-113742954D01*
X166278144Y-113742955D01*
X166278143Y-113742955D01*
X165923085Y-113890025D01*
X165546158Y-113965000D01*
X165161842Y-113965000D01*
X164784915Y-113890025D01*
X164429857Y-113742955D01*
X164429856Y-113742955D01*
X164429855Y-113742954D01*
X164110310Y-113529441D01*
X163838559Y-113257690D01*
X163625046Y-112938145D01*
X163494840Y-112623800D01*
X163477975Y-112583085D01*
X163403000Y-112206158D01*
X163403000Y-111821842D01*
X163477975Y-111444915D01*
X163625045Y-111089857D01*
X163680354Y-111007081D01*
X163838559Y-110770310D01*
X164110310Y-110498559D01*
X164429855Y-110285046D01*
X164429857Y-110285045D01*
X164784915Y-110137975D01*
X165161842Y-110063000D01*
X165546158Y-110063000D01*
X165923085Y-110137975D01*
G37*
G36*
X59243085Y-110137975D02*
G01*
X59598143Y-110285045D01*
X59598145Y-110285046D01*
X59917690Y-110498559D01*
X60189441Y-110770310D01*
X60347646Y-111007081D01*
X60402955Y-111089857D01*
X60550025Y-111444915D01*
X60625000Y-111821842D01*
X60625000Y-112206158D01*
X60550025Y-112583085D01*
X60533160Y-112623800D01*
X60402954Y-112938145D01*
X60189441Y-113257690D01*
X59917690Y-113529441D01*
X59598145Y-113742954D01*
X59598144Y-113742955D01*
X59598143Y-113742955D01*
X59243085Y-113890025D01*
X58866158Y-113965000D01*
X58481842Y-113965000D01*
X58104915Y-113890025D01*
X57749857Y-113742955D01*
X57749856Y-113742955D01*
X57749855Y-113742954D01*
X57430310Y-113529441D01*
X57158559Y-113257690D01*
X56945046Y-112938145D01*
X56814840Y-112623800D01*
X56797975Y-112583085D01*
X56723000Y-112206158D01*
X56723000Y-111821842D01*
X56797975Y-111444915D01*
X56945045Y-111089857D01*
X57000354Y-111007081D01*
X57158559Y-110770310D01*
X57430310Y-110498559D01*
X57749855Y-110285046D01*
X57749857Y-110285045D01*
X58104915Y-110137975D01*
X58481842Y-110063000D01*
X58866158Y-110063000D01*
X59243085Y-110137975D01*
G37*
G36*
X119820694Y-110807833D02*
G01*
X119993095Y-110860131D01*
X120151983Y-110945058D01*
X120291249Y-111059351D01*
X120405542Y-111198617D01*
X120490469Y-111357505D01*
X120542767Y-111529906D01*
X120560425Y-111709200D01*
X120542767Y-111888494D01*
X120490469Y-112060895D01*
X120405542Y-112219783D01*
X120291249Y-112359049D01*
X120151983Y-112473342D01*
X119993095Y-112558269D01*
X119820694Y-112610567D01*
X119686331Y-112623800D01*
X119073669Y-112623800D01*
X118939306Y-112610567D01*
X118766905Y-112558269D01*
X118608017Y-112473342D01*
X118468751Y-112359049D01*
X118354458Y-112219783D01*
X118269531Y-112060895D01*
X118217233Y-111888494D01*
X118199575Y-111709200D01*
X118217233Y-111529906D01*
X118269531Y-111357505D01*
X118354458Y-111198617D01*
X118468751Y-111059351D01*
X118608017Y-110945058D01*
X118766905Y-110860131D01*
X118939306Y-110807833D01*
X119073669Y-110794600D01*
X119686331Y-110794600D01*
X119820694Y-110807833D01*
G37*
G36*
X104580694Y-110807833D02*
G01*
X104753095Y-110860131D01*
X104911983Y-110945058D01*
X105051249Y-111059351D01*
X105165542Y-111198617D01*
X105250469Y-111357505D01*
X105302767Y-111529906D01*
X105320425Y-111709200D01*
X105302767Y-111888494D01*
X105250469Y-112060895D01*
X105165542Y-112219783D01*
X105051249Y-112359049D01*
X104911983Y-112473342D01*
X104753095Y-112558269D01*
X104580694Y-112610567D01*
X104446331Y-112623800D01*
X103833669Y-112623800D01*
X103699306Y-112610567D01*
X103526905Y-112558269D01*
X103368017Y-112473342D01*
X103228751Y-112359049D01*
X103114458Y-112219783D01*
X103029531Y-112060895D01*
X102977233Y-111888494D01*
X102959575Y-111709200D01*
X102977233Y-111529906D01*
X103029531Y-111357505D01*
X103114458Y-111198617D01*
X103228751Y-111059351D01*
X103368017Y-110945058D01*
X103526905Y-110860131D01*
X103699306Y-110807833D01*
X103833669Y-110794600D01*
X104446331Y-110794600D01*
X104580694Y-110807833D01*
G37*
G36*
X110885548Y-109646303D02*
G01*
X111040420Y-109710453D01*
X111179801Y-109803585D01*
X111298335Y-109922119D01*
X111391467Y-110061500D01*
X111455617Y-110216372D01*
X111488320Y-110380784D01*
X111488320Y-110548416D01*
X111455617Y-110712828D01*
X111391467Y-110867700D01*
X111298335Y-111007081D01*
X111179801Y-111125615D01*
X111040420Y-111218747D01*
X110885548Y-111282897D01*
X110721136Y-111315600D01*
X110553504Y-111315600D01*
X110389092Y-111282897D01*
X110234220Y-111218747D01*
X110094839Y-111125615D01*
X109976305Y-111007081D01*
X109883173Y-110867700D01*
X109819023Y-110712828D01*
X109786320Y-110548416D01*
X109786320Y-110380784D01*
X109819023Y-110216372D01*
X109883173Y-110061500D01*
X109976305Y-109922119D01*
X110094839Y-109803585D01*
X110234220Y-109710453D01*
X110389092Y-109646303D01*
X110553504Y-109613600D01*
X110721136Y-109613600D01*
X110885548Y-109646303D01*
G37*
G36*
X113877668Y-108477903D02*
G01*
X114032540Y-108542053D01*
X114171921Y-108635185D01*
X114290455Y-108753719D01*
X114383587Y-108893100D01*
X114447737Y-109047972D01*
X114480440Y-109212384D01*
X114480440Y-109380016D01*
X114447737Y-109544428D01*
X114383587Y-109699300D01*
X114290455Y-109838681D01*
X114171921Y-109957215D01*
X114032540Y-110050347D01*
X113877668Y-110114497D01*
X113713256Y-110147200D01*
X113545624Y-110147200D01*
X113381212Y-110114497D01*
X113226340Y-110050347D01*
X113086959Y-109957215D01*
X112968425Y-109838681D01*
X112875293Y-109699300D01*
X112811143Y-109544428D01*
X112778440Y-109380016D01*
X112778440Y-109212384D01*
X112811143Y-109047972D01*
X112875293Y-108893100D01*
X112968425Y-108753719D01*
X113086959Y-108635185D01*
X113226340Y-108542053D01*
X113381212Y-108477903D01*
X113545624Y-108445200D01*
X113713256Y-108445200D01*
X113877668Y-108477903D01*
G37*
G36*
X104580694Y-108267833D02*
G01*
X104753095Y-108320131D01*
X104911983Y-108405058D01*
X105051249Y-108519351D01*
X105165542Y-108658617D01*
X105250469Y-108817505D01*
X105302767Y-108989906D01*
X105320425Y-109169200D01*
X105302767Y-109348494D01*
X105250469Y-109520895D01*
X105165542Y-109679783D01*
X105051249Y-109819049D01*
X104911983Y-109933342D01*
X104753095Y-110018269D01*
X104580694Y-110070567D01*
X104446331Y-110083800D01*
X103833669Y-110083800D01*
X103699306Y-110070567D01*
X103526905Y-110018269D01*
X103368017Y-109933342D01*
X103228751Y-109819049D01*
X103114458Y-109679783D01*
X103029531Y-109520895D01*
X102977233Y-109348494D01*
X102959575Y-109169200D01*
X102977233Y-108989906D01*
X103029531Y-108817505D01*
X103114458Y-108658617D01*
X103228751Y-108519351D01*
X103368017Y-108405058D01*
X103526905Y-108320131D01*
X103699306Y-108267833D01*
X103833669Y-108254600D01*
X104446331Y-108254600D01*
X104580694Y-108267833D01*
G37*
G36*
X119820694Y-108267833D02*
G01*
X119993095Y-108320131D01*
X120151983Y-108405058D01*
X120291249Y-108519351D01*
X120405542Y-108658617D01*
X120490469Y-108817505D01*
X120542767Y-108989906D01*
X120560425Y-109169200D01*
X120542767Y-109348494D01*
X120490469Y-109520895D01*
X120405542Y-109679783D01*
X120291249Y-109819049D01*
X120151983Y-109933342D01*
X119993095Y-110018269D01*
X119820694Y-110070567D01*
X119686331Y-110083800D01*
X119073669Y-110083800D01*
X118939306Y-110070567D01*
X118766905Y-110018269D01*
X118608017Y-109933342D01*
X118468751Y-109819049D01*
X118354458Y-109679783D01*
X118269531Y-109520895D01*
X118217233Y-109348494D01*
X118199575Y-109169200D01*
X118217233Y-108989906D01*
X118269531Y-108817505D01*
X118354458Y-108658617D01*
X118468751Y-108519351D01*
X118608017Y-108405058D01*
X118766905Y-108320131D01*
X118939306Y-108267833D01*
X119073669Y-108254600D01*
X119686331Y-108254600D01*
X119820694Y-108267833D01*
G37*
G36*
X61462228Y-107385703D02*
G01*
X61617100Y-107449853D01*
X61756481Y-107542985D01*
X61875015Y-107661519D01*
X61968147Y-107800900D01*
X62032297Y-107955772D01*
X62065000Y-108120184D01*
X62065000Y-108287816D01*
X62032297Y-108452228D01*
X61968147Y-108607100D01*
X61875015Y-108746481D01*
X61756481Y-108865015D01*
X61617100Y-108958147D01*
X61462228Y-109022297D01*
X61297816Y-109055000D01*
X61130184Y-109055000D01*
X60965772Y-109022297D01*
X60810900Y-108958147D01*
X60671519Y-108865015D01*
X60552985Y-108746481D01*
X60459853Y-108607100D01*
X60395703Y-108452228D01*
X60363000Y-108287816D01*
X60363000Y-108120184D01*
X60395703Y-107955772D01*
X60459853Y-107800900D01*
X60552985Y-107661519D01*
X60671519Y-107542985D01*
X60810900Y-107449853D01*
X60965772Y-107385703D01*
X61130184Y-107353000D01*
X61297816Y-107353000D01*
X61462228Y-107385703D01*
G37*
G36*
X64002228Y-107385703D02*
G01*
X64157100Y-107449853D01*
X64296481Y-107542985D01*
X64415015Y-107661519D01*
X64508147Y-107800900D01*
X64572297Y-107955772D01*
X64605000Y-108120184D01*
X64605000Y-108287816D01*
X64572297Y-108452228D01*
X64508147Y-108607100D01*
X64415015Y-108746481D01*
X64296481Y-108865015D01*
X64157100Y-108958147D01*
X64002228Y-109022297D01*
X63837816Y-109055000D01*
X63670184Y-109055000D01*
X63505772Y-109022297D01*
X63350900Y-108958147D01*
X63211519Y-108865015D01*
X63092985Y-108746481D01*
X62999853Y-108607100D01*
X62935703Y-108452228D01*
X62903000Y-108287816D01*
X62903000Y-108120184D01*
X62935703Y-107955772D01*
X62999853Y-107800900D01*
X63092985Y-107661519D01*
X63211519Y-107542985D01*
X63350900Y-107449853D01*
X63505772Y-107385703D01*
X63670184Y-107353000D01*
X63837816Y-107353000D01*
X64002228Y-107385703D01*
G37*
G36*
X119820694Y-105727833D02*
G01*
X119993095Y-105780131D01*
X120151983Y-105865058D01*
X120291249Y-105979351D01*
X120405542Y-106118617D01*
X120490469Y-106277505D01*
X120542767Y-106449906D01*
X120560425Y-106629200D01*
X120542767Y-106808494D01*
X120490469Y-106980895D01*
X120405542Y-107139783D01*
X120291249Y-107279049D01*
X120151983Y-107393342D01*
X119993095Y-107478269D01*
X119820694Y-107530567D01*
X119686331Y-107543800D01*
X119073669Y-107543800D01*
X118939306Y-107530567D01*
X118766905Y-107478269D01*
X118608017Y-107393342D01*
X118468751Y-107279049D01*
X118354458Y-107139783D01*
X118269531Y-106980895D01*
X118217233Y-106808494D01*
X118199575Y-106629200D01*
X118217233Y-106449906D01*
X118269531Y-106277505D01*
X118354458Y-106118617D01*
X118468751Y-105979351D01*
X118608017Y-105865058D01*
X118766905Y-105780131D01*
X118939306Y-105727833D01*
X119073669Y-105714600D01*
X119686331Y-105714600D01*
X119820694Y-105727833D01*
G37*
G36*
X104580694Y-105727833D02*
G01*
X104753095Y-105780131D01*
X104911983Y-105865058D01*
X105051249Y-105979351D01*
X105165542Y-106118617D01*
X105250469Y-106277505D01*
X105302767Y-106449906D01*
X105320425Y-106629200D01*
X105302767Y-106808494D01*
X105250469Y-106980895D01*
X105165542Y-107139783D01*
X105051249Y-107279049D01*
X104911983Y-107393342D01*
X104753095Y-107478269D01*
X104580694Y-107530567D01*
X104446331Y-107543800D01*
X103833669Y-107543800D01*
X103699306Y-107530567D01*
X103526905Y-107478269D01*
X103368017Y-107393342D01*
X103228751Y-107279049D01*
X103114458Y-107139783D01*
X103029531Y-106980895D01*
X102977233Y-106808494D01*
X102959575Y-106629200D01*
X102977233Y-106449906D01*
X103029531Y-106277505D01*
X103114458Y-106118617D01*
X103228751Y-105979351D01*
X103368017Y-105865058D01*
X103526905Y-105780131D01*
X103699306Y-105727833D01*
X103833669Y-105714600D01*
X104446331Y-105714600D01*
X104580694Y-105727833D01*
G37*
G36*
X128518228Y-105861703D02*
G01*
X128673100Y-105925853D01*
X128812481Y-106018985D01*
X128931015Y-106137519D01*
X129024147Y-106276900D01*
X129088297Y-106431772D01*
X129121000Y-106596184D01*
X129121000Y-106763816D01*
X129088297Y-106928228D01*
X129024147Y-107083100D01*
X128931015Y-107222481D01*
X128812481Y-107341015D01*
X128673100Y-107434147D01*
X128518228Y-107498297D01*
X128353816Y-107531000D01*
X128186184Y-107531000D01*
X128021772Y-107498297D01*
X127866900Y-107434147D01*
X127727519Y-107341015D01*
X127608985Y-107222481D01*
X127515853Y-107083100D01*
X127451703Y-106928228D01*
X127419000Y-106763816D01*
X127419000Y-106596184D01*
X127451703Y-106431772D01*
X127515853Y-106276900D01*
X127608985Y-106137519D01*
X127727519Y-106018985D01*
X127866900Y-105925853D01*
X128021772Y-105861703D01*
X128186184Y-105829000D01*
X128353816Y-105829000D01*
X128518228Y-105861703D01*
G37*
G36*
X136138228Y-105861703D02*
G01*
X136293100Y-105925853D01*
X136432481Y-106018985D01*
X136551015Y-106137519D01*
X136644147Y-106276900D01*
X136708297Y-106431772D01*
X136741000Y-106596184D01*
X136741000Y-106763816D01*
X136708297Y-106928228D01*
X136644147Y-107083100D01*
X136551015Y-107222481D01*
X136432481Y-107341015D01*
X136293100Y-107434147D01*
X136138228Y-107498297D01*
X135973816Y-107531000D01*
X135806184Y-107531000D01*
X135641772Y-107498297D01*
X135486900Y-107434147D01*
X135347519Y-107341015D01*
X135228985Y-107222481D01*
X135135853Y-107083100D01*
X135071703Y-106928228D01*
X135039000Y-106763816D01*
X135039000Y-106596184D01*
X135071703Y-106431772D01*
X135135853Y-106276900D01*
X135228985Y-106137519D01*
X135347519Y-106018985D01*
X135486900Y-105925853D01*
X135641772Y-105861703D01*
X135806184Y-105829000D01*
X135973816Y-105829000D01*
X136138228Y-105861703D01*
G37*
G36*
X95918513Y-104513927D02*
G01*
X96067813Y-104543624D01*
X96231785Y-104611544D01*
X96379355Y-104710147D01*
X96504854Y-104835646D01*
X96603457Y-104983216D01*
X96671377Y-105147188D01*
X96706001Y-105321259D01*
X96706001Y-105498741D01*
X96671377Y-105672812D01*
X96603457Y-105836784D01*
X96504854Y-105984354D01*
X96379355Y-106109853D01*
X96231785Y-106208456D01*
X96067813Y-106276376D01*
X95918513Y-106306073D01*
X95893743Y-106311000D01*
X95716259Y-106311000D01*
X95691489Y-106306073D01*
X95542189Y-106276376D01*
X95378217Y-106208456D01*
X95230647Y-106109853D01*
X95105148Y-105984354D01*
X95006545Y-105836784D01*
X94938625Y-105672812D01*
X94904001Y-105498741D01*
X94904001Y-105321259D01*
X94938625Y-105147188D01*
X95006545Y-104983216D01*
X95105148Y-104835646D01*
X95230647Y-104710147D01*
X95378217Y-104611544D01*
X95542189Y-104543624D01*
X95691489Y-104513927D01*
X95716259Y-104509000D01*
X95893743Y-104509000D01*
X95918513Y-104513927D01*
G37*
G36*
X93378513Y-104513927D02*
G01*
X93527813Y-104543624D01*
X93691785Y-104611544D01*
X93839355Y-104710147D01*
X93964854Y-104835646D01*
X94063457Y-104983216D01*
X94131377Y-105147188D01*
X94166001Y-105321259D01*
X94166001Y-105498741D01*
X94131377Y-105672812D01*
X94063457Y-105836784D01*
X93964854Y-105984354D01*
X93839355Y-106109853D01*
X93691785Y-106208456D01*
X93527813Y-106276376D01*
X93378513Y-106306073D01*
X93353743Y-106311000D01*
X93176259Y-106311000D01*
X93151489Y-106306073D01*
X93002189Y-106276376D01*
X92838217Y-106208456D01*
X92690647Y-106109853D01*
X92565148Y-105984354D01*
X92466545Y-105836784D01*
X92398625Y-105672812D01*
X92364001Y-105498741D01*
X92364001Y-105321259D01*
X92398625Y-105147188D01*
X92466545Y-104983216D01*
X92565148Y-104835646D01*
X92690647Y-104710147D01*
X92838217Y-104611544D01*
X93002189Y-104543624D01*
X93151489Y-104513927D01*
X93176259Y-104509000D01*
X93353743Y-104509000D01*
X93378513Y-104513927D01*
G37*
G36*
X90838513Y-104513927D02*
G01*
X90987813Y-104543624D01*
X91151785Y-104611544D01*
X91299355Y-104710147D01*
X91424854Y-104835646D01*
X91523457Y-104983216D01*
X91591377Y-105147188D01*
X91626001Y-105321259D01*
X91626001Y-105498741D01*
X91591377Y-105672812D01*
X91523457Y-105836784D01*
X91424854Y-105984354D01*
X91299355Y-106109853D01*
X91151785Y-106208456D01*
X90987813Y-106276376D01*
X90838513Y-106306073D01*
X90813743Y-106311000D01*
X90636259Y-106311000D01*
X90611489Y-106306073D01*
X90462189Y-106276376D01*
X90298217Y-106208456D01*
X90150647Y-106109853D01*
X90025148Y-105984354D01*
X89926545Y-105836784D01*
X89858625Y-105672812D01*
X89824001Y-105498741D01*
X89824001Y-105321259D01*
X89858625Y-105147188D01*
X89926545Y-104983216D01*
X90025148Y-104835646D01*
X90150647Y-104710147D01*
X90298217Y-104611544D01*
X90462189Y-104543624D01*
X90611489Y-104513927D01*
X90636259Y-104509000D01*
X90813743Y-104509000D01*
X90838513Y-104513927D01*
G37*
G36*
X80678513Y-104513927D02*
G01*
X80827813Y-104543624D01*
X80991785Y-104611544D01*
X81139355Y-104710147D01*
X81264854Y-104835646D01*
X81363457Y-104983216D01*
X81431377Y-105147188D01*
X81466001Y-105321259D01*
X81466001Y-105498741D01*
X81431377Y-105672812D01*
X81363457Y-105836784D01*
X81264854Y-105984354D01*
X81139355Y-106109853D01*
X80991785Y-106208456D01*
X80827813Y-106276376D01*
X80678513Y-106306073D01*
X80653743Y-106311000D01*
X80476259Y-106311000D01*
X80451489Y-106306073D01*
X80302189Y-106276376D01*
X80138217Y-106208456D01*
X79990647Y-106109853D01*
X79865148Y-105984354D01*
X79766545Y-105836784D01*
X79698625Y-105672812D01*
X79664001Y-105498741D01*
X79664001Y-105321259D01*
X79698625Y-105147188D01*
X79766545Y-104983216D01*
X79865148Y-104835646D01*
X79990647Y-104710147D01*
X80138217Y-104611544D01*
X80302189Y-104543624D01*
X80451489Y-104513927D01*
X80476259Y-104509000D01*
X80653743Y-104509000D01*
X80678513Y-104513927D01*
G37*
G36*
X83218513Y-104513927D02*
G01*
X83367813Y-104543624D01*
X83531785Y-104611544D01*
X83679355Y-104710147D01*
X83804854Y-104835646D01*
X83903457Y-104983216D01*
X83971377Y-105147188D01*
X84006001Y-105321259D01*
X84006001Y-105498741D01*
X83971377Y-105672812D01*
X83903457Y-105836784D01*
X83804854Y-105984354D01*
X83679355Y-106109853D01*
X83531785Y-106208456D01*
X83367813Y-106276376D01*
X83218513Y-106306073D01*
X83193743Y-106311000D01*
X83016259Y-106311000D01*
X82991489Y-106306073D01*
X82842189Y-106276376D01*
X82678217Y-106208456D01*
X82530647Y-106109853D01*
X82405148Y-105984354D01*
X82306545Y-105836784D01*
X82238625Y-105672812D01*
X82204001Y-105498741D01*
X82204001Y-105321259D01*
X82238625Y-105147188D01*
X82306545Y-104983216D01*
X82405148Y-104835646D01*
X82530647Y-104710147D01*
X82678217Y-104611544D01*
X82842189Y-104543624D01*
X82991489Y-104513927D01*
X83016259Y-104509000D01*
X83193743Y-104509000D01*
X83218513Y-104513927D01*
G37*
G36*
X85758513Y-104513927D02*
G01*
X85907813Y-104543624D01*
X86071785Y-104611544D01*
X86219355Y-104710147D01*
X86344854Y-104835646D01*
X86443457Y-104983216D01*
X86511377Y-105147188D01*
X86546001Y-105321259D01*
X86546001Y-105498741D01*
X86511377Y-105672812D01*
X86443457Y-105836784D01*
X86344854Y-105984354D01*
X86219355Y-106109853D01*
X86071785Y-106208456D01*
X85907813Y-106276376D01*
X85758513Y-106306073D01*
X85733743Y-106311000D01*
X85556259Y-106311000D01*
X85531489Y-106306073D01*
X85382189Y-106276376D01*
X85218217Y-106208456D01*
X85070647Y-106109853D01*
X84945148Y-105984354D01*
X84846545Y-105836784D01*
X84778625Y-105672812D01*
X84744001Y-105498741D01*
X84744001Y-105321259D01*
X84778625Y-105147188D01*
X84846545Y-104983216D01*
X84945148Y-104835646D01*
X85070647Y-104710147D01*
X85218217Y-104611544D01*
X85382189Y-104543624D01*
X85531489Y-104513927D01*
X85556259Y-104509000D01*
X85733743Y-104509000D01*
X85758513Y-104513927D01*
G37*
G36*
X73846001Y-106311000D02*
G01*
X72044001Y-106311000D01*
X72044001Y-104509000D01*
X73846001Y-104509000D01*
X73846001Y-106311000D01*
G37*
G36*
X88298513Y-104513927D02*
G01*
X88447813Y-104543624D01*
X88611785Y-104611544D01*
X88759355Y-104710147D01*
X88884854Y-104835646D01*
X88983457Y-104983216D01*
X89051377Y-105147188D01*
X89086001Y-105321259D01*
X89086001Y-105498741D01*
X89051377Y-105672812D01*
X88983457Y-105836784D01*
X88884854Y-105984354D01*
X88759355Y-106109853D01*
X88611785Y-106208456D01*
X88447813Y-106276376D01*
X88298513Y-106306073D01*
X88273743Y-106311000D01*
X88096259Y-106311000D01*
X88071489Y-106306073D01*
X87922189Y-106276376D01*
X87758217Y-106208456D01*
X87610647Y-106109853D01*
X87485148Y-105984354D01*
X87386545Y-105836784D01*
X87318625Y-105672812D01*
X87284001Y-105498741D01*
X87284001Y-105321259D01*
X87318625Y-105147188D01*
X87386545Y-104983216D01*
X87485148Y-104835646D01*
X87610647Y-104710147D01*
X87758217Y-104611544D01*
X87922189Y-104543624D01*
X88071489Y-104513927D01*
X88096259Y-104509000D01*
X88273743Y-104509000D01*
X88298513Y-104513927D01*
G37*
G36*
X78138513Y-104513927D02*
G01*
X78287813Y-104543624D01*
X78451785Y-104611544D01*
X78599355Y-104710147D01*
X78724854Y-104835646D01*
X78823457Y-104983216D01*
X78891377Y-105147188D01*
X78926001Y-105321259D01*
X78926001Y-105498741D01*
X78891377Y-105672812D01*
X78823457Y-105836784D01*
X78724854Y-105984354D01*
X78599355Y-106109853D01*
X78451785Y-106208456D01*
X78287813Y-106276376D01*
X78138513Y-106306073D01*
X78113743Y-106311000D01*
X77936259Y-106311000D01*
X77911489Y-106306073D01*
X77762189Y-106276376D01*
X77598217Y-106208456D01*
X77450647Y-106109853D01*
X77325148Y-105984354D01*
X77226545Y-105836784D01*
X77158625Y-105672812D01*
X77124001Y-105498741D01*
X77124001Y-105321259D01*
X77158625Y-105147188D01*
X77226545Y-104983216D01*
X77325148Y-104835646D01*
X77450647Y-104710147D01*
X77598217Y-104611544D01*
X77762189Y-104543624D01*
X77911489Y-104513927D01*
X77936259Y-104509000D01*
X78113743Y-104509000D01*
X78138513Y-104513927D01*
G37*
G36*
X75598513Y-104513927D02*
G01*
X75747813Y-104543624D01*
X75911785Y-104611544D01*
X76059355Y-104710147D01*
X76184854Y-104835646D01*
X76283457Y-104983216D01*
X76351377Y-105147188D01*
X76386001Y-105321259D01*
X76386001Y-105498741D01*
X76351377Y-105672812D01*
X76283457Y-105836784D01*
X76184854Y-105984354D01*
X76059355Y-106109853D01*
X75911785Y-106208456D01*
X75747813Y-106276376D01*
X75598513Y-106306073D01*
X75573743Y-106311000D01*
X75396259Y-106311000D01*
X75371489Y-106306073D01*
X75222189Y-106276376D01*
X75058217Y-106208456D01*
X74910647Y-106109853D01*
X74785148Y-105984354D01*
X74686545Y-105836784D01*
X74618625Y-105672812D01*
X74584001Y-105498741D01*
X74584001Y-105321259D01*
X74618625Y-105147188D01*
X74686545Y-104983216D01*
X74785148Y-104835646D01*
X74910647Y-104710147D01*
X75058217Y-104611544D01*
X75222189Y-104543624D01*
X75371489Y-104513927D01*
X75396259Y-104509000D01*
X75573743Y-104509000D01*
X75598513Y-104513927D01*
G37*
G36*
X68365000Y-103700000D02*
G01*
X68200660Y-103700000D01*
X68176274Y-103702402D01*
X68152825Y-103709515D01*
X68131214Y-103721066D01*
X68112272Y-103736611D01*
X68096727Y-103755553D01*
X68085176Y-103777164D01*
X68078063Y-103800613D01*
X68075661Y-103824999D01*
X68078063Y-103849385D01*
X68085176Y-103872834D01*
X68096727Y-103894445D01*
X68112272Y-103913387D01*
X68121345Y-103921609D01*
X68198264Y-103984736D01*
X68270244Y-104072443D01*
X68304429Y-104136399D01*
X68323728Y-104172505D01*
X68323729Y-104172508D01*
X68356666Y-104281084D01*
X68367787Y-104394000D01*
X68356666Y-104506916D01*
X68323729Y-104615492D01*
X68323728Y-104615495D01*
X68309436Y-104642233D01*
X68270244Y-104715557D01*
X68198264Y-104803264D01*
X68110557Y-104875244D01*
X68029141Y-104918761D01*
X68008766Y-104932375D01*
X67991439Y-104949702D01*
X67977826Y-104970076D01*
X67968448Y-104992715D01*
X67963668Y-105016748D01*
X67963668Y-105041252D01*
X67968448Y-105065285D01*
X67977826Y-105087924D01*
X67991440Y-105108299D01*
X68008767Y-105125626D01*
X68029141Y-105139239D01*
X68110557Y-105182756D01*
X68198264Y-105254736D01*
X68270244Y-105342443D01*
X68304429Y-105406399D01*
X68323728Y-105442505D01*
X68323729Y-105442508D01*
X68356666Y-105551084D01*
X68367787Y-105664000D01*
X68356666Y-105776916D01*
X68329927Y-105865059D01*
X68323728Y-105885495D01*
X68304429Y-105921601D01*
X68270244Y-105985557D01*
X68198264Y-106073264D01*
X68110557Y-106145244D01*
X68046601Y-106179429D01*
X68010495Y-106198728D01*
X68010492Y-106198729D01*
X67901916Y-106231666D01*
X67817298Y-106240000D01*
X67310702Y-106240000D01*
X67226084Y-106231666D01*
X67117508Y-106198729D01*
X67117505Y-106198728D01*
X67081399Y-106179429D01*
X67017443Y-106145244D01*
X66929736Y-106073264D01*
X66857756Y-105985557D01*
X66823571Y-105921601D01*
X66804272Y-105885495D01*
X66798073Y-105865059D01*
X66771334Y-105776916D01*
X66760213Y-105664000D01*
X66771334Y-105551084D01*
X66804271Y-105442508D01*
X66804272Y-105442505D01*
X66823571Y-105406399D01*
X66857756Y-105342443D01*
X66929736Y-105254736D01*
X67017443Y-105182756D01*
X67098859Y-105139239D01*
X67119234Y-105125625D01*
X67136561Y-105108298D01*
X67150174Y-105087924D01*
X67159552Y-105065285D01*
X67164332Y-105041252D01*
X67164332Y-105016748D01*
X67159552Y-104992715D01*
X67150174Y-104970076D01*
X67136560Y-104949701D01*
X67119233Y-104932374D01*
X67098859Y-104918761D01*
X67017443Y-104875244D01*
X66929736Y-104803264D01*
X66857756Y-104715557D01*
X66818564Y-104642233D01*
X66804272Y-104615495D01*
X66804271Y-104615492D01*
X66771334Y-104506916D01*
X66760213Y-104394000D01*
X66771334Y-104281084D01*
X66804271Y-104172508D01*
X66804272Y-104172505D01*
X66823571Y-104136399D01*
X66857756Y-104072443D01*
X66929736Y-103984736D01*
X67006646Y-103921617D01*
X67023965Y-103904298D01*
X67037579Y-103883923D01*
X67046957Y-103861284D01*
X67051737Y-103837251D01*
X67051737Y-103812747D01*
X67046957Y-103788714D01*
X67037579Y-103766075D01*
X67023966Y-103745701D01*
X67006639Y-103728374D01*
X66986264Y-103714760D01*
X66963625Y-103705382D01*
X66939592Y-103700602D01*
X66927340Y-103700000D01*
X66763000Y-103700000D01*
X66763000Y-102548000D01*
X68365000Y-102548000D01*
X68365000Y-103700000D01*
G37*
G36*
X157643467Y-103085668D02*
G01*
X157659567Y-103087254D01*
X157745899Y-103113443D01*
X157832233Y-103139632D01*
X157991364Y-103224689D01*
X158130844Y-103339156D01*
X158245311Y-103478635D01*
X158330368Y-103637766D01*
X158382746Y-103810433D01*
X158396000Y-103945002D01*
X158396000Y-104334997D01*
X158385570Y-104440895D01*
X158382746Y-104469567D01*
X158371417Y-104506914D01*
X158330368Y-104642234D01*
X158245311Y-104801365D01*
X158130844Y-104940844D01*
X157991365Y-105055311D01*
X157832234Y-105140368D01*
X157659568Y-105192746D01*
X157643468Y-105194332D01*
X157480000Y-105210432D01*
X157316533Y-105194332D01*
X157300433Y-105192746D01*
X157127767Y-105140368D01*
X156968636Y-105055311D01*
X156829157Y-104940844D01*
X156714689Y-104801365D01*
X156629632Y-104642234D01*
X156577254Y-104469567D01*
X156564000Y-104334998D01*
X156564000Y-103945003D01*
X156577254Y-103810434D01*
X156577255Y-103810432D01*
X156606276Y-103714760D01*
X156629632Y-103637767D01*
X156714689Y-103478636D01*
X156829156Y-103339156D01*
X156968635Y-103224689D01*
X157127766Y-103139632D01*
X157214100Y-103113443D01*
X157300432Y-103087254D01*
X157316532Y-103085668D01*
X157480000Y-103069568D01*
X157643467Y-103085668D01*
G37*
G36*
X165263467Y-103085668D02*
G01*
X165279567Y-103087254D01*
X165365899Y-103113443D01*
X165452233Y-103139632D01*
X165611364Y-103224689D01*
X165750844Y-103339156D01*
X165865311Y-103478635D01*
X165950368Y-103637766D01*
X166002746Y-103810433D01*
X166016000Y-103945002D01*
X166016000Y-104334997D01*
X166005570Y-104440895D01*
X166002746Y-104469567D01*
X165991417Y-104506914D01*
X165950368Y-104642234D01*
X165865311Y-104801365D01*
X165750844Y-104940844D01*
X165611365Y-105055311D01*
X165452234Y-105140368D01*
X165279568Y-105192746D01*
X165263468Y-105194332D01*
X165100000Y-105210432D01*
X164936533Y-105194332D01*
X164920433Y-105192746D01*
X164747767Y-105140368D01*
X164588636Y-105055311D01*
X164449157Y-104940844D01*
X164334689Y-104801365D01*
X164249632Y-104642234D01*
X164197254Y-104469567D01*
X164184000Y-104334998D01*
X164184000Y-103945003D01*
X164197254Y-103810434D01*
X164197255Y-103810432D01*
X164226276Y-103714760D01*
X164249632Y-103637767D01*
X164334689Y-103478636D01*
X164449156Y-103339156D01*
X164588635Y-103224689D01*
X164747766Y-103139632D01*
X164834100Y-103113443D01*
X164920432Y-103087254D01*
X164936532Y-103085668D01*
X165100000Y-103069568D01*
X165263467Y-103085668D01*
G37*
G36*
X155103467Y-103085668D02*
G01*
X155119567Y-103087254D01*
X155205899Y-103113443D01*
X155292233Y-103139632D01*
X155451364Y-103224689D01*
X155590844Y-103339156D01*
X155705311Y-103478635D01*
X155790368Y-103637766D01*
X155842746Y-103810433D01*
X155856000Y-103945002D01*
X155856000Y-104334997D01*
X155845570Y-104440895D01*
X155842746Y-104469567D01*
X155831417Y-104506914D01*
X155790368Y-104642234D01*
X155705311Y-104801365D01*
X155590844Y-104940844D01*
X155451365Y-105055311D01*
X155292234Y-105140368D01*
X155119568Y-105192746D01*
X155103468Y-105194332D01*
X154940000Y-105210432D01*
X154776533Y-105194332D01*
X154760433Y-105192746D01*
X154587767Y-105140368D01*
X154428636Y-105055311D01*
X154289157Y-104940844D01*
X154174689Y-104801365D01*
X154089632Y-104642234D01*
X154037254Y-104469567D01*
X154024000Y-104334998D01*
X154024000Y-103945003D01*
X154037254Y-103810434D01*
X154037255Y-103810432D01*
X154066276Y-103714760D01*
X154089632Y-103637767D01*
X154174689Y-103478636D01*
X154289156Y-103339156D01*
X154428635Y-103224689D01*
X154587766Y-103139632D01*
X154674100Y-103113443D01*
X154760432Y-103087254D01*
X154776532Y-103085668D01*
X154940000Y-103069568D01*
X155103467Y-103085668D01*
G37*
G36*
X144943467Y-103085668D02*
G01*
X144959567Y-103087254D01*
X145045899Y-103113443D01*
X145132233Y-103139632D01*
X145291364Y-103224689D01*
X145430844Y-103339156D01*
X145545311Y-103478635D01*
X145630368Y-103637766D01*
X145682746Y-103810433D01*
X145696000Y-103945002D01*
X145696000Y-104334997D01*
X145685570Y-104440895D01*
X145682746Y-104469567D01*
X145671417Y-104506914D01*
X145630368Y-104642234D01*
X145545311Y-104801365D01*
X145430844Y-104940844D01*
X145291365Y-105055311D01*
X145132234Y-105140368D01*
X144959568Y-105192746D01*
X144943468Y-105194332D01*
X144780000Y-105210432D01*
X144616533Y-105194332D01*
X144600433Y-105192746D01*
X144427767Y-105140368D01*
X144268636Y-105055311D01*
X144129157Y-104940844D01*
X144014689Y-104801365D01*
X143929632Y-104642234D01*
X143877254Y-104469567D01*
X143864000Y-104334998D01*
X143864000Y-103945003D01*
X143877254Y-103810434D01*
X143877255Y-103810432D01*
X143906276Y-103714760D01*
X143929632Y-103637767D01*
X144014689Y-103478636D01*
X144129156Y-103339156D01*
X144268635Y-103224689D01*
X144427766Y-103139632D01*
X144514100Y-103113443D01*
X144600432Y-103087254D01*
X144616532Y-103085668D01*
X144780000Y-103069568D01*
X144943467Y-103085668D01*
G37*
G36*
X167803467Y-103085668D02*
G01*
X167819567Y-103087254D01*
X167905899Y-103113443D01*
X167992233Y-103139632D01*
X168151364Y-103224689D01*
X168290844Y-103339156D01*
X168405311Y-103478635D01*
X168490368Y-103637766D01*
X168542746Y-103810433D01*
X168556000Y-103945002D01*
X168556000Y-104334997D01*
X168545570Y-104440895D01*
X168542746Y-104469567D01*
X168531417Y-104506914D01*
X168490368Y-104642234D01*
X168405311Y-104801365D01*
X168290844Y-104940844D01*
X168151365Y-105055311D01*
X167992234Y-105140368D01*
X167819568Y-105192746D01*
X167803468Y-105194332D01*
X167640000Y-105210432D01*
X167476533Y-105194332D01*
X167460433Y-105192746D01*
X167287767Y-105140368D01*
X167128636Y-105055311D01*
X166989157Y-104940844D01*
X166874689Y-104801365D01*
X166789632Y-104642234D01*
X166737254Y-104469567D01*
X166724000Y-104334998D01*
X166724000Y-103945003D01*
X166737254Y-103810434D01*
X166737255Y-103810432D01*
X166766276Y-103714760D01*
X166789632Y-103637767D01*
X166874689Y-103478636D01*
X166989156Y-103339156D01*
X167128635Y-103224689D01*
X167287766Y-103139632D01*
X167374100Y-103113443D01*
X167460432Y-103087254D01*
X167476532Y-103085668D01*
X167640000Y-103069568D01*
X167803467Y-103085668D01*
G37*
G36*
X147483467Y-103085668D02*
G01*
X147499567Y-103087254D01*
X147585899Y-103113443D01*
X147672233Y-103139632D01*
X147831364Y-103224689D01*
X147970844Y-103339156D01*
X148085311Y-103478635D01*
X148170368Y-103637766D01*
X148222746Y-103810433D01*
X148236000Y-103945002D01*
X148236000Y-104334997D01*
X148225570Y-104440895D01*
X148222746Y-104469567D01*
X148211417Y-104506914D01*
X148170368Y-104642234D01*
X148085311Y-104801365D01*
X147970844Y-104940844D01*
X147831365Y-105055311D01*
X147672234Y-105140368D01*
X147499568Y-105192746D01*
X147483468Y-105194332D01*
X147320000Y-105210432D01*
X147156533Y-105194332D01*
X147140433Y-105192746D01*
X146967767Y-105140368D01*
X146808636Y-105055311D01*
X146669157Y-104940844D01*
X146554689Y-104801365D01*
X146469632Y-104642234D01*
X146417254Y-104469567D01*
X146404000Y-104334998D01*
X146404000Y-103945003D01*
X146417254Y-103810434D01*
X146417255Y-103810432D01*
X146446276Y-103714760D01*
X146469632Y-103637767D01*
X146554689Y-103478636D01*
X146669156Y-103339156D01*
X146808635Y-103224689D01*
X146967766Y-103139632D01*
X147054100Y-103113443D01*
X147140432Y-103087254D01*
X147156532Y-103085668D01*
X147320000Y-103069568D01*
X147483467Y-103085668D01*
G37*
G36*
X163476000Y-105206000D02*
G01*
X161644000Y-105206000D01*
X161644000Y-103074000D01*
X163476000Y-103074000D01*
X163476000Y-105206000D01*
G37*
G36*
X153316000Y-105206000D02*
G01*
X151484000Y-105206000D01*
X151484000Y-103074000D01*
X153316000Y-103074000D01*
X153316000Y-105206000D01*
G37*
G36*
X143156000Y-105206000D02*
G01*
X141324000Y-105206000D01*
X141324000Y-103074000D01*
X143156000Y-103074000D01*
X143156000Y-105206000D01*
G37*
G36*
X104580694Y-103187833D02*
G01*
X104753095Y-103240131D01*
X104911983Y-103325058D01*
X105051249Y-103439351D01*
X105165542Y-103578617D01*
X105250469Y-103737505D01*
X105302767Y-103909906D01*
X105320425Y-104089200D01*
X105302767Y-104268494D01*
X105250469Y-104440895D01*
X105165542Y-104599783D01*
X105051249Y-104739049D01*
X104911983Y-104853342D01*
X104753095Y-104938269D01*
X104580694Y-104990567D01*
X104446331Y-105003800D01*
X103833669Y-105003800D01*
X103699306Y-104990567D01*
X103526905Y-104938269D01*
X103368017Y-104853342D01*
X103228751Y-104739049D01*
X103114458Y-104599783D01*
X103029531Y-104440895D01*
X102977233Y-104268494D01*
X102959575Y-104089200D01*
X102977233Y-103909906D01*
X103029531Y-103737505D01*
X103114458Y-103578617D01*
X103228751Y-103439351D01*
X103368017Y-103325058D01*
X103526905Y-103240131D01*
X103699306Y-103187833D01*
X103833669Y-103174600D01*
X104446331Y-103174600D01*
X104580694Y-103187833D01*
G37*
G36*
X119820694Y-103187833D02*
G01*
X119993095Y-103240131D01*
X120151983Y-103325058D01*
X120291249Y-103439351D01*
X120405542Y-103578617D01*
X120490469Y-103737505D01*
X120542767Y-103909906D01*
X120560425Y-104089200D01*
X120542767Y-104268494D01*
X120490469Y-104440895D01*
X120405542Y-104599783D01*
X120291249Y-104739049D01*
X120151983Y-104853342D01*
X119993095Y-104938269D01*
X119820694Y-104990567D01*
X119686331Y-105003800D01*
X119073669Y-105003800D01*
X118939306Y-104990567D01*
X118766905Y-104938269D01*
X118608017Y-104853342D01*
X118468751Y-104739049D01*
X118354458Y-104599783D01*
X118269531Y-104440895D01*
X118217233Y-104268494D01*
X118199575Y-104089200D01*
X118217233Y-103909906D01*
X118269531Y-103737505D01*
X118354458Y-103578617D01*
X118468751Y-103439351D01*
X118608017Y-103325058D01*
X118766905Y-103240131D01*
X118939306Y-103187833D01*
X119073669Y-103174600D01*
X119686331Y-103174600D01*
X119820694Y-103187833D01*
G37*
G36*
X136138228Y-103321703D02*
G01*
X136293100Y-103385853D01*
X136432481Y-103478985D01*
X136551015Y-103597519D01*
X136644147Y-103736900D01*
X136708297Y-103891772D01*
X136741000Y-104056184D01*
X136741000Y-104223816D01*
X136708297Y-104388228D01*
X136644147Y-104543100D01*
X136551015Y-104682481D01*
X136432481Y-104801015D01*
X136293100Y-104894147D01*
X136138228Y-104958297D01*
X135973816Y-104991000D01*
X135806184Y-104991000D01*
X135641772Y-104958297D01*
X135486900Y-104894147D01*
X135347519Y-104801015D01*
X135228985Y-104682481D01*
X135135853Y-104543100D01*
X135071703Y-104388228D01*
X135039000Y-104223816D01*
X135039000Y-104056184D01*
X135071703Y-103891772D01*
X135135853Y-103736900D01*
X135228985Y-103597519D01*
X135347519Y-103478985D01*
X135486900Y-103385853D01*
X135641772Y-103321703D01*
X135806184Y-103289000D01*
X135973816Y-103289000D01*
X136138228Y-103321703D01*
G37*
G36*
X128518228Y-103321703D02*
G01*
X128673100Y-103385853D01*
X128812481Y-103478985D01*
X128931015Y-103597519D01*
X129024147Y-103736900D01*
X129088297Y-103891772D01*
X129121000Y-104056184D01*
X129121000Y-104223816D01*
X129088297Y-104388228D01*
X129024147Y-104543100D01*
X128931015Y-104682481D01*
X128812481Y-104801015D01*
X128673100Y-104894147D01*
X128518228Y-104958297D01*
X128353816Y-104991000D01*
X128186184Y-104991000D01*
X128021772Y-104958297D01*
X127866900Y-104894147D01*
X127727519Y-104801015D01*
X127608985Y-104682481D01*
X127515853Y-104543100D01*
X127451703Y-104388228D01*
X127419000Y-104223816D01*
X127419000Y-104056184D01*
X127451703Y-103891772D01*
X127515853Y-103736900D01*
X127608985Y-103597519D01*
X127727519Y-103478985D01*
X127866900Y-103385853D01*
X128021772Y-103321703D01*
X128186184Y-103289000D01*
X128353816Y-103289000D01*
X128518228Y-103321703D01*
G37*
G36*
X75598513Y-101973927D02*
G01*
X75747813Y-102003624D01*
X75911785Y-102071544D01*
X76059355Y-102170147D01*
X76184854Y-102295646D01*
X76283457Y-102443216D01*
X76351377Y-102607188D01*
X76386001Y-102781259D01*
X76386001Y-102958741D01*
X76351377Y-103132812D01*
X76283457Y-103296784D01*
X76184854Y-103444354D01*
X76059355Y-103569853D01*
X75911785Y-103668456D01*
X75747813Y-103736376D01*
X75598513Y-103766073D01*
X75573743Y-103771000D01*
X75396259Y-103771000D01*
X75371489Y-103766073D01*
X75222189Y-103736376D01*
X75058217Y-103668456D01*
X74910647Y-103569853D01*
X74785148Y-103444354D01*
X74686545Y-103296784D01*
X74618625Y-103132812D01*
X74584001Y-102958741D01*
X74584001Y-102781259D01*
X74618625Y-102607188D01*
X74686545Y-102443216D01*
X74785148Y-102295646D01*
X74910647Y-102170147D01*
X75058217Y-102071544D01*
X75222189Y-102003624D01*
X75371489Y-101973927D01*
X75396259Y-101969000D01*
X75573743Y-101969000D01*
X75598513Y-101973927D01*
G37*
G36*
X78138513Y-101973927D02*
G01*
X78287813Y-102003624D01*
X78451785Y-102071544D01*
X78599355Y-102170147D01*
X78724854Y-102295646D01*
X78823457Y-102443216D01*
X78891377Y-102607188D01*
X78926001Y-102781259D01*
X78926001Y-102958741D01*
X78891377Y-103132812D01*
X78823457Y-103296784D01*
X78724854Y-103444354D01*
X78599355Y-103569853D01*
X78451785Y-103668456D01*
X78287813Y-103736376D01*
X78138513Y-103766073D01*
X78113743Y-103771000D01*
X77936259Y-103771000D01*
X77911489Y-103766073D01*
X77762189Y-103736376D01*
X77598217Y-103668456D01*
X77450647Y-103569853D01*
X77325148Y-103444354D01*
X77226545Y-103296784D01*
X77158625Y-103132812D01*
X77124001Y-102958741D01*
X77124001Y-102781259D01*
X77158625Y-102607188D01*
X77226545Y-102443216D01*
X77325148Y-102295646D01*
X77450647Y-102170147D01*
X77598217Y-102071544D01*
X77762189Y-102003624D01*
X77911489Y-101973927D01*
X77936259Y-101969000D01*
X78113743Y-101969000D01*
X78138513Y-101973927D01*
G37*
G36*
X80678513Y-101973927D02*
G01*
X80827813Y-102003624D01*
X80991785Y-102071544D01*
X81139355Y-102170147D01*
X81264854Y-102295646D01*
X81363457Y-102443216D01*
X81431377Y-102607188D01*
X81466001Y-102781259D01*
X81466001Y-102958741D01*
X81431377Y-103132812D01*
X81363457Y-103296784D01*
X81264854Y-103444354D01*
X81139355Y-103569853D01*
X80991785Y-103668456D01*
X80827813Y-103736376D01*
X80678513Y-103766073D01*
X80653743Y-103771000D01*
X80476259Y-103771000D01*
X80451489Y-103766073D01*
X80302189Y-103736376D01*
X80138217Y-103668456D01*
X79990647Y-103569853D01*
X79865148Y-103444354D01*
X79766545Y-103296784D01*
X79698625Y-103132812D01*
X79664001Y-102958741D01*
X79664001Y-102781259D01*
X79698625Y-102607188D01*
X79766545Y-102443216D01*
X79865148Y-102295646D01*
X79990647Y-102170147D01*
X80138217Y-102071544D01*
X80302189Y-102003624D01*
X80451489Y-101973927D01*
X80476259Y-101969000D01*
X80653743Y-101969000D01*
X80678513Y-101973927D01*
G37*
G36*
X83218513Y-101973927D02*
G01*
X83367813Y-102003624D01*
X83531785Y-102071544D01*
X83679355Y-102170147D01*
X83804854Y-102295646D01*
X83903457Y-102443216D01*
X83971377Y-102607188D01*
X84006001Y-102781259D01*
X84006001Y-102958741D01*
X83971377Y-103132812D01*
X83903457Y-103296784D01*
X83804854Y-103444354D01*
X83679355Y-103569853D01*
X83531785Y-103668456D01*
X83367813Y-103736376D01*
X83218513Y-103766073D01*
X83193743Y-103771000D01*
X83016259Y-103771000D01*
X82991489Y-103766073D01*
X82842189Y-103736376D01*
X82678217Y-103668456D01*
X82530647Y-103569853D01*
X82405148Y-103444354D01*
X82306545Y-103296784D01*
X82238625Y-103132812D01*
X82204001Y-102958741D01*
X82204001Y-102781259D01*
X82238625Y-102607188D01*
X82306545Y-102443216D01*
X82405148Y-102295646D01*
X82530647Y-102170147D01*
X82678217Y-102071544D01*
X82842189Y-102003624D01*
X82991489Y-101973927D01*
X83016259Y-101969000D01*
X83193743Y-101969000D01*
X83218513Y-101973927D01*
G37*
G36*
X85758513Y-101973927D02*
G01*
X85907813Y-102003624D01*
X86071785Y-102071544D01*
X86219355Y-102170147D01*
X86344854Y-102295646D01*
X86443457Y-102443216D01*
X86511377Y-102607188D01*
X86546001Y-102781259D01*
X86546001Y-102958741D01*
X86511377Y-103132812D01*
X86443457Y-103296784D01*
X86344854Y-103444354D01*
X86219355Y-103569853D01*
X86071785Y-103668456D01*
X85907813Y-103736376D01*
X85758513Y-103766073D01*
X85733743Y-103771000D01*
X85556259Y-103771000D01*
X85531489Y-103766073D01*
X85382189Y-103736376D01*
X85218217Y-103668456D01*
X85070647Y-103569853D01*
X84945148Y-103444354D01*
X84846545Y-103296784D01*
X84778625Y-103132812D01*
X84744001Y-102958741D01*
X84744001Y-102781259D01*
X84778625Y-102607188D01*
X84846545Y-102443216D01*
X84945148Y-102295646D01*
X85070647Y-102170147D01*
X85218217Y-102071544D01*
X85382189Y-102003624D01*
X85531489Y-101973927D01*
X85556259Y-101969000D01*
X85733743Y-101969000D01*
X85758513Y-101973927D01*
G37*
G36*
X73058513Y-101973927D02*
G01*
X73207813Y-102003624D01*
X73371785Y-102071544D01*
X73519355Y-102170147D01*
X73644854Y-102295646D01*
X73743457Y-102443216D01*
X73811377Y-102607188D01*
X73846001Y-102781259D01*
X73846001Y-102958741D01*
X73811377Y-103132812D01*
X73743457Y-103296784D01*
X73644854Y-103444354D01*
X73519355Y-103569853D01*
X73371785Y-103668456D01*
X73207813Y-103736376D01*
X73058513Y-103766073D01*
X73033743Y-103771000D01*
X72856259Y-103771000D01*
X72831489Y-103766073D01*
X72682189Y-103736376D01*
X72518217Y-103668456D01*
X72370647Y-103569853D01*
X72245148Y-103444354D01*
X72146545Y-103296784D01*
X72078625Y-103132812D01*
X72044001Y-102958741D01*
X72044001Y-102781259D01*
X72078625Y-102607188D01*
X72146545Y-102443216D01*
X72245148Y-102295646D01*
X72370647Y-102170147D01*
X72518217Y-102071544D01*
X72682189Y-102003624D01*
X72831489Y-101973927D01*
X72856259Y-101969000D01*
X73033743Y-101969000D01*
X73058513Y-101973927D01*
G37*
G36*
X88298513Y-101973927D02*
G01*
X88447813Y-102003624D01*
X88611785Y-102071544D01*
X88759355Y-102170147D01*
X88884854Y-102295646D01*
X88983457Y-102443216D01*
X89051377Y-102607188D01*
X89086001Y-102781259D01*
X89086001Y-102958741D01*
X89051377Y-103132812D01*
X88983457Y-103296784D01*
X88884854Y-103444354D01*
X88759355Y-103569853D01*
X88611785Y-103668456D01*
X88447813Y-103736376D01*
X88298513Y-103766073D01*
X88273743Y-103771000D01*
X88096259Y-103771000D01*
X88071489Y-103766073D01*
X87922189Y-103736376D01*
X87758217Y-103668456D01*
X87610647Y-103569853D01*
X87485148Y-103444354D01*
X87386545Y-103296784D01*
X87318625Y-103132812D01*
X87284001Y-102958741D01*
X87284001Y-102781259D01*
X87318625Y-102607188D01*
X87386545Y-102443216D01*
X87485148Y-102295646D01*
X87610647Y-102170147D01*
X87758217Y-102071544D01*
X87922189Y-102003624D01*
X88071489Y-101973927D01*
X88096259Y-101969000D01*
X88273743Y-101969000D01*
X88298513Y-101973927D01*
G37*
G36*
X95918513Y-101973927D02*
G01*
X96067813Y-102003624D01*
X96231785Y-102071544D01*
X96379355Y-102170147D01*
X96504854Y-102295646D01*
X96603457Y-102443216D01*
X96671377Y-102607188D01*
X96706001Y-102781259D01*
X96706001Y-102958741D01*
X96671377Y-103132812D01*
X96603457Y-103296784D01*
X96504854Y-103444354D01*
X96379355Y-103569853D01*
X96231785Y-103668456D01*
X96067813Y-103736376D01*
X95918513Y-103766073D01*
X95893743Y-103771000D01*
X95716259Y-103771000D01*
X95691489Y-103766073D01*
X95542189Y-103736376D01*
X95378217Y-103668456D01*
X95230647Y-103569853D01*
X95105148Y-103444354D01*
X95006545Y-103296784D01*
X94938625Y-103132812D01*
X94904001Y-102958741D01*
X94904001Y-102781259D01*
X94938625Y-102607188D01*
X95006545Y-102443216D01*
X95105148Y-102295646D01*
X95230647Y-102170147D01*
X95378217Y-102071544D01*
X95542189Y-102003624D01*
X95691489Y-101973927D01*
X95716259Y-101969000D01*
X95893743Y-101969000D01*
X95918513Y-101973927D01*
G37*
G36*
X93378513Y-101973927D02*
G01*
X93527813Y-102003624D01*
X93691785Y-102071544D01*
X93839355Y-102170147D01*
X93964854Y-102295646D01*
X94063457Y-102443216D01*
X94131377Y-102607188D01*
X94166001Y-102781259D01*
X94166001Y-102958741D01*
X94131377Y-103132812D01*
X94063457Y-103296784D01*
X93964854Y-103444354D01*
X93839355Y-103569853D01*
X93691785Y-103668456D01*
X93527813Y-103736376D01*
X93378513Y-103766073D01*
X93353743Y-103771000D01*
X93176259Y-103771000D01*
X93151489Y-103766073D01*
X93002189Y-103736376D01*
X92838217Y-103668456D01*
X92690647Y-103569853D01*
X92565148Y-103444354D01*
X92466545Y-103296784D01*
X92398625Y-103132812D01*
X92364001Y-102958741D01*
X92364001Y-102781259D01*
X92398625Y-102607188D01*
X92466545Y-102443216D01*
X92565148Y-102295646D01*
X92690647Y-102170147D01*
X92838217Y-102071544D01*
X93002189Y-102003624D01*
X93151489Y-101973927D01*
X93176259Y-101969000D01*
X93353743Y-101969000D01*
X93378513Y-101973927D01*
G37*
G36*
X90838513Y-101973927D02*
G01*
X90987813Y-102003624D01*
X91151785Y-102071544D01*
X91299355Y-102170147D01*
X91424854Y-102295646D01*
X91523457Y-102443216D01*
X91591377Y-102607188D01*
X91626001Y-102781259D01*
X91626001Y-102958741D01*
X91591377Y-103132812D01*
X91523457Y-103296784D01*
X91424854Y-103444354D01*
X91299355Y-103569853D01*
X91151785Y-103668456D01*
X90987813Y-103736376D01*
X90838513Y-103766073D01*
X90813743Y-103771000D01*
X90636259Y-103771000D01*
X90611489Y-103766073D01*
X90462189Y-103736376D01*
X90298217Y-103668456D01*
X90150647Y-103569853D01*
X90025148Y-103444354D01*
X89926545Y-103296784D01*
X89858625Y-103132812D01*
X89824001Y-102958741D01*
X89824001Y-102781259D01*
X89858625Y-102607188D01*
X89926545Y-102443216D01*
X90025148Y-102295646D01*
X90150647Y-102170147D01*
X90298217Y-102071544D01*
X90462189Y-102003624D01*
X90611489Y-101973927D01*
X90636259Y-101969000D01*
X90813743Y-101969000D01*
X90838513Y-101973927D01*
G37*
G36*
X110885548Y-102026303D02*
G01*
X111040420Y-102090453D01*
X111179801Y-102183585D01*
X111298335Y-102302119D01*
X111391467Y-102441500D01*
X111455617Y-102596372D01*
X111488320Y-102760784D01*
X111488320Y-102928416D01*
X111455617Y-103092828D01*
X111391467Y-103247700D01*
X111298335Y-103387081D01*
X111179801Y-103505615D01*
X111040420Y-103598747D01*
X110885548Y-103662897D01*
X110721136Y-103695600D01*
X110553504Y-103695600D01*
X110389092Y-103662897D01*
X110234220Y-103598747D01*
X110094839Y-103505615D01*
X109976305Y-103387081D01*
X109883173Y-103247700D01*
X109819023Y-103092828D01*
X109786320Y-102928416D01*
X109786320Y-102760784D01*
X109819023Y-102596372D01*
X109883173Y-102441500D01*
X109976305Y-102302119D01*
X110094839Y-102183585D01*
X110234220Y-102090453D01*
X110389092Y-102026303D01*
X110553504Y-101993600D01*
X110721136Y-101993600D01*
X110885548Y-102026303D01*
G37*
G36*
X113877668Y-100857903D02*
G01*
X114032540Y-100922053D01*
X114171921Y-101015185D01*
X114290455Y-101133719D01*
X114383587Y-101273100D01*
X114447737Y-101427972D01*
X114480440Y-101592384D01*
X114480440Y-101760016D01*
X114447737Y-101924428D01*
X114383587Y-102079300D01*
X114290455Y-102218681D01*
X114171921Y-102337215D01*
X114032540Y-102430347D01*
X113877668Y-102494497D01*
X113713256Y-102527200D01*
X113545624Y-102527200D01*
X113381212Y-102494497D01*
X113226340Y-102430347D01*
X113086959Y-102337215D01*
X112968425Y-102218681D01*
X112875293Y-102079300D01*
X112811143Y-101924428D01*
X112778440Y-101760016D01*
X112778440Y-101592384D01*
X112811143Y-101427972D01*
X112875293Y-101273100D01*
X112968425Y-101133719D01*
X113086959Y-101015185D01*
X113226340Y-100922053D01*
X113381212Y-100857903D01*
X113545624Y-100825200D01*
X113713256Y-100825200D01*
X113877668Y-100857903D01*
G37*
G36*
X119820694Y-100647833D02*
G01*
X119993095Y-100700131D01*
X120151983Y-100785058D01*
X120291249Y-100899351D01*
X120405542Y-101038617D01*
X120490469Y-101197505D01*
X120542767Y-101369906D01*
X120560425Y-101549200D01*
X120542767Y-101728494D01*
X120490469Y-101900895D01*
X120405542Y-102059783D01*
X120291249Y-102199049D01*
X120151983Y-102313342D01*
X119993095Y-102398269D01*
X119820694Y-102450567D01*
X119686331Y-102463800D01*
X119073669Y-102463800D01*
X118939306Y-102450567D01*
X118766905Y-102398269D01*
X118608017Y-102313342D01*
X118468751Y-102199049D01*
X118354458Y-102059783D01*
X118269531Y-101900895D01*
X118217233Y-101728494D01*
X118199575Y-101549200D01*
X118217233Y-101369906D01*
X118269531Y-101197505D01*
X118354458Y-101038617D01*
X118468751Y-100899351D01*
X118608017Y-100785058D01*
X118766905Y-100700131D01*
X118939306Y-100647833D01*
X119073669Y-100634600D01*
X119686331Y-100634600D01*
X119820694Y-100647833D01*
G37*
G36*
X104580694Y-100647833D02*
G01*
X104753095Y-100700131D01*
X104911983Y-100785058D01*
X105051249Y-100899351D01*
X105165542Y-101038617D01*
X105250469Y-101197505D01*
X105302767Y-101369906D01*
X105320425Y-101549200D01*
X105302767Y-101728494D01*
X105250469Y-101900895D01*
X105165542Y-102059783D01*
X105051249Y-102199049D01*
X104911983Y-102313342D01*
X104753095Y-102398269D01*
X104580694Y-102450567D01*
X104446331Y-102463800D01*
X103833669Y-102463800D01*
X103699306Y-102450567D01*
X103526905Y-102398269D01*
X103368017Y-102313342D01*
X103228751Y-102199049D01*
X103114458Y-102059783D01*
X103029531Y-101900895D01*
X102977233Y-101728494D01*
X102959575Y-101549200D01*
X102977233Y-101369906D01*
X103029531Y-101197505D01*
X103114458Y-101038617D01*
X103228751Y-100899351D01*
X103368017Y-100785058D01*
X103526905Y-100700131D01*
X103699306Y-100647833D01*
X103833669Y-100634600D01*
X104446331Y-100634600D01*
X104580694Y-100647833D01*
G37*
G36*
X136138228Y-100781703D02*
G01*
X136293100Y-100845853D01*
X136432481Y-100938985D01*
X136551015Y-101057519D01*
X136644147Y-101196900D01*
X136708297Y-101351772D01*
X136741000Y-101516184D01*
X136741000Y-101683816D01*
X136708297Y-101848228D01*
X136644147Y-102003100D01*
X136551015Y-102142481D01*
X136432481Y-102261015D01*
X136293100Y-102354147D01*
X136138228Y-102418297D01*
X135973816Y-102451000D01*
X135806184Y-102451000D01*
X135641772Y-102418297D01*
X135486900Y-102354147D01*
X135347519Y-102261015D01*
X135228985Y-102142481D01*
X135135853Y-102003100D01*
X135071703Y-101848228D01*
X135039000Y-101683816D01*
X135039000Y-101516184D01*
X135071703Y-101351772D01*
X135135853Y-101196900D01*
X135228985Y-101057519D01*
X135347519Y-100938985D01*
X135486900Y-100845853D01*
X135641772Y-100781703D01*
X135806184Y-100749000D01*
X135973816Y-100749000D01*
X136138228Y-100781703D01*
G37*
G36*
X128518228Y-100781703D02*
G01*
X128673100Y-100845853D01*
X128812481Y-100938985D01*
X128931015Y-101057519D01*
X129024147Y-101196900D01*
X129088297Y-101351772D01*
X129121000Y-101516184D01*
X129121000Y-101683816D01*
X129088297Y-101848228D01*
X129024147Y-102003100D01*
X128931015Y-102142481D01*
X128812481Y-102261015D01*
X128673100Y-102354147D01*
X128518228Y-102418297D01*
X128353816Y-102451000D01*
X128186184Y-102451000D01*
X128021772Y-102418297D01*
X127866900Y-102354147D01*
X127727519Y-102261015D01*
X127608985Y-102142481D01*
X127515853Y-102003100D01*
X127451703Y-101848228D01*
X127419000Y-101683816D01*
X127419000Y-101516184D01*
X127451703Y-101351772D01*
X127515853Y-101196900D01*
X127608985Y-101057519D01*
X127727519Y-100938985D01*
X127866900Y-100845853D01*
X128021772Y-100781703D01*
X128186184Y-100749000D01*
X128353816Y-100749000D01*
X128518228Y-100781703D01*
G37*
G36*
X61462228Y-99765703D02*
G01*
X61617100Y-99829853D01*
X61756481Y-99922985D01*
X61875015Y-100041519D01*
X61968147Y-100180900D01*
X62032297Y-100335772D01*
X62065000Y-100500184D01*
X62065000Y-100667816D01*
X62032297Y-100832228D01*
X61968147Y-100987100D01*
X61875015Y-101126481D01*
X61756481Y-101245015D01*
X61617100Y-101338147D01*
X61462228Y-101402297D01*
X61297816Y-101435000D01*
X61130184Y-101435000D01*
X60965772Y-101402297D01*
X60810900Y-101338147D01*
X60671519Y-101245015D01*
X60552985Y-101126481D01*
X60459853Y-100987100D01*
X60395703Y-100832228D01*
X60363000Y-100667816D01*
X60363000Y-100500184D01*
X60395703Y-100335772D01*
X60459853Y-100180900D01*
X60552985Y-100041519D01*
X60671519Y-99922985D01*
X60810900Y-99829853D01*
X60965772Y-99765703D01*
X61130184Y-99733000D01*
X61297816Y-99733000D01*
X61462228Y-99765703D01*
G37*
G36*
X64002228Y-99765703D02*
G01*
X64157100Y-99829853D01*
X64296481Y-99922985D01*
X64415015Y-100041519D01*
X64508147Y-100180900D01*
X64572297Y-100335772D01*
X64605000Y-100500184D01*
X64605000Y-100667816D01*
X64572297Y-100832228D01*
X64508147Y-100987100D01*
X64415015Y-101126481D01*
X64296481Y-101245015D01*
X64157100Y-101338147D01*
X64002228Y-101402297D01*
X63837816Y-101435000D01*
X63670184Y-101435000D01*
X63505772Y-101402297D01*
X63350900Y-101338147D01*
X63211519Y-101245015D01*
X63092985Y-101126481D01*
X62999853Y-100987100D01*
X62935703Y-100832228D01*
X62903000Y-100667816D01*
X62903000Y-100500184D01*
X62935703Y-100335772D01*
X62999853Y-100180900D01*
X63092985Y-100041519D01*
X63211519Y-99922985D01*
X63350900Y-99829853D01*
X63505772Y-99765703D01*
X63670184Y-99733000D01*
X63837816Y-99733000D01*
X64002228Y-99765703D01*
G37*
G36*
X110885548Y-99694583D02*
G01*
X111040420Y-99758733D01*
X111179801Y-99851865D01*
X111298335Y-99970399D01*
X111391467Y-100109780D01*
X111455617Y-100264652D01*
X111488320Y-100429064D01*
X111488320Y-100596696D01*
X111455617Y-100761108D01*
X111391467Y-100915980D01*
X111298335Y-101055361D01*
X111179801Y-101173895D01*
X111040420Y-101267027D01*
X110885548Y-101331177D01*
X110721136Y-101363880D01*
X110553504Y-101363880D01*
X110389092Y-101331177D01*
X110234220Y-101267027D01*
X110094839Y-101173895D01*
X109976305Y-101055361D01*
X109883173Y-100915980D01*
X109819023Y-100761108D01*
X109786320Y-100596696D01*
X109786320Y-100429064D01*
X109819023Y-100264652D01*
X109883173Y-100109780D01*
X109976305Y-99970399D01*
X110094839Y-99851865D01*
X110234220Y-99758733D01*
X110389092Y-99694583D01*
X110553504Y-99661880D01*
X110721136Y-99661880D01*
X110885548Y-99694583D01*
G37*
G36*
X104580694Y-98107833D02*
G01*
X104753095Y-98160131D01*
X104911983Y-98245058D01*
X105051249Y-98359351D01*
X105165542Y-98498617D01*
X105250469Y-98657505D01*
X105302767Y-98829906D01*
X105320425Y-99009200D01*
X105302767Y-99188494D01*
X105250469Y-99360895D01*
X105165542Y-99519783D01*
X105051249Y-99659049D01*
X104911983Y-99773342D01*
X104753095Y-99858269D01*
X104580694Y-99910567D01*
X104446331Y-99923800D01*
X103833669Y-99923800D01*
X103699306Y-99910567D01*
X103526905Y-99858269D01*
X103368017Y-99773342D01*
X103228751Y-99659049D01*
X103114458Y-99519783D01*
X103029531Y-99360895D01*
X102977233Y-99188494D01*
X102959575Y-99009200D01*
X102977233Y-98829906D01*
X103029531Y-98657505D01*
X103114458Y-98498617D01*
X103228751Y-98359351D01*
X103368017Y-98245058D01*
X103526905Y-98160131D01*
X103699306Y-98107833D01*
X103833669Y-98094600D01*
X104446331Y-98094600D01*
X104580694Y-98107833D01*
G37*
G36*
X119820694Y-98107833D02*
G01*
X119993095Y-98160131D01*
X120151983Y-98245058D01*
X120291249Y-98359351D01*
X120405542Y-98498617D01*
X120490469Y-98657505D01*
X120542767Y-98829906D01*
X120560425Y-99009200D01*
X120542767Y-99188494D01*
X120490469Y-99360895D01*
X120405542Y-99519783D01*
X120291249Y-99659049D01*
X120151983Y-99773342D01*
X119993095Y-99858269D01*
X119820694Y-99910567D01*
X119686331Y-99923800D01*
X119073669Y-99923800D01*
X118939306Y-99910567D01*
X118766905Y-99858269D01*
X118608017Y-99773342D01*
X118468751Y-99659049D01*
X118354458Y-99519783D01*
X118269531Y-99360895D01*
X118217233Y-99188494D01*
X118199575Y-99009200D01*
X118217233Y-98829906D01*
X118269531Y-98657505D01*
X118354458Y-98498617D01*
X118468751Y-98359351D01*
X118608017Y-98245058D01*
X118766905Y-98160131D01*
X118939306Y-98107833D01*
X119073669Y-98094600D01*
X119686331Y-98094600D01*
X119820694Y-98107833D01*
G37*
G36*
X128518228Y-98241703D02*
G01*
X128673100Y-98305853D01*
X128812481Y-98398985D01*
X128931015Y-98517519D01*
X129024147Y-98656900D01*
X129088297Y-98811772D01*
X129121000Y-98976184D01*
X129121000Y-99143816D01*
X129088297Y-99308228D01*
X129024147Y-99463100D01*
X128931015Y-99602481D01*
X128812481Y-99721015D01*
X128673100Y-99814147D01*
X128518228Y-99878297D01*
X128353816Y-99911000D01*
X128186184Y-99911000D01*
X128021772Y-99878297D01*
X127866900Y-99814147D01*
X127727519Y-99721015D01*
X127608985Y-99602481D01*
X127515853Y-99463100D01*
X127451703Y-99308228D01*
X127419000Y-99143816D01*
X127419000Y-98976184D01*
X127451703Y-98811772D01*
X127515853Y-98656900D01*
X127608985Y-98517519D01*
X127727519Y-98398985D01*
X127866900Y-98305853D01*
X128021772Y-98241703D01*
X128186184Y-98209000D01*
X128353816Y-98209000D01*
X128518228Y-98241703D01*
G37*
G36*
X136138228Y-98241703D02*
G01*
X136293100Y-98305853D01*
X136432481Y-98398985D01*
X136551015Y-98517519D01*
X136644147Y-98656900D01*
X136708297Y-98811772D01*
X136741000Y-98976184D01*
X136741000Y-99143816D01*
X136708297Y-99308228D01*
X136644147Y-99463100D01*
X136551015Y-99602481D01*
X136432481Y-99721015D01*
X136293100Y-99814147D01*
X136138228Y-99878297D01*
X135973816Y-99911000D01*
X135806184Y-99911000D01*
X135641772Y-99878297D01*
X135486900Y-99814147D01*
X135347519Y-99721015D01*
X135228985Y-99602481D01*
X135135853Y-99463100D01*
X135071703Y-99308228D01*
X135039000Y-99143816D01*
X135039000Y-98976184D01*
X135071703Y-98811772D01*
X135135853Y-98656900D01*
X135228985Y-98517519D01*
X135347519Y-98398985D01*
X135486900Y-98305853D01*
X135641772Y-98241703D01*
X135806184Y-98209000D01*
X135973816Y-98209000D01*
X136138228Y-98241703D01*
G37*
G36*
X104580694Y-95567833D02*
G01*
X104753095Y-95620131D01*
X104911983Y-95705058D01*
X105051249Y-95819351D01*
X105165542Y-95958617D01*
X105250469Y-96117505D01*
X105302767Y-96289906D01*
X105320425Y-96469200D01*
X105302767Y-96648494D01*
X105250469Y-96820895D01*
X105165542Y-96979783D01*
X105051249Y-97119049D01*
X104911983Y-97233342D01*
X104753095Y-97318269D01*
X104580694Y-97370567D01*
X104446331Y-97383800D01*
X103833669Y-97383800D01*
X103699306Y-97370567D01*
X103526905Y-97318269D01*
X103368017Y-97233342D01*
X103228751Y-97119049D01*
X103114458Y-96979783D01*
X103029531Y-96820895D01*
X102977233Y-96648494D01*
X102959575Y-96469200D01*
X102977233Y-96289906D01*
X103029531Y-96117505D01*
X103114458Y-95958617D01*
X103228751Y-95819351D01*
X103368017Y-95705058D01*
X103526905Y-95620131D01*
X103699306Y-95567833D01*
X103833669Y-95554600D01*
X104446331Y-95554600D01*
X104580694Y-95567833D01*
G37*
G36*
X119820694Y-95567833D02*
G01*
X119993095Y-95620131D01*
X120151983Y-95705058D01*
X120291249Y-95819351D01*
X120405542Y-95958617D01*
X120490469Y-96117505D01*
X120542767Y-96289906D01*
X120560425Y-96469200D01*
X120542767Y-96648494D01*
X120490469Y-96820895D01*
X120405542Y-96979783D01*
X120291249Y-97119049D01*
X120151983Y-97233342D01*
X119993095Y-97318269D01*
X119820694Y-97370567D01*
X119686331Y-97383800D01*
X119073669Y-97383800D01*
X118939306Y-97370567D01*
X118766905Y-97318269D01*
X118608017Y-97233342D01*
X118468751Y-97119049D01*
X118354458Y-96979783D01*
X118269531Y-96820895D01*
X118217233Y-96648494D01*
X118199575Y-96469200D01*
X118217233Y-96289906D01*
X118269531Y-96117505D01*
X118354458Y-95958617D01*
X118468751Y-95819351D01*
X118608017Y-95705058D01*
X118766905Y-95620131D01*
X118939306Y-95567833D01*
X119073669Y-95554600D01*
X119686331Y-95554600D01*
X119820694Y-95567833D01*
G37*
G36*
X136138228Y-95701703D02*
G01*
X136293100Y-95765853D01*
X136432481Y-95858985D01*
X136551015Y-95977519D01*
X136644147Y-96116900D01*
X136708297Y-96271772D01*
X136741000Y-96436184D01*
X136741000Y-96603816D01*
X136708297Y-96768228D01*
X136644147Y-96923100D01*
X136551015Y-97062481D01*
X136432481Y-97181015D01*
X136293100Y-97274147D01*
X136138228Y-97338297D01*
X135973816Y-97371000D01*
X135806184Y-97371000D01*
X135641772Y-97338297D01*
X135486900Y-97274147D01*
X135347519Y-97181015D01*
X135228985Y-97062481D01*
X135135853Y-96923100D01*
X135071703Y-96768228D01*
X135039000Y-96603816D01*
X135039000Y-96436184D01*
X135071703Y-96271772D01*
X135135853Y-96116900D01*
X135228985Y-95977519D01*
X135347519Y-95858985D01*
X135486900Y-95765853D01*
X135641772Y-95701703D01*
X135806184Y-95669000D01*
X135973816Y-95669000D01*
X136138228Y-95701703D01*
G37*
G36*
X128518228Y-95701703D02*
G01*
X128673100Y-95765853D01*
X128812481Y-95858985D01*
X128931015Y-95977519D01*
X129024147Y-96116900D01*
X129088297Y-96271772D01*
X129121000Y-96436184D01*
X129121000Y-96603816D01*
X129088297Y-96768228D01*
X129024147Y-96923100D01*
X128931015Y-97062481D01*
X128812481Y-97181015D01*
X128673100Y-97274147D01*
X128518228Y-97338297D01*
X128353816Y-97371000D01*
X128186184Y-97371000D01*
X128021772Y-97338297D01*
X127866900Y-97274147D01*
X127727519Y-97181015D01*
X127608985Y-97062481D01*
X127515853Y-96923100D01*
X127451703Y-96768228D01*
X127419000Y-96603816D01*
X127419000Y-96436184D01*
X127451703Y-96271772D01*
X127515853Y-96116900D01*
X127608985Y-95977519D01*
X127727519Y-95858985D01*
X127866900Y-95765853D01*
X128021772Y-95701703D01*
X128186184Y-95669000D01*
X128353816Y-95669000D01*
X128518228Y-95701703D01*
G37*
G36*
X114151988Y-95249583D02*
G01*
X114306860Y-95313733D01*
X114446241Y-95406865D01*
X114564775Y-95525399D01*
X114657907Y-95664780D01*
X114722057Y-95819652D01*
X114754760Y-95984064D01*
X114754760Y-96151696D01*
X114722057Y-96316108D01*
X114657907Y-96470980D01*
X114564775Y-96610361D01*
X114446241Y-96728895D01*
X114306860Y-96822027D01*
X114151988Y-96886177D01*
X113987576Y-96918880D01*
X113819944Y-96918880D01*
X113655532Y-96886177D01*
X113500660Y-96822027D01*
X113361279Y-96728895D01*
X113242745Y-96610361D01*
X113149613Y-96470980D01*
X113085463Y-96316108D01*
X113052760Y-96151696D01*
X113052760Y-95984064D01*
X113085463Y-95819652D01*
X113149613Y-95664780D01*
X113242745Y-95525399D01*
X113361279Y-95406865D01*
X113500660Y-95313733D01*
X113655532Y-95249583D01*
X113819944Y-95216880D01*
X113987576Y-95216880D01*
X114151988Y-95249583D01*
G37*
G36*
X167803467Y-94195668D02*
G01*
X167819567Y-94197254D01*
X167905899Y-94223443D01*
X167992233Y-94249632D01*
X168151364Y-94334689D01*
X168290844Y-94449156D01*
X168405311Y-94588635D01*
X168490368Y-94747766D01*
X168542746Y-94920433D01*
X168556000Y-95055002D01*
X168556000Y-95444997D01*
X168548081Y-95525399D01*
X168542746Y-95579567D01*
X168530441Y-95620131D01*
X168490368Y-95752234D01*
X168405311Y-95911365D01*
X168290844Y-96050844D01*
X168151365Y-96165311D01*
X167992234Y-96250368D01*
X167905900Y-96276557D01*
X167819568Y-96302746D01*
X167803468Y-96304332D01*
X167640000Y-96320432D01*
X167476533Y-96304332D01*
X167460433Y-96302746D01*
X167374101Y-96276557D01*
X167287767Y-96250368D01*
X167128636Y-96165311D01*
X166989157Y-96050844D01*
X166874689Y-95911365D01*
X166789632Y-95752234D01*
X166737254Y-95579567D01*
X166724000Y-95444998D01*
X166724000Y-95055003D01*
X166737254Y-94920434D01*
X166737255Y-94920432D01*
X166771253Y-94808354D01*
X166789632Y-94747767D01*
X166874689Y-94588636D01*
X166989156Y-94449156D01*
X167128635Y-94334689D01*
X167287766Y-94249632D01*
X167374100Y-94223443D01*
X167460432Y-94197254D01*
X167476532Y-94195668D01*
X167640000Y-94179568D01*
X167803467Y-94195668D01*
G37*
G36*
X144943467Y-94195668D02*
G01*
X144959567Y-94197254D01*
X145045899Y-94223443D01*
X145132233Y-94249632D01*
X145291364Y-94334689D01*
X145430844Y-94449156D01*
X145545311Y-94588635D01*
X145630368Y-94747766D01*
X145682746Y-94920433D01*
X145696000Y-95055002D01*
X145696000Y-95444997D01*
X145688081Y-95525399D01*
X145682746Y-95579567D01*
X145670441Y-95620131D01*
X145630368Y-95752234D01*
X145545311Y-95911365D01*
X145430844Y-96050844D01*
X145291365Y-96165311D01*
X145132234Y-96250368D01*
X145045900Y-96276557D01*
X144959568Y-96302746D01*
X144943468Y-96304332D01*
X144780000Y-96320432D01*
X144616533Y-96304332D01*
X144600433Y-96302746D01*
X144514101Y-96276557D01*
X144427767Y-96250368D01*
X144268636Y-96165311D01*
X144129157Y-96050844D01*
X144014689Y-95911365D01*
X143929632Y-95752234D01*
X143877254Y-95579567D01*
X143864000Y-95444998D01*
X143864000Y-95055003D01*
X143877254Y-94920434D01*
X143877255Y-94920432D01*
X143911253Y-94808354D01*
X143929632Y-94747767D01*
X144014689Y-94588636D01*
X144129156Y-94449156D01*
X144268635Y-94334689D01*
X144427766Y-94249632D01*
X144514100Y-94223443D01*
X144600432Y-94197254D01*
X144616532Y-94195668D01*
X144780000Y-94179568D01*
X144943467Y-94195668D01*
G37*
G36*
X165263467Y-94195668D02*
G01*
X165279567Y-94197254D01*
X165365899Y-94223443D01*
X165452233Y-94249632D01*
X165611364Y-94334689D01*
X165750844Y-94449156D01*
X165865311Y-94588635D01*
X165950368Y-94747766D01*
X166002746Y-94920433D01*
X166016000Y-95055002D01*
X166016000Y-95444997D01*
X166008081Y-95525399D01*
X166002746Y-95579567D01*
X165990441Y-95620131D01*
X165950368Y-95752234D01*
X165865311Y-95911365D01*
X165750844Y-96050844D01*
X165611365Y-96165311D01*
X165452234Y-96250368D01*
X165365900Y-96276557D01*
X165279568Y-96302746D01*
X165263468Y-96304332D01*
X165100000Y-96320432D01*
X164936533Y-96304332D01*
X164920433Y-96302746D01*
X164834101Y-96276557D01*
X164747767Y-96250368D01*
X164588636Y-96165311D01*
X164449157Y-96050844D01*
X164334689Y-95911365D01*
X164249632Y-95752234D01*
X164197254Y-95579567D01*
X164184000Y-95444998D01*
X164184000Y-95055003D01*
X164197254Y-94920434D01*
X164197255Y-94920432D01*
X164231253Y-94808354D01*
X164249632Y-94747767D01*
X164334689Y-94588636D01*
X164449156Y-94449156D01*
X164588635Y-94334689D01*
X164747766Y-94249632D01*
X164834100Y-94223443D01*
X164920432Y-94197254D01*
X164936532Y-94195668D01*
X165100000Y-94179568D01*
X165263467Y-94195668D01*
G37*
G36*
X155103467Y-94195668D02*
G01*
X155119567Y-94197254D01*
X155205899Y-94223443D01*
X155292233Y-94249632D01*
X155451364Y-94334689D01*
X155590844Y-94449156D01*
X155705311Y-94588635D01*
X155790368Y-94747766D01*
X155842746Y-94920433D01*
X155856000Y-95055002D01*
X155856000Y-95444997D01*
X155848081Y-95525399D01*
X155842746Y-95579567D01*
X155830441Y-95620131D01*
X155790368Y-95752234D01*
X155705311Y-95911365D01*
X155590844Y-96050844D01*
X155451365Y-96165311D01*
X155292234Y-96250368D01*
X155205900Y-96276557D01*
X155119568Y-96302746D01*
X155103468Y-96304332D01*
X154940000Y-96320432D01*
X154776533Y-96304332D01*
X154760433Y-96302746D01*
X154674101Y-96276557D01*
X154587767Y-96250368D01*
X154428636Y-96165311D01*
X154289157Y-96050844D01*
X154174689Y-95911365D01*
X154089632Y-95752234D01*
X154037254Y-95579567D01*
X154024000Y-95444998D01*
X154024000Y-95055003D01*
X154037254Y-94920434D01*
X154037255Y-94920432D01*
X154071253Y-94808354D01*
X154089632Y-94747767D01*
X154174689Y-94588636D01*
X154289156Y-94449156D01*
X154428635Y-94334689D01*
X154587766Y-94249632D01*
X154674100Y-94223443D01*
X154760432Y-94197254D01*
X154776532Y-94195668D01*
X154940000Y-94179568D01*
X155103467Y-94195668D01*
G37*
G36*
X157643467Y-94195668D02*
G01*
X157659567Y-94197254D01*
X157745899Y-94223443D01*
X157832233Y-94249632D01*
X157991364Y-94334689D01*
X158130844Y-94449156D01*
X158245311Y-94588635D01*
X158330368Y-94747766D01*
X158382746Y-94920433D01*
X158396000Y-95055002D01*
X158396000Y-95444997D01*
X158388081Y-95525399D01*
X158382746Y-95579567D01*
X158370441Y-95620131D01*
X158330368Y-95752234D01*
X158245311Y-95911365D01*
X158130844Y-96050844D01*
X157991365Y-96165311D01*
X157832234Y-96250368D01*
X157745900Y-96276557D01*
X157659568Y-96302746D01*
X157643468Y-96304332D01*
X157480000Y-96320432D01*
X157316533Y-96304332D01*
X157300433Y-96302746D01*
X157214101Y-96276557D01*
X157127767Y-96250368D01*
X156968636Y-96165311D01*
X156829157Y-96050844D01*
X156714689Y-95911365D01*
X156629632Y-95752234D01*
X156577254Y-95579567D01*
X156564000Y-95444998D01*
X156564000Y-95055003D01*
X156577254Y-94920434D01*
X156577255Y-94920432D01*
X156611253Y-94808354D01*
X156629632Y-94747767D01*
X156714689Y-94588636D01*
X156829156Y-94449156D01*
X156968635Y-94334689D01*
X157127766Y-94249632D01*
X157214100Y-94223443D01*
X157300432Y-94197254D01*
X157316532Y-94195668D01*
X157480000Y-94179568D01*
X157643467Y-94195668D01*
G37*
G36*
X147483467Y-94195668D02*
G01*
X147499567Y-94197254D01*
X147585899Y-94223443D01*
X147672233Y-94249632D01*
X147831364Y-94334689D01*
X147970844Y-94449156D01*
X148085311Y-94588635D01*
X148170368Y-94747766D01*
X148222746Y-94920433D01*
X148236000Y-95055002D01*
X148236000Y-95444997D01*
X148228081Y-95525399D01*
X148222746Y-95579567D01*
X148210441Y-95620131D01*
X148170368Y-95752234D01*
X148085311Y-95911365D01*
X147970844Y-96050844D01*
X147831365Y-96165311D01*
X147672234Y-96250368D01*
X147585900Y-96276557D01*
X147499568Y-96302746D01*
X147483468Y-96304332D01*
X147320000Y-96320432D01*
X147156533Y-96304332D01*
X147140433Y-96302746D01*
X147054101Y-96276557D01*
X146967767Y-96250368D01*
X146808636Y-96165311D01*
X146669157Y-96050844D01*
X146554689Y-95911365D01*
X146469632Y-95752234D01*
X146417254Y-95579567D01*
X146404000Y-95444998D01*
X146404000Y-95055003D01*
X146417254Y-94920434D01*
X146417255Y-94920432D01*
X146451253Y-94808354D01*
X146469632Y-94747767D01*
X146554689Y-94588636D01*
X146669156Y-94449156D01*
X146808635Y-94334689D01*
X146967766Y-94249632D01*
X147054100Y-94223443D01*
X147140432Y-94197254D01*
X147156532Y-94195668D01*
X147320000Y-94179568D01*
X147483467Y-94195668D01*
G37*
G36*
X153316000Y-96316000D02*
G01*
X151484000Y-96316000D01*
X151484000Y-94184000D01*
X153316000Y-94184000D01*
X153316000Y-96316000D01*
G37*
G36*
X163476000Y-96316000D02*
G01*
X161644000Y-96316000D01*
X161644000Y-94184000D01*
X163476000Y-94184000D01*
X163476000Y-96316000D01*
G37*
G36*
X143156000Y-96316000D02*
G01*
X141324000Y-96316000D01*
X141324000Y-94184000D01*
X143156000Y-94184000D01*
X143156000Y-96316000D01*
G37*
G36*
X67195000Y-95135000D02*
G01*
X65393000Y-95135000D01*
X65393000Y-93333000D01*
X67195000Y-93333000D01*
X67195000Y-95135000D01*
G37*
G36*
X63867512Y-93337927D02*
G01*
X64016812Y-93367624D01*
X64180784Y-93435544D01*
X64328354Y-93534147D01*
X64453853Y-93659646D01*
X64552456Y-93807216D01*
X64620376Y-93971188D01*
X64638800Y-94063815D01*
X64655000Y-94145258D01*
X64655000Y-94322742D01*
X64650073Y-94347512D01*
X64620376Y-94496812D01*
X64552456Y-94660784D01*
X64453853Y-94808354D01*
X64328354Y-94933853D01*
X64180784Y-95032456D01*
X64016812Y-95100376D01*
X63867512Y-95130073D01*
X63842742Y-95135000D01*
X63665258Y-95135000D01*
X63640488Y-95130073D01*
X63491188Y-95100376D01*
X63327216Y-95032456D01*
X63179646Y-94933853D01*
X63054147Y-94808354D01*
X62955544Y-94660784D01*
X62887624Y-94496812D01*
X62857927Y-94347512D01*
X62853000Y-94322742D01*
X62853000Y-94145258D01*
X62869200Y-94063815D01*
X62887624Y-93971188D01*
X62955544Y-93807216D01*
X63054147Y-93659646D01*
X63179646Y-93534147D01*
X63327216Y-93435544D01*
X63491188Y-93367624D01*
X63640488Y-93337927D01*
X63665258Y-93333000D01*
X63842742Y-93333000D01*
X63867512Y-93337927D01*
G37*
G36*
X104580694Y-93027833D02*
G01*
X104753095Y-93080131D01*
X104911983Y-93165058D01*
X105051249Y-93279351D01*
X105165542Y-93418617D01*
X105250469Y-93577505D01*
X105302767Y-93749906D01*
X105320425Y-93929200D01*
X105302767Y-94108494D01*
X105250469Y-94280895D01*
X105165542Y-94439783D01*
X105051249Y-94579049D01*
X104911983Y-94693342D01*
X104753095Y-94778269D01*
X104580694Y-94830567D01*
X104446331Y-94843800D01*
X103833669Y-94843800D01*
X103699306Y-94830567D01*
X103526905Y-94778269D01*
X103368017Y-94693342D01*
X103228751Y-94579049D01*
X103114458Y-94439783D01*
X103029531Y-94280895D01*
X102977233Y-94108494D01*
X102959575Y-93929200D01*
X102977233Y-93749906D01*
X103029531Y-93577505D01*
X103114458Y-93418617D01*
X103228751Y-93279351D01*
X103368017Y-93165058D01*
X103526905Y-93080131D01*
X103699306Y-93027833D01*
X103833669Y-93014600D01*
X104446331Y-93014600D01*
X104580694Y-93027833D01*
G37*
G36*
X119820694Y-93027833D02*
G01*
X119993095Y-93080131D01*
X120151983Y-93165058D01*
X120291249Y-93279351D01*
X120405542Y-93418617D01*
X120490469Y-93577505D01*
X120542767Y-93749906D01*
X120560425Y-93929200D01*
X120542767Y-94108494D01*
X120490469Y-94280895D01*
X120405542Y-94439783D01*
X120291249Y-94579049D01*
X120151983Y-94693342D01*
X119993095Y-94778269D01*
X119820694Y-94830567D01*
X119686331Y-94843800D01*
X119073669Y-94843800D01*
X118939306Y-94830567D01*
X118766905Y-94778269D01*
X118608017Y-94693342D01*
X118468751Y-94579049D01*
X118354458Y-94439783D01*
X118269531Y-94280895D01*
X118217233Y-94108494D01*
X118199575Y-93929200D01*
X118217233Y-93749906D01*
X118269531Y-93577505D01*
X118354458Y-93418617D01*
X118468751Y-93279351D01*
X118608017Y-93165058D01*
X118766905Y-93080131D01*
X118939306Y-93027833D01*
X119073669Y-93014600D01*
X119686331Y-93014600D01*
X119820694Y-93027833D01*
G37*
G36*
X128518228Y-93161703D02*
G01*
X128673100Y-93225853D01*
X128812481Y-93318985D01*
X128931015Y-93437519D01*
X129024147Y-93576900D01*
X129088297Y-93731772D01*
X129121000Y-93896184D01*
X129121000Y-94063816D01*
X129088297Y-94228228D01*
X129024147Y-94383100D01*
X128931015Y-94522481D01*
X128812481Y-94641015D01*
X128673100Y-94734147D01*
X128518228Y-94798297D01*
X128353816Y-94831000D01*
X128186184Y-94831000D01*
X128021772Y-94798297D01*
X127866900Y-94734147D01*
X127727519Y-94641015D01*
X127608985Y-94522481D01*
X127515853Y-94383100D01*
X127451703Y-94228228D01*
X127419000Y-94063816D01*
X127419000Y-93896184D01*
X127451703Y-93731772D01*
X127515853Y-93576900D01*
X127608985Y-93437519D01*
X127727519Y-93318985D01*
X127866900Y-93225853D01*
X128021772Y-93161703D01*
X128186184Y-93129000D01*
X128353816Y-93129000D01*
X128518228Y-93161703D01*
G37*
G36*
X136138228Y-93161703D02*
G01*
X136293100Y-93225853D01*
X136432481Y-93318985D01*
X136551015Y-93437519D01*
X136644147Y-93576900D01*
X136708297Y-93731772D01*
X136741000Y-93896184D01*
X136741000Y-94063816D01*
X136708297Y-94228228D01*
X136644147Y-94383100D01*
X136551015Y-94522481D01*
X136432481Y-94641015D01*
X136293100Y-94734147D01*
X136138228Y-94798297D01*
X135973816Y-94831000D01*
X135806184Y-94831000D01*
X135641772Y-94798297D01*
X135486900Y-94734147D01*
X135347519Y-94641015D01*
X135228985Y-94522481D01*
X135135853Y-94383100D01*
X135071703Y-94228228D01*
X135039000Y-94063816D01*
X135039000Y-93896184D01*
X135071703Y-93731772D01*
X135135853Y-93576900D01*
X135228985Y-93437519D01*
X135347519Y-93318985D01*
X135486900Y-93225853D01*
X135641772Y-93161703D01*
X135806184Y-93129000D01*
X135973816Y-93129000D01*
X136138228Y-93161703D01*
G37*
G36*
X110885548Y-92074583D02*
G01*
X111040420Y-92138733D01*
X111179801Y-92231865D01*
X111298335Y-92350399D01*
X111391467Y-92489780D01*
X111455617Y-92644652D01*
X111488320Y-92809064D01*
X111488320Y-92976696D01*
X111455617Y-93141108D01*
X111391467Y-93295980D01*
X111298335Y-93435361D01*
X111179801Y-93553895D01*
X111040420Y-93647027D01*
X110885548Y-93711177D01*
X110721136Y-93743880D01*
X110553504Y-93743880D01*
X110389092Y-93711177D01*
X110234220Y-93647027D01*
X110094839Y-93553895D01*
X109976305Y-93435361D01*
X109883173Y-93295980D01*
X109819023Y-93141108D01*
X109786320Y-92976696D01*
X109786320Y-92809064D01*
X109819023Y-92644652D01*
X109883173Y-92489780D01*
X109976305Y-92350399D01*
X110094839Y-92231865D01*
X110234220Y-92138733D01*
X110389092Y-92074583D01*
X110553504Y-92041880D01*
X110721136Y-92041880D01*
X110885548Y-92074583D01*
G37*
G36*
X119820694Y-90487833D02*
G01*
X119993095Y-90540131D01*
X120151983Y-90625058D01*
X120291249Y-90739351D01*
X120405542Y-90878617D01*
X120490469Y-91037505D01*
X120542767Y-91209906D01*
X120560425Y-91389200D01*
X120542767Y-91568494D01*
X120490469Y-91740895D01*
X120405542Y-91899783D01*
X120291249Y-92039049D01*
X120151983Y-92153342D01*
X119993095Y-92238269D01*
X119820694Y-92290567D01*
X119686331Y-92303800D01*
X119073669Y-92303800D01*
X118939306Y-92290567D01*
X118766905Y-92238269D01*
X118608017Y-92153342D01*
X118468751Y-92039049D01*
X118354458Y-91899783D01*
X118269531Y-91740895D01*
X118217233Y-91568494D01*
X118199575Y-91389200D01*
X118217233Y-91209906D01*
X118269531Y-91037505D01*
X118354458Y-90878617D01*
X118468751Y-90739351D01*
X118608017Y-90625058D01*
X118766905Y-90540131D01*
X118939306Y-90487833D01*
X119073669Y-90474600D01*
X119686331Y-90474600D01*
X119820694Y-90487833D01*
G37*
G36*
X104580694Y-90487833D02*
G01*
X104753095Y-90540131D01*
X104911983Y-90625058D01*
X105051249Y-90739351D01*
X105165542Y-90878617D01*
X105250469Y-91037505D01*
X105302767Y-91209906D01*
X105320425Y-91389200D01*
X105302767Y-91568494D01*
X105250469Y-91740895D01*
X105165542Y-91899783D01*
X105051249Y-92039049D01*
X104911983Y-92153342D01*
X104753095Y-92238269D01*
X104580694Y-92290567D01*
X104446331Y-92303800D01*
X103833669Y-92303800D01*
X103699306Y-92290567D01*
X103526905Y-92238269D01*
X103368017Y-92153342D01*
X103228751Y-92039049D01*
X103114458Y-91899783D01*
X103029531Y-91740895D01*
X102977233Y-91568494D01*
X102959575Y-91389200D01*
X102977233Y-91209906D01*
X103029531Y-91037505D01*
X103114458Y-90878617D01*
X103228751Y-90739351D01*
X103368017Y-90625058D01*
X103526905Y-90540131D01*
X103699306Y-90487833D01*
X103833669Y-90474600D01*
X104446331Y-90474600D01*
X104580694Y-90487833D01*
G37*
G36*
X136138228Y-90621703D02*
G01*
X136293100Y-90685853D01*
X136432481Y-90778985D01*
X136551015Y-90897519D01*
X136644147Y-91036900D01*
X136708297Y-91191772D01*
X136741000Y-91356184D01*
X136741000Y-91523816D01*
X136708297Y-91688228D01*
X136644147Y-91843100D01*
X136551015Y-91982481D01*
X136432481Y-92101015D01*
X136293100Y-92194147D01*
X136138228Y-92258297D01*
X135973816Y-92291000D01*
X135806184Y-92291000D01*
X135641772Y-92258297D01*
X135486900Y-92194147D01*
X135347519Y-92101015D01*
X135228985Y-91982481D01*
X135135853Y-91843100D01*
X135071703Y-91688228D01*
X135039000Y-91523816D01*
X135039000Y-91356184D01*
X135071703Y-91191772D01*
X135135853Y-91036900D01*
X135228985Y-90897519D01*
X135347519Y-90778985D01*
X135486900Y-90685853D01*
X135641772Y-90621703D01*
X135806184Y-90589000D01*
X135973816Y-90589000D01*
X136138228Y-90621703D01*
G37*
G36*
X128518228Y-90621703D02*
G01*
X128673100Y-90685853D01*
X128812481Y-90778985D01*
X128931015Y-90897519D01*
X129024147Y-91036900D01*
X129088297Y-91191772D01*
X129121000Y-91356184D01*
X129121000Y-91523816D01*
X129088297Y-91688228D01*
X129024147Y-91843100D01*
X128931015Y-91982481D01*
X128812481Y-92101015D01*
X128673100Y-92194147D01*
X128518228Y-92258297D01*
X128353816Y-92291000D01*
X128186184Y-92291000D01*
X128021772Y-92258297D01*
X127866900Y-92194147D01*
X127727519Y-92101015D01*
X127608985Y-91982481D01*
X127515853Y-91843100D01*
X127451703Y-91688228D01*
X127419000Y-91523816D01*
X127419000Y-91356184D01*
X127451703Y-91191772D01*
X127515853Y-91036900D01*
X127608985Y-90897519D01*
X127727519Y-90778985D01*
X127866900Y-90685853D01*
X128021772Y-90621703D01*
X128186184Y-90589000D01*
X128353816Y-90589000D01*
X128518228Y-90621703D01*
G37*
G36*
X104580694Y-87947833D02*
G01*
X104753095Y-88000131D01*
X104911983Y-88085058D01*
X105051249Y-88199351D01*
X105165542Y-88338617D01*
X105250469Y-88497505D01*
X105302767Y-88669906D01*
X105320425Y-88849200D01*
X105302767Y-89028494D01*
X105250469Y-89200895D01*
X105165542Y-89359783D01*
X105051249Y-89499049D01*
X104911983Y-89613342D01*
X104753095Y-89698269D01*
X104580694Y-89750567D01*
X104446331Y-89763800D01*
X103833669Y-89763800D01*
X103699306Y-89750567D01*
X103526905Y-89698269D01*
X103368017Y-89613342D01*
X103228751Y-89499049D01*
X103114458Y-89359783D01*
X103029531Y-89200895D01*
X102977233Y-89028494D01*
X102959575Y-88849200D01*
X102977233Y-88669906D01*
X103029531Y-88497505D01*
X103114458Y-88338617D01*
X103228751Y-88199351D01*
X103368017Y-88085058D01*
X103526905Y-88000131D01*
X103699306Y-87947833D01*
X103833669Y-87934600D01*
X104446331Y-87934600D01*
X104580694Y-87947833D01*
G37*
G36*
X119820694Y-87947833D02*
G01*
X119993095Y-88000131D01*
X120151983Y-88085058D01*
X120291249Y-88199351D01*
X120405542Y-88338617D01*
X120490469Y-88497505D01*
X120542767Y-88669906D01*
X120560425Y-88849200D01*
X120542767Y-89028494D01*
X120490469Y-89200895D01*
X120405542Y-89359783D01*
X120291249Y-89499049D01*
X120151983Y-89613342D01*
X119993095Y-89698269D01*
X119820694Y-89750567D01*
X119686331Y-89763800D01*
X119073669Y-89763800D01*
X118939306Y-89750567D01*
X118766905Y-89698269D01*
X118608017Y-89613342D01*
X118468751Y-89499049D01*
X118354458Y-89359783D01*
X118269531Y-89200895D01*
X118217233Y-89028494D01*
X118199575Y-88849200D01*
X118217233Y-88669906D01*
X118269531Y-88497505D01*
X118354458Y-88338617D01*
X118468751Y-88199351D01*
X118608017Y-88085058D01*
X118766905Y-88000131D01*
X118939306Y-87947833D01*
X119073669Y-87934600D01*
X119686331Y-87934600D01*
X119820694Y-87947833D01*
G37*
G36*
X129121000Y-89751000D02*
G01*
X127419000Y-89751000D01*
X127419000Y-88049000D01*
X129121000Y-88049000D01*
X129121000Y-89751000D01*
G37*
G36*
X136138228Y-88081703D02*
G01*
X136293100Y-88145853D01*
X136432481Y-88238985D01*
X136551015Y-88357519D01*
X136644147Y-88496900D01*
X136708297Y-88651772D01*
X136741000Y-88816184D01*
X136741000Y-88983816D01*
X136708297Y-89148228D01*
X136644147Y-89303100D01*
X136551015Y-89442481D01*
X136432481Y-89561015D01*
X136293100Y-89654147D01*
X136138228Y-89718297D01*
X135973816Y-89751000D01*
X135806184Y-89751000D01*
X135641772Y-89718297D01*
X135486900Y-89654147D01*
X135347519Y-89561015D01*
X135228985Y-89442481D01*
X135135853Y-89303100D01*
X135071703Y-89148228D01*
X135039000Y-88983816D01*
X135039000Y-88816184D01*
X135071703Y-88651772D01*
X135135853Y-88496900D01*
X135228985Y-88357519D01*
X135347519Y-88238985D01*
X135486900Y-88145853D01*
X135641772Y-88081703D01*
X135806184Y-88049000D01*
X135973816Y-88049000D01*
X136138228Y-88081703D01*
G37*
G36*
X114151988Y-87629583D02*
G01*
X114306860Y-87693733D01*
X114446241Y-87786865D01*
X114564775Y-87905399D01*
X114657907Y-88044780D01*
X114722057Y-88199652D01*
X114754760Y-88364064D01*
X114754760Y-88531696D01*
X114722057Y-88696108D01*
X114657907Y-88850980D01*
X114564775Y-88990361D01*
X114446241Y-89108895D01*
X114306860Y-89202027D01*
X114151988Y-89266177D01*
X113987576Y-89298880D01*
X113819944Y-89298880D01*
X113655532Y-89266177D01*
X113500660Y-89202027D01*
X113361279Y-89108895D01*
X113242745Y-88990361D01*
X113149613Y-88850980D01*
X113085463Y-88696108D01*
X113052760Y-88531696D01*
X113052760Y-88364064D01*
X113085463Y-88199652D01*
X113149613Y-88044780D01*
X113242745Y-87905399D01*
X113361279Y-87786865D01*
X113500660Y-87693733D01*
X113655532Y-87629583D01*
X113819944Y-87596880D01*
X113987576Y-87596880D01*
X114151988Y-87629583D01*
G37*
G36*
X95918513Y-87368927D02*
G01*
X96067813Y-87398624D01*
X96231785Y-87466544D01*
X96379355Y-87565147D01*
X96504854Y-87690646D01*
X96603457Y-87838216D01*
X96671377Y-88002188D01*
X96699953Y-88145852D01*
X96706001Y-88176258D01*
X96706001Y-88353742D01*
X96701074Y-88378512D01*
X96671377Y-88527812D01*
X96603457Y-88691784D01*
X96504854Y-88839354D01*
X96379355Y-88964853D01*
X96231785Y-89063456D01*
X96067813Y-89131376D01*
X95918513Y-89161073D01*
X95893743Y-89166000D01*
X95716259Y-89166000D01*
X95691489Y-89161073D01*
X95542189Y-89131376D01*
X95378217Y-89063456D01*
X95230647Y-88964853D01*
X95105148Y-88839354D01*
X95006545Y-88691784D01*
X94938625Y-88527812D01*
X94908928Y-88378512D01*
X94904001Y-88353742D01*
X94904001Y-88176258D01*
X94910049Y-88145852D01*
X94938625Y-88002188D01*
X95006545Y-87838216D01*
X95105148Y-87690646D01*
X95230647Y-87565147D01*
X95378217Y-87466544D01*
X95542189Y-87398624D01*
X95691489Y-87368927D01*
X95716259Y-87364000D01*
X95893743Y-87364000D01*
X95918513Y-87368927D01*
G37*
G36*
X75598513Y-87368927D02*
G01*
X75747813Y-87398624D01*
X75911785Y-87466544D01*
X76059355Y-87565147D01*
X76184854Y-87690646D01*
X76283457Y-87838216D01*
X76351377Y-88002188D01*
X76379953Y-88145852D01*
X76386001Y-88176258D01*
X76386001Y-88353742D01*
X76381074Y-88378512D01*
X76351377Y-88527812D01*
X76283457Y-88691784D01*
X76184854Y-88839354D01*
X76059355Y-88964853D01*
X75911785Y-89063456D01*
X75747813Y-89131376D01*
X75598513Y-89161073D01*
X75573743Y-89166000D01*
X75396259Y-89166000D01*
X75371489Y-89161073D01*
X75222189Y-89131376D01*
X75058217Y-89063456D01*
X74910647Y-88964853D01*
X74785148Y-88839354D01*
X74686545Y-88691784D01*
X74618625Y-88527812D01*
X74588928Y-88378512D01*
X74584001Y-88353742D01*
X74584001Y-88176258D01*
X74590049Y-88145852D01*
X74618625Y-88002188D01*
X74686545Y-87838216D01*
X74785148Y-87690646D01*
X74910647Y-87565147D01*
X75058217Y-87466544D01*
X75222189Y-87398624D01*
X75371489Y-87368927D01*
X75396259Y-87364000D01*
X75573743Y-87364000D01*
X75598513Y-87368927D01*
G37*
G36*
X73846001Y-89166000D02*
G01*
X72044001Y-89166000D01*
X72044001Y-87364000D01*
X73846001Y-87364000D01*
X73846001Y-89166000D01*
G37*
G36*
X78138513Y-87368927D02*
G01*
X78287813Y-87398624D01*
X78451785Y-87466544D01*
X78599355Y-87565147D01*
X78724854Y-87690646D01*
X78823457Y-87838216D01*
X78891377Y-88002188D01*
X78919953Y-88145852D01*
X78926001Y-88176258D01*
X78926001Y-88353742D01*
X78921074Y-88378512D01*
X78891377Y-88527812D01*
X78823457Y-88691784D01*
X78724854Y-88839354D01*
X78599355Y-88964853D01*
X78451785Y-89063456D01*
X78287813Y-89131376D01*
X78138513Y-89161073D01*
X78113743Y-89166000D01*
X77936259Y-89166000D01*
X77911489Y-89161073D01*
X77762189Y-89131376D01*
X77598217Y-89063456D01*
X77450647Y-88964853D01*
X77325148Y-88839354D01*
X77226545Y-88691784D01*
X77158625Y-88527812D01*
X77128928Y-88378512D01*
X77124001Y-88353742D01*
X77124001Y-88176258D01*
X77130049Y-88145852D01*
X77158625Y-88002188D01*
X77226545Y-87838216D01*
X77325148Y-87690646D01*
X77450647Y-87565147D01*
X77598217Y-87466544D01*
X77762189Y-87398624D01*
X77911489Y-87368927D01*
X77936259Y-87364000D01*
X78113743Y-87364000D01*
X78138513Y-87368927D01*
G37*
G36*
X80678513Y-87368927D02*
G01*
X80827813Y-87398624D01*
X80991785Y-87466544D01*
X81139355Y-87565147D01*
X81264854Y-87690646D01*
X81363457Y-87838216D01*
X81431377Y-88002188D01*
X81459953Y-88145852D01*
X81466001Y-88176258D01*
X81466001Y-88353742D01*
X81461074Y-88378512D01*
X81431377Y-88527812D01*
X81363457Y-88691784D01*
X81264854Y-88839354D01*
X81139355Y-88964853D01*
X80991785Y-89063456D01*
X80827813Y-89131376D01*
X80678513Y-89161073D01*
X80653743Y-89166000D01*
X80476259Y-89166000D01*
X80451489Y-89161073D01*
X80302189Y-89131376D01*
X80138217Y-89063456D01*
X79990647Y-88964853D01*
X79865148Y-88839354D01*
X79766545Y-88691784D01*
X79698625Y-88527812D01*
X79668928Y-88378512D01*
X79664001Y-88353742D01*
X79664001Y-88176258D01*
X79670049Y-88145852D01*
X79698625Y-88002188D01*
X79766545Y-87838216D01*
X79865148Y-87690646D01*
X79990647Y-87565147D01*
X80138217Y-87466544D01*
X80302189Y-87398624D01*
X80451489Y-87368927D01*
X80476259Y-87364000D01*
X80653743Y-87364000D01*
X80678513Y-87368927D01*
G37*
G36*
X83218513Y-87368927D02*
G01*
X83367813Y-87398624D01*
X83531785Y-87466544D01*
X83679355Y-87565147D01*
X83804854Y-87690646D01*
X83903457Y-87838216D01*
X83971377Y-88002188D01*
X83999953Y-88145852D01*
X84006001Y-88176258D01*
X84006001Y-88353742D01*
X84001074Y-88378512D01*
X83971377Y-88527812D01*
X83903457Y-88691784D01*
X83804854Y-88839354D01*
X83679355Y-88964853D01*
X83531785Y-89063456D01*
X83367813Y-89131376D01*
X83218513Y-89161073D01*
X83193743Y-89166000D01*
X83016259Y-89166000D01*
X82991489Y-89161073D01*
X82842189Y-89131376D01*
X82678217Y-89063456D01*
X82530647Y-88964853D01*
X82405148Y-88839354D01*
X82306545Y-88691784D01*
X82238625Y-88527812D01*
X82208928Y-88378512D01*
X82204001Y-88353742D01*
X82204001Y-88176258D01*
X82210049Y-88145852D01*
X82238625Y-88002188D01*
X82306545Y-87838216D01*
X82405148Y-87690646D01*
X82530647Y-87565147D01*
X82678217Y-87466544D01*
X82842189Y-87398624D01*
X82991489Y-87368927D01*
X83016259Y-87364000D01*
X83193743Y-87364000D01*
X83218513Y-87368927D01*
G37*
G36*
X93378513Y-87368927D02*
G01*
X93527813Y-87398624D01*
X93691785Y-87466544D01*
X93839355Y-87565147D01*
X93964854Y-87690646D01*
X94063457Y-87838216D01*
X94131377Y-88002188D01*
X94159953Y-88145852D01*
X94166001Y-88176258D01*
X94166001Y-88353742D01*
X94161074Y-88378512D01*
X94131377Y-88527812D01*
X94063457Y-88691784D01*
X93964854Y-88839354D01*
X93839355Y-88964853D01*
X93691785Y-89063456D01*
X93527813Y-89131376D01*
X93378513Y-89161073D01*
X93353743Y-89166000D01*
X93176259Y-89166000D01*
X93151489Y-89161073D01*
X93002189Y-89131376D01*
X92838217Y-89063456D01*
X92690647Y-88964853D01*
X92565148Y-88839354D01*
X92466545Y-88691784D01*
X92398625Y-88527812D01*
X92368928Y-88378512D01*
X92364001Y-88353742D01*
X92364001Y-88176258D01*
X92370049Y-88145852D01*
X92398625Y-88002188D01*
X92466545Y-87838216D01*
X92565148Y-87690646D01*
X92690647Y-87565147D01*
X92838217Y-87466544D01*
X93002189Y-87398624D01*
X93151489Y-87368927D01*
X93176259Y-87364000D01*
X93353743Y-87364000D01*
X93378513Y-87368927D01*
G37*
G36*
X85758513Y-87368927D02*
G01*
X85907813Y-87398624D01*
X86071785Y-87466544D01*
X86219355Y-87565147D01*
X86344854Y-87690646D01*
X86443457Y-87838216D01*
X86511377Y-88002188D01*
X86539953Y-88145852D01*
X86546001Y-88176258D01*
X86546001Y-88353742D01*
X86541074Y-88378512D01*
X86511377Y-88527812D01*
X86443457Y-88691784D01*
X86344854Y-88839354D01*
X86219355Y-88964853D01*
X86071785Y-89063456D01*
X85907813Y-89131376D01*
X85758513Y-89161073D01*
X85733743Y-89166000D01*
X85556259Y-89166000D01*
X85531489Y-89161073D01*
X85382189Y-89131376D01*
X85218217Y-89063456D01*
X85070647Y-88964853D01*
X84945148Y-88839354D01*
X84846545Y-88691784D01*
X84778625Y-88527812D01*
X84748928Y-88378512D01*
X84744001Y-88353742D01*
X84744001Y-88176258D01*
X84750049Y-88145852D01*
X84778625Y-88002188D01*
X84846545Y-87838216D01*
X84945148Y-87690646D01*
X85070647Y-87565147D01*
X85218217Y-87466544D01*
X85382189Y-87398624D01*
X85531489Y-87368927D01*
X85556259Y-87364000D01*
X85733743Y-87364000D01*
X85758513Y-87368927D01*
G37*
G36*
X90838513Y-87368927D02*
G01*
X90987813Y-87398624D01*
X91151785Y-87466544D01*
X91299355Y-87565147D01*
X91424854Y-87690646D01*
X91523457Y-87838216D01*
X91591377Y-88002188D01*
X91619953Y-88145852D01*
X91626001Y-88176258D01*
X91626001Y-88353742D01*
X91621074Y-88378512D01*
X91591377Y-88527812D01*
X91523457Y-88691784D01*
X91424854Y-88839354D01*
X91299355Y-88964853D01*
X91151785Y-89063456D01*
X90987813Y-89131376D01*
X90838513Y-89161073D01*
X90813743Y-89166000D01*
X90636259Y-89166000D01*
X90611489Y-89161073D01*
X90462189Y-89131376D01*
X90298217Y-89063456D01*
X90150647Y-88964853D01*
X90025148Y-88839354D01*
X89926545Y-88691784D01*
X89858625Y-88527812D01*
X89828928Y-88378512D01*
X89824001Y-88353742D01*
X89824001Y-88176258D01*
X89830049Y-88145852D01*
X89858625Y-88002188D01*
X89926545Y-87838216D01*
X90025148Y-87690646D01*
X90150647Y-87565147D01*
X90298217Y-87466544D01*
X90462189Y-87398624D01*
X90611489Y-87368927D01*
X90636259Y-87364000D01*
X90813743Y-87364000D01*
X90838513Y-87368927D01*
G37*
G36*
X88298513Y-87368927D02*
G01*
X88447813Y-87398624D01*
X88611785Y-87466544D01*
X88759355Y-87565147D01*
X88884854Y-87690646D01*
X88983457Y-87838216D01*
X89051377Y-88002188D01*
X89079953Y-88145852D01*
X89086001Y-88176258D01*
X89086001Y-88353742D01*
X89081074Y-88378512D01*
X89051377Y-88527812D01*
X88983457Y-88691784D01*
X88884854Y-88839354D01*
X88759355Y-88964853D01*
X88611785Y-89063456D01*
X88447813Y-89131376D01*
X88298513Y-89161073D01*
X88273743Y-89166000D01*
X88096259Y-89166000D01*
X88071489Y-89161073D01*
X87922189Y-89131376D01*
X87758217Y-89063456D01*
X87610647Y-88964853D01*
X87485148Y-88839354D01*
X87386545Y-88691784D01*
X87318625Y-88527812D01*
X87288928Y-88378512D01*
X87284001Y-88353742D01*
X87284001Y-88176258D01*
X87290049Y-88145852D01*
X87318625Y-88002188D01*
X87386545Y-87838216D01*
X87485148Y-87690646D01*
X87610647Y-87565147D01*
X87758217Y-87466544D01*
X87922189Y-87398624D01*
X88071489Y-87368927D01*
X88096259Y-87364000D01*
X88273743Y-87364000D01*
X88298513Y-87368927D01*
G37*
G36*
X147483467Y-85305668D02*
G01*
X147499567Y-85307254D01*
X147585899Y-85333443D01*
X147672233Y-85359632D01*
X147831364Y-85444689D01*
X147970844Y-85559156D01*
X148085311Y-85698635D01*
X148170368Y-85857766D01*
X148222746Y-86030433D01*
X148236000Y-86165002D01*
X148236000Y-86554997D01*
X148232417Y-86591375D01*
X148222746Y-86689567D01*
X148205287Y-86747122D01*
X148170368Y-86862234D01*
X148085311Y-87021365D01*
X147970844Y-87160844D01*
X147831365Y-87275311D01*
X147672234Y-87360368D01*
X147499568Y-87412746D01*
X147483468Y-87414332D01*
X147320000Y-87430432D01*
X147156533Y-87414332D01*
X147140433Y-87412746D01*
X146967767Y-87360368D01*
X146808636Y-87275311D01*
X146669157Y-87160844D01*
X146554689Y-87021365D01*
X146469632Y-86862234D01*
X146417254Y-86689567D01*
X146404000Y-86554998D01*
X146404000Y-86165003D01*
X146417254Y-86030434D01*
X146417255Y-86030432D01*
X146451253Y-85918354D01*
X146469632Y-85857767D01*
X146554689Y-85698636D01*
X146669156Y-85559156D01*
X146808635Y-85444689D01*
X146967766Y-85359632D01*
X147054100Y-85333443D01*
X147140432Y-85307254D01*
X147156532Y-85305668D01*
X147320000Y-85289568D01*
X147483467Y-85305668D01*
G37*
G36*
X165263467Y-85305668D02*
G01*
X165279567Y-85307254D01*
X165365899Y-85333443D01*
X165452233Y-85359632D01*
X165611364Y-85444689D01*
X165750844Y-85559156D01*
X165865311Y-85698635D01*
X165950368Y-85857766D01*
X166002746Y-86030433D01*
X166016000Y-86165002D01*
X166016000Y-86554997D01*
X166012417Y-86591375D01*
X166002746Y-86689567D01*
X165985287Y-86747122D01*
X165950368Y-86862234D01*
X165865311Y-87021365D01*
X165750844Y-87160844D01*
X165611365Y-87275311D01*
X165452234Y-87360368D01*
X165279568Y-87412746D01*
X165263468Y-87414332D01*
X165100000Y-87430432D01*
X164936533Y-87414332D01*
X164920433Y-87412746D01*
X164747767Y-87360368D01*
X164588636Y-87275311D01*
X164449157Y-87160844D01*
X164334689Y-87021365D01*
X164249632Y-86862234D01*
X164197254Y-86689567D01*
X164184000Y-86554998D01*
X164184000Y-86165003D01*
X164197254Y-86030434D01*
X164197255Y-86030432D01*
X164231253Y-85918354D01*
X164249632Y-85857767D01*
X164334689Y-85698636D01*
X164449156Y-85559156D01*
X164588635Y-85444689D01*
X164747766Y-85359632D01*
X164834100Y-85333443D01*
X164920432Y-85307254D01*
X164936532Y-85305668D01*
X165100000Y-85289568D01*
X165263467Y-85305668D01*
G37*
G36*
X167803467Y-85305668D02*
G01*
X167819567Y-85307254D01*
X167905899Y-85333443D01*
X167992233Y-85359632D01*
X168151364Y-85444689D01*
X168290844Y-85559156D01*
X168405311Y-85698635D01*
X168490368Y-85857766D01*
X168542746Y-86030433D01*
X168556000Y-86165002D01*
X168556000Y-86554997D01*
X168552417Y-86591375D01*
X168542746Y-86689567D01*
X168525287Y-86747122D01*
X168490368Y-86862234D01*
X168405311Y-87021365D01*
X168290844Y-87160844D01*
X168151365Y-87275311D01*
X167992234Y-87360368D01*
X167819568Y-87412746D01*
X167803468Y-87414332D01*
X167640000Y-87430432D01*
X167476533Y-87414332D01*
X167460433Y-87412746D01*
X167287767Y-87360368D01*
X167128636Y-87275311D01*
X166989157Y-87160844D01*
X166874689Y-87021365D01*
X166789632Y-86862234D01*
X166737254Y-86689567D01*
X166724000Y-86554998D01*
X166724000Y-86165003D01*
X166737254Y-86030434D01*
X166737255Y-86030432D01*
X166771253Y-85918354D01*
X166789632Y-85857767D01*
X166874689Y-85698636D01*
X166989156Y-85559156D01*
X167128635Y-85444689D01*
X167287766Y-85359632D01*
X167374100Y-85333443D01*
X167460432Y-85307254D01*
X167476532Y-85305668D01*
X167640000Y-85289568D01*
X167803467Y-85305668D01*
G37*
G36*
X157643467Y-85305668D02*
G01*
X157659567Y-85307254D01*
X157745899Y-85333443D01*
X157832233Y-85359632D01*
X157991364Y-85444689D01*
X158130844Y-85559156D01*
X158245311Y-85698635D01*
X158330368Y-85857766D01*
X158382746Y-86030433D01*
X158396000Y-86165002D01*
X158396000Y-86554997D01*
X158392417Y-86591375D01*
X158382746Y-86689567D01*
X158365287Y-86747122D01*
X158330368Y-86862234D01*
X158245311Y-87021365D01*
X158130844Y-87160844D01*
X157991365Y-87275311D01*
X157832234Y-87360368D01*
X157659568Y-87412746D01*
X157643468Y-87414332D01*
X157480000Y-87430432D01*
X157316533Y-87414332D01*
X157300433Y-87412746D01*
X157127767Y-87360368D01*
X156968636Y-87275311D01*
X156829157Y-87160844D01*
X156714689Y-87021365D01*
X156629632Y-86862234D01*
X156577254Y-86689567D01*
X156564000Y-86554998D01*
X156564000Y-86165003D01*
X156577254Y-86030434D01*
X156577255Y-86030432D01*
X156611253Y-85918354D01*
X156629632Y-85857767D01*
X156714689Y-85698636D01*
X156829156Y-85559156D01*
X156968635Y-85444689D01*
X157127766Y-85359632D01*
X157214100Y-85333443D01*
X157300432Y-85307254D01*
X157316532Y-85305668D01*
X157480000Y-85289568D01*
X157643467Y-85305668D01*
G37*
G36*
X144943467Y-85305668D02*
G01*
X144959567Y-85307254D01*
X145045899Y-85333443D01*
X145132233Y-85359632D01*
X145291364Y-85444689D01*
X145430844Y-85559156D01*
X145545311Y-85698635D01*
X145630368Y-85857766D01*
X145682746Y-86030433D01*
X145696000Y-86165002D01*
X145696000Y-86554997D01*
X145692417Y-86591375D01*
X145682746Y-86689567D01*
X145665287Y-86747122D01*
X145630368Y-86862234D01*
X145545311Y-87021365D01*
X145430844Y-87160844D01*
X145291365Y-87275311D01*
X145132234Y-87360368D01*
X144959568Y-87412746D01*
X144943468Y-87414332D01*
X144780000Y-87430432D01*
X144616533Y-87414332D01*
X144600433Y-87412746D01*
X144427767Y-87360368D01*
X144268636Y-87275311D01*
X144129157Y-87160844D01*
X144014689Y-87021365D01*
X143929632Y-86862234D01*
X143877254Y-86689567D01*
X143864000Y-86554998D01*
X143864000Y-86165003D01*
X143877254Y-86030434D01*
X143877255Y-86030432D01*
X143911253Y-85918354D01*
X143929632Y-85857767D01*
X144014689Y-85698636D01*
X144129156Y-85559156D01*
X144268635Y-85444689D01*
X144427766Y-85359632D01*
X144514100Y-85333443D01*
X144600432Y-85307254D01*
X144616532Y-85305668D01*
X144780000Y-85289568D01*
X144943467Y-85305668D01*
G37*
G36*
X155103467Y-85305668D02*
G01*
X155119567Y-85307254D01*
X155205899Y-85333443D01*
X155292233Y-85359632D01*
X155451364Y-85444689D01*
X155590844Y-85559156D01*
X155705311Y-85698635D01*
X155790368Y-85857766D01*
X155842746Y-86030433D01*
X155856000Y-86165002D01*
X155856000Y-86554997D01*
X155852417Y-86591375D01*
X155842746Y-86689567D01*
X155825287Y-86747122D01*
X155790368Y-86862234D01*
X155705311Y-87021365D01*
X155590844Y-87160844D01*
X155451365Y-87275311D01*
X155292234Y-87360368D01*
X155119568Y-87412746D01*
X155103468Y-87414332D01*
X154940000Y-87430432D01*
X154776533Y-87414332D01*
X154760433Y-87412746D01*
X154587767Y-87360368D01*
X154428636Y-87275311D01*
X154289157Y-87160844D01*
X154174689Y-87021365D01*
X154089632Y-86862234D01*
X154037254Y-86689567D01*
X154024000Y-86554998D01*
X154024000Y-86165003D01*
X154037254Y-86030434D01*
X154037255Y-86030432D01*
X154071253Y-85918354D01*
X154089632Y-85857767D01*
X154174689Y-85698636D01*
X154289156Y-85559156D01*
X154428635Y-85444689D01*
X154587766Y-85359632D01*
X154674100Y-85333443D01*
X154760432Y-85307254D01*
X154776532Y-85305668D01*
X154940000Y-85289568D01*
X155103467Y-85305668D01*
G37*
G36*
X163476000Y-87426000D02*
G01*
X161644000Y-87426000D01*
X161644000Y-85294000D01*
X163476000Y-85294000D01*
X163476000Y-87426000D01*
G37*
G36*
X143156000Y-87426000D02*
G01*
X141324000Y-87426000D01*
X141324000Y-85294000D01*
X143156000Y-85294000D01*
X143156000Y-87426000D01*
G37*
G36*
X153316000Y-87426000D02*
G01*
X151484000Y-87426000D01*
X151484000Y-85294000D01*
X153316000Y-85294000D01*
X153316000Y-87426000D01*
G37*
G36*
X119820694Y-85407833D02*
G01*
X119993095Y-85460131D01*
X120151983Y-85545058D01*
X120291249Y-85659351D01*
X120405542Y-85798617D01*
X120490469Y-85957505D01*
X120542767Y-86129906D01*
X120560425Y-86309200D01*
X120542767Y-86488494D01*
X120490469Y-86660895D01*
X120405542Y-86819783D01*
X120291249Y-86959049D01*
X120151983Y-87073342D01*
X119993095Y-87158269D01*
X119820694Y-87210567D01*
X119686331Y-87223800D01*
X119073669Y-87223800D01*
X118939306Y-87210567D01*
X118766905Y-87158269D01*
X118608017Y-87073342D01*
X118468751Y-86959049D01*
X118354458Y-86819783D01*
X118269531Y-86660895D01*
X118217233Y-86488494D01*
X118199575Y-86309200D01*
X118217233Y-86129906D01*
X118269531Y-85957505D01*
X118354458Y-85798617D01*
X118468751Y-85659351D01*
X118608017Y-85545058D01*
X118766905Y-85460131D01*
X118939306Y-85407833D01*
X119073669Y-85394600D01*
X119686331Y-85394600D01*
X119820694Y-85407833D01*
G37*
G36*
X104580694Y-85407833D02*
G01*
X104753095Y-85460131D01*
X104911983Y-85545058D01*
X105051249Y-85659351D01*
X105165542Y-85798617D01*
X105250469Y-85957505D01*
X105302767Y-86129906D01*
X105320425Y-86309200D01*
X105302767Y-86488494D01*
X105250469Y-86660895D01*
X105165542Y-86819783D01*
X105051249Y-86959049D01*
X104911983Y-87073342D01*
X104753095Y-87158269D01*
X104580694Y-87210567D01*
X104446331Y-87223800D01*
X103833669Y-87223800D01*
X103699306Y-87210567D01*
X103526905Y-87158269D01*
X103368017Y-87073342D01*
X103228751Y-86959049D01*
X103114458Y-86819783D01*
X103029531Y-86660895D01*
X102977233Y-86488494D01*
X102959575Y-86309200D01*
X102977233Y-86129906D01*
X103029531Y-85957505D01*
X103114458Y-85798617D01*
X103228751Y-85659351D01*
X103368017Y-85545058D01*
X103526905Y-85460131D01*
X103699306Y-85407833D01*
X103833669Y-85394600D01*
X104446331Y-85394600D01*
X104580694Y-85407833D01*
G37*
G36*
X88298513Y-84828927D02*
G01*
X88447813Y-84858624D01*
X88611785Y-84926544D01*
X88759355Y-85025147D01*
X88884854Y-85150646D01*
X88983457Y-85298216D01*
X89051377Y-85462188D01*
X89086001Y-85636259D01*
X89086001Y-85813741D01*
X89051377Y-85987812D01*
X88983457Y-86151784D01*
X88884854Y-86299354D01*
X88759355Y-86424853D01*
X88611785Y-86523456D01*
X88447813Y-86591376D01*
X88298513Y-86621073D01*
X88273743Y-86626000D01*
X88096259Y-86626000D01*
X88071489Y-86621073D01*
X87922189Y-86591376D01*
X87758217Y-86523456D01*
X87610647Y-86424853D01*
X87485148Y-86299354D01*
X87386545Y-86151784D01*
X87318625Y-85987812D01*
X87284001Y-85813741D01*
X87284001Y-85636259D01*
X87318625Y-85462188D01*
X87386545Y-85298216D01*
X87485148Y-85150646D01*
X87610647Y-85025147D01*
X87758217Y-84926544D01*
X87922189Y-84858624D01*
X88071489Y-84828927D01*
X88096259Y-84824000D01*
X88273743Y-84824000D01*
X88298513Y-84828927D01*
G37*
G36*
X93378513Y-84828927D02*
G01*
X93527813Y-84858624D01*
X93691785Y-84926544D01*
X93839355Y-85025147D01*
X93964854Y-85150646D01*
X94063457Y-85298216D01*
X94131377Y-85462188D01*
X94166001Y-85636259D01*
X94166001Y-85813741D01*
X94131377Y-85987812D01*
X94063457Y-86151784D01*
X93964854Y-86299354D01*
X93839355Y-86424853D01*
X93691785Y-86523456D01*
X93527813Y-86591376D01*
X93378513Y-86621073D01*
X93353743Y-86626000D01*
X93176259Y-86626000D01*
X93151489Y-86621073D01*
X93002189Y-86591376D01*
X92838217Y-86523456D01*
X92690647Y-86424853D01*
X92565148Y-86299354D01*
X92466545Y-86151784D01*
X92398625Y-85987812D01*
X92364001Y-85813741D01*
X92364001Y-85636259D01*
X92398625Y-85462188D01*
X92466545Y-85298216D01*
X92565148Y-85150646D01*
X92690647Y-85025147D01*
X92838217Y-84926544D01*
X93002189Y-84858624D01*
X93151489Y-84828927D01*
X93176259Y-84824000D01*
X93353743Y-84824000D01*
X93378513Y-84828927D01*
G37*
G36*
X80678513Y-84828927D02*
G01*
X80827813Y-84858624D01*
X80991785Y-84926544D01*
X81139355Y-85025147D01*
X81264854Y-85150646D01*
X81363457Y-85298216D01*
X81431377Y-85462188D01*
X81466001Y-85636259D01*
X81466001Y-85813741D01*
X81431377Y-85987812D01*
X81363457Y-86151784D01*
X81264854Y-86299354D01*
X81139355Y-86424853D01*
X80991785Y-86523456D01*
X80827813Y-86591376D01*
X80678513Y-86621073D01*
X80653743Y-86626000D01*
X80476259Y-86626000D01*
X80451489Y-86621073D01*
X80302189Y-86591376D01*
X80138217Y-86523456D01*
X79990647Y-86424853D01*
X79865148Y-86299354D01*
X79766545Y-86151784D01*
X79698625Y-85987812D01*
X79664001Y-85813741D01*
X79664001Y-85636259D01*
X79698625Y-85462188D01*
X79766545Y-85298216D01*
X79865148Y-85150646D01*
X79990647Y-85025147D01*
X80138217Y-84926544D01*
X80302189Y-84858624D01*
X80451489Y-84828927D01*
X80476259Y-84824000D01*
X80653743Y-84824000D01*
X80678513Y-84828927D01*
G37*
G36*
X83218513Y-84828927D02*
G01*
X83367813Y-84858624D01*
X83531785Y-84926544D01*
X83679355Y-85025147D01*
X83804854Y-85150646D01*
X83903457Y-85298216D01*
X83971377Y-85462188D01*
X84006001Y-85636259D01*
X84006001Y-85813741D01*
X83971377Y-85987812D01*
X83903457Y-86151784D01*
X83804854Y-86299354D01*
X83679355Y-86424853D01*
X83531785Y-86523456D01*
X83367813Y-86591376D01*
X83218513Y-86621073D01*
X83193743Y-86626000D01*
X83016259Y-86626000D01*
X82991489Y-86621073D01*
X82842189Y-86591376D01*
X82678217Y-86523456D01*
X82530647Y-86424853D01*
X82405148Y-86299354D01*
X82306545Y-86151784D01*
X82238625Y-85987812D01*
X82204001Y-85813741D01*
X82204001Y-85636259D01*
X82238625Y-85462188D01*
X82306545Y-85298216D01*
X82405148Y-85150646D01*
X82530647Y-85025147D01*
X82678217Y-84926544D01*
X82842189Y-84858624D01*
X82991489Y-84828927D01*
X83016259Y-84824000D01*
X83193743Y-84824000D01*
X83218513Y-84828927D01*
G37*
G36*
X85758513Y-84828927D02*
G01*
X85907813Y-84858624D01*
X86071785Y-84926544D01*
X86219355Y-85025147D01*
X86344854Y-85150646D01*
X86443457Y-85298216D01*
X86511377Y-85462188D01*
X86546001Y-85636259D01*
X86546001Y-85813741D01*
X86511377Y-85987812D01*
X86443457Y-86151784D01*
X86344854Y-86299354D01*
X86219355Y-86424853D01*
X86071785Y-86523456D01*
X85907813Y-86591376D01*
X85758513Y-86621073D01*
X85733743Y-86626000D01*
X85556259Y-86626000D01*
X85531489Y-86621073D01*
X85382189Y-86591376D01*
X85218217Y-86523456D01*
X85070647Y-86424853D01*
X84945148Y-86299354D01*
X84846545Y-86151784D01*
X84778625Y-85987812D01*
X84744001Y-85813741D01*
X84744001Y-85636259D01*
X84778625Y-85462188D01*
X84846545Y-85298216D01*
X84945148Y-85150646D01*
X85070647Y-85025147D01*
X85218217Y-84926544D01*
X85382189Y-84858624D01*
X85531489Y-84828927D01*
X85556259Y-84824000D01*
X85733743Y-84824000D01*
X85758513Y-84828927D01*
G37*
G36*
X90838513Y-84828927D02*
G01*
X90987813Y-84858624D01*
X91151785Y-84926544D01*
X91299355Y-85025147D01*
X91424854Y-85150646D01*
X91523457Y-85298216D01*
X91591377Y-85462188D01*
X91626001Y-85636259D01*
X91626001Y-85813741D01*
X91591377Y-85987812D01*
X91523457Y-86151784D01*
X91424854Y-86299354D01*
X91299355Y-86424853D01*
X91151785Y-86523456D01*
X90987813Y-86591376D01*
X90838513Y-86621073D01*
X90813743Y-86626000D01*
X90636259Y-86626000D01*
X90611489Y-86621073D01*
X90462189Y-86591376D01*
X90298217Y-86523456D01*
X90150647Y-86424853D01*
X90025148Y-86299354D01*
X89926545Y-86151784D01*
X89858625Y-85987812D01*
X89824001Y-85813741D01*
X89824001Y-85636259D01*
X89858625Y-85462188D01*
X89926545Y-85298216D01*
X90025148Y-85150646D01*
X90150647Y-85025147D01*
X90298217Y-84926544D01*
X90462189Y-84858624D01*
X90611489Y-84828927D01*
X90636259Y-84824000D01*
X90813743Y-84824000D01*
X90838513Y-84828927D01*
G37*
G36*
X73058513Y-84828927D02*
G01*
X73207813Y-84858624D01*
X73371785Y-84926544D01*
X73519355Y-85025147D01*
X73644854Y-85150646D01*
X73743457Y-85298216D01*
X73811377Y-85462188D01*
X73846001Y-85636259D01*
X73846001Y-85813741D01*
X73811377Y-85987812D01*
X73743457Y-86151784D01*
X73644854Y-86299354D01*
X73519355Y-86424853D01*
X73371785Y-86523456D01*
X73207813Y-86591376D01*
X73058513Y-86621073D01*
X73033743Y-86626000D01*
X72856259Y-86626000D01*
X72831489Y-86621073D01*
X72682189Y-86591376D01*
X72518217Y-86523456D01*
X72370647Y-86424853D01*
X72245148Y-86299354D01*
X72146545Y-86151784D01*
X72078625Y-85987812D01*
X72044001Y-85813741D01*
X72044001Y-85636259D01*
X72078625Y-85462188D01*
X72146545Y-85298216D01*
X72245148Y-85150646D01*
X72370647Y-85025147D01*
X72518217Y-84926544D01*
X72682189Y-84858624D01*
X72831489Y-84828927D01*
X72856259Y-84824000D01*
X73033743Y-84824000D01*
X73058513Y-84828927D01*
G37*
G36*
X75598513Y-84828927D02*
G01*
X75747813Y-84858624D01*
X75911785Y-84926544D01*
X76059355Y-85025147D01*
X76184854Y-85150646D01*
X76283457Y-85298216D01*
X76351377Y-85462188D01*
X76386001Y-85636259D01*
X76386001Y-85813741D01*
X76351377Y-85987812D01*
X76283457Y-86151784D01*
X76184854Y-86299354D01*
X76059355Y-86424853D01*
X75911785Y-86523456D01*
X75747813Y-86591376D01*
X75598513Y-86621073D01*
X75573743Y-86626000D01*
X75396259Y-86626000D01*
X75371489Y-86621073D01*
X75222189Y-86591376D01*
X75058217Y-86523456D01*
X74910647Y-86424853D01*
X74785148Y-86299354D01*
X74686545Y-86151784D01*
X74618625Y-85987812D01*
X74584001Y-85813741D01*
X74584001Y-85636259D01*
X74618625Y-85462188D01*
X74686545Y-85298216D01*
X74785148Y-85150646D01*
X74910647Y-85025147D01*
X75058217Y-84926544D01*
X75222189Y-84858624D01*
X75371489Y-84828927D01*
X75396259Y-84824000D01*
X75573743Y-84824000D01*
X75598513Y-84828927D01*
G37*
G36*
X95918513Y-84828927D02*
G01*
X96067813Y-84858624D01*
X96231785Y-84926544D01*
X96379355Y-85025147D01*
X96504854Y-85150646D01*
X96603457Y-85298216D01*
X96671377Y-85462188D01*
X96706001Y-85636259D01*
X96706001Y-85813741D01*
X96671377Y-85987812D01*
X96603457Y-86151784D01*
X96504854Y-86299354D01*
X96379355Y-86424853D01*
X96231785Y-86523456D01*
X96067813Y-86591376D01*
X95918513Y-86621073D01*
X95893743Y-86626000D01*
X95716259Y-86626000D01*
X95691489Y-86621073D01*
X95542189Y-86591376D01*
X95378217Y-86523456D01*
X95230647Y-86424853D01*
X95105148Y-86299354D01*
X95006545Y-86151784D01*
X94938625Y-85987812D01*
X94904001Y-85813741D01*
X94904001Y-85636259D01*
X94938625Y-85462188D01*
X95006545Y-85298216D01*
X95105148Y-85150646D01*
X95230647Y-85025147D01*
X95378217Y-84926544D01*
X95542189Y-84858624D01*
X95691489Y-84828927D01*
X95716259Y-84824000D01*
X95893743Y-84824000D01*
X95918513Y-84828927D01*
G37*
G36*
X78138513Y-84828927D02*
G01*
X78287813Y-84858624D01*
X78451785Y-84926544D01*
X78599355Y-85025147D01*
X78724854Y-85150646D01*
X78823457Y-85298216D01*
X78891377Y-85462188D01*
X78926001Y-85636259D01*
X78926001Y-85813741D01*
X78891377Y-85987812D01*
X78823457Y-86151784D01*
X78724854Y-86299354D01*
X78599355Y-86424853D01*
X78451785Y-86523456D01*
X78287813Y-86591376D01*
X78138513Y-86621073D01*
X78113743Y-86626000D01*
X77936259Y-86626000D01*
X77911489Y-86621073D01*
X77762189Y-86591376D01*
X77598217Y-86523456D01*
X77450647Y-86424853D01*
X77325148Y-86299354D01*
X77226545Y-86151784D01*
X77158625Y-85987812D01*
X77124001Y-85813741D01*
X77124001Y-85636259D01*
X77158625Y-85462188D01*
X77226545Y-85298216D01*
X77325148Y-85150646D01*
X77450647Y-85025147D01*
X77598217Y-84926544D01*
X77762189Y-84858624D01*
X77911489Y-84828927D01*
X77936259Y-84824000D01*
X78113743Y-84824000D01*
X78138513Y-84828927D01*
G37*
G36*
X107258428Y-84612063D02*
G01*
X107413300Y-84676213D01*
X107552681Y-84769345D01*
X107671215Y-84887879D01*
X107764347Y-85027260D01*
X107828497Y-85182132D01*
X107861200Y-85346544D01*
X107861200Y-85514176D01*
X107828497Y-85678588D01*
X107764347Y-85833460D01*
X107671215Y-85972841D01*
X107552681Y-86091375D01*
X107413300Y-86184507D01*
X107258428Y-86248657D01*
X107094016Y-86281360D01*
X106926384Y-86281360D01*
X106761972Y-86248657D01*
X106607100Y-86184507D01*
X106467719Y-86091375D01*
X106349185Y-85972841D01*
X106256053Y-85833460D01*
X106191903Y-85678588D01*
X106159200Y-85514176D01*
X106159200Y-85346544D01*
X106191903Y-85182132D01*
X106256053Y-85027260D01*
X106349185Y-84887879D01*
X106467719Y-84769345D01*
X106607100Y-84676213D01*
X106761972Y-84612063D01*
X106926384Y-84579360D01*
X107094016Y-84579360D01*
X107258428Y-84612063D01*
G37*
G36*
X63867512Y-84447927D02*
G01*
X64016812Y-84477624D01*
X64180784Y-84545544D01*
X64328354Y-84644147D01*
X64453853Y-84769646D01*
X64552456Y-84917216D01*
X64620376Y-85081188D01*
X64650073Y-85230488D01*
X64655000Y-85255258D01*
X64655000Y-85432742D01*
X64650073Y-85457512D01*
X64620376Y-85606812D01*
X64552456Y-85770784D01*
X64453853Y-85918354D01*
X64328354Y-86043853D01*
X64180784Y-86142456D01*
X64016812Y-86210376D01*
X63867512Y-86240073D01*
X63842742Y-86245000D01*
X63665258Y-86245000D01*
X63640488Y-86240073D01*
X63491188Y-86210376D01*
X63327216Y-86142456D01*
X63179646Y-86043853D01*
X63054147Y-85918354D01*
X62955544Y-85770784D01*
X62887624Y-85606812D01*
X62857927Y-85457512D01*
X62853000Y-85432742D01*
X62853000Y-85255258D01*
X62857927Y-85230488D01*
X62887624Y-85081188D01*
X62955544Y-84917216D01*
X63054147Y-84769646D01*
X63179646Y-84644147D01*
X63327216Y-84545544D01*
X63491188Y-84477624D01*
X63640488Y-84447927D01*
X63665258Y-84443000D01*
X63842742Y-84443000D01*
X63867512Y-84447927D01*
G37*
G36*
X67195000Y-86245000D02*
G01*
X65393000Y-86245000D01*
X65393000Y-84443000D01*
X67195000Y-84443000D01*
X67195000Y-86245000D01*
G37*
G36*
X110773788Y-84566343D02*
G01*
X110928660Y-84630493D01*
X111068041Y-84723625D01*
X111186575Y-84842159D01*
X111279707Y-84981540D01*
X111343857Y-85136412D01*
X111376560Y-85300824D01*
X111376560Y-85468456D01*
X111343857Y-85632868D01*
X111279707Y-85787740D01*
X111186575Y-85927121D01*
X111068041Y-86045655D01*
X110928660Y-86138787D01*
X110773788Y-86202937D01*
X110609376Y-86235640D01*
X110441744Y-86235640D01*
X110277332Y-86202937D01*
X110122460Y-86138787D01*
X109983079Y-86045655D01*
X109864545Y-85927121D01*
X109771413Y-85787740D01*
X109707263Y-85632868D01*
X109674560Y-85468456D01*
X109674560Y-85300824D01*
X109707263Y-85136412D01*
X109771413Y-84981540D01*
X109864545Y-84842159D01*
X109983079Y-84723625D01*
X110122460Y-84630493D01*
X110277332Y-84566343D01*
X110441744Y-84533640D01*
X110609376Y-84533640D01*
X110773788Y-84566343D01*
G37*
G36*
X119820694Y-82867833D02*
G01*
X119993095Y-82920131D01*
X120151983Y-83005058D01*
X120291249Y-83119351D01*
X120405542Y-83258617D01*
X120490469Y-83417505D01*
X120542767Y-83589906D01*
X120560425Y-83769200D01*
X120542767Y-83948494D01*
X120490469Y-84120895D01*
X120405542Y-84279783D01*
X120291249Y-84419049D01*
X120151983Y-84533342D01*
X119993095Y-84618269D01*
X119820694Y-84670567D01*
X119686331Y-84683800D01*
X119073669Y-84683800D01*
X118939306Y-84670567D01*
X118766905Y-84618269D01*
X118608017Y-84533342D01*
X118468751Y-84419049D01*
X118354458Y-84279783D01*
X118269531Y-84120895D01*
X118217233Y-83948494D01*
X118199575Y-83769200D01*
X118217233Y-83589906D01*
X118269531Y-83417505D01*
X118354458Y-83258617D01*
X118468751Y-83119351D01*
X118608017Y-83005058D01*
X118766905Y-82920131D01*
X118939306Y-82867833D01*
X119073669Y-82854600D01*
X119686331Y-82854600D01*
X119820694Y-82867833D01*
G37*
G36*
X104580694Y-82867833D02*
G01*
X104753095Y-82920131D01*
X104911983Y-83005058D01*
X105051249Y-83119351D01*
X105165542Y-83258617D01*
X105250469Y-83417505D01*
X105302767Y-83589906D01*
X105320425Y-83769200D01*
X105302767Y-83948494D01*
X105250469Y-84120895D01*
X105165542Y-84279783D01*
X105051249Y-84419049D01*
X104911983Y-84533342D01*
X104753095Y-84618269D01*
X104580694Y-84670567D01*
X104446331Y-84683800D01*
X103833669Y-84683800D01*
X103699306Y-84670567D01*
X103526905Y-84618269D01*
X103368017Y-84533342D01*
X103228751Y-84419049D01*
X103114458Y-84279783D01*
X103029531Y-84120895D01*
X102977233Y-83948494D01*
X102959575Y-83769200D01*
X102977233Y-83589906D01*
X103029531Y-83417505D01*
X103114458Y-83258617D01*
X103228751Y-83119351D01*
X103368017Y-83005058D01*
X103526905Y-82920131D01*
X103699306Y-82867833D01*
X103833669Y-82854600D01*
X104446331Y-82854600D01*
X104580694Y-82867833D01*
G37*
G36*
X119820694Y-80327833D02*
G01*
X119993095Y-80380131D01*
X120151983Y-80465058D01*
X120291249Y-80579351D01*
X120405542Y-80718617D01*
X120490469Y-80877505D01*
X120542767Y-81049906D01*
X120560425Y-81229200D01*
X120542767Y-81408494D01*
X120490469Y-81580895D01*
X120405542Y-81739783D01*
X120291249Y-81879049D01*
X120151983Y-81993342D01*
X119993095Y-82078269D01*
X119820694Y-82130567D01*
X119686331Y-82143800D01*
X119073669Y-82143800D01*
X118939306Y-82130567D01*
X118766905Y-82078269D01*
X118608017Y-81993342D01*
X118468751Y-81879049D01*
X118354458Y-81739783D01*
X118269531Y-81580895D01*
X118217233Y-81408494D01*
X118199575Y-81229200D01*
X118217233Y-81049906D01*
X118269531Y-80877505D01*
X118354458Y-80718617D01*
X118468751Y-80579351D01*
X118608017Y-80465058D01*
X118766905Y-80380131D01*
X118939306Y-80327833D01*
X119073669Y-80314600D01*
X119686331Y-80314600D01*
X119820694Y-80327833D01*
G37*
G36*
X104580694Y-80327833D02*
G01*
X104753095Y-80380131D01*
X104911983Y-80465058D01*
X105051249Y-80579351D01*
X105165542Y-80718617D01*
X105250469Y-80877505D01*
X105302767Y-81049906D01*
X105320425Y-81229200D01*
X105302767Y-81408494D01*
X105250469Y-81580895D01*
X105165542Y-81739783D01*
X105051249Y-81879049D01*
X104911983Y-81993342D01*
X104753095Y-82078269D01*
X104580694Y-82130567D01*
X104446331Y-82143800D01*
X103833669Y-82143800D01*
X103699306Y-82130567D01*
X103526905Y-82078269D01*
X103368017Y-81993342D01*
X103228751Y-81879049D01*
X103114458Y-81739783D01*
X103029531Y-81580895D01*
X102977233Y-81408494D01*
X102959575Y-81229200D01*
X102977233Y-81049906D01*
X103029531Y-80877505D01*
X103114458Y-80718617D01*
X103228751Y-80579351D01*
X103368017Y-80465058D01*
X103526905Y-80380131D01*
X103699306Y-80327833D01*
X103833669Y-80314600D01*
X104446331Y-80314600D01*
X104580694Y-80327833D01*
G37*
G36*
X128518228Y-79191703D02*
G01*
X128673100Y-79255853D01*
X128812481Y-79348985D01*
X128931015Y-79467519D01*
X129024147Y-79606900D01*
X129088297Y-79761772D01*
X129121000Y-79926184D01*
X129121000Y-80093816D01*
X129088297Y-80258228D01*
X129024147Y-80413100D01*
X128931015Y-80552481D01*
X128812481Y-80671015D01*
X128673100Y-80764147D01*
X128518228Y-80828297D01*
X128353816Y-80861000D01*
X128186184Y-80861000D01*
X128021772Y-80828297D01*
X127866900Y-80764147D01*
X127727519Y-80671015D01*
X127608985Y-80552481D01*
X127515853Y-80413100D01*
X127451703Y-80258228D01*
X127419000Y-80093816D01*
X127419000Y-79926184D01*
X127451703Y-79761772D01*
X127515853Y-79606900D01*
X127608985Y-79467519D01*
X127727519Y-79348985D01*
X127866900Y-79255853D01*
X128021772Y-79191703D01*
X128186184Y-79159000D01*
X128353816Y-79159000D01*
X128518228Y-79191703D01*
G37*
G36*
X136138228Y-79191703D02*
G01*
X136293100Y-79255853D01*
X136432481Y-79348985D01*
X136551015Y-79467519D01*
X136644147Y-79606900D01*
X136708297Y-79761772D01*
X136741000Y-79926184D01*
X136741000Y-80093816D01*
X136708297Y-80258228D01*
X136644147Y-80413100D01*
X136551015Y-80552481D01*
X136432481Y-80671015D01*
X136293100Y-80764147D01*
X136138228Y-80828297D01*
X135973816Y-80861000D01*
X135806184Y-80861000D01*
X135641772Y-80828297D01*
X135486900Y-80764147D01*
X135347519Y-80671015D01*
X135228985Y-80552481D01*
X135135853Y-80413100D01*
X135071703Y-80258228D01*
X135039000Y-80093816D01*
X135039000Y-79926184D01*
X135071703Y-79761772D01*
X135135853Y-79606900D01*
X135228985Y-79467519D01*
X135347519Y-79348985D01*
X135486900Y-79255853D01*
X135641772Y-79191703D01*
X135806184Y-79159000D01*
X135973816Y-79159000D01*
X136138228Y-79191703D01*
G37*
G36*
X119820694Y-77787833D02*
G01*
X119993095Y-77840131D01*
X120151983Y-77925058D01*
X120291249Y-78039351D01*
X120405542Y-78178617D01*
X120490469Y-78337505D01*
X120542767Y-78509906D01*
X120560425Y-78689200D01*
X120542767Y-78868494D01*
X120490469Y-79040895D01*
X120405542Y-79199783D01*
X120291249Y-79339049D01*
X120151983Y-79453342D01*
X119993095Y-79538269D01*
X119820694Y-79590567D01*
X119686331Y-79603800D01*
X119073669Y-79603800D01*
X118939306Y-79590567D01*
X118766905Y-79538269D01*
X118608017Y-79453342D01*
X118468751Y-79339049D01*
X118354458Y-79199783D01*
X118269531Y-79040895D01*
X118217233Y-78868494D01*
X118199575Y-78689200D01*
X118217233Y-78509906D01*
X118269531Y-78337505D01*
X118354458Y-78178617D01*
X118468751Y-78039351D01*
X118608017Y-77925058D01*
X118766905Y-77840131D01*
X118939306Y-77787833D01*
X119073669Y-77774600D01*
X119686331Y-77774600D01*
X119820694Y-77787833D01*
G37*
G36*
X104580694Y-77787833D02*
G01*
X104753095Y-77840131D01*
X104911983Y-77925058D01*
X105051249Y-78039351D01*
X105165542Y-78178617D01*
X105250469Y-78337505D01*
X105302767Y-78509906D01*
X105320425Y-78689200D01*
X105302767Y-78868494D01*
X105250469Y-79040895D01*
X105165542Y-79199783D01*
X105051249Y-79339049D01*
X104911983Y-79453342D01*
X104753095Y-79538269D01*
X104580694Y-79590567D01*
X104446331Y-79603800D01*
X103833669Y-79603800D01*
X103699306Y-79590567D01*
X103526905Y-79538269D01*
X103368017Y-79453342D01*
X103228751Y-79339049D01*
X103114458Y-79199783D01*
X103029531Y-79040895D01*
X102977233Y-78868494D01*
X102959575Y-78689200D01*
X102977233Y-78509906D01*
X103029531Y-78337505D01*
X103114458Y-78178617D01*
X103228751Y-78039351D01*
X103368017Y-77925058D01*
X103526905Y-77840131D01*
X103699306Y-77787833D01*
X103833669Y-77774600D01*
X104446331Y-77774600D01*
X104580694Y-77787833D01*
G37*
G36*
X107258428Y-76992063D02*
G01*
X107413300Y-77056213D01*
X107552681Y-77149345D01*
X107671215Y-77267879D01*
X107764347Y-77407260D01*
X107828497Y-77562132D01*
X107861200Y-77726544D01*
X107861200Y-77894176D01*
X107828497Y-78058588D01*
X107764347Y-78213460D01*
X107671215Y-78352841D01*
X107552681Y-78471375D01*
X107413300Y-78564507D01*
X107258428Y-78628657D01*
X107094016Y-78661360D01*
X106926384Y-78661360D01*
X106761972Y-78628657D01*
X106607100Y-78564507D01*
X106467719Y-78471375D01*
X106349185Y-78352841D01*
X106256053Y-78213460D01*
X106191903Y-78058588D01*
X106159200Y-77894176D01*
X106159200Y-77726544D01*
X106191903Y-77562132D01*
X106256053Y-77407260D01*
X106349185Y-77267879D01*
X106467719Y-77149345D01*
X106607100Y-77056213D01*
X106761972Y-76992063D01*
X106926384Y-76959360D01*
X107094016Y-76959360D01*
X107258428Y-76992063D01*
G37*
G36*
X110773788Y-76946343D02*
G01*
X110928660Y-77010493D01*
X111068041Y-77103625D01*
X111186575Y-77222159D01*
X111279707Y-77361540D01*
X111343857Y-77516412D01*
X111376560Y-77680824D01*
X111376560Y-77848456D01*
X111343857Y-78012868D01*
X111279707Y-78167740D01*
X111186575Y-78307121D01*
X111068041Y-78425655D01*
X110928660Y-78518787D01*
X110773788Y-78582937D01*
X110609376Y-78615640D01*
X110441744Y-78615640D01*
X110277332Y-78582937D01*
X110122460Y-78518787D01*
X109983079Y-78425655D01*
X109864545Y-78307121D01*
X109771413Y-78167740D01*
X109707263Y-78012868D01*
X109674560Y-77848456D01*
X109674560Y-77680824D01*
X109707263Y-77516412D01*
X109771413Y-77361540D01*
X109864545Y-77222159D01*
X109983079Y-77103625D01*
X110122460Y-77010493D01*
X110277332Y-76946343D01*
X110441744Y-76913640D01*
X110609376Y-76913640D01*
X110773788Y-76946343D01*
G37*
G36*
X144943467Y-76415668D02*
G01*
X144959567Y-76417254D01*
X145045899Y-76443443D01*
X145132233Y-76469632D01*
X145291364Y-76554689D01*
X145430844Y-76669156D01*
X145545311Y-76808635D01*
X145630368Y-76967766D01*
X145643329Y-77010492D01*
X145671581Y-77103625D01*
X145682746Y-77140433D01*
X145696000Y-77275002D01*
X145696000Y-77664997D01*
X145694441Y-77680824D01*
X145682746Y-77799567D01*
X145665287Y-77857122D01*
X145630368Y-77972234D01*
X145545311Y-78131365D01*
X145430844Y-78270844D01*
X145291365Y-78385311D01*
X145132234Y-78470368D01*
X145045900Y-78496557D01*
X144959568Y-78522746D01*
X144943468Y-78524332D01*
X144780000Y-78540432D01*
X144616533Y-78524332D01*
X144600433Y-78522746D01*
X144514101Y-78496557D01*
X144427767Y-78470368D01*
X144268636Y-78385311D01*
X144129157Y-78270844D01*
X144014689Y-78131365D01*
X143929632Y-77972234D01*
X143877254Y-77799567D01*
X143864000Y-77664998D01*
X143864000Y-77275003D01*
X143877254Y-77140434D01*
X143877255Y-77140432D01*
X143919776Y-77000258D01*
X143929632Y-76967767D01*
X144014689Y-76808636D01*
X144129156Y-76669156D01*
X144268635Y-76554689D01*
X144427766Y-76469632D01*
X144514100Y-76443443D01*
X144600432Y-76417254D01*
X144616532Y-76415668D01*
X144780000Y-76399568D01*
X144943467Y-76415668D01*
G37*
G36*
X147483467Y-76415668D02*
G01*
X147499567Y-76417254D01*
X147585899Y-76443443D01*
X147672233Y-76469632D01*
X147831364Y-76554689D01*
X147970844Y-76669156D01*
X148085311Y-76808635D01*
X148170368Y-76967766D01*
X148183329Y-77010492D01*
X148211581Y-77103625D01*
X148222746Y-77140433D01*
X148236000Y-77275002D01*
X148236000Y-77664997D01*
X148234441Y-77680824D01*
X148222746Y-77799567D01*
X148205287Y-77857122D01*
X148170368Y-77972234D01*
X148085311Y-78131365D01*
X147970844Y-78270844D01*
X147831365Y-78385311D01*
X147672234Y-78470368D01*
X147585900Y-78496557D01*
X147499568Y-78522746D01*
X147483468Y-78524332D01*
X147320000Y-78540432D01*
X147156533Y-78524332D01*
X147140433Y-78522746D01*
X147054101Y-78496557D01*
X146967767Y-78470368D01*
X146808636Y-78385311D01*
X146669157Y-78270844D01*
X146554689Y-78131365D01*
X146469632Y-77972234D01*
X146417254Y-77799567D01*
X146404000Y-77664998D01*
X146404000Y-77275003D01*
X146417254Y-77140434D01*
X146417255Y-77140432D01*
X146459776Y-77000258D01*
X146469632Y-76967767D01*
X146554689Y-76808636D01*
X146669156Y-76669156D01*
X146808635Y-76554689D01*
X146967766Y-76469632D01*
X147054100Y-76443443D01*
X147140432Y-76417254D01*
X147156532Y-76415668D01*
X147320000Y-76399568D01*
X147483467Y-76415668D01*
G37*
G36*
X155103467Y-76415668D02*
G01*
X155119567Y-76417254D01*
X155205899Y-76443443D01*
X155292233Y-76469632D01*
X155451364Y-76554689D01*
X155590844Y-76669156D01*
X155705311Y-76808635D01*
X155790368Y-76967766D01*
X155803329Y-77010492D01*
X155831581Y-77103625D01*
X155842746Y-77140433D01*
X155856000Y-77275002D01*
X155856000Y-77664997D01*
X155854441Y-77680824D01*
X155842746Y-77799567D01*
X155825287Y-77857122D01*
X155790368Y-77972234D01*
X155705311Y-78131365D01*
X155590844Y-78270844D01*
X155451365Y-78385311D01*
X155292234Y-78470368D01*
X155205900Y-78496557D01*
X155119568Y-78522746D01*
X155103468Y-78524332D01*
X154940000Y-78540432D01*
X154776533Y-78524332D01*
X154760433Y-78522746D01*
X154674101Y-78496557D01*
X154587767Y-78470368D01*
X154428636Y-78385311D01*
X154289157Y-78270844D01*
X154174689Y-78131365D01*
X154089632Y-77972234D01*
X154037254Y-77799567D01*
X154024000Y-77664998D01*
X154024000Y-77275003D01*
X154037254Y-77140434D01*
X154037255Y-77140432D01*
X154079776Y-77000258D01*
X154089632Y-76967767D01*
X154174689Y-76808636D01*
X154289156Y-76669156D01*
X154428635Y-76554689D01*
X154587766Y-76469632D01*
X154674100Y-76443443D01*
X154760432Y-76417254D01*
X154776532Y-76415668D01*
X154940000Y-76399568D01*
X155103467Y-76415668D01*
G37*
G36*
X167803467Y-76415668D02*
G01*
X167819567Y-76417254D01*
X167905899Y-76443443D01*
X167992233Y-76469632D01*
X168151364Y-76554689D01*
X168290844Y-76669156D01*
X168405311Y-76808635D01*
X168490368Y-76967766D01*
X168503329Y-77010492D01*
X168531581Y-77103625D01*
X168542746Y-77140433D01*
X168556000Y-77275002D01*
X168556000Y-77664997D01*
X168554441Y-77680824D01*
X168542746Y-77799567D01*
X168525287Y-77857122D01*
X168490368Y-77972234D01*
X168405311Y-78131365D01*
X168290844Y-78270844D01*
X168151365Y-78385311D01*
X167992234Y-78470368D01*
X167905900Y-78496557D01*
X167819568Y-78522746D01*
X167803468Y-78524332D01*
X167640000Y-78540432D01*
X167476533Y-78524332D01*
X167460433Y-78522746D01*
X167374101Y-78496557D01*
X167287767Y-78470368D01*
X167128636Y-78385311D01*
X166989157Y-78270844D01*
X166874689Y-78131365D01*
X166789632Y-77972234D01*
X166737254Y-77799567D01*
X166724000Y-77664998D01*
X166724000Y-77275003D01*
X166737254Y-77140434D01*
X166737255Y-77140432D01*
X166779776Y-77000258D01*
X166789632Y-76967767D01*
X166874689Y-76808636D01*
X166989156Y-76669156D01*
X167128635Y-76554689D01*
X167287766Y-76469632D01*
X167374100Y-76443443D01*
X167460432Y-76417254D01*
X167476532Y-76415668D01*
X167640000Y-76399568D01*
X167803467Y-76415668D01*
G37*
G36*
X165263467Y-76415668D02*
G01*
X165279567Y-76417254D01*
X165365899Y-76443443D01*
X165452233Y-76469632D01*
X165611364Y-76554689D01*
X165750844Y-76669156D01*
X165865311Y-76808635D01*
X165950368Y-76967766D01*
X165963329Y-77010492D01*
X165991581Y-77103625D01*
X166002746Y-77140433D01*
X166016000Y-77275002D01*
X166016000Y-77664997D01*
X166014441Y-77680824D01*
X166002746Y-77799567D01*
X165985287Y-77857122D01*
X165950368Y-77972234D01*
X165865311Y-78131365D01*
X165750844Y-78270844D01*
X165611365Y-78385311D01*
X165452234Y-78470368D01*
X165365900Y-78496557D01*
X165279568Y-78522746D01*
X165263468Y-78524332D01*
X165100000Y-78540432D01*
X164936533Y-78524332D01*
X164920433Y-78522746D01*
X164834101Y-78496557D01*
X164747767Y-78470368D01*
X164588636Y-78385311D01*
X164449157Y-78270844D01*
X164334689Y-78131365D01*
X164249632Y-77972234D01*
X164197254Y-77799567D01*
X164184000Y-77664998D01*
X164184000Y-77275003D01*
X164197254Y-77140434D01*
X164197255Y-77140432D01*
X164239776Y-77000258D01*
X164249632Y-76967767D01*
X164334689Y-76808636D01*
X164449156Y-76669156D01*
X164588635Y-76554689D01*
X164747766Y-76469632D01*
X164834100Y-76443443D01*
X164920432Y-76417254D01*
X164936532Y-76415668D01*
X165100000Y-76399568D01*
X165263467Y-76415668D01*
G37*
G36*
X157643467Y-76415668D02*
G01*
X157659567Y-76417254D01*
X157745899Y-76443443D01*
X157832233Y-76469632D01*
X157991364Y-76554689D01*
X158130844Y-76669156D01*
X158245311Y-76808635D01*
X158330368Y-76967766D01*
X158343329Y-77010492D01*
X158371581Y-77103625D01*
X158382746Y-77140433D01*
X158396000Y-77275002D01*
X158396000Y-77664997D01*
X158394441Y-77680824D01*
X158382746Y-77799567D01*
X158365287Y-77857122D01*
X158330368Y-77972234D01*
X158245311Y-78131365D01*
X158130844Y-78270844D01*
X157991365Y-78385311D01*
X157832234Y-78470368D01*
X157745900Y-78496557D01*
X157659568Y-78522746D01*
X157643468Y-78524332D01*
X157480000Y-78540432D01*
X157316533Y-78524332D01*
X157300433Y-78522746D01*
X157214101Y-78496557D01*
X157127767Y-78470368D01*
X156968636Y-78385311D01*
X156829157Y-78270844D01*
X156714689Y-78131365D01*
X156629632Y-77972234D01*
X156577254Y-77799567D01*
X156564000Y-77664998D01*
X156564000Y-77275003D01*
X156577254Y-77140434D01*
X156577255Y-77140432D01*
X156619776Y-77000258D01*
X156629632Y-76967767D01*
X156714689Y-76808636D01*
X156829156Y-76669156D01*
X156968635Y-76554689D01*
X157127766Y-76469632D01*
X157214100Y-76443443D01*
X157300432Y-76417254D01*
X157316532Y-76415668D01*
X157480000Y-76399568D01*
X157643467Y-76415668D01*
G37*
G36*
X163476000Y-78536000D02*
G01*
X161644000Y-78536000D01*
X161644000Y-76404000D01*
X163476000Y-76404000D01*
X163476000Y-78536000D01*
G37*
G36*
X153316000Y-78536000D02*
G01*
X151484000Y-78536000D01*
X151484000Y-76404000D01*
X153316000Y-76404000D01*
X153316000Y-78536000D01*
G37*
G36*
X143156000Y-78536000D02*
G01*
X141324000Y-78536000D01*
X141324000Y-76404000D01*
X143156000Y-76404000D01*
X143156000Y-78536000D01*
G37*
G36*
X128518228Y-76651703D02*
G01*
X128673100Y-76715853D01*
X128812481Y-76808985D01*
X128931015Y-76927519D01*
X129024147Y-77066900D01*
X129088297Y-77221772D01*
X129121000Y-77386184D01*
X129121000Y-77553816D01*
X129088297Y-77718228D01*
X129024147Y-77873100D01*
X128931015Y-78012481D01*
X128812481Y-78131015D01*
X128673100Y-78224147D01*
X128518228Y-78288297D01*
X128353816Y-78321000D01*
X128186184Y-78321000D01*
X128021772Y-78288297D01*
X127866900Y-78224147D01*
X127727519Y-78131015D01*
X127608985Y-78012481D01*
X127515853Y-77873100D01*
X127451703Y-77718228D01*
X127419000Y-77553816D01*
X127419000Y-77386184D01*
X127451703Y-77221772D01*
X127515853Y-77066900D01*
X127608985Y-76927519D01*
X127727519Y-76808985D01*
X127866900Y-76715853D01*
X128021772Y-76651703D01*
X128186184Y-76619000D01*
X128353816Y-76619000D01*
X128518228Y-76651703D01*
G37*
G36*
X136138228Y-76651703D02*
G01*
X136293100Y-76715853D01*
X136432481Y-76808985D01*
X136551015Y-76927519D01*
X136644147Y-77066900D01*
X136708297Y-77221772D01*
X136741000Y-77386184D01*
X136741000Y-77553816D01*
X136708297Y-77718228D01*
X136644147Y-77873100D01*
X136551015Y-78012481D01*
X136432481Y-78131015D01*
X136293100Y-78224147D01*
X136138228Y-78288297D01*
X135973816Y-78321000D01*
X135806184Y-78321000D01*
X135641772Y-78288297D01*
X135486900Y-78224147D01*
X135347519Y-78131015D01*
X135228985Y-78012481D01*
X135135853Y-77873100D01*
X135071703Y-77718228D01*
X135039000Y-77553816D01*
X135039000Y-77386184D01*
X135071703Y-77221772D01*
X135135853Y-77066900D01*
X135228985Y-76927519D01*
X135347519Y-76808985D01*
X135486900Y-76715853D01*
X135641772Y-76651703D01*
X135806184Y-76619000D01*
X135973816Y-76619000D01*
X136138228Y-76651703D01*
G37*
G36*
X63867512Y-76192927D02*
G01*
X64016812Y-76222624D01*
X64180784Y-76290544D01*
X64328354Y-76389147D01*
X64453853Y-76514646D01*
X64552456Y-76662216D01*
X64620376Y-76826188D01*
X64655000Y-77000259D01*
X64655000Y-77177741D01*
X64620376Y-77351812D01*
X64552456Y-77515784D01*
X64453853Y-77663354D01*
X64328354Y-77788853D01*
X64180784Y-77887456D01*
X64016812Y-77955376D01*
X63867512Y-77985073D01*
X63842742Y-77990000D01*
X63665258Y-77990000D01*
X63640488Y-77985073D01*
X63491188Y-77955376D01*
X63327216Y-77887456D01*
X63179646Y-77788853D01*
X63054147Y-77663354D01*
X62955544Y-77515784D01*
X62887624Y-77351812D01*
X62853000Y-77177741D01*
X62853000Y-77000259D01*
X62887624Y-76826188D01*
X62955544Y-76662216D01*
X63054147Y-76514646D01*
X63179646Y-76389147D01*
X63327216Y-76290544D01*
X63491188Y-76222624D01*
X63640488Y-76192927D01*
X63665258Y-76188000D01*
X63842742Y-76188000D01*
X63867512Y-76192927D01*
G37*
G36*
X67195000Y-77990000D02*
G01*
X65393000Y-77990000D01*
X65393000Y-76188000D01*
X67195000Y-76188000D01*
X67195000Y-77990000D01*
G37*
G36*
X104580694Y-75247833D02*
G01*
X104753095Y-75300131D01*
X104911983Y-75385058D01*
X105051249Y-75499351D01*
X105165542Y-75638617D01*
X105250469Y-75797505D01*
X105302767Y-75969906D01*
X105320425Y-76149200D01*
X105302767Y-76328494D01*
X105250469Y-76500895D01*
X105165542Y-76659783D01*
X105051249Y-76799049D01*
X104911983Y-76913342D01*
X104753095Y-76998269D01*
X104580694Y-77050567D01*
X104446331Y-77063800D01*
X103833669Y-77063800D01*
X103699306Y-77050567D01*
X103526905Y-76998269D01*
X103368017Y-76913342D01*
X103228751Y-76799049D01*
X103114458Y-76659783D01*
X103029531Y-76500895D01*
X102977233Y-76328494D01*
X102959575Y-76149200D01*
X102977233Y-75969906D01*
X103029531Y-75797505D01*
X103114458Y-75638617D01*
X103228751Y-75499351D01*
X103368017Y-75385058D01*
X103526905Y-75300131D01*
X103699306Y-75247833D01*
X103833669Y-75234600D01*
X104446331Y-75234600D01*
X104580694Y-75247833D01*
G37*
G36*
X119820694Y-75247833D02*
G01*
X119993095Y-75300131D01*
X120151983Y-75385058D01*
X120291249Y-75499351D01*
X120405542Y-75638617D01*
X120490469Y-75797505D01*
X120542767Y-75969906D01*
X120560425Y-76149200D01*
X120542767Y-76328494D01*
X120490469Y-76500895D01*
X120405542Y-76659783D01*
X120291249Y-76799049D01*
X120151983Y-76913342D01*
X119993095Y-76998269D01*
X119820694Y-77050567D01*
X119686331Y-77063800D01*
X119073669Y-77063800D01*
X118939306Y-77050567D01*
X118766905Y-76998269D01*
X118608017Y-76913342D01*
X118468751Y-76799049D01*
X118354458Y-76659783D01*
X118269531Y-76500895D01*
X118217233Y-76328494D01*
X118199575Y-76149200D01*
X118217233Y-75969906D01*
X118269531Y-75797505D01*
X118354458Y-75638617D01*
X118468751Y-75499351D01*
X118608017Y-75385058D01*
X118766905Y-75300131D01*
X118939306Y-75247833D01*
X119073669Y-75234600D01*
X119686331Y-75234600D01*
X119820694Y-75247833D01*
G37*
G36*
X128518228Y-74111703D02*
G01*
X128673100Y-74175853D01*
X128812481Y-74268985D01*
X128931015Y-74387519D01*
X129024147Y-74526900D01*
X129088297Y-74681772D01*
X129121000Y-74846184D01*
X129121000Y-75013816D01*
X129088297Y-75178228D01*
X129024147Y-75333100D01*
X128931015Y-75472481D01*
X128812481Y-75591015D01*
X128673100Y-75684147D01*
X128518228Y-75748297D01*
X128353816Y-75781000D01*
X128186184Y-75781000D01*
X128021772Y-75748297D01*
X127866900Y-75684147D01*
X127727519Y-75591015D01*
X127608985Y-75472481D01*
X127515853Y-75333100D01*
X127451703Y-75178228D01*
X127419000Y-75013816D01*
X127419000Y-74846184D01*
X127451703Y-74681772D01*
X127515853Y-74526900D01*
X127608985Y-74387519D01*
X127727519Y-74268985D01*
X127866900Y-74175853D01*
X128021772Y-74111703D01*
X128186184Y-74079000D01*
X128353816Y-74079000D01*
X128518228Y-74111703D01*
G37*
G36*
X136138228Y-74111703D02*
G01*
X136293100Y-74175853D01*
X136432481Y-74268985D01*
X136551015Y-74387519D01*
X136644147Y-74526900D01*
X136708297Y-74681772D01*
X136741000Y-74846184D01*
X136741000Y-75013816D01*
X136708297Y-75178228D01*
X136644147Y-75333100D01*
X136551015Y-75472481D01*
X136432481Y-75591015D01*
X136293100Y-75684147D01*
X136138228Y-75748297D01*
X135973816Y-75781000D01*
X135806184Y-75781000D01*
X135641772Y-75748297D01*
X135486900Y-75684147D01*
X135347519Y-75591015D01*
X135228985Y-75472481D01*
X135135853Y-75333100D01*
X135071703Y-75178228D01*
X135039000Y-75013816D01*
X135039000Y-74846184D01*
X135071703Y-74681772D01*
X135135853Y-74526900D01*
X135228985Y-74387519D01*
X135347519Y-74268985D01*
X135486900Y-74175853D01*
X135641772Y-74111703D01*
X135806184Y-74079000D01*
X135973816Y-74079000D01*
X136138228Y-74111703D01*
G37*
G36*
X104580694Y-72707833D02*
G01*
X104753095Y-72760131D01*
X104911983Y-72845058D01*
X105051249Y-72959351D01*
X105165542Y-73098617D01*
X105250469Y-73257505D01*
X105302767Y-73429906D01*
X105320425Y-73609200D01*
X105302767Y-73788494D01*
X105250469Y-73960895D01*
X105165542Y-74119783D01*
X105051249Y-74259049D01*
X104911983Y-74373342D01*
X104753095Y-74458269D01*
X104580694Y-74510567D01*
X104446331Y-74523800D01*
X103833669Y-74523800D01*
X103699306Y-74510567D01*
X103526905Y-74458269D01*
X103368017Y-74373342D01*
X103228751Y-74259049D01*
X103114458Y-74119783D01*
X103029531Y-73960895D01*
X102977233Y-73788494D01*
X102959575Y-73609200D01*
X102977233Y-73429906D01*
X103029531Y-73257505D01*
X103114458Y-73098617D01*
X103228751Y-72959351D01*
X103368017Y-72845058D01*
X103526905Y-72760131D01*
X103699306Y-72707833D01*
X103833669Y-72694600D01*
X104446331Y-72694600D01*
X104580694Y-72707833D01*
G37*
G36*
X119820694Y-72707833D02*
G01*
X119993095Y-72760131D01*
X120151983Y-72845058D01*
X120291249Y-72959351D01*
X120405542Y-73098617D01*
X120490469Y-73257505D01*
X120542767Y-73429906D01*
X120560425Y-73609200D01*
X120542767Y-73788494D01*
X120490469Y-73960895D01*
X120405542Y-74119783D01*
X120291249Y-74259049D01*
X120151983Y-74373342D01*
X119993095Y-74458269D01*
X119820694Y-74510567D01*
X119686331Y-74523800D01*
X119073669Y-74523800D01*
X118939306Y-74510567D01*
X118766905Y-74458269D01*
X118608017Y-74373342D01*
X118468751Y-74259049D01*
X118354458Y-74119783D01*
X118269531Y-73960895D01*
X118217233Y-73788494D01*
X118199575Y-73609200D01*
X118217233Y-73429906D01*
X118269531Y-73257505D01*
X118354458Y-73098617D01*
X118468751Y-72959351D01*
X118608017Y-72845058D01*
X118766905Y-72760131D01*
X118939306Y-72707833D01*
X119073669Y-72694600D01*
X119686331Y-72694600D01*
X119820694Y-72707833D01*
G37*
G36*
X128518228Y-71571703D02*
G01*
X128673100Y-71635853D01*
X128812481Y-71728985D01*
X128931015Y-71847519D01*
X129024147Y-71986900D01*
X129088297Y-72141772D01*
X129121000Y-72306184D01*
X129121000Y-72473816D01*
X129088297Y-72638228D01*
X129024147Y-72793100D01*
X128931015Y-72932481D01*
X128812481Y-73051015D01*
X128673100Y-73144147D01*
X128518228Y-73208297D01*
X128353816Y-73241000D01*
X128186184Y-73241000D01*
X128021772Y-73208297D01*
X127866900Y-73144147D01*
X127727519Y-73051015D01*
X127608985Y-72932481D01*
X127515853Y-72793100D01*
X127451703Y-72638228D01*
X127419000Y-72473816D01*
X127419000Y-72306184D01*
X127451703Y-72141772D01*
X127515853Y-71986900D01*
X127608985Y-71847519D01*
X127727519Y-71728985D01*
X127866900Y-71635853D01*
X128021772Y-71571703D01*
X128186184Y-71539000D01*
X128353816Y-71539000D01*
X128518228Y-71571703D01*
G37*
G36*
X136138228Y-71571703D02*
G01*
X136293100Y-71635853D01*
X136432481Y-71728985D01*
X136551015Y-71847519D01*
X136644147Y-71986900D01*
X136708297Y-72141772D01*
X136741000Y-72306184D01*
X136741000Y-72473816D01*
X136708297Y-72638228D01*
X136644147Y-72793100D01*
X136551015Y-72932481D01*
X136432481Y-73051015D01*
X136293100Y-73144147D01*
X136138228Y-73208297D01*
X135973816Y-73241000D01*
X135806184Y-73241000D01*
X135641772Y-73208297D01*
X135486900Y-73144147D01*
X135347519Y-73051015D01*
X135228985Y-72932481D01*
X135135853Y-72793100D01*
X135071703Y-72638228D01*
X135039000Y-72473816D01*
X135039000Y-72306184D01*
X135071703Y-72141772D01*
X135135853Y-71986900D01*
X135228985Y-71847519D01*
X135347519Y-71728985D01*
X135486900Y-71635853D01*
X135641772Y-71571703D01*
X135806184Y-71539000D01*
X135973816Y-71539000D01*
X136138228Y-71571703D01*
G37*
G36*
X69637228Y-70555703D02*
G01*
X69792100Y-70619853D01*
X69931481Y-70712985D01*
X70050015Y-70831519D01*
X70143147Y-70970900D01*
X70207297Y-71125772D01*
X70240000Y-71290184D01*
X70240000Y-71457816D01*
X70207297Y-71622228D01*
X70143147Y-71777100D01*
X70050015Y-71916481D01*
X69931481Y-72035015D01*
X69792100Y-72128147D01*
X69637228Y-72192297D01*
X69472816Y-72225000D01*
X69305184Y-72225000D01*
X69140772Y-72192297D01*
X68985900Y-72128147D01*
X68846519Y-72035015D01*
X68727985Y-71916481D01*
X68634853Y-71777100D01*
X68570703Y-71622228D01*
X68538000Y-71457816D01*
X68538000Y-71290184D01*
X68570703Y-71125772D01*
X68634853Y-70970900D01*
X68727985Y-70831519D01*
X68846519Y-70712985D01*
X68985900Y-70619853D01*
X69140772Y-70555703D01*
X69305184Y-70523000D01*
X69472816Y-70523000D01*
X69637228Y-70555703D01*
G37*
G36*
X64637228Y-70555703D02*
G01*
X64792100Y-70619853D01*
X64931481Y-70712985D01*
X65050015Y-70831519D01*
X65143147Y-70970900D01*
X65207297Y-71125772D01*
X65240000Y-71290184D01*
X65240000Y-71457816D01*
X65207297Y-71622228D01*
X65143147Y-71777100D01*
X65050015Y-71916481D01*
X64931481Y-72035015D01*
X64792100Y-72128147D01*
X64637228Y-72192297D01*
X64472816Y-72225000D01*
X64305184Y-72225000D01*
X64140772Y-72192297D01*
X63985900Y-72128147D01*
X63846519Y-72035015D01*
X63727985Y-71916481D01*
X63634853Y-71777100D01*
X63570703Y-71622228D01*
X63538000Y-71457816D01*
X63538000Y-71290184D01*
X63570703Y-71125772D01*
X63634853Y-70970900D01*
X63727985Y-70831519D01*
X63846519Y-70712985D01*
X63985900Y-70619853D01*
X64140772Y-70555703D01*
X64305184Y-70523000D01*
X64472816Y-70523000D01*
X64637228Y-70555703D01*
G37*
G36*
X95918513Y-70223927D02*
G01*
X96067813Y-70253624D01*
X96231785Y-70321544D01*
X96379355Y-70420147D01*
X96504854Y-70545646D01*
X96603457Y-70693216D01*
X96671377Y-70857188D01*
X96706001Y-71031259D01*
X96706001Y-71208741D01*
X96671377Y-71382812D01*
X96603457Y-71546784D01*
X96504854Y-71694354D01*
X96379355Y-71819853D01*
X96231785Y-71918456D01*
X96067813Y-71986376D01*
X95918513Y-72016073D01*
X95893743Y-72021000D01*
X95716259Y-72021000D01*
X95691489Y-72016073D01*
X95542189Y-71986376D01*
X95378217Y-71918456D01*
X95230647Y-71819853D01*
X95105148Y-71694354D01*
X95006545Y-71546784D01*
X94938625Y-71382812D01*
X94904001Y-71208741D01*
X94904001Y-71031259D01*
X94938625Y-70857188D01*
X95006545Y-70693216D01*
X95105148Y-70545646D01*
X95230647Y-70420147D01*
X95378217Y-70321544D01*
X95542189Y-70253624D01*
X95691489Y-70223927D01*
X95716259Y-70219000D01*
X95893743Y-70219000D01*
X95918513Y-70223927D01*
G37*
G36*
X93378513Y-70223927D02*
G01*
X93527813Y-70253624D01*
X93691785Y-70321544D01*
X93839355Y-70420147D01*
X93964854Y-70545646D01*
X94063457Y-70693216D01*
X94131377Y-70857188D01*
X94166001Y-71031259D01*
X94166001Y-71208741D01*
X94131377Y-71382812D01*
X94063457Y-71546784D01*
X93964854Y-71694354D01*
X93839355Y-71819853D01*
X93691785Y-71918456D01*
X93527813Y-71986376D01*
X93378513Y-72016073D01*
X93353743Y-72021000D01*
X93176259Y-72021000D01*
X93151489Y-72016073D01*
X93002189Y-71986376D01*
X92838217Y-71918456D01*
X92690647Y-71819853D01*
X92565148Y-71694354D01*
X92466545Y-71546784D01*
X92398625Y-71382812D01*
X92364001Y-71208741D01*
X92364001Y-71031259D01*
X92398625Y-70857188D01*
X92466545Y-70693216D01*
X92565148Y-70545646D01*
X92690647Y-70420147D01*
X92838217Y-70321544D01*
X93002189Y-70253624D01*
X93151489Y-70223927D01*
X93176259Y-70219000D01*
X93353743Y-70219000D01*
X93378513Y-70223927D01*
G37*
G36*
X90838513Y-70223927D02*
G01*
X90987813Y-70253624D01*
X91151785Y-70321544D01*
X91299355Y-70420147D01*
X91424854Y-70545646D01*
X91523457Y-70693216D01*
X91591377Y-70857188D01*
X91626001Y-71031259D01*
X91626001Y-71208741D01*
X91591377Y-71382812D01*
X91523457Y-71546784D01*
X91424854Y-71694354D01*
X91299355Y-71819853D01*
X91151785Y-71918456D01*
X90987813Y-71986376D01*
X90838513Y-72016073D01*
X90813743Y-72021000D01*
X90636259Y-72021000D01*
X90611489Y-72016073D01*
X90462189Y-71986376D01*
X90298217Y-71918456D01*
X90150647Y-71819853D01*
X90025148Y-71694354D01*
X89926545Y-71546784D01*
X89858625Y-71382812D01*
X89824001Y-71208741D01*
X89824001Y-71031259D01*
X89858625Y-70857188D01*
X89926545Y-70693216D01*
X90025148Y-70545646D01*
X90150647Y-70420147D01*
X90298217Y-70321544D01*
X90462189Y-70253624D01*
X90611489Y-70223927D01*
X90636259Y-70219000D01*
X90813743Y-70219000D01*
X90838513Y-70223927D01*
G37*
G36*
X80678513Y-70223927D02*
G01*
X80827813Y-70253624D01*
X80991785Y-70321544D01*
X81139355Y-70420147D01*
X81264854Y-70545646D01*
X81363457Y-70693216D01*
X81431377Y-70857188D01*
X81466001Y-71031259D01*
X81466001Y-71208741D01*
X81431377Y-71382812D01*
X81363457Y-71546784D01*
X81264854Y-71694354D01*
X81139355Y-71819853D01*
X80991785Y-71918456D01*
X80827813Y-71986376D01*
X80678513Y-72016073D01*
X80653743Y-72021000D01*
X80476259Y-72021000D01*
X80451489Y-72016073D01*
X80302189Y-71986376D01*
X80138217Y-71918456D01*
X79990647Y-71819853D01*
X79865148Y-71694354D01*
X79766545Y-71546784D01*
X79698625Y-71382812D01*
X79664001Y-71208741D01*
X79664001Y-71031259D01*
X79698625Y-70857188D01*
X79766545Y-70693216D01*
X79865148Y-70545646D01*
X79990647Y-70420147D01*
X80138217Y-70321544D01*
X80302189Y-70253624D01*
X80451489Y-70223927D01*
X80476259Y-70219000D01*
X80653743Y-70219000D01*
X80678513Y-70223927D01*
G37*
G36*
X88298513Y-70223927D02*
G01*
X88447813Y-70253624D01*
X88611785Y-70321544D01*
X88759355Y-70420147D01*
X88884854Y-70545646D01*
X88983457Y-70693216D01*
X89051377Y-70857188D01*
X89086001Y-71031259D01*
X89086001Y-71208741D01*
X89051377Y-71382812D01*
X88983457Y-71546784D01*
X88884854Y-71694354D01*
X88759355Y-71819853D01*
X88611785Y-71918456D01*
X88447813Y-71986376D01*
X88298513Y-72016073D01*
X88273743Y-72021000D01*
X88096259Y-72021000D01*
X88071489Y-72016073D01*
X87922189Y-71986376D01*
X87758217Y-71918456D01*
X87610647Y-71819853D01*
X87485148Y-71694354D01*
X87386545Y-71546784D01*
X87318625Y-71382812D01*
X87284001Y-71208741D01*
X87284001Y-71031259D01*
X87318625Y-70857188D01*
X87386545Y-70693216D01*
X87485148Y-70545646D01*
X87610647Y-70420147D01*
X87758217Y-70321544D01*
X87922189Y-70253624D01*
X88071489Y-70223927D01*
X88096259Y-70219000D01*
X88273743Y-70219000D01*
X88298513Y-70223927D01*
G37*
G36*
X73846001Y-72021000D02*
G01*
X72044001Y-72021000D01*
X72044001Y-70219000D01*
X73846001Y-70219000D01*
X73846001Y-72021000D01*
G37*
G36*
X78138513Y-70223927D02*
G01*
X78287813Y-70253624D01*
X78451785Y-70321544D01*
X78599355Y-70420147D01*
X78724854Y-70545646D01*
X78823457Y-70693216D01*
X78891377Y-70857188D01*
X78926001Y-71031259D01*
X78926001Y-71208741D01*
X78891377Y-71382812D01*
X78823457Y-71546784D01*
X78724854Y-71694354D01*
X78599355Y-71819853D01*
X78451785Y-71918456D01*
X78287813Y-71986376D01*
X78138513Y-72016073D01*
X78113743Y-72021000D01*
X77936259Y-72021000D01*
X77911489Y-72016073D01*
X77762189Y-71986376D01*
X77598217Y-71918456D01*
X77450647Y-71819853D01*
X77325148Y-71694354D01*
X77226545Y-71546784D01*
X77158625Y-71382812D01*
X77124001Y-71208741D01*
X77124001Y-71031259D01*
X77158625Y-70857188D01*
X77226545Y-70693216D01*
X77325148Y-70545646D01*
X77450647Y-70420147D01*
X77598217Y-70321544D01*
X77762189Y-70253624D01*
X77911489Y-70223927D01*
X77936259Y-70219000D01*
X78113743Y-70219000D01*
X78138513Y-70223927D01*
G37*
G36*
X75598513Y-70223927D02*
G01*
X75747813Y-70253624D01*
X75911785Y-70321544D01*
X76059355Y-70420147D01*
X76184854Y-70545646D01*
X76283457Y-70693216D01*
X76351377Y-70857188D01*
X76386001Y-71031259D01*
X76386001Y-71208741D01*
X76351377Y-71382812D01*
X76283457Y-71546784D01*
X76184854Y-71694354D01*
X76059355Y-71819853D01*
X75911785Y-71918456D01*
X75747813Y-71986376D01*
X75598513Y-72016073D01*
X75573743Y-72021000D01*
X75396259Y-72021000D01*
X75371489Y-72016073D01*
X75222189Y-71986376D01*
X75058217Y-71918456D01*
X74910647Y-71819853D01*
X74785148Y-71694354D01*
X74686545Y-71546784D01*
X74618625Y-71382812D01*
X74584001Y-71208741D01*
X74584001Y-71031259D01*
X74618625Y-70857188D01*
X74686545Y-70693216D01*
X74785148Y-70545646D01*
X74910647Y-70420147D01*
X75058217Y-70321544D01*
X75222189Y-70253624D01*
X75371489Y-70223927D01*
X75396259Y-70219000D01*
X75573743Y-70219000D01*
X75598513Y-70223927D01*
G37*
G36*
X83218513Y-70223927D02*
G01*
X83367813Y-70253624D01*
X83531785Y-70321544D01*
X83679355Y-70420147D01*
X83804854Y-70545646D01*
X83903457Y-70693216D01*
X83971377Y-70857188D01*
X84006001Y-71031259D01*
X84006001Y-71208741D01*
X83971377Y-71382812D01*
X83903457Y-71546784D01*
X83804854Y-71694354D01*
X83679355Y-71819853D01*
X83531785Y-71918456D01*
X83367813Y-71986376D01*
X83218513Y-72016073D01*
X83193743Y-72021000D01*
X83016259Y-72021000D01*
X82991489Y-72016073D01*
X82842189Y-71986376D01*
X82678217Y-71918456D01*
X82530647Y-71819853D01*
X82405148Y-71694354D01*
X82306545Y-71546784D01*
X82238625Y-71382812D01*
X82204001Y-71208741D01*
X82204001Y-71031259D01*
X82238625Y-70857188D01*
X82306545Y-70693216D01*
X82405148Y-70545646D01*
X82530647Y-70420147D01*
X82678217Y-70321544D01*
X82842189Y-70253624D01*
X82991489Y-70223927D01*
X83016259Y-70219000D01*
X83193743Y-70219000D01*
X83218513Y-70223927D01*
G37*
G36*
X85758513Y-70223927D02*
G01*
X85907813Y-70253624D01*
X86071785Y-70321544D01*
X86219355Y-70420147D01*
X86344854Y-70545646D01*
X86443457Y-70693216D01*
X86511377Y-70857188D01*
X86546001Y-71031259D01*
X86546001Y-71208741D01*
X86511377Y-71382812D01*
X86443457Y-71546784D01*
X86344854Y-71694354D01*
X86219355Y-71819853D01*
X86071785Y-71918456D01*
X85907813Y-71986376D01*
X85758513Y-72016073D01*
X85733743Y-72021000D01*
X85556259Y-72021000D01*
X85531489Y-72016073D01*
X85382189Y-71986376D01*
X85218217Y-71918456D01*
X85070647Y-71819853D01*
X84945148Y-71694354D01*
X84846545Y-71546784D01*
X84778625Y-71382812D01*
X84744001Y-71208741D01*
X84744001Y-71031259D01*
X84778625Y-70857188D01*
X84846545Y-70693216D01*
X84945148Y-70545646D01*
X85070647Y-70420147D01*
X85218217Y-70321544D01*
X85382189Y-70253624D01*
X85531489Y-70223927D01*
X85556259Y-70219000D01*
X85733743Y-70219000D01*
X85758513Y-70223927D01*
G37*
G36*
X104580694Y-70167833D02*
G01*
X104753095Y-70220131D01*
X104911983Y-70305058D01*
X105051249Y-70419351D01*
X105165542Y-70558617D01*
X105250469Y-70717505D01*
X105302767Y-70889906D01*
X105320425Y-71069200D01*
X105302767Y-71248494D01*
X105250469Y-71420895D01*
X105165542Y-71579783D01*
X105051249Y-71719049D01*
X104911983Y-71833342D01*
X104753095Y-71918269D01*
X104580694Y-71970567D01*
X104446331Y-71983800D01*
X103833669Y-71983800D01*
X103699306Y-71970567D01*
X103526905Y-71918269D01*
X103368017Y-71833342D01*
X103228751Y-71719049D01*
X103114458Y-71579783D01*
X103029531Y-71420895D01*
X102977233Y-71248494D01*
X102959575Y-71069200D01*
X102977233Y-70889906D01*
X103029531Y-70717505D01*
X103114458Y-70558617D01*
X103228751Y-70419351D01*
X103368017Y-70305058D01*
X103526905Y-70220131D01*
X103699306Y-70167833D01*
X103833669Y-70154600D01*
X104446331Y-70154600D01*
X104580694Y-70167833D01*
G37*
G36*
X119820694Y-70167833D02*
G01*
X119993095Y-70220131D01*
X120151983Y-70305058D01*
X120291249Y-70419351D01*
X120405542Y-70558617D01*
X120490469Y-70717505D01*
X120542767Y-70889906D01*
X120560425Y-71069200D01*
X120542767Y-71248494D01*
X120490469Y-71420895D01*
X120405542Y-71579783D01*
X120291249Y-71719049D01*
X120151983Y-71833342D01*
X119993095Y-71918269D01*
X119820694Y-71970567D01*
X119686331Y-71983800D01*
X119073669Y-71983800D01*
X118939306Y-71970567D01*
X118766905Y-71918269D01*
X118608017Y-71833342D01*
X118468751Y-71719049D01*
X118354458Y-71579783D01*
X118269531Y-71420895D01*
X118217233Y-71248494D01*
X118199575Y-71069200D01*
X118217233Y-70889906D01*
X118269531Y-70717505D01*
X118354458Y-70558617D01*
X118468751Y-70419351D01*
X118608017Y-70305058D01*
X118766905Y-70220131D01*
X118939306Y-70167833D01*
X119073669Y-70154600D01*
X119686331Y-70154600D01*
X119820694Y-70167833D01*
G37*
G36*
X58559000Y-71259000D02*
G01*
X56757000Y-71259000D01*
X56757000Y-69457000D01*
X58559000Y-69457000D01*
X58559000Y-71259000D01*
G37*
G36*
X136138228Y-69031703D02*
G01*
X136293100Y-69095853D01*
X136432481Y-69188985D01*
X136551015Y-69307519D01*
X136644147Y-69446900D01*
X136708297Y-69601772D01*
X136741000Y-69766184D01*
X136741000Y-69933816D01*
X136708297Y-70098228D01*
X136644147Y-70253100D01*
X136551015Y-70392481D01*
X136432481Y-70511015D01*
X136293100Y-70604147D01*
X136138228Y-70668297D01*
X135973816Y-70701000D01*
X135806184Y-70701000D01*
X135641772Y-70668297D01*
X135486900Y-70604147D01*
X135347519Y-70511015D01*
X135228985Y-70392481D01*
X135135853Y-70253100D01*
X135071703Y-70098228D01*
X135039000Y-69933816D01*
X135039000Y-69766184D01*
X135071703Y-69601772D01*
X135135853Y-69446900D01*
X135228985Y-69307519D01*
X135347519Y-69188985D01*
X135486900Y-69095853D01*
X135641772Y-69031703D01*
X135806184Y-68999000D01*
X135973816Y-68999000D01*
X136138228Y-69031703D01*
G37*
G36*
X128518228Y-69031703D02*
G01*
X128673100Y-69095853D01*
X128812481Y-69188985D01*
X128931015Y-69307519D01*
X129024147Y-69446900D01*
X129088297Y-69601772D01*
X129121000Y-69766184D01*
X129121000Y-69933816D01*
X129088297Y-70098228D01*
X129024147Y-70253100D01*
X128931015Y-70392481D01*
X128812481Y-70511015D01*
X128673100Y-70604147D01*
X128518228Y-70668297D01*
X128353816Y-70701000D01*
X128186184Y-70701000D01*
X128021772Y-70668297D01*
X127866900Y-70604147D01*
X127727519Y-70511015D01*
X127608985Y-70392481D01*
X127515853Y-70253100D01*
X127451703Y-70098228D01*
X127419000Y-69933816D01*
X127419000Y-69766184D01*
X127451703Y-69601772D01*
X127515853Y-69446900D01*
X127608985Y-69307519D01*
X127727519Y-69188985D01*
X127866900Y-69095853D01*
X128021772Y-69031703D01*
X128186184Y-68999000D01*
X128353816Y-68999000D01*
X128518228Y-69031703D01*
G37*
G36*
X155103467Y-67525668D02*
G01*
X155119567Y-67527254D01*
X155292233Y-67579632D01*
X155451364Y-67664689D01*
X155590844Y-67779156D01*
X155705311Y-67918635D01*
X155790368Y-68077766D01*
X155813256Y-68153218D01*
X155841033Y-68244784D01*
X155842746Y-68250433D01*
X155856000Y-68385002D01*
X155856000Y-68774997D01*
X155849321Y-68842811D01*
X155842746Y-68909567D01*
X155829526Y-68953147D01*
X155790368Y-69082234D01*
X155705311Y-69241365D01*
X155590844Y-69380844D01*
X155451365Y-69495311D01*
X155292234Y-69580368D01*
X155205900Y-69606557D01*
X155119568Y-69632746D01*
X155103468Y-69634332D01*
X154940000Y-69650432D01*
X154776533Y-69634332D01*
X154760433Y-69632746D01*
X154674101Y-69606557D01*
X154587767Y-69580368D01*
X154428636Y-69495311D01*
X154289157Y-69380844D01*
X154174689Y-69241365D01*
X154089632Y-69082234D01*
X154037254Y-68909567D01*
X154024000Y-68774998D01*
X154024000Y-68385003D01*
X154037254Y-68250434D01*
X154037255Y-68250432D01*
X154066745Y-68153216D01*
X154089632Y-68077767D01*
X154174689Y-67918636D01*
X154289156Y-67779156D01*
X154428635Y-67664689D01*
X154587766Y-67579632D01*
X154760432Y-67527254D01*
X154776532Y-67525668D01*
X154940000Y-67509568D01*
X155103467Y-67525668D01*
G37*
G36*
X144943467Y-67525668D02*
G01*
X144959567Y-67527254D01*
X145132233Y-67579632D01*
X145291364Y-67664689D01*
X145430844Y-67779156D01*
X145545311Y-67918635D01*
X145630368Y-68077766D01*
X145653256Y-68153218D01*
X145681033Y-68244784D01*
X145682746Y-68250433D01*
X145696000Y-68385002D01*
X145696000Y-68774997D01*
X145689321Y-68842811D01*
X145682746Y-68909567D01*
X145669526Y-68953147D01*
X145630368Y-69082234D01*
X145545311Y-69241365D01*
X145430844Y-69380844D01*
X145291365Y-69495311D01*
X145132234Y-69580368D01*
X145045900Y-69606557D01*
X144959568Y-69632746D01*
X144943468Y-69634332D01*
X144780000Y-69650432D01*
X144616533Y-69634332D01*
X144600433Y-69632746D01*
X144514101Y-69606557D01*
X144427767Y-69580368D01*
X144268636Y-69495311D01*
X144129157Y-69380844D01*
X144014689Y-69241365D01*
X143929632Y-69082234D01*
X143877254Y-68909567D01*
X143864000Y-68774998D01*
X143864000Y-68385003D01*
X143877254Y-68250434D01*
X143877255Y-68250432D01*
X143906745Y-68153216D01*
X143929632Y-68077767D01*
X144014689Y-67918636D01*
X144129156Y-67779156D01*
X144268635Y-67664689D01*
X144427766Y-67579632D01*
X144600432Y-67527254D01*
X144616532Y-67525668D01*
X144780000Y-67509568D01*
X144943467Y-67525668D01*
G37*
G36*
X147483467Y-67525668D02*
G01*
X147499567Y-67527254D01*
X147672233Y-67579632D01*
X147831364Y-67664689D01*
X147970844Y-67779156D01*
X148085311Y-67918635D01*
X148170368Y-68077766D01*
X148193256Y-68153218D01*
X148221033Y-68244784D01*
X148222746Y-68250433D01*
X148236000Y-68385002D01*
X148236000Y-68774997D01*
X148229321Y-68842811D01*
X148222746Y-68909567D01*
X148209526Y-68953147D01*
X148170368Y-69082234D01*
X148085311Y-69241365D01*
X147970844Y-69380844D01*
X147831365Y-69495311D01*
X147672234Y-69580368D01*
X147585900Y-69606557D01*
X147499568Y-69632746D01*
X147483468Y-69634332D01*
X147320000Y-69650432D01*
X147156533Y-69634332D01*
X147140433Y-69632746D01*
X147054101Y-69606557D01*
X146967767Y-69580368D01*
X146808636Y-69495311D01*
X146669157Y-69380844D01*
X146554689Y-69241365D01*
X146469632Y-69082234D01*
X146417254Y-68909567D01*
X146404000Y-68774998D01*
X146404000Y-68385003D01*
X146417254Y-68250434D01*
X146417255Y-68250432D01*
X146446745Y-68153216D01*
X146469632Y-68077767D01*
X146554689Y-67918636D01*
X146669156Y-67779156D01*
X146808635Y-67664689D01*
X146967766Y-67579632D01*
X147140432Y-67527254D01*
X147156532Y-67525668D01*
X147320000Y-67509568D01*
X147483467Y-67525668D01*
G37*
G36*
X157643467Y-67525668D02*
G01*
X157659567Y-67527254D01*
X157832233Y-67579632D01*
X157991364Y-67664689D01*
X158130844Y-67779156D01*
X158245311Y-67918635D01*
X158330368Y-68077766D01*
X158353256Y-68153218D01*
X158381033Y-68244784D01*
X158382746Y-68250433D01*
X158396000Y-68385002D01*
X158396000Y-68774997D01*
X158389321Y-68842811D01*
X158382746Y-68909567D01*
X158369526Y-68953147D01*
X158330368Y-69082234D01*
X158245311Y-69241365D01*
X158130844Y-69380844D01*
X157991365Y-69495311D01*
X157832234Y-69580368D01*
X157745900Y-69606557D01*
X157659568Y-69632746D01*
X157643468Y-69634332D01*
X157480000Y-69650432D01*
X157316533Y-69634332D01*
X157300433Y-69632746D01*
X157214101Y-69606557D01*
X157127767Y-69580368D01*
X156968636Y-69495311D01*
X156829157Y-69380844D01*
X156714689Y-69241365D01*
X156629632Y-69082234D01*
X156577254Y-68909567D01*
X156564000Y-68774998D01*
X156564000Y-68385003D01*
X156577254Y-68250434D01*
X156577255Y-68250432D01*
X156606745Y-68153216D01*
X156629632Y-68077767D01*
X156714689Y-67918636D01*
X156829156Y-67779156D01*
X156968635Y-67664689D01*
X157127766Y-67579632D01*
X157300432Y-67527254D01*
X157316532Y-67525668D01*
X157480000Y-67509568D01*
X157643467Y-67525668D01*
G37*
G36*
X165263467Y-67525668D02*
G01*
X165279567Y-67527254D01*
X165452233Y-67579632D01*
X165611364Y-67664689D01*
X165750844Y-67779156D01*
X165865311Y-67918635D01*
X165950368Y-68077766D01*
X165973256Y-68153218D01*
X166001033Y-68244784D01*
X166002746Y-68250433D01*
X166016000Y-68385002D01*
X166016000Y-68774997D01*
X166009321Y-68842811D01*
X166002746Y-68909567D01*
X165989526Y-68953147D01*
X165950368Y-69082234D01*
X165865311Y-69241365D01*
X165750844Y-69380844D01*
X165611365Y-69495311D01*
X165452234Y-69580368D01*
X165365900Y-69606557D01*
X165279568Y-69632746D01*
X165263468Y-69634332D01*
X165100000Y-69650432D01*
X164936533Y-69634332D01*
X164920433Y-69632746D01*
X164834101Y-69606557D01*
X164747767Y-69580368D01*
X164588636Y-69495311D01*
X164449157Y-69380844D01*
X164334689Y-69241365D01*
X164249632Y-69082234D01*
X164197254Y-68909567D01*
X164184000Y-68774998D01*
X164184000Y-68385003D01*
X164197254Y-68250434D01*
X164197255Y-68250432D01*
X164226745Y-68153216D01*
X164249632Y-68077767D01*
X164334689Y-67918636D01*
X164449156Y-67779156D01*
X164588635Y-67664689D01*
X164747766Y-67579632D01*
X164920432Y-67527254D01*
X164936532Y-67525668D01*
X165100000Y-67509568D01*
X165263467Y-67525668D01*
G37*
G36*
X167803467Y-67525668D02*
G01*
X167819567Y-67527254D01*
X167992233Y-67579632D01*
X168151364Y-67664689D01*
X168290844Y-67779156D01*
X168405311Y-67918635D01*
X168490368Y-68077766D01*
X168513256Y-68153218D01*
X168541033Y-68244784D01*
X168542746Y-68250433D01*
X168556000Y-68385002D01*
X168556000Y-68774997D01*
X168549321Y-68842811D01*
X168542746Y-68909567D01*
X168529526Y-68953147D01*
X168490368Y-69082234D01*
X168405311Y-69241365D01*
X168290844Y-69380844D01*
X168151365Y-69495311D01*
X167992234Y-69580368D01*
X167905900Y-69606557D01*
X167819568Y-69632746D01*
X167803468Y-69634332D01*
X167640000Y-69650432D01*
X167476533Y-69634332D01*
X167460433Y-69632746D01*
X167374101Y-69606557D01*
X167287767Y-69580368D01*
X167128636Y-69495311D01*
X166989157Y-69380844D01*
X166874689Y-69241365D01*
X166789632Y-69082234D01*
X166737254Y-68909567D01*
X166724000Y-68774998D01*
X166724000Y-68385003D01*
X166737254Y-68250434D01*
X166737255Y-68250432D01*
X166766745Y-68153216D01*
X166789632Y-68077767D01*
X166874689Y-67918636D01*
X166989156Y-67779156D01*
X167128635Y-67664689D01*
X167287766Y-67579632D01*
X167460432Y-67527254D01*
X167476532Y-67525668D01*
X167640000Y-67509568D01*
X167803467Y-67525668D01*
G37*
G36*
X143156000Y-69646000D02*
G01*
X141324000Y-69646000D01*
X141324000Y-67514000D01*
X143156000Y-67514000D01*
X143156000Y-69646000D01*
G37*
G36*
X163476000Y-69646000D02*
G01*
X161644000Y-69646000D01*
X161644000Y-67514000D01*
X163476000Y-67514000D01*
X163476000Y-69646000D01*
G37*
G36*
X153316000Y-69646000D02*
G01*
X151484000Y-69646000D01*
X151484000Y-67514000D01*
X153316000Y-67514000D01*
X153316000Y-69646000D01*
G37*
G36*
X88298513Y-67683927D02*
G01*
X88447813Y-67713624D01*
X88611785Y-67781544D01*
X88759355Y-67880147D01*
X88884854Y-68005646D01*
X88983457Y-68153216D01*
X89051377Y-68317188D01*
X89086001Y-68491259D01*
X89086001Y-68668741D01*
X89051377Y-68842812D01*
X88983457Y-69006784D01*
X88884854Y-69154354D01*
X88759355Y-69279853D01*
X88611785Y-69378456D01*
X88447813Y-69446376D01*
X88298513Y-69476073D01*
X88273743Y-69481000D01*
X88096259Y-69481000D01*
X88071489Y-69476073D01*
X87922189Y-69446376D01*
X87758217Y-69378456D01*
X87610647Y-69279853D01*
X87485148Y-69154354D01*
X87386545Y-69006784D01*
X87318625Y-68842812D01*
X87284001Y-68668741D01*
X87284001Y-68491259D01*
X87318625Y-68317188D01*
X87386545Y-68153216D01*
X87485148Y-68005646D01*
X87610647Y-67880147D01*
X87758217Y-67781544D01*
X87922189Y-67713624D01*
X88071489Y-67683927D01*
X88096259Y-67679000D01*
X88273743Y-67679000D01*
X88298513Y-67683927D01*
G37*
G36*
X95918513Y-67683927D02*
G01*
X96067813Y-67713624D01*
X96231785Y-67781544D01*
X96379355Y-67880147D01*
X96504854Y-68005646D01*
X96603457Y-68153216D01*
X96671377Y-68317188D01*
X96706001Y-68491259D01*
X96706001Y-68668741D01*
X96671377Y-68842812D01*
X96603457Y-69006784D01*
X96504854Y-69154354D01*
X96379355Y-69279853D01*
X96231785Y-69378456D01*
X96067813Y-69446376D01*
X95918513Y-69476073D01*
X95893743Y-69481000D01*
X95716259Y-69481000D01*
X95691489Y-69476073D01*
X95542189Y-69446376D01*
X95378217Y-69378456D01*
X95230647Y-69279853D01*
X95105148Y-69154354D01*
X95006545Y-69006784D01*
X94938625Y-68842812D01*
X94904001Y-68668741D01*
X94904001Y-68491259D01*
X94938625Y-68317188D01*
X95006545Y-68153216D01*
X95105148Y-68005646D01*
X95230647Y-67880147D01*
X95378217Y-67781544D01*
X95542189Y-67713624D01*
X95691489Y-67683927D01*
X95716259Y-67679000D01*
X95893743Y-67679000D01*
X95918513Y-67683927D01*
G37*
G36*
X93378513Y-67683927D02*
G01*
X93527813Y-67713624D01*
X93691785Y-67781544D01*
X93839355Y-67880147D01*
X93964854Y-68005646D01*
X94063457Y-68153216D01*
X94131377Y-68317188D01*
X94166001Y-68491259D01*
X94166001Y-68668741D01*
X94131377Y-68842812D01*
X94063457Y-69006784D01*
X93964854Y-69154354D01*
X93839355Y-69279853D01*
X93691785Y-69378456D01*
X93527813Y-69446376D01*
X93378513Y-69476073D01*
X93353743Y-69481000D01*
X93176259Y-69481000D01*
X93151489Y-69476073D01*
X93002189Y-69446376D01*
X92838217Y-69378456D01*
X92690647Y-69279853D01*
X92565148Y-69154354D01*
X92466545Y-69006784D01*
X92398625Y-68842812D01*
X92364001Y-68668741D01*
X92364001Y-68491259D01*
X92398625Y-68317188D01*
X92466545Y-68153216D01*
X92565148Y-68005646D01*
X92690647Y-67880147D01*
X92838217Y-67781544D01*
X93002189Y-67713624D01*
X93151489Y-67683927D01*
X93176259Y-67679000D01*
X93353743Y-67679000D01*
X93378513Y-67683927D01*
G37*
G36*
X90838513Y-67683927D02*
G01*
X90987813Y-67713624D01*
X91151785Y-67781544D01*
X91299355Y-67880147D01*
X91424854Y-68005646D01*
X91523457Y-68153216D01*
X91591377Y-68317188D01*
X91626001Y-68491259D01*
X91626001Y-68668741D01*
X91591377Y-68842812D01*
X91523457Y-69006784D01*
X91424854Y-69154354D01*
X91299355Y-69279853D01*
X91151785Y-69378456D01*
X90987813Y-69446376D01*
X90838513Y-69476073D01*
X90813743Y-69481000D01*
X90636259Y-69481000D01*
X90611489Y-69476073D01*
X90462189Y-69446376D01*
X90298217Y-69378456D01*
X90150647Y-69279853D01*
X90025148Y-69154354D01*
X89926545Y-69006784D01*
X89858625Y-68842812D01*
X89824001Y-68668741D01*
X89824001Y-68491259D01*
X89858625Y-68317188D01*
X89926545Y-68153216D01*
X90025148Y-68005646D01*
X90150647Y-67880147D01*
X90298217Y-67781544D01*
X90462189Y-67713624D01*
X90611489Y-67683927D01*
X90636259Y-67679000D01*
X90813743Y-67679000D01*
X90838513Y-67683927D01*
G37*
G36*
X85758513Y-67683927D02*
G01*
X85907813Y-67713624D01*
X86071785Y-67781544D01*
X86219355Y-67880147D01*
X86344854Y-68005646D01*
X86443457Y-68153216D01*
X86511377Y-68317188D01*
X86546001Y-68491259D01*
X86546001Y-68668741D01*
X86511377Y-68842812D01*
X86443457Y-69006784D01*
X86344854Y-69154354D01*
X86219355Y-69279853D01*
X86071785Y-69378456D01*
X85907813Y-69446376D01*
X85758513Y-69476073D01*
X85733743Y-69481000D01*
X85556259Y-69481000D01*
X85531489Y-69476073D01*
X85382189Y-69446376D01*
X85218217Y-69378456D01*
X85070647Y-69279853D01*
X84945148Y-69154354D01*
X84846545Y-69006784D01*
X84778625Y-68842812D01*
X84744001Y-68668741D01*
X84744001Y-68491259D01*
X84778625Y-68317188D01*
X84846545Y-68153216D01*
X84945148Y-68005646D01*
X85070647Y-67880147D01*
X85218217Y-67781544D01*
X85382189Y-67713624D01*
X85531489Y-67683927D01*
X85556259Y-67679000D01*
X85733743Y-67679000D01*
X85758513Y-67683927D01*
G37*
G36*
X80678513Y-67683927D02*
G01*
X80827813Y-67713624D01*
X80991785Y-67781544D01*
X81139355Y-67880147D01*
X81264854Y-68005646D01*
X81363457Y-68153216D01*
X81431377Y-68317188D01*
X81466001Y-68491259D01*
X81466001Y-68668741D01*
X81431377Y-68842812D01*
X81363457Y-69006784D01*
X81264854Y-69154354D01*
X81139355Y-69279853D01*
X80991785Y-69378456D01*
X80827813Y-69446376D01*
X80678513Y-69476073D01*
X80653743Y-69481000D01*
X80476259Y-69481000D01*
X80451489Y-69476073D01*
X80302189Y-69446376D01*
X80138217Y-69378456D01*
X79990647Y-69279853D01*
X79865148Y-69154354D01*
X79766545Y-69006784D01*
X79698625Y-68842812D01*
X79664001Y-68668741D01*
X79664001Y-68491259D01*
X79698625Y-68317188D01*
X79766545Y-68153216D01*
X79865148Y-68005646D01*
X79990647Y-67880147D01*
X80138217Y-67781544D01*
X80302189Y-67713624D01*
X80451489Y-67683927D01*
X80476259Y-67679000D01*
X80653743Y-67679000D01*
X80678513Y-67683927D01*
G37*
G36*
X78138513Y-67683927D02*
G01*
X78287813Y-67713624D01*
X78451785Y-67781544D01*
X78599355Y-67880147D01*
X78724854Y-68005646D01*
X78823457Y-68153216D01*
X78891377Y-68317188D01*
X78926001Y-68491259D01*
X78926001Y-68668741D01*
X78891377Y-68842812D01*
X78823457Y-69006784D01*
X78724854Y-69154354D01*
X78599355Y-69279853D01*
X78451785Y-69378456D01*
X78287813Y-69446376D01*
X78138513Y-69476073D01*
X78113743Y-69481000D01*
X77936259Y-69481000D01*
X77911489Y-69476073D01*
X77762189Y-69446376D01*
X77598217Y-69378456D01*
X77450647Y-69279853D01*
X77325148Y-69154354D01*
X77226545Y-69006784D01*
X77158625Y-68842812D01*
X77124001Y-68668741D01*
X77124001Y-68491259D01*
X77158625Y-68317188D01*
X77226545Y-68153216D01*
X77325148Y-68005646D01*
X77450647Y-67880147D01*
X77598217Y-67781544D01*
X77762189Y-67713624D01*
X77911489Y-67683927D01*
X77936259Y-67679000D01*
X78113743Y-67679000D01*
X78138513Y-67683927D01*
G37*
G36*
X75598513Y-67683927D02*
G01*
X75747813Y-67713624D01*
X75911785Y-67781544D01*
X76059355Y-67880147D01*
X76184854Y-68005646D01*
X76283457Y-68153216D01*
X76351377Y-68317188D01*
X76386001Y-68491259D01*
X76386001Y-68668741D01*
X76351377Y-68842812D01*
X76283457Y-69006784D01*
X76184854Y-69154354D01*
X76059355Y-69279853D01*
X75911785Y-69378456D01*
X75747813Y-69446376D01*
X75598513Y-69476073D01*
X75573743Y-69481000D01*
X75396259Y-69481000D01*
X75371489Y-69476073D01*
X75222189Y-69446376D01*
X75058217Y-69378456D01*
X74910647Y-69279853D01*
X74785148Y-69154354D01*
X74686545Y-69006784D01*
X74618625Y-68842812D01*
X74584001Y-68668741D01*
X74584001Y-68491259D01*
X74618625Y-68317188D01*
X74686545Y-68153216D01*
X74785148Y-68005646D01*
X74910647Y-67880147D01*
X75058217Y-67781544D01*
X75222189Y-67713624D01*
X75371489Y-67683927D01*
X75396259Y-67679000D01*
X75573743Y-67679000D01*
X75598513Y-67683927D01*
G37*
G36*
X73058513Y-67683927D02*
G01*
X73207813Y-67713624D01*
X73371785Y-67781544D01*
X73519355Y-67880147D01*
X73644854Y-68005646D01*
X73743457Y-68153216D01*
X73811377Y-68317188D01*
X73846001Y-68491259D01*
X73846001Y-68668741D01*
X73811377Y-68842812D01*
X73743457Y-69006784D01*
X73644854Y-69154354D01*
X73519355Y-69279853D01*
X73371785Y-69378456D01*
X73207813Y-69446376D01*
X73058513Y-69476073D01*
X73033743Y-69481000D01*
X72856259Y-69481000D01*
X72831489Y-69476073D01*
X72682189Y-69446376D01*
X72518217Y-69378456D01*
X72370647Y-69279853D01*
X72245148Y-69154354D01*
X72146545Y-69006784D01*
X72078625Y-68842812D01*
X72044001Y-68668741D01*
X72044001Y-68491259D01*
X72078625Y-68317188D01*
X72146545Y-68153216D01*
X72245148Y-68005646D01*
X72370647Y-67880147D01*
X72518217Y-67781544D01*
X72682189Y-67713624D01*
X72831489Y-67683927D01*
X72856259Y-67679000D01*
X73033743Y-67679000D01*
X73058513Y-67683927D01*
G37*
G36*
X83218513Y-67683927D02*
G01*
X83367813Y-67713624D01*
X83531785Y-67781544D01*
X83679355Y-67880147D01*
X83804854Y-68005646D01*
X83903457Y-68153216D01*
X83971377Y-68317188D01*
X84006001Y-68491259D01*
X84006001Y-68668741D01*
X83971377Y-68842812D01*
X83903457Y-69006784D01*
X83804854Y-69154354D01*
X83679355Y-69279853D01*
X83531785Y-69378456D01*
X83367813Y-69446376D01*
X83218513Y-69476073D01*
X83193743Y-69481000D01*
X83016259Y-69481000D01*
X82991489Y-69476073D01*
X82842189Y-69446376D01*
X82678217Y-69378456D01*
X82530647Y-69279853D01*
X82405148Y-69154354D01*
X82306545Y-69006784D01*
X82238625Y-68842812D01*
X82204001Y-68668741D01*
X82204001Y-68491259D01*
X82238625Y-68317188D01*
X82306545Y-68153216D01*
X82405148Y-68005646D01*
X82530647Y-67880147D01*
X82678217Y-67781544D01*
X82842189Y-67713624D01*
X82991489Y-67683927D01*
X83016259Y-67679000D01*
X83193743Y-67679000D01*
X83218513Y-67683927D01*
G37*
G36*
X104580694Y-67627833D02*
G01*
X104753095Y-67680131D01*
X104911983Y-67765058D01*
X105051249Y-67879351D01*
X105165542Y-68018617D01*
X105250469Y-68177505D01*
X105302767Y-68349906D01*
X105320425Y-68529200D01*
X105302767Y-68708494D01*
X105250469Y-68880895D01*
X105165542Y-69039783D01*
X105051249Y-69179049D01*
X104911983Y-69293342D01*
X104753095Y-69378269D01*
X104580694Y-69430567D01*
X104446331Y-69443800D01*
X103833669Y-69443800D01*
X103699306Y-69430567D01*
X103526905Y-69378269D01*
X103368017Y-69293342D01*
X103228751Y-69179049D01*
X103114458Y-69039783D01*
X103029531Y-68880895D01*
X102977233Y-68708494D01*
X102959575Y-68529200D01*
X102977233Y-68349906D01*
X103029531Y-68177505D01*
X103114458Y-68018617D01*
X103228751Y-67879351D01*
X103368017Y-67765058D01*
X103526905Y-67680131D01*
X103699306Y-67627833D01*
X103833669Y-67614600D01*
X104446331Y-67614600D01*
X104580694Y-67627833D01*
G37*
G36*
X119820694Y-67627833D02*
G01*
X119993095Y-67680131D01*
X120151983Y-67765058D01*
X120291249Y-67879351D01*
X120405542Y-68018617D01*
X120490469Y-68177505D01*
X120542767Y-68349906D01*
X120560425Y-68529200D01*
X120542767Y-68708494D01*
X120490469Y-68880895D01*
X120405542Y-69039783D01*
X120291249Y-69179049D01*
X120151983Y-69293342D01*
X119993095Y-69378269D01*
X119820694Y-69430567D01*
X119686331Y-69443800D01*
X119073669Y-69443800D01*
X118939306Y-69430567D01*
X118766905Y-69378269D01*
X118608017Y-69293342D01*
X118468751Y-69179049D01*
X118354458Y-69039783D01*
X118269531Y-68880895D01*
X118217233Y-68708494D01*
X118199575Y-68529200D01*
X118217233Y-68349906D01*
X118269531Y-68177505D01*
X118354458Y-68018617D01*
X118468751Y-67879351D01*
X118608017Y-67765058D01*
X118766905Y-67680131D01*
X118939306Y-67627833D01*
X119073669Y-67614600D01*
X119686331Y-67614600D01*
X119820694Y-67627833D01*
G37*
G36*
X62177228Y-67380703D02*
G01*
X62332100Y-67444853D01*
X62471481Y-67537985D01*
X62590015Y-67656519D01*
X62683147Y-67795900D01*
X62747297Y-67950772D01*
X62780000Y-68115184D01*
X62780000Y-68282816D01*
X62747297Y-68447228D01*
X62683147Y-68602100D01*
X62590015Y-68741481D01*
X62471481Y-68860015D01*
X62332100Y-68953147D01*
X62177228Y-69017297D01*
X62012816Y-69050000D01*
X61845184Y-69050000D01*
X61680772Y-69017297D01*
X61525900Y-68953147D01*
X61386519Y-68860015D01*
X61267985Y-68741481D01*
X61174853Y-68602100D01*
X61110703Y-68447228D01*
X61078000Y-68282816D01*
X61078000Y-68115184D01*
X61110703Y-67950772D01*
X61174853Y-67795900D01*
X61267985Y-67656519D01*
X61386519Y-67537985D01*
X61525900Y-67444853D01*
X61680772Y-67380703D01*
X61845184Y-67348000D01*
X62012816Y-67348000D01*
X62177228Y-67380703D01*
G37*
G36*
X67177228Y-67380703D02*
G01*
X67332100Y-67444853D01*
X67471481Y-67537985D01*
X67590015Y-67656519D01*
X67683147Y-67795900D01*
X67747297Y-67950772D01*
X67780000Y-68115184D01*
X67780000Y-68282816D01*
X67747297Y-68447228D01*
X67683147Y-68602100D01*
X67590015Y-68741481D01*
X67471481Y-68860015D01*
X67332100Y-68953147D01*
X67177228Y-69017297D01*
X67012816Y-69050000D01*
X66845184Y-69050000D01*
X66680772Y-69017297D01*
X66525900Y-68953147D01*
X66386519Y-68860015D01*
X66267985Y-68741481D01*
X66174853Y-68602100D01*
X66110703Y-68447228D01*
X66078000Y-68282816D01*
X66078000Y-68115184D01*
X66110703Y-67950772D01*
X66174853Y-67795900D01*
X66267985Y-67656519D01*
X66386519Y-67537985D01*
X66525900Y-67444853D01*
X66680772Y-67380703D01*
X66845184Y-67348000D01*
X67012816Y-67348000D01*
X67177228Y-67380703D01*
G37*
G36*
X57771512Y-66921927D02*
G01*
X57920812Y-66951624D01*
X58084784Y-67019544D01*
X58232354Y-67118147D01*
X58357853Y-67243646D01*
X58456456Y-67391216D01*
X58524376Y-67555188D01*
X58559000Y-67729259D01*
X58559000Y-67906741D01*
X58524376Y-68080812D01*
X58456456Y-68244784D01*
X58357853Y-68392354D01*
X58232354Y-68517853D01*
X58084784Y-68616456D01*
X57920812Y-68684376D01*
X57771512Y-68714073D01*
X57746742Y-68719000D01*
X57569258Y-68719000D01*
X57544488Y-68714073D01*
X57395188Y-68684376D01*
X57231216Y-68616456D01*
X57083646Y-68517853D01*
X56958147Y-68392354D01*
X56859544Y-68244784D01*
X56791624Y-68080812D01*
X56757000Y-67906741D01*
X56757000Y-67729259D01*
X56791624Y-67555188D01*
X56859544Y-67391216D01*
X56958147Y-67243646D01*
X57083646Y-67118147D01*
X57231216Y-67019544D01*
X57395188Y-66951624D01*
X57544488Y-66921927D01*
X57569258Y-66917000D01*
X57746742Y-66917000D01*
X57771512Y-66921927D01*
G37*
G36*
X113306778Y-66379747D02*
G01*
X113473224Y-66448691D01*
X113623022Y-66548783D01*
X113750417Y-66676178D01*
X113850509Y-66825976D01*
X113919453Y-66992422D01*
X113954600Y-67169118D01*
X113954600Y-67349282D01*
X113919453Y-67525978D01*
X113850509Y-67692424D01*
X113750417Y-67842222D01*
X113623022Y-67969617D01*
X113473224Y-68069709D01*
X113306778Y-68138653D01*
X113130082Y-68173800D01*
X112949918Y-68173800D01*
X112773222Y-68138653D01*
X112606776Y-68069709D01*
X112456978Y-67969617D01*
X112329583Y-67842222D01*
X112229491Y-67692424D01*
X112160547Y-67525978D01*
X112125400Y-67349282D01*
X112125400Y-67169118D01*
X112160547Y-66992422D01*
X112229491Y-66825976D01*
X112329583Y-66676178D01*
X112456978Y-66548783D01*
X112606776Y-66448691D01*
X112773222Y-66379747D01*
X112949918Y-66344600D01*
X113130082Y-66344600D01*
X113306778Y-66379747D01*
G37*
G36*
X110766778Y-66379747D02*
G01*
X110933224Y-66448691D01*
X111083022Y-66548783D01*
X111210417Y-66676178D01*
X111310509Y-66825976D01*
X111379453Y-66992422D01*
X111414600Y-67169118D01*
X111414600Y-67349282D01*
X111379453Y-67525978D01*
X111310509Y-67692424D01*
X111210417Y-67842222D01*
X111083022Y-67969617D01*
X110933224Y-68069709D01*
X110766778Y-68138653D01*
X110590082Y-68173800D01*
X110409918Y-68173800D01*
X110233222Y-68138653D01*
X110066776Y-68069709D01*
X109916978Y-67969617D01*
X109789583Y-67842222D01*
X109689491Y-67692424D01*
X109620547Y-67525978D01*
X109585400Y-67349282D01*
X109585400Y-67169118D01*
X109620547Y-66992422D01*
X109689491Y-66825976D01*
X109789583Y-66676178D01*
X109916978Y-66548783D01*
X110066776Y-66448691D01*
X110233222Y-66379747D01*
X110409918Y-66344600D01*
X110590082Y-66344600D01*
X110766778Y-66379747D01*
G37*
G36*
X136138228Y-66491703D02*
G01*
X136293100Y-66555853D01*
X136432481Y-66648985D01*
X136551015Y-66767519D01*
X136644147Y-66906900D01*
X136708297Y-67061772D01*
X136741000Y-67226184D01*
X136741000Y-67393816D01*
X136708297Y-67558228D01*
X136644147Y-67713100D01*
X136551015Y-67852481D01*
X136432481Y-67971015D01*
X136293100Y-68064147D01*
X136138228Y-68128297D01*
X135973816Y-68161000D01*
X135806184Y-68161000D01*
X135641772Y-68128297D01*
X135486900Y-68064147D01*
X135347519Y-67971015D01*
X135228985Y-67852481D01*
X135135853Y-67713100D01*
X135071703Y-67558228D01*
X135039000Y-67393816D01*
X135039000Y-67226184D01*
X135071703Y-67061772D01*
X135135853Y-66906900D01*
X135228985Y-66767519D01*
X135347519Y-66648985D01*
X135486900Y-66555853D01*
X135641772Y-66491703D01*
X135806184Y-66459000D01*
X135973816Y-66459000D01*
X136138228Y-66491703D01*
G37*
G36*
X128518228Y-66491703D02*
G01*
X128673100Y-66555853D01*
X128812481Y-66648985D01*
X128931015Y-66767519D01*
X129024147Y-66906900D01*
X129088297Y-67061772D01*
X129121000Y-67226184D01*
X129121000Y-67393816D01*
X129088297Y-67558228D01*
X129024147Y-67713100D01*
X128931015Y-67852481D01*
X128812481Y-67971015D01*
X128673100Y-68064147D01*
X128518228Y-68128297D01*
X128353816Y-68161000D01*
X128186184Y-68161000D01*
X128021772Y-68128297D01*
X127866900Y-68064147D01*
X127727519Y-67971015D01*
X127608985Y-67852481D01*
X127515853Y-67713100D01*
X127451703Y-67558228D01*
X127419000Y-67393816D01*
X127419000Y-67226184D01*
X127451703Y-67061772D01*
X127515853Y-66906900D01*
X127608985Y-66767519D01*
X127727519Y-66648985D01*
X127866900Y-66555853D01*
X128021772Y-66491703D01*
X128186184Y-66459000D01*
X128353816Y-66459000D01*
X128518228Y-66491703D01*
G37*
G36*
X104580694Y-65087833D02*
G01*
X104753095Y-65140131D01*
X104911983Y-65225058D01*
X105051249Y-65339351D01*
X105165542Y-65478617D01*
X105250469Y-65637505D01*
X105302767Y-65809906D01*
X105320425Y-65989200D01*
X105302767Y-66168494D01*
X105250469Y-66340895D01*
X105165542Y-66499783D01*
X105051249Y-66639049D01*
X104911983Y-66753342D01*
X104753095Y-66838269D01*
X104580694Y-66890567D01*
X104446331Y-66903800D01*
X103833669Y-66903800D01*
X103699306Y-66890567D01*
X103526905Y-66838269D01*
X103368017Y-66753342D01*
X103228751Y-66639049D01*
X103114458Y-66499783D01*
X103029531Y-66340895D01*
X102977233Y-66168494D01*
X102959575Y-65989200D01*
X102977233Y-65809906D01*
X103029531Y-65637505D01*
X103114458Y-65478617D01*
X103228751Y-65339351D01*
X103368017Y-65225058D01*
X103526905Y-65140131D01*
X103699306Y-65087833D01*
X103833669Y-65074600D01*
X104446331Y-65074600D01*
X104580694Y-65087833D01*
G37*
G36*
X119820694Y-65087833D02*
G01*
X119993095Y-65140131D01*
X120151983Y-65225058D01*
X120291249Y-65339351D01*
X120405542Y-65478617D01*
X120490469Y-65637505D01*
X120542767Y-65809906D01*
X120560425Y-65989200D01*
X120542767Y-66168494D01*
X120490469Y-66340895D01*
X120405542Y-66499783D01*
X120291249Y-66639049D01*
X120151983Y-66753342D01*
X119993095Y-66838269D01*
X119820694Y-66890567D01*
X119686331Y-66903800D01*
X119073669Y-66903800D01*
X118939306Y-66890567D01*
X118766905Y-66838269D01*
X118608017Y-66753342D01*
X118468751Y-66639049D01*
X118354458Y-66499783D01*
X118269531Y-66340895D01*
X118217233Y-66168494D01*
X118199575Y-65989200D01*
X118217233Y-65809906D01*
X118269531Y-65637505D01*
X118354458Y-65478617D01*
X118468751Y-65339351D01*
X118608017Y-65225058D01*
X118766905Y-65140131D01*
X118939306Y-65087833D01*
X119073669Y-65074600D01*
X119686331Y-65074600D01*
X119820694Y-65087833D01*
G37*
G36*
X136138228Y-63951703D02*
G01*
X136293100Y-64015853D01*
X136432481Y-64108985D01*
X136551015Y-64227519D01*
X136644147Y-64366900D01*
X136708297Y-64521772D01*
X136741000Y-64686184D01*
X136741000Y-64853816D01*
X136708297Y-65018228D01*
X136644147Y-65173100D01*
X136551015Y-65312481D01*
X136432481Y-65431015D01*
X136293100Y-65524147D01*
X136138228Y-65588297D01*
X135973816Y-65621000D01*
X135806184Y-65621000D01*
X135641772Y-65588297D01*
X135486900Y-65524147D01*
X135347519Y-65431015D01*
X135228985Y-65312481D01*
X135135853Y-65173100D01*
X135071703Y-65018228D01*
X135039000Y-64853816D01*
X135039000Y-64686184D01*
X135071703Y-64521772D01*
X135135853Y-64366900D01*
X135228985Y-64227519D01*
X135347519Y-64108985D01*
X135486900Y-64015853D01*
X135641772Y-63951703D01*
X135806184Y-63919000D01*
X135973816Y-63919000D01*
X136138228Y-63951703D01*
G37*
G36*
X128518228Y-63951703D02*
G01*
X128673100Y-64015853D01*
X128812481Y-64108985D01*
X128931015Y-64227519D01*
X129024147Y-64366900D01*
X129088297Y-64521772D01*
X129121000Y-64686184D01*
X129121000Y-64853816D01*
X129088297Y-65018228D01*
X129024147Y-65173100D01*
X128931015Y-65312481D01*
X128812481Y-65431015D01*
X128673100Y-65524147D01*
X128518228Y-65588297D01*
X128353816Y-65621000D01*
X128186184Y-65621000D01*
X128021772Y-65588297D01*
X127866900Y-65524147D01*
X127727519Y-65431015D01*
X127608985Y-65312481D01*
X127515853Y-65173100D01*
X127451703Y-65018228D01*
X127419000Y-64853816D01*
X127419000Y-64686184D01*
X127451703Y-64521772D01*
X127515853Y-64366900D01*
X127608985Y-64227519D01*
X127727519Y-64108985D01*
X127866900Y-64015853D01*
X128021772Y-63951703D01*
X128186184Y-63919000D01*
X128353816Y-63919000D01*
X128518228Y-63951703D01*
G37*
G36*
X59243085Y-60607975D02*
G01*
X59598143Y-60755045D01*
X59598145Y-60755046D01*
X59917690Y-60968559D01*
X60189441Y-61240310D01*
X60402954Y-61559855D01*
X60402955Y-61559857D01*
X60550025Y-61914915D01*
X60625000Y-62291842D01*
X60625000Y-62676158D01*
X60550025Y-63053085D01*
X60481256Y-63219107D01*
X60402954Y-63408145D01*
X60189441Y-63727690D01*
X59917690Y-63999441D01*
X59598145Y-64212954D01*
X59598144Y-64212955D01*
X59598143Y-64212955D01*
X59243085Y-64360025D01*
X58866158Y-64435000D01*
X58481842Y-64435000D01*
X58104915Y-64360025D01*
X57749857Y-64212955D01*
X57749856Y-64212955D01*
X57749855Y-64212954D01*
X57430310Y-63999441D01*
X57158559Y-63727690D01*
X56945046Y-63408145D01*
X56866744Y-63219107D01*
X56797975Y-63053085D01*
X56723000Y-62676158D01*
X56723000Y-62291842D01*
X56797975Y-61914915D01*
X56945045Y-61559857D01*
X56945046Y-61559855D01*
X57158559Y-61240310D01*
X57430310Y-60968559D01*
X57749855Y-60755046D01*
X57749857Y-60755045D01*
X58104915Y-60607975D01*
X58481842Y-60533000D01*
X58866158Y-60533000D01*
X59243085Y-60607975D01*
G37*
G36*
X165923085Y-60607975D02*
G01*
X166278143Y-60755045D01*
X166278145Y-60755046D01*
X166597690Y-60968559D01*
X166869441Y-61240310D01*
X167082954Y-61559855D01*
X167082955Y-61559857D01*
X167230025Y-61914915D01*
X167305000Y-62291842D01*
X167305000Y-62676158D01*
X167230025Y-63053085D01*
X167161256Y-63219107D01*
X167082954Y-63408145D01*
X166869441Y-63727690D01*
X166597690Y-63999441D01*
X166278145Y-64212954D01*
X166278144Y-64212955D01*
X166278143Y-64212955D01*
X165923085Y-64360025D01*
X165546158Y-64435000D01*
X165161842Y-64435000D01*
X164784915Y-64360025D01*
X164429857Y-64212955D01*
X164429856Y-64212955D01*
X164429855Y-64212954D01*
X164110310Y-63999441D01*
X163838559Y-63727690D01*
X163625046Y-63408145D01*
X163546744Y-63219107D01*
X163477975Y-63053085D01*
X163403000Y-62676158D01*
X163403000Y-62291842D01*
X163477975Y-61914915D01*
X163625045Y-61559857D01*
X163625046Y-61559855D01*
X163838559Y-61240310D01*
X164110310Y-60968559D01*
X164429855Y-60755046D01*
X164429857Y-60755045D01*
X164784915Y-60607975D01*
X165161842Y-60533000D01*
X165546158Y-60533000D01*
X165923085Y-60607975D01*
G37*
G36*
X105316000Y-64363800D02*
G01*
X102964000Y-64363800D01*
X102964000Y-62534600D01*
X105316000Y-62534600D01*
X105316000Y-64363800D01*
G37*
G36*
X119820694Y-62497033D02*
G01*
X119993095Y-62549331D01*
X120151983Y-62634258D01*
X120291249Y-62748551D01*
X120405542Y-62887817D01*
X120490469Y-63046705D01*
X120542767Y-63219106D01*
X120560425Y-63398400D01*
X120542767Y-63577694D01*
X120490469Y-63750095D01*
X120405542Y-63908983D01*
X120291249Y-64048249D01*
X120151983Y-64162542D01*
X119993095Y-64247469D01*
X119820694Y-64299767D01*
X119686331Y-64313000D01*
X119073669Y-64313000D01*
X118939306Y-64299767D01*
X118766905Y-64247469D01*
X118608017Y-64162542D01*
X118468751Y-64048249D01*
X118354458Y-63908983D01*
X118269531Y-63750095D01*
X118217233Y-63577694D01*
X118199575Y-63398400D01*
X118217233Y-63219106D01*
X118269531Y-63046705D01*
X118354458Y-62887817D01*
X118468751Y-62748551D01*
X118608017Y-62634258D01*
X118766905Y-62549331D01*
X118939306Y-62497033D01*
X119073669Y-62483800D01*
X119686331Y-62483800D01*
X119820694Y-62497033D01*
G37*
G36*
X68014719Y-61701520D02*
G01*
X68203880Y-61758901D01*
X68203883Y-61758902D01*
X68296333Y-61808318D01*
X68378212Y-61852083D01*
X68531015Y-61977485D01*
X68656417Y-62130288D01*
X68749599Y-62304619D01*
X68806980Y-62493780D01*
X68821500Y-62641206D01*
X68821500Y-62834793D01*
X68806980Y-62982219D01*
X68777015Y-63081000D01*
X68749598Y-63171383D01*
X68700182Y-63263833D01*
X68656417Y-63345712D01*
X68531015Y-63498515D01*
X68378212Y-63623917D01*
X68203881Y-63717099D01*
X68014720Y-63774480D01*
X67818000Y-63793855D01*
X67621281Y-63774480D01*
X67432120Y-63717099D01*
X67257788Y-63623917D01*
X67104985Y-63498515D01*
X66979583Y-63345712D01*
X66886401Y-63171381D01*
X66829020Y-62982220D01*
X66814500Y-62834794D01*
X66814500Y-62641207D01*
X66829020Y-62493781D01*
X66886401Y-62304620D01*
X66886402Y-62304617D01*
X66971086Y-62146185D01*
X66979583Y-62130288D01*
X67104985Y-61977485D01*
X67257788Y-61852083D01*
X67432119Y-61758901D01*
X67621280Y-61701520D01*
X67818000Y-61682145D01*
X68014719Y-61701520D01*
G37*
G36*
X70554719Y-61701520D02*
G01*
X70743880Y-61758901D01*
X70743883Y-61758902D01*
X70836333Y-61808318D01*
X70918212Y-61852083D01*
X71071015Y-61977485D01*
X71196417Y-62130288D01*
X71289599Y-62304619D01*
X71346980Y-62493780D01*
X71361500Y-62641206D01*
X71361500Y-62834793D01*
X71346980Y-62982219D01*
X71317015Y-63081000D01*
X71289598Y-63171383D01*
X71240182Y-63263833D01*
X71196417Y-63345712D01*
X71071015Y-63498515D01*
X70918212Y-63623917D01*
X70743881Y-63717099D01*
X70554720Y-63774480D01*
X70358000Y-63793855D01*
X70161281Y-63774480D01*
X69972120Y-63717099D01*
X69797788Y-63623917D01*
X69644985Y-63498515D01*
X69519583Y-63345712D01*
X69426401Y-63171381D01*
X69369020Y-62982220D01*
X69354500Y-62834794D01*
X69354500Y-62641207D01*
X69369020Y-62493781D01*
X69426401Y-62304620D01*
X69426402Y-62304617D01*
X69511086Y-62146185D01*
X69519583Y-62130288D01*
X69644985Y-61977485D01*
X69797788Y-61852083D01*
X69972119Y-61758901D01*
X70161280Y-61701520D01*
X70358000Y-61682145D01*
X70554719Y-61701520D01*
G37*
G36*
X66281500Y-63789000D02*
G01*
X64274500Y-63789000D01*
X64274500Y-61687000D01*
X66281500Y-61687000D01*
X66281500Y-63789000D01*
G37*
G36*
X136138228Y-61411703D02*
G01*
X136293100Y-61475853D01*
X136432481Y-61568985D01*
X136551015Y-61687519D01*
X136644147Y-61826900D01*
X136708297Y-61981772D01*
X136741000Y-62146184D01*
X136741000Y-62313816D01*
X136708297Y-62478228D01*
X136644147Y-62633100D01*
X136551015Y-62772481D01*
X136432481Y-62891015D01*
X136293100Y-62984147D01*
X136138228Y-63048297D01*
X135973816Y-63081000D01*
X135806184Y-63081000D01*
X135641772Y-63048297D01*
X135486900Y-62984147D01*
X135347519Y-62891015D01*
X135228985Y-62772481D01*
X135135853Y-62633100D01*
X135071703Y-62478228D01*
X135039000Y-62313816D01*
X135039000Y-62146184D01*
X135071703Y-61981772D01*
X135135853Y-61826900D01*
X135228985Y-61687519D01*
X135347519Y-61568985D01*
X135486900Y-61475853D01*
X135641772Y-61411703D01*
X135806184Y-61379000D01*
X135973816Y-61379000D01*
X136138228Y-61411703D01*
G37*
G36*
X129121000Y-63081000D02*
G01*
X127419000Y-63081000D01*
X127419000Y-61379000D01*
X129121000Y-61379000D01*
X129121000Y-63081000D01*
G37*
M02*
