M48
; DRILL file {KiCad 5.1.6+dfsg1-1} date Sat Apr 10 12:13:31 2021
; FORMAT={-:-/ absolute / inch / decimal}
; #@! TF.CreationDate,2021-04-10T12:13:31+02:00
; #@! TF.GenerationSoftware,Kicad,Pcbnew,5.1.6+dfsg1-1
; #@! TF.FileFunction,Plated,1,2,PTH
FMAT,2
INCH
T1C0.0157
T2C0.0295
T3C0.0315
T4C0.0394
T5C0.0400
T6C0.0402
T7C0.0433
T8C0.0866
%
G90
G05
T1
X2.78Y-4.21
X2.8098Y-4.2802
X3.16Y-4.25
X3.27Y-4.25
X3.285Y-3.96
X3.385Y-3.96
X3.435Y-3.01
X3.485Y-3.835
X3.53Y-2.88
X3.56Y-4.24
X3.58Y-4.29
X3.63Y-2.94
X3.66Y-3.06
X3.68Y-4.35
X3.74Y-4.39
X3.76Y-3.835
X3.8074Y-3.298
X3.81Y-2.88
X3.81Y-2.93
X3.8542Y-3.3902
X3.91Y-3.91
X4.0Y-4.1695
X4.01Y-3.785
X4.0542Y-2.6526
X4.19Y-2.97
X4.25Y-2.91
X4.25Y-2.97
X4.26Y-3.835
X4.26Y-4.33
X4.26Y-4.45
X4.31Y-2.98
X4.3568Y-2.7166
X4.58Y-4.0
X4.81Y-3.91
X5.16Y-3.31
X5.16Y-4.16
X5.1602Y-3.0348
X5.197Y-3.853
X5.25Y-2.95
X5.26Y-4.2
X5.41Y-3.31
T2
X2.66Y-4.06
X2.66Y-4.11
X2.66Y-4.16
T3
X4.4844Y-3.4822
X4.4844Y-3.7822
X5.05Y-3.5
X5.05Y-3.6
X5.05Y-3.7
X5.05Y-3.8
X5.05Y-3.9
X5.05Y-4.0
X5.05Y-4.1
X5.05Y-4.2
X5.35Y-3.5
X5.35Y-3.6
X5.35Y-3.7
X5.35Y-3.8
X5.35Y-3.9
X5.35Y-4.0
X5.35Y-4.1
X5.35Y-4.2
X4.3558Y-3.6572
X4.3558Y-3.9572
X2.51Y-3.96
X2.51Y-4.26
X4.4736Y-4.003
X4.4736Y-4.303
X2.535Y-2.81
X2.7319Y-2.81
X2.4381Y-2.685
X2.635Y-2.685
X5.05Y-2.45
X5.05Y-2.55
X5.05Y-2.65
X5.05Y-2.75
X5.05Y-2.85
X5.05Y-2.95
X5.05Y-3.05
X5.05Y-3.15
X5.35Y-2.45
X5.35Y-2.55
X5.35Y-2.65
X5.35Y-2.75
X5.35Y-2.85
X5.35Y-2.95
X5.35Y-3.05
X5.35Y-3.15
X4.213Y-3.0634
X4.213Y-3.3634
X4.3558Y-4.049
X4.3558Y-4.349
X4.3514Y-3.0616
X4.3514Y-3.3616
X2.41Y-3.96
X2.41Y-4.26
T4
X2.51Y-3.035
X2.61Y-3.035
X2.8719Y-2.7
X2.8719Y-2.8
X2.9719Y-2.7
X2.9719Y-2.8
X3.0719Y-2.7
X3.0719Y-2.8
X3.1719Y-2.7
X3.1719Y-2.8
X3.2719Y-2.7
X3.2719Y-2.8
X3.3719Y-2.7
X3.3719Y-2.8
X3.4719Y-2.7
X3.4719Y-2.8
X3.5719Y-2.7
X3.5719Y-2.8
X3.6719Y-2.7
X3.6719Y-2.8
X3.7719Y-2.7
X3.7719Y-2.8
X2.8719Y-4.05
X2.8719Y-4.15
X2.9719Y-4.05
X2.9719Y-4.15
X3.0719Y-4.05
X3.0719Y-4.15
X3.1719Y-4.05
X3.1719Y-4.15
X3.2719Y-4.05
X3.2719Y-4.15
X3.3719Y-4.05
X3.3719Y-4.15
X3.4719Y-4.05
X3.4719Y-4.15
X3.5719Y-4.05
X3.5719Y-4.15
X3.6719Y-4.05
X3.6719Y-4.15
X3.7719Y-4.05
X3.7719Y-4.15
X2.51Y-3.36
X2.61Y-3.36
X2.8719Y-3.375
X2.8719Y-3.475
X2.9719Y-3.375
X2.9719Y-3.475
X3.0719Y-3.375
X3.0719Y-3.475
X3.1719Y-3.375
X3.1719Y-3.475
X3.2719Y-3.375
X3.2719Y-3.475
X3.3719Y-3.375
X3.3719Y-3.475
X3.4719Y-3.375
X3.4719Y-3.475
X3.5719Y-3.375
X3.5719Y-3.475
X3.6719Y-3.375
X3.6719Y-3.475
X3.7719Y-3.375
X3.7719Y-3.475
X2.51Y-3.71
X2.61Y-3.71
X2.27Y-2.67
X2.27Y-2.77
T5
X4.1Y-2.498
X4.1Y-2.598
X4.1Y-2.698
X4.1Y-2.798
X4.1Y-2.898
X4.1Y-2.998
X4.1Y-3.098
X4.1Y-3.198
X4.1Y-3.298
X4.1Y-3.398
X4.1Y-3.498
X4.1Y-3.598
X4.1Y-3.698
X4.1Y-3.798
X4.1Y-3.898
X4.1Y-3.998
X4.1Y-4.098
X4.1Y-4.198
X4.1Y-4.298
X4.1Y-4.398
X4.3504Y-2.648
X4.4504Y-2.648
X4.7Y-2.496
X4.7Y-2.598
X4.7Y-2.698
X4.7Y-2.798
X4.7Y-2.898
X4.7Y-2.998
X4.7Y-3.098
X4.7Y-3.198
X4.7Y-3.298
X4.7Y-3.398
X4.7Y-3.498
X4.7Y-3.598
X4.7Y-3.698
X4.7Y-3.798
X4.7Y-3.898
X4.7Y-3.998
X4.7Y-4.098
X4.7Y-4.198
X4.7Y-4.298
X4.7Y-4.398
T6
X6.0Y-4.1
X6.1Y-4.1
X6.2Y-4.1
X6.0Y-3.4
X6.1Y-3.4
X6.2Y-3.4
X6.4Y-4.1
X6.5Y-4.1
X6.6Y-4.1
X6.4Y-3.4
X6.5Y-3.4
X6.6Y-3.4
X5.6Y-4.1
X5.7Y-4.1
X5.8Y-4.1
X6.4Y-2.7
X6.5Y-2.7
X6.6Y-2.7
X5.6Y-3.75
X5.7Y-3.75
X5.8Y-3.75
X5.6Y-2.7
X5.7Y-2.7
X5.8Y-2.7
X6.0Y-3.75
X6.1Y-3.75
X6.2Y-3.75
X5.6Y-3.05
X5.7Y-3.05
X5.8Y-3.05
X6.4Y-3.05
X6.5Y-3.05
X6.6Y-3.05
X6.0Y-3.05
X6.1Y-3.05
X6.2Y-3.05
X5.6Y-3.4
X5.7Y-3.4
X5.8Y-3.4
X6.0Y-2.7
X6.1Y-2.7
X6.2Y-2.7
X6.4Y-3.75
X6.5Y-3.75
X6.6Y-3.75
T7
X2.57Y-2.47
X2.67Y-2.47
X2.77Y-2.47
T8
X2.31Y-4.41
X2.31Y-2.46
X6.51Y-4.41
X6.51Y-2.46
T0
M30
