G04 #@! TF.GenerationSoftware,KiCad,Pcbnew,5.1.6+dfsg1-1*
G04 #@! TF.CreationDate,2021-04-10T12:13:44+02:00*
G04 #@! TF.ProjectId,xfaders,78666164-6572-4732-9e6b-696361645f70,rev?*
G04 #@! TF.SameCoordinates,Original*
G04 #@! TF.FileFunction,Legend,Top*
G04 #@! TF.FilePolarity,Positive*
%FSLAX46Y46*%
G04 Gerber Fmt 4.6, Leading zero omitted, Abs format (unit mm)*
G04 Created by KiCad (PCBNEW 5.1.6+dfsg1-1) date 2021-04-10 12:13:44*
%MOMM*%
%LPD*%
G01*
G04 APERTURE LIST*
%ADD10C,0.150000*%
%ADD11C,0.120000*%
%ADD12C,0.304800*%
%ADD13C,0.010000*%
%ADD14C,0.222250*%
G04 APERTURE END LIST*
D10*
X60134523Y-93686380D02*
X59658333Y-93686380D01*
X59610714Y-94162571D01*
X59658333Y-94114952D01*
X59753571Y-94067333D01*
X59991666Y-94067333D01*
X60086904Y-94114952D01*
X60134523Y-94162571D01*
X60182142Y-94257809D01*
X60182142Y-94495904D01*
X60134523Y-94591142D01*
X60086904Y-94638761D01*
X59991666Y-94686380D01*
X59753571Y-94686380D01*
X59658333Y-94638761D01*
X59610714Y-94591142D01*
X60467857Y-93686380D02*
X60801190Y-94686380D01*
X61134523Y-93686380D01*
X60134523Y-84542380D02*
X59658333Y-84542380D01*
X59610714Y-85018571D01*
X59658333Y-84970952D01*
X59753571Y-84923333D01*
X59991666Y-84923333D01*
X60086904Y-84970952D01*
X60134523Y-85018571D01*
X60182142Y-85113809D01*
X60182142Y-85351904D01*
X60134523Y-85447142D01*
X60086904Y-85494761D01*
X59991666Y-85542380D01*
X59753571Y-85542380D01*
X59658333Y-85494761D01*
X59610714Y-85447142D01*
X60467857Y-84542380D02*
X60801190Y-85542380D01*
X61134523Y-84542380D01*
X60134523Y-76541380D02*
X59658333Y-76541380D01*
X59610714Y-77017571D01*
X59658333Y-76969952D01*
X59753571Y-76922333D01*
X59991666Y-76922333D01*
X60086904Y-76969952D01*
X60134523Y-77017571D01*
X60182142Y-77112809D01*
X60182142Y-77350904D01*
X60134523Y-77446142D01*
X60086904Y-77493761D01*
X59991666Y-77541380D01*
X59753571Y-77541380D01*
X59658333Y-77493761D01*
X59610714Y-77446142D01*
X60467857Y-76541380D02*
X60801190Y-77541380D01*
X61134523Y-76541380D01*
X60809119Y-65984928D02*
X60809119Y-65508738D01*
X60332928Y-65461119D01*
X60380547Y-65508738D01*
X60428166Y-65603976D01*
X60428166Y-65842071D01*
X60380547Y-65937309D01*
X60332928Y-65984928D01*
X60237690Y-66032547D01*
X59999595Y-66032547D01*
X59904357Y-65984928D01*
X59856738Y-65937309D01*
X59809119Y-65842071D01*
X59809119Y-65603976D01*
X59856738Y-65508738D01*
X59904357Y-65461119D01*
X60809119Y-66318261D02*
X59809119Y-66651595D01*
X60809119Y-66984928D01*
X59809119Y-68080166D02*
X60809119Y-68080166D01*
X60475785Y-68556357D02*
X59809119Y-68556357D01*
X60380547Y-68556357D02*
X60428166Y-68603976D01*
X60475785Y-68699214D01*
X60475785Y-68842071D01*
X60428166Y-68937309D01*
X60332928Y-68984928D01*
X59809119Y-68984928D01*
X60761500Y-72270642D02*
X60809119Y-72175404D01*
X60809119Y-72032547D01*
X60761500Y-71889690D01*
X60666261Y-71794452D01*
X60571023Y-71746833D01*
X60380547Y-71699214D01*
X60237690Y-71699214D01*
X60047214Y-71746833D01*
X59951976Y-71794452D01*
X59856738Y-71889690D01*
X59809119Y-72032547D01*
X59809119Y-72127785D01*
X59856738Y-72270642D01*
X59904357Y-72318261D01*
X60237690Y-72318261D01*
X60237690Y-72127785D01*
X59809119Y-72746833D02*
X60809119Y-72746833D01*
X59809119Y-73318261D01*
X60809119Y-73318261D01*
X59809119Y-73794452D02*
X60809119Y-73794452D01*
X60809119Y-74032547D01*
X60761500Y-74175404D01*
X60666261Y-74270642D01*
X60571023Y-74318261D01*
X60380547Y-74365880D01*
X60237690Y-74365880D01*
X60047214Y-74318261D01*
X59951976Y-74270642D01*
X59856738Y-74175404D01*
X59809119Y-74032547D01*
X59809119Y-73794452D01*
X145668404Y-110879476D02*
X145573166Y-110831857D01*
X145382690Y-110831857D01*
X145287452Y-110879476D01*
X145192214Y-110974714D01*
X145144595Y-111069952D01*
X145144595Y-111260428D01*
X145192214Y-111355666D01*
X145287452Y-111450904D01*
X145382690Y-111498523D01*
X145573166Y-111498523D01*
X145668404Y-111450904D01*
X145477928Y-110498523D02*
X145239833Y-110546142D01*
X145001738Y-110689000D01*
X144858880Y-110927095D01*
X144811261Y-111165190D01*
X144858880Y-111403285D01*
X145001738Y-111641380D01*
X145239833Y-111784238D01*
X145477928Y-111831857D01*
X145716023Y-111784238D01*
X145954119Y-111641380D01*
X146096976Y-111403285D01*
X146144595Y-111165190D01*
X146096976Y-110927095D01*
X145954119Y-110689000D01*
X145716023Y-110546142D01*
X145477928Y-110498523D01*
X147192214Y-110641380D02*
X147763642Y-110641380D01*
X147477928Y-111641380D02*
X147477928Y-110641380D01*
X148096976Y-111641380D02*
X148096976Y-110974714D01*
X148096976Y-110641380D02*
X148049357Y-110689000D01*
X148096976Y-110736619D01*
X148144595Y-110689000D01*
X148096976Y-110641380D01*
X148096976Y-110736619D01*
X148573166Y-111641380D02*
X148573166Y-110974714D01*
X148573166Y-111069952D02*
X148620785Y-111022333D01*
X148716023Y-110974714D01*
X148858880Y-110974714D01*
X148954119Y-111022333D01*
X149001738Y-111117571D01*
X149001738Y-111641380D01*
X149001738Y-111117571D02*
X149049357Y-111022333D01*
X149144595Y-110974714D01*
X149287452Y-110974714D01*
X149382690Y-111022333D01*
X149430309Y-111117571D01*
X149430309Y-111641380D01*
X150668404Y-111117571D02*
X151001738Y-111117571D01*
X151144595Y-111641380D02*
X150668404Y-111641380D01*
X150668404Y-110641380D01*
X151144595Y-110641380D01*
X151525547Y-111593761D02*
X151620785Y-111641380D01*
X151811261Y-111641380D01*
X151906500Y-111593761D01*
X151954119Y-111498523D01*
X151954119Y-111450904D01*
X151906500Y-111355666D01*
X151811261Y-111308047D01*
X151668404Y-111308047D01*
X151573166Y-111260428D01*
X151525547Y-111165190D01*
X151525547Y-111117571D01*
X151573166Y-111022333D01*
X151668404Y-110974714D01*
X151811261Y-110974714D01*
X151906500Y-111022333D01*
X152335071Y-111593761D02*
X152430309Y-111641380D01*
X152620785Y-111641380D01*
X152716023Y-111593761D01*
X152763642Y-111498523D01*
X152763642Y-111450904D01*
X152716023Y-111355666D01*
X152620785Y-111308047D01*
X152477928Y-111308047D01*
X152382690Y-111260428D01*
X152335071Y-111165190D01*
X152335071Y-111117571D01*
X152382690Y-111022333D01*
X152477928Y-110974714D01*
X152620785Y-110974714D01*
X152716023Y-111022333D01*
X153192214Y-111641380D02*
X153192214Y-110974714D01*
X153192214Y-110641380D02*
X153144595Y-110689000D01*
X153192214Y-110736619D01*
X153239833Y-110689000D01*
X153192214Y-110641380D01*
X153192214Y-110736619D01*
X154096976Y-110974714D02*
X154096976Y-111784238D01*
X154049357Y-111879476D01*
X154001738Y-111927095D01*
X153906500Y-111974714D01*
X153763642Y-111974714D01*
X153668404Y-111927095D01*
X154096976Y-111593761D02*
X154001738Y-111641380D01*
X153811261Y-111641380D01*
X153716023Y-111593761D01*
X153668404Y-111546142D01*
X153620785Y-111450904D01*
X153620785Y-111165190D01*
X153668404Y-111069952D01*
X153716023Y-111022333D01*
X153811261Y-110974714D01*
X154001738Y-110974714D01*
X154096976Y-111022333D01*
X155287452Y-110736619D02*
X155335071Y-110689000D01*
X155430309Y-110641380D01*
X155668404Y-110641380D01*
X155763642Y-110689000D01*
X155811261Y-110736619D01*
X155858880Y-110831857D01*
X155858880Y-110927095D01*
X155811261Y-111069952D01*
X155239833Y-111641380D01*
X155858880Y-111641380D01*
X156477928Y-110641380D02*
X156573166Y-110641380D01*
X156668404Y-110689000D01*
X156716023Y-110736619D01*
X156763642Y-110831857D01*
X156811261Y-111022333D01*
X156811261Y-111260428D01*
X156763642Y-111450904D01*
X156716023Y-111546142D01*
X156668404Y-111593761D01*
X156573166Y-111641380D01*
X156477928Y-111641380D01*
X156382690Y-111593761D01*
X156335071Y-111546142D01*
X156287452Y-111450904D01*
X156239833Y-111260428D01*
X156239833Y-111022333D01*
X156287452Y-110831857D01*
X156335071Y-110736619D01*
X156382690Y-110689000D01*
X156477928Y-110641380D01*
X157192214Y-110736619D02*
X157239833Y-110689000D01*
X157335071Y-110641380D01*
X157573166Y-110641380D01*
X157668404Y-110689000D01*
X157716023Y-110736619D01*
X157763642Y-110831857D01*
X157763642Y-110927095D01*
X157716023Y-111069952D01*
X157144595Y-111641380D01*
X157763642Y-111641380D01*
X158716023Y-111641380D02*
X158144595Y-111641380D01*
X158430309Y-111641380D02*
X158430309Y-110641380D01*
X158335071Y-110784238D01*
X158239833Y-110879476D01*
X158144595Y-110927095D01*
X148906500Y-113291380D02*
X148906500Y-112291380D01*
X149954119Y-113196142D02*
X149906500Y-113243761D01*
X149763642Y-113291380D01*
X149668404Y-113291380D01*
X149525547Y-113243761D01*
X149430309Y-113148523D01*
X149382690Y-113053285D01*
X149335071Y-112862809D01*
X149335071Y-112719952D01*
X149382690Y-112529476D01*
X149430309Y-112434238D01*
X149525547Y-112339000D01*
X149668404Y-112291380D01*
X149763642Y-112291380D01*
X149906500Y-112339000D01*
X149954119Y-112386619D01*
X150716023Y-112767571D02*
X150382690Y-112767571D01*
X150382690Y-113291380D02*
X150382690Y-112291380D01*
X150858880Y-112291380D01*
X152001738Y-113291380D02*
X152001738Y-112291380D01*
X152573166Y-113291380D02*
X152144595Y-112719952D01*
X152573166Y-112291380D02*
X152001738Y-112862809D01*
X153430309Y-113291380D02*
X153430309Y-112767571D01*
X153382690Y-112672333D01*
X153287452Y-112624714D01*
X153096976Y-112624714D01*
X153001738Y-112672333D01*
X153430309Y-113243761D02*
X153335071Y-113291380D01*
X153096976Y-113291380D01*
X153001738Y-113243761D01*
X152954119Y-113148523D01*
X152954119Y-113053285D01*
X153001738Y-112958047D01*
X153096976Y-112910428D01*
X153335071Y-112910428D01*
X153430309Y-112862809D01*
X153906500Y-113291380D02*
X153906500Y-112624714D01*
X153906500Y-112815190D02*
X153954119Y-112719952D01*
X154001738Y-112672333D01*
X154096976Y-112624714D01*
X154192214Y-112624714D01*
X154668404Y-113291380D02*
X154573166Y-113243761D01*
X154525547Y-113148523D01*
X154525547Y-112291380D01*
X155001738Y-113243761D02*
X155096976Y-113291380D01*
X155287452Y-113291380D01*
X155382690Y-113243761D01*
X155430309Y-113148523D01*
X155430309Y-113100904D01*
X155382690Y-113005666D01*
X155287452Y-112958047D01*
X155144595Y-112958047D01*
X155049357Y-112910428D01*
X155001738Y-112815190D01*
X155001738Y-112767571D01*
X155049357Y-112672333D01*
X155144595Y-112624714D01*
X155287452Y-112624714D01*
X155382690Y-112672333D01*
X155858880Y-113291380D02*
X155858880Y-112624714D01*
X155858880Y-112815190D02*
X155906500Y-112719952D01*
X155954119Y-112672333D01*
X156049357Y-112624714D01*
X156144595Y-112624714D01*
X156906500Y-112624714D02*
X156906500Y-113291380D01*
X156477928Y-112624714D02*
X156477928Y-113148523D01*
X156525547Y-113243761D01*
X156620785Y-113291380D01*
X156763642Y-113291380D01*
X156858880Y-113243761D01*
X156906500Y-113196142D01*
X157382690Y-113291380D02*
X157382690Y-112291380D01*
X157811261Y-113291380D02*
X157811261Y-112767571D01*
X157763642Y-112672333D01*
X157668404Y-112624714D01*
X157525547Y-112624714D01*
X157430309Y-112672333D01*
X157382690Y-112719952D01*
X158668404Y-113243761D02*
X158573166Y-113291380D01*
X158382690Y-113291380D01*
X158287452Y-113243761D01*
X158239833Y-113148523D01*
X158239833Y-112767571D01*
X158287452Y-112672333D01*
X158382690Y-112624714D01*
X158573166Y-112624714D01*
X158668404Y-112672333D01*
X158716023Y-112767571D01*
X158716023Y-112862809D01*
X158239833Y-112958047D01*
D11*
X61809000Y-66829000D02*
X67049000Y-66829000D01*
X61809000Y-69569000D02*
X67049000Y-69569000D01*
X61809000Y-66829000D02*
X61809000Y-67144000D01*
X61809000Y-69254000D02*
X61809000Y-69569000D01*
X67049000Y-66829000D02*
X67049000Y-67144000D01*
X67049000Y-69254000D02*
X67049000Y-69569000D01*
X64269000Y-70004000D02*
X69509000Y-70004000D01*
X64269000Y-72744000D02*
X69509000Y-72744000D01*
X64269000Y-70004000D02*
X64269000Y-70319000D01*
X64269000Y-72429000D02*
X64269000Y-72744000D01*
X69509000Y-70004000D02*
X69509000Y-70319000D01*
X69509000Y-72429000D02*
X69509000Y-72744000D01*
X65714000Y-102594000D02*
X65714000Y-106194000D01*
X65725522Y-106232478D02*
G75*
G03*
X70164000Y-104394000I1838478J1838478D01*
G01*
X65725522Y-102555522D02*
G75*
G02*
X70164000Y-104394000I1838478J-1838478D01*
G01*
D12*
X123260000Y-60910000D02*
X123260000Y-114310000D01*
X123260000Y-114310000D02*
X100260000Y-114310000D01*
X100260000Y-114310000D02*
X100260000Y-60910000D01*
X100260000Y-60910000D02*
X123260000Y-60910000D01*
D11*
X62424000Y-84014000D02*
X62424000Y-86674000D01*
X65024000Y-84014000D02*
X62424000Y-84014000D01*
X65024000Y-86674000D02*
X62424000Y-86674000D01*
X65024000Y-84014000D02*
X65024000Y-86674000D01*
X66294000Y-84014000D02*
X67624000Y-84014000D01*
X67624000Y-84014000D02*
X67624000Y-85344000D01*
X62424000Y-92904000D02*
X62424000Y-95564000D01*
X65024000Y-92904000D02*
X62424000Y-92904000D01*
X65024000Y-95564000D02*
X62424000Y-95564000D01*
X65024000Y-92904000D02*
X65024000Y-95564000D01*
X66294000Y-92904000D02*
X67624000Y-92904000D01*
X67624000Y-92904000D02*
X67624000Y-94234000D01*
X58988000Y-66488000D02*
X56328000Y-66488000D01*
X58988000Y-69088000D02*
X58988000Y-66488000D01*
X56328000Y-69088000D02*
X56328000Y-66488000D01*
X58988000Y-69088000D02*
X56328000Y-69088000D01*
X58988000Y-70358000D02*
X58988000Y-71688000D01*
X58988000Y-71688000D02*
X57658000Y-71688000D01*
X62424000Y-75759000D02*
X62424000Y-78419000D01*
X65024000Y-75759000D02*
X62424000Y-75759000D01*
X65024000Y-78419000D02*
X62424000Y-78419000D01*
X65024000Y-75759000D02*
X65024000Y-78419000D01*
X66294000Y-75759000D02*
X67624000Y-75759000D01*
X67624000Y-75759000D02*
X67624000Y-77089000D01*
X62698000Y-59468000D02*
X72938000Y-59468000D01*
X62698000Y-64109000D02*
X72938000Y-64109000D01*
X62698000Y-59468000D02*
X62698000Y-64109000D01*
X72938000Y-59468000D02*
X72938000Y-64109000D01*
X62698000Y-60978000D02*
X72938000Y-60978000D01*
X65968000Y-59468000D02*
X65968000Y-60978000D01*
X69669000Y-59468000D02*
X69669000Y-60978000D01*
X62254000Y-101124000D02*
X62584000Y-101124000D01*
X62584000Y-101124000D02*
X62584000Y-107664000D01*
X62584000Y-107664000D02*
X62254000Y-107664000D01*
X60174000Y-101124000D02*
X59844000Y-101124000D01*
X59844000Y-101124000D02*
X59844000Y-107664000D01*
X59844000Y-107664000D02*
X60174000Y-107664000D01*
X62714000Y-107664000D02*
X62384000Y-107664000D01*
X62384000Y-107664000D02*
X62384000Y-101124000D01*
X62384000Y-101124000D02*
X62714000Y-101124000D01*
X64794000Y-107664000D02*
X65124000Y-107664000D01*
X65124000Y-107664000D02*
X65124000Y-101124000D01*
X65124000Y-101124000D02*
X64794000Y-101124000D01*
X111677320Y-103384600D02*
X112007320Y-103384600D01*
X112007320Y-103384600D02*
X112007320Y-109924600D01*
X112007320Y-109924600D02*
X111677320Y-109924600D01*
X109597320Y-103384600D02*
X109267320Y-103384600D01*
X109267320Y-103384600D02*
X109267320Y-109924600D01*
X109267320Y-109924600D02*
X109597320Y-109924600D01*
X111565560Y-78304640D02*
X111895560Y-78304640D01*
X111895560Y-78304640D02*
X111895560Y-84844640D01*
X111895560Y-84844640D02*
X111565560Y-84844640D01*
X109485560Y-78304640D02*
X109155560Y-78304640D01*
X109155560Y-78304640D02*
X109155560Y-84844640D01*
X109155560Y-84844640D02*
X109485560Y-84844640D01*
X112589440Y-108756200D02*
X112259440Y-108756200D01*
X112259440Y-108756200D02*
X112259440Y-102216200D01*
X112259440Y-102216200D02*
X112589440Y-102216200D01*
X114669440Y-108756200D02*
X114999440Y-108756200D01*
X114999440Y-108756200D02*
X114999440Y-102216200D01*
X114999440Y-102216200D02*
X114669440Y-102216200D01*
X108050200Y-78350360D02*
X108380200Y-78350360D01*
X108380200Y-78350360D02*
X108380200Y-84890360D01*
X108380200Y-84890360D02*
X108050200Y-84890360D01*
X105970200Y-78350360D02*
X105640200Y-78350360D01*
X105640200Y-78350360D02*
X105640200Y-84890360D01*
X105640200Y-84890360D02*
X105970200Y-84890360D01*
X109597320Y-99972880D02*
X109267320Y-99972880D01*
X109267320Y-99972880D02*
X109267320Y-93432880D01*
X109267320Y-93432880D02*
X109597320Y-93432880D01*
X111677320Y-99972880D02*
X112007320Y-99972880D01*
X112007320Y-99972880D02*
X112007320Y-93432880D01*
X112007320Y-93432880D02*
X111677320Y-93432880D01*
X112863760Y-95527880D02*
X112533760Y-95527880D01*
X112533760Y-95527880D02*
X112533760Y-88987880D01*
X112533760Y-88987880D02*
X112863760Y-88987880D01*
X114943760Y-95527880D02*
X115273760Y-95527880D01*
X115273760Y-95527880D02*
X115273760Y-88987880D01*
X115273760Y-88987880D02*
X114943760Y-88987880D01*
X137220000Y-60840000D02*
X126940000Y-60840000D01*
X137220000Y-81400000D02*
X137220000Y-60840000D01*
X126940000Y-81400000D02*
X137220000Y-81400000D01*
X126940000Y-60840000D02*
X126940000Y-81400000D01*
X134730000Y-60900000D02*
X133080000Y-60900000D01*
X134730000Y-81340000D02*
X134730000Y-60900000D01*
X129430000Y-81340000D02*
X134730000Y-81340000D01*
X129430000Y-60900000D02*
X129430000Y-81340000D01*
X131080000Y-60900000D02*
X129430000Y-60900000D01*
X133080000Y-60900000D02*
G75*
G02*
X131080000Y-60900000I-1000000J0D01*
G01*
X131080000Y-87570000D02*
X129430000Y-87570000D01*
X129430000Y-87570000D02*
X129430000Y-108010000D01*
X129430000Y-108010000D02*
X134730000Y-108010000D01*
X134730000Y-108010000D02*
X134730000Y-87570000D01*
X134730000Y-87570000D02*
X133080000Y-87570000D01*
X126940000Y-87510000D02*
X126940000Y-108070000D01*
X126940000Y-108070000D02*
X137220000Y-108070000D01*
X137220000Y-108070000D02*
X137220000Y-87510000D01*
X137220000Y-87510000D02*
X126940000Y-87510000D01*
X133080000Y-87570000D02*
G75*
G02*
X131080000Y-87570000I-1000000J0D01*
G01*
D13*
G36*
X81724500Y-92508917D02*
G01*
X81713916Y-92519500D01*
X81703333Y-92508917D01*
X81713916Y-92498333D01*
X81724500Y-92508917D01*
G37*
X81724500Y-92508917D02*
X81713916Y-92519500D01*
X81703333Y-92508917D01*
X81713916Y-92498333D01*
X81724500Y-92508917D01*
G36*
X81675111Y-92526555D02*
G01*
X81672205Y-92539139D01*
X81661000Y-92540667D01*
X81643577Y-92532922D01*
X81646888Y-92526555D01*
X81672008Y-92524022D01*
X81675111Y-92526555D01*
G37*
X81675111Y-92526555D02*
X81672205Y-92539139D01*
X81661000Y-92540667D01*
X81643577Y-92532922D01*
X81646888Y-92526555D01*
X81672008Y-92524022D01*
X81675111Y-92526555D01*
G36*
X88090127Y-91470883D02*
G01*
X88277922Y-91475666D01*
X88474136Y-91482393D01*
X88670320Y-91490767D01*
X88858024Y-91500487D01*
X89028798Y-91511256D01*
X89174194Y-91522774D01*
X89206345Y-91525810D01*
X89700242Y-91585471D01*
X90159131Y-91663724D01*
X90582646Y-91760374D01*
X90970421Y-91875228D01*
X91322088Y-92008091D01*
X91637281Y-92158769D01*
X91915632Y-92327068D01*
X92156776Y-92512794D01*
X92360344Y-92715753D01*
X92525972Y-92935751D01*
X92653291Y-93172595D01*
X92732256Y-93390960D01*
X92761038Y-93523638D01*
X92780839Y-93681166D01*
X92790776Y-93847732D01*
X92789969Y-94007525D01*
X92777539Y-94144734D01*
X92775077Y-94159779D01*
X92709749Y-94417715D01*
X92603279Y-94680218D01*
X92456518Y-94946493D01*
X92270316Y-95215743D01*
X92045523Y-95487174D01*
X91782991Y-95759989D01*
X91483569Y-96033392D01*
X91148109Y-96306588D01*
X90777460Y-96578780D01*
X90372472Y-96849174D01*
X89933997Y-97116973D01*
X89462885Y-97381381D01*
X89164583Y-97538233D01*
X88439690Y-97890109D01*
X87684371Y-98217955D01*
X86904085Y-98520198D01*
X86104292Y-98795264D01*
X85290453Y-99041579D01*
X84468026Y-99257569D01*
X83642473Y-99441661D01*
X82819252Y-99592281D01*
X82003825Y-99707855D01*
X81428166Y-99768169D01*
X81103885Y-99793807D01*
X80777621Y-99813636D01*
X80458120Y-99827362D01*
X80154130Y-99834688D01*
X79874399Y-99835319D01*
X79629000Y-99829016D01*
X79186195Y-99797690D01*
X78769695Y-99743880D01*
X78380544Y-99668301D01*
X78019787Y-99571664D01*
X77688471Y-99454685D01*
X77387641Y-99318077D01*
X77118342Y-99162554D01*
X76881621Y-98988829D01*
X76678522Y-98797615D01*
X76510091Y-98589627D01*
X76377374Y-98365578D01*
X76281417Y-98126181D01*
X76223264Y-97872151D01*
X76203962Y-97604201D01*
X76207331Y-97493667D01*
X76246266Y-97182054D01*
X76325863Y-96866222D01*
X76444830Y-96547595D01*
X76601874Y-96227602D01*
X76795703Y-95907669D01*
X77025023Y-95589223D01*
X77288542Y-95273690D01*
X77584968Y-94962499D01*
X77913008Y-94657075D01*
X78271369Y-94358846D01*
X78658759Y-94069238D01*
X79073885Y-93789679D01*
X79515455Y-93521596D01*
X79982175Y-93266414D01*
X80084083Y-93214182D01*
X80221364Y-93145269D01*
X80362523Y-93075548D01*
X80497258Y-93010026D01*
X80615269Y-92953711D01*
X80706256Y-92911611D01*
X80708500Y-92910603D01*
X80788877Y-92875301D01*
X80889250Y-92832419D01*
X81002989Y-92784658D01*
X81123465Y-92734722D01*
X81244047Y-92685313D01*
X81358107Y-92639133D01*
X81459014Y-92598885D01*
X81540141Y-92567270D01*
X81594856Y-92546991D01*
X81616031Y-92540667D01*
X81601863Y-92549535D01*
X81555136Y-92574286D01*
X81481289Y-92612138D01*
X81385760Y-92660311D01*
X81273987Y-92716022D01*
X81247847Y-92728969D01*
X80879495Y-92923114D01*
X80545154Y-93125384D01*
X80236562Y-93341586D01*
X79945459Y-93577529D01*
X79663585Y-93839024D01*
X79649458Y-93853000D01*
X79485358Y-94019953D01*
X79345443Y-94172463D01*
X79220286Y-94321825D01*
X79100462Y-94479333D01*
X78976544Y-94656280D01*
X78966018Y-94671841D01*
X78705068Y-95094984D01*
X78479245Y-95539343D01*
X78288345Y-96005588D01*
X78132162Y-96494386D01*
X78010493Y-97006407D01*
X77923133Y-97542319D01*
X77869878Y-98102790D01*
X77859966Y-98288343D01*
X77855246Y-98505656D01*
X77862417Y-98685699D01*
X77882401Y-98832089D01*
X77916121Y-98948444D01*
X77964499Y-99038381D01*
X78028458Y-99105517D01*
X78076466Y-99137346D01*
X78179206Y-99180785D01*
X78289640Y-99198084D01*
X78419064Y-99190396D01*
X78486000Y-99179190D01*
X78674019Y-99129579D01*
X78886945Y-99049265D01*
X79122444Y-98939948D01*
X79378183Y-98803330D01*
X79651827Y-98641114D01*
X79941045Y-98455001D01*
X80243502Y-98246693D01*
X80556865Y-98017891D01*
X80878801Y-97770297D01*
X81206977Y-97505613D01*
X81539059Y-97225540D01*
X81744410Y-97044743D01*
X84311343Y-97044743D01*
X84319492Y-97053564D01*
X84341230Y-97060097D01*
X84381309Y-97064680D01*
X84444480Y-97067655D01*
X84535495Y-97069362D01*
X84659106Y-97070141D01*
X84820064Y-97070333D01*
X85356215Y-97070333D01*
X85563346Y-96470561D01*
X85774470Y-96470561D01*
X85784817Y-96609440D01*
X85834721Y-96734157D01*
X85923572Y-96843315D01*
X86050758Y-96935518D01*
X86081109Y-96951991D01*
X86218483Y-97006057D01*
X86383708Y-97043861D01*
X86565102Y-97064288D01*
X86750984Y-97066221D01*
X86815539Y-97059834D01*
X87735833Y-97059834D01*
X87756033Y-97062767D01*
X87812766Y-97065385D01*
X87900235Y-97067566D01*
X88012638Y-97069190D01*
X88144178Y-97070137D01*
X88241254Y-97070333D01*
X88746675Y-97070333D01*
X89102023Y-96017292D01*
X89170607Y-95814106D01*
X89235481Y-95622025D01*
X89295313Y-95444981D01*
X89348774Y-95286908D01*
X89394531Y-95151737D01*
X89431255Y-95043401D01*
X89457614Y-94965833D01*
X89472277Y-94922966D01*
X89474494Y-94916625D01*
X89481851Y-94899664D01*
X89493926Y-94887300D01*
X89516760Y-94878805D01*
X89556392Y-94873454D01*
X89618864Y-94870521D01*
X89710215Y-94869279D01*
X89836487Y-94869003D01*
X89870673Y-94869000D01*
X90249728Y-94869000D01*
X90397758Y-94456250D01*
X90019295Y-94450481D01*
X89898030Y-94447816D01*
X89792888Y-94443948D01*
X89710567Y-94439251D01*
X89657764Y-94434099D01*
X89641011Y-94429314D01*
X89647725Y-94406190D01*
X89666650Y-94348083D01*
X89696096Y-94259994D01*
X89734375Y-94146927D01*
X89779800Y-94013884D01*
X89830681Y-93865867D01*
X89852678Y-93802159D01*
X89905250Y-93649787D01*
X89953057Y-93510650D01*
X89994417Y-93389690D01*
X90027647Y-93291850D01*
X90051065Y-93222069D01*
X90062990Y-93185289D01*
X90064166Y-93180883D01*
X90084025Y-93179414D01*
X90138433Y-93179352D01*
X90219637Y-93180478D01*
X90319885Y-93182572D01*
X90431422Y-93185415D01*
X90546497Y-93188788D01*
X90657356Y-93192473D01*
X90756246Y-93196249D01*
X90835415Y-93199898D01*
X90887109Y-93203200D01*
X90899164Y-93204488D01*
X90911041Y-93186685D01*
X90934043Y-93137159D01*
X90965011Y-93064040D01*
X91000791Y-92975459D01*
X91038225Y-92879543D01*
X91074156Y-92784424D01*
X91105429Y-92698231D01*
X91128886Y-92629093D01*
X91141370Y-92585139D01*
X91142533Y-92577708D01*
X91122851Y-92572239D01*
X91067111Y-92567944D01*
X90981570Y-92564782D01*
X90872485Y-92562717D01*
X90746115Y-92561708D01*
X90608717Y-92561717D01*
X90466548Y-92562705D01*
X90325866Y-92564634D01*
X90192929Y-92567464D01*
X90073994Y-92571157D01*
X89975318Y-92575673D01*
X89903160Y-92580975D01*
X89869416Y-92585608D01*
X89694780Y-92642143D01*
X89540559Y-92734146D01*
X89404489Y-92863232D01*
X89316475Y-92980062D01*
X89265708Y-93060649D01*
X89219968Y-93140117D01*
X89188389Y-93202514D01*
X89186271Y-93207417D01*
X89173235Y-93240410D01*
X89146983Y-93308649D01*
X89108756Y-93408839D01*
X89059793Y-93537686D01*
X89001336Y-93691895D01*
X88934625Y-93868171D01*
X88860899Y-94063219D01*
X88781400Y-94273746D01*
X88697369Y-94496455D01*
X88610044Y-94728054D01*
X88520668Y-94965246D01*
X88430480Y-95204737D01*
X88340721Y-95443233D01*
X88252631Y-95677439D01*
X88167450Y-95904060D01*
X88086420Y-96119802D01*
X88010780Y-96321370D01*
X87941771Y-96505469D01*
X87880634Y-96668805D01*
X87828609Y-96808083D01*
X87786936Y-96920009D01*
X87756855Y-97001287D01*
X87739608Y-97048623D01*
X87735833Y-97059834D01*
X86815539Y-97059834D01*
X86929671Y-97048542D01*
X86984416Y-97038352D01*
X87193025Y-96973777D01*
X87380171Y-96872914D01*
X87544957Y-96736477D01*
X87686483Y-96565181D01*
X87782324Y-96403583D01*
X87808887Y-96345449D01*
X87844513Y-96258731D01*
X87886823Y-96150104D01*
X87933433Y-96026240D01*
X87981961Y-95893812D01*
X88030026Y-95759492D01*
X88075245Y-95629954D01*
X88115236Y-95511870D01*
X88147618Y-95411912D01*
X88170008Y-95336755D01*
X88180024Y-95293069D01*
X88180333Y-95288654D01*
X88160279Y-95283096D01*
X88104544Y-95278839D01*
X88019763Y-95276102D01*
X87912576Y-95275104D01*
X87794874Y-95275981D01*
X87409415Y-95281750D01*
X87270288Y-95642491D01*
X87204717Y-95809133D01*
X87149323Y-95941224D01*
X87101098Y-96044439D01*
X87057036Y-96124456D01*
X87014127Y-96186951D01*
X86969366Y-96237601D01*
X86940902Y-96264197D01*
X86882497Y-96308986D01*
X86841618Y-96320008D01*
X86809616Y-96296764D01*
X86785610Y-96255265D01*
X86769356Y-96207774D01*
X86767412Y-96151623D01*
X86778781Y-96072980D01*
X86789009Y-96036269D01*
X86812251Y-95963758D01*
X86847093Y-95859445D01*
X86892123Y-95727329D01*
X86945928Y-95571409D01*
X87007094Y-95395685D01*
X87074210Y-95204153D01*
X87145861Y-95000815D01*
X87220636Y-94789668D01*
X87297120Y-94574711D01*
X87373902Y-94359943D01*
X87449568Y-94149363D01*
X87522705Y-93946970D01*
X87591900Y-93756763D01*
X87655740Y-93582740D01*
X87712813Y-93428901D01*
X87716830Y-93418159D01*
X87755075Y-93334697D01*
X87798663Y-93285779D01*
X87856787Y-93263791D01*
X87907400Y-93260333D01*
X87980396Y-93275675D01*
X88032313Y-93316395D01*
X88053274Y-93374530D01*
X88053333Y-93377966D01*
X88046554Y-93412695D01*
X88027732Y-93479890D01*
X87999145Y-93572178D01*
X87963067Y-93682185D01*
X87926333Y-93789500D01*
X87885897Y-93905827D01*
X87850778Y-94007710D01*
X87823179Y-94088687D01*
X87805303Y-94142295D01*
X87799333Y-94161981D01*
X87819394Y-94164683D01*
X87875154Y-94167029D01*
X87959980Y-94168873D01*
X88067240Y-94170069D01*
X88185625Y-94170472D01*
X88571916Y-94170444D01*
X88761093Y-93670278D01*
X88820839Y-93511168D01*
X88866744Y-93385539D01*
X88900562Y-93287513D01*
X88924049Y-93211215D01*
X88938962Y-93150770D01*
X88947054Y-93100300D01*
X88950082Y-93053932D01*
X88950270Y-93037052D01*
X88937986Y-92916790D01*
X88897994Y-92821211D01*
X88825585Y-92743280D01*
X88716051Y-92675957D01*
X88705064Y-92670589D01*
X88598227Y-92627409D01*
X88478624Y-92596127D01*
X88339427Y-92575820D01*
X88173810Y-92565565D01*
X87974944Y-92564439D01*
X87926333Y-92565319D01*
X87772303Y-92570643D01*
X87651451Y-92581390D01*
X87554665Y-92600995D01*
X87472835Y-92632894D01*
X87396852Y-92680520D01*
X87317605Y-92747309D01*
X87237614Y-92824984D01*
X87088646Y-92974583D01*
X86466662Y-94583250D01*
X86369390Y-94835104D01*
X86275798Y-95077959D01*
X86187124Y-95308575D01*
X86104605Y-95523708D01*
X86029479Y-95720116D01*
X85962982Y-95894557D01*
X85906353Y-96043789D01*
X85860827Y-96164569D01*
X85827644Y-96253656D01*
X85808039Y-96307806D01*
X85804290Y-96318917D01*
X85774470Y-96470561D01*
X85563346Y-96470561D01*
X86125582Y-94842542D01*
X86227661Y-94546980D01*
X86325949Y-94262437D01*
X86419554Y-93991490D01*
X86507585Y-93736720D01*
X86589150Y-93500704D01*
X86663357Y-93286022D01*
X86729316Y-93095252D01*
X86786133Y-92930974D01*
X86832919Y-92795766D01*
X86868781Y-92692206D01*
X86892828Y-92622875D01*
X86904168Y-92590350D01*
X86904906Y-92588292D01*
X86899412Y-92579569D01*
X86872891Y-92572864D01*
X86821351Y-92567959D01*
X86740797Y-92564639D01*
X86627239Y-92562685D01*
X86476683Y-92561883D01*
X86417445Y-92561833D01*
X86257428Y-92562147D01*
X86134776Y-92563302D01*
X86044523Y-92565617D01*
X85981706Y-92569413D01*
X85941358Y-92575011D01*
X85918514Y-92582729D01*
X85908210Y-92592887D01*
X85907415Y-92594704D01*
X85895718Y-92626423D01*
X85871105Y-92694144D01*
X85834695Y-92794753D01*
X85787607Y-92925139D01*
X85730959Y-93082188D01*
X85665870Y-93262789D01*
X85593459Y-93463829D01*
X85514845Y-93682195D01*
X85431146Y-93914775D01*
X85343481Y-94158457D01*
X85252969Y-94410127D01*
X85160729Y-94666674D01*
X85067878Y-94924985D01*
X84975537Y-95181948D01*
X84884823Y-95434449D01*
X84796856Y-95679378D01*
X84712754Y-95913620D01*
X84633635Y-96134065D01*
X84560620Y-96337598D01*
X84494826Y-96521108D01*
X84437371Y-96681483D01*
X84389376Y-96815609D01*
X84351958Y-96920375D01*
X84326237Y-96992667D01*
X84313330Y-97029374D01*
X84312033Y-97033292D01*
X84311343Y-97044743D01*
X81744410Y-97044743D01*
X81872714Y-96931781D01*
X82205609Y-96626037D01*
X82535410Y-96310009D01*
X82846333Y-95999150D01*
X83109620Y-95724066D01*
X83337896Y-95472327D01*
X83531327Y-95243729D01*
X83690080Y-95038067D01*
X83814319Y-94855135D01*
X83904212Y-94694728D01*
X83906948Y-94689083D01*
X83956419Y-94553146D01*
X83966734Y-94432659D01*
X83938253Y-94327889D01*
X83871336Y-94239105D01*
X83766344Y-94166574D01*
X83623638Y-94110562D01*
X83443576Y-94071336D01*
X83226521Y-94049165D01*
X83036833Y-94043885D01*
X82635608Y-94057155D01*
X82221794Y-94096670D01*
X81803170Y-94160645D01*
X81387514Y-94247296D01*
X80982606Y-94354839D01*
X80596223Y-94481489D01*
X80236146Y-94625462D01*
X79989676Y-94742887D01*
X79907077Y-94784268D01*
X79839343Y-94816034D01*
X79794575Y-94834520D01*
X79780797Y-94837352D01*
X79784861Y-94814001D01*
X79808345Y-94763228D01*
X79846826Y-94692590D01*
X79895877Y-94609643D01*
X79951073Y-94521944D01*
X80007990Y-94437048D01*
X80047355Y-94382167D01*
X80247047Y-94142906D01*
X80486363Y-93907466D01*
X80762688Y-93676846D01*
X81073406Y-93452045D01*
X81415902Y-93234065D01*
X81787561Y-93023905D01*
X82185766Y-92822564D01*
X82607904Y-92631042D01*
X83051359Y-92450339D01*
X83513514Y-92281456D01*
X83991755Y-92125391D01*
X84483467Y-91983146D01*
X84986035Y-91855718D01*
X85496842Y-91744110D01*
X86013273Y-91649319D01*
X86532714Y-91572346D01*
X87052549Y-91514192D01*
X87570162Y-91475855D01*
X87661750Y-91471191D01*
X87773591Y-91468347D01*
X87919200Y-91468344D01*
X88090127Y-91470883D01*
G37*
X88090127Y-91470883D02*
X88277922Y-91475666D01*
X88474136Y-91482393D01*
X88670320Y-91490767D01*
X88858024Y-91500487D01*
X89028798Y-91511256D01*
X89174194Y-91522774D01*
X89206345Y-91525810D01*
X89700242Y-91585471D01*
X90159131Y-91663724D01*
X90582646Y-91760374D01*
X90970421Y-91875228D01*
X91322088Y-92008091D01*
X91637281Y-92158769D01*
X91915632Y-92327068D01*
X92156776Y-92512794D01*
X92360344Y-92715753D01*
X92525972Y-92935751D01*
X92653291Y-93172595D01*
X92732256Y-93390960D01*
X92761038Y-93523638D01*
X92780839Y-93681166D01*
X92790776Y-93847732D01*
X92789969Y-94007525D01*
X92777539Y-94144734D01*
X92775077Y-94159779D01*
X92709749Y-94417715D01*
X92603279Y-94680218D01*
X92456518Y-94946493D01*
X92270316Y-95215743D01*
X92045523Y-95487174D01*
X91782991Y-95759989D01*
X91483569Y-96033392D01*
X91148109Y-96306588D01*
X90777460Y-96578780D01*
X90372472Y-96849174D01*
X89933997Y-97116973D01*
X89462885Y-97381381D01*
X89164583Y-97538233D01*
X88439690Y-97890109D01*
X87684371Y-98217955D01*
X86904085Y-98520198D01*
X86104292Y-98795264D01*
X85290453Y-99041579D01*
X84468026Y-99257569D01*
X83642473Y-99441661D01*
X82819252Y-99592281D01*
X82003825Y-99707855D01*
X81428166Y-99768169D01*
X81103885Y-99793807D01*
X80777621Y-99813636D01*
X80458120Y-99827362D01*
X80154130Y-99834688D01*
X79874399Y-99835319D01*
X79629000Y-99829016D01*
X79186195Y-99797690D01*
X78769695Y-99743880D01*
X78380544Y-99668301D01*
X78019787Y-99571664D01*
X77688471Y-99454685D01*
X77387641Y-99318077D01*
X77118342Y-99162554D01*
X76881621Y-98988829D01*
X76678522Y-98797615D01*
X76510091Y-98589627D01*
X76377374Y-98365578D01*
X76281417Y-98126181D01*
X76223264Y-97872151D01*
X76203962Y-97604201D01*
X76207331Y-97493667D01*
X76246266Y-97182054D01*
X76325863Y-96866222D01*
X76444830Y-96547595D01*
X76601874Y-96227602D01*
X76795703Y-95907669D01*
X77025023Y-95589223D01*
X77288542Y-95273690D01*
X77584968Y-94962499D01*
X77913008Y-94657075D01*
X78271369Y-94358846D01*
X78658759Y-94069238D01*
X79073885Y-93789679D01*
X79515455Y-93521596D01*
X79982175Y-93266414D01*
X80084083Y-93214182D01*
X80221364Y-93145269D01*
X80362523Y-93075548D01*
X80497258Y-93010026D01*
X80615269Y-92953711D01*
X80706256Y-92911611D01*
X80708500Y-92910603D01*
X80788877Y-92875301D01*
X80889250Y-92832419D01*
X81002989Y-92784658D01*
X81123465Y-92734722D01*
X81244047Y-92685313D01*
X81358107Y-92639133D01*
X81459014Y-92598885D01*
X81540141Y-92567270D01*
X81594856Y-92546991D01*
X81616031Y-92540667D01*
X81601863Y-92549535D01*
X81555136Y-92574286D01*
X81481289Y-92612138D01*
X81385760Y-92660311D01*
X81273987Y-92716022D01*
X81247847Y-92728969D01*
X80879495Y-92923114D01*
X80545154Y-93125384D01*
X80236562Y-93341586D01*
X79945459Y-93577529D01*
X79663585Y-93839024D01*
X79649458Y-93853000D01*
X79485358Y-94019953D01*
X79345443Y-94172463D01*
X79220286Y-94321825D01*
X79100462Y-94479333D01*
X78976544Y-94656280D01*
X78966018Y-94671841D01*
X78705068Y-95094984D01*
X78479245Y-95539343D01*
X78288345Y-96005588D01*
X78132162Y-96494386D01*
X78010493Y-97006407D01*
X77923133Y-97542319D01*
X77869878Y-98102790D01*
X77859966Y-98288343D01*
X77855246Y-98505656D01*
X77862417Y-98685699D01*
X77882401Y-98832089D01*
X77916121Y-98948444D01*
X77964499Y-99038381D01*
X78028458Y-99105517D01*
X78076466Y-99137346D01*
X78179206Y-99180785D01*
X78289640Y-99198084D01*
X78419064Y-99190396D01*
X78486000Y-99179190D01*
X78674019Y-99129579D01*
X78886945Y-99049265D01*
X79122444Y-98939948D01*
X79378183Y-98803330D01*
X79651827Y-98641114D01*
X79941045Y-98455001D01*
X80243502Y-98246693D01*
X80556865Y-98017891D01*
X80878801Y-97770297D01*
X81206977Y-97505613D01*
X81539059Y-97225540D01*
X81744410Y-97044743D01*
X84311343Y-97044743D01*
X84319492Y-97053564D01*
X84341230Y-97060097D01*
X84381309Y-97064680D01*
X84444480Y-97067655D01*
X84535495Y-97069362D01*
X84659106Y-97070141D01*
X84820064Y-97070333D01*
X85356215Y-97070333D01*
X85563346Y-96470561D01*
X85774470Y-96470561D01*
X85784817Y-96609440D01*
X85834721Y-96734157D01*
X85923572Y-96843315D01*
X86050758Y-96935518D01*
X86081109Y-96951991D01*
X86218483Y-97006057D01*
X86383708Y-97043861D01*
X86565102Y-97064288D01*
X86750984Y-97066221D01*
X86815539Y-97059834D01*
X87735833Y-97059834D01*
X87756033Y-97062767D01*
X87812766Y-97065385D01*
X87900235Y-97067566D01*
X88012638Y-97069190D01*
X88144178Y-97070137D01*
X88241254Y-97070333D01*
X88746675Y-97070333D01*
X89102023Y-96017292D01*
X89170607Y-95814106D01*
X89235481Y-95622025D01*
X89295313Y-95444981D01*
X89348774Y-95286908D01*
X89394531Y-95151737D01*
X89431255Y-95043401D01*
X89457614Y-94965833D01*
X89472277Y-94922966D01*
X89474494Y-94916625D01*
X89481851Y-94899664D01*
X89493926Y-94887300D01*
X89516760Y-94878805D01*
X89556392Y-94873454D01*
X89618864Y-94870521D01*
X89710215Y-94869279D01*
X89836487Y-94869003D01*
X89870673Y-94869000D01*
X90249728Y-94869000D01*
X90397758Y-94456250D01*
X90019295Y-94450481D01*
X89898030Y-94447816D01*
X89792888Y-94443948D01*
X89710567Y-94439251D01*
X89657764Y-94434099D01*
X89641011Y-94429314D01*
X89647725Y-94406190D01*
X89666650Y-94348083D01*
X89696096Y-94259994D01*
X89734375Y-94146927D01*
X89779800Y-94013884D01*
X89830681Y-93865867D01*
X89852678Y-93802159D01*
X89905250Y-93649787D01*
X89953057Y-93510650D01*
X89994417Y-93389690D01*
X90027647Y-93291850D01*
X90051065Y-93222069D01*
X90062990Y-93185289D01*
X90064166Y-93180883D01*
X90084025Y-93179414D01*
X90138433Y-93179352D01*
X90219637Y-93180478D01*
X90319885Y-93182572D01*
X90431422Y-93185415D01*
X90546497Y-93188788D01*
X90657356Y-93192473D01*
X90756246Y-93196249D01*
X90835415Y-93199898D01*
X90887109Y-93203200D01*
X90899164Y-93204488D01*
X90911041Y-93186685D01*
X90934043Y-93137159D01*
X90965011Y-93064040D01*
X91000791Y-92975459D01*
X91038225Y-92879543D01*
X91074156Y-92784424D01*
X91105429Y-92698231D01*
X91128886Y-92629093D01*
X91141370Y-92585139D01*
X91142533Y-92577708D01*
X91122851Y-92572239D01*
X91067111Y-92567944D01*
X90981570Y-92564782D01*
X90872485Y-92562717D01*
X90746115Y-92561708D01*
X90608717Y-92561717D01*
X90466548Y-92562705D01*
X90325866Y-92564634D01*
X90192929Y-92567464D01*
X90073994Y-92571157D01*
X89975318Y-92575673D01*
X89903160Y-92580975D01*
X89869416Y-92585608D01*
X89694780Y-92642143D01*
X89540559Y-92734146D01*
X89404489Y-92863232D01*
X89316475Y-92980062D01*
X89265708Y-93060649D01*
X89219968Y-93140117D01*
X89188389Y-93202514D01*
X89186271Y-93207417D01*
X89173235Y-93240410D01*
X89146983Y-93308649D01*
X89108756Y-93408839D01*
X89059793Y-93537686D01*
X89001336Y-93691895D01*
X88934625Y-93868171D01*
X88860899Y-94063219D01*
X88781400Y-94273746D01*
X88697369Y-94496455D01*
X88610044Y-94728054D01*
X88520668Y-94965246D01*
X88430480Y-95204737D01*
X88340721Y-95443233D01*
X88252631Y-95677439D01*
X88167450Y-95904060D01*
X88086420Y-96119802D01*
X88010780Y-96321370D01*
X87941771Y-96505469D01*
X87880634Y-96668805D01*
X87828609Y-96808083D01*
X87786936Y-96920009D01*
X87756855Y-97001287D01*
X87739608Y-97048623D01*
X87735833Y-97059834D01*
X86815539Y-97059834D01*
X86929671Y-97048542D01*
X86984416Y-97038352D01*
X87193025Y-96973777D01*
X87380171Y-96872914D01*
X87544957Y-96736477D01*
X87686483Y-96565181D01*
X87782324Y-96403583D01*
X87808887Y-96345449D01*
X87844513Y-96258731D01*
X87886823Y-96150104D01*
X87933433Y-96026240D01*
X87981961Y-95893812D01*
X88030026Y-95759492D01*
X88075245Y-95629954D01*
X88115236Y-95511870D01*
X88147618Y-95411912D01*
X88170008Y-95336755D01*
X88180024Y-95293069D01*
X88180333Y-95288654D01*
X88160279Y-95283096D01*
X88104544Y-95278839D01*
X88019763Y-95276102D01*
X87912576Y-95275104D01*
X87794874Y-95275981D01*
X87409415Y-95281750D01*
X87270288Y-95642491D01*
X87204717Y-95809133D01*
X87149323Y-95941224D01*
X87101098Y-96044439D01*
X87057036Y-96124456D01*
X87014127Y-96186951D01*
X86969366Y-96237601D01*
X86940902Y-96264197D01*
X86882497Y-96308986D01*
X86841618Y-96320008D01*
X86809616Y-96296764D01*
X86785610Y-96255265D01*
X86769356Y-96207774D01*
X86767412Y-96151623D01*
X86778781Y-96072980D01*
X86789009Y-96036269D01*
X86812251Y-95963758D01*
X86847093Y-95859445D01*
X86892123Y-95727329D01*
X86945928Y-95571409D01*
X87007094Y-95395685D01*
X87074210Y-95204153D01*
X87145861Y-95000815D01*
X87220636Y-94789668D01*
X87297120Y-94574711D01*
X87373902Y-94359943D01*
X87449568Y-94149363D01*
X87522705Y-93946970D01*
X87591900Y-93756763D01*
X87655740Y-93582740D01*
X87712813Y-93428901D01*
X87716830Y-93418159D01*
X87755075Y-93334697D01*
X87798663Y-93285779D01*
X87856787Y-93263791D01*
X87907400Y-93260333D01*
X87980396Y-93275675D01*
X88032313Y-93316395D01*
X88053274Y-93374530D01*
X88053333Y-93377966D01*
X88046554Y-93412695D01*
X88027732Y-93479890D01*
X87999145Y-93572178D01*
X87963067Y-93682185D01*
X87926333Y-93789500D01*
X87885897Y-93905827D01*
X87850778Y-94007710D01*
X87823179Y-94088687D01*
X87805303Y-94142295D01*
X87799333Y-94161981D01*
X87819394Y-94164683D01*
X87875154Y-94167029D01*
X87959980Y-94168873D01*
X88067240Y-94170069D01*
X88185625Y-94170472D01*
X88571916Y-94170444D01*
X88761093Y-93670278D01*
X88820839Y-93511168D01*
X88866744Y-93385539D01*
X88900562Y-93287513D01*
X88924049Y-93211215D01*
X88938962Y-93150770D01*
X88947054Y-93100300D01*
X88950082Y-93053932D01*
X88950270Y-93037052D01*
X88937986Y-92916790D01*
X88897994Y-92821211D01*
X88825585Y-92743280D01*
X88716051Y-92675957D01*
X88705064Y-92670589D01*
X88598227Y-92627409D01*
X88478624Y-92596127D01*
X88339427Y-92575820D01*
X88173810Y-92565565D01*
X87974944Y-92564439D01*
X87926333Y-92565319D01*
X87772303Y-92570643D01*
X87651451Y-92581390D01*
X87554665Y-92600995D01*
X87472835Y-92632894D01*
X87396852Y-92680520D01*
X87317605Y-92747309D01*
X87237614Y-92824984D01*
X87088646Y-92974583D01*
X86466662Y-94583250D01*
X86369390Y-94835104D01*
X86275798Y-95077959D01*
X86187124Y-95308575D01*
X86104605Y-95523708D01*
X86029479Y-95720116D01*
X85962982Y-95894557D01*
X85906353Y-96043789D01*
X85860827Y-96164569D01*
X85827644Y-96253656D01*
X85808039Y-96307806D01*
X85804290Y-96318917D01*
X85774470Y-96470561D01*
X85563346Y-96470561D01*
X86125582Y-94842542D01*
X86227661Y-94546980D01*
X86325949Y-94262437D01*
X86419554Y-93991490D01*
X86507585Y-93736720D01*
X86589150Y-93500704D01*
X86663357Y-93286022D01*
X86729316Y-93095252D01*
X86786133Y-92930974D01*
X86832919Y-92795766D01*
X86868781Y-92692206D01*
X86892828Y-92622875D01*
X86904168Y-92590350D01*
X86904906Y-92588292D01*
X86899412Y-92579569D01*
X86872891Y-92572864D01*
X86821351Y-92567959D01*
X86740797Y-92564639D01*
X86627239Y-92562685D01*
X86476683Y-92561883D01*
X86417445Y-92561833D01*
X86257428Y-92562147D01*
X86134776Y-92563302D01*
X86044523Y-92565617D01*
X85981706Y-92569413D01*
X85941358Y-92575011D01*
X85918514Y-92582729D01*
X85908210Y-92592887D01*
X85907415Y-92594704D01*
X85895718Y-92626423D01*
X85871105Y-92694144D01*
X85834695Y-92794753D01*
X85787607Y-92925139D01*
X85730959Y-93082188D01*
X85665870Y-93262789D01*
X85593459Y-93463829D01*
X85514845Y-93682195D01*
X85431146Y-93914775D01*
X85343481Y-94158457D01*
X85252969Y-94410127D01*
X85160729Y-94666674D01*
X85067878Y-94924985D01*
X84975537Y-95181948D01*
X84884823Y-95434449D01*
X84796856Y-95679378D01*
X84712754Y-95913620D01*
X84633635Y-96134065D01*
X84560620Y-96337598D01*
X84494826Y-96521108D01*
X84437371Y-96681483D01*
X84389376Y-96815609D01*
X84351958Y-96920375D01*
X84326237Y-96992667D01*
X84313330Y-97029374D01*
X84312033Y-97033292D01*
X84311343Y-97044743D01*
X81744410Y-97044743D01*
X81872714Y-96931781D01*
X82205609Y-96626037D01*
X82535410Y-96310009D01*
X82846333Y-95999150D01*
X83109620Y-95724066D01*
X83337896Y-95472327D01*
X83531327Y-95243729D01*
X83690080Y-95038067D01*
X83814319Y-94855135D01*
X83904212Y-94694728D01*
X83906948Y-94689083D01*
X83956419Y-94553146D01*
X83966734Y-94432659D01*
X83938253Y-94327889D01*
X83871336Y-94239105D01*
X83766344Y-94166574D01*
X83623638Y-94110562D01*
X83443576Y-94071336D01*
X83226521Y-94049165D01*
X83036833Y-94043885D01*
X82635608Y-94057155D01*
X82221794Y-94096670D01*
X81803170Y-94160645D01*
X81387514Y-94247296D01*
X80982606Y-94354839D01*
X80596223Y-94481489D01*
X80236146Y-94625462D01*
X79989676Y-94742887D01*
X79907077Y-94784268D01*
X79839343Y-94816034D01*
X79794575Y-94834520D01*
X79780797Y-94837352D01*
X79784861Y-94814001D01*
X79808345Y-94763228D01*
X79846826Y-94692590D01*
X79895877Y-94609643D01*
X79951073Y-94521944D01*
X80007990Y-94437048D01*
X80047355Y-94382167D01*
X80247047Y-94142906D01*
X80486363Y-93907466D01*
X80762688Y-93676846D01*
X81073406Y-93452045D01*
X81415902Y-93234065D01*
X81787561Y-93023905D01*
X82185766Y-92822564D01*
X82607904Y-92631042D01*
X83051359Y-92450339D01*
X83513514Y-92281456D01*
X83991755Y-92125391D01*
X84483467Y-91983146D01*
X84986035Y-91855718D01*
X85496842Y-91744110D01*
X86013273Y-91649319D01*
X86532714Y-91572346D01*
X87052549Y-91514192D01*
X87570162Y-91475855D01*
X87661750Y-91471191D01*
X87773591Y-91468347D01*
X87919200Y-91468344D01*
X88090127Y-91470883D01*
D11*
X140890000Y-71980000D02*
X140890000Y-65930000D01*
X140890000Y-65930000D02*
X148690000Y-65930000D01*
X148690000Y-65930000D02*
X148690000Y-71980000D01*
X148690000Y-71980000D02*
X140890000Y-71980000D01*
X142240000Y-71880000D02*
X142240000Y-70870000D01*
X142240000Y-70870000D02*
X147320000Y-70870000D01*
X147320000Y-70870000D02*
X147320000Y-71880000D01*
X157480000Y-70870000D02*
X157480000Y-71880000D01*
X152400000Y-70870000D02*
X157480000Y-70870000D01*
X152400000Y-71880000D02*
X152400000Y-70870000D01*
X158850000Y-71980000D02*
X151050000Y-71980000D01*
X158850000Y-65930000D02*
X158850000Y-71980000D01*
X151050000Y-65930000D02*
X158850000Y-65930000D01*
X151050000Y-71980000D02*
X151050000Y-65930000D01*
X161210000Y-71980000D02*
X161210000Y-65930000D01*
X161210000Y-65930000D02*
X169010000Y-65930000D01*
X169010000Y-65930000D02*
X169010000Y-71980000D01*
X169010000Y-71980000D02*
X161210000Y-71980000D01*
X162560000Y-71880000D02*
X162560000Y-70870000D01*
X162560000Y-70870000D02*
X167640000Y-70870000D01*
X167640000Y-70870000D02*
X167640000Y-71880000D01*
X147320000Y-79760000D02*
X147320000Y-80770000D01*
X142240000Y-79760000D02*
X147320000Y-79760000D01*
X142240000Y-80770000D02*
X142240000Y-79760000D01*
X148690000Y-80870000D02*
X140890000Y-80870000D01*
X148690000Y-74820000D02*
X148690000Y-80870000D01*
X140890000Y-74820000D02*
X148690000Y-74820000D01*
X140890000Y-80870000D02*
X140890000Y-74820000D01*
X151050000Y-80870000D02*
X151050000Y-74820000D01*
X151050000Y-74820000D02*
X158850000Y-74820000D01*
X158850000Y-74820000D02*
X158850000Y-80870000D01*
X158850000Y-80870000D02*
X151050000Y-80870000D01*
X152400000Y-80770000D02*
X152400000Y-79760000D01*
X152400000Y-79760000D02*
X157480000Y-79760000D01*
X157480000Y-79760000D02*
X157480000Y-80770000D01*
X167640000Y-79760000D02*
X167640000Y-80770000D01*
X162560000Y-79760000D02*
X167640000Y-79760000D01*
X162560000Y-80770000D02*
X162560000Y-79760000D01*
X169010000Y-80870000D02*
X161210000Y-80870000D01*
X169010000Y-74820000D02*
X169010000Y-80870000D01*
X161210000Y-74820000D02*
X169010000Y-74820000D01*
X161210000Y-80870000D02*
X161210000Y-74820000D01*
X140890000Y-89760000D02*
X140890000Y-83710000D01*
X140890000Y-83710000D02*
X148690000Y-83710000D01*
X148690000Y-83710000D02*
X148690000Y-89760000D01*
X148690000Y-89760000D02*
X140890000Y-89760000D01*
X142240000Y-89660000D02*
X142240000Y-88650000D01*
X142240000Y-88650000D02*
X147320000Y-88650000D01*
X147320000Y-88650000D02*
X147320000Y-89660000D01*
X151050000Y-89760000D02*
X151050000Y-83710000D01*
X151050000Y-83710000D02*
X158850000Y-83710000D01*
X158850000Y-83710000D02*
X158850000Y-89760000D01*
X158850000Y-89760000D02*
X151050000Y-89760000D01*
X152400000Y-89660000D02*
X152400000Y-88650000D01*
X152400000Y-88650000D02*
X157480000Y-88650000D01*
X157480000Y-88650000D02*
X157480000Y-89660000D01*
X167640000Y-88650000D02*
X167640000Y-89660000D01*
X162560000Y-88650000D02*
X167640000Y-88650000D01*
X162560000Y-89660000D02*
X162560000Y-88650000D01*
X169010000Y-89760000D02*
X161210000Y-89760000D01*
X169010000Y-83710000D02*
X169010000Y-89760000D01*
X161210000Y-83710000D02*
X169010000Y-83710000D01*
X161210000Y-89760000D02*
X161210000Y-83710000D01*
X140890000Y-98650000D02*
X140890000Y-92600000D01*
X140890000Y-92600000D02*
X148690000Y-92600000D01*
X148690000Y-92600000D02*
X148690000Y-98650000D01*
X148690000Y-98650000D02*
X140890000Y-98650000D01*
X142240000Y-98550000D02*
X142240000Y-97540000D01*
X142240000Y-97540000D02*
X147320000Y-97540000D01*
X147320000Y-97540000D02*
X147320000Y-98550000D01*
X157480000Y-97540000D02*
X157480000Y-98550000D01*
X152400000Y-97540000D02*
X157480000Y-97540000D01*
X152400000Y-98550000D02*
X152400000Y-97540000D01*
X158850000Y-98650000D02*
X151050000Y-98650000D01*
X158850000Y-92600000D02*
X158850000Y-98650000D01*
X151050000Y-92600000D02*
X158850000Y-92600000D01*
X151050000Y-98650000D02*
X151050000Y-92600000D01*
X161210000Y-98650000D02*
X161210000Y-92600000D01*
X161210000Y-92600000D02*
X169010000Y-92600000D01*
X169010000Y-92600000D02*
X169010000Y-98650000D01*
X169010000Y-98650000D02*
X161210000Y-98650000D01*
X162560000Y-98550000D02*
X162560000Y-97540000D01*
X162560000Y-97540000D02*
X167640000Y-97540000D01*
X167640000Y-97540000D02*
X167640000Y-98550000D01*
X147320000Y-106430000D02*
X147320000Y-107440000D01*
X142240000Y-106430000D02*
X147320000Y-106430000D01*
X142240000Y-107440000D02*
X142240000Y-106430000D01*
X148690000Y-107540000D02*
X140890000Y-107540000D01*
X148690000Y-101490000D02*
X148690000Y-107540000D01*
X140890000Y-101490000D02*
X148690000Y-101490000D01*
X140890000Y-107540000D02*
X140890000Y-101490000D01*
X151050000Y-107540000D02*
X151050000Y-101490000D01*
X151050000Y-101490000D02*
X158850000Y-101490000D01*
X158850000Y-101490000D02*
X158850000Y-107540000D01*
X158850000Y-107540000D02*
X151050000Y-107540000D01*
X152400000Y-107440000D02*
X152400000Y-106430000D01*
X152400000Y-106430000D02*
X157480000Y-106430000D01*
X157480000Y-106430000D02*
X157480000Y-107440000D01*
X167640000Y-106430000D02*
X167640000Y-107440000D01*
X162560000Y-106430000D02*
X167640000Y-106430000D01*
X162560000Y-107440000D02*
X162560000Y-106430000D01*
X169010000Y-107540000D02*
X161210000Y-107540000D01*
X169010000Y-101490000D02*
X169010000Y-107540000D01*
X161210000Y-101490000D02*
X169010000Y-101490000D01*
X161210000Y-107540000D02*
X161210000Y-101490000D01*
X97135001Y-106740000D02*
X97135001Y-101540000D01*
X74215001Y-106740000D02*
X97135001Y-106740000D01*
X71615001Y-101540000D02*
X97135001Y-101540000D01*
X74215001Y-106740000D02*
X74215001Y-104140000D01*
X74215001Y-104140000D02*
X71615001Y-104140000D01*
X71615001Y-104140000D02*
X71615001Y-101540000D01*
X72945001Y-106740000D02*
X71615001Y-106740000D01*
X71615001Y-106740000D02*
X71615001Y-105410000D01*
X71615001Y-89595000D02*
X71615001Y-88265000D01*
X72945001Y-89595000D02*
X71615001Y-89595000D01*
X71615001Y-86995000D02*
X71615001Y-84395000D01*
X74215001Y-86995000D02*
X71615001Y-86995000D01*
X74215001Y-89595000D02*
X74215001Y-86995000D01*
X71615001Y-84395000D02*
X97135001Y-84395000D01*
X74215001Y-89595000D02*
X97135001Y-89595000D01*
X97135001Y-89595000D02*
X97135001Y-84395000D01*
X97135001Y-72450000D02*
X97135001Y-67250000D01*
X74215001Y-72450000D02*
X97135001Y-72450000D01*
X71615001Y-67250000D02*
X97135001Y-67250000D01*
X74215001Y-72450000D02*
X74215001Y-69850000D01*
X74215001Y-69850000D02*
X71615001Y-69850000D01*
X71615001Y-69850000D02*
X71615001Y-67250000D01*
X72945001Y-72450000D02*
X71615001Y-72450000D01*
X71615001Y-72450000D02*
X71615001Y-71120000D01*
D10*
X64222333Y-66016142D02*
X64174714Y-66063761D01*
X64031857Y-66111380D01*
X63936619Y-66111380D01*
X63793761Y-66063761D01*
X63698523Y-65968523D01*
X63650904Y-65873285D01*
X63603285Y-65682809D01*
X63603285Y-65539952D01*
X63650904Y-65349476D01*
X63698523Y-65254238D01*
X63793761Y-65159000D01*
X63936619Y-65111380D01*
X64031857Y-65111380D01*
X64174714Y-65159000D01*
X64222333Y-65206619D01*
X65174714Y-66111380D02*
X64603285Y-66111380D01*
X64889000Y-66111380D02*
X64889000Y-65111380D01*
X64793761Y-65254238D01*
X64698523Y-65349476D01*
X64603285Y-65397095D01*
X66762333Y-74271142D02*
X66714714Y-74318761D01*
X66571857Y-74366380D01*
X66476619Y-74366380D01*
X66333761Y-74318761D01*
X66238523Y-74223523D01*
X66190904Y-74128285D01*
X66143285Y-73937809D01*
X66143285Y-73794952D01*
X66190904Y-73604476D01*
X66238523Y-73509238D01*
X66333761Y-73414000D01*
X66476619Y-73366380D01*
X66571857Y-73366380D01*
X66714714Y-73414000D01*
X66762333Y-73461619D01*
X67143285Y-73461619D02*
X67190904Y-73414000D01*
X67286142Y-73366380D01*
X67524238Y-73366380D01*
X67619476Y-73414000D01*
X67667095Y-73461619D01*
X67714714Y-73556857D01*
X67714714Y-73652095D01*
X67667095Y-73794952D01*
X67095666Y-74366380D01*
X67714714Y-74366380D01*
X71671619Y-104489238D02*
X71624000Y-104584476D01*
X71528761Y-104679714D01*
X71385904Y-104822571D01*
X71338285Y-104917809D01*
X71338285Y-105013047D01*
X71576380Y-104965428D02*
X71528761Y-105060666D01*
X71433523Y-105155904D01*
X71243047Y-105203523D01*
X70909714Y-105203523D01*
X70719238Y-105155904D01*
X70624000Y-105060666D01*
X70576380Y-104965428D01*
X70576380Y-104774952D01*
X70624000Y-104679714D01*
X70719238Y-104584476D01*
X70909714Y-104536857D01*
X71243047Y-104536857D01*
X71433523Y-104584476D01*
X71528761Y-104679714D01*
X71576380Y-104774952D01*
X71576380Y-104965428D01*
X71576380Y-103584476D02*
X71576380Y-104155904D01*
X71576380Y-103870190D02*
X70576380Y-103870190D01*
X70719238Y-103965428D01*
X70814476Y-104060666D01*
X70862095Y-104155904D01*
D14*
X112606666Y-112797166D02*
X112606666Y-113516833D01*
X112649000Y-113601500D01*
X112691333Y-113643833D01*
X112776000Y-113686166D01*
X112945333Y-113686166D01*
X113030000Y-113643833D01*
X113072333Y-113601500D01*
X113114666Y-113516833D01*
X113114666Y-112797166D01*
X113495666Y-112881833D02*
X113538000Y-112839500D01*
X113622666Y-112797166D01*
X113834333Y-112797166D01*
X113919000Y-112839500D01*
X113961333Y-112881833D01*
X114003666Y-112966500D01*
X114003666Y-113051166D01*
X113961333Y-113178166D01*
X113453333Y-113686166D01*
X114003666Y-113686166D01*
D12*
D10*
X68711380Y-86153523D02*
X69425666Y-86153523D01*
X69568523Y-86201142D01*
X69663761Y-86296380D01*
X69711380Y-86439238D01*
X69711380Y-86534476D01*
X68806619Y-85724952D02*
X68759000Y-85677333D01*
X68711380Y-85582095D01*
X68711380Y-85344000D01*
X68759000Y-85248761D01*
X68806619Y-85201142D01*
X68901857Y-85153523D01*
X68997095Y-85153523D01*
X69139952Y-85201142D01*
X69711380Y-85772571D01*
X69711380Y-85153523D01*
X69711380Y-84201142D02*
X69711380Y-84772571D01*
X69711380Y-84486857D02*
X68711380Y-84486857D01*
X68854238Y-84582095D01*
X68949476Y-84677333D01*
X68997095Y-84772571D01*
X68711380Y-95043523D02*
X69425666Y-95043523D01*
X69568523Y-95091142D01*
X69663761Y-95186380D01*
X69711380Y-95329238D01*
X69711380Y-95424476D01*
X68806619Y-94614952D02*
X68759000Y-94567333D01*
X68711380Y-94472095D01*
X68711380Y-94234000D01*
X68759000Y-94138761D01*
X68806619Y-94091142D01*
X68901857Y-94043523D01*
X68997095Y-94043523D01*
X69139952Y-94091142D01*
X69711380Y-94662571D01*
X69711380Y-94043523D01*
X68711380Y-93424476D02*
X68711380Y-93329238D01*
X68759000Y-93234000D01*
X68806619Y-93186380D01*
X68901857Y-93138761D01*
X69092333Y-93091142D01*
X69330428Y-93091142D01*
X69520904Y-93138761D01*
X69616142Y-93186380D01*
X69663761Y-93234000D01*
X69711380Y-93329238D01*
X69711380Y-93424476D01*
X69663761Y-93519714D01*
X69616142Y-93567333D01*
X69520904Y-93614952D01*
X69330428Y-93662571D01*
X69092333Y-93662571D01*
X68901857Y-93614952D01*
X68806619Y-93567333D01*
X68759000Y-93519714D01*
X68711380Y-93424476D01*
X56848476Y-72140380D02*
X56848476Y-72854666D01*
X56800857Y-72997523D01*
X56705619Y-73092761D01*
X56562761Y-73140380D01*
X56467523Y-73140380D01*
X57848476Y-73140380D02*
X57277047Y-73140380D01*
X57562761Y-73140380D02*
X57562761Y-72140380D01*
X57467523Y-72283238D01*
X57372285Y-72378476D01*
X57277047Y-72426095D01*
X58324666Y-73140380D02*
X58515142Y-73140380D01*
X58610380Y-73092761D01*
X58658000Y-73045142D01*
X58753238Y-72902285D01*
X58800857Y-72711809D01*
X58800857Y-72330857D01*
X58753238Y-72235619D01*
X58705619Y-72188000D01*
X58610380Y-72140380D01*
X58419904Y-72140380D01*
X58324666Y-72188000D01*
X58277047Y-72235619D01*
X58229428Y-72330857D01*
X58229428Y-72568952D01*
X58277047Y-72664190D01*
X58324666Y-72711809D01*
X58419904Y-72759428D01*
X58610380Y-72759428D01*
X58705619Y-72711809D01*
X58753238Y-72664190D01*
X58800857Y-72568952D01*
X68711380Y-77898523D02*
X69425666Y-77898523D01*
X69568523Y-77946142D01*
X69663761Y-78041380D01*
X69711380Y-78184238D01*
X69711380Y-78279476D01*
X68806619Y-77469952D02*
X68759000Y-77422333D01*
X68711380Y-77327095D01*
X68711380Y-77089000D01*
X68759000Y-76993761D01*
X68806619Y-76946142D01*
X68901857Y-76898523D01*
X68997095Y-76898523D01*
X69139952Y-76946142D01*
X69711380Y-77517571D01*
X69711380Y-76898523D01*
X68806619Y-76517571D02*
X68759000Y-76469952D01*
X68711380Y-76374714D01*
X68711380Y-76136619D01*
X68759000Y-76041380D01*
X68806619Y-75993761D01*
X68901857Y-75946142D01*
X68997095Y-75946142D01*
X69139952Y-75993761D01*
X69711380Y-76565190D01*
X69711380Y-75946142D01*
X67437095Y-64730380D02*
X67437095Y-65539904D01*
X67484714Y-65635142D01*
X67532333Y-65682761D01*
X67627571Y-65730380D01*
X67818047Y-65730380D01*
X67913285Y-65682761D01*
X67960904Y-65635142D01*
X68008523Y-65539904D01*
X68008523Y-64730380D01*
X68913285Y-65063714D02*
X68913285Y-65730380D01*
X68675190Y-64682761D02*
X68437095Y-65397047D01*
X69056142Y-65397047D01*
X64036380Y-104560666D02*
X63560190Y-104894000D01*
X64036380Y-105132095D02*
X63036380Y-105132095D01*
X63036380Y-104751142D01*
X63084000Y-104655904D01*
X63131619Y-104608285D01*
X63226857Y-104560666D01*
X63369714Y-104560666D01*
X63464952Y-104608285D01*
X63512571Y-104655904D01*
X63560190Y-104751142D01*
X63560190Y-105132095D01*
X63464952Y-103989238D02*
X63417333Y-104084476D01*
X63369714Y-104132095D01*
X63274476Y-104179714D01*
X63226857Y-104179714D01*
X63131619Y-104132095D01*
X63084000Y-104084476D01*
X63036380Y-103989238D01*
X63036380Y-103798761D01*
X63084000Y-103703523D01*
X63131619Y-103655904D01*
X63226857Y-103608285D01*
X63274476Y-103608285D01*
X63369714Y-103655904D01*
X63417333Y-103703523D01*
X63464952Y-103798761D01*
X63464952Y-103989238D01*
X63512571Y-104084476D01*
X63560190Y-104132095D01*
X63655428Y-104179714D01*
X63845904Y-104179714D01*
X63941142Y-104132095D01*
X63988761Y-104084476D01*
X64036380Y-103989238D01*
X64036380Y-103798761D01*
X63988761Y-103703523D01*
X63941142Y-103655904D01*
X63845904Y-103608285D01*
X63655428Y-103608285D01*
X63560190Y-103655904D01*
X63512571Y-103703523D01*
X63464952Y-103798761D01*
X61836380Y-104560666D02*
X61360190Y-104894000D01*
X61836380Y-105132095D02*
X60836380Y-105132095D01*
X60836380Y-104751142D01*
X60884000Y-104655904D01*
X60931619Y-104608285D01*
X61026857Y-104560666D01*
X61169714Y-104560666D01*
X61264952Y-104608285D01*
X61312571Y-104655904D01*
X61360190Y-104751142D01*
X61360190Y-105132095D01*
X60836380Y-104227333D02*
X60836380Y-103560666D01*
X61836380Y-103989238D01*
X110577333Y-112720380D02*
X110244000Y-112244190D01*
X110005904Y-112720380D02*
X110005904Y-111720380D01*
X110386857Y-111720380D01*
X110482095Y-111768000D01*
X110529714Y-111815619D01*
X110577333Y-111910857D01*
X110577333Y-112053714D01*
X110529714Y-112148952D01*
X110482095Y-112196571D01*
X110386857Y-112244190D01*
X110005904Y-112244190D01*
X111434476Y-111720380D02*
X111244000Y-111720380D01*
X111148761Y-111768000D01*
X111101142Y-111815619D01*
X111005904Y-111958476D01*
X110958285Y-112148952D01*
X110958285Y-112529904D01*
X111005904Y-112625142D01*
X111053523Y-112672761D01*
X111148761Y-112720380D01*
X111339238Y-112720380D01*
X111434476Y-112672761D01*
X111482095Y-112625142D01*
X111529714Y-112529904D01*
X111529714Y-112291809D01*
X111482095Y-112196571D01*
X111434476Y-112148952D01*
X111339238Y-112101333D01*
X111148761Y-112101333D01*
X111053523Y-112148952D01*
X111005904Y-112196571D01*
X110958285Y-112291809D01*
X110450333Y-76271380D02*
X110117000Y-75795190D01*
X109878904Y-76271380D02*
X109878904Y-75271380D01*
X110259857Y-75271380D01*
X110355095Y-75319000D01*
X110402714Y-75366619D01*
X110450333Y-75461857D01*
X110450333Y-75604714D01*
X110402714Y-75699952D01*
X110355095Y-75747571D01*
X110259857Y-75795190D01*
X109878904Y-75795190D01*
X111355095Y-75271380D02*
X110878904Y-75271380D01*
X110831285Y-75747571D01*
X110878904Y-75699952D01*
X110974142Y-75652333D01*
X111212238Y-75652333D01*
X111307476Y-75699952D01*
X111355095Y-75747571D01*
X111402714Y-75842809D01*
X111402714Y-76080904D01*
X111355095Y-76176142D01*
X111307476Y-76223761D01*
X111212238Y-76271380D01*
X110974142Y-76271380D01*
X110878904Y-76223761D01*
X110831285Y-76176142D01*
X113371333Y-111704380D02*
X113038000Y-111228190D01*
X112799904Y-111704380D02*
X112799904Y-110704380D01*
X113180857Y-110704380D01*
X113276095Y-110752000D01*
X113323714Y-110799619D01*
X113371333Y-110894857D01*
X113371333Y-111037714D01*
X113323714Y-111132952D01*
X113276095Y-111180571D01*
X113180857Y-111228190D01*
X112799904Y-111228190D01*
X114228476Y-111037714D02*
X114228476Y-111704380D01*
X113990380Y-110656761D02*
X113752285Y-111371047D01*
X114371333Y-111371047D01*
X106894333Y-76271380D02*
X106561000Y-75795190D01*
X106322904Y-76271380D02*
X106322904Y-75271380D01*
X106703857Y-75271380D01*
X106799095Y-75319000D01*
X106846714Y-75366619D01*
X106894333Y-75461857D01*
X106894333Y-75604714D01*
X106846714Y-75699952D01*
X106799095Y-75747571D01*
X106703857Y-75795190D01*
X106322904Y-75795190D01*
X107227666Y-75271380D02*
X107846714Y-75271380D01*
X107513380Y-75652333D01*
X107656238Y-75652333D01*
X107751476Y-75699952D01*
X107799095Y-75747571D01*
X107846714Y-75842809D01*
X107846714Y-76080904D01*
X107799095Y-76176142D01*
X107751476Y-76223761D01*
X107656238Y-76271380D01*
X107370523Y-76271380D01*
X107275285Y-76223761D01*
X107227666Y-76176142D01*
X110577333Y-91130380D02*
X110244000Y-90654190D01*
X110005904Y-91130380D02*
X110005904Y-90130380D01*
X110386857Y-90130380D01*
X110482095Y-90178000D01*
X110529714Y-90225619D01*
X110577333Y-90320857D01*
X110577333Y-90463714D01*
X110529714Y-90558952D01*
X110482095Y-90606571D01*
X110386857Y-90654190D01*
X110005904Y-90654190D01*
X110958285Y-90225619D02*
X111005904Y-90178000D01*
X111101142Y-90130380D01*
X111339238Y-90130380D01*
X111434476Y-90178000D01*
X111482095Y-90225619D01*
X111529714Y-90320857D01*
X111529714Y-90416095D01*
X111482095Y-90558952D01*
X110910666Y-91130380D01*
X111529714Y-91130380D01*
X113752333Y-86939380D02*
X113419000Y-86463190D01*
X113180904Y-86939380D02*
X113180904Y-85939380D01*
X113561857Y-85939380D01*
X113657095Y-85987000D01*
X113704714Y-86034619D01*
X113752333Y-86129857D01*
X113752333Y-86272714D01*
X113704714Y-86367952D01*
X113657095Y-86415571D01*
X113561857Y-86463190D01*
X113180904Y-86463190D01*
X114704714Y-86939380D02*
X114133285Y-86939380D01*
X114419000Y-86939380D02*
X114419000Y-85939380D01*
X114323761Y-86082238D01*
X114228523Y-86177476D01*
X114133285Y-86225095D01*
X131318095Y-59352380D02*
X131318095Y-60161904D01*
X131365714Y-60257142D01*
X131413333Y-60304761D01*
X131508571Y-60352380D01*
X131699047Y-60352380D01*
X131794285Y-60304761D01*
X131841904Y-60257142D01*
X131889523Y-60161904D01*
X131889523Y-59352380D01*
X132270476Y-59352380D02*
X132889523Y-59352380D01*
X132556190Y-59733333D01*
X132699047Y-59733333D01*
X132794285Y-59780952D01*
X132841904Y-59828571D01*
X132889523Y-59923809D01*
X132889523Y-60161904D01*
X132841904Y-60257142D01*
X132794285Y-60304761D01*
X132699047Y-60352380D01*
X132413333Y-60352380D01*
X132318095Y-60304761D01*
X132270476Y-60257142D01*
X131318095Y-86022380D02*
X131318095Y-86831904D01*
X131365714Y-86927142D01*
X131413333Y-86974761D01*
X131508571Y-87022380D01*
X131699047Y-87022380D01*
X131794285Y-86974761D01*
X131841904Y-86927142D01*
X131889523Y-86831904D01*
X131889523Y-86022380D01*
X132889523Y-87022380D02*
X132318095Y-87022380D01*
X132603809Y-87022380D02*
X132603809Y-86022380D01*
X132508571Y-86165238D01*
X132413333Y-86260476D01*
X132318095Y-86308095D01*
X144406666Y-64632380D02*
X144406666Y-65346666D01*
X144359047Y-65489523D01*
X144263809Y-65584761D01*
X144120952Y-65632380D01*
X144025714Y-65632380D01*
X145406666Y-65632380D02*
X144835238Y-65632380D01*
X145120952Y-65632380D02*
X145120952Y-64632380D01*
X145025714Y-64775238D01*
X144930476Y-64870476D01*
X144835238Y-64918095D01*
X154566666Y-64632380D02*
X154566666Y-65346666D01*
X154519047Y-65489523D01*
X154423809Y-65584761D01*
X154280952Y-65632380D01*
X154185714Y-65632380D01*
X154995238Y-64727619D02*
X155042857Y-64680000D01*
X155138095Y-64632380D01*
X155376190Y-64632380D01*
X155471428Y-64680000D01*
X155519047Y-64727619D01*
X155566666Y-64822857D01*
X155566666Y-64918095D01*
X155519047Y-65060952D01*
X154947619Y-65632380D01*
X155566666Y-65632380D01*
X164726666Y-64632380D02*
X164726666Y-65346666D01*
X164679047Y-65489523D01*
X164583809Y-65584761D01*
X164440952Y-65632380D01*
X164345714Y-65632380D01*
X165107619Y-64632380D02*
X165726666Y-64632380D01*
X165393333Y-65013333D01*
X165536190Y-65013333D01*
X165631428Y-65060952D01*
X165679047Y-65108571D01*
X165726666Y-65203809D01*
X165726666Y-65441904D01*
X165679047Y-65537142D01*
X165631428Y-65584761D01*
X165536190Y-65632380D01*
X165250476Y-65632380D01*
X165155238Y-65584761D01*
X165107619Y-65537142D01*
X144406666Y-73522380D02*
X144406666Y-74236666D01*
X144359047Y-74379523D01*
X144263809Y-74474761D01*
X144120952Y-74522380D01*
X144025714Y-74522380D01*
X145311428Y-73855714D02*
X145311428Y-74522380D01*
X145073333Y-73474761D02*
X144835238Y-74189047D01*
X145454285Y-74189047D01*
X154566666Y-73522380D02*
X154566666Y-74236666D01*
X154519047Y-74379523D01*
X154423809Y-74474761D01*
X154280952Y-74522380D01*
X154185714Y-74522380D01*
X155519047Y-73522380D02*
X155042857Y-73522380D01*
X154995238Y-73998571D01*
X155042857Y-73950952D01*
X155138095Y-73903333D01*
X155376190Y-73903333D01*
X155471428Y-73950952D01*
X155519047Y-73998571D01*
X155566666Y-74093809D01*
X155566666Y-74331904D01*
X155519047Y-74427142D01*
X155471428Y-74474761D01*
X155376190Y-74522380D01*
X155138095Y-74522380D01*
X155042857Y-74474761D01*
X154995238Y-74427142D01*
X164726666Y-73522380D02*
X164726666Y-74236666D01*
X164679047Y-74379523D01*
X164583809Y-74474761D01*
X164440952Y-74522380D01*
X164345714Y-74522380D01*
X165631428Y-73522380D02*
X165440952Y-73522380D01*
X165345714Y-73570000D01*
X165298095Y-73617619D01*
X165202857Y-73760476D01*
X165155238Y-73950952D01*
X165155238Y-74331904D01*
X165202857Y-74427142D01*
X165250476Y-74474761D01*
X165345714Y-74522380D01*
X165536190Y-74522380D01*
X165631428Y-74474761D01*
X165679047Y-74427142D01*
X165726666Y-74331904D01*
X165726666Y-74093809D01*
X165679047Y-73998571D01*
X165631428Y-73950952D01*
X165536190Y-73903333D01*
X165345714Y-73903333D01*
X165250476Y-73950952D01*
X165202857Y-73998571D01*
X165155238Y-74093809D01*
X144406666Y-82412380D02*
X144406666Y-83126666D01*
X144359047Y-83269523D01*
X144263809Y-83364761D01*
X144120952Y-83412380D01*
X144025714Y-83412380D01*
X144787619Y-82412380D02*
X145454285Y-82412380D01*
X145025714Y-83412380D01*
X154566666Y-82412380D02*
X154566666Y-83126666D01*
X154519047Y-83269523D01*
X154423809Y-83364761D01*
X154280952Y-83412380D01*
X154185714Y-83412380D01*
X155185714Y-82840952D02*
X155090476Y-82793333D01*
X155042857Y-82745714D01*
X154995238Y-82650476D01*
X154995238Y-82602857D01*
X155042857Y-82507619D01*
X155090476Y-82460000D01*
X155185714Y-82412380D01*
X155376190Y-82412380D01*
X155471428Y-82460000D01*
X155519047Y-82507619D01*
X155566666Y-82602857D01*
X155566666Y-82650476D01*
X155519047Y-82745714D01*
X155471428Y-82793333D01*
X155376190Y-82840952D01*
X155185714Y-82840952D01*
X155090476Y-82888571D01*
X155042857Y-82936190D01*
X154995238Y-83031428D01*
X154995238Y-83221904D01*
X155042857Y-83317142D01*
X155090476Y-83364761D01*
X155185714Y-83412380D01*
X155376190Y-83412380D01*
X155471428Y-83364761D01*
X155519047Y-83317142D01*
X155566666Y-83221904D01*
X155566666Y-83031428D01*
X155519047Y-82936190D01*
X155471428Y-82888571D01*
X155376190Y-82840952D01*
X164726666Y-82412380D02*
X164726666Y-83126666D01*
X164679047Y-83269523D01*
X164583809Y-83364761D01*
X164440952Y-83412380D01*
X164345714Y-83412380D01*
X165250476Y-83412380D02*
X165440952Y-83412380D01*
X165536190Y-83364761D01*
X165583809Y-83317142D01*
X165679047Y-83174285D01*
X165726666Y-82983809D01*
X165726666Y-82602857D01*
X165679047Y-82507619D01*
X165631428Y-82460000D01*
X165536190Y-82412380D01*
X165345714Y-82412380D01*
X165250476Y-82460000D01*
X165202857Y-82507619D01*
X165155238Y-82602857D01*
X165155238Y-82840952D01*
X165202857Y-82936190D01*
X165250476Y-82983809D01*
X165345714Y-83031428D01*
X165536190Y-83031428D01*
X165631428Y-82983809D01*
X165679047Y-82936190D01*
X165726666Y-82840952D01*
X143930476Y-91302380D02*
X143930476Y-92016666D01*
X143882857Y-92159523D01*
X143787619Y-92254761D01*
X143644761Y-92302380D01*
X143549523Y-92302380D01*
X144930476Y-92302380D02*
X144359047Y-92302380D01*
X144644761Y-92302380D02*
X144644761Y-91302380D01*
X144549523Y-91445238D01*
X144454285Y-91540476D01*
X144359047Y-91588095D01*
X145549523Y-91302380D02*
X145644761Y-91302380D01*
X145740000Y-91350000D01*
X145787619Y-91397619D01*
X145835238Y-91492857D01*
X145882857Y-91683333D01*
X145882857Y-91921428D01*
X145835238Y-92111904D01*
X145787619Y-92207142D01*
X145740000Y-92254761D01*
X145644761Y-92302380D01*
X145549523Y-92302380D01*
X145454285Y-92254761D01*
X145406666Y-92207142D01*
X145359047Y-92111904D01*
X145311428Y-91921428D01*
X145311428Y-91683333D01*
X145359047Y-91492857D01*
X145406666Y-91397619D01*
X145454285Y-91350000D01*
X145549523Y-91302380D01*
X154090476Y-91302380D02*
X154090476Y-92016666D01*
X154042857Y-92159523D01*
X153947619Y-92254761D01*
X153804761Y-92302380D01*
X153709523Y-92302380D01*
X155090476Y-92302380D02*
X154519047Y-92302380D01*
X154804761Y-92302380D02*
X154804761Y-91302380D01*
X154709523Y-91445238D01*
X154614285Y-91540476D01*
X154519047Y-91588095D01*
X156042857Y-92302380D02*
X155471428Y-92302380D01*
X155757142Y-92302380D02*
X155757142Y-91302380D01*
X155661904Y-91445238D01*
X155566666Y-91540476D01*
X155471428Y-91588095D01*
X164250476Y-91302380D02*
X164250476Y-92016666D01*
X164202857Y-92159523D01*
X164107619Y-92254761D01*
X163964761Y-92302380D01*
X163869523Y-92302380D01*
X165250476Y-92302380D02*
X164679047Y-92302380D01*
X164964761Y-92302380D02*
X164964761Y-91302380D01*
X164869523Y-91445238D01*
X164774285Y-91540476D01*
X164679047Y-91588095D01*
X165631428Y-91397619D02*
X165679047Y-91350000D01*
X165774285Y-91302380D01*
X166012380Y-91302380D01*
X166107619Y-91350000D01*
X166155238Y-91397619D01*
X166202857Y-91492857D01*
X166202857Y-91588095D01*
X166155238Y-91730952D01*
X165583809Y-92302380D01*
X166202857Y-92302380D01*
X143930476Y-100192380D02*
X143930476Y-100906666D01*
X143882857Y-101049523D01*
X143787619Y-101144761D01*
X143644761Y-101192380D01*
X143549523Y-101192380D01*
X144930476Y-101192380D02*
X144359047Y-101192380D01*
X144644761Y-101192380D02*
X144644761Y-100192380D01*
X144549523Y-100335238D01*
X144454285Y-100430476D01*
X144359047Y-100478095D01*
X145263809Y-100192380D02*
X145882857Y-100192380D01*
X145549523Y-100573333D01*
X145692380Y-100573333D01*
X145787619Y-100620952D01*
X145835238Y-100668571D01*
X145882857Y-100763809D01*
X145882857Y-101001904D01*
X145835238Y-101097142D01*
X145787619Y-101144761D01*
X145692380Y-101192380D01*
X145406666Y-101192380D01*
X145311428Y-101144761D01*
X145263809Y-101097142D01*
X154090476Y-100192380D02*
X154090476Y-100906666D01*
X154042857Y-101049523D01*
X153947619Y-101144761D01*
X153804761Y-101192380D01*
X153709523Y-101192380D01*
X155090476Y-101192380D02*
X154519047Y-101192380D01*
X154804761Y-101192380D02*
X154804761Y-100192380D01*
X154709523Y-100335238D01*
X154614285Y-100430476D01*
X154519047Y-100478095D01*
X155947619Y-100525714D02*
X155947619Y-101192380D01*
X155709523Y-100144761D02*
X155471428Y-100859047D01*
X156090476Y-100859047D01*
X164250476Y-100192380D02*
X164250476Y-100906666D01*
X164202857Y-101049523D01*
X164107619Y-101144761D01*
X163964761Y-101192380D01*
X163869523Y-101192380D01*
X165250476Y-101192380D02*
X164679047Y-101192380D01*
X164964761Y-101192380D02*
X164964761Y-100192380D01*
X164869523Y-100335238D01*
X164774285Y-100430476D01*
X164679047Y-100478095D01*
X166155238Y-100192380D02*
X165679047Y-100192380D01*
X165631428Y-100668571D01*
X165679047Y-100620952D01*
X165774285Y-100573333D01*
X166012380Y-100573333D01*
X166107619Y-100620952D01*
X166155238Y-100668571D01*
X166202857Y-100763809D01*
X166202857Y-101001904D01*
X166155238Y-101097142D01*
X166107619Y-101144761D01*
X166012380Y-101192380D01*
X165774285Y-101192380D01*
X165679047Y-101144761D01*
X165631428Y-101097142D01*
X71834476Y-107656380D02*
X71834476Y-108370666D01*
X71786857Y-108513523D01*
X71691619Y-108608761D01*
X71548761Y-108656380D01*
X71453523Y-108656380D01*
X72834476Y-108656380D02*
X72263047Y-108656380D01*
X72548761Y-108656380D02*
X72548761Y-107656380D01*
X72453523Y-107799238D01*
X72358285Y-107894476D01*
X72263047Y-107942095D01*
X73691619Y-107656380D02*
X73501142Y-107656380D01*
X73405904Y-107704000D01*
X73358285Y-107751619D01*
X73263047Y-107894476D01*
X73215428Y-108084952D01*
X73215428Y-108465904D01*
X73263047Y-108561142D01*
X73310666Y-108608761D01*
X73405904Y-108656380D01*
X73596380Y-108656380D01*
X73691619Y-108608761D01*
X73739238Y-108561142D01*
X73786857Y-108465904D01*
X73786857Y-108227809D01*
X73739238Y-108132571D01*
X73691619Y-108084952D01*
X73596380Y-108037333D01*
X73405904Y-108037333D01*
X73310666Y-108084952D01*
X73263047Y-108132571D01*
X73215428Y-108227809D01*
X71834476Y-91146380D02*
X71834476Y-91860666D01*
X71786857Y-92003523D01*
X71691619Y-92098761D01*
X71548761Y-92146380D01*
X71453523Y-92146380D01*
X72834476Y-92146380D02*
X72263047Y-92146380D01*
X72548761Y-92146380D02*
X72548761Y-91146380D01*
X72453523Y-91289238D01*
X72358285Y-91384476D01*
X72263047Y-91432095D01*
X73167809Y-91146380D02*
X73834476Y-91146380D01*
X73405904Y-92146380D01*
X71834476Y-73366380D02*
X71834476Y-74080666D01*
X71786857Y-74223523D01*
X71691619Y-74318761D01*
X71548761Y-74366380D01*
X71453523Y-74366380D01*
X72834476Y-74366380D02*
X72263047Y-74366380D01*
X72548761Y-74366380D02*
X72548761Y-73366380D01*
X72453523Y-73509238D01*
X72358285Y-73604476D01*
X72263047Y-73652095D01*
X73405904Y-73794952D02*
X73310666Y-73747333D01*
X73263047Y-73699714D01*
X73215428Y-73604476D01*
X73215428Y-73556857D01*
X73263047Y-73461619D01*
X73310666Y-73414000D01*
X73405904Y-73366380D01*
X73596380Y-73366380D01*
X73691619Y-73414000D01*
X73739238Y-73461619D01*
X73786857Y-73556857D01*
X73786857Y-73604476D01*
X73739238Y-73699714D01*
X73691619Y-73747333D01*
X73596380Y-73794952D01*
X73405904Y-73794952D01*
X73310666Y-73842571D01*
X73263047Y-73890190D01*
X73215428Y-73985428D01*
X73215428Y-74175904D01*
X73263047Y-74271142D01*
X73310666Y-74318761D01*
X73405904Y-74366380D01*
X73596380Y-74366380D01*
X73691619Y-74318761D01*
X73739238Y-74271142D01*
X73786857Y-74175904D01*
X73786857Y-73985428D01*
X73739238Y-73890190D01*
X73691619Y-73842571D01*
X73596380Y-73794952D01*
M02*
