G04 #@! TF.GenerationSoftware,KiCad,Pcbnew,5.1.6+dfsg1-1*
G04 #@! TF.CreationDate,2021-04-10T12:15:02+02:00*
G04 #@! TF.ProjectId,xFaders_keys,78466164-6572-4735-9f6b-6579732e6b69,rev?*
G04 #@! TF.SameCoordinates,Original*
G04 #@! TF.FileFunction,Paste,Bot*
G04 #@! TF.FilePolarity,Positive*
%FSLAX46Y46*%
G04 Gerber Fmt 4.6, Leading zero omitted, Abs format (unit mm)*
G04 Created by KiCad (PCBNEW 5.1.6+dfsg1-1) date 2021-04-10 12:15:02*
%MOMM*%
%LPD*%
G01*
G04 APERTURE LIST*
G04 APERTURE END LIST*
G36*
G01*
X296402000Y-174099999D02*
X297838000Y-174099999D01*
G75*
G02*
X297920000Y-174181999I0J-82000D01*
G01*
X297920000Y-174837999D01*
G75*
G02*
X297838000Y-174919999I-82000J0D01*
G01*
X296402000Y-174919999D01*
G75*
G02*
X296320000Y-174837999I0J82000D01*
G01*
X296320000Y-174181999D01*
G75*
G02*
X296402000Y-174099999I82000J0D01*
G01*
G37*
G36*
G01*
X296402000Y-175599999D02*
X297838000Y-175599999D01*
G75*
G02*
X297920000Y-175681999I0J-82000D01*
G01*
X297920000Y-176337999D01*
G75*
G02*
X297838000Y-176419999I-82000J0D01*
G01*
X296402000Y-176419999D01*
G75*
G02*
X296320000Y-176337999I0J82000D01*
G01*
X296320000Y-175681999D01*
G75*
G02*
X296402000Y-175599999I82000J0D01*
G01*
G37*
G36*
G01*
X301602000Y-174099999D02*
X303038000Y-174099999D01*
G75*
G02*
X303120000Y-174181999I0J-82000D01*
G01*
X303120000Y-174837999D01*
G75*
G02*
X303038000Y-174919999I-82000J0D01*
G01*
X301602000Y-174919999D01*
G75*
G02*
X301520000Y-174837999I0J82000D01*
G01*
X301520000Y-174181999D01*
G75*
G02*
X301602000Y-174099999I82000J0D01*
G01*
G37*
G36*
G01*
X301602000Y-175599999D02*
X303038000Y-175599999D01*
G75*
G02*
X303120000Y-175681999I0J-82000D01*
G01*
X303120000Y-176337999D01*
G75*
G02*
X303038000Y-176419999I-82000J0D01*
G01*
X301602000Y-176419999D01*
G75*
G02*
X301520000Y-176337999I0J82000D01*
G01*
X301520000Y-175681999D01*
G75*
G02*
X301602000Y-175599999I82000J0D01*
G01*
G37*
G36*
G01*
X113522000Y-174099999D02*
X114958000Y-174099999D01*
G75*
G02*
X115040000Y-174181999I0J-82000D01*
G01*
X115040000Y-174837999D01*
G75*
G02*
X114958000Y-174919999I-82000J0D01*
G01*
X113522000Y-174919999D01*
G75*
G02*
X113440000Y-174837999I0J82000D01*
G01*
X113440000Y-174181999D01*
G75*
G02*
X113522000Y-174099999I82000J0D01*
G01*
G37*
G36*
G01*
X113522000Y-175599999D02*
X114958000Y-175599999D01*
G75*
G02*
X115040000Y-175681999I0J-82000D01*
G01*
X115040000Y-176337999D01*
G75*
G02*
X114958000Y-176419999I-82000J0D01*
G01*
X113522000Y-176419999D01*
G75*
G02*
X113440000Y-176337999I0J82000D01*
G01*
X113440000Y-175681999D01*
G75*
G02*
X113522000Y-175599999I82000J0D01*
G01*
G37*
G36*
G01*
X118722000Y-174099999D02*
X120158000Y-174099999D01*
G75*
G02*
X120240000Y-174181999I0J-82000D01*
G01*
X120240000Y-174837999D01*
G75*
G02*
X120158000Y-174919999I-82000J0D01*
G01*
X118722000Y-174919999D01*
G75*
G02*
X118640000Y-174837999I0J82000D01*
G01*
X118640000Y-174181999D01*
G75*
G02*
X118722000Y-174099999I82000J0D01*
G01*
G37*
G36*
G01*
X118722000Y-175599999D02*
X120158000Y-175599999D01*
G75*
G02*
X120240000Y-175681999I0J-82000D01*
G01*
X120240000Y-176337999D01*
G75*
G02*
X120158000Y-176419999I-82000J0D01*
G01*
X118722000Y-176419999D01*
G75*
G02*
X118640000Y-176337999I0J82000D01*
G01*
X118640000Y-175681999D01*
G75*
G02*
X118722000Y-175599999I82000J0D01*
G01*
G37*
G36*
G01*
X72882000Y-174099999D02*
X74318000Y-174099999D01*
G75*
G02*
X74400000Y-174181999I0J-82000D01*
G01*
X74400000Y-174837999D01*
G75*
G02*
X74318000Y-174919999I-82000J0D01*
G01*
X72882000Y-174919999D01*
G75*
G02*
X72800000Y-174837999I0J82000D01*
G01*
X72800000Y-174181999D01*
G75*
G02*
X72882000Y-174099999I82000J0D01*
G01*
G37*
G36*
G01*
X72882000Y-175599999D02*
X74318000Y-175599999D01*
G75*
G02*
X74400000Y-175681999I0J-82000D01*
G01*
X74400000Y-176337999D01*
G75*
G02*
X74318000Y-176419999I-82000J0D01*
G01*
X72882000Y-176419999D01*
G75*
G02*
X72800000Y-176337999I0J82000D01*
G01*
X72800000Y-175681999D01*
G75*
G02*
X72882000Y-175599999I82000J0D01*
G01*
G37*
G36*
G01*
X78082000Y-174099999D02*
X79518000Y-174099999D01*
G75*
G02*
X79600000Y-174181999I0J-82000D01*
G01*
X79600000Y-174837999D01*
G75*
G02*
X79518000Y-174919999I-82000J0D01*
G01*
X78082000Y-174919999D01*
G75*
G02*
X78000000Y-174837999I0J82000D01*
G01*
X78000000Y-174181999D01*
G75*
G02*
X78082000Y-174099999I82000J0D01*
G01*
G37*
G36*
G01*
X78082000Y-175599999D02*
X79518000Y-175599999D01*
G75*
G02*
X79600000Y-175681999I0J-82000D01*
G01*
X79600000Y-176337999D01*
G75*
G02*
X79518000Y-176419999I-82000J0D01*
G01*
X78082000Y-176419999D01*
G75*
G02*
X78000000Y-176337999I0J82000D01*
G01*
X78000000Y-175681999D01*
G75*
G02*
X78082000Y-175599999I82000J0D01*
G01*
G37*
G36*
G01*
X357362000Y-174099999D02*
X358798000Y-174099999D01*
G75*
G02*
X358880000Y-174181999I0J-82000D01*
G01*
X358880000Y-174837999D01*
G75*
G02*
X358798000Y-174919999I-82000J0D01*
G01*
X357362000Y-174919999D01*
G75*
G02*
X357280000Y-174837999I0J82000D01*
G01*
X357280000Y-174181999D01*
G75*
G02*
X357362000Y-174099999I82000J0D01*
G01*
G37*
G36*
G01*
X357362000Y-175599999D02*
X358798000Y-175599999D01*
G75*
G02*
X358880000Y-175681999I0J-82000D01*
G01*
X358880000Y-176337999D01*
G75*
G02*
X358798000Y-176419999I-82000J0D01*
G01*
X357362000Y-176419999D01*
G75*
G02*
X357280000Y-176337999I0J82000D01*
G01*
X357280000Y-175681999D01*
G75*
G02*
X357362000Y-175599999I82000J0D01*
G01*
G37*
G36*
G01*
X362562000Y-174099999D02*
X363998000Y-174099999D01*
G75*
G02*
X364080000Y-174181999I0J-82000D01*
G01*
X364080000Y-174837999D01*
G75*
G02*
X363998000Y-174919999I-82000J0D01*
G01*
X362562000Y-174919999D01*
G75*
G02*
X362480000Y-174837999I0J82000D01*
G01*
X362480000Y-174181999D01*
G75*
G02*
X362562000Y-174099999I82000J0D01*
G01*
G37*
G36*
G01*
X362562000Y-175599999D02*
X363998000Y-175599999D01*
G75*
G02*
X364080000Y-175681999I0J-82000D01*
G01*
X364080000Y-176337999D01*
G75*
G02*
X363998000Y-176419999I-82000J0D01*
G01*
X362562000Y-176419999D01*
G75*
G02*
X362480000Y-176337999I0J82000D01*
G01*
X362480000Y-175681999D01*
G75*
G02*
X362562000Y-175599999I82000J0D01*
G01*
G37*
G36*
G01*
X337042000Y-174099999D02*
X338478000Y-174099999D01*
G75*
G02*
X338560000Y-174181999I0J-82000D01*
G01*
X338560000Y-174837999D01*
G75*
G02*
X338478000Y-174919999I-82000J0D01*
G01*
X337042000Y-174919999D01*
G75*
G02*
X336960000Y-174837999I0J82000D01*
G01*
X336960000Y-174181999D01*
G75*
G02*
X337042000Y-174099999I82000J0D01*
G01*
G37*
G36*
G01*
X337042000Y-175599999D02*
X338478000Y-175599999D01*
G75*
G02*
X338560000Y-175681999I0J-82000D01*
G01*
X338560000Y-176337999D01*
G75*
G02*
X338478000Y-176419999I-82000J0D01*
G01*
X337042000Y-176419999D01*
G75*
G02*
X336960000Y-176337999I0J82000D01*
G01*
X336960000Y-175681999D01*
G75*
G02*
X337042000Y-175599999I82000J0D01*
G01*
G37*
G36*
G01*
X342242000Y-174099999D02*
X343678000Y-174099999D01*
G75*
G02*
X343760000Y-174181999I0J-82000D01*
G01*
X343760000Y-174837999D01*
G75*
G02*
X343678000Y-174919999I-82000J0D01*
G01*
X342242000Y-174919999D01*
G75*
G02*
X342160000Y-174837999I0J82000D01*
G01*
X342160000Y-174181999D01*
G75*
G02*
X342242000Y-174099999I82000J0D01*
G01*
G37*
G36*
G01*
X342242000Y-175599999D02*
X343678000Y-175599999D01*
G75*
G02*
X343760000Y-175681999I0J-82000D01*
G01*
X343760000Y-176337999D01*
G75*
G02*
X343678000Y-176419999I-82000J0D01*
G01*
X342242000Y-176419999D01*
G75*
G02*
X342160000Y-176337999I0J82000D01*
G01*
X342160000Y-175681999D01*
G75*
G02*
X342242000Y-175599999I82000J0D01*
G01*
G37*
G36*
G01*
X316722000Y-174099999D02*
X318158000Y-174099999D01*
G75*
G02*
X318240000Y-174181999I0J-82000D01*
G01*
X318240000Y-174837999D01*
G75*
G02*
X318158000Y-174919999I-82000J0D01*
G01*
X316722000Y-174919999D01*
G75*
G02*
X316640000Y-174837999I0J82000D01*
G01*
X316640000Y-174181999D01*
G75*
G02*
X316722000Y-174099999I82000J0D01*
G01*
G37*
G36*
G01*
X316722000Y-175599999D02*
X318158000Y-175599999D01*
G75*
G02*
X318240000Y-175681999I0J-82000D01*
G01*
X318240000Y-176337999D01*
G75*
G02*
X318158000Y-176419999I-82000J0D01*
G01*
X316722000Y-176419999D01*
G75*
G02*
X316640000Y-176337999I0J82000D01*
G01*
X316640000Y-175681999D01*
G75*
G02*
X316722000Y-175599999I82000J0D01*
G01*
G37*
G36*
G01*
X321922000Y-174099999D02*
X323358000Y-174099999D01*
G75*
G02*
X323440000Y-174181999I0J-82000D01*
G01*
X323440000Y-174837999D01*
G75*
G02*
X323358000Y-174919999I-82000J0D01*
G01*
X321922000Y-174919999D01*
G75*
G02*
X321840000Y-174837999I0J82000D01*
G01*
X321840000Y-174181999D01*
G75*
G02*
X321922000Y-174099999I82000J0D01*
G01*
G37*
G36*
G01*
X321922000Y-175599999D02*
X323358000Y-175599999D01*
G75*
G02*
X323440000Y-175681999I0J-82000D01*
G01*
X323440000Y-176337999D01*
G75*
G02*
X323358000Y-176419999I-82000J0D01*
G01*
X321922000Y-176419999D01*
G75*
G02*
X321840000Y-176337999I0J82000D01*
G01*
X321840000Y-175681999D01*
G75*
G02*
X321922000Y-175599999I82000J0D01*
G01*
G37*
G36*
G01*
X276082000Y-174099999D02*
X277518000Y-174099999D01*
G75*
G02*
X277600000Y-174181999I0J-82000D01*
G01*
X277600000Y-174837999D01*
G75*
G02*
X277518000Y-174919999I-82000J0D01*
G01*
X276082000Y-174919999D01*
G75*
G02*
X276000000Y-174837999I0J82000D01*
G01*
X276000000Y-174181999D01*
G75*
G02*
X276082000Y-174099999I82000J0D01*
G01*
G37*
G36*
G01*
X276082000Y-175599999D02*
X277518000Y-175599999D01*
G75*
G02*
X277600000Y-175681999I0J-82000D01*
G01*
X277600000Y-176337999D01*
G75*
G02*
X277518000Y-176419999I-82000J0D01*
G01*
X276082000Y-176419999D01*
G75*
G02*
X276000000Y-176337999I0J82000D01*
G01*
X276000000Y-175681999D01*
G75*
G02*
X276082000Y-175599999I82000J0D01*
G01*
G37*
G36*
G01*
X281282000Y-174099999D02*
X282718000Y-174099999D01*
G75*
G02*
X282800000Y-174181999I0J-82000D01*
G01*
X282800000Y-174837999D01*
G75*
G02*
X282718000Y-174919999I-82000J0D01*
G01*
X281282000Y-174919999D01*
G75*
G02*
X281200000Y-174837999I0J82000D01*
G01*
X281200000Y-174181999D01*
G75*
G02*
X281282000Y-174099999I82000J0D01*
G01*
G37*
G36*
G01*
X281282000Y-175599999D02*
X282718000Y-175599999D01*
G75*
G02*
X282800000Y-175681999I0J-82000D01*
G01*
X282800000Y-176337999D01*
G75*
G02*
X282718000Y-176419999I-82000J0D01*
G01*
X281282000Y-176419999D01*
G75*
G02*
X281200000Y-176337999I0J82000D01*
G01*
X281200000Y-175681999D01*
G75*
G02*
X281282000Y-175599999I82000J0D01*
G01*
G37*
G36*
G01*
X245602000Y-174099999D02*
X247038000Y-174099999D01*
G75*
G02*
X247120000Y-174181999I0J-82000D01*
G01*
X247120000Y-174837999D01*
G75*
G02*
X247038000Y-174919999I-82000J0D01*
G01*
X245602000Y-174919999D01*
G75*
G02*
X245520000Y-174837999I0J82000D01*
G01*
X245520000Y-174181999D01*
G75*
G02*
X245602000Y-174099999I82000J0D01*
G01*
G37*
G36*
G01*
X245602000Y-175599999D02*
X247038000Y-175599999D01*
G75*
G02*
X247120000Y-175681999I0J-82000D01*
G01*
X247120000Y-176337999D01*
G75*
G02*
X247038000Y-176419999I-82000J0D01*
G01*
X245602000Y-176419999D01*
G75*
G02*
X245520000Y-176337999I0J82000D01*
G01*
X245520000Y-175681999D01*
G75*
G02*
X245602000Y-175599999I82000J0D01*
G01*
G37*
G36*
G01*
X250802000Y-174099999D02*
X252238000Y-174099999D01*
G75*
G02*
X252320000Y-174181999I0J-82000D01*
G01*
X252320000Y-174837999D01*
G75*
G02*
X252238000Y-174919999I-82000J0D01*
G01*
X250802000Y-174919999D01*
G75*
G02*
X250720000Y-174837999I0J82000D01*
G01*
X250720000Y-174181999D01*
G75*
G02*
X250802000Y-174099999I82000J0D01*
G01*
G37*
G36*
G01*
X250802000Y-175599999D02*
X252238000Y-175599999D01*
G75*
G02*
X252320000Y-175681999I0J-82000D01*
G01*
X252320000Y-176337999D01*
G75*
G02*
X252238000Y-176419999I-82000J0D01*
G01*
X250802000Y-176419999D01*
G75*
G02*
X250720000Y-176337999I0J82000D01*
G01*
X250720000Y-175681999D01*
G75*
G02*
X250802000Y-175599999I82000J0D01*
G01*
G37*
G36*
G01*
X225282000Y-174099999D02*
X226718000Y-174099999D01*
G75*
G02*
X226800000Y-174181999I0J-82000D01*
G01*
X226800000Y-174837999D01*
G75*
G02*
X226718000Y-174919999I-82000J0D01*
G01*
X225282000Y-174919999D01*
G75*
G02*
X225200000Y-174837999I0J82000D01*
G01*
X225200000Y-174181999D01*
G75*
G02*
X225282000Y-174099999I82000J0D01*
G01*
G37*
G36*
G01*
X225282000Y-175599999D02*
X226718000Y-175599999D01*
G75*
G02*
X226800000Y-175681999I0J-82000D01*
G01*
X226800000Y-176337999D01*
G75*
G02*
X226718000Y-176419999I-82000J0D01*
G01*
X225282000Y-176419999D01*
G75*
G02*
X225200000Y-176337999I0J82000D01*
G01*
X225200000Y-175681999D01*
G75*
G02*
X225282000Y-175599999I82000J0D01*
G01*
G37*
G36*
G01*
X230482000Y-174099999D02*
X231918000Y-174099999D01*
G75*
G02*
X232000000Y-174181999I0J-82000D01*
G01*
X232000000Y-174837999D01*
G75*
G02*
X231918000Y-174919999I-82000J0D01*
G01*
X230482000Y-174919999D01*
G75*
G02*
X230400000Y-174837999I0J82000D01*
G01*
X230400000Y-174181999D01*
G75*
G02*
X230482000Y-174099999I82000J0D01*
G01*
G37*
G36*
G01*
X230482000Y-175599999D02*
X231918000Y-175599999D01*
G75*
G02*
X232000000Y-175681999I0J-82000D01*
G01*
X232000000Y-176337999D01*
G75*
G02*
X231918000Y-176419999I-82000J0D01*
G01*
X230482000Y-176419999D01*
G75*
G02*
X230400000Y-176337999I0J82000D01*
G01*
X230400000Y-175681999D01*
G75*
G02*
X230482000Y-175599999I82000J0D01*
G01*
G37*
G36*
G01*
X204962000Y-174099999D02*
X206398000Y-174099999D01*
G75*
G02*
X206480000Y-174181999I0J-82000D01*
G01*
X206480000Y-174837999D01*
G75*
G02*
X206398000Y-174919999I-82000J0D01*
G01*
X204962000Y-174919999D01*
G75*
G02*
X204880000Y-174837999I0J82000D01*
G01*
X204880000Y-174181999D01*
G75*
G02*
X204962000Y-174099999I82000J0D01*
G01*
G37*
G36*
G01*
X204962000Y-175599999D02*
X206398000Y-175599999D01*
G75*
G02*
X206480000Y-175681999I0J-82000D01*
G01*
X206480000Y-176337999D01*
G75*
G02*
X206398000Y-176419999I-82000J0D01*
G01*
X204962000Y-176419999D01*
G75*
G02*
X204880000Y-176337999I0J82000D01*
G01*
X204880000Y-175681999D01*
G75*
G02*
X204962000Y-175599999I82000J0D01*
G01*
G37*
G36*
G01*
X210162000Y-174099999D02*
X211598000Y-174099999D01*
G75*
G02*
X211680000Y-174181999I0J-82000D01*
G01*
X211680000Y-174837999D01*
G75*
G02*
X211598000Y-174919999I-82000J0D01*
G01*
X210162000Y-174919999D01*
G75*
G02*
X210080000Y-174837999I0J82000D01*
G01*
X210080000Y-174181999D01*
G75*
G02*
X210162000Y-174099999I82000J0D01*
G01*
G37*
G36*
G01*
X210162000Y-175599999D02*
X211598000Y-175599999D01*
G75*
G02*
X211680000Y-175681999I0J-82000D01*
G01*
X211680000Y-176337999D01*
G75*
G02*
X211598000Y-176419999I-82000J0D01*
G01*
X210162000Y-176419999D01*
G75*
G02*
X210080000Y-176337999I0J82000D01*
G01*
X210080000Y-175681999D01*
G75*
G02*
X210162000Y-175599999I82000J0D01*
G01*
G37*
G36*
G01*
X184642000Y-174099999D02*
X186078000Y-174099999D01*
G75*
G02*
X186160000Y-174181999I0J-82000D01*
G01*
X186160000Y-174837999D01*
G75*
G02*
X186078000Y-174919999I-82000J0D01*
G01*
X184642000Y-174919999D01*
G75*
G02*
X184560000Y-174837999I0J82000D01*
G01*
X184560000Y-174181999D01*
G75*
G02*
X184642000Y-174099999I82000J0D01*
G01*
G37*
G36*
G01*
X184642000Y-175599999D02*
X186078000Y-175599999D01*
G75*
G02*
X186160000Y-175681999I0J-82000D01*
G01*
X186160000Y-176337999D01*
G75*
G02*
X186078000Y-176419999I-82000J0D01*
G01*
X184642000Y-176419999D01*
G75*
G02*
X184560000Y-176337999I0J82000D01*
G01*
X184560000Y-175681999D01*
G75*
G02*
X184642000Y-175599999I82000J0D01*
G01*
G37*
G36*
G01*
X189842000Y-174099999D02*
X191278000Y-174099999D01*
G75*
G02*
X191360000Y-174181999I0J-82000D01*
G01*
X191360000Y-174837999D01*
G75*
G02*
X191278000Y-174919999I-82000J0D01*
G01*
X189842000Y-174919999D01*
G75*
G02*
X189760000Y-174837999I0J82000D01*
G01*
X189760000Y-174181999D01*
G75*
G02*
X189842000Y-174099999I82000J0D01*
G01*
G37*
G36*
G01*
X189842000Y-175599999D02*
X191278000Y-175599999D01*
G75*
G02*
X191360000Y-175681999I0J-82000D01*
G01*
X191360000Y-176337999D01*
G75*
G02*
X191278000Y-176419999I-82000J0D01*
G01*
X189842000Y-176419999D01*
G75*
G02*
X189760000Y-176337999I0J82000D01*
G01*
X189760000Y-175681999D01*
G75*
G02*
X189842000Y-175599999I82000J0D01*
G01*
G37*
G36*
G01*
X164322000Y-174099999D02*
X165758000Y-174099999D01*
G75*
G02*
X165840000Y-174181999I0J-82000D01*
G01*
X165840000Y-174837999D01*
G75*
G02*
X165758000Y-174919999I-82000J0D01*
G01*
X164322000Y-174919999D01*
G75*
G02*
X164240000Y-174837999I0J82000D01*
G01*
X164240000Y-174181999D01*
G75*
G02*
X164322000Y-174099999I82000J0D01*
G01*
G37*
G36*
G01*
X164322000Y-175599999D02*
X165758000Y-175599999D01*
G75*
G02*
X165840000Y-175681999I0J-82000D01*
G01*
X165840000Y-176337999D01*
G75*
G02*
X165758000Y-176419999I-82000J0D01*
G01*
X164322000Y-176419999D01*
G75*
G02*
X164240000Y-176337999I0J82000D01*
G01*
X164240000Y-175681999D01*
G75*
G02*
X164322000Y-175599999I82000J0D01*
G01*
G37*
G36*
G01*
X169522000Y-174099999D02*
X170958000Y-174099999D01*
G75*
G02*
X171040000Y-174181999I0J-82000D01*
G01*
X171040000Y-174837999D01*
G75*
G02*
X170958000Y-174919999I-82000J0D01*
G01*
X169522000Y-174919999D01*
G75*
G02*
X169440000Y-174837999I0J82000D01*
G01*
X169440000Y-174181999D01*
G75*
G02*
X169522000Y-174099999I82000J0D01*
G01*
G37*
G36*
G01*
X169522000Y-175599999D02*
X170958000Y-175599999D01*
G75*
G02*
X171040000Y-175681999I0J-82000D01*
G01*
X171040000Y-176337999D01*
G75*
G02*
X170958000Y-176419999I-82000J0D01*
G01*
X169522000Y-176419999D01*
G75*
G02*
X169440000Y-176337999I0J82000D01*
G01*
X169440000Y-175681999D01*
G75*
G02*
X169522000Y-175599999I82000J0D01*
G01*
G37*
G36*
G01*
X133842000Y-174099999D02*
X135278000Y-174099999D01*
G75*
G02*
X135360000Y-174181999I0J-82000D01*
G01*
X135360000Y-174837999D01*
G75*
G02*
X135278000Y-174919999I-82000J0D01*
G01*
X133842000Y-174919999D01*
G75*
G02*
X133760000Y-174837999I0J82000D01*
G01*
X133760000Y-174181999D01*
G75*
G02*
X133842000Y-174099999I82000J0D01*
G01*
G37*
G36*
G01*
X133842000Y-175599999D02*
X135278000Y-175599999D01*
G75*
G02*
X135360000Y-175681999I0J-82000D01*
G01*
X135360000Y-176337999D01*
G75*
G02*
X135278000Y-176419999I-82000J0D01*
G01*
X133842000Y-176419999D01*
G75*
G02*
X133760000Y-176337999I0J82000D01*
G01*
X133760000Y-175681999D01*
G75*
G02*
X133842000Y-175599999I82000J0D01*
G01*
G37*
G36*
G01*
X139042000Y-174099999D02*
X140478000Y-174099999D01*
G75*
G02*
X140560000Y-174181999I0J-82000D01*
G01*
X140560000Y-174837999D01*
G75*
G02*
X140478000Y-174919999I-82000J0D01*
G01*
X139042000Y-174919999D01*
G75*
G02*
X138960000Y-174837999I0J82000D01*
G01*
X138960000Y-174181999D01*
G75*
G02*
X139042000Y-174099999I82000J0D01*
G01*
G37*
G36*
G01*
X139042000Y-175599999D02*
X140478000Y-175599999D01*
G75*
G02*
X140560000Y-175681999I0J-82000D01*
G01*
X140560000Y-176337999D01*
G75*
G02*
X140478000Y-176419999I-82000J0D01*
G01*
X139042000Y-176419999D01*
G75*
G02*
X138960000Y-176337999I0J82000D01*
G01*
X138960000Y-175681999D01*
G75*
G02*
X139042000Y-175599999I82000J0D01*
G01*
G37*
G36*
G01*
X93202000Y-174099999D02*
X94638000Y-174099999D01*
G75*
G02*
X94720000Y-174181999I0J-82000D01*
G01*
X94720000Y-174837999D01*
G75*
G02*
X94638000Y-174919999I-82000J0D01*
G01*
X93202000Y-174919999D01*
G75*
G02*
X93120000Y-174837999I0J82000D01*
G01*
X93120000Y-174181999D01*
G75*
G02*
X93202000Y-174099999I82000J0D01*
G01*
G37*
G36*
G01*
X93202000Y-175599999D02*
X94638000Y-175599999D01*
G75*
G02*
X94720000Y-175681999I0J-82000D01*
G01*
X94720000Y-176337999D01*
G75*
G02*
X94638000Y-176419999I-82000J0D01*
G01*
X93202000Y-176419999D01*
G75*
G02*
X93120000Y-176337999I0J82000D01*
G01*
X93120000Y-175681999D01*
G75*
G02*
X93202000Y-175599999I82000J0D01*
G01*
G37*
G36*
G01*
X98402000Y-174099999D02*
X99838000Y-174099999D01*
G75*
G02*
X99920000Y-174181999I0J-82000D01*
G01*
X99920000Y-174837999D01*
G75*
G02*
X99838000Y-174919999I-82000J0D01*
G01*
X98402000Y-174919999D01*
G75*
G02*
X98320000Y-174837999I0J82000D01*
G01*
X98320000Y-174181999D01*
G75*
G02*
X98402000Y-174099999I82000J0D01*
G01*
G37*
G36*
G01*
X98402000Y-175599999D02*
X99838000Y-175599999D01*
G75*
G02*
X99920000Y-175681999I0J-82000D01*
G01*
X99920000Y-176337999D01*
G75*
G02*
X99838000Y-176419999I-82000J0D01*
G01*
X98402000Y-176419999D01*
G75*
G02*
X98320000Y-176337999I0J82000D01*
G01*
X98320000Y-175681999D01*
G75*
G02*
X98402000Y-175599999I82000J0D01*
G01*
G37*
G36*
G01*
X52562000Y-174099999D02*
X53998000Y-174099999D01*
G75*
G02*
X54080000Y-174181999I0J-82000D01*
G01*
X54080000Y-174837999D01*
G75*
G02*
X53998000Y-174919999I-82000J0D01*
G01*
X52562000Y-174919999D01*
G75*
G02*
X52480000Y-174837999I0J82000D01*
G01*
X52480000Y-174181999D01*
G75*
G02*
X52562000Y-174099999I82000J0D01*
G01*
G37*
G36*
G01*
X52562000Y-175599999D02*
X53998000Y-175599999D01*
G75*
G02*
X54080000Y-175681999I0J-82000D01*
G01*
X54080000Y-176337999D01*
G75*
G02*
X53998000Y-176419999I-82000J0D01*
G01*
X52562000Y-176419999D01*
G75*
G02*
X52480000Y-176337999I0J82000D01*
G01*
X52480000Y-175681999D01*
G75*
G02*
X52562000Y-175599999I82000J0D01*
G01*
G37*
G36*
G01*
X57762000Y-174099999D02*
X59198000Y-174099999D01*
G75*
G02*
X59280000Y-174181999I0J-82000D01*
G01*
X59280000Y-174837999D01*
G75*
G02*
X59198000Y-174919999I-82000J0D01*
G01*
X57762000Y-174919999D01*
G75*
G02*
X57680000Y-174837999I0J82000D01*
G01*
X57680000Y-174181999D01*
G75*
G02*
X57762000Y-174099999I82000J0D01*
G01*
G37*
G36*
G01*
X57762000Y-175599999D02*
X59198000Y-175599999D01*
G75*
G02*
X59280000Y-175681999I0J-82000D01*
G01*
X59280000Y-176337999D01*
G75*
G02*
X59198000Y-176419999I-82000J0D01*
G01*
X57762000Y-176419999D01*
G75*
G02*
X57680000Y-176337999I0J82000D01*
G01*
X57680000Y-175681999D01*
G75*
G02*
X57762000Y-175599999I82000J0D01*
G01*
G37*
G36*
G01*
X357362000Y-153779999D02*
X358798000Y-153779999D01*
G75*
G02*
X358880000Y-153861999I0J-82000D01*
G01*
X358880000Y-154517999D01*
G75*
G02*
X358798000Y-154599999I-82000J0D01*
G01*
X357362000Y-154599999D01*
G75*
G02*
X357280000Y-154517999I0J82000D01*
G01*
X357280000Y-153861999D01*
G75*
G02*
X357362000Y-153779999I82000J0D01*
G01*
G37*
G36*
G01*
X357362000Y-155279999D02*
X358798000Y-155279999D01*
G75*
G02*
X358880000Y-155361999I0J-82000D01*
G01*
X358880000Y-156017999D01*
G75*
G02*
X358798000Y-156099999I-82000J0D01*
G01*
X357362000Y-156099999D01*
G75*
G02*
X357280000Y-156017999I0J82000D01*
G01*
X357280000Y-155361999D01*
G75*
G02*
X357362000Y-155279999I82000J0D01*
G01*
G37*
G36*
G01*
X362562000Y-153779999D02*
X363998000Y-153779999D01*
G75*
G02*
X364080000Y-153861999I0J-82000D01*
G01*
X364080000Y-154517999D01*
G75*
G02*
X363998000Y-154599999I-82000J0D01*
G01*
X362562000Y-154599999D01*
G75*
G02*
X362480000Y-154517999I0J82000D01*
G01*
X362480000Y-153861999D01*
G75*
G02*
X362562000Y-153779999I82000J0D01*
G01*
G37*
G36*
G01*
X362562000Y-155279999D02*
X363998000Y-155279999D01*
G75*
G02*
X364080000Y-155361999I0J-82000D01*
G01*
X364080000Y-156017999D01*
G75*
G02*
X363998000Y-156099999I-82000J0D01*
G01*
X362562000Y-156099999D01*
G75*
G02*
X362480000Y-156017999I0J82000D01*
G01*
X362480000Y-155361999D01*
G75*
G02*
X362562000Y-155279999I82000J0D01*
G01*
G37*
G36*
G01*
X337042000Y-153779999D02*
X338478000Y-153779999D01*
G75*
G02*
X338560000Y-153861999I0J-82000D01*
G01*
X338560000Y-154517999D01*
G75*
G02*
X338478000Y-154599999I-82000J0D01*
G01*
X337042000Y-154599999D01*
G75*
G02*
X336960000Y-154517999I0J82000D01*
G01*
X336960000Y-153861999D01*
G75*
G02*
X337042000Y-153779999I82000J0D01*
G01*
G37*
G36*
G01*
X337042000Y-155279999D02*
X338478000Y-155279999D01*
G75*
G02*
X338560000Y-155361999I0J-82000D01*
G01*
X338560000Y-156017999D01*
G75*
G02*
X338478000Y-156099999I-82000J0D01*
G01*
X337042000Y-156099999D01*
G75*
G02*
X336960000Y-156017999I0J82000D01*
G01*
X336960000Y-155361999D01*
G75*
G02*
X337042000Y-155279999I82000J0D01*
G01*
G37*
G36*
G01*
X342242000Y-153779999D02*
X343678000Y-153779999D01*
G75*
G02*
X343760000Y-153861999I0J-82000D01*
G01*
X343760000Y-154517999D01*
G75*
G02*
X343678000Y-154599999I-82000J0D01*
G01*
X342242000Y-154599999D01*
G75*
G02*
X342160000Y-154517999I0J82000D01*
G01*
X342160000Y-153861999D01*
G75*
G02*
X342242000Y-153779999I82000J0D01*
G01*
G37*
G36*
G01*
X342242000Y-155279999D02*
X343678000Y-155279999D01*
G75*
G02*
X343760000Y-155361999I0J-82000D01*
G01*
X343760000Y-156017999D01*
G75*
G02*
X343678000Y-156099999I-82000J0D01*
G01*
X342242000Y-156099999D01*
G75*
G02*
X342160000Y-156017999I0J82000D01*
G01*
X342160000Y-155361999D01*
G75*
G02*
X342242000Y-155279999I82000J0D01*
G01*
G37*
G36*
G01*
X316722000Y-153779999D02*
X318158000Y-153779999D01*
G75*
G02*
X318240000Y-153861999I0J-82000D01*
G01*
X318240000Y-154517999D01*
G75*
G02*
X318158000Y-154599999I-82000J0D01*
G01*
X316722000Y-154599999D01*
G75*
G02*
X316640000Y-154517999I0J82000D01*
G01*
X316640000Y-153861999D01*
G75*
G02*
X316722000Y-153779999I82000J0D01*
G01*
G37*
G36*
G01*
X316722000Y-155279999D02*
X318158000Y-155279999D01*
G75*
G02*
X318240000Y-155361999I0J-82000D01*
G01*
X318240000Y-156017999D01*
G75*
G02*
X318158000Y-156099999I-82000J0D01*
G01*
X316722000Y-156099999D01*
G75*
G02*
X316640000Y-156017999I0J82000D01*
G01*
X316640000Y-155361999D01*
G75*
G02*
X316722000Y-155279999I82000J0D01*
G01*
G37*
G36*
G01*
X321922000Y-153779999D02*
X323358000Y-153779999D01*
G75*
G02*
X323440000Y-153861999I0J-82000D01*
G01*
X323440000Y-154517999D01*
G75*
G02*
X323358000Y-154599999I-82000J0D01*
G01*
X321922000Y-154599999D01*
G75*
G02*
X321840000Y-154517999I0J82000D01*
G01*
X321840000Y-153861999D01*
G75*
G02*
X321922000Y-153779999I82000J0D01*
G01*
G37*
G36*
G01*
X321922000Y-155279999D02*
X323358000Y-155279999D01*
G75*
G02*
X323440000Y-155361999I0J-82000D01*
G01*
X323440000Y-156017999D01*
G75*
G02*
X323358000Y-156099999I-82000J0D01*
G01*
X321922000Y-156099999D01*
G75*
G02*
X321840000Y-156017999I0J82000D01*
G01*
X321840000Y-155361999D01*
G75*
G02*
X321922000Y-155279999I82000J0D01*
G01*
G37*
G36*
G01*
X296402000Y-153779999D02*
X297838000Y-153779999D01*
G75*
G02*
X297920000Y-153861999I0J-82000D01*
G01*
X297920000Y-154517999D01*
G75*
G02*
X297838000Y-154599999I-82000J0D01*
G01*
X296402000Y-154599999D01*
G75*
G02*
X296320000Y-154517999I0J82000D01*
G01*
X296320000Y-153861999D01*
G75*
G02*
X296402000Y-153779999I82000J0D01*
G01*
G37*
G36*
G01*
X296402000Y-155279999D02*
X297838000Y-155279999D01*
G75*
G02*
X297920000Y-155361999I0J-82000D01*
G01*
X297920000Y-156017999D01*
G75*
G02*
X297838000Y-156099999I-82000J0D01*
G01*
X296402000Y-156099999D01*
G75*
G02*
X296320000Y-156017999I0J82000D01*
G01*
X296320000Y-155361999D01*
G75*
G02*
X296402000Y-155279999I82000J0D01*
G01*
G37*
G36*
G01*
X301602000Y-153779999D02*
X303038000Y-153779999D01*
G75*
G02*
X303120000Y-153861999I0J-82000D01*
G01*
X303120000Y-154517999D01*
G75*
G02*
X303038000Y-154599999I-82000J0D01*
G01*
X301602000Y-154599999D01*
G75*
G02*
X301520000Y-154517999I0J82000D01*
G01*
X301520000Y-153861999D01*
G75*
G02*
X301602000Y-153779999I82000J0D01*
G01*
G37*
G36*
G01*
X301602000Y-155279999D02*
X303038000Y-155279999D01*
G75*
G02*
X303120000Y-155361999I0J-82000D01*
G01*
X303120000Y-156017999D01*
G75*
G02*
X303038000Y-156099999I-82000J0D01*
G01*
X301602000Y-156099999D01*
G75*
G02*
X301520000Y-156017999I0J82000D01*
G01*
X301520000Y-155361999D01*
G75*
G02*
X301602000Y-155279999I82000J0D01*
G01*
G37*
G36*
G01*
X276082000Y-153779999D02*
X277518000Y-153779999D01*
G75*
G02*
X277600000Y-153861999I0J-82000D01*
G01*
X277600000Y-154517999D01*
G75*
G02*
X277518000Y-154599999I-82000J0D01*
G01*
X276082000Y-154599999D01*
G75*
G02*
X276000000Y-154517999I0J82000D01*
G01*
X276000000Y-153861999D01*
G75*
G02*
X276082000Y-153779999I82000J0D01*
G01*
G37*
G36*
G01*
X276082000Y-155279999D02*
X277518000Y-155279999D01*
G75*
G02*
X277600000Y-155361999I0J-82000D01*
G01*
X277600000Y-156017999D01*
G75*
G02*
X277518000Y-156099999I-82000J0D01*
G01*
X276082000Y-156099999D01*
G75*
G02*
X276000000Y-156017999I0J82000D01*
G01*
X276000000Y-155361999D01*
G75*
G02*
X276082000Y-155279999I82000J0D01*
G01*
G37*
G36*
G01*
X281282000Y-153779999D02*
X282718000Y-153779999D01*
G75*
G02*
X282800000Y-153861999I0J-82000D01*
G01*
X282800000Y-154517999D01*
G75*
G02*
X282718000Y-154599999I-82000J0D01*
G01*
X281282000Y-154599999D01*
G75*
G02*
X281200000Y-154517999I0J82000D01*
G01*
X281200000Y-153861999D01*
G75*
G02*
X281282000Y-153779999I82000J0D01*
G01*
G37*
G36*
G01*
X281282000Y-155279999D02*
X282718000Y-155279999D01*
G75*
G02*
X282800000Y-155361999I0J-82000D01*
G01*
X282800000Y-156017999D01*
G75*
G02*
X282718000Y-156099999I-82000J0D01*
G01*
X281282000Y-156099999D01*
G75*
G02*
X281200000Y-156017999I0J82000D01*
G01*
X281200000Y-155361999D01*
G75*
G02*
X281282000Y-155279999I82000J0D01*
G01*
G37*
G36*
G01*
X245602000Y-153779999D02*
X247038000Y-153779999D01*
G75*
G02*
X247120000Y-153861999I0J-82000D01*
G01*
X247120000Y-154517999D01*
G75*
G02*
X247038000Y-154599999I-82000J0D01*
G01*
X245602000Y-154599999D01*
G75*
G02*
X245520000Y-154517999I0J82000D01*
G01*
X245520000Y-153861999D01*
G75*
G02*
X245602000Y-153779999I82000J0D01*
G01*
G37*
G36*
G01*
X245602000Y-155279999D02*
X247038000Y-155279999D01*
G75*
G02*
X247120000Y-155361999I0J-82000D01*
G01*
X247120000Y-156017999D01*
G75*
G02*
X247038000Y-156099999I-82000J0D01*
G01*
X245602000Y-156099999D01*
G75*
G02*
X245520000Y-156017999I0J82000D01*
G01*
X245520000Y-155361999D01*
G75*
G02*
X245602000Y-155279999I82000J0D01*
G01*
G37*
G36*
G01*
X250802000Y-153779999D02*
X252238000Y-153779999D01*
G75*
G02*
X252320000Y-153861999I0J-82000D01*
G01*
X252320000Y-154517999D01*
G75*
G02*
X252238000Y-154599999I-82000J0D01*
G01*
X250802000Y-154599999D01*
G75*
G02*
X250720000Y-154517999I0J82000D01*
G01*
X250720000Y-153861999D01*
G75*
G02*
X250802000Y-153779999I82000J0D01*
G01*
G37*
G36*
G01*
X250802000Y-155279999D02*
X252238000Y-155279999D01*
G75*
G02*
X252320000Y-155361999I0J-82000D01*
G01*
X252320000Y-156017999D01*
G75*
G02*
X252238000Y-156099999I-82000J0D01*
G01*
X250802000Y-156099999D01*
G75*
G02*
X250720000Y-156017999I0J82000D01*
G01*
X250720000Y-155361999D01*
G75*
G02*
X250802000Y-155279999I82000J0D01*
G01*
G37*
G36*
G01*
X225282000Y-153779999D02*
X226718000Y-153779999D01*
G75*
G02*
X226800000Y-153861999I0J-82000D01*
G01*
X226800000Y-154517999D01*
G75*
G02*
X226718000Y-154599999I-82000J0D01*
G01*
X225282000Y-154599999D01*
G75*
G02*
X225200000Y-154517999I0J82000D01*
G01*
X225200000Y-153861999D01*
G75*
G02*
X225282000Y-153779999I82000J0D01*
G01*
G37*
G36*
G01*
X225282000Y-155279999D02*
X226718000Y-155279999D01*
G75*
G02*
X226800000Y-155361999I0J-82000D01*
G01*
X226800000Y-156017999D01*
G75*
G02*
X226718000Y-156099999I-82000J0D01*
G01*
X225282000Y-156099999D01*
G75*
G02*
X225200000Y-156017999I0J82000D01*
G01*
X225200000Y-155361999D01*
G75*
G02*
X225282000Y-155279999I82000J0D01*
G01*
G37*
G36*
G01*
X230482000Y-153779999D02*
X231918000Y-153779999D01*
G75*
G02*
X232000000Y-153861999I0J-82000D01*
G01*
X232000000Y-154517999D01*
G75*
G02*
X231918000Y-154599999I-82000J0D01*
G01*
X230482000Y-154599999D01*
G75*
G02*
X230400000Y-154517999I0J82000D01*
G01*
X230400000Y-153861999D01*
G75*
G02*
X230482000Y-153779999I82000J0D01*
G01*
G37*
G36*
G01*
X230482000Y-155279999D02*
X231918000Y-155279999D01*
G75*
G02*
X232000000Y-155361999I0J-82000D01*
G01*
X232000000Y-156017999D01*
G75*
G02*
X231918000Y-156099999I-82000J0D01*
G01*
X230482000Y-156099999D01*
G75*
G02*
X230400000Y-156017999I0J82000D01*
G01*
X230400000Y-155361999D01*
G75*
G02*
X230482000Y-155279999I82000J0D01*
G01*
G37*
G36*
G01*
X204962000Y-153779999D02*
X206398000Y-153779999D01*
G75*
G02*
X206480000Y-153861999I0J-82000D01*
G01*
X206480000Y-154517999D01*
G75*
G02*
X206398000Y-154599999I-82000J0D01*
G01*
X204962000Y-154599999D01*
G75*
G02*
X204880000Y-154517999I0J82000D01*
G01*
X204880000Y-153861999D01*
G75*
G02*
X204962000Y-153779999I82000J0D01*
G01*
G37*
G36*
G01*
X204962000Y-155279999D02*
X206398000Y-155279999D01*
G75*
G02*
X206480000Y-155361999I0J-82000D01*
G01*
X206480000Y-156017999D01*
G75*
G02*
X206398000Y-156099999I-82000J0D01*
G01*
X204962000Y-156099999D01*
G75*
G02*
X204880000Y-156017999I0J82000D01*
G01*
X204880000Y-155361999D01*
G75*
G02*
X204962000Y-155279999I82000J0D01*
G01*
G37*
G36*
G01*
X210162000Y-153779999D02*
X211598000Y-153779999D01*
G75*
G02*
X211680000Y-153861999I0J-82000D01*
G01*
X211680000Y-154517999D01*
G75*
G02*
X211598000Y-154599999I-82000J0D01*
G01*
X210162000Y-154599999D01*
G75*
G02*
X210080000Y-154517999I0J82000D01*
G01*
X210080000Y-153861999D01*
G75*
G02*
X210162000Y-153779999I82000J0D01*
G01*
G37*
G36*
G01*
X210162000Y-155279999D02*
X211598000Y-155279999D01*
G75*
G02*
X211680000Y-155361999I0J-82000D01*
G01*
X211680000Y-156017999D01*
G75*
G02*
X211598000Y-156099999I-82000J0D01*
G01*
X210162000Y-156099999D01*
G75*
G02*
X210080000Y-156017999I0J82000D01*
G01*
X210080000Y-155361999D01*
G75*
G02*
X210162000Y-155279999I82000J0D01*
G01*
G37*
G36*
G01*
X184642000Y-153779999D02*
X186078000Y-153779999D01*
G75*
G02*
X186160000Y-153861999I0J-82000D01*
G01*
X186160000Y-154517999D01*
G75*
G02*
X186078000Y-154599999I-82000J0D01*
G01*
X184642000Y-154599999D01*
G75*
G02*
X184560000Y-154517999I0J82000D01*
G01*
X184560000Y-153861999D01*
G75*
G02*
X184642000Y-153779999I82000J0D01*
G01*
G37*
G36*
G01*
X184642000Y-155279999D02*
X186078000Y-155279999D01*
G75*
G02*
X186160000Y-155361999I0J-82000D01*
G01*
X186160000Y-156017999D01*
G75*
G02*
X186078000Y-156099999I-82000J0D01*
G01*
X184642000Y-156099999D01*
G75*
G02*
X184560000Y-156017999I0J82000D01*
G01*
X184560000Y-155361999D01*
G75*
G02*
X184642000Y-155279999I82000J0D01*
G01*
G37*
G36*
G01*
X189842000Y-153779999D02*
X191278000Y-153779999D01*
G75*
G02*
X191360000Y-153861999I0J-82000D01*
G01*
X191360000Y-154517999D01*
G75*
G02*
X191278000Y-154599999I-82000J0D01*
G01*
X189842000Y-154599999D01*
G75*
G02*
X189760000Y-154517999I0J82000D01*
G01*
X189760000Y-153861999D01*
G75*
G02*
X189842000Y-153779999I82000J0D01*
G01*
G37*
G36*
G01*
X189842000Y-155279999D02*
X191278000Y-155279999D01*
G75*
G02*
X191360000Y-155361999I0J-82000D01*
G01*
X191360000Y-156017999D01*
G75*
G02*
X191278000Y-156099999I-82000J0D01*
G01*
X189842000Y-156099999D01*
G75*
G02*
X189760000Y-156017999I0J82000D01*
G01*
X189760000Y-155361999D01*
G75*
G02*
X189842000Y-155279999I82000J0D01*
G01*
G37*
G36*
G01*
X164322000Y-153779999D02*
X165758000Y-153779999D01*
G75*
G02*
X165840000Y-153861999I0J-82000D01*
G01*
X165840000Y-154517999D01*
G75*
G02*
X165758000Y-154599999I-82000J0D01*
G01*
X164322000Y-154599999D01*
G75*
G02*
X164240000Y-154517999I0J82000D01*
G01*
X164240000Y-153861999D01*
G75*
G02*
X164322000Y-153779999I82000J0D01*
G01*
G37*
G36*
G01*
X164322000Y-155279999D02*
X165758000Y-155279999D01*
G75*
G02*
X165840000Y-155361999I0J-82000D01*
G01*
X165840000Y-156017999D01*
G75*
G02*
X165758000Y-156099999I-82000J0D01*
G01*
X164322000Y-156099999D01*
G75*
G02*
X164240000Y-156017999I0J82000D01*
G01*
X164240000Y-155361999D01*
G75*
G02*
X164322000Y-155279999I82000J0D01*
G01*
G37*
G36*
G01*
X169522000Y-153779999D02*
X170958000Y-153779999D01*
G75*
G02*
X171040000Y-153861999I0J-82000D01*
G01*
X171040000Y-154517999D01*
G75*
G02*
X170958000Y-154599999I-82000J0D01*
G01*
X169522000Y-154599999D01*
G75*
G02*
X169440000Y-154517999I0J82000D01*
G01*
X169440000Y-153861999D01*
G75*
G02*
X169522000Y-153779999I82000J0D01*
G01*
G37*
G36*
G01*
X169522000Y-155279999D02*
X170958000Y-155279999D01*
G75*
G02*
X171040000Y-155361999I0J-82000D01*
G01*
X171040000Y-156017999D01*
G75*
G02*
X170958000Y-156099999I-82000J0D01*
G01*
X169522000Y-156099999D01*
G75*
G02*
X169440000Y-156017999I0J82000D01*
G01*
X169440000Y-155361999D01*
G75*
G02*
X169522000Y-155279999I82000J0D01*
G01*
G37*
G36*
G01*
X133842000Y-153779999D02*
X135278000Y-153779999D01*
G75*
G02*
X135360000Y-153861999I0J-82000D01*
G01*
X135360000Y-154517999D01*
G75*
G02*
X135278000Y-154599999I-82000J0D01*
G01*
X133842000Y-154599999D01*
G75*
G02*
X133760000Y-154517999I0J82000D01*
G01*
X133760000Y-153861999D01*
G75*
G02*
X133842000Y-153779999I82000J0D01*
G01*
G37*
G36*
G01*
X133842000Y-155279999D02*
X135278000Y-155279999D01*
G75*
G02*
X135360000Y-155361999I0J-82000D01*
G01*
X135360000Y-156017999D01*
G75*
G02*
X135278000Y-156099999I-82000J0D01*
G01*
X133842000Y-156099999D01*
G75*
G02*
X133760000Y-156017999I0J82000D01*
G01*
X133760000Y-155361999D01*
G75*
G02*
X133842000Y-155279999I82000J0D01*
G01*
G37*
G36*
G01*
X139042000Y-153779999D02*
X140478000Y-153779999D01*
G75*
G02*
X140560000Y-153861999I0J-82000D01*
G01*
X140560000Y-154517999D01*
G75*
G02*
X140478000Y-154599999I-82000J0D01*
G01*
X139042000Y-154599999D01*
G75*
G02*
X138960000Y-154517999I0J82000D01*
G01*
X138960000Y-153861999D01*
G75*
G02*
X139042000Y-153779999I82000J0D01*
G01*
G37*
G36*
G01*
X139042000Y-155279999D02*
X140478000Y-155279999D01*
G75*
G02*
X140560000Y-155361999I0J-82000D01*
G01*
X140560000Y-156017999D01*
G75*
G02*
X140478000Y-156099999I-82000J0D01*
G01*
X139042000Y-156099999D01*
G75*
G02*
X138960000Y-156017999I0J82000D01*
G01*
X138960000Y-155361999D01*
G75*
G02*
X139042000Y-155279999I82000J0D01*
G01*
G37*
G36*
G01*
X113522000Y-153779999D02*
X114958000Y-153779999D01*
G75*
G02*
X115040000Y-153861999I0J-82000D01*
G01*
X115040000Y-154517999D01*
G75*
G02*
X114958000Y-154599999I-82000J0D01*
G01*
X113522000Y-154599999D01*
G75*
G02*
X113440000Y-154517999I0J82000D01*
G01*
X113440000Y-153861999D01*
G75*
G02*
X113522000Y-153779999I82000J0D01*
G01*
G37*
G36*
G01*
X113522000Y-155279999D02*
X114958000Y-155279999D01*
G75*
G02*
X115040000Y-155361999I0J-82000D01*
G01*
X115040000Y-156017999D01*
G75*
G02*
X114958000Y-156099999I-82000J0D01*
G01*
X113522000Y-156099999D01*
G75*
G02*
X113440000Y-156017999I0J82000D01*
G01*
X113440000Y-155361999D01*
G75*
G02*
X113522000Y-155279999I82000J0D01*
G01*
G37*
G36*
G01*
X118722000Y-153779999D02*
X120158000Y-153779999D01*
G75*
G02*
X120240000Y-153861999I0J-82000D01*
G01*
X120240000Y-154517999D01*
G75*
G02*
X120158000Y-154599999I-82000J0D01*
G01*
X118722000Y-154599999D01*
G75*
G02*
X118640000Y-154517999I0J82000D01*
G01*
X118640000Y-153861999D01*
G75*
G02*
X118722000Y-153779999I82000J0D01*
G01*
G37*
G36*
G01*
X118722000Y-155279999D02*
X120158000Y-155279999D01*
G75*
G02*
X120240000Y-155361999I0J-82000D01*
G01*
X120240000Y-156017999D01*
G75*
G02*
X120158000Y-156099999I-82000J0D01*
G01*
X118722000Y-156099999D01*
G75*
G02*
X118640000Y-156017999I0J82000D01*
G01*
X118640000Y-155361999D01*
G75*
G02*
X118722000Y-155279999I82000J0D01*
G01*
G37*
G36*
G01*
X93202000Y-153779999D02*
X94638000Y-153779999D01*
G75*
G02*
X94720000Y-153861999I0J-82000D01*
G01*
X94720000Y-154517999D01*
G75*
G02*
X94638000Y-154599999I-82000J0D01*
G01*
X93202000Y-154599999D01*
G75*
G02*
X93120000Y-154517999I0J82000D01*
G01*
X93120000Y-153861999D01*
G75*
G02*
X93202000Y-153779999I82000J0D01*
G01*
G37*
G36*
G01*
X93202000Y-155279999D02*
X94638000Y-155279999D01*
G75*
G02*
X94720000Y-155361999I0J-82000D01*
G01*
X94720000Y-156017999D01*
G75*
G02*
X94638000Y-156099999I-82000J0D01*
G01*
X93202000Y-156099999D01*
G75*
G02*
X93120000Y-156017999I0J82000D01*
G01*
X93120000Y-155361999D01*
G75*
G02*
X93202000Y-155279999I82000J0D01*
G01*
G37*
G36*
G01*
X98402000Y-153779999D02*
X99838000Y-153779999D01*
G75*
G02*
X99920000Y-153861999I0J-82000D01*
G01*
X99920000Y-154517999D01*
G75*
G02*
X99838000Y-154599999I-82000J0D01*
G01*
X98402000Y-154599999D01*
G75*
G02*
X98320000Y-154517999I0J82000D01*
G01*
X98320000Y-153861999D01*
G75*
G02*
X98402000Y-153779999I82000J0D01*
G01*
G37*
G36*
G01*
X98402000Y-155279999D02*
X99838000Y-155279999D01*
G75*
G02*
X99920000Y-155361999I0J-82000D01*
G01*
X99920000Y-156017999D01*
G75*
G02*
X99838000Y-156099999I-82000J0D01*
G01*
X98402000Y-156099999D01*
G75*
G02*
X98320000Y-156017999I0J82000D01*
G01*
X98320000Y-155361999D01*
G75*
G02*
X98402000Y-155279999I82000J0D01*
G01*
G37*
G36*
G01*
X72882000Y-153779999D02*
X74318000Y-153779999D01*
G75*
G02*
X74400000Y-153861999I0J-82000D01*
G01*
X74400000Y-154517999D01*
G75*
G02*
X74318000Y-154599999I-82000J0D01*
G01*
X72882000Y-154599999D01*
G75*
G02*
X72800000Y-154517999I0J82000D01*
G01*
X72800000Y-153861999D01*
G75*
G02*
X72882000Y-153779999I82000J0D01*
G01*
G37*
G36*
G01*
X72882000Y-155279999D02*
X74318000Y-155279999D01*
G75*
G02*
X74400000Y-155361999I0J-82000D01*
G01*
X74400000Y-156017999D01*
G75*
G02*
X74318000Y-156099999I-82000J0D01*
G01*
X72882000Y-156099999D01*
G75*
G02*
X72800000Y-156017999I0J82000D01*
G01*
X72800000Y-155361999D01*
G75*
G02*
X72882000Y-155279999I82000J0D01*
G01*
G37*
G36*
G01*
X78082000Y-153779999D02*
X79518000Y-153779999D01*
G75*
G02*
X79600000Y-153861999I0J-82000D01*
G01*
X79600000Y-154517999D01*
G75*
G02*
X79518000Y-154599999I-82000J0D01*
G01*
X78082000Y-154599999D01*
G75*
G02*
X78000000Y-154517999I0J82000D01*
G01*
X78000000Y-153861999D01*
G75*
G02*
X78082000Y-153779999I82000J0D01*
G01*
G37*
G36*
G01*
X78082000Y-155279999D02*
X79518000Y-155279999D01*
G75*
G02*
X79600000Y-155361999I0J-82000D01*
G01*
X79600000Y-156017999D01*
G75*
G02*
X79518000Y-156099999I-82000J0D01*
G01*
X78082000Y-156099999D01*
G75*
G02*
X78000000Y-156017999I0J82000D01*
G01*
X78000000Y-155361999D01*
G75*
G02*
X78082000Y-155279999I82000J0D01*
G01*
G37*
G36*
G01*
X52562000Y-153779999D02*
X53998000Y-153779999D01*
G75*
G02*
X54080000Y-153861999I0J-82000D01*
G01*
X54080000Y-154517999D01*
G75*
G02*
X53998000Y-154599999I-82000J0D01*
G01*
X52562000Y-154599999D01*
G75*
G02*
X52480000Y-154517999I0J82000D01*
G01*
X52480000Y-153861999D01*
G75*
G02*
X52562000Y-153779999I82000J0D01*
G01*
G37*
G36*
G01*
X52562000Y-155279999D02*
X53998000Y-155279999D01*
G75*
G02*
X54080000Y-155361999I0J-82000D01*
G01*
X54080000Y-156017999D01*
G75*
G02*
X53998000Y-156099999I-82000J0D01*
G01*
X52562000Y-156099999D01*
G75*
G02*
X52480000Y-156017999I0J82000D01*
G01*
X52480000Y-155361999D01*
G75*
G02*
X52562000Y-155279999I82000J0D01*
G01*
G37*
G36*
G01*
X57762000Y-153779999D02*
X59198000Y-153779999D01*
G75*
G02*
X59280000Y-153861999I0J-82000D01*
G01*
X59280000Y-154517999D01*
G75*
G02*
X59198000Y-154599999I-82000J0D01*
G01*
X57762000Y-154599999D01*
G75*
G02*
X57680000Y-154517999I0J82000D01*
G01*
X57680000Y-153861999D01*
G75*
G02*
X57762000Y-153779999I82000J0D01*
G01*
G37*
G36*
G01*
X57762000Y-155279999D02*
X59198000Y-155279999D01*
G75*
G02*
X59280000Y-155361999I0J-82000D01*
G01*
X59280000Y-156017999D01*
G75*
G02*
X59198000Y-156099999I-82000J0D01*
G01*
X57762000Y-156099999D01*
G75*
G02*
X57680000Y-156017999I0J82000D01*
G01*
X57680000Y-155361999D01*
G75*
G02*
X57762000Y-155279999I82000J0D01*
G01*
G37*
G36*
G01*
X51037500Y-153560000D02*
X50562500Y-153560000D01*
G75*
G02*
X50325000Y-153322500I0J237500D01*
G01*
X50325000Y-152747500D01*
G75*
G02*
X50562500Y-152510000I237500J0D01*
G01*
X51037500Y-152510000D01*
G75*
G02*
X51275000Y-152747500I0J-237500D01*
G01*
X51275000Y-153322500D01*
G75*
G02*
X51037500Y-153560000I-237500J0D01*
G01*
G37*
G36*
G01*
X51037500Y-155310000D02*
X50562500Y-155310000D01*
G75*
G02*
X50325000Y-155072500I0J237500D01*
G01*
X50325000Y-154497500D01*
G75*
G02*
X50562500Y-154260000I237500J0D01*
G01*
X51037500Y-154260000D01*
G75*
G02*
X51275000Y-154497500I0J-237500D01*
G01*
X51275000Y-155072500D01*
G75*
G02*
X51037500Y-155310000I-237500J0D01*
G01*
G37*
G36*
G01*
X355837500Y-173245000D02*
X355362500Y-173245000D01*
G75*
G02*
X355125000Y-173007500I0J237500D01*
G01*
X355125000Y-172432500D01*
G75*
G02*
X355362500Y-172195000I237500J0D01*
G01*
X355837500Y-172195000D01*
G75*
G02*
X356075000Y-172432500I0J-237500D01*
G01*
X356075000Y-173007500D01*
G75*
G02*
X355837500Y-173245000I-237500J0D01*
G01*
G37*
G36*
G01*
X355837500Y-174995000D02*
X355362500Y-174995000D01*
G75*
G02*
X355125000Y-174757500I0J237500D01*
G01*
X355125000Y-174182500D01*
G75*
G02*
X355362500Y-173945000I237500J0D01*
G01*
X355837500Y-173945000D01*
G75*
G02*
X356075000Y-174182500I0J-237500D01*
G01*
X356075000Y-174757500D01*
G75*
G02*
X355837500Y-174995000I-237500J0D01*
G01*
G37*
G36*
G01*
X335517500Y-173245000D02*
X335042500Y-173245000D01*
G75*
G02*
X334805000Y-173007500I0J237500D01*
G01*
X334805000Y-172432500D01*
G75*
G02*
X335042500Y-172195000I237500J0D01*
G01*
X335517500Y-172195000D01*
G75*
G02*
X335755000Y-172432500I0J-237500D01*
G01*
X335755000Y-173007500D01*
G75*
G02*
X335517500Y-173245000I-237500J0D01*
G01*
G37*
G36*
G01*
X335517500Y-174995000D02*
X335042500Y-174995000D01*
G75*
G02*
X334805000Y-174757500I0J237500D01*
G01*
X334805000Y-174182500D01*
G75*
G02*
X335042500Y-173945000I237500J0D01*
G01*
X335517500Y-173945000D01*
G75*
G02*
X335755000Y-174182500I0J-237500D01*
G01*
X335755000Y-174757500D01*
G75*
G02*
X335517500Y-174995000I-237500J0D01*
G01*
G37*
G36*
G01*
X315197500Y-173245000D02*
X314722500Y-173245000D01*
G75*
G02*
X314485000Y-173007500I0J237500D01*
G01*
X314485000Y-172432500D01*
G75*
G02*
X314722500Y-172195000I237500J0D01*
G01*
X315197500Y-172195000D01*
G75*
G02*
X315435000Y-172432500I0J-237500D01*
G01*
X315435000Y-173007500D01*
G75*
G02*
X315197500Y-173245000I-237500J0D01*
G01*
G37*
G36*
G01*
X315197500Y-174995000D02*
X314722500Y-174995000D01*
G75*
G02*
X314485000Y-174757500I0J237500D01*
G01*
X314485000Y-174182500D01*
G75*
G02*
X314722500Y-173945000I237500J0D01*
G01*
X315197500Y-173945000D01*
G75*
G02*
X315435000Y-174182500I0J-237500D01*
G01*
X315435000Y-174757500D01*
G75*
G02*
X315197500Y-174995000I-237500J0D01*
G01*
G37*
G36*
G01*
X294877500Y-173245000D02*
X294402500Y-173245000D01*
G75*
G02*
X294165000Y-173007500I0J237500D01*
G01*
X294165000Y-172432500D01*
G75*
G02*
X294402500Y-172195000I237500J0D01*
G01*
X294877500Y-172195000D01*
G75*
G02*
X295115000Y-172432500I0J-237500D01*
G01*
X295115000Y-173007500D01*
G75*
G02*
X294877500Y-173245000I-237500J0D01*
G01*
G37*
G36*
G01*
X294877500Y-174995000D02*
X294402500Y-174995000D01*
G75*
G02*
X294165000Y-174757500I0J237500D01*
G01*
X294165000Y-174182500D01*
G75*
G02*
X294402500Y-173945000I237500J0D01*
G01*
X294877500Y-173945000D01*
G75*
G02*
X295115000Y-174182500I0J-237500D01*
G01*
X295115000Y-174757500D01*
G75*
G02*
X294877500Y-174995000I-237500J0D01*
G01*
G37*
G36*
G01*
X274557500Y-173245000D02*
X274082500Y-173245000D01*
G75*
G02*
X273845000Y-173007500I0J237500D01*
G01*
X273845000Y-172432500D01*
G75*
G02*
X274082500Y-172195000I237500J0D01*
G01*
X274557500Y-172195000D01*
G75*
G02*
X274795000Y-172432500I0J-237500D01*
G01*
X274795000Y-173007500D01*
G75*
G02*
X274557500Y-173245000I-237500J0D01*
G01*
G37*
G36*
G01*
X274557500Y-174995000D02*
X274082500Y-174995000D01*
G75*
G02*
X273845000Y-174757500I0J237500D01*
G01*
X273845000Y-174182500D01*
G75*
G02*
X274082500Y-173945000I237500J0D01*
G01*
X274557500Y-173945000D01*
G75*
G02*
X274795000Y-174182500I0J-237500D01*
G01*
X274795000Y-174757500D01*
G75*
G02*
X274557500Y-174995000I-237500J0D01*
G01*
G37*
G36*
G01*
X244077500Y-173245000D02*
X243602500Y-173245000D01*
G75*
G02*
X243365000Y-173007500I0J237500D01*
G01*
X243365000Y-172432500D01*
G75*
G02*
X243602500Y-172195000I237500J0D01*
G01*
X244077500Y-172195000D01*
G75*
G02*
X244315000Y-172432500I0J-237500D01*
G01*
X244315000Y-173007500D01*
G75*
G02*
X244077500Y-173245000I-237500J0D01*
G01*
G37*
G36*
G01*
X244077500Y-174995000D02*
X243602500Y-174995000D01*
G75*
G02*
X243365000Y-174757500I0J237500D01*
G01*
X243365000Y-174182500D01*
G75*
G02*
X243602500Y-173945000I237500J0D01*
G01*
X244077500Y-173945000D01*
G75*
G02*
X244315000Y-174182500I0J-237500D01*
G01*
X244315000Y-174757500D01*
G75*
G02*
X244077500Y-174995000I-237500J0D01*
G01*
G37*
G36*
G01*
X223757500Y-173245000D02*
X223282500Y-173245000D01*
G75*
G02*
X223045000Y-173007500I0J237500D01*
G01*
X223045000Y-172432500D01*
G75*
G02*
X223282500Y-172195000I237500J0D01*
G01*
X223757500Y-172195000D01*
G75*
G02*
X223995000Y-172432500I0J-237500D01*
G01*
X223995000Y-173007500D01*
G75*
G02*
X223757500Y-173245000I-237500J0D01*
G01*
G37*
G36*
G01*
X223757500Y-174995000D02*
X223282500Y-174995000D01*
G75*
G02*
X223045000Y-174757500I0J237500D01*
G01*
X223045000Y-174182500D01*
G75*
G02*
X223282500Y-173945000I237500J0D01*
G01*
X223757500Y-173945000D01*
G75*
G02*
X223995000Y-174182500I0J-237500D01*
G01*
X223995000Y-174757500D01*
G75*
G02*
X223757500Y-174995000I-237500J0D01*
G01*
G37*
G36*
G01*
X203437500Y-173005000D02*
X202962500Y-173005000D01*
G75*
G02*
X202725000Y-172767500I0J237500D01*
G01*
X202725000Y-172192500D01*
G75*
G02*
X202962500Y-171955000I237500J0D01*
G01*
X203437500Y-171955000D01*
G75*
G02*
X203675000Y-172192500I0J-237500D01*
G01*
X203675000Y-172767500D01*
G75*
G02*
X203437500Y-173005000I-237500J0D01*
G01*
G37*
G36*
G01*
X203437500Y-174755000D02*
X202962500Y-174755000D01*
G75*
G02*
X202725000Y-174517500I0J237500D01*
G01*
X202725000Y-173942500D01*
G75*
G02*
X202962500Y-173705000I237500J0D01*
G01*
X203437500Y-173705000D01*
G75*
G02*
X203675000Y-173942500I0J-237500D01*
G01*
X203675000Y-174517500D01*
G75*
G02*
X203437500Y-174755000I-237500J0D01*
G01*
G37*
G36*
G01*
X183117500Y-173245000D02*
X182642500Y-173245000D01*
G75*
G02*
X182405000Y-173007500I0J237500D01*
G01*
X182405000Y-172432500D01*
G75*
G02*
X182642500Y-172195000I237500J0D01*
G01*
X183117500Y-172195000D01*
G75*
G02*
X183355000Y-172432500I0J-237500D01*
G01*
X183355000Y-173007500D01*
G75*
G02*
X183117500Y-173245000I-237500J0D01*
G01*
G37*
G36*
G01*
X183117500Y-174995000D02*
X182642500Y-174995000D01*
G75*
G02*
X182405000Y-174757500I0J237500D01*
G01*
X182405000Y-174182500D01*
G75*
G02*
X182642500Y-173945000I237500J0D01*
G01*
X183117500Y-173945000D01*
G75*
G02*
X183355000Y-174182500I0J-237500D01*
G01*
X183355000Y-174757500D01*
G75*
G02*
X183117500Y-174995000I-237500J0D01*
G01*
G37*
G36*
G01*
X162797500Y-173005000D02*
X162322500Y-173005000D01*
G75*
G02*
X162085000Y-172767500I0J237500D01*
G01*
X162085000Y-172192500D01*
G75*
G02*
X162322500Y-171955000I237500J0D01*
G01*
X162797500Y-171955000D01*
G75*
G02*
X163035000Y-172192500I0J-237500D01*
G01*
X163035000Y-172767500D01*
G75*
G02*
X162797500Y-173005000I-237500J0D01*
G01*
G37*
G36*
G01*
X162797500Y-174755000D02*
X162322500Y-174755000D01*
G75*
G02*
X162085000Y-174517500I0J237500D01*
G01*
X162085000Y-173942500D01*
G75*
G02*
X162322500Y-173705000I237500J0D01*
G01*
X162797500Y-173705000D01*
G75*
G02*
X163035000Y-173942500I0J-237500D01*
G01*
X163035000Y-174517500D01*
G75*
G02*
X162797500Y-174755000I-237500J0D01*
G01*
G37*
G36*
G01*
X132317500Y-173005000D02*
X131842500Y-173005000D01*
G75*
G02*
X131605000Y-172767500I0J237500D01*
G01*
X131605000Y-172192500D01*
G75*
G02*
X131842500Y-171955000I237500J0D01*
G01*
X132317500Y-171955000D01*
G75*
G02*
X132555000Y-172192500I0J-237500D01*
G01*
X132555000Y-172767500D01*
G75*
G02*
X132317500Y-173005000I-237500J0D01*
G01*
G37*
G36*
G01*
X132317500Y-174755000D02*
X131842500Y-174755000D01*
G75*
G02*
X131605000Y-174517500I0J237500D01*
G01*
X131605000Y-173942500D01*
G75*
G02*
X131842500Y-173705000I237500J0D01*
G01*
X132317500Y-173705000D01*
G75*
G02*
X132555000Y-173942500I0J-237500D01*
G01*
X132555000Y-174517500D01*
G75*
G02*
X132317500Y-174755000I-237500J0D01*
G01*
G37*
G36*
G01*
X111997500Y-173005000D02*
X111522500Y-173005000D01*
G75*
G02*
X111285000Y-172767500I0J237500D01*
G01*
X111285000Y-172192500D01*
G75*
G02*
X111522500Y-171955000I237500J0D01*
G01*
X111997500Y-171955000D01*
G75*
G02*
X112235000Y-172192500I0J-237500D01*
G01*
X112235000Y-172767500D01*
G75*
G02*
X111997500Y-173005000I-237500J0D01*
G01*
G37*
G36*
G01*
X111997500Y-174755000D02*
X111522500Y-174755000D01*
G75*
G02*
X111285000Y-174517500I0J237500D01*
G01*
X111285000Y-173942500D01*
G75*
G02*
X111522500Y-173705000I237500J0D01*
G01*
X111997500Y-173705000D01*
G75*
G02*
X112235000Y-173942500I0J-237500D01*
G01*
X112235000Y-174517500D01*
G75*
G02*
X111997500Y-174755000I-237500J0D01*
G01*
G37*
G36*
G01*
X91677500Y-173005000D02*
X91202500Y-173005000D01*
G75*
G02*
X90965000Y-172767500I0J237500D01*
G01*
X90965000Y-172192500D01*
G75*
G02*
X91202500Y-171955000I237500J0D01*
G01*
X91677500Y-171955000D01*
G75*
G02*
X91915000Y-172192500I0J-237500D01*
G01*
X91915000Y-172767500D01*
G75*
G02*
X91677500Y-173005000I-237500J0D01*
G01*
G37*
G36*
G01*
X91677500Y-174755000D02*
X91202500Y-174755000D01*
G75*
G02*
X90965000Y-174517500I0J237500D01*
G01*
X90965000Y-173942500D01*
G75*
G02*
X91202500Y-173705000I237500J0D01*
G01*
X91677500Y-173705000D01*
G75*
G02*
X91915000Y-173942500I0J-237500D01*
G01*
X91915000Y-174517500D01*
G75*
G02*
X91677500Y-174755000I-237500J0D01*
G01*
G37*
G36*
G01*
X71357500Y-173245000D02*
X70882500Y-173245000D01*
G75*
G02*
X70645000Y-173007500I0J237500D01*
G01*
X70645000Y-172432500D01*
G75*
G02*
X70882500Y-172195000I237500J0D01*
G01*
X71357500Y-172195000D01*
G75*
G02*
X71595000Y-172432500I0J-237500D01*
G01*
X71595000Y-173007500D01*
G75*
G02*
X71357500Y-173245000I-237500J0D01*
G01*
G37*
G36*
G01*
X71357500Y-174995000D02*
X70882500Y-174995000D01*
G75*
G02*
X70645000Y-174757500I0J237500D01*
G01*
X70645000Y-174182500D01*
G75*
G02*
X70882500Y-173945000I237500J0D01*
G01*
X71357500Y-173945000D01*
G75*
G02*
X71595000Y-174182500I0J-237500D01*
G01*
X71595000Y-174757500D01*
G75*
G02*
X71357500Y-174995000I-237500J0D01*
G01*
G37*
G36*
G01*
X51037500Y-173245000D02*
X50562500Y-173245000D01*
G75*
G02*
X50325000Y-173007500I0J237500D01*
G01*
X50325000Y-172432500D01*
G75*
G02*
X50562500Y-172195000I237500J0D01*
G01*
X51037500Y-172195000D01*
G75*
G02*
X51275000Y-172432500I0J-237500D01*
G01*
X51275000Y-173007500D01*
G75*
G02*
X51037500Y-173245000I-237500J0D01*
G01*
G37*
G36*
G01*
X51037500Y-174995000D02*
X50562500Y-174995000D01*
G75*
G02*
X50325000Y-174757500I0J237500D01*
G01*
X50325000Y-174182500D01*
G75*
G02*
X50562500Y-173945000I237500J0D01*
G01*
X51037500Y-173945000D01*
G75*
G02*
X51275000Y-174182500I0J-237500D01*
G01*
X51275000Y-174757500D01*
G75*
G02*
X51037500Y-174995000I-237500J0D01*
G01*
G37*
G36*
G01*
X355837500Y-153560000D02*
X355362500Y-153560000D01*
G75*
G02*
X355125000Y-153322500I0J237500D01*
G01*
X355125000Y-152747500D01*
G75*
G02*
X355362500Y-152510000I237500J0D01*
G01*
X355837500Y-152510000D01*
G75*
G02*
X356075000Y-152747500I0J-237500D01*
G01*
X356075000Y-153322500D01*
G75*
G02*
X355837500Y-153560000I-237500J0D01*
G01*
G37*
G36*
G01*
X355837500Y-155310000D02*
X355362500Y-155310000D01*
G75*
G02*
X355125000Y-155072500I0J237500D01*
G01*
X355125000Y-154497500D01*
G75*
G02*
X355362500Y-154260000I237500J0D01*
G01*
X355837500Y-154260000D01*
G75*
G02*
X356075000Y-154497500I0J-237500D01*
G01*
X356075000Y-155072500D01*
G75*
G02*
X355837500Y-155310000I-237500J0D01*
G01*
G37*
G36*
G01*
X335517500Y-153560000D02*
X335042500Y-153560000D01*
G75*
G02*
X334805000Y-153322500I0J237500D01*
G01*
X334805000Y-152747500D01*
G75*
G02*
X335042500Y-152510000I237500J0D01*
G01*
X335517500Y-152510000D01*
G75*
G02*
X335755000Y-152747500I0J-237500D01*
G01*
X335755000Y-153322500D01*
G75*
G02*
X335517500Y-153560000I-237500J0D01*
G01*
G37*
G36*
G01*
X335517500Y-155310000D02*
X335042500Y-155310000D01*
G75*
G02*
X334805000Y-155072500I0J237500D01*
G01*
X334805000Y-154497500D01*
G75*
G02*
X335042500Y-154260000I237500J0D01*
G01*
X335517500Y-154260000D01*
G75*
G02*
X335755000Y-154497500I0J-237500D01*
G01*
X335755000Y-155072500D01*
G75*
G02*
X335517500Y-155310000I-237500J0D01*
G01*
G37*
G36*
G01*
X315197500Y-153560000D02*
X314722500Y-153560000D01*
G75*
G02*
X314485000Y-153322500I0J237500D01*
G01*
X314485000Y-152747500D01*
G75*
G02*
X314722500Y-152510000I237500J0D01*
G01*
X315197500Y-152510000D01*
G75*
G02*
X315435000Y-152747500I0J-237500D01*
G01*
X315435000Y-153322500D01*
G75*
G02*
X315197500Y-153560000I-237500J0D01*
G01*
G37*
G36*
G01*
X315197500Y-155310000D02*
X314722500Y-155310000D01*
G75*
G02*
X314485000Y-155072500I0J237500D01*
G01*
X314485000Y-154497500D01*
G75*
G02*
X314722500Y-154260000I237500J0D01*
G01*
X315197500Y-154260000D01*
G75*
G02*
X315435000Y-154497500I0J-237500D01*
G01*
X315435000Y-155072500D01*
G75*
G02*
X315197500Y-155310000I-237500J0D01*
G01*
G37*
G36*
G01*
X294877500Y-153560000D02*
X294402500Y-153560000D01*
G75*
G02*
X294165000Y-153322500I0J237500D01*
G01*
X294165000Y-152747500D01*
G75*
G02*
X294402500Y-152510000I237500J0D01*
G01*
X294877500Y-152510000D01*
G75*
G02*
X295115000Y-152747500I0J-237500D01*
G01*
X295115000Y-153322500D01*
G75*
G02*
X294877500Y-153560000I-237500J0D01*
G01*
G37*
G36*
G01*
X294877500Y-155310000D02*
X294402500Y-155310000D01*
G75*
G02*
X294165000Y-155072500I0J237500D01*
G01*
X294165000Y-154497500D01*
G75*
G02*
X294402500Y-154260000I237500J0D01*
G01*
X294877500Y-154260000D01*
G75*
G02*
X295115000Y-154497500I0J-237500D01*
G01*
X295115000Y-155072500D01*
G75*
G02*
X294877500Y-155310000I-237500J0D01*
G01*
G37*
G36*
G01*
X274557500Y-153560000D02*
X274082500Y-153560000D01*
G75*
G02*
X273845000Y-153322500I0J237500D01*
G01*
X273845000Y-152747500D01*
G75*
G02*
X274082500Y-152510000I237500J0D01*
G01*
X274557500Y-152510000D01*
G75*
G02*
X274795000Y-152747500I0J-237500D01*
G01*
X274795000Y-153322500D01*
G75*
G02*
X274557500Y-153560000I-237500J0D01*
G01*
G37*
G36*
G01*
X274557500Y-155310000D02*
X274082500Y-155310000D01*
G75*
G02*
X273845000Y-155072500I0J237500D01*
G01*
X273845000Y-154497500D01*
G75*
G02*
X274082500Y-154260000I237500J0D01*
G01*
X274557500Y-154260000D01*
G75*
G02*
X274795000Y-154497500I0J-237500D01*
G01*
X274795000Y-155072500D01*
G75*
G02*
X274557500Y-155310000I-237500J0D01*
G01*
G37*
G36*
G01*
X244077500Y-153560000D02*
X243602500Y-153560000D01*
G75*
G02*
X243365000Y-153322500I0J237500D01*
G01*
X243365000Y-152747500D01*
G75*
G02*
X243602500Y-152510000I237500J0D01*
G01*
X244077500Y-152510000D01*
G75*
G02*
X244315000Y-152747500I0J-237500D01*
G01*
X244315000Y-153322500D01*
G75*
G02*
X244077500Y-153560000I-237500J0D01*
G01*
G37*
G36*
G01*
X244077500Y-155310000D02*
X243602500Y-155310000D01*
G75*
G02*
X243365000Y-155072500I0J237500D01*
G01*
X243365000Y-154497500D01*
G75*
G02*
X243602500Y-154260000I237500J0D01*
G01*
X244077500Y-154260000D01*
G75*
G02*
X244315000Y-154497500I0J-237500D01*
G01*
X244315000Y-155072500D01*
G75*
G02*
X244077500Y-155310000I-237500J0D01*
G01*
G37*
G36*
G01*
X223757500Y-153320000D02*
X223282500Y-153320000D01*
G75*
G02*
X223045000Y-153082500I0J237500D01*
G01*
X223045000Y-152507500D01*
G75*
G02*
X223282500Y-152270000I237500J0D01*
G01*
X223757500Y-152270000D01*
G75*
G02*
X223995000Y-152507500I0J-237500D01*
G01*
X223995000Y-153082500D01*
G75*
G02*
X223757500Y-153320000I-237500J0D01*
G01*
G37*
G36*
G01*
X223757500Y-155070000D02*
X223282500Y-155070000D01*
G75*
G02*
X223045000Y-154832500I0J237500D01*
G01*
X223045000Y-154257500D01*
G75*
G02*
X223282500Y-154020000I237500J0D01*
G01*
X223757500Y-154020000D01*
G75*
G02*
X223995000Y-154257500I0J-237500D01*
G01*
X223995000Y-154832500D01*
G75*
G02*
X223757500Y-155070000I-237500J0D01*
G01*
G37*
G36*
G01*
X203437500Y-153320000D02*
X202962500Y-153320000D01*
G75*
G02*
X202725000Y-153082500I0J237500D01*
G01*
X202725000Y-152507500D01*
G75*
G02*
X202962500Y-152270000I237500J0D01*
G01*
X203437500Y-152270000D01*
G75*
G02*
X203675000Y-152507500I0J-237500D01*
G01*
X203675000Y-153082500D01*
G75*
G02*
X203437500Y-153320000I-237500J0D01*
G01*
G37*
G36*
G01*
X203437500Y-155070000D02*
X202962500Y-155070000D01*
G75*
G02*
X202725000Y-154832500I0J237500D01*
G01*
X202725000Y-154257500D01*
G75*
G02*
X202962500Y-154020000I237500J0D01*
G01*
X203437500Y-154020000D01*
G75*
G02*
X203675000Y-154257500I0J-237500D01*
G01*
X203675000Y-154832500D01*
G75*
G02*
X203437500Y-155070000I-237500J0D01*
G01*
G37*
G36*
G01*
X183117500Y-153320000D02*
X182642500Y-153320000D01*
G75*
G02*
X182405000Y-153082500I0J237500D01*
G01*
X182405000Y-152507500D01*
G75*
G02*
X182642500Y-152270000I237500J0D01*
G01*
X183117500Y-152270000D01*
G75*
G02*
X183355000Y-152507500I0J-237500D01*
G01*
X183355000Y-153082500D01*
G75*
G02*
X183117500Y-153320000I-237500J0D01*
G01*
G37*
G36*
G01*
X183117500Y-155070000D02*
X182642500Y-155070000D01*
G75*
G02*
X182405000Y-154832500I0J237500D01*
G01*
X182405000Y-154257500D01*
G75*
G02*
X182642500Y-154020000I237500J0D01*
G01*
X183117500Y-154020000D01*
G75*
G02*
X183355000Y-154257500I0J-237500D01*
G01*
X183355000Y-154832500D01*
G75*
G02*
X183117500Y-155070000I-237500J0D01*
G01*
G37*
G36*
G01*
X162797500Y-153320000D02*
X162322500Y-153320000D01*
G75*
G02*
X162085000Y-153082500I0J237500D01*
G01*
X162085000Y-152507500D01*
G75*
G02*
X162322500Y-152270000I237500J0D01*
G01*
X162797500Y-152270000D01*
G75*
G02*
X163035000Y-152507500I0J-237500D01*
G01*
X163035000Y-153082500D01*
G75*
G02*
X162797500Y-153320000I-237500J0D01*
G01*
G37*
G36*
G01*
X162797500Y-155070000D02*
X162322500Y-155070000D01*
G75*
G02*
X162085000Y-154832500I0J237500D01*
G01*
X162085000Y-154257500D01*
G75*
G02*
X162322500Y-154020000I237500J0D01*
G01*
X162797500Y-154020000D01*
G75*
G02*
X163035000Y-154257500I0J-237500D01*
G01*
X163035000Y-154832500D01*
G75*
G02*
X162797500Y-155070000I-237500J0D01*
G01*
G37*
G36*
G01*
X132317500Y-153560000D02*
X131842500Y-153560000D01*
G75*
G02*
X131605000Y-153322500I0J237500D01*
G01*
X131605000Y-152747500D01*
G75*
G02*
X131842500Y-152510000I237500J0D01*
G01*
X132317500Y-152510000D01*
G75*
G02*
X132555000Y-152747500I0J-237500D01*
G01*
X132555000Y-153322500D01*
G75*
G02*
X132317500Y-153560000I-237500J0D01*
G01*
G37*
G36*
G01*
X132317500Y-155310000D02*
X131842500Y-155310000D01*
G75*
G02*
X131605000Y-155072500I0J237500D01*
G01*
X131605000Y-154497500D01*
G75*
G02*
X131842500Y-154260000I237500J0D01*
G01*
X132317500Y-154260000D01*
G75*
G02*
X132555000Y-154497500I0J-237500D01*
G01*
X132555000Y-155072500D01*
G75*
G02*
X132317500Y-155310000I-237500J0D01*
G01*
G37*
G36*
G01*
X111997500Y-153320000D02*
X111522500Y-153320000D01*
G75*
G02*
X111285000Y-153082500I0J237500D01*
G01*
X111285000Y-152507500D01*
G75*
G02*
X111522500Y-152270000I237500J0D01*
G01*
X111997500Y-152270000D01*
G75*
G02*
X112235000Y-152507500I0J-237500D01*
G01*
X112235000Y-153082500D01*
G75*
G02*
X111997500Y-153320000I-237500J0D01*
G01*
G37*
G36*
G01*
X111997500Y-155070000D02*
X111522500Y-155070000D01*
G75*
G02*
X111285000Y-154832500I0J237500D01*
G01*
X111285000Y-154257500D01*
G75*
G02*
X111522500Y-154020000I237500J0D01*
G01*
X111997500Y-154020000D01*
G75*
G02*
X112235000Y-154257500I0J-237500D01*
G01*
X112235000Y-154832500D01*
G75*
G02*
X111997500Y-155070000I-237500J0D01*
G01*
G37*
G36*
G01*
X91677500Y-153560000D02*
X91202500Y-153560000D01*
G75*
G02*
X90965000Y-153322500I0J237500D01*
G01*
X90965000Y-152747500D01*
G75*
G02*
X91202500Y-152510000I237500J0D01*
G01*
X91677500Y-152510000D01*
G75*
G02*
X91915000Y-152747500I0J-237500D01*
G01*
X91915000Y-153322500D01*
G75*
G02*
X91677500Y-153560000I-237500J0D01*
G01*
G37*
G36*
G01*
X91677500Y-155310000D02*
X91202500Y-155310000D01*
G75*
G02*
X90965000Y-155072500I0J237500D01*
G01*
X90965000Y-154497500D01*
G75*
G02*
X91202500Y-154260000I237500J0D01*
G01*
X91677500Y-154260000D01*
G75*
G02*
X91915000Y-154497500I0J-237500D01*
G01*
X91915000Y-155072500D01*
G75*
G02*
X91677500Y-155310000I-237500J0D01*
G01*
G37*
G36*
G01*
X71357500Y-153560000D02*
X70882500Y-153560000D01*
G75*
G02*
X70645000Y-153322500I0J237500D01*
G01*
X70645000Y-152747500D01*
G75*
G02*
X70882500Y-152510000I237500J0D01*
G01*
X71357500Y-152510000D01*
G75*
G02*
X71595000Y-152747500I0J-237500D01*
G01*
X71595000Y-153322500D01*
G75*
G02*
X71357500Y-153560000I-237500J0D01*
G01*
G37*
G36*
G01*
X71357500Y-155310000D02*
X70882500Y-155310000D01*
G75*
G02*
X70645000Y-155072500I0J237500D01*
G01*
X70645000Y-154497500D01*
G75*
G02*
X70882500Y-154260000I237500J0D01*
G01*
X71357500Y-154260000D01*
G75*
G02*
X71595000Y-154497500I0J-237500D01*
G01*
X71595000Y-155072500D01*
G75*
G02*
X71357500Y-155310000I-237500J0D01*
G01*
G37*
M02*
