G04 #@! TF.GenerationSoftware,KiCad,Pcbnew,5.1.6+dfsg1-1*
G04 #@! TF.CreationDate,2021-04-10T12:15:03+02:00*
G04 #@! TF.ProjectId,xFaders_keys,78466164-6572-4735-9f6b-6579732e6b69,rev?*
G04 #@! TF.SameCoordinates,Original*
G04 #@! TF.FileFunction,Legend,Bot*
G04 #@! TF.FilePolarity,Positive*
%FSLAX46Y46*%
G04 Gerber Fmt 4.6, Leading zero omitted, Abs format (unit mm)*
G04 Created by KiCad (PCBNEW 5.1.6+dfsg1-1) date 2021-04-10 12:15:03*
%MOMM*%
%LPD*%
G01*
G04 APERTURE LIST*
%ADD10C,0.300000*%
%ADD11C,0.120000*%
%ADD12C,0.100000*%
%ADD13C,0.150000*%
G04 APERTURE END LIST*
D10*
X131468571Y-141077142D02*
X130325714Y-141077142D01*
X130897142Y-141648571D02*
X130897142Y-140505714D01*
X128897142Y-140148571D02*
X129611428Y-140148571D01*
X129682857Y-140862857D01*
X129611428Y-140791428D01*
X129468571Y-140720000D01*
X129111428Y-140720000D01*
X128968571Y-140791428D01*
X128897142Y-140862857D01*
X128825714Y-141005714D01*
X128825714Y-141362857D01*
X128897142Y-141505714D01*
X128968571Y-141577142D01*
X129111428Y-141648571D01*
X129468571Y-141648571D01*
X129611428Y-141577142D01*
X129682857Y-141505714D01*
X128397142Y-140148571D02*
X127897142Y-141648571D01*
X127397142Y-140148571D01*
X116712857Y-140220000D02*
X116855714Y-140148571D01*
X117070000Y-140148571D01*
X117284285Y-140220000D01*
X117427142Y-140362857D01*
X117498571Y-140505714D01*
X117570000Y-140791428D01*
X117570000Y-141005714D01*
X117498571Y-141291428D01*
X117427142Y-141434285D01*
X117284285Y-141577142D01*
X117070000Y-141648571D01*
X116927142Y-141648571D01*
X116712857Y-141577142D01*
X116641428Y-141505714D01*
X116641428Y-141005714D01*
X116927142Y-141005714D01*
X115998571Y-141648571D02*
X115998571Y-140148571D01*
X115141428Y-141648571D01*
X115141428Y-140148571D01*
X114427142Y-141648571D02*
X114427142Y-140148571D01*
X114070000Y-140148571D01*
X113855714Y-140220000D01*
X113712857Y-140362857D01*
X113641428Y-140505714D01*
X113570000Y-140791428D01*
X113570000Y-141005714D01*
X113641428Y-141291428D01*
X113712857Y-141434285D01*
X113855714Y-141577142D01*
X114070000Y-141648571D01*
X114427142Y-141648571D01*
X388492857Y-144665000D02*
X388635714Y-144593571D01*
X388850000Y-144593571D01*
X389064285Y-144665000D01*
X389207142Y-144807857D01*
X389278571Y-144950714D01*
X389350000Y-145236428D01*
X389350000Y-145450714D01*
X389278571Y-145736428D01*
X389207142Y-145879285D01*
X389064285Y-146022142D01*
X388850000Y-146093571D01*
X388707142Y-146093571D01*
X388492857Y-146022142D01*
X388421428Y-145950714D01*
X388421428Y-145450714D01*
X388707142Y-145450714D01*
X387778571Y-146093571D02*
X387778571Y-144593571D01*
X386921428Y-146093571D01*
X386921428Y-144593571D01*
X386207142Y-146093571D02*
X386207142Y-144593571D01*
X385850000Y-144593571D01*
X385635714Y-144665000D01*
X385492857Y-144807857D01*
X385421428Y-144950714D01*
X385350000Y-145236428D01*
X385350000Y-145450714D01*
X385421428Y-145736428D01*
X385492857Y-145879285D01*
X385635714Y-146022142D01*
X385850000Y-146093571D01*
X386207142Y-146093571D01*
X383563571Y-145522142D02*
X382420714Y-145522142D01*
X382992142Y-146093571D02*
X382992142Y-144950714D01*
X380992142Y-144593571D02*
X381706428Y-144593571D01*
X381777857Y-145307857D01*
X381706428Y-145236428D01*
X381563571Y-145165000D01*
X381206428Y-145165000D01*
X381063571Y-145236428D01*
X380992142Y-145307857D01*
X380920714Y-145450714D01*
X380920714Y-145807857D01*
X380992142Y-145950714D01*
X381063571Y-146022142D01*
X381206428Y-146093571D01*
X381563571Y-146093571D01*
X381706428Y-146022142D01*
X381777857Y-145950714D01*
X380492142Y-144593571D02*
X379992142Y-146093571D01*
X379492142Y-144593571D01*
D11*
X120590000Y-139640000D02*
X120590000Y-140970000D01*
X121920000Y-139640000D02*
X120590000Y-139640000D01*
X123190000Y-139640000D02*
X123190000Y-142300000D01*
X123190000Y-142300000D02*
X125790000Y-142300000D01*
X123190000Y-139640000D02*
X125790000Y-139640000D01*
X125790000Y-139640000D02*
X125790000Y-142300000D01*
D12*
G36*
X303920000Y-176259999D02*
G01*
X303020000Y-177159999D01*
X303920000Y-177159999D01*
X303920000Y-176259999D01*
G37*
X303920000Y-176259999D02*
X303020000Y-177159999D01*
X303920000Y-177159999D01*
X303920000Y-176259999D01*
G36*
X121040000Y-176259999D02*
G01*
X120140000Y-177159999D01*
X121040000Y-177159999D01*
X121040000Y-176259999D01*
G37*
X121040000Y-176259999D02*
X120140000Y-177159999D01*
X121040000Y-177159999D01*
X121040000Y-176259999D01*
G36*
X80400000Y-176259999D02*
G01*
X79500000Y-177159999D01*
X80400000Y-177159999D01*
X80400000Y-176259999D01*
G37*
X80400000Y-176259999D02*
X79500000Y-177159999D01*
X80400000Y-177159999D01*
X80400000Y-176259999D01*
G36*
X364880000Y-176259999D02*
G01*
X363980000Y-177159999D01*
X364880000Y-177159999D01*
X364880000Y-176259999D01*
G37*
X364880000Y-176259999D02*
X363980000Y-177159999D01*
X364880000Y-177159999D01*
X364880000Y-176259999D01*
G36*
X344560000Y-176259999D02*
G01*
X343660000Y-177159999D01*
X344560000Y-177159999D01*
X344560000Y-176259999D01*
G37*
X344560000Y-176259999D02*
X343660000Y-177159999D01*
X344560000Y-177159999D01*
X344560000Y-176259999D01*
G36*
X324240000Y-176259999D02*
G01*
X323340000Y-177159999D01*
X324240000Y-177159999D01*
X324240000Y-176259999D01*
G37*
X324240000Y-176259999D02*
X323340000Y-177159999D01*
X324240000Y-177159999D01*
X324240000Y-176259999D01*
G36*
X283600000Y-176259999D02*
G01*
X282700000Y-177159999D01*
X283600000Y-177159999D01*
X283600000Y-176259999D01*
G37*
X283600000Y-176259999D02*
X282700000Y-177159999D01*
X283600000Y-177159999D01*
X283600000Y-176259999D01*
G36*
X253120000Y-176259999D02*
G01*
X252220000Y-177159999D01*
X253120000Y-177159999D01*
X253120000Y-176259999D01*
G37*
X253120000Y-176259999D02*
X252220000Y-177159999D01*
X253120000Y-177159999D01*
X253120000Y-176259999D01*
G36*
X232800000Y-176259999D02*
G01*
X231900000Y-177159999D01*
X232800000Y-177159999D01*
X232800000Y-176259999D01*
G37*
X232800000Y-176259999D02*
X231900000Y-177159999D01*
X232800000Y-177159999D01*
X232800000Y-176259999D01*
G36*
X212480000Y-176259999D02*
G01*
X211580000Y-177159999D01*
X212480000Y-177159999D01*
X212480000Y-176259999D01*
G37*
X212480000Y-176259999D02*
X211580000Y-177159999D01*
X212480000Y-177159999D01*
X212480000Y-176259999D01*
G36*
X192160000Y-176259999D02*
G01*
X191260000Y-177159999D01*
X192160000Y-177159999D01*
X192160000Y-176259999D01*
G37*
X192160000Y-176259999D02*
X191260000Y-177159999D01*
X192160000Y-177159999D01*
X192160000Y-176259999D01*
G36*
X171840000Y-176259999D02*
G01*
X170940000Y-177159999D01*
X171840000Y-177159999D01*
X171840000Y-176259999D01*
G37*
X171840000Y-176259999D02*
X170940000Y-177159999D01*
X171840000Y-177159999D01*
X171840000Y-176259999D01*
G36*
X141360000Y-176259999D02*
G01*
X140460000Y-177159999D01*
X141360000Y-177159999D01*
X141360000Y-176259999D01*
G37*
X141360000Y-176259999D02*
X140460000Y-177159999D01*
X141360000Y-177159999D01*
X141360000Y-176259999D01*
G36*
X100720000Y-176259999D02*
G01*
X99820000Y-177159999D01*
X100720000Y-177159999D01*
X100720000Y-176259999D01*
G37*
X100720000Y-176259999D02*
X99820000Y-177159999D01*
X100720000Y-177159999D01*
X100720000Y-176259999D01*
G36*
X60080000Y-176259999D02*
G01*
X59180000Y-177159999D01*
X60080000Y-177159999D01*
X60080000Y-176259999D01*
G37*
X60080000Y-176259999D02*
X59180000Y-177159999D01*
X60080000Y-177159999D01*
X60080000Y-176259999D01*
G36*
X364880000Y-155939999D02*
G01*
X363980000Y-156839999D01*
X364880000Y-156839999D01*
X364880000Y-155939999D01*
G37*
X364880000Y-155939999D02*
X363980000Y-156839999D01*
X364880000Y-156839999D01*
X364880000Y-155939999D01*
G36*
X344560000Y-155939999D02*
G01*
X343660000Y-156839999D01*
X344560000Y-156839999D01*
X344560000Y-155939999D01*
G37*
X344560000Y-155939999D02*
X343660000Y-156839999D01*
X344560000Y-156839999D01*
X344560000Y-155939999D01*
G36*
X324240000Y-155939999D02*
G01*
X323340000Y-156839999D01*
X324240000Y-156839999D01*
X324240000Y-155939999D01*
G37*
X324240000Y-155939999D02*
X323340000Y-156839999D01*
X324240000Y-156839999D01*
X324240000Y-155939999D01*
G36*
X303920000Y-155939999D02*
G01*
X303020000Y-156839999D01*
X303920000Y-156839999D01*
X303920000Y-155939999D01*
G37*
X303920000Y-155939999D02*
X303020000Y-156839999D01*
X303920000Y-156839999D01*
X303920000Y-155939999D01*
G36*
X283600000Y-155939999D02*
G01*
X282700000Y-156839999D01*
X283600000Y-156839999D01*
X283600000Y-155939999D01*
G37*
X283600000Y-155939999D02*
X282700000Y-156839999D01*
X283600000Y-156839999D01*
X283600000Y-155939999D01*
G36*
X253120000Y-155939999D02*
G01*
X252220000Y-156839999D01*
X253120000Y-156839999D01*
X253120000Y-155939999D01*
G37*
X253120000Y-155939999D02*
X252220000Y-156839999D01*
X253120000Y-156839999D01*
X253120000Y-155939999D01*
G36*
X232800000Y-155939999D02*
G01*
X231900000Y-156839999D01*
X232800000Y-156839999D01*
X232800000Y-155939999D01*
G37*
X232800000Y-155939999D02*
X231900000Y-156839999D01*
X232800000Y-156839999D01*
X232800000Y-155939999D01*
G36*
X212480000Y-155939999D02*
G01*
X211580000Y-156839999D01*
X212480000Y-156839999D01*
X212480000Y-155939999D01*
G37*
X212480000Y-155939999D02*
X211580000Y-156839999D01*
X212480000Y-156839999D01*
X212480000Y-155939999D01*
G36*
X192160000Y-155939999D02*
G01*
X191260000Y-156839999D01*
X192160000Y-156839999D01*
X192160000Y-155939999D01*
G37*
X192160000Y-155939999D02*
X191260000Y-156839999D01*
X192160000Y-156839999D01*
X192160000Y-155939999D01*
G36*
X171840000Y-155939999D02*
G01*
X170940000Y-156839999D01*
X171840000Y-156839999D01*
X171840000Y-155939999D01*
G37*
X171840000Y-155939999D02*
X170940000Y-156839999D01*
X171840000Y-156839999D01*
X171840000Y-155939999D01*
G36*
X141360000Y-155939999D02*
G01*
X140460000Y-156839999D01*
X141360000Y-156839999D01*
X141360000Y-155939999D01*
G37*
X141360000Y-155939999D02*
X140460000Y-156839999D01*
X141360000Y-156839999D01*
X141360000Y-155939999D01*
G36*
X121040000Y-155939999D02*
G01*
X120140000Y-156839999D01*
X121040000Y-156839999D01*
X121040000Y-155939999D01*
G37*
X121040000Y-155939999D02*
X120140000Y-156839999D01*
X121040000Y-156839999D01*
X121040000Y-155939999D01*
G36*
X100720000Y-155939999D02*
G01*
X99820000Y-156839999D01*
X100720000Y-156839999D01*
X100720000Y-155939999D01*
G37*
X100720000Y-155939999D02*
X99820000Y-156839999D01*
X100720000Y-156839999D01*
X100720000Y-155939999D01*
G36*
X80400000Y-155939999D02*
G01*
X79500000Y-156839999D01*
X80400000Y-156839999D01*
X80400000Y-155939999D01*
G37*
X80400000Y-155939999D02*
X79500000Y-156839999D01*
X80400000Y-156839999D01*
X80400000Y-155939999D01*
G36*
X60080000Y-155939999D02*
G01*
X59180000Y-156839999D01*
X60080000Y-156839999D01*
X60080000Y-155939999D01*
G37*
X60080000Y-155939999D02*
X59180000Y-156839999D01*
X60080000Y-156839999D01*
X60080000Y-155939999D01*
D11*
X51310000Y-154081267D02*
X51310000Y-153738733D01*
X50290000Y-154081267D02*
X50290000Y-153738733D01*
X387410000Y-143570000D02*
X387410000Y-142240000D01*
X386080000Y-143570000D02*
X387410000Y-143570000D01*
X384810000Y-143570000D02*
X384810000Y-140910000D01*
X384810000Y-140910000D02*
X382210000Y-140910000D01*
X384810000Y-143570000D02*
X382210000Y-143570000D01*
X382210000Y-143570000D02*
X382210000Y-140910000D01*
X356110000Y-173766267D02*
X356110000Y-173423733D01*
X355090000Y-173766267D02*
X355090000Y-173423733D01*
X335790000Y-173766267D02*
X335790000Y-173423733D01*
X334770000Y-173766267D02*
X334770000Y-173423733D01*
X315470000Y-173766267D02*
X315470000Y-173423733D01*
X314450000Y-173766267D02*
X314450000Y-173423733D01*
X295150000Y-173766267D02*
X295150000Y-173423733D01*
X294130000Y-173766267D02*
X294130000Y-173423733D01*
X274830000Y-173766267D02*
X274830000Y-173423733D01*
X273810000Y-173766267D02*
X273810000Y-173423733D01*
X244350000Y-173766267D02*
X244350000Y-173423733D01*
X243330000Y-173766267D02*
X243330000Y-173423733D01*
X224030000Y-173766267D02*
X224030000Y-173423733D01*
X223010000Y-173766267D02*
X223010000Y-173423733D01*
X203710000Y-173526267D02*
X203710000Y-173183733D01*
X202690000Y-173526267D02*
X202690000Y-173183733D01*
X183390000Y-173766267D02*
X183390000Y-173423733D01*
X182370000Y-173766267D02*
X182370000Y-173423733D01*
X163070000Y-173526267D02*
X163070000Y-173183733D01*
X162050000Y-173526267D02*
X162050000Y-173183733D01*
X132590000Y-173526267D02*
X132590000Y-173183733D01*
X131570000Y-173526267D02*
X131570000Y-173183733D01*
X112270000Y-173526267D02*
X112270000Y-173183733D01*
X111250000Y-173526267D02*
X111250000Y-173183733D01*
X91950000Y-173526267D02*
X91950000Y-173183733D01*
X90930000Y-173526267D02*
X90930000Y-173183733D01*
X71630000Y-173766267D02*
X71630000Y-173423733D01*
X70610000Y-173766267D02*
X70610000Y-173423733D01*
X51310000Y-173766267D02*
X51310000Y-173423733D01*
X50290000Y-173766267D02*
X50290000Y-173423733D01*
X356110000Y-154081267D02*
X356110000Y-153738733D01*
X355090000Y-154081267D02*
X355090000Y-153738733D01*
X335790000Y-154081267D02*
X335790000Y-153738733D01*
X334770000Y-154081267D02*
X334770000Y-153738733D01*
X315470000Y-154081267D02*
X315470000Y-153738733D01*
X314450000Y-154081267D02*
X314450000Y-153738733D01*
X295150000Y-154081267D02*
X295150000Y-153738733D01*
X294130000Y-154081267D02*
X294130000Y-153738733D01*
X274830000Y-154081267D02*
X274830000Y-153738733D01*
X273810000Y-154081267D02*
X273810000Y-153738733D01*
X244350000Y-154081267D02*
X244350000Y-153738733D01*
X243330000Y-154081267D02*
X243330000Y-153738733D01*
X224030000Y-153841267D02*
X224030000Y-153498733D01*
X223010000Y-153841267D02*
X223010000Y-153498733D01*
X203710000Y-153841267D02*
X203710000Y-153498733D01*
X202690000Y-153841267D02*
X202690000Y-153498733D01*
X183390000Y-153841267D02*
X183390000Y-153498733D01*
X182370000Y-153841267D02*
X182370000Y-153498733D01*
X163070000Y-153841267D02*
X163070000Y-153498733D01*
X162050000Y-153841267D02*
X162050000Y-153498733D01*
X132590000Y-154081267D02*
X132590000Y-153738733D01*
X131570000Y-154081267D02*
X131570000Y-153738733D01*
X112270000Y-153841267D02*
X112270000Y-153498733D01*
X111250000Y-153841267D02*
X111250000Y-153498733D01*
X91950000Y-154081267D02*
X91950000Y-153738733D01*
X90930000Y-154081267D02*
X90930000Y-153738733D01*
X71630000Y-154081267D02*
X71630000Y-153738733D01*
X70610000Y-154081267D02*
X70610000Y-153738733D01*
X382210000Y-154245000D02*
X387410000Y-154245000D01*
X382210000Y-177165000D02*
X382210000Y-154245000D01*
X387410000Y-179765000D02*
X387410000Y-154245000D01*
X382210000Y-177165000D02*
X384810000Y-177165000D01*
X384810000Y-177165000D02*
X384810000Y-179765000D01*
X384810000Y-179765000D02*
X387410000Y-179765000D01*
X382210000Y-178435000D02*
X382210000Y-179765000D01*
X382210000Y-179765000D02*
X383540000Y-179765000D01*
D13*
X119042380Y-140636666D02*
X119756666Y-140636666D01*
X119899523Y-140589047D01*
X119994761Y-140493809D01*
X120042380Y-140350952D01*
X120042380Y-140255714D01*
X119042380Y-141017619D02*
X119042380Y-141636666D01*
X119423333Y-141303333D01*
X119423333Y-141446190D01*
X119470952Y-141541428D01*
X119518571Y-141589047D01*
X119613809Y-141636666D01*
X119851904Y-141636666D01*
X119947142Y-141589047D01*
X119994761Y-141541428D01*
X120042380Y-141446190D01*
X120042380Y-141160476D01*
X119994761Y-141065238D01*
X119947142Y-141017619D01*
X49887142Y-153743333D02*
X49934761Y-153695714D01*
X49982380Y-153552857D01*
X49982380Y-153457619D01*
X49934761Y-153314761D01*
X49839523Y-153219523D01*
X49744285Y-153171904D01*
X49553809Y-153124285D01*
X49410952Y-153124285D01*
X49220476Y-153171904D01*
X49125238Y-153219523D01*
X49030000Y-153314761D01*
X48982380Y-153457619D01*
X48982380Y-153552857D01*
X49030000Y-153695714D01*
X49077619Y-153743333D01*
X49982380Y-154695714D02*
X49982380Y-154124285D01*
X49982380Y-154410000D02*
X48982380Y-154410000D01*
X49125238Y-154314761D01*
X49220476Y-154219523D01*
X49268095Y-154124285D01*
X381333333Y-141692380D02*
X381333333Y-142406666D01*
X381380952Y-142549523D01*
X381476190Y-142644761D01*
X381619047Y-142692380D01*
X381714285Y-142692380D01*
X380904761Y-141787619D02*
X380857142Y-141740000D01*
X380761904Y-141692380D01*
X380523809Y-141692380D01*
X380428571Y-141740000D01*
X380380952Y-141787619D01*
X380333333Y-141882857D01*
X380333333Y-141978095D01*
X380380952Y-142120952D01*
X380952380Y-142692380D01*
X380333333Y-142692380D01*
X354687142Y-172952142D02*
X354734761Y-172904523D01*
X354782380Y-172761666D01*
X354782380Y-172666428D01*
X354734761Y-172523571D01*
X354639523Y-172428333D01*
X354544285Y-172380714D01*
X354353809Y-172333095D01*
X354210952Y-172333095D01*
X354020476Y-172380714D01*
X353925238Y-172428333D01*
X353830000Y-172523571D01*
X353782380Y-172666428D01*
X353782380Y-172761666D01*
X353830000Y-172904523D01*
X353877619Y-172952142D01*
X353782380Y-173285476D02*
X353782380Y-173904523D01*
X354163333Y-173571190D01*
X354163333Y-173714047D01*
X354210952Y-173809285D01*
X354258571Y-173856904D01*
X354353809Y-173904523D01*
X354591904Y-173904523D01*
X354687142Y-173856904D01*
X354734761Y-173809285D01*
X354782380Y-173714047D01*
X354782380Y-173428333D01*
X354734761Y-173333095D01*
X354687142Y-173285476D01*
X353782380Y-174523571D02*
X353782380Y-174618809D01*
X353830000Y-174714047D01*
X353877619Y-174761666D01*
X353972857Y-174809285D01*
X354163333Y-174856904D01*
X354401428Y-174856904D01*
X354591904Y-174809285D01*
X354687142Y-174761666D01*
X354734761Y-174714047D01*
X354782380Y-174618809D01*
X354782380Y-174523571D01*
X354734761Y-174428333D01*
X354687142Y-174380714D01*
X354591904Y-174333095D01*
X354401428Y-174285476D01*
X354163333Y-174285476D01*
X353972857Y-174333095D01*
X353877619Y-174380714D01*
X353830000Y-174428333D01*
X353782380Y-174523571D01*
X334367142Y-172952142D02*
X334414761Y-172904523D01*
X334462380Y-172761666D01*
X334462380Y-172666428D01*
X334414761Y-172523571D01*
X334319523Y-172428333D01*
X334224285Y-172380714D01*
X334033809Y-172333095D01*
X333890952Y-172333095D01*
X333700476Y-172380714D01*
X333605238Y-172428333D01*
X333510000Y-172523571D01*
X333462380Y-172666428D01*
X333462380Y-172761666D01*
X333510000Y-172904523D01*
X333557619Y-172952142D01*
X333557619Y-173333095D02*
X333510000Y-173380714D01*
X333462380Y-173475952D01*
X333462380Y-173714047D01*
X333510000Y-173809285D01*
X333557619Y-173856904D01*
X333652857Y-173904523D01*
X333748095Y-173904523D01*
X333890952Y-173856904D01*
X334462380Y-173285476D01*
X334462380Y-173904523D01*
X334462380Y-174380714D02*
X334462380Y-174571190D01*
X334414761Y-174666428D01*
X334367142Y-174714047D01*
X334224285Y-174809285D01*
X334033809Y-174856904D01*
X333652857Y-174856904D01*
X333557619Y-174809285D01*
X333510000Y-174761666D01*
X333462380Y-174666428D01*
X333462380Y-174475952D01*
X333510000Y-174380714D01*
X333557619Y-174333095D01*
X333652857Y-174285476D01*
X333890952Y-174285476D01*
X333986190Y-174333095D01*
X334033809Y-174380714D01*
X334081428Y-174475952D01*
X334081428Y-174666428D01*
X334033809Y-174761666D01*
X333986190Y-174809285D01*
X333890952Y-174856904D01*
X314047142Y-172952142D02*
X314094761Y-172904523D01*
X314142380Y-172761666D01*
X314142380Y-172666428D01*
X314094761Y-172523571D01*
X313999523Y-172428333D01*
X313904285Y-172380714D01*
X313713809Y-172333095D01*
X313570952Y-172333095D01*
X313380476Y-172380714D01*
X313285238Y-172428333D01*
X313190000Y-172523571D01*
X313142380Y-172666428D01*
X313142380Y-172761666D01*
X313190000Y-172904523D01*
X313237619Y-172952142D01*
X313237619Y-173333095D02*
X313190000Y-173380714D01*
X313142380Y-173475952D01*
X313142380Y-173714047D01*
X313190000Y-173809285D01*
X313237619Y-173856904D01*
X313332857Y-173904523D01*
X313428095Y-173904523D01*
X313570952Y-173856904D01*
X314142380Y-173285476D01*
X314142380Y-173904523D01*
X313570952Y-174475952D02*
X313523333Y-174380714D01*
X313475714Y-174333095D01*
X313380476Y-174285476D01*
X313332857Y-174285476D01*
X313237619Y-174333095D01*
X313190000Y-174380714D01*
X313142380Y-174475952D01*
X313142380Y-174666428D01*
X313190000Y-174761666D01*
X313237619Y-174809285D01*
X313332857Y-174856904D01*
X313380476Y-174856904D01*
X313475714Y-174809285D01*
X313523333Y-174761666D01*
X313570952Y-174666428D01*
X313570952Y-174475952D01*
X313618571Y-174380714D01*
X313666190Y-174333095D01*
X313761428Y-174285476D01*
X313951904Y-174285476D01*
X314047142Y-174333095D01*
X314094761Y-174380714D01*
X314142380Y-174475952D01*
X314142380Y-174666428D01*
X314094761Y-174761666D01*
X314047142Y-174809285D01*
X313951904Y-174856904D01*
X313761428Y-174856904D01*
X313666190Y-174809285D01*
X313618571Y-174761666D01*
X313570952Y-174666428D01*
X293727142Y-172952142D02*
X293774761Y-172904523D01*
X293822380Y-172761666D01*
X293822380Y-172666428D01*
X293774761Y-172523571D01*
X293679523Y-172428333D01*
X293584285Y-172380714D01*
X293393809Y-172333095D01*
X293250952Y-172333095D01*
X293060476Y-172380714D01*
X292965238Y-172428333D01*
X292870000Y-172523571D01*
X292822380Y-172666428D01*
X292822380Y-172761666D01*
X292870000Y-172904523D01*
X292917619Y-172952142D01*
X292917619Y-173333095D02*
X292870000Y-173380714D01*
X292822380Y-173475952D01*
X292822380Y-173714047D01*
X292870000Y-173809285D01*
X292917619Y-173856904D01*
X293012857Y-173904523D01*
X293108095Y-173904523D01*
X293250952Y-173856904D01*
X293822380Y-173285476D01*
X293822380Y-173904523D01*
X292822380Y-174237857D02*
X292822380Y-174904523D01*
X293822380Y-174475952D01*
X273407142Y-172952142D02*
X273454761Y-172904523D01*
X273502380Y-172761666D01*
X273502380Y-172666428D01*
X273454761Y-172523571D01*
X273359523Y-172428333D01*
X273264285Y-172380714D01*
X273073809Y-172333095D01*
X272930952Y-172333095D01*
X272740476Y-172380714D01*
X272645238Y-172428333D01*
X272550000Y-172523571D01*
X272502380Y-172666428D01*
X272502380Y-172761666D01*
X272550000Y-172904523D01*
X272597619Y-172952142D01*
X272597619Y-173333095D02*
X272550000Y-173380714D01*
X272502380Y-173475952D01*
X272502380Y-173714047D01*
X272550000Y-173809285D01*
X272597619Y-173856904D01*
X272692857Y-173904523D01*
X272788095Y-173904523D01*
X272930952Y-173856904D01*
X273502380Y-173285476D01*
X273502380Y-173904523D01*
X272502380Y-174761666D02*
X272502380Y-174571190D01*
X272550000Y-174475952D01*
X272597619Y-174428333D01*
X272740476Y-174333095D01*
X272930952Y-174285476D01*
X273311904Y-174285476D01*
X273407142Y-174333095D01*
X273454761Y-174380714D01*
X273502380Y-174475952D01*
X273502380Y-174666428D01*
X273454761Y-174761666D01*
X273407142Y-174809285D01*
X273311904Y-174856904D01*
X273073809Y-174856904D01*
X272978571Y-174809285D01*
X272930952Y-174761666D01*
X272883333Y-174666428D01*
X272883333Y-174475952D01*
X272930952Y-174380714D01*
X272978571Y-174333095D01*
X273073809Y-174285476D01*
X242927142Y-172952142D02*
X242974761Y-172904523D01*
X243022380Y-172761666D01*
X243022380Y-172666428D01*
X242974761Y-172523571D01*
X242879523Y-172428333D01*
X242784285Y-172380714D01*
X242593809Y-172333095D01*
X242450952Y-172333095D01*
X242260476Y-172380714D01*
X242165238Y-172428333D01*
X242070000Y-172523571D01*
X242022380Y-172666428D01*
X242022380Y-172761666D01*
X242070000Y-172904523D01*
X242117619Y-172952142D01*
X242117619Y-173333095D02*
X242070000Y-173380714D01*
X242022380Y-173475952D01*
X242022380Y-173714047D01*
X242070000Y-173809285D01*
X242117619Y-173856904D01*
X242212857Y-173904523D01*
X242308095Y-173904523D01*
X242450952Y-173856904D01*
X243022380Y-173285476D01*
X243022380Y-173904523D01*
X242022380Y-174809285D02*
X242022380Y-174333095D01*
X242498571Y-174285476D01*
X242450952Y-174333095D01*
X242403333Y-174428333D01*
X242403333Y-174666428D01*
X242450952Y-174761666D01*
X242498571Y-174809285D01*
X242593809Y-174856904D01*
X242831904Y-174856904D01*
X242927142Y-174809285D01*
X242974761Y-174761666D01*
X243022380Y-174666428D01*
X243022380Y-174428333D01*
X242974761Y-174333095D01*
X242927142Y-174285476D01*
X222607142Y-172952142D02*
X222654761Y-172904523D01*
X222702380Y-172761666D01*
X222702380Y-172666428D01*
X222654761Y-172523571D01*
X222559523Y-172428333D01*
X222464285Y-172380714D01*
X222273809Y-172333095D01*
X222130952Y-172333095D01*
X221940476Y-172380714D01*
X221845238Y-172428333D01*
X221750000Y-172523571D01*
X221702380Y-172666428D01*
X221702380Y-172761666D01*
X221750000Y-172904523D01*
X221797619Y-172952142D01*
X221797619Y-173333095D02*
X221750000Y-173380714D01*
X221702380Y-173475952D01*
X221702380Y-173714047D01*
X221750000Y-173809285D01*
X221797619Y-173856904D01*
X221892857Y-173904523D01*
X221988095Y-173904523D01*
X222130952Y-173856904D01*
X222702380Y-173285476D01*
X222702380Y-173904523D01*
X222035714Y-174761666D02*
X222702380Y-174761666D01*
X221654761Y-174523571D02*
X222369047Y-174285476D01*
X222369047Y-174904523D01*
X202287142Y-172712142D02*
X202334761Y-172664523D01*
X202382380Y-172521666D01*
X202382380Y-172426428D01*
X202334761Y-172283571D01*
X202239523Y-172188333D01*
X202144285Y-172140714D01*
X201953809Y-172093095D01*
X201810952Y-172093095D01*
X201620476Y-172140714D01*
X201525238Y-172188333D01*
X201430000Y-172283571D01*
X201382380Y-172426428D01*
X201382380Y-172521666D01*
X201430000Y-172664523D01*
X201477619Y-172712142D01*
X201477619Y-173093095D02*
X201430000Y-173140714D01*
X201382380Y-173235952D01*
X201382380Y-173474047D01*
X201430000Y-173569285D01*
X201477619Y-173616904D01*
X201572857Y-173664523D01*
X201668095Y-173664523D01*
X201810952Y-173616904D01*
X202382380Y-173045476D01*
X202382380Y-173664523D01*
X201382380Y-173997857D02*
X201382380Y-174616904D01*
X201763333Y-174283571D01*
X201763333Y-174426428D01*
X201810952Y-174521666D01*
X201858571Y-174569285D01*
X201953809Y-174616904D01*
X202191904Y-174616904D01*
X202287142Y-174569285D01*
X202334761Y-174521666D01*
X202382380Y-174426428D01*
X202382380Y-174140714D01*
X202334761Y-174045476D01*
X202287142Y-173997857D01*
X181967142Y-172952142D02*
X182014761Y-172904523D01*
X182062380Y-172761666D01*
X182062380Y-172666428D01*
X182014761Y-172523571D01*
X181919523Y-172428333D01*
X181824285Y-172380714D01*
X181633809Y-172333095D01*
X181490952Y-172333095D01*
X181300476Y-172380714D01*
X181205238Y-172428333D01*
X181110000Y-172523571D01*
X181062380Y-172666428D01*
X181062380Y-172761666D01*
X181110000Y-172904523D01*
X181157619Y-172952142D01*
X181157619Y-173333095D02*
X181110000Y-173380714D01*
X181062380Y-173475952D01*
X181062380Y-173714047D01*
X181110000Y-173809285D01*
X181157619Y-173856904D01*
X181252857Y-173904523D01*
X181348095Y-173904523D01*
X181490952Y-173856904D01*
X182062380Y-173285476D01*
X182062380Y-173904523D01*
X181157619Y-174285476D02*
X181110000Y-174333095D01*
X181062380Y-174428333D01*
X181062380Y-174666428D01*
X181110000Y-174761666D01*
X181157619Y-174809285D01*
X181252857Y-174856904D01*
X181348095Y-174856904D01*
X181490952Y-174809285D01*
X182062380Y-174237857D01*
X182062380Y-174856904D01*
X161647142Y-172712142D02*
X161694761Y-172664523D01*
X161742380Y-172521666D01*
X161742380Y-172426428D01*
X161694761Y-172283571D01*
X161599523Y-172188333D01*
X161504285Y-172140714D01*
X161313809Y-172093095D01*
X161170952Y-172093095D01*
X160980476Y-172140714D01*
X160885238Y-172188333D01*
X160790000Y-172283571D01*
X160742380Y-172426428D01*
X160742380Y-172521666D01*
X160790000Y-172664523D01*
X160837619Y-172712142D01*
X160837619Y-173093095D02*
X160790000Y-173140714D01*
X160742380Y-173235952D01*
X160742380Y-173474047D01*
X160790000Y-173569285D01*
X160837619Y-173616904D01*
X160932857Y-173664523D01*
X161028095Y-173664523D01*
X161170952Y-173616904D01*
X161742380Y-173045476D01*
X161742380Y-173664523D01*
X161742380Y-174616904D02*
X161742380Y-174045476D01*
X161742380Y-174331190D02*
X160742380Y-174331190D01*
X160885238Y-174235952D01*
X160980476Y-174140714D01*
X161028095Y-174045476D01*
X131167142Y-172712142D02*
X131214761Y-172664523D01*
X131262380Y-172521666D01*
X131262380Y-172426428D01*
X131214761Y-172283571D01*
X131119523Y-172188333D01*
X131024285Y-172140714D01*
X130833809Y-172093095D01*
X130690952Y-172093095D01*
X130500476Y-172140714D01*
X130405238Y-172188333D01*
X130310000Y-172283571D01*
X130262380Y-172426428D01*
X130262380Y-172521666D01*
X130310000Y-172664523D01*
X130357619Y-172712142D01*
X130357619Y-173093095D02*
X130310000Y-173140714D01*
X130262380Y-173235952D01*
X130262380Y-173474047D01*
X130310000Y-173569285D01*
X130357619Y-173616904D01*
X130452857Y-173664523D01*
X130548095Y-173664523D01*
X130690952Y-173616904D01*
X131262380Y-173045476D01*
X131262380Y-173664523D01*
X130262380Y-174283571D02*
X130262380Y-174378809D01*
X130310000Y-174474047D01*
X130357619Y-174521666D01*
X130452857Y-174569285D01*
X130643333Y-174616904D01*
X130881428Y-174616904D01*
X131071904Y-174569285D01*
X131167142Y-174521666D01*
X131214761Y-174474047D01*
X131262380Y-174378809D01*
X131262380Y-174283571D01*
X131214761Y-174188333D01*
X131167142Y-174140714D01*
X131071904Y-174093095D01*
X130881428Y-174045476D01*
X130643333Y-174045476D01*
X130452857Y-174093095D01*
X130357619Y-174140714D01*
X130310000Y-174188333D01*
X130262380Y-174283571D01*
X110847142Y-172712142D02*
X110894761Y-172664523D01*
X110942380Y-172521666D01*
X110942380Y-172426428D01*
X110894761Y-172283571D01*
X110799523Y-172188333D01*
X110704285Y-172140714D01*
X110513809Y-172093095D01*
X110370952Y-172093095D01*
X110180476Y-172140714D01*
X110085238Y-172188333D01*
X109990000Y-172283571D01*
X109942380Y-172426428D01*
X109942380Y-172521666D01*
X109990000Y-172664523D01*
X110037619Y-172712142D01*
X110942380Y-173664523D02*
X110942380Y-173093095D01*
X110942380Y-173378809D02*
X109942380Y-173378809D01*
X110085238Y-173283571D01*
X110180476Y-173188333D01*
X110228095Y-173093095D01*
X110942380Y-174140714D02*
X110942380Y-174331190D01*
X110894761Y-174426428D01*
X110847142Y-174474047D01*
X110704285Y-174569285D01*
X110513809Y-174616904D01*
X110132857Y-174616904D01*
X110037619Y-174569285D01*
X109990000Y-174521666D01*
X109942380Y-174426428D01*
X109942380Y-174235952D01*
X109990000Y-174140714D01*
X110037619Y-174093095D01*
X110132857Y-174045476D01*
X110370952Y-174045476D01*
X110466190Y-174093095D01*
X110513809Y-174140714D01*
X110561428Y-174235952D01*
X110561428Y-174426428D01*
X110513809Y-174521666D01*
X110466190Y-174569285D01*
X110370952Y-174616904D01*
X90527142Y-172712142D02*
X90574761Y-172664523D01*
X90622380Y-172521666D01*
X90622380Y-172426428D01*
X90574761Y-172283571D01*
X90479523Y-172188333D01*
X90384285Y-172140714D01*
X90193809Y-172093095D01*
X90050952Y-172093095D01*
X89860476Y-172140714D01*
X89765238Y-172188333D01*
X89670000Y-172283571D01*
X89622380Y-172426428D01*
X89622380Y-172521666D01*
X89670000Y-172664523D01*
X89717619Y-172712142D01*
X90622380Y-173664523D02*
X90622380Y-173093095D01*
X90622380Y-173378809D02*
X89622380Y-173378809D01*
X89765238Y-173283571D01*
X89860476Y-173188333D01*
X89908095Y-173093095D01*
X90050952Y-174235952D02*
X90003333Y-174140714D01*
X89955714Y-174093095D01*
X89860476Y-174045476D01*
X89812857Y-174045476D01*
X89717619Y-174093095D01*
X89670000Y-174140714D01*
X89622380Y-174235952D01*
X89622380Y-174426428D01*
X89670000Y-174521666D01*
X89717619Y-174569285D01*
X89812857Y-174616904D01*
X89860476Y-174616904D01*
X89955714Y-174569285D01*
X90003333Y-174521666D01*
X90050952Y-174426428D01*
X90050952Y-174235952D01*
X90098571Y-174140714D01*
X90146190Y-174093095D01*
X90241428Y-174045476D01*
X90431904Y-174045476D01*
X90527142Y-174093095D01*
X90574761Y-174140714D01*
X90622380Y-174235952D01*
X90622380Y-174426428D01*
X90574761Y-174521666D01*
X90527142Y-174569285D01*
X90431904Y-174616904D01*
X90241428Y-174616904D01*
X90146190Y-174569285D01*
X90098571Y-174521666D01*
X90050952Y-174426428D01*
X70207142Y-172952142D02*
X70254761Y-172904523D01*
X70302380Y-172761666D01*
X70302380Y-172666428D01*
X70254761Y-172523571D01*
X70159523Y-172428333D01*
X70064285Y-172380714D01*
X69873809Y-172333095D01*
X69730952Y-172333095D01*
X69540476Y-172380714D01*
X69445238Y-172428333D01*
X69350000Y-172523571D01*
X69302380Y-172666428D01*
X69302380Y-172761666D01*
X69350000Y-172904523D01*
X69397619Y-172952142D01*
X70302380Y-173904523D02*
X70302380Y-173333095D01*
X70302380Y-173618809D02*
X69302380Y-173618809D01*
X69445238Y-173523571D01*
X69540476Y-173428333D01*
X69588095Y-173333095D01*
X69302380Y-174237857D02*
X69302380Y-174904523D01*
X70302380Y-174475952D01*
X49887142Y-172952142D02*
X49934761Y-172904523D01*
X49982380Y-172761666D01*
X49982380Y-172666428D01*
X49934761Y-172523571D01*
X49839523Y-172428333D01*
X49744285Y-172380714D01*
X49553809Y-172333095D01*
X49410952Y-172333095D01*
X49220476Y-172380714D01*
X49125238Y-172428333D01*
X49030000Y-172523571D01*
X48982380Y-172666428D01*
X48982380Y-172761666D01*
X49030000Y-172904523D01*
X49077619Y-172952142D01*
X49982380Y-173904523D02*
X49982380Y-173333095D01*
X49982380Y-173618809D02*
X48982380Y-173618809D01*
X49125238Y-173523571D01*
X49220476Y-173428333D01*
X49268095Y-173333095D01*
X48982380Y-174761666D02*
X48982380Y-174571190D01*
X49030000Y-174475952D01*
X49077619Y-174428333D01*
X49220476Y-174333095D01*
X49410952Y-174285476D01*
X49791904Y-174285476D01*
X49887142Y-174333095D01*
X49934761Y-174380714D01*
X49982380Y-174475952D01*
X49982380Y-174666428D01*
X49934761Y-174761666D01*
X49887142Y-174809285D01*
X49791904Y-174856904D01*
X49553809Y-174856904D01*
X49458571Y-174809285D01*
X49410952Y-174761666D01*
X49363333Y-174666428D01*
X49363333Y-174475952D01*
X49410952Y-174380714D01*
X49458571Y-174333095D01*
X49553809Y-174285476D01*
X354687142Y-153267142D02*
X354734761Y-153219523D01*
X354782380Y-153076666D01*
X354782380Y-152981428D01*
X354734761Y-152838571D01*
X354639523Y-152743333D01*
X354544285Y-152695714D01*
X354353809Y-152648095D01*
X354210952Y-152648095D01*
X354020476Y-152695714D01*
X353925238Y-152743333D01*
X353830000Y-152838571D01*
X353782380Y-152981428D01*
X353782380Y-153076666D01*
X353830000Y-153219523D01*
X353877619Y-153267142D01*
X354782380Y-154219523D02*
X354782380Y-153648095D01*
X354782380Y-153933809D02*
X353782380Y-153933809D01*
X353925238Y-153838571D01*
X354020476Y-153743333D01*
X354068095Y-153648095D01*
X353782380Y-155124285D02*
X353782380Y-154648095D01*
X354258571Y-154600476D01*
X354210952Y-154648095D01*
X354163333Y-154743333D01*
X354163333Y-154981428D01*
X354210952Y-155076666D01*
X354258571Y-155124285D01*
X354353809Y-155171904D01*
X354591904Y-155171904D01*
X354687142Y-155124285D01*
X354734761Y-155076666D01*
X354782380Y-154981428D01*
X354782380Y-154743333D01*
X354734761Y-154648095D01*
X354687142Y-154600476D01*
X334367142Y-153267142D02*
X334414761Y-153219523D01*
X334462380Y-153076666D01*
X334462380Y-152981428D01*
X334414761Y-152838571D01*
X334319523Y-152743333D01*
X334224285Y-152695714D01*
X334033809Y-152648095D01*
X333890952Y-152648095D01*
X333700476Y-152695714D01*
X333605238Y-152743333D01*
X333510000Y-152838571D01*
X333462380Y-152981428D01*
X333462380Y-153076666D01*
X333510000Y-153219523D01*
X333557619Y-153267142D01*
X334462380Y-154219523D02*
X334462380Y-153648095D01*
X334462380Y-153933809D02*
X333462380Y-153933809D01*
X333605238Y-153838571D01*
X333700476Y-153743333D01*
X333748095Y-153648095D01*
X333795714Y-155076666D02*
X334462380Y-155076666D01*
X333414761Y-154838571D02*
X334129047Y-154600476D01*
X334129047Y-155219523D01*
X314047142Y-153267142D02*
X314094761Y-153219523D01*
X314142380Y-153076666D01*
X314142380Y-152981428D01*
X314094761Y-152838571D01*
X313999523Y-152743333D01*
X313904285Y-152695714D01*
X313713809Y-152648095D01*
X313570952Y-152648095D01*
X313380476Y-152695714D01*
X313285238Y-152743333D01*
X313190000Y-152838571D01*
X313142380Y-152981428D01*
X313142380Y-153076666D01*
X313190000Y-153219523D01*
X313237619Y-153267142D01*
X314142380Y-154219523D02*
X314142380Y-153648095D01*
X314142380Y-153933809D02*
X313142380Y-153933809D01*
X313285238Y-153838571D01*
X313380476Y-153743333D01*
X313428095Y-153648095D01*
X313142380Y-154552857D02*
X313142380Y-155171904D01*
X313523333Y-154838571D01*
X313523333Y-154981428D01*
X313570952Y-155076666D01*
X313618571Y-155124285D01*
X313713809Y-155171904D01*
X313951904Y-155171904D01*
X314047142Y-155124285D01*
X314094761Y-155076666D01*
X314142380Y-154981428D01*
X314142380Y-154695714D01*
X314094761Y-154600476D01*
X314047142Y-154552857D01*
X293727142Y-153267142D02*
X293774761Y-153219523D01*
X293822380Y-153076666D01*
X293822380Y-152981428D01*
X293774761Y-152838571D01*
X293679523Y-152743333D01*
X293584285Y-152695714D01*
X293393809Y-152648095D01*
X293250952Y-152648095D01*
X293060476Y-152695714D01*
X292965238Y-152743333D01*
X292870000Y-152838571D01*
X292822380Y-152981428D01*
X292822380Y-153076666D01*
X292870000Y-153219523D01*
X292917619Y-153267142D01*
X293822380Y-154219523D02*
X293822380Y-153648095D01*
X293822380Y-153933809D02*
X292822380Y-153933809D01*
X292965238Y-153838571D01*
X293060476Y-153743333D01*
X293108095Y-153648095D01*
X292917619Y-154600476D02*
X292870000Y-154648095D01*
X292822380Y-154743333D01*
X292822380Y-154981428D01*
X292870000Y-155076666D01*
X292917619Y-155124285D01*
X293012857Y-155171904D01*
X293108095Y-155171904D01*
X293250952Y-155124285D01*
X293822380Y-154552857D01*
X293822380Y-155171904D01*
X273407142Y-153267142D02*
X273454761Y-153219523D01*
X273502380Y-153076666D01*
X273502380Y-152981428D01*
X273454761Y-152838571D01*
X273359523Y-152743333D01*
X273264285Y-152695714D01*
X273073809Y-152648095D01*
X272930952Y-152648095D01*
X272740476Y-152695714D01*
X272645238Y-152743333D01*
X272550000Y-152838571D01*
X272502380Y-152981428D01*
X272502380Y-153076666D01*
X272550000Y-153219523D01*
X272597619Y-153267142D01*
X273502380Y-154219523D02*
X273502380Y-153648095D01*
X273502380Y-153933809D02*
X272502380Y-153933809D01*
X272645238Y-153838571D01*
X272740476Y-153743333D01*
X272788095Y-153648095D01*
X273502380Y-155171904D02*
X273502380Y-154600476D01*
X273502380Y-154886190D02*
X272502380Y-154886190D01*
X272645238Y-154790952D01*
X272740476Y-154695714D01*
X272788095Y-154600476D01*
X242927142Y-153267142D02*
X242974761Y-153219523D01*
X243022380Y-153076666D01*
X243022380Y-152981428D01*
X242974761Y-152838571D01*
X242879523Y-152743333D01*
X242784285Y-152695714D01*
X242593809Y-152648095D01*
X242450952Y-152648095D01*
X242260476Y-152695714D01*
X242165238Y-152743333D01*
X242070000Y-152838571D01*
X242022380Y-152981428D01*
X242022380Y-153076666D01*
X242070000Y-153219523D01*
X242117619Y-153267142D01*
X243022380Y-154219523D02*
X243022380Y-153648095D01*
X243022380Y-153933809D02*
X242022380Y-153933809D01*
X242165238Y-153838571D01*
X242260476Y-153743333D01*
X242308095Y-153648095D01*
X242022380Y-154838571D02*
X242022380Y-154933809D01*
X242070000Y-155029047D01*
X242117619Y-155076666D01*
X242212857Y-155124285D01*
X242403333Y-155171904D01*
X242641428Y-155171904D01*
X242831904Y-155124285D01*
X242927142Y-155076666D01*
X242974761Y-155029047D01*
X243022380Y-154933809D01*
X243022380Y-154838571D01*
X242974761Y-154743333D01*
X242927142Y-154695714D01*
X242831904Y-154648095D01*
X242641428Y-154600476D01*
X242403333Y-154600476D01*
X242212857Y-154648095D01*
X242117619Y-154695714D01*
X242070000Y-154743333D01*
X242022380Y-154838571D01*
X222607142Y-153503333D02*
X222654761Y-153455714D01*
X222702380Y-153312857D01*
X222702380Y-153217619D01*
X222654761Y-153074761D01*
X222559523Y-152979523D01*
X222464285Y-152931904D01*
X222273809Y-152884285D01*
X222130952Y-152884285D01*
X221940476Y-152931904D01*
X221845238Y-152979523D01*
X221750000Y-153074761D01*
X221702380Y-153217619D01*
X221702380Y-153312857D01*
X221750000Y-153455714D01*
X221797619Y-153503333D01*
X222702380Y-153979523D02*
X222702380Y-154170000D01*
X222654761Y-154265238D01*
X222607142Y-154312857D01*
X222464285Y-154408095D01*
X222273809Y-154455714D01*
X221892857Y-154455714D01*
X221797619Y-154408095D01*
X221750000Y-154360476D01*
X221702380Y-154265238D01*
X221702380Y-154074761D01*
X221750000Y-153979523D01*
X221797619Y-153931904D01*
X221892857Y-153884285D01*
X222130952Y-153884285D01*
X222226190Y-153931904D01*
X222273809Y-153979523D01*
X222321428Y-154074761D01*
X222321428Y-154265238D01*
X222273809Y-154360476D01*
X222226190Y-154408095D01*
X222130952Y-154455714D01*
X202287142Y-153503333D02*
X202334761Y-153455714D01*
X202382380Y-153312857D01*
X202382380Y-153217619D01*
X202334761Y-153074761D01*
X202239523Y-152979523D01*
X202144285Y-152931904D01*
X201953809Y-152884285D01*
X201810952Y-152884285D01*
X201620476Y-152931904D01*
X201525238Y-152979523D01*
X201430000Y-153074761D01*
X201382380Y-153217619D01*
X201382380Y-153312857D01*
X201430000Y-153455714D01*
X201477619Y-153503333D01*
X201810952Y-154074761D02*
X201763333Y-153979523D01*
X201715714Y-153931904D01*
X201620476Y-153884285D01*
X201572857Y-153884285D01*
X201477619Y-153931904D01*
X201430000Y-153979523D01*
X201382380Y-154074761D01*
X201382380Y-154265238D01*
X201430000Y-154360476D01*
X201477619Y-154408095D01*
X201572857Y-154455714D01*
X201620476Y-154455714D01*
X201715714Y-154408095D01*
X201763333Y-154360476D01*
X201810952Y-154265238D01*
X201810952Y-154074761D01*
X201858571Y-153979523D01*
X201906190Y-153931904D01*
X202001428Y-153884285D01*
X202191904Y-153884285D01*
X202287142Y-153931904D01*
X202334761Y-153979523D01*
X202382380Y-154074761D01*
X202382380Y-154265238D01*
X202334761Y-154360476D01*
X202287142Y-154408095D01*
X202191904Y-154455714D01*
X202001428Y-154455714D01*
X201906190Y-154408095D01*
X201858571Y-154360476D01*
X201810952Y-154265238D01*
X181967142Y-153503333D02*
X182014761Y-153455714D01*
X182062380Y-153312857D01*
X182062380Y-153217619D01*
X182014761Y-153074761D01*
X181919523Y-152979523D01*
X181824285Y-152931904D01*
X181633809Y-152884285D01*
X181490952Y-152884285D01*
X181300476Y-152931904D01*
X181205238Y-152979523D01*
X181110000Y-153074761D01*
X181062380Y-153217619D01*
X181062380Y-153312857D01*
X181110000Y-153455714D01*
X181157619Y-153503333D01*
X181062380Y-153836666D02*
X181062380Y-154503333D01*
X182062380Y-154074761D01*
X161647142Y-153503333D02*
X161694761Y-153455714D01*
X161742380Y-153312857D01*
X161742380Y-153217619D01*
X161694761Y-153074761D01*
X161599523Y-152979523D01*
X161504285Y-152931904D01*
X161313809Y-152884285D01*
X161170952Y-152884285D01*
X160980476Y-152931904D01*
X160885238Y-152979523D01*
X160790000Y-153074761D01*
X160742380Y-153217619D01*
X160742380Y-153312857D01*
X160790000Y-153455714D01*
X160837619Y-153503333D01*
X160742380Y-154360476D02*
X160742380Y-154170000D01*
X160790000Y-154074761D01*
X160837619Y-154027142D01*
X160980476Y-153931904D01*
X161170952Y-153884285D01*
X161551904Y-153884285D01*
X161647142Y-153931904D01*
X161694761Y-153979523D01*
X161742380Y-154074761D01*
X161742380Y-154265238D01*
X161694761Y-154360476D01*
X161647142Y-154408095D01*
X161551904Y-154455714D01*
X161313809Y-154455714D01*
X161218571Y-154408095D01*
X161170952Y-154360476D01*
X161123333Y-154265238D01*
X161123333Y-154074761D01*
X161170952Y-153979523D01*
X161218571Y-153931904D01*
X161313809Y-153884285D01*
X131167142Y-153503333D02*
X131214761Y-153455714D01*
X131262380Y-153312857D01*
X131262380Y-153217619D01*
X131214761Y-153074761D01*
X131119523Y-152979523D01*
X131024285Y-152931904D01*
X130833809Y-152884285D01*
X130690952Y-152884285D01*
X130500476Y-152931904D01*
X130405238Y-152979523D01*
X130310000Y-153074761D01*
X130262380Y-153217619D01*
X130262380Y-153312857D01*
X130310000Y-153455714D01*
X130357619Y-153503333D01*
X130262380Y-154408095D02*
X130262380Y-153931904D01*
X130738571Y-153884285D01*
X130690952Y-153931904D01*
X130643333Y-154027142D01*
X130643333Y-154265238D01*
X130690952Y-154360476D01*
X130738571Y-154408095D01*
X130833809Y-154455714D01*
X131071904Y-154455714D01*
X131167142Y-154408095D01*
X131214761Y-154360476D01*
X131262380Y-154265238D01*
X131262380Y-154027142D01*
X131214761Y-153931904D01*
X131167142Y-153884285D01*
X110847142Y-153503333D02*
X110894761Y-153455714D01*
X110942380Y-153312857D01*
X110942380Y-153217619D01*
X110894761Y-153074761D01*
X110799523Y-152979523D01*
X110704285Y-152931904D01*
X110513809Y-152884285D01*
X110370952Y-152884285D01*
X110180476Y-152931904D01*
X110085238Y-152979523D01*
X109990000Y-153074761D01*
X109942380Y-153217619D01*
X109942380Y-153312857D01*
X109990000Y-153455714D01*
X110037619Y-153503333D01*
X110275714Y-154360476D02*
X110942380Y-154360476D01*
X109894761Y-154122380D02*
X110609047Y-153884285D01*
X110609047Y-154503333D01*
X90527142Y-153743333D02*
X90574761Y-153695714D01*
X90622380Y-153552857D01*
X90622380Y-153457619D01*
X90574761Y-153314761D01*
X90479523Y-153219523D01*
X90384285Y-153171904D01*
X90193809Y-153124285D01*
X90050952Y-153124285D01*
X89860476Y-153171904D01*
X89765238Y-153219523D01*
X89670000Y-153314761D01*
X89622380Y-153457619D01*
X89622380Y-153552857D01*
X89670000Y-153695714D01*
X89717619Y-153743333D01*
X89622380Y-154076666D02*
X89622380Y-154695714D01*
X90003333Y-154362380D01*
X90003333Y-154505238D01*
X90050952Y-154600476D01*
X90098571Y-154648095D01*
X90193809Y-154695714D01*
X90431904Y-154695714D01*
X90527142Y-154648095D01*
X90574761Y-154600476D01*
X90622380Y-154505238D01*
X90622380Y-154219523D01*
X90574761Y-154124285D01*
X90527142Y-154076666D01*
X70207142Y-153743333D02*
X70254761Y-153695714D01*
X70302380Y-153552857D01*
X70302380Y-153457619D01*
X70254761Y-153314761D01*
X70159523Y-153219523D01*
X70064285Y-153171904D01*
X69873809Y-153124285D01*
X69730952Y-153124285D01*
X69540476Y-153171904D01*
X69445238Y-153219523D01*
X69350000Y-153314761D01*
X69302380Y-153457619D01*
X69302380Y-153552857D01*
X69350000Y-153695714D01*
X69397619Y-153743333D01*
X69397619Y-154124285D02*
X69350000Y-154171904D01*
X69302380Y-154267142D01*
X69302380Y-154505238D01*
X69350000Y-154600476D01*
X69397619Y-154648095D01*
X69492857Y-154695714D01*
X69588095Y-154695714D01*
X69730952Y-154648095D01*
X70302380Y-154076666D01*
X70302380Y-154695714D01*
X385143333Y-180217380D02*
X385143333Y-180931666D01*
X385190952Y-181074523D01*
X385286190Y-181169761D01*
X385429047Y-181217380D01*
X385524285Y-181217380D01*
X384143333Y-181217380D02*
X384714761Y-181217380D01*
X384429047Y-181217380D02*
X384429047Y-180217380D01*
X384524285Y-180360238D01*
X384619523Y-180455476D01*
X384714761Y-180503095D01*
M02*
