M48
; DRILL file {KiCad 5.1.6+dfsg1-1} date Sat Apr 10 12:14:59 2021
; FORMAT={-:-/ absolute / inch / decimal}
; #@! TF.CreationDate,2021-04-10T12:14:59+02:00
; #@! TF.GenerationSoftware,Kicad,Pcbnew,5.1.6+dfsg1-1
; #@! TF.FileFunction,NonPlated,1,2,NPTH
FMAT,2
INCH
T1C0.0669
T2C0.1260
T3C0.1575
%
G90
G05
T1
X9.6Y-7.1
X10.0Y-7.1
X14.0Y-6.7
X14.4Y-6.7
X8.0Y-7.1
X8.4Y-7.1
X14.0Y-7.1
X14.4Y-7.1
X10.8Y-5.9
X11.2Y-5.9
X4.4Y-7.1
X4.8Y-7.1
X8.8Y-7.1
X9.2Y-7.1
X4.4Y-5.9
X4.8Y-5.9
X7.2Y-5.9
X7.6Y-5.9
X3.6Y-7.1
X4.0Y-7.1
X3.6Y-6.7
X4.0Y-6.7
X5.2Y-7.1
X5.6Y-7.1
X2.0Y-5.9
X2.4Y-5.9
X13.2Y-6.7
X13.6Y-6.7
X6.4Y-7.1
X6.8Y-7.1
X11.6Y-5.9
X12.0Y-5.9
X10.8Y-7.1
X11.2Y-7.1
X12.4Y-6.7
X12.8Y-6.7
X9.6Y-6.7
X10.0Y-6.7
X9.6Y-5.9
X10.0Y-5.9
X6.4Y-5.9
X6.8Y-5.9
X13.2Y-5.9
X13.6Y-5.9
X4.4Y-6.7
X4.8Y-6.7
X14.0Y-5.9
X14.4Y-5.9
X12.4Y-7.1
X12.8Y-7.1
X5.2Y-5.9
X5.6Y-5.9
X5.2Y-6.7
X5.6Y-6.7
X8.0Y-6.7
X8.4Y-6.7
X7.2Y-6.7
X7.6Y-6.7
X11.6Y-6.7
X12.0Y-6.7
X11.6Y-7.1
X12.0Y-7.1
X8.8Y-6.7
X9.2Y-6.7
X13.2Y-7.1
X13.6Y-7.1
X3.6Y-5.9
X4.0Y-5.9
X2.8Y-6.7
X3.2Y-6.7
X6.4Y-6.7
X6.8Y-6.7
X10.8Y-6.7
X11.2Y-6.7
X2.8Y-5.9
X3.2Y-5.9
X12.4Y-5.9
X12.8Y-5.9
X8.0Y-5.9
X8.4Y-5.9
X8.8Y-5.9
X9.2Y-5.9
X7.2Y-7.1
X7.6Y-7.1
X2.0Y-6.7
X2.4Y-6.7
X2.8Y-7.1
X3.2Y-7.1
X2.0Y-7.1
X2.4Y-7.1
T2
X6.0Y-5.9
X1.65Y-7.1
X1.65Y-6.7
X14.8Y-7.1
X6.0Y-6.7
X1.65Y-5.9
X10.4Y-6.7
X10.4Y-7.1
X14.8Y-5.9
X6.0Y-7.1
X10.4Y-5.9
X14.8Y-6.7
T3
X3.0Y-7.1
X2.2Y-7.1
X9.8Y-7.1
X14.2Y-6.7
X8.2Y-7.1
X14.2Y-7.1
X11.0Y-5.9
X4.6Y-7.1
X9.0Y-7.1
X4.6Y-5.9
X7.4Y-5.9
X3.8Y-7.1
X3.8Y-6.7
X5.4Y-7.1
X2.2Y-5.9
X13.4Y-6.7
X6.6Y-7.1
X11.8Y-5.9
X11.0Y-7.1
X12.6Y-6.7
X9.8Y-6.7
X9.8Y-5.9
X6.6Y-5.9
X13.4Y-5.9
X4.6Y-6.7
X14.2Y-5.9
X12.6Y-7.1
X5.4Y-5.9
X5.4Y-6.7
X8.2Y-6.7
X7.4Y-6.7
X11.8Y-6.7
X11.8Y-7.1
X9.0Y-6.7
X13.4Y-7.1
X3.8Y-5.9
X3.0Y-6.7
X6.6Y-6.7
X11.0Y-6.7
X3.0Y-5.9
X12.6Y-5.9
X8.2Y-5.9
X9.0Y-5.9
X7.4Y-7.1
X2.2Y-6.7
T0
M30
