M48
; DRILL file {KiCad 5.1.6+dfsg1-1} date Sat Apr 10 12:14:59 2021
; FORMAT={-:-/ absolute / inch / decimal}
; #@! TF.CreationDate,2021-04-10T12:14:59+02:00
; #@! TF.GenerationSoftware,Kicad,Pcbnew,5.1.6+dfsg1-1
; #@! TF.FileFunction,Plated,1,2,PTH
FMAT,2
INCH
T1C0.0157
T2C0.0276
T3C0.0315
T4C0.0394
T5C0.0591
%
G90
G05
T1
X2.0Y-6.925
X2.2Y-6.375
X2.8Y-7.425
X3.475Y-7.4
X4.275Y-7.3
X4.8776Y-6.8224
X4.8955Y-6.0154
X4.9Y-5.6
X5.1217Y-7.3533
X5.5Y-6.4035
X6.7Y-6.3285
X9.2705Y-6.0154
X9.2705Y-6.8154
X9.325Y-5.6
X13.6705Y-6.0154
X13.6705Y-6.8154
X14.35Y-6.3285
X14.4Y-6.075
X14.4Y-6.3285
X14.575Y-6.5285
X14.625Y-7.325
X14.675Y-7.325
X14.825Y-7.325
X14.875Y-7.325
X14.9239Y-7.3453
X14.925Y-7.4772
X14.961Y-7.332
X14.9614Y-7.4486
X14.975Y-5.975
X14.9827Y-5.8423
X15.0Y-7.325
X15.0Y-7.4201
T2
X2.2Y-6.3
X2.4Y-6.3
X14.575Y-6.8
X14.575Y-7.0
T3
X7.85Y-5.7
X7.85Y-6.1
X10.65Y-6.5
X10.65Y-6.9
X1.85Y-6.5
X1.85Y-6.9
X6.25Y-5.7
X6.25Y-6.1
X1.85Y-5.7
X1.85Y-6.1
X6.25Y-6.5
X6.25Y-6.9
X2.65Y-6.5
X2.65Y-6.9
X3.45Y-6.5
X3.45Y-6.9
X5.075Y-5.7
X5.075Y-6.1
X7.05Y-5.7
X7.05Y-6.1
X9.45Y-6.5
X9.45Y-6.9
X4.25Y-5.7
X4.25Y-6.1
X9.45Y-5.7
X9.45Y-6.1
X3.45Y-5.7
X3.45Y-6.1
X10.65Y-5.7
X10.65Y-6.1
X12.25Y-5.7
X12.25Y-6.1
X7.05Y-6.5
X7.05Y-6.9
X8.65Y-5.7
X8.65Y-6.1
X13.85Y-6.5
X13.85Y-6.9
X8.65Y-6.5
X8.65Y-6.9
X11.45Y-6.5
X11.45Y-6.9
X12.25Y-6.5
X12.25Y-6.9
X2.65Y-5.7
X2.65Y-6.1
X13.05Y-6.5
X13.05Y-6.9
X7.85Y-6.5
X7.85Y-6.9
X11.45Y-5.7
X11.45Y-6.1
X5.05Y-6.5
X5.05Y-6.9
X13.05Y-5.7
X13.05Y-6.1
X4.25Y-6.5
X4.25Y-6.9
X13.85Y-5.7
X13.85Y-6.1
T4
X4.8Y-5.55
X4.9Y-5.55
X15.1Y-5.6
X15.2Y-5.6
X15.1Y-6.125
X15.1Y-6.225
X15.1Y-6.325
X15.1Y-6.425
X15.1Y-6.525
X15.1Y-6.625
X15.1Y-6.725
X15.1Y-6.825
X15.1Y-6.925
X15.1Y-7.025
X15.2Y-6.125
X15.2Y-6.225
X15.2Y-6.325
X15.2Y-6.425
X15.2Y-6.525
X15.2Y-6.625
X15.2Y-6.725
X15.2Y-6.825
X15.2Y-6.925
X15.2Y-7.025
T5
X8.85Y-6.6
X9.1Y-6.5
X13.3Y-7.3
X13.55Y-7.2
X3.65Y-5.8
X3.9Y-5.7
X2.85Y-6.6
X3.1Y-6.5
X6.45Y-6.6
X6.7Y-6.5
X10.85Y-6.6
X11.1Y-6.5
X2.85Y-5.8
X3.1Y-5.7
X12.45Y-5.8
X12.7Y-5.7
X8.05Y-5.8
X8.3Y-5.7
X8.85Y-5.8
X9.1Y-5.7
X7.3Y-7.3
X7.55Y-7.2
X2.05Y-6.6
X2.3Y-6.5
X2.9Y-7.3
X3.15Y-7.2
X2.1Y-7.3
X2.35Y-7.2
X9.7Y-7.3
X9.95Y-7.2
X14.05Y-6.6
X14.3Y-6.5
X8.1Y-7.3
X8.35Y-7.2
X14.1Y-7.3
X14.35Y-7.2
X10.85Y-5.8
X11.1Y-5.7
X4.5Y-7.3
X4.75Y-7.2
X8.9Y-7.3
X9.15Y-7.2
X4.45Y-5.8
X4.7Y-5.7
X7.25Y-5.8
X7.5Y-5.7
X3.7Y-7.3
X3.95Y-7.2
X3.65Y-6.6
X3.9Y-6.5
X5.3Y-7.3
X5.55Y-7.2
X2.05Y-5.8
X2.3Y-5.7
X13.25Y-6.6
X13.5Y-6.5
X6.5Y-7.3
X6.75Y-7.2
X11.65Y-5.8
X11.9Y-5.7
X10.9Y-7.3
X11.15Y-7.2
X12.45Y-6.6
X12.7Y-6.5
X9.65Y-6.6
X9.9Y-6.5
X9.65Y-5.8
X9.9Y-5.7
X6.45Y-5.8
X6.7Y-5.7
X13.25Y-5.8
X13.5Y-5.7
X4.45Y-6.6
X4.7Y-6.5
X14.05Y-5.8
X14.3Y-5.7
X12.5Y-7.3
X12.75Y-7.2
X5.25Y-5.8
X5.5Y-5.7
X5.25Y-6.6
X5.5Y-6.5
X8.05Y-6.6
X8.3Y-6.5
X7.25Y-6.6
X7.5Y-6.5
X11.65Y-6.6
X11.9Y-6.5
X11.7Y-7.3
X11.95Y-7.2
T0
M30
