G04 #@! TF.GenerationSoftware,KiCad,Pcbnew,5.1.4-e60b266~84~ubuntu18.04.1*
G04 #@! TF.CreationDate,2019-09-03T19:43:04+02:00*
G04 #@! TF.ProjectId,xfaders,78666164-6572-4732-9e6b-696361645f70,rev?*
G04 #@! TF.SameCoordinates,Original*
G04 #@! TF.FileFunction,Soldermask,Top*
G04 #@! TF.FilePolarity,Negative*
%FSLAX46Y46*%
G04 Gerber Fmt 4.6, Leading zero omitted, Abs format (unit mm)*
G04 Created by KiCad (PCBNEW 5.1.4-e60b266~84~ubuntu18.04.1) date 2019-09-03 19:43:04*
%MOMM*%
%LPD*%
G04 APERTURE LIST*
%ADD10C,0.100000*%
G04 APERTURE END LIST*
D10*
G36*
X165923085Y-110137975D02*
G01*
X166278143Y-110285045D01*
X166278145Y-110285046D01*
X166597690Y-110498559D01*
X166869441Y-110770310D01*
X166986204Y-110945059D01*
X167082955Y-111089857D01*
X167230025Y-111444915D01*
X167305000Y-111821842D01*
X167305000Y-112206158D01*
X167230025Y-112583085D01*
X167124529Y-112837775D01*
X167082954Y-112938145D01*
X166869441Y-113257690D01*
X166597690Y-113529441D01*
X166278145Y-113742954D01*
X166278144Y-113742955D01*
X166278143Y-113742955D01*
X165923085Y-113890025D01*
X165546158Y-113965000D01*
X165161842Y-113965000D01*
X164784915Y-113890025D01*
X164429857Y-113742955D01*
X164429856Y-113742955D01*
X164429855Y-113742954D01*
X164110310Y-113529441D01*
X163838559Y-113257690D01*
X163625046Y-112938145D01*
X163583471Y-112837775D01*
X163477975Y-112583085D01*
X163403000Y-112206158D01*
X163403000Y-111821842D01*
X163477975Y-111444915D01*
X163625045Y-111089857D01*
X163721796Y-110945059D01*
X163838559Y-110770310D01*
X164110310Y-110498559D01*
X164429855Y-110285046D01*
X164429857Y-110285045D01*
X164784915Y-110137975D01*
X165161842Y-110063000D01*
X165546158Y-110063000D01*
X165923085Y-110137975D01*
X165923085Y-110137975D01*
G37*
G36*
X74483085Y-110137975D02*
G01*
X74838143Y-110285045D01*
X74838145Y-110285046D01*
X75157690Y-110498559D01*
X75429441Y-110770310D01*
X75546204Y-110945059D01*
X75642955Y-111089857D01*
X75790025Y-111444915D01*
X75865000Y-111821842D01*
X75865000Y-112206158D01*
X75790025Y-112583085D01*
X75684529Y-112837775D01*
X75642954Y-112938145D01*
X75429441Y-113257690D01*
X75157690Y-113529441D01*
X74838145Y-113742954D01*
X74838144Y-113742955D01*
X74838143Y-113742955D01*
X74483085Y-113890025D01*
X74106158Y-113965000D01*
X73721842Y-113965000D01*
X73344915Y-113890025D01*
X72989857Y-113742955D01*
X72989856Y-113742955D01*
X72989855Y-113742954D01*
X72670310Y-113529441D01*
X72398559Y-113257690D01*
X72185046Y-112938145D01*
X72143471Y-112837775D01*
X72037975Y-112583085D01*
X71963000Y-112206158D01*
X71963000Y-111821842D01*
X72037975Y-111444915D01*
X72185045Y-111089857D01*
X72281796Y-110945059D01*
X72398559Y-110770310D01*
X72670310Y-110498559D01*
X72989855Y-110285046D01*
X72989857Y-110285045D01*
X73344915Y-110137975D01*
X73721842Y-110063000D01*
X74106158Y-110063000D01*
X74483085Y-110137975D01*
X74483085Y-110137975D01*
G37*
G36*
X110804143Y-112165913D02*
G01*
X110964562Y-112214576D01*
X111097226Y-112285486D01*
X111112398Y-112293596D01*
X111241979Y-112399941D01*
X111348324Y-112529522D01*
X111348325Y-112529524D01*
X111427344Y-112677358D01*
X111476007Y-112837777D01*
X111492437Y-113004600D01*
X111476007Y-113171423D01*
X111427344Y-113331842D01*
X111356434Y-113464506D01*
X111348324Y-113479678D01*
X111241979Y-113609259D01*
X111112398Y-113715604D01*
X111112396Y-113715605D01*
X110964562Y-113794624D01*
X110804143Y-113843287D01*
X110679124Y-113855600D01*
X110595516Y-113855600D01*
X110470497Y-113843287D01*
X110310078Y-113794624D01*
X110162244Y-113715605D01*
X110162242Y-113715604D01*
X110032661Y-113609259D01*
X109926316Y-113479678D01*
X109918206Y-113464506D01*
X109847296Y-113331842D01*
X109798633Y-113171423D01*
X109782203Y-113004600D01*
X109798633Y-112837777D01*
X109847296Y-112677358D01*
X109926315Y-112529524D01*
X109926316Y-112529522D01*
X110032661Y-112399941D01*
X110162242Y-112293596D01*
X110177414Y-112285486D01*
X110310078Y-112214576D01*
X110470497Y-112165913D01*
X110595516Y-112153600D01*
X110679124Y-112153600D01*
X110804143Y-112165913D01*
X110804143Y-112165913D01*
G37*
G36*
X119820694Y-110807833D02*
G01*
X119993095Y-110860131D01*
X120151983Y-110945058D01*
X120291249Y-111059351D01*
X120405542Y-111198617D01*
X120490469Y-111357505D01*
X120542767Y-111529906D01*
X120560425Y-111709200D01*
X120542767Y-111888494D01*
X120490469Y-112060895D01*
X120405542Y-112219783D01*
X120291249Y-112359049D01*
X120151983Y-112473342D01*
X119993095Y-112558269D01*
X119820694Y-112610567D01*
X119686331Y-112623800D01*
X119073669Y-112623800D01*
X118939306Y-112610567D01*
X118766905Y-112558269D01*
X118608017Y-112473342D01*
X118468751Y-112359049D01*
X118354458Y-112219783D01*
X118269531Y-112060895D01*
X118217233Y-111888494D01*
X118199575Y-111709200D01*
X118217233Y-111529906D01*
X118269531Y-111357505D01*
X118354458Y-111198617D01*
X118468751Y-111059351D01*
X118608017Y-110945058D01*
X118766905Y-110860131D01*
X118939306Y-110807833D01*
X119073669Y-110794600D01*
X119686331Y-110794600D01*
X119820694Y-110807833D01*
X119820694Y-110807833D01*
G37*
G36*
X104580694Y-110807833D02*
G01*
X104753095Y-110860131D01*
X104911983Y-110945058D01*
X105051249Y-111059351D01*
X105165542Y-111198617D01*
X105250469Y-111357505D01*
X105302767Y-111529906D01*
X105320425Y-111709200D01*
X105302767Y-111888494D01*
X105250469Y-112060895D01*
X105165542Y-112219783D01*
X105051249Y-112359049D01*
X104911983Y-112473342D01*
X104753095Y-112558269D01*
X104580694Y-112610567D01*
X104446331Y-112623800D01*
X103833669Y-112623800D01*
X103699306Y-112610567D01*
X103526905Y-112558269D01*
X103368017Y-112473342D01*
X103228751Y-112359049D01*
X103114458Y-112219783D01*
X103029531Y-112060895D01*
X102977233Y-111888494D01*
X102959575Y-111709200D01*
X102977233Y-111529906D01*
X103029531Y-111357505D01*
X103114458Y-111198617D01*
X103228751Y-111059351D01*
X103368017Y-110945058D01*
X103526905Y-110860131D01*
X103699306Y-110807833D01*
X103833669Y-110794600D01*
X104446331Y-110794600D01*
X104580694Y-110807833D01*
X104580694Y-110807833D01*
G37*
G36*
X113877668Y-108477903D02*
G01*
X114032540Y-108542053D01*
X114171921Y-108635185D01*
X114290455Y-108753719D01*
X114383587Y-108893100D01*
X114447737Y-109047972D01*
X114480440Y-109212384D01*
X114480440Y-109380016D01*
X114447737Y-109544428D01*
X114383587Y-109699300D01*
X114290455Y-109838681D01*
X114171921Y-109957215D01*
X114032540Y-110050347D01*
X113877668Y-110114497D01*
X113713256Y-110147200D01*
X113545624Y-110147200D01*
X113381212Y-110114497D01*
X113226340Y-110050347D01*
X113086959Y-109957215D01*
X112968425Y-109838681D01*
X112875293Y-109699300D01*
X112811143Y-109544428D01*
X112778440Y-109380016D01*
X112778440Y-109212384D01*
X112811143Y-109047972D01*
X112875293Y-108893100D01*
X112968425Y-108753719D01*
X113086959Y-108635185D01*
X113226340Y-108542053D01*
X113381212Y-108477903D01*
X113545624Y-108445200D01*
X113713256Y-108445200D01*
X113877668Y-108477903D01*
X113877668Y-108477903D01*
G37*
G36*
X104580694Y-108267833D02*
G01*
X104753095Y-108320131D01*
X104911983Y-108405058D01*
X105051249Y-108519351D01*
X105165542Y-108658617D01*
X105250469Y-108817505D01*
X105302767Y-108989906D01*
X105320425Y-109169200D01*
X105302767Y-109348494D01*
X105250469Y-109520895D01*
X105165542Y-109679783D01*
X105051249Y-109819049D01*
X104911983Y-109933342D01*
X104753095Y-110018269D01*
X104580694Y-110070567D01*
X104446331Y-110083800D01*
X103833669Y-110083800D01*
X103699306Y-110070567D01*
X103526905Y-110018269D01*
X103368017Y-109933342D01*
X103228751Y-109819049D01*
X103114458Y-109679783D01*
X103029531Y-109520895D01*
X102977233Y-109348494D01*
X102959575Y-109169200D01*
X102977233Y-108989906D01*
X103029531Y-108817505D01*
X103114458Y-108658617D01*
X103228751Y-108519351D01*
X103368017Y-108405058D01*
X103526905Y-108320131D01*
X103699306Y-108267833D01*
X103833669Y-108254600D01*
X104446331Y-108254600D01*
X104580694Y-108267833D01*
X104580694Y-108267833D01*
G37*
G36*
X119820694Y-108267833D02*
G01*
X119993095Y-108320131D01*
X120151983Y-108405058D01*
X120291249Y-108519351D01*
X120405542Y-108658617D01*
X120490469Y-108817505D01*
X120542767Y-108989906D01*
X120560425Y-109169200D01*
X120542767Y-109348494D01*
X120490469Y-109520895D01*
X120405542Y-109679783D01*
X120291249Y-109819049D01*
X120151983Y-109933342D01*
X119993095Y-110018269D01*
X119820694Y-110070567D01*
X119686331Y-110083800D01*
X119073669Y-110083800D01*
X118939306Y-110070567D01*
X118766905Y-110018269D01*
X118608017Y-109933342D01*
X118468751Y-109819049D01*
X118354458Y-109679783D01*
X118269531Y-109520895D01*
X118217233Y-109348494D01*
X118199575Y-109169200D01*
X118217233Y-108989906D01*
X118269531Y-108817505D01*
X118354458Y-108658617D01*
X118468751Y-108519351D01*
X118608017Y-108405058D01*
X118766905Y-108320131D01*
X118939306Y-108267833D01*
X119073669Y-108254600D01*
X119686331Y-108254600D01*
X119820694Y-108267833D01*
X119820694Y-108267833D01*
G37*
G36*
X104580694Y-105727833D02*
G01*
X104753095Y-105780131D01*
X104911983Y-105865058D01*
X105051249Y-105979351D01*
X105165542Y-106118617D01*
X105250469Y-106277505D01*
X105302767Y-106449906D01*
X105320425Y-106629200D01*
X105302767Y-106808494D01*
X105250469Y-106980895D01*
X105165542Y-107139783D01*
X105051249Y-107279049D01*
X104911983Y-107393342D01*
X104753095Y-107478269D01*
X104580694Y-107530567D01*
X104446331Y-107543800D01*
X103833669Y-107543800D01*
X103699306Y-107530567D01*
X103526905Y-107478269D01*
X103368017Y-107393342D01*
X103228751Y-107279049D01*
X103114458Y-107139783D01*
X103029531Y-106980895D01*
X102977233Y-106808494D01*
X102959575Y-106629200D01*
X102977233Y-106449906D01*
X103029531Y-106277505D01*
X103114458Y-106118617D01*
X103228751Y-105979351D01*
X103368017Y-105865058D01*
X103526905Y-105780131D01*
X103699306Y-105727833D01*
X103833669Y-105714600D01*
X104446331Y-105714600D01*
X104580694Y-105727833D01*
X104580694Y-105727833D01*
G37*
G36*
X119820694Y-105727833D02*
G01*
X119993095Y-105780131D01*
X120151983Y-105865058D01*
X120291249Y-105979351D01*
X120405542Y-106118617D01*
X120490469Y-106277505D01*
X120542767Y-106449906D01*
X120560425Y-106629200D01*
X120542767Y-106808494D01*
X120490469Y-106980895D01*
X120405542Y-107139783D01*
X120291249Y-107279049D01*
X120151983Y-107393342D01*
X119993095Y-107478269D01*
X119820694Y-107530567D01*
X119686331Y-107543800D01*
X119073669Y-107543800D01*
X118939306Y-107530567D01*
X118766905Y-107478269D01*
X118608017Y-107393342D01*
X118468751Y-107279049D01*
X118354458Y-107139783D01*
X118269531Y-106980895D01*
X118217233Y-106808494D01*
X118199575Y-106629200D01*
X118217233Y-106449906D01*
X118269531Y-106277505D01*
X118354458Y-106118617D01*
X118468751Y-105979351D01*
X118608017Y-105865058D01*
X118766905Y-105780131D01*
X118939306Y-105727833D01*
X119073669Y-105714600D01*
X119686331Y-105714600D01*
X119820694Y-105727833D01*
X119820694Y-105727833D01*
G37*
G36*
X128436823Y-105841313D02*
G01*
X128597242Y-105889976D01*
X128729906Y-105960886D01*
X128745078Y-105968996D01*
X128874659Y-106075341D01*
X128981004Y-106204922D01*
X128981005Y-106204924D01*
X129060024Y-106352758D01*
X129108687Y-106513177D01*
X129125117Y-106680000D01*
X129108687Y-106846823D01*
X129060024Y-107007242D01*
X128989179Y-107139783D01*
X128981004Y-107155078D01*
X128874659Y-107284659D01*
X128745078Y-107391004D01*
X128745076Y-107391005D01*
X128597242Y-107470024D01*
X128436823Y-107518687D01*
X128311804Y-107531000D01*
X128228196Y-107531000D01*
X128103177Y-107518687D01*
X127942758Y-107470024D01*
X127794924Y-107391005D01*
X127794922Y-107391004D01*
X127665341Y-107284659D01*
X127558996Y-107155078D01*
X127550821Y-107139783D01*
X127479976Y-107007242D01*
X127431313Y-106846823D01*
X127414883Y-106680000D01*
X127431313Y-106513177D01*
X127479976Y-106352758D01*
X127558995Y-106204924D01*
X127558996Y-106204922D01*
X127665341Y-106075341D01*
X127794922Y-105968996D01*
X127810094Y-105960886D01*
X127942758Y-105889976D01*
X128103177Y-105841313D01*
X128228196Y-105829000D01*
X128311804Y-105829000D01*
X128436823Y-105841313D01*
X128436823Y-105841313D01*
G37*
G36*
X136056823Y-105841313D02*
G01*
X136217242Y-105889976D01*
X136349906Y-105960886D01*
X136365078Y-105968996D01*
X136494659Y-106075341D01*
X136601004Y-106204922D01*
X136601005Y-106204924D01*
X136680024Y-106352758D01*
X136728687Y-106513177D01*
X136745117Y-106680000D01*
X136728687Y-106846823D01*
X136680024Y-107007242D01*
X136609179Y-107139783D01*
X136601004Y-107155078D01*
X136494659Y-107284659D01*
X136365078Y-107391004D01*
X136365076Y-107391005D01*
X136217242Y-107470024D01*
X136056823Y-107518687D01*
X135931804Y-107531000D01*
X135848196Y-107531000D01*
X135723177Y-107518687D01*
X135562758Y-107470024D01*
X135414924Y-107391005D01*
X135414922Y-107391004D01*
X135285341Y-107284659D01*
X135178996Y-107155078D01*
X135170821Y-107139783D01*
X135099976Y-107007242D01*
X135051313Y-106846823D01*
X135034883Y-106680000D01*
X135051313Y-106513177D01*
X135099976Y-106352758D01*
X135178995Y-106204924D01*
X135178996Y-106204922D01*
X135285341Y-106075341D01*
X135414922Y-105968996D01*
X135430094Y-105960886D01*
X135562758Y-105889976D01*
X135723177Y-105841313D01*
X135848196Y-105829000D01*
X135931804Y-105829000D01*
X136056823Y-105841313D01*
X136056823Y-105841313D01*
G37*
G36*
X78135444Y-104515519D02*
G01*
X78201628Y-104522037D01*
X78371467Y-104573557D01*
X78527992Y-104657222D01*
X78563730Y-104686552D01*
X78665187Y-104769814D01*
X78748449Y-104871271D01*
X78777779Y-104907009D01*
X78861444Y-105063534D01*
X78912964Y-105233373D01*
X78930360Y-105410000D01*
X78912964Y-105586627D01*
X78861444Y-105756466D01*
X78777779Y-105912991D01*
X78748449Y-105948729D01*
X78665187Y-106050186D01*
X78581802Y-106118617D01*
X78527992Y-106162778D01*
X78371467Y-106246443D01*
X78201628Y-106297963D01*
X78135443Y-106304482D01*
X78069261Y-106311000D01*
X77980741Y-106311000D01*
X77914559Y-106304482D01*
X77848374Y-106297963D01*
X77678535Y-106246443D01*
X77522010Y-106162778D01*
X77468200Y-106118617D01*
X77384815Y-106050186D01*
X77301553Y-105948729D01*
X77272223Y-105912991D01*
X77188558Y-105756466D01*
X77137038Y-105586627D01*
X77119642Y-105410000D01*
X77137038Y-105233373D01*
X77188558Y-105063534D01*
X77272223Y-104907009D01*
X77301553Y-104871271D01*
X77384815Y-104769814D01*
X77486272Y-104686552D01*
X77522010Y-104657222D01*
X77678535Y-104573557D01*
X77848374Y-104522037D01*
X77914558Y-104515519D01*
X77980741Y-104509000D01*
X78069261Y-104509000D01*
X78135444Y-104515519D01*
X78135444Y-104515519D01*
G37*
G36*
X93375444Y-104515519D02*
G01*
X93441628Y-104522037D01*
X93611467Y-104573557D01*
X93767992Y-104657222D01*
X93803730Y-104686552D01*
X93905187Y-104769814D01*
X93988449Y-104871271D01*
X94017779Y-104907009D01*
X94101444Y-105063534D01*
X94152964Y-105233373D01*
X94170360Y-105410000D01*
X94152964Y-105586627D01*
X94101444Y-105756466D01*
X94017779Y-105912991D01*
X93988449Y-105948729D01*
X93905187Y-106050186D01*
X93821802Y-106118617D01*
X93767992Y-106162778D01*
X93611467Y-106246443D01*
X93441628Y-106297963D01*
X93375443Y-106304482D01*
X93309261Y-106311000D01*
X93220741Y-106311000D01*
X93154559Y-106304482D01*
X93088374Y-106297963D01*
X92918535Y-106246443D01*
X92762010Y-106162778D01*
X92708200Y-106118617D01*
X92624815Y-106050186D01*
X92541553Y-105948729D01*
X92512223Y-105912991D01*
X92428558Y-105756466D01*
X92377038Y-105586627D01*
X92359642Y-105410000D01*
X92377038Y-105233373D01*
X92428558Y-105063534D01*
X92512223Y-104907009D01*
X92541553Y-104871271D01*
X92624815Y-104769814D01*
X92726272Y-104686552D01*
X92762010Y-104657222D01*
X92918535Y-104573557D01*
X93088374Y-104522037D01*
X93154558Y-104515519D01*
X93220741Y-104509000D01*
X93309261Y-104509000D01*
X93375444Y-104515519D01*
X93375444Y-104515519D01*
G37*
G36*
X88295444Y-104515519D02*
G01*
X88361628Y-104522037D01*
X88531467Y-104573557D01*
X88687992Y-104657222D01*
X88723730Y-104686552D01*
X88825187Y-104769814D01*
X88908449Y-104871271D01*
X88937779Y-104907009D01*
X89021444Y-105063534D01*
X89072964Y-105233373D01*
X89090360Y-105410000D01*
X89072964Y-105586627D01*
X89021444Y-105756466D01*
X88937779Y-105912991D01*
X88908449Y-105948729D01*
X88825187Y-106050186D01*
X88741802Y-106118617D01*
X88687992Y-106162778D01*
X88531467Y-106246443D01*
X88361628Y-106297963D01*
X88295443Y-106304482D01*
X88229261Y-106311000D01*
X88140741Y-106311000D01*
X88074559Y-106304482D01*
X88008374Y-106297963D01*
X87838535Y-106246443D01*
X87682010Y-106162778D01*
X87628200Y-106118617D01*
X87544815Y-106050186D01*
X87461553Y-105948729D01*
X87432223Y-105912991D01*
X87348558Y-105756466D01*
X87297038Y-105586627D01*
X87279642Y-105410000D01*
X87297038Y-105233373D01*
X87348558Y-105063534D01*
X87432223Y-104907009D01*
X87461553Y-104871271D01*
X87544815Y-104769814D01*
X87646272Y-104686552D01*
X87682010Y-104657222D01*
X87838535Y-104573557D01*
X88008374Y-104522037D01*
X88074558Y-104515519D01*
X88140741Y-104509000D01*
X88229261Y-104509000D01*
X88295444Y-104515519D01*
X88295444Y-104515519D01*
G37*
G36*
X85755444Y-104515519D02*
G01*
X85821628Y-104522037D01*
X85991467Y-104573557D01*
X86147992Y-104657222D01*
X86183730Y-104686552D01*
X86285187Y-104769814D01*
X86368449Y-104871271D01*
X86397779Y-104907009D01*
X86481444Y-105063534D01*
X86532964Y-105233373D01*
X86550360Y-105410000D01*
X86532964Y-105586627D01*
X86481444Y-105756466D01*
X86397779Y-105912991D01*
X86368449Y-105948729D01*
X86285187Y-106050186D01*
X86201802Y-106118617D01*
X86147992Y-106162778D01*
X85991467Y-106246443D01*
X85821628Y-106297963D01*
X85755443Y-106304482D01*
X85689261Y-106311000D01*
X85600741Y-106311000D01*
X85534559Y-106304482D01*
X85468374Y-106297963D01*
X85298535Y-106246443D01*
X85142010Y-106162778D01*
X85088200Y-106118617D01*
X85004815Y-106050186D01*
X84921553Y-105948729D01*
X84892223Y-105912991D01*
X84808558Y-105756466D01*
X84757038Y-105586627D01*
X84739642Y-105410000D01*
X84757038Y-105233373D01*
X84808558Y-105063534D01*
X84892223Y-104907009D01*
X84921553Y-104871271D01*
X85004815Y-104769814D01*
X85106272Y-104686552D01*
X85142010Y-104657222D01*
X85298535Y-104573557D01*
X85468374Y-104522037D01*
X85534558Y-104515519D01*
X85600741Y-104509000D01*
X85689261Y-104509000D01*
X85755444Y-104515519D01*
X85755444Y-104515519D01*
G37*
G36*
X90835444Y-104515519D02*
G01*
X90901628Y-104522037D01*
X91071467Y-104573557D01*
X91227992Y-104657222D01*
X91263730Y-104686552D01*
X91365187Y-104769814D01*
X91448449Y-104871271D01*
X91477779Y-104907009D01*
X91561444Y-105063534D01*
X91612964Y-105233373D01*
X91630360Y-105410000D01*
X91612964Y-105586627D01*
X91561444Y-105756466D01*
X91477779Y-105912991D01*
X91448449Y-105948729D01*
X91365187Y-106050186D01*
X91281802Y-106118617D01*
X91227992Y-106162778D01*
X91071467Y-106246443D01*
X90901628Y-106297963D01*
X90835443Y-106304482D01*
X90769261Y-106311000D01*
X90680741Y-106311000D01*
X90614559Y-106304482D01*
X90548374Y-106297963D01*
X90378535Y-106246443D01*
X90222010Y-106162778D01*
X90168200Y-106118617D01*
X90084815Y-106050186D01*
X90001553Y-105948729D01*
X89972223Y-105912991D01*
X89888558Y-105756466D01*
X89837038Y-105586627D01*
X89819642Y-105410000D01*
X89837038Y-105233373D01*
X89888558Y-105063534D01*
X89972223Y-104907009D01*
X90001553Y-104871271D01*
X90084815Y-104769814D01*
X90186272Y-104686552D01*
X90222010Y-104657222D01*
X90378535Y-104573557D01*
X90548374Y-104522037D01*
X90614558Y-104515519D01*
X90680741Y-104509000D01*
X90769261Y-104509000D01*
X90835444Y-104515519D01*
X90835444Y-104515519D01*
G37*
G36*
X83215444Y-104515519D02*
G01*
X83281628Y-104522037D01*
X83451467Y-104573557D01*
X83607992Y-104657222D01*
X83643730Y-104686552D01*
X83745187Y-104769814D01*
X83828449Y-104871271D01*
X83857779Y-104907009D01*
X83941444Y-105063534D01*
X83992964Y-105233373D01*
X84010360Y-105410000D01*
X83992964Y-105586627D01*
X83941444Y-105756466D01*
X83857779Y-105912991D01*
X83828449Y-105948729D01*
X83745187Y-106050186D01*
X83661802Y-106118617D01*
X83607992Y-106162778D01*
X83451467Y-106246443D01*
X83281628Y-106297963D01*
X83215443Y-106304482D01*
X83149261Y-106311000D01*
X83060741Y-106311000D01*
X82994559Y-106304482D01*
X82928374Y-106297963D01*
X82758535Y-106246443D01*
X82602010Y-106162778D01*
X82548200Y-106118617D01*
X82464815Y-106050186D01*
X82381553Y-105948729D01*
X82352223Y-105912991D01*
X82268558Y-105756466D01*
X82217038Y-105586627D01*
X82199642Y-105410000D01*
X82217038Y-105233373D01*
X82268558Y-105063534D01*
X82352223Y-104907009D01*
X82381553Y-104871271D01*
X82464815Y-104769814D01*
X82566272Y-104686552D01*
X82602010Y-104657222D01*
X82758535Y-104573557D01*
X82928374Y-104522037D01*
X82994558Y-104515519D01*
X83060741Y-104509000D01*
X83149261Y-104509000D01*
X83215444Y-104515519D01*
X83215444Y-104515519D01*
G37*
G36*
X95915444Y-104515519D02*
G01*
X95981628Y-104522037D01*
X96151467Y-104573557D01*
X96307992Y-104657222D01*
X96343730Y-104686552D01*
X96445187Y-104769814D01*
X96528449Y-104871271D01*
X96557779Y-104907009D01*
X96641444Y-105063534D01*
X96692964Y-105233373D01*
X96710360Y-105410000D01*
X96692964Y-105586627D01*
X96641444Y-105756466D01*
X96557779Y-105912991D01*
X96528449Y-105948729D01*
X96445187Y-106050186D01*
X96361802Y-106118617D01*
X96307992Y-106162778D01*
X96151467Y-106246443D01*
X95981628Y-106297963D01*
X95915443Y-106304482D01*
X95849261Y-106311000D01*
X95760741Y-106311000D01*
X95694559Y-106304482D01*
X95628374Y-106297963D01*
X95458535Y-106246443D01*
X95302010Y-106162778D01*
X95248200Y-106118617D01*
X95164815Y-106050186D01*
X95081553Y-105948729D01*
X95052223Y-105912991D01*
X94968558Y-105756466D01*
X94917038Y-105586627D01*
X94899642Y-105410000D01*
X94917038Y-105233373D01*
X94968558Y-105063534D01*
X95052223Y-104907009D01*
X95081553Y-104871271D01*
X95164815Y-104769814D01*
X95266272Y-104686552D01*
X95302010Y-104657222D01*
X95458535Y-104573557D01*
X95628374Y-104522037D01*
X95694558Y-104515519D01*
X95760741Y-104509000D01*
X95849261Y-104509000D01*
X95915444Y-104515519D01*
X95915444Y-104515519D01*
G37*
G36*
X80675444Y-104515519D02*
G01*
X80741628Y-104522037D01*
X80911467Y-104573557D01*
X81067992Y-104657222D01*
X81103730Y-104686552D01*
X81205187Y-104769814D01*
X81288449Y-104871271D01*
X81317779Y-104907009D01*
X81401444Y-105063534D01*
X81452964Y-105233373D01*
X81470360Y-105410000D01*
X81452964Y-105586627D01*
X81401444Y-105756466D01*
X81317779Y-105912991D01*
X81288449Y-105948729D01*
X81205187Y-106050186D01*
X81121802Y-106118617D01*
X81067992Y-106162778D01*
X80911467Y-106246443D01*
X80741628Y-106297963D01*
X80675443Y-106304482D01*
X80609261Y-106311000D01*
X80520741Y-106311000D01*
X80454559Y-106304482D01*
X80388374Y-106297963D01*
X80218535Y-106246443D01*
X80062010Y-106162778D01*
X80008200Y-106118617D01*
X79924815Y-106050186D01*
X79841553Y-105948729D01*
X79812223Y-105912991D01*
X79728558Y-105756466D01*
X79677038Y-105586627D01*
X79659642Y-105410000D01*
X79677038Y-105233373D01*
X79728558Y-105063534D01*
X79812223Y-104907009D01*
X79841553Y-104871271D01*
X79924815Y-104769814D01*
X80026272Y-104686552D01*
X80062010Y-104657222D01*
X80218535Y-104573557D01*
X80388374Y-104522037D01*
X80454558Y-104515519D01*
X80520741Y-104509000D01*
X80609261Y-104509000D01*
X80675444Y-104515519D01*
X80675444Y-104515519D01*
G37*
G36*
X75595444Y-104515519D02*
G01*
X75661628Y-104522037D01*
X75831467Y-104573557D01*
X75987992Y-104657222D01*
X76023730Y-104686552D01*
X76125187Y-104769814D01*
X76208449Y-104871271D01*
X76237779Y-104907009D01*
X76321444Y-105063534D01*
X76372964Y-105233373D01*
X76390360Y-105410000D01*
X76372964Y-105586627D01*
X76321444Y-105756466D01*
X76237779Y-105912991D01*
X76208449Y-105948729D01*
X76125187Y-106050186D01*
X76041802Y-106118617D01*
X75987992Y-106162778D01*
X75831467Y-106246443D01*
X75661628Y-106297963D01*
X75595443Y-106304482D01*
X75529261Y-106311000D01*
X75440741Y-106311000D01*
X75374559Y-106304482D01*
X75308374Y-106297963D01*
X75138535Y-106246443D01*
X74982010Y-106162778D01*
X74928200Y-106118617D01*
X74844815Y-106050186D01*
X74761553Y-105948729D01*
X74732223Y-105912991D01*
X74648558Y-105756466D01*
X74597038Y-105586627D01*
X74579642Y-105410000D01*
X74597038Y-105233373D01*
X74648558Y-105063534D01*
X74732223Y-104907009D01*
X74761553Y-104871271D01*
X74844815Y-104769814D01*
X74946272Y-104686552D01*
X74982010Y-104657222D01*
X75138535Y-104573557D01*
X75308374Y-104522037D01*
X75374558Y-104515519D01*
X75440741Y-104509000D01*
X75529261Y-104509000D01*
X75595444Y-104515519D01*
X75595444Y-104515519D01*
G37*
G36*
X73846001Y-106311000D02*
G01*
X72044001Y-106311000D01*
X72044001Y-104509000D01*
X73846001Y-104509000D01*
X73846001Y-106311000D01*
X73846001Y-106311000D01*
G37*
G36*
X147483467Y-103085668D02*
G01*
X147499567Y-103087254D01*
X147585899Y-103113443D01*
X147672233Y-103139632D01*
X147831364Y-103224689D01*
X147970844Y-103339156D01*
X148085311Y-103478635D01*
X148170368Y-103637766D01*
X148178606Y-103664924D01*
X148206830Y-103757963D01*
X148222746Y-103810433D01*
X148236000Y-103945002D01*
X148236000Y-104334997D01*
X148225570Y-104440895D01*
X148222746Y-104469567D01*
X148210784Y-104509000D01*
X148170368Y-104642234D01*
X148085311Y-104801365D01*
X147970844Y-104940844D01*
X147831365Y-105055311D01*
X147672234Y-105140368D01*
X147499568Y-105192746D01*
X147483468Y-105194332D01*
X147320000Y-105210432D01*
X147156533Y-105194332D01*
X147140433Y-105192746D01*
X146967767Y-105140368D01*
X146808636Y-105055311D01*
X146669157Y-104940844D01*
X146554689Y-104801365D01*
X146469632Y-104642234D01*
X146443443Y-104555900D01*
X146417254Y-104469568D01*
X146414430Y-104440895D01*
X146404000Y-104334998D01*
X146404000Y-103945003D01*
X146417254Y-103810434D01*
X146417255Y-103810432D01*
X146462009Y-103662897D01*
X146469632Y-103637767D01*
X146554689Y-103478636D01*
X146669156Y-103339156D01*
X146808635Y-103224689D01*
X146967766Y-103139632D01*
X147054100Y-103113443D01*
X147140432Y-103087254D01*
X147156532Y-103085668D01*
X147320000Y-103069568D01*
X147483467Y-103085668D01*
X147483467Y-103085668D01*
G37*
G36*
X144943467Y-103085668D02*
G01*
X144959567Y-103087254D01*
X145045899Y-103113443D01*
X145132233Y-103139632D01*
X145291364Y-103224689D01*
X145430844Y-103339156D01*
X145545311Y-103478635D01*
X145630368Y-103637766D01*
X145638606Y-103664924D01*
X145666830Y-103757963D01*
X145682746Y-103810433D01*
X145696000Y-103945002D01*
X145696000Y-104334997D01*
X145685570Y-104440895D01*
X145682746Y-104469567D01*
X145670784Y-104509000D01*
X145630368Y-104642234D01*
X145545311Y-104801365D01*
X145430844Y-104940844D01*
X145291365Y-105055311D01*
X145132234Y-105140368D01*
X144959568Y-105192746D01*
X144943468Y-105194332D01*
X144780000Y-105210432D01*
X144616533Y-105194332D01*
X144600433Y-105192746D01*
X144427767Y-105140368D01*
X144268636Y-105055311D01*
X144129157Y-104940844D01*
X144014689Y-104801365D01*
X143929632Y-104642234D01*
X143903443Y-104555900D01*
X143877254Y-104469568D01*
X143874430Y-104440895D01*
X143864000Y-104334998D01*
X143864000Y-103945003D01*
X143877254Y-103810434D01*
X143877255Y-103810432D01*
X143922009Y-103662897D01*
X143929632Y-103637767D01*
X144014689Y-103478636D01*
X144129156Y-103339156D01*
X144268635Y-103224689D01*
X144427766Y-103139632D01*
X144514100Y-103113443D01*
X144600432Y-103087254D01*
X144616532Y-103085668D01*
X144780000Y-103069568D01*
X144943467Y-103085668D01*
X144943467Y-103085668D01*
G37*
G36*
X165263467Y-103085668D02*
G01*
X165279567Y-103087254D01*
X165365899Y-103113443D01*
X165452233Y-103139632D01*
X165611364Y-103224689D01*
X165750844Y-103339156D01*
X165865311Y-103478635D01*
X165950368Y-103637766D01*
X165958606Y-103664924D01*
X165986830Y-103757963D01*
X166002746Y-103810433D01*
X166016000Y-103945002D01*
X166016000Y-104334997D01*
X166005570Y-104440895D01*
X166002746Y-104469567D01*
X165990784Y-104509000D01*
X165950368Y-104642234D01*
X165865311Y-104801365D01*
X165750844Y-104940844D01*
X165611365Y-105055311D01*
X165452234Y-105140368D01*
X165279568Y-105192746D01*
X165263468Y-105194332D01*
X165100000Y-105210432D01*
X164936533Y-105194332D01*
X164920433Y-105192746D01*
X164747767Y-105140368D01*
X164588636Y-105055311D01*
X164449157Y-104940844D01*
X164334689Y-104801365D01*
X164249632Y-104642234D01*
X164223443Y-104555900D01*
X164197254Y-104469568D01*
X164194430Y-104440895D01*
X164184000Y-104334998D01*
X164184000Y-103945003D01*
X164197254Y-103810434D01*
X164197255Y-103810432D01*
X164242009Y-103662897D01*
X164249632Y-103637767D01*
X164334689Y-103478636D01*
X164449156Y-103339156D01*
X164588635Y-103224689D01*
X164747766Y-103139632D01*
X164834100Y-103113443D01*
X164920432Y-103087254D01*
X164936532Y-103085668D01*
X165100000Y-103069568D01*
X165263467Y-103085668D01*
X165263467Y-103085668D01*
G37*
G36*
X157643467Y-103085668D02*
G01*
X157659567Y-103087254D01*
X157745899Y-103113443D01*
X157832233Y-103139632D01*
X157991364Y-103224689D01*
X158130844Y-103339156D01*
X158245311Y-103478635D01*
X158330368Y-103637766D01*
X158338606Y-103664924D01*
X158366830Y-103757963D01*
X158382746Y-103810433D01*
X158396000Y-103945002D01*
X158396000Y-104334997D01*
X158385570Y-104440895D01*
X158382746Y-104469567D01*
X158370784Y-104509000D01*
X158330368Y-104642234D01*
X158245311Y-104801365D01*
X158130844Y-104940844D01*
X157991365Y-105055311D01*
X157832234Y-105140368D01*
X157659568Y-105192746D01*
X157643468Y-105194332D01*
X157480000Y-105210432D01*
X157316533Y-105194332D01*
X157300433Y-105192746D01*
X157127767Y-105140368D01*
X156968636Y-105055311D01*
X156829157Y-104940844D01*
X156714689Y-104801365D01*
X156629632Y-104642234D01*
X156603443Y-104555900D01*
X156577254Y-104469568D01*
X156574430Y-104440895D01*
X156564000Y-104334998D01*
X156564000Y-103945003D01*
X156577254Y-103810434D01*
X156577255Y-103810432D01*
X156622009Y-103662897D01*
X156629632Y-103637767D01*
X156714689Y-103478636D01*
X156829156Y-103339156D01*
X156968635Y-103224689D01*
X157127766Y-103139632D01*
X157214100Y-103113443D01*
X157300432Y-103087254D01*
X157316532Y-103085668D01*
X157480000Y-103069568D01*
X157643467Y-103085668D01*
X157643467Y-103085668D01*
G37*
G36*
X155103467Y-103085668D02*
G01*
X155119567Y-103087254D01*
X155205899Y-103113443D01*
X155292233Y-103139632D01*
X155451364Y-103224689D01*
X155590844Y-103339156D01*
X155705311Y-103478635D01*
X155790368Y-103637766D01*
X155798606Y-103664924D01*
X155826830Y-103757963D01*
X155842746Y-103810433D01*
X155856000Y-103945002D01*
X155856000Y-104334997D01*
X155845570Y-104440895D01*
X155842746Y-104469567D01*
X155830784Y-104509000D01*
X155790368Y-104642234D01*
X155705311Y-104801365D01*
X155590844Y-104940844D01*
X155451365Y-105055311D01*
X155292234Y-105140368D01*
X155119568Y-105192746D01*
X155103468Y-105194332D01*
X154940000Y-105210432D01*
X154776533Y-105194332D01*
X154760433Y-105192746D01*
X154587767Y-105140368D01*
X154428636Y-105055311D01*
X154289157Y-104940844D01*
X154174689Y-104801365D01*
X154089632Y-104642234D01*
X154063443Y-104555900D01*
X154037254Y-104469568D01*
X154034430Y-104440895D01*
X154024000Y-104334998D01*
X154024000Y-103945003D01*
X154037254Y-103810434D01*
X154037255Y-103810432D01*
X154082009Y-103662897D01*
X154089632Y-103637767D01*
X154174689Y-103478636D01*
X154289156Y-103339156D01*
X154428635Y-103224689D01*
X154587766Y-103139632D01*
X154674100Y-103113443D01*
X154760432Y-103087254D01*
X154776532Y-103085668D01*
X154940000Y-103069568D01*
X155103467Y-103085668D01*
X155103467Y-103085668D01*
G37*
G36*
X167803467Y-103085668D02*
G01*
X167819567Y-103087254D01*
X167905899Y-103113443D01*
X167992233Y-103139632D01*
X168151364Y-103224689D01*
X168290844Y-103339156D01*
X168405311Y-103478635D01*
X168490368Y-103637766D01*
X168498606Y-103664924D01*
X168526830Y-103757963D01*
X168542746Y-103810433D01*
X168556000Y-103945002D01*
X168556000Y-104334997D01*
X168545570Y-104440895D01*
X168542746Y-104469567D01*
X168530784Y-104509000D01*
X168490368Y-104642234D01*
X168405311Y-104801365D01*
X168290844Y-104940844D01*
X168151365Y-105055311D01*
X167992234Y-105140368D01*
X167819568Y-105192746D01*
X167803468Y-105194332D01*
X167640000Y-105210432D01*
X167476533Y-105194332D01*
X167460433Y-105192746D01*
X167287767Y-105140368D01*
X167128636Y-105055311D01*
X166989157Y-104940844D01*
X166874689Y-104801365D01*
X166789632Y-104642234D01*
X166763443Y-104555900D01*
X166737254Y-104469568D01*
X166734430Y-104440895D01*
X166724000Y-104334998D01*
X166724000Y-103945003D01*
X166737254Y-103810434D01*
X166737255Y-103810432D01*
X166782009Y-103662897D01*
X166789632Y-103637767D01*
X166874689Y-103478636D01*
X166989156Y-103339156D01*
X167128635Y-103224689D01*
X167287766Y-103139632D01*
X167374100Y-103113443D01*
X167460432Y-103087254D01*
X167476532Y-103085668D01*
X167640000Y-103069568D01*
X167803467Y-103085668D01*
X167803467Y-103085668D01*
G37*
G36*
X153316000Y-105206000D02*
G01*
X151484000Y-105206000D01*
X151484000Y-103074000D01*
X153316000Y-103074000D01*
X153316000Y-105206000D01*
X153316000Y-105206000D01*
G37*
G36*
X143156000Y-105206000D02*
G01*
X141324000Y-105206000D01*
X141324000Y-103074000D01*
X143156000Y-103074000D01*
X143156000Y-105206000D01*
X143156000Y-105206000D01*
G37*
G36*
X163476000Y-105206000D02*
G01*
X161644000Y-105206000D01*
X161644000Y-103074000D01*
X163476000Y-103074000D01*
X163476000Y-105206000D01*
X163476000Y-105206000D01*
G37*
G36*
X119820694Y-103187833D02*
G01*
X119993095Y-103240131D01*
X120151983Y-103325058D01*
X120291249Y-103439351D01*
X120405542Y-103578617D01*
X120490469Y-103737505D01*
X120542767Y-103909906D01*
X120560425Y-104089200D01*
X120542767Y-104268494D01*
X120490469Y-104440895D01*
X120405542Y-104599783D01*
X120291249Y-104739049D01*
X120151983Y-104853342D01*
X119993095Y-104938269D01*
X119820694Y-104990567D01*
X119686331Y-105003800D01*
X119073669Y-105003800D01*
X118939306Y-104990567D01*
X118766905Y-104938269D01*
X118608017Y-104853342D01*
X118468751Y-104739049D01*
X118354458Y-104599783D01*
X118269531Y-104440895D01*
X118217233Y-104268494D01*
X118199575Y-104089200D01*
X118217233Y-103909906D01*
X118269531Y-103737505D01*
X118354458Y-103578617D01*
X118468751Y-103439351D01*
X118608017Y-103325058D01*
X118766905Y-103240131D01*
X118939306Y-103187833D01*
X119073669Y-103174600D01*
X119686331Y-103174600D01*
X119820694Y-103187833D01*
X119820694Y-103187833D01*
G37*
G36*
X104580694Y-103187833D02*
G01*
X104753095Y-103240131D01*
X104911983Y-103325058D01*
X105051249Y-103439351D01*
X105165542Y-103578617D01*
X105250469Y-103737505D01*
X105302767Y-103909906D01*
X105320425Y-104089200D01*
X105302767Y-104268494D01*
X105250469Y-104440895D01*
X105165542Y-104599783D01*
X105051249Y-104739049D01*
X104911983Y-104853342D01*
X104753095Y-104938269D01*
X104580694Y-104990567D01*
X104446331Y-105003800D01*
X103833669Y-105003800D01*
X103699306Y-104990567D01*
X103526905Y-104938269D01*
X103368017Y-104853342D01*
X103228751Y-104739049D01*
X103114458Y-104599783D01*
X103029531Y-104440895D01*
X102977233Y-104268494D01*
X102959575Y-104089200D01*
X102977233Y-103909906D01*
X103029531Y-103737505D01*
X103114458Y-103578617D01*
X103228751Y-103439351D01*
X103368017Y-103325058D01*
X103526905Y-103240131D01*
X103699306Y-103187833D01*
X103833669Y-103174600D01*
X104446331Y-103174600D01*
X104580694Y-103187833D01*
X104580694Y-103187833D01*
G37*
G36*
X128436823Y-103301313D02*
G01*
X128597242Y-103349976D01*
X128729906Y-103420886D01*
X128745078Y-103428996D01*
X128874659Y-103535341D01*
X128981004Y-103664922D01*
X128981005Y-103664924D01*
X129060024Y-103812758D01*
X129108687Y-103973177D01*
X129125117Y-104140000D01*
X129108687Y-104306823D01*
X129060024Y-104467242D01*
X129030735Y-104522037D01*
X128981004Y-104615078D01*
X128874659Y-104744659D01*
X128745078Y-104851004D01*
X128745076Y-104851005D01*
X128597242Y-104930024D01*
X128436823Y-104978687D01*
X128311804Y-104991000D01*
X128228196Y-104991000D01*
X128103177Y-104978687D01*
X127942758Y-104930024D01*
X127794924Y-104851005D01*
X127794922Y-104851004D01*
X127665341Y-104744659D01*
X127558996Y-104615078D01*
X127509265Y-104522037D01*
X127479976Y-104467242D01*
X127431313Y-104306823D01*
X127414883Y-104140000D01*
X127431313Y-103973177D01*
X127479976Y-103812758D01*
X127558995Y-103664924D01*
X127558996Y-103664922D01*
X127665341Y-103535341D01*
X127794922Y-103428996D01*
X127810094Y-103420886D01*
X127942758Y-103349976D01*
X128103177Y-103301313D01*
X128228196Y-103289000D01*
X128311804Y-103289000D01*
X128436823Y-103301313D01*
X128436823Y-103301313D01*
G37*
G36*
X136056823Y-103301313D02*
G01*
X136217242Y-103349976D01*
X136349906Y-103420886D01*
X136365078Y-103428996D01*
X136494659Y-103535341D01*
X136601004Y-103664922D01*
X136601005Y-103664924D01*
X136680024Y-103812758D01*
X136728687Y-103973177D01*
X136745117Y-104140000D01*
X136728687Y-104306823D01*
X136680024Y-104467242D01*
X136650735Y-104522037D01*
X136601004Y-104615078D01*
X136494659Y-104744659D01*
X136365078Y-104851004D01*
X136365076Y-104851005D01*
X136217242Y-104930024D01*
X136056823Y-104978687D01*
X135931804Y-104991000D01*
X135848196Y-104991000D01*
X135723177Y-104978687D01*
X135562758Y-104930024D01*
X135414924Y-104851005D01*
X135414922Y-104851004D01*
X135285341Y-104744659D01*
X135178996Y-104615078D01*
X135129265Y-104522037D01*
X135099976Y-104467242D01*
X135051313Y-104306823D01*
X135034883Y-104140000D01*
X135051313Y-103973177D01*
X135099976Y-103812758D01*
X135178995Y-103664924D01*
X135178996Y-103664922D01*
X135285341Y-103535341D01*
X135414922Y-103428996D01*
X135430094Y-103420886D01*
X135562758Y-103349976D01*
X135723177Y-103301313D01*
X135848196Y-103289000D01*
X135931804Y-103289000D01*
X136056823Y-103301313D01*
X136056823Y-103301313D01*
G37*
G36*
X75595443Y-101975518D02*
G01*
X75661628Y-101982037D01*
X75831467Y-102033557D01*
X75987992Y-102117222D01*
X76023730Y-102146552D01*
X76125187Y-102229814D01*
X76208449Y-102331271D01*
X76237779Y-102367009D01*
X76321444Y-102523534D01*
X76372964Y-102693373D01*
X76390360Y-102870000D01*
X76372964Y-103046627D01*
X76321444Y-103216466D01*
X76237779Y-103372991D01*
X76208449Y-103408729D01*
X76125187Y-103510186D01*
X76041802Y-103578617D01*
X75987992Y-103622778D01*
X75831467Y-103706443D01*
X75661628Y-103757963D01*
X75595444Y-103764481D01*
X75529261Y-103771000D01*
X75440741Y-103771000D01*
X75374558Y-103764481D01*
X75308374Y-103757963D01*
X75138535Y-103706443D01*
X74982010Y-103622778D01*
X74928200Y-103578617D01*
X74844815Y-103510186D01*
X74761553Y-103408729D01*
X74732223Y-103372991D01*
X74648558Y-103216466D01*
X74597038Y-103046627D01*
X74579642Y-102870000D01*
X74597038Y-102693373D01*
X74648558Y-102523534D01*
X74732223Y-102367009D01*
X74761553Y-102331271D01*
X74844815Y-102229814D01*
X74946272Y-102146552D01*
X74982010Y-102117222D01*
X75138535Y-102033557D01*
X75308374Y-101982037D01*
X75374559Y-101975518D01*
X75440741Y-101969000D01*
X75529261Y-101969000D01*
X75595443Y-101975518D01*
X75595443Y-101975518D01*
G37*
G36*
X90835443Y-101975518D02*
G01*
X90901628Y-101982037D01*
X91071467Y-102033557D01*
X91227992Y-102117222D01*
X91263730Y-102146552D01*
X91365187Y-102229814D01*
X91448449Y-102331271D01*
X91477779Y-102367009D01*
X91561444Y-102523534D01*
X91612964Y-102693373D01*
X91630360Y-102870000D01*
X91612964Y-103046627D01*
X91561444Y-103216466D01*
X91477779Y-103372991D01*
X91448449Y-103408729D01*
X91365187Y-103510186D01*
X91281802Y-103578617D01*
X91227992Y-103622778D01*
X91071467Y-103706443D01*
X90901628Y-103757963D01*
X90835444Y-103764481D01*
X90769261Y-103771000D01*
X90680741Y-103771000D01*
X90614558Y-103764481D01*
X90548374Y-103757963D01*
X90378535Y-103706443D01*
X90222010Y-103622778D01*
X90168200Y-103578617D01*
X90084815Y-103510186D01*
X90001553Y-103408729D01*
X89972223Y-103372991D01*
X89888558Y-103216466D01*
X89837038Y-103046627D01*
X89819642Y-102870000D01*
X89837038Y-102693373D01*
X89888558Y-102523534D01*
X89972223Y-102367009D01*
X90001553Y-102331271D01*
X90084815Y-102229814D01*
X90186272Y-102146552D01*
X90222010Y-102117222D01*
X90378535Y-102033557D01*
X90548374Y-101982037D01*
X90614559Y-101975518D01*
X90680741Y-101969000D01*
X90769261Y-101969000D01*
X90835443Y-101975518D01*
X90835443Y-101975518D01*
G37*
G36*
X88295443Y-101975518D02*
G01*
X88361628Y-101982037D01*
X88531467Y-102033557D01*
X88687992Y-102117222D01*
X88723730Y-102146552D01*
X88825187Y-102229814D01*
X88908449Y-102331271D01*
X88937779Y-102367009D01*
X89021444Y-102523534D01*
X89072964Y-102693373D01*
X89090360Y-102870000D01*
X89072964Y-103046627D01*
X89021444Y-103216466D01*
X88937779Y-103372991D01*
X88908449Y-103408729D01*
X88825187Y-103510186D01*
X88741802Y-103578617D01*
X88687992Y-103622778D01*
X88531467Y-103706443D01*
X88361628Y-103757963D01*
X88295444Y-103764481D01*
X88229261Y-103771000D01*
X88140741Y-103771000D01*
X88074558Y-103764481D01*
X88008374Y-103757963D01*
X87838535Y-103706443D01*
X87682010Y-103622778D01*
X87628200Y-103578617D01*
X87544815Y-103510186D01*
X87461553Y-103408729D01*
X87432223Y-103372991D01*
X87348558Y-103216466D01*
X87297038Y-103046627D01*
X87279642Y-102870000D01*
X87297038Y-102693373D01*
X87348558Y-102523534D01*
X87432223Y-102367009D01*
X87461553Y-102331271D01*
X87544815Y-102229814D01*
X87646272Y-102146552D01*
X87682010Y-102117222D01*
X87838535Y-102033557D01*
X88008374Y-101982037D01*
X88074559Y-101975518D01*
X88140741Y-101969000D01*
X88229261Y-101969000D01*
X88295443Y-101975518D01*
X88295443Y-101975518D01*
G37*
G36*
X85755443Y-101975518D02*
G01*
X85821628Y-101982037D01*
X85991467Y-102033557D01*
X86147992Y-102117222D01*
X86183730Y-102146552D01*
X86285187Y-102229814D01*
X86368449Y-102331271D01*
X86397779Y-102367009D01*
X86481444Y-102523534D01*
X86532964Y-102693373D01*
X86550360Y-102870000D01*
X86532964Y-103046627D01*
X86481444Y-103216466D01*
X86397779Y-103372991D01*
X86368449Y-103408729D01*
X86285187Y-103510186D01*
X86201802Y-103578617D01*
X86147992Y-103622778D01*
X85991467Y-103706443D01*
X85821628Y-103757963D01*
X85755444Y-103764481D01*
X85689261Y-103771000D01*
X85600741Y-103771000D01*
X85534558Y-103764481D01*
X85468374Y-103757963D01*
X85298535Y-103706443D01*
X85142010Y-103622778D01*
X85088200Y-103578617D01*
X85004815Y-103510186D01*
X84921553Y-103408729D01*
X84892223Y-103372991D01*
X84808558Y-103216466D01*
X84757038Y-103046627D01*
X84739642Y-102870000D01*
X84757038Y-102693373D01*
X84808558Y-102523534D01*
X84892223Y-102367009D01*
X84921553Y-102331271D01*
X85004815Y-102229814D01*
X85106272Y-102146552D01*
X85142010Y-102117222D01*
X85298535Y-102033557D01*
X85468374Y-101982037D01*
X85534559Y-101975518D01*
X85600741Y-101969000D01*
X85689261Y-101969000D01*
X85755443Y-101975518D01*
X85755443Y-101975518D01*
G37*
G36*
X83215443Y-101975518D02*
G01*
X83281628Y-101982037D01*
X83451467Y-102033557D01*
X83607992Y-102117222D01*
X83643730Y-102146552D01*
X83745187Y-102229814D01*
X83828449Y-102331271D01*
X83857779Y-102367009D01*
X83941444Y-102523534D01*
X83992964Y-102693373D01*
X84010360Y-102870000D01*
X83992964Y-103046627D01*
X83941444Y-103216466D01*
X83857779Y-103372991D01*
X83828449Y-103408729D01*
X83745187Y-103510186D01*
X83661802Y-103578617D01*
X83607992Y-103622778D01*
X83451467Y-103706443D01*
X83281628Y-103757963D01*
X83215444Y-103764481D01*
X83149261Y-103771000D01*
X83060741Y-103771000D01*
X82994558Y-103764481D01*
X82928374Y-103757963D01*
X82758535Y-103706443D01*
X82602010Y-103622778D01*
X82548200Y-103578617D01*
X82464815Y-103510186D01*
X82381553Y-103408729D01*
X82352223Y-103372991D01*
X82268558Y-103216466D01*
X82217038Y-103046627D01*
X82199642Y-102870000D01*
X82217038Y-102693373D01*
X82268558Y-102523534D01*
X82352223Y-102367009D01*
X82381553Y-102331271D01*
X82464815Y-102229814D01*
X82566272Y-102146552D01*
X82602010Y-102117222D01*
X82758535Y-102033557D01*
X82928374Y-101982037D01*
X82994559Y-101975518D01*
X83060741Y-101969000D01*
X83149261Y-101969000D01*
X83215443Y-101975518D01*
X83215443Y-101975518D01*
G37*
G36*
X80675443Y-101975518D02*
G01*
X80741628Y-101982037D01*
X80911467Y-102033557D01*
X81067992Y-102117222D01*
X81103730Y-102146552D01*
X81205187Y-102229814D01*
X81288449Y-102331271D01*
X81317779Y-102367009D01*
X81401444Y-102523534D01*
X81452964Y-102693373D01*
X81470360Y-102870000D01*
X81452964Y-103046627D01*
X81401444Y-103216466D01*
X81317779Y-103372991D01*
X81288449Y-103408729D01*
X81205187Y-103510186D01*
X81121802Y-103578617D01*
X81067992Y-103622778D01*
X80911467Y-103706443D01*
X80741628Y-103757963D01*
X80675444Y-103764481D01*
X80609261Y-103771000D01*
X80520741Y-103771000D01*
X80454558Y-103764481D01*
X80388374Y-103757963D01*
X80218535Y-103706443D01*
X80062010Y-103622778D01*
X80008200Y-103578617D01*
X79924815Y-103510186D01*
X79841553Y-103408729D01*
X79812223Y-103372991D01*
X79728558Y-103216466D01*
X79677038Y-103046627D01*
X79659642Y-102870000D01*
X79677038Y-102693373D01*
X79728558Y-102523534D01*
X79812223Y-102367009D01*
X79841553Y-102331271D01*
X79924815Y-102229814D01*
X80026272Y-102146552D01*
X80062010Y-102117222D01*
X80218535Y-102033557D01*
X80388374Y-101982037D01*
X80454559Y-101975518D01*
X80520741Y-101969000D01*
X80609261Y-101969000D01*
X80675443Y-101975518D01*
X80675443Y-101975518D01*
G37*
G36*
X78135443Y-101975518D02*
G01*
X78201628Y-101982037D01*
X78371467Y-102033557D01*
X78527992Y-102117222D01*
X78563730Y-102146552D01*
X78665187Y-102229814D01*
X78748449Y-102331271D01*
X78777779Y-102367009D01*
X78861444Y-102523534D01*
X78912964Y-102693373D01*
X78930360Y-102870000D01*
X78912964Y-103046627D01*
X78861444Y-103216466D01*
X78777779Y-103372991D01*
X78748449Y-103408729D01*
X78665187Y-103510186D01*
X78581802Y-103578617D01*
X78527992Y-103622778D01*
X78371467Y-103706443D01*
X78201628Y-103757963D01*
X78135444Y-103764481D01*
X78069261Y-103771000D01*
X77980741Y-103771000D01*
X77914558Y-103764481D01*
X77848374Y-103757963D01*
X77678535Y-103706443D01*
X77522010Y-103622778D01*
X77468200Y-103578617D01*
X77384815Y-103510186D01*
X77301553Y-103408729D01*
X77272223Y-103372991D01*
X77188558Y-103216466D01*
X77137038Y-103046627D01*
X77119642Y-102870000D01*
X77137038Y-102693373D01*
X77188558Y-102523534D01*
X77272223Y-102367009D01*
X77301553Y-102331271D01*
X77384815Y-102229814D01*
X77486272Y-102146552D01*
X77522010Y-102117222D01*
X77678535Y-102033557D01*
X77848374Y-101982037D01*
X77914559Y-101975518D01*
X77980741Y-101969000D01*
X78069261Y-101969000D01*
X78135443Y-101975518D01*
X78135443Y-101975518D01*
G37*
G36*
X73055443Y-101975518D02*
G01*
X73121628Y-101982037D01*
X73291467Y-102033557D01*
X73447992Y-102117222D01*
X73483730Y-102146552D01*
X73585187Y-102229814D01*
X73668449Y-102331271D01*
X73697779Y-102367009D01*
X73781444Y-102523534D01*
X73832964Y-102693373D01*
X73850360Y-102870000D01*
X73832964Y-103046627D01*
X73781444Y-103216466D01*
X73697779Y-103372991D01*
X73668449Y-103408729D01*
X73585187Y-103510186D01*
X73501802Y-103578617D01*
X73447992Y-103622778D01*
X73291467Y-103706443D01*
X73121628Y-103757963D01*
X73055444Y-103764481D01*
X72989261Y-103771000D01*
X72900741Y-103771000D01*
X72834558Y-103764481D01*
X72768374Y-103757963D01*
X72598535Y-103706443D01*
X72442010Y-103622778D01*
X72388200Y-103578617D01*
X72304815Y-103510186D01*
X72221553Y-103408729D01*
X72192223Y-103372991D01*
X72108558Y-103216466D01*
X72057038Y-103046627D01*
X72039642Y-102870000D01*
X72057038Y-102693373D01*
X72108558Y-102523534D01*
X72192223Y-102367009D01*
X72221553Y-102331271D01*
X72304815Y-102229814D01*
X72406272Y-102146552D01*
X72442010Y-102117222D01*
X72598535Y-102033557D01*
X72768374Y-101982037D01*
X72834559Y-101975518D01*
X72900741Y-101969000D01*
X72989261Y-101969000D01*
X73055443Y-101975518D01*
X73055443Y-101975518D01*
G37*
G36*
X95915443Y-101975518D02*
G01*
X95981628Y-101982037D01*
X96151467Y-102033557D01*
X96307992Y-102117222D01*
X96343730Y-102146552D01*
X96445187Y-102229814D01*
X96528449Y-102331271D01*
X96557779Y-102367009D01*
X96641444Y-102523534D01*
X96692964Y-102693373D01*
X96710360Y-102870000D01*
X96692964Y-103046627D01*
X96641444Y-103216466D01*
X96557779Y-103372991D01*
X96528449Y-103408729D01*
X96445187Y-103510186D01*
X96361802Y-103578617D01*
X96307992Y-103622778D01*
X96151467Y-103706443D01*
X95981628Y-103757963D01*
X95915444Y-103764481D01*
X95849261Y-103771000D01*
X95760741Y-103771000D01*
X95694558Y-103764481D01*
X95628374Y-103757963D01*
X95458535Y-103706443D01*
X95302010Y-103622778D01*
X95248200Y-103578617D01*
X95164815Y-103510186D01*
X95081553Y-103408729D01*
X95052223Y-103372991D01*
X94968558Y-103216466D01*
X94917038Y-103046627D01*
X94899642Y-102870000D01*
X94917038Y-102693373D01*
X94968558Y-102523534D01*
X95052223Y-102367009D01*
X95081553Y-102331271D01*
X95164815Y-102229814D01*
X95266272Y-102146552D01*
X95302010Y-102117222D01*
X95458535Y-102033557D01*
X95628374Y-101982037D01*
X95694559Y-101975518D01*
X95760741Y-101969000D01*
X95849261Y-101969000D01*
X95915443Y-101975518D01*
X95915443Y-101975518D01*
G37*
G36*
X93375443Y-101975518D02*
G01*
X93441628Y-101982037D01*
X93611467Y-102033557D01*
X93767992Y-102117222D01*
X93803730Y-102146552D01*
X93905187Y-102229814D01*
X93988449Y-102331271D01*
X94017779Y-102367009D01*
X94101444Y-102523534D01*
X94152964Y-102693373D01*
X94170360Y-102870000D01*
X94152964Y-103046627D01*
X94101444Y-103216466D01*
X94017779Y-103372991D01*
X93988449Y-103408729D01*
X93905187Y-103510186D01*
X93821802Y-103578617D01*
X93767992Y-103622778D01*
X93611467Y-103706443D01*
X93441628Y-103757963D01*
X93375444Y-103764481D01*
X93309261Y-103771000D01*
X93220741Y-103771000D01*
X93154558Y-103764481D01*
X93088374Y-103757963D01*
X92918535Y-103706443D01*
X92762010Y-103622778D01*
X92708200Y-103578617D01*
X92624815Y-103510186D01*
X92541553Y-103408729D01*
X92512223Y-103372991D01*
X92428558Y-103216466D01*
X92377038Y-103046627D01*
X92359642Y-102870000D01*
X92377038Y-102693373D01*
X92428558Y-102523534D01*
X92512223Y-102367009D01*
X92541553Y-102331271D01*
X92624815Y-102229814D01*
X92726272Y-102146552D01*
X92762010Y-102117222D01*
X92918535Y-102033557D01*
X93088374Y-101982037D01*
X93154559Y-101975518D01*
X93220741Y-101969000D01*
X93309261Y-101969000D01*
X93375443Y-101975518D01*
X93375443Y-101975518D01*
G37*
G36*
X110885548Y-102026303D02*
G01*
X111040420Y-102090453D01*
X111179801Y-102183585D01*
X111298335Y-102302119D01*
X111391467Y-102441500D01*
X111455617Y-102596372D01*
X111488320Y-102760784D01*
X111488320Y-102928416D01*
X111455617Y-103092828D01*
X111391467Y-103247700D01*
X111298335Y-103387081D01*
X111179801Y-103505615D01*
X111040420Y-103598747D01*
X110885548Y-103662897D01*
X110721136Y-103695600D01*
X110553504Y-103695600D01*
X110389092Y-103662897D01*
X110234220Y-103598747D01*
X110094839Y-103505615D01*
X109976305Y-103387081D01*
X109883173Y-103247700D01*
X109819023Y-103092828D01*
X109786320Y-102928416D01*
X109786320Y-102760784D01*
X109819023Y-102596372D01*
X109883173Y-102441500D01*
X109976305Y-102302119D01*
X110094839Y-102183585D01*
X110234220Y-102090453D01*
X110389092Y-102026303D01*
X110553504Y-101993600D01*
X110721136Y-101993600D01*
X110885548Y-102026303D01*
X110885548Y-102026303D01*
G37*
G36*
X104580694Y-100647833D02*
G01*
X104753095Y-100700131D01*
X104911983Y-100785058D01*
X105051249Y-100899351D01*
X105165542Y-101038617D01*
X105250469Y-101197505D01*
X105302767Y-101369906D01*
X105320425Y-101549200D01*
X105302767Y-101728494D01*
X105250469Y-101900895D01*
X105165542Y-102059783D01*
X105051249Y-102199049D01*
X104911983Y-102313342D01*
X104753095Y-102398269D01*
X104580694Y-102450567D01*
X104446331Y-102463800D01*
X103833669Y-102463800D01*
X103699306Y-102450567D01*
X103526905Y-102398269D01*
X103368017Y-102313342D01*
X103228751Y-102199049D01*
X103114458Y-102059783D01*
X103029531Y-101900895D01*
X102977233Y-101728494D01*
X102959575Y-101549200D01*
X102977233Y-101369906D01*
X103029531Y-101197505D01*
X103114458Y-101038617D01*
X103228751Y-100899351D01*
X103368017Y-100785058D01*
X103526905Y-100700131D01*
X103699306Y-100647833D01*
X103833669Y-100634600D01*
X104446331Y-100634600D01*
X104580694Y-100647833D01*
X104580694Y-100647833D01*
G37*
G36*
X119820694Y-100647833D02*
G01*
X119993095Y-100700131D01*
X120151983Y-100785058D01*
X120291249Y-100899351D01*
X120405542Y-101038617D01*
X120490469Y-101197505D01*
X120542767Y-101369906D01*
X120560425Y-101549200D01*
X120542767Y-101728494D01*
X120490469Y-101900895D01*
X120405542Y-102059783D01*
X120291249Y-102199049D01*
X120151983Y-102313342D01*
X119993095Y-102398269D01*
X119820694Y-102450567D01*
X119686331Y-102463800D01*
X119073669Y-102463800D01*
X118939306Y-102450567D01*
X118766905Y-102398269D01*
X118608017Y-102313342D01*
X118468751Y-102199049D01*
X118354458Y-102059783D01*
X118269531Y-101900895D01*
X118217233Y-101728494D01*
X118199575Y-101549200D01*
X118217233Y-101369906D01*
X118269531Y-101197505D01*
X118354458Y-101038617D01*
X118468751Y-100899351D01*
X118608017Y-100785058D01*
X118766905Y-100700131D01*
X118939306Y-100647833D01*
X119073669Y-100634600D01*
X119686331Y-100634600D01*
X119820694Y-100647833D01*
X119820694Y-100647833D01*
G37*
G36*
X128436823Y-100761313D02*
G01*
X128597242Y-100809976D01*
X128729906Y-100880886D01*
X128745078Y-100888996D01*
X128874659Y-100995341D01*
X128981004Y-101124922D01*
X128981005Y-101124924D01*
X129060024Y-101272758D01*
X129108687Y-101433177D01*
X129125117Y-101600000D01*
X129108687Y-101766823D01*
X129060024Y-101927242D01*
X129030735Y-101982037D01*
X128981004Y-102075078D01*
X128874659Y-102204659D01*
X128745078Y-102311004D01*
X128745076Y-102311005D01*
X128597242Y-102390024D01*
X128436823Y-102438687D01*
X128311804Y-102451000D01*
X128228196Y-102451000D01*
X128103177Y-102438687D01*
X127942758Y-102390024D01*
X127794924Y-102311005D01*
X127794922Y-102311004D01*
X127665341Y-102204659D01*
X127558996Y-102075078D01*
X127509265Y-101982037D01*
X127479976Y-101927242D01*
X127431313Y-101766823D01*
X127414883Y-101600000D01*
X127431313Y-101433177D01*
X127479976Y-101272758D01*
X127558995Y-101124924D01*
X127558996Y-101124922D01*
X127665341Y-100995341D01*
X127794922Y-100888996D01*
X127810094Y-100880886D01*
X127942758Y-100809976D01*
X128103177Y-100761313D01*
X128228196Y-100749000D01*
X128311804Y-100749000D01*
X128436823Y-100761313D01*
X128436823Y-100761313D01*
G37*
G36*
X136056823Y-100761313D02*
G01*
X136217242Y-100809976D01*
X136349906Y-100880886D01*
X136365078Y-100888996D01*
X136494659Y-100995341D01*
X136601004Y-101124922D01*
X136601005Y-101124924D01*
X136680024Y-101272758D01*
X136728687Y-101433177D01*
X136745117Y-101600000D01*
X136728687Y-101766823D01*
X136680024Y-101927242D01*
X136650735Y-101982037D01*
X136601004Y-102075078D01*
X136494659Y-102204659D01*
X136365078Y-102311004D01*
X136365076Y-102311005D01*
X136217242Y-102390024D01*
X136056823Y-102438687D01*
X135931804Y-102451000D01*
X135848196Y-102451000D01*
X135723177Y-102438687D01*
X135562758Y-102390024D01*
X135414924Y-102311005D01*
X135414922Y-102311004D01*
X135285341Y-102204659D01*
X135178996Y-102075078D01*
X135129265Y-101982037D01*
X135099976Y-101927242D01*
X135051313Y-101766823D01*
X135034883Y-101600000D01*
X135051313Y-101433177D01*
X135099976Y-101272758D01*
X135178995Y-101124924D01*
X135178996Y-101124922D01*
X135285341Y-100995341D01*
X135414922Y-100888996D01*
X135430094Y-100880886D01*
X135562758Y-100809976D01*
X135723177Y-100761313D01*
X135848196Y-100749000D01*
X135931804Y-100749000D01*
X136056823Y-100761313D01*
X136056823Y-100761313D01*
G37*
G36*
X110885548Y-99694583D02*
G01*
X111040420Y-99758733D01*
X111179801Y-99851865D01*
X111298335Y-99970399D01*
X111391467Y-100109780D01*
X111455617Y-100264652D01*
X111488320Y-100429064D01*
X111488320Y-100596696D01*
X111455617Y-100761108D01*
X111391467Y-100915980D01*
X111298335Y-101055361D01*
X111179801Y-101173895D01*
X111040420Y-101267027D01*
X110885548Y-101331177D01*
X110721136Y-101363880D01*
X110553504Y-101363880D01*
X110389092Y-101331177D01*
X110234220Y-101267027D01*
X110094839Y-101173895D01*
X109976305Y-101055361D01*
X109883173Y-100915980D01*
X109819023Y-100761108D01*
X109786320Y-100596696D01*
X109786320Y-100429064D01*
X109819023Y-100264652D01*
X109883173Y-100109780D01*
X109976305Y-99970399D01*
X110094839Y-99851865D01*
X110234220Y-99758733D01*
X110389092Y-99694583D01*
X110553504Y-99661880D01*
X110721136Y-99661880D01*
X110885548Y-99694583D01*
X110885548Y-99694583D01*
G37*
G36*
X113796263Y-98297513D02*
G01*
X113956682Y-98346176D01*
X114089346Y-98417086D01*
X114104518Y-98425196D01*
X114234099Y-98531541D01*
X114340444Y-98661122D01*
X114340445Y-98661124D01*
X114419464Y-98808958D01*
X114468127Y-98969377D01*
X114484557Y-99136200D01*
X114468127Y-99303023D01*
X114419464Y-99463442D01*
X114348554Y-99596106D01*
X114340444Y-99611278D01*
X114234099Y-99740859D01*
X114104518Y-99847204D01*
X114104516Y-99847205D01*
X113956682Y-99926224D01*
X113796263Y-99974887D01*
X113671244Y-99987200D01*
X113587636Y-99987200D01*
X113462617Y-99974887D01*
X113302198Y-99926224D01*
X113154364Y-99847205D01*
X113154362Y-99847204D01*
X113024781Y-99740859D01*
X112918436Y-99611278D01*
X112910326Y-99596106D01*
X112839416Y-99463442D01*
X112790753Y-99303023D01*
X112774323Y-99136200D01*
X112790753Y-98969377D01*
X112839416Y-98808958D01*
X112918435Y-98661124D01*
X112918436Y-98661122D01*
X113024781Y-98531541D01*
X113154362Y-98425196D01*
X113169534Y-98417086D01*
X113302198Y-98346176D01*
X113462617Y-98297513D01*
X113587636Y-98285200D01*
X113671244Y-98285200D01*
X113796263Y-98297513D01*
X113796263Y-98297513D01*
G37*
G36*
X104580694Y-98107833D02*
G01*
X104753095Y-98160131D01*
X104911983Y-98245058D01*
X105051249Y-98359351D01*
X105165542Y-98498617D01*
X105250469Y-98657505D01*
X105302767Y-98829906D01*
X105320425Y-99009200D01*
X105302767Y-99188494D01*
X105250469Y-99360895D01*
X105165542Y-99519783D01*
X105051249Y-99659049D01*
X104911983Y-99773342D01*
X104753095Y-99858269D01*
X104580694Y-99910567D01*
X104446331Y-99923800D01*
X103833669Y-99923800D01*
X103699306Y-99910567D01*
X103526905Y-99858269D01*
X103368017Y-99773342D01*
X103228751Y-99659049D01*
X103114458Y-99519783D01*
X103029531Y-99360895D01*
X102977233Y-99188494D01*
X102959575Y-99009200D01*
X102977233Y-98829906D01*
X103029531Y-98657505D01*
X103114458Y-98498617D01*
X103228751Y-98359351D01*
X103368017Y-98245058D01*
X103526905Y-98160131D01*
X103699306Y-98107833D01*
X103833669Y-98094600D01*
X104446331Y-98094600D01*
X104580694Y-98107833D01*
X104580694Y-98107833D01*
G37*
G36*
X119820694Y-98107833D02*
G01*
X119993095Y-98160131D01*
X120151983Y-98245058D01*
X120291249Y-98359351D01*
X120405542Y-98498617D01*
X120490469Y-98657505D01*
X120542767Y-98829906D01*
X120560425Y-99009200D01*
X120542767Y-99188494D01*
X120490469Y-99360895D01*
X120405542Y-99519783D01*
X120291249Y-99659049D01*
X120151983Y-99773342D01*
X119993095Y-99858269D01*
X119820694Y-99910567D01*
X119686331Y-99923800D01*
X119073669Y-99923800D01*
X118939306Y-99910567D01*
X118766905Y-99858269D01*
X118608017Y-99773342D01*
X118468751Y-99659049D01*
X118354458Y-99519783D01*
X118269531Y-99360895D01*
X118217233Y-99188494D01*
X118199575Y-99009200D01*
X118217233Y-98829906D01*
X118269531Y-98657505D01*
X118354458Y-98498617D01*
X118468751Y-98359351D01*
X118608017Y-98245058D01*
X118766905Y-98160131D01*
X118939306Y-98107833D01*
X119073669Y-98094600D01*
X119686331Y-98094600D01*
X119820694Y-98107833D01*
X119820694Y-98107833D01*
G37*
G36*
X136056823Y-98221313D02*
G01*
X136217242Y-98269976D01*
X136349906Y-98340886D01*
X136365078Y-98348996D01*
X136494659Y-98455341D01*
X136601004Y-98584922D01*
X136601005Y-98584924D01*
X136680024Y-98732758D01*
X136728687Y-98893177D01*
X136745117Y-99060000D01*
X136728687Y-99226823D01*
X136680024Y-99387242D01*
X136639296Y-99463439D01*
X136601004Y-99535078D01*
X136494659Y-99664659D01*
X136365078Y-99771004D01*
X136365076Y-99771005D01*
X136217242Y-99850024D01*
X136056823Y-99898687D01*
X135931804Y-99911000D01*
X135848196Y-99911000D01*
X135723177Y-99898687D01*
X135562758Y-99850024D01*
X135414924Y-99771005D01*
X135414922Y-99771004D01*
X135285341Y-99664659D01*
X135178996Y-99535078D01*
X135140704Y-99463439D01*
X135099976Y-99387242D01*
X135051313Y-99226823D01*
X135034883Y-99060000D01*
X135051313Y-98893177D01*
X135099976Y-98732758D01*
X135178995Y-98584924D01*
X135178996Y-98584922D01*
X135285341Y-98455341D01*
X135414922Y-98348996D01*
X135430094Y-98340886D01*
X135562758Y-98269976D01*
X135723177Y-98221313D01*
X135848196Y-98209000D01*
X135931804Y-98209000D01*
X136056823Y-98221313D01*
X136056823Y-98221313D01*
G37*
G36*
X128436823Y-98221313D02*
G01*
X128597242Y-98269976D01*
X128729906Y-98340886D01*
X128745078Y-98348996D01*
X128874659Y-98455341D01*
X128981004Y-98584922D01*
X128981005Y-98584924D01*
X129060024Y-98732758D01*
X129108687Y-98893177D01*
X129125117Y-99060000D01*
X129108687Y-99226823D01*
X129060024Y-99387242D01*
X129019296Y-99463439D01*
X128981004Y-99535078D01*
X128874659Y-99664659D01*
X128745078Y-99771004D01*
X128745076Y-99771005D01*
X128597242Y-99850024D01*
X128436823Y-99898687D01*
X128311804Y-99911000D01*
X128228196Y-99911000D01*
X128103177Y-99898687D01*
X127942758Y-99850024D01*
X127794924Y-99771005D01*
X127794922Y-99771004D01*
X127665341Y-99664659D01*
X127558996Y-99535078D01*
X127520704Y-99463439D01*
X127479976Y-99387242D01*
X127431313Y-99226823D01*
X127414883Y-99060000D01*
X127431313Y-98893177D01*
X127479976Y-98732758D01*
X127558995Y-98584924D01*
X127558996Y-98584922D01*
X127665341Y-98455341D01*
X127794922Y-98348996D01*
X127810094Y-98340886D01*
X127942758Y-98269976D01*
X128103177Y-98221313D01*
X128228196Y-98209000D01*
X128311804Y-98209000D01*
X128436823Y-98221313D01*
X128436823Y-98221313D01*
G37*
G36*
X104580694Y-95567833D02*
G01*
X104753095Y-95620131D01*
X104911983Y-95705058D01*
X105051249Y-95819351D01*
X105165542Y-95958617D01*
X105250469Y-96117505D01*
X105302767Y-96289906D01*
X105320425Y-96469200D01*
X105302767Y-96648494D01*
X105250469Y-96820895D01*
X105165542Y-96979783D01*
X105051249Y-97119049D01*
X104911983Y-97233342D01*
X104753095Y-97318269D01*
X104580694Y-97370567D01*
X104446331Y-97383800D01*
X103833669Y-97383800D01*
X103699306Y-97370567D01*
X103526905Y-97318269D01*
X103368017Y-97233342D01*
X103228751Y-97119049D01*
X103114458Y-96979783D01*
X103029531Y-96820895D01*
X102977233Y-96648494D01*
X102959575Y-96469200D01*
X102977233Y-96289906D01*
X103029531Y-96117505D01*
X103114458Y-95958617D01*
X103228751Y-95819351D01*
X103368017Y-95705058D01*
X103526905Y-95620131D01*
X103699306Y-95567833D01*
X103833669Y-95554600D01*
X104446331Y-95554600D01*
X104580694Y-95567833D01*
X104580694Y-95567833D01*
G37*
G36*
X119820694Y-95567833D02*
G01*
X119993095Y-95620131D01*
X120151983Y-95705058D01*
X120291249Y-95819351D01*
X120405542Y-95958617D01*
X120490469Y-96117505D01*
X120542767Y-96289906D01*
X120560425Y-96469200D01*
X120542767Y-96648494D01*
X120490469Y-96820895D01*
X120405542Y-96979783D01*
X120291249Y-97119049D01*
X120151983Y-97233342D01*
X119993095Y-97318269D01*
X119820694Y-97370567D01*
X119686331Y-97383800D01*
X119073669Y-97383800D01*
X118939306Y-97370567D01*
X118766905Y-97318269D01*
X118608017Y-97233342D01*
X118468751Y-97119049D01*
X118354458Y-96979783D01*
X118269531Y-96820895D01*
X118217233Y-96648494D01*
X118199575Y-96469200D01*
X118217233Y-96289906D01*
X118269531Y-96117505D01*
X118354458Y-95958617D01*
X118468751Y-95819351D01*
X118608017Y-95705058D01*
X118766905Y-95620131D01*
X118939306Y-95567833D01*
X119073669Y-95554600D01*
X119686331Y-95554600D01*
X119820694Y-95567833D01*
X119820694Y-95567833D01*
G37*
G36*
X136056823Y-95681313D02*
G01*
X136217242Y-95729976D01*
X136349906Y-95800886D01*
X136365078Y-95808996D01*
X136494659Y-95915341D01*
X136601004Y-96044922D01*
X136601005Y-96044924D01*
X136680024Y-96192758D01*
X136728687Y-96353177D01*
X136745117Y-96520000D01*
X136728687Y-96686823D01*
X136680024Y-96847242D01*
X136609179Y-96979783D01*
X136601004Y-96995078D01*
X136494659Y-97124659D01*
X136365078Y-97231004D01*
X136365076Y-97231005D01*
X136217242Y-97310024D01*
X136056823Y-97358687D01*
X135931804Y-97371000D01*
X135848196Y-97371000D01*
X135723177Y-97358687D01*
X135562758Y-97310024D01*
X135414924Y-97231005D01*
X135414922Y-97231004D01*
X135285341Y-97124659D01*
X135178996Y-96995078D01*
X135170821Y-96979783D01*
X135099976Y-96847242D01*
X135051313Y-96686823D01*
X135034883Y-96520000D01*
X135051313Y-96353177D01*
X135099976Y-96192758D01*
X135178995Y-96044924D01*
X135178996Y-96044922D01*
X135285341Y-95915341D01*
X135414922Y-95808996D01*
X135430094Y-95800886D01*
X135562758Y-95729976D01*
X135723177Y-95681313D01*
X135848196Y-95669000D01*
X135931804Y-95669000D01*
X136056823Y-95681313D01*
X136056823Y-95681313D01*
G37*
G36*
X128436823Y-95681313D02*
G01*
X128597242Y-95729976D01*
X128729906Y-95800886D01*
X128745078Y-95808996D01*
X128874659Y-95915341D01*
X128981004Y-96044922D01*
X128981005Y-96044924D01*
X129060024Y-96192758D01*
X129108687Y-96353177D01*
X129125117Y-96520000D01*
X129108687Y-96686823D01*
X129060024Y-96847242D01*
X128989179Y-96979783D01*
X128981004Y-96995078D01*
X128874659Y-97124659D01*
X128745078Y-97231004D01*
X128745076Y-97231005D01*
X128597242Y-97310024D01*
X128436823Y-97358687D01*
X128311804Y-97371000D01*
X128228196Y-97371000D01*
X128103177Y-97358687D01*
X127942758Y-97310024D01*
X127794924Y-97231005D01*
X127794922Y-97231004D01*
X127665341Y-97124659D01*
X127558996Y-96995078D01*
X127550821Y-96979783D01*
X127479976Y-96847242D01*
X127431313Y-96686823D01*
X127414883Y-96520000D01*
X127431313Y-96353177D01*
X127479976Y-96192758D01*
X127558995Y-96044924D01*
X127558996Y-96044922D01*
X127665341Y-95915341D01*
X127794922Y-95808996D01*
X127810094Y-95800886D01*
X127942758Y-95729976D01*
X128103177Y-95681313D01*
X128228196Y-95669000D01*
X128311804Y-95669000D01*
X128436823Y-95681313D01*
X128436823Y-95681313D01*
G37*
G36*
X114151988Y-95249583D02*
G01*
X114306860Y-95313733D01*
X114446241Y-95406865D01*
X114564775Y-95525399D01*
X114657907Y-95664780D01*
X114722057Y-95819652D01*
X114754760Y-95984064D01*
X114754760Y-96151696D01*
X114722057Y-96316108D01*
X114657907Y-96470980D01*
X114564775Y-96610361D01*
X114446241Y-96728895D01*
X114306860Y-96822027D01*
X114151988Y-96886177D01*
X113987576Y-96918880D01*
X113819944Y-96918880D01*
X113655532Y-96886177D01*
X113500660Y-96822027D01*
X113361279Y-96728895D01*
X113242745Y-96610361D01*
X113149613Y-96470980D01*
X113085463Y-96316108D01*
X113052760Y-96151696D01*
X113052760Y-95984064D01*
X113085463Y-95819652D01*
X113149613Y-95664780D01*
X113242745Y-95525399D01*
X113361279Y-95406865D01*
X113500660Y-95313733D01*
X113655532Y-95249583D01*
X113819944Y-95216880D01*
X113987576Y-95216880D01*
X114151988Y-95249583D01*
X114151988Y-95249583D01*
G37*
G36*
X157643467Y-94195668D02*
G01*
X157659567Y-94197254D01*
X157745899Y-94223443D01*
X157832233Y-94249632D01*
X157991364Y-94334689D01*
X158130844Y-94449156D01*
X158245311Y-94588635D01*
X158330368Y-94747766D01*
X158382746Y-94920433D01*
X158396000Y-95055002D01*
X158396000Y-95444997D01*
X158388081Y-95525399D01*
X158382746Y-95579567D01*
X158370441Y-95620131D01*
X158330368Y-95752234D01*
X158245311Y-95911365D01*
X158130844Y-96050844D01*
X157991365Y-96165311D01*
X157832234Y-96250368D01*
X157745900Y-96276557D01*
X157659568Y-96302746D01*
X157643468Y-96304332D01*
X157480000Y-96320432D01*
X157316533Y-96304332D01*
X157300433Y-96302746D01*
X157214101Y-96276557D01*
X157127767Y-96250368D01*
X156968636Y-96165311D01*
X156829157Y-96050844D01*
X156714689Y-95911365D01*
X156629632Y-95752234D01*
X156577254Y-95579567D01*
X156564000Y-95444998D01*
X156564000Y-95055003D01*
X156577254Y-94920434D01*
X156577255Y-94920432D01*
X156608119Y-94818686D01*
X156629632Y-94747767D01*
X156714689Y-94588636D01*
X156829156Y-94449156D01*
X156968635Y-94334689D01*
X157127766Y-94249632D01*
X157214100Y-94223443D01*
X157300432Y-94197254D01*
X157316532Y-94195668D01*
X157480000Y-94179568D01*
X157643467Y-94195668D01*
X157643467Y-94195668D01*
G37*
G36*
X144943467Y-94195668D02*
G01*
X144959567Y-94197254D01*
X145045899Y-94223443D01*
X145132233Y-94249632D01*
X145291364Y-94334689D01*
X145430844Y-94449156D01*
X145545311Y-94588635D01*
X145630368Y-94747766D01*
X145682746Y-94920433D01*
X145696000Y-95055002D01*
X145696000Y-95444997D01*
X145688081Y-95525399D01*
X145682746Y-95579567D01*
X145670441Y-95620131D01*
X145630368Y-95752234D01*
X145545311Y-95911365D01*
X145430844Y-96050844D01*
X145291365Y-96165311D01*
X145132234Y-96250368D01*
X145045900Y-96276557D01*
X144959568Y-96302746D01*
X144943468Y-96304332D01*
X144780000Y-96320432D01*
X144616533Y-96304332D01*
X144600433Y-96302746D01*
X144514101Y-96276557D01*
X144427767Y-96250368D01*
X144268636Y-96165311D01*
X144129157Y-96050844D01*
X144014689Y-95911365D01*
X143929632Y-95752234D01*
X143877254Y-95579567D01*
X143864000Y-95444998D01*
X143864000Y-95055003D01*
X143877254Y-94920434D01*
X143877255Y-94920432D01*
X143908119Y-94818686D01*
X143929632Y-94747767D01*
X144014689Y-94588636D01*
X144129156Y-94449156D01*
X144268635Y-94334689D01*
X144427766Y-94249632D01*
X144514100Y-94223443D01*
X144600432Y-94197254D01*
X144616532Y-94195668D01*
X144780000Y-94179568D01*
X144943467Y-94195668D01*
X144943467Y-94195668D01*
G37*
G36*
X147483467Y-94195668D02*
G01*
X147499567Y-94197254D01*
X147585899Y-94223443D01*
X147672233Y-94249632D01*
X147831364Y-94334689D01*
X147970844Y-94449156D01*
X148085311Y-94588635D01*
X148170368Y-94747766D01*
X148222746Y-94920433D01*
X148236000Y-95055002D01*
X148236000Y-95444997D01*
X148228081Y-95525399D01*
X148222746Y-95579567D01*
X148210441Y-95620131D01*
X148170368Y-95752234D01*
X148085311Y-95911365D01*
X147970844Y-96050844D01*
X147831365Y-96165311D01*
X147672234Y-96250368D01*
X147585900Y-96276557D01*
X147499568Y-96302746D01*
X147483468Y-96304332D01*
X147320000Y-96320432D01*
X147156533Y-96304332D01*
X147140433Y-96302746D01*
X147054101Y-96276557D01*
X146967767Y-96250368D01*
X146808636Y-96165311D01*
X146669157Y-96050844D01*
X146554689Y-95911365D01*
X146469632Y-95752234D01*
X146417254Y-95579567D01*
X146404000Y-95444998D01*
X146404000Y-95055003D01*
X146417254Y-94920434D01*
X146417255Y-94920432D01*
X146448119Y-94818686D01*
X146469632Y-94747767D01*
X146554689Y-94588636D01*
X146669156Y-94449156D01*
X146808635Y-94334689D01*
X146967766Y-94249632D01*
X147054100Y-94223443D01*
X147140432Y-94197254D01*
X147156532Y-94195668D01*
X147320000Y-94179568D01*
X147483467Y-94195668D01*
X147483467Y-94195668D01*
G37*
G36*
X155103467Y-94195668D02*
G01*
X155119567Y-94197254D01*
X155205899Y-94223443D01*
X155292233Y-94249632D01*
X155451364Y-94334689D01*
X155590844Y-94449156D01*
X155705311Y-94588635D01*
X155790368Y-94747766D01*
X155842746Y-94920433D01*
X155856000Y-95055002D01*
X155856000Y-95444997D01*
X155848081Y-95525399D01*
X155842746Y-95579567D01*
X155830441Y-95620131D01*
X155790368Y-95752234D01*
X155705311Y-95911365D01*
X155590844Y-96050844D01*
X155451365Y-96165311D01*
X155292234Y-96250368D01*
X155205900Y-96276557D01*
X155119568Y-96302746D01*
X155103468Y-96304332D01*
X154940000Y-96320432D01*
X154776533Y-96304332D01*
X154760433Y-96302746D01*
X154674101Y-96276557D01*
X154587767Y-96250368D01*
X154428636Y-96165311D01*
X154289157Y-96050844D01*
X154174689Y-95911365D01*
X154089632Y-95752234D01*
X154037254Y-95579567D01*
X154024000Y-95444998D01*
X154024000Y-95055003D01*
X154037254Y-94920434D01*
X154037255Y-94920432D01*
X154068119Y-94818686D01*
X154089632Y-94747767D01*
X154174689Y-94588636D01*
X154289156Y-94449156D01*
X154428635Y-94334689D01*
X154587766Y-94249632D01*
X154674100Y-94223443D01*
X154760432Y-94197254D01*
X154776532Y-94195668D01*
X154940000Y-94179568D01*
X155103467Y-94195668D01*
X155103467Y-94195668D01*
G37*
G36*
X165263467Y-94195668D02*
G01*
X165279567Y-94197254D01*
X165365899Y-94223443D01*
X165452233Y-94249632D01*
X165611364Y-94334689D01*
X165750844Y-94449156D01*
X165865311Y-94588635D01*
X165950368Y-94747766D01*
X166002746Y-94920433D01*
X166016000Y-95055002D01*
X166016000Y-95444997D01*
X166008081Y-95525399D01*
X166002746Y-95579567D01*
X165990441Y-95620131D01*
X165950368Y-95752234D01*
X165865311Y-95911365D01*
X165750844Y-96050844D01*
X165611365Y-96165311D01*
X165452234Y-96250368D01*
X165365900Y-96276557D01*
X165279568Y-96302746D01*
X165263468Y-96304332D01*
X165100000Y-96320432D01*
X164936533Y-96304332D01*
X164920433Y-96302746D01*
X164834101Y-96276557D01*
X164747767Y-96250368D01*
X164588636Y-96165311D01*
X164449157Y-96050844D01*
X164334689Y-95911365D01*
X164249632Y-95752234D01*
X164197254Y-95579567D01*
X164184000Y-95444998D01*
X164184000Y-95055003D01*
X164197254Y-94920434D01*
X164197255Y-94920432D01*
X164228119Y-94818686D01*
X164249632Y-94747767D01*
X164334689Y-94588636D01*
X164449156Y-94449156D01*
X164588635Y-94334689D01*
X164747766Y-94249632D01*
X164834100Y-94223443D01*
X164920432Y-94197254D01*
X164936532Y-94195668D01*
X165100000Y-94179568D01*
X165263467Y-94195668D01*
X165263467Y-94195668D01*
G37*
G36*
X167803467Y-94195668D02*
G01*
X167819567Y-94197254D01*
X167905899Y-94223443D01*
X167992233Y-94249632D01*
X168151364Y-94334689D01*
X168290844Y-94449156D01*
X168405311Y-94588635D01*
X168490368Y-94747766D01*
X168542746Y-94920433D01*
X168556000Y-95055002D01*
X168556000Y-95444997D01*
X168548081Y-95525399D01*
X168542746Y-95579567D01*
X168530441Y-95620131D01*
X168490368Y-95752234D01*
X168405311Y-95911365D01*
X168290844Y-96050844D01*
X168151365Y-96165311D01*
X167992234Y-96250368D01*
X167905900Y-96276557D01*
X167819568Y-96302746D01*
X167803468Y-96304332D01*
X167640000Y-96320432D01*
X167476533Y-96304332D01*
X167460433Y-96302746D01*
X167374101Y-96276557D01*
X167287767Y-96250368D01*
X167128636Y-96165311D01*
X166989157Y-96050844D01*
X166874689Y-95911365D01*
X166789632Y-95752234D01*
X166737254Y-95579567D01*
X166724000Y-95444998D01*
X166724000Y-95055003D01*
X166737254Y-94920434D01*
X166737255Y-94920432D01*
X166768119Y-94818686D01*
X166789632Y-94747767D01*
X166874689Y-94588636D01*
X166989156Y-94449156D01*
X167128635Y-94334689D01*
X167287766Y-94249632D01*
X167374100Y-94223443D01*
X167460432Y-94197254D01*
X167476532Y-94195668D01*
X167640000Y-94179568D01*
X167803467Y-94195668D01*
X167803467Y-94195668D01*
G37*
G36*
X153316000Y-96316000D02*
G01*
X151484000Y-96316000D01*
X151484000Y-94184000D01*
X153316000Y-94184000D01*
X153316000Y-96316000D01*
X153316000Y-96316000D01*
G37*
G36*
X143156000Y-96316000D02*
G01*
X141324000Y-96316000D01*
X141324000Y-94184000D01*
X143156000Y-94184000D01*
X143156000Y-96316000D01*
X143156000Y-96316000D01*
G37*
G36*
X163476000Y-96316000D02*
G01*
X161644000Y-96316000D01*
X161644000Y-94184000D01*
X163476000Y-94184000D01*
X163476000Y-96316000D01*
X163476000Y-96316000D01*
G37*
G36*
X104580694Y-93027833D02*
G01*
X104753095Y-93080131D01*
X104911983Y-93165058D01*
X105051249Y-93279351D01*
X105165542Y-93418617D01*
X105250469Y-93577505D01*
X105302767Y-93749906D01*
X105320425Y-93929200D01*
X105302767Y-94108494D01*
X105250469Y-94280895D01*
X105165542Y-94439783D01*
X105051249Y-94579049D01*
X104911983Y-94693342D01*
X104753095Y-94778269D01*
X104580694Y-94830567D01*
X104446331Y-94843800D01*
X103833669Y-94843800D01*
X103699306Y-94830567D01*
X103526905Y-94778269D01*
X103368017Y-94693342D01*
X103228751Y-94579049D01*
X103114458Y-94439783D01*
X103029531Y-94280895D01*
X102977233Y-94108494D01*
X102959575Y-93929200D01*
X102977233Y-93749906D01*
X103029531Y-93577505D01*
X103114458Y-93418617D01*
X103228751Y-93279351D01*
X103368017Y-93165058D01*
X103526905Y-93080131D01*
X103699306Y-93027833D01*
X103833669Y-93014600D01*
X104446331Y-93014600D01*
X104580694Y-93027833D01*
X104580694Y-93027833D01*
G37*
G36*
X119820694Y-93027833D02*
G01*
X119993095Y-93080131D01*
X120151983Y-93165058D01*
X120291249Y-93279351D01*
X120405542Y-93418617D01*
X120490469Y-93577505D01*
X120542767Y-93749906D01*
X120560425Y-93929200D01*
X120542767Y-94108494D01*
X120490469Y-94280895D01*
X120405542Y-94439783D01*
X120291249Y-94579049D01*
X120151983Y-94693342D01*
X119993095Y-94778269D01*
X119820694Y-94830567D01*
X119686331Y-94843800D01*
X119073669Y-94843800D01*
X118939306Y-94830567D01*
X118766905Y-94778269D01*
X118608017Y-94693342D01*
X118468751Y-94579049D01*
X118354458Y-94439783D01*
X118269531Y-94280895D01*
X118217233Y-94108494D01*
X118199575Y-93929200D01*
X118217233Y-93749906D01*
X118269531Y-93577505D01*
X118354458Y-93418617D01*
X118468751Y-93279351D01*
X118608017Y-93165058D01*
X118766905Y-93080131D01*
X118939306Y-93027833D01*
X119073669Y-93014600D01*
X119686331Y-93014600D01*
X119820694Y-93027833D01*
X119820694Y-93027833D01*
G37*
G36*
X136056823Y-93141313D02*
G01*
X136217242Y-93189976D01*
X136349906Y-93260886D01*
X136365078Y-93268996D01*
X136494659Y-93375341D01*
X136601004Y-93504922D01*
X136601005Y-93504924D01*
X136680024Y-93652758D01*
X136728687Y-93813177D01*
X136745117Y-93980000D01*
X136728687Y-94146823D01*
X136680024Y-94307242D01*
X136665353Y-94334689D01*
X136601004Y-94455078D01*
X136494659Y-94584659D01*
X136365078Y-94691004D01*
X136365076Y-94691005D01*
X136217242Y-94770024D01*
X136056823Y-94818687D01*
X135931804Y-94831000D01*
X135848196Y-94831000D01*
X135723177Y-94818687D01*
X135562758Y-94770024D01*
X135414924Y-94691005D01*
X135414922Y-94691004D01*
X135285341Y-94584659D01*
X135178996Y-94455078D01*
X135114647Y-94334689D01*
X135099976Y-94307242D01*
X135051313Y-94146823D01*
X135034883Y-93980000D01*
X135051313Y-93813177D01*
X135099976Y-93652758D01*
X135178995Y-93504924D01*
X135178996Y-93504922D01*
X135285341Y-93375341D01*
X135414922Y-93268996D01*
X135430094Y-93260886D01*
X135562758Y-93189976D01*
X135723177Y-93141313D01*
X135848196Y-93129000D01*
X135931804Y-93129000D01*
X136056823Y-93141313D01*
X136056823Y-93141313D01*
G37*
G36*
X128436823Y-93141313D02*
G01*
X128597242Y-93189976D01*
X128729906Y-93260886D01*
X128745078Y-93268996D01*
X128874659Y-93375341D01*
X128981004Y-93504922D01*
X128981005Y-93504924D01*
X129060024Y-93652758D01*
X129108687Y-93813177D01*
X129125117Y-93980000D01*
X129108687Y-94146823D01*
X129060024Y-94307242D01*
X129045353Y-94334689D01*
X128981004Y-94455078D01*
X128874659Y-94584659D01*
X128745078Y-94691004D01*
X128745076Y-94691005D01*
X128597242Y-94770024D01*
X128436823Y-94818687D01*
X128311804Y-94831000D01*
X128228196Y-94831000D01*
X128103177Y-94818687D01*
X127942758Y-94770024D01*
X127794924Y-94691005D01*
X127794922Y-94691004D01*
X127665341Y-94584659D01*
X127558996Y-94455078D01*
X127494647Y-94334689D01*
X127479976Y-94307242D01*
X127431313Y-94146823D01*
X127414883Y-93980000D01*
X127431313Y-93813177D01*
X127479976Y-93652758D01*
X127558995Y-93504924D01*
X127558996Y-93504922D01*
X127665341Y-93375341D01*
X127794922Y-93268996D01*
X127810094Y-93260886D01*
X127942758Y-93189976D01*
X128103177Y-93141313D01*
X128228196Y-93129000D01*
X128311804Y-93129000D01*
X128436823Y-93141313D01*
X128436823Y-93141313D01*
G37*
G36*
X104580694Y-90487833D02*
G01*
X104753095Y-90540131D01*
X104911983Y-90625058D01*
X105051249Y-90739351D01*
X105165542Y-90878617D01*
X105250469Y-91037505D01*
X105302767Y-91209906D01*
X105320425Y-91389200D01*
X105302767Y-91568494D01*
X105250469Y-91740895D01*
X105165542Y-91899783D01*
X105051249Y-92039049D01*
X104911983Y-92153342D01*
X104753095Y-92238269D01*
X104580694Y-92290567D01*
X104446331Y-92303800D01*
X103833669Y-92303800D01*
X103699306Y-92290567D01*
X103526905Y-92238269D01*
X103368017Y-92153342D01*
X103228751Y-92039049D01*
X103114458Y-91899783D01*
X103029531Y-91740895D01*
X102977233Y-91568494D01*
X102959575Y-91389200D01*
X102977233Y-91209906D01*
X103029531Y-91037505D01*
X103114458Y-90878617D01*
X103228751Y-90739351D01*
X103368017Y-90625058D01*
X103526905Y-90540131D01*
X103699306Y-90487833D01*
X103833669Y-90474600D01*
X104446331Y-90474600D01*
X104580694Y-90487833D01*
X104580694Y-90487833D01*
G37*
G36*
X119820694Y-90487833D02*
G01*
X119993095Y-90540131D01*
X120151983Y-90625058D01*
X120291249Y-90739351D01*
X120405542Y-90878617D01*
X120490469Y-91037505D01*
X120542767Y-91209906D01*
X120560425Y-91389200D01*
X120542767Y-91568494D01*
X120490469Y-91740895D01*
X120405542Y-91899783D01*
X120291249Y-92039049D01*
X120151983Y-92153342D01*
X119993095Y-92238269D01*
X119820694Y-92290567D01*
X119686331Y-92303800D01*
X119073669Y-92303800D01*
X118939306Y-92290567D01*
X118766905Y-92238269D01*
X118608017Y-92153342D01*
X118468751Y-92039049D01*
X118354458Y-91899783D01*
X118269531Y-91740895D01*
X118217233Y-91568494D01*
X118199575Y-91389200D01*
X118217233Y-91209906D01*
X118269531Y-91037505D01*
X118354458Y-90878617D01*
X118468751Y-90739351D01*
X118608017Y-90625058D01*
X118766905Y-90540131D01*
X118939306Y-90487833D01*
X119073669Y-90474600D01*
X119686331Y-90474600D01*
X119820694Y-90487833D01*
X119820694Y-90487833D01*
G37*
G36*
X136056823Y-90601313D02*
G01*
X136217242Y-90649976D01*
X136349906Y-90720886D01*
X136365078Y-90728996D01*
X136494659Y-90835341D01*
X136601004Y-90964922D01*
X136601005Y-90964924D01*
X136680024Y-91112758D01*
X136728687Y-91273177D01*
X136745117Y-91440000D01*
X136728687Y-91606823D01*
X136680024Y-91767242D01*
X136609179Y-91899783D01*
X136601004Y-91915078D01*
X136494659Y-92044659D01*
X136365078Y-92151004D01*
X136365076Y-92151005D01*
X136217242Y-92230024D01*
X136056823Y-92278687D01*
X135931804Y-92291000D01*
X135848196Y-92291000D01*
X135723177Y-92278687D01*
X135562758Y-92230024D01*
X135414924Y-92151005D01*
X135414922Y-92151004D01*
X135285341Y-92044659D01*
X135178996Y-91915078D01*
X135170821Y-91899783D01*
X135099976Y-91767242D01*
X135051313Y-91606823D01*
X135034883Y-91440000D01*
X135051313Y-91273177D01*
X135099976Y-91112758D01*
X135178995Y-90964924D01*
X135178996Y-90964922D01*
X135285341Y-90835341D01*
X135414922Y-90728996D01*
X135430094Y-90720886D01*
X135562758Y-90649976D01*
X135723177Y-90601313D01*
X135848196Y-90589000D01*
X135931804Y-90589000D01*
X136056823Y-90601313D01*
X136056823Y-90601313D01*
G37*
G36*
X128436823Y-90601313D02*
G01*
X128597242Y-90649976D01*
X128729906Y-90720886D01*
X128745078Y-90728996D01*
X128874659Y-90835341D01*
X128981004Y-90964922D01*
X128981005Y-90964924D01*
X129060024Y-91112758D01*
X129108687Y-91273177D01*
X129125117Y-91440000D01*
X129108687Y-91606823D01*
X129060024Y-91767242D01*
X128989179Y-91899783D01*
X128981004Y-91915078D01*
X128874659Y-92044659D01*
X128745078Y-92151004D01*
X128745076Y-92151005D01*
X128597242Y-92230024D01*
X128436823Y-92278687D01*
X128311804Y-92291000D01*
X128228196Y-92291000D01*
X128103177Y-92278687D01*
X127942758Y-92230024D01*
X127794924Y-92151005D01*
X127794922Y-92151004D01*
X127665341Y-92044659D01*
X127558996Y-91915078D01*
X127550821Y-91899783D01*
X127479976Y-91767242D01*
X127431313Y-91606823D01*
X127414883Y-91440000D01*
X127431313Y-91273177D01*
X127479976Y-91112758D01*
X127558995Y-90964924D01*
X127558996Y-90964922D01*
X127665341Y-90835341D01*
X127794922Y-90728996D01*
X127810094Y-90720886D01*
X127942758Y-90649976D01*
X128103177Y-90601313D01*
X128228196Y-90589000D01*
X128311804Y-90589000D01*
X128436823Y-90601313D01*
X128436823Y-90601313D01*
G37*
G36*
X110804143Y-89514193D02*
G01*
X110964562Y-89562856D01*
X111097226Y-89633766D01*
X111112398Y-89641876D01*
X111241979Y-89748221D01*
X111348324Y-89877802D01*
X111348325Y-89877804D01*
X111427344Y-90025638D01*
X111476007Y-90186057D01*
X111492437Y-90352880D01*
X111476007Y-90519703D01*
X111427344Y-90680122D01*
X111401220Y-90728996D01*
X111348324Y-90827958D01*
X111241979Y-90957539D01*
X111112398Y-91063884D01*
X111112396Y-91063885D01*
X110964562Y-91142904D01*
X110804143Y-91191567D01*
X110679124Y-91203880D01*
X110595516Y-91203880D01*
X110470497Y-91191567D01*
X110310078Y-91142904D01*
X110162244Y-91063885D01*
X110162242Y-91063884D01*
X110032661Y-90957539D01*
X109926316Y-90827958D01*
X109873420Y-90728996D01*
X109847296Y-90680122D01*
X109798633Y-90519703D01*
X109782203Y-90352880D01*
X109798633Y-90186057D01*
X109847296Y-90025638D01*
X109926315Y-89877804D01*
X109926316Y-89877802D01*
X110032661Y-89748221D01*
X110162242Y-89641876D01*
X110177414Y-89633766D01*
X110310078Y-89562856D01*
X110470497Y-89514193D01*
X110595516Y-89501880D01*
X110679124Y-89501880D01*
X110804143Y-89514193D01*
X110804143Y-89514193D01*
G37*
G36*
X119820694Y-87947833D02*
G01*
X119993095Y-88000131D01*
X120151983Y-88085058D01*
X120291249Y-88199351D01*
X120405542Y-88338617D01*
X120490469Y-88497505D01*
X120542767Y-88669906D01*
X120560425Y-88849200D01*
X120542767Y-89028494D01*
X120490469Y-89200895D01*
X120405542Y-89359783D01*
X120291249Y-89499049D01*
X120151983Y-89613342D01*
X119993095Y-89698269D01*
X119820694Y-89750567D01*
X119686331Y-89763800D01*
X119073669Y-89763800D01*
X118939306Y-89750567D01*
X118766905Y-89698269D01*
X118608017Y-89613342D01*
X118468751Y-89499049D01*
X118354458Y-89359783D01*
X118269531Y-89200895D01*
X118217233Y-89028494D01*
X118199575Y-88849200D01*
X118217233Y-88669906D01*
X118269531Y-88497505D01*
X118354458Y-88338617D01*
X118468751Y-88199351D01*
X118608017Y-88085058D01*
X118766905Y-88000131D01*
X118939306Y-87947833D01*
X119073669Y-87934600D01*
X119686331Y-87934600D01*
X119820694Y-87947833D01*
X119820694Y-87947833D01*
G37*
G36*
X104580694Y-87947833D02*
G01*
X104753095Y-88000131D01*
X104911983Y-88085058D01*
X105051249Y-88199351D01*
X105165542Y-88338617D01*
X105250469Y-88497505D01*
X105302767Y-88669906D01*
X105320425Y-88849200D01*
X105302767Y-89028494D01*
X105250469Y-89200895D01*
X105165542Y-89359783D01*
X105051249Y-89499049D01*
X104911983Y-89613342D01*
X104753095Y-89698269D01*
X104580694Y-89750567D01*
X104446331Y-89763800D01*
X103833669Y-89763800D01*
X103699306Y-89750567D01*
X103526905Y-89698269D01*
X103368017Y-89613342D01*
X103228751Y-89499049D01*
X103114458Y-89359783D01*
X103029531Y-89200895D01*
X102977233Y-89028494D01*
X102959575Y-88849200D01*
X102977233Y-88669906D01*
X103029531Y-88497505D01*
X103114458Y-88338617D01*
X103228751Y-88199351D01*
X103368017Y-88085058D01*
X103526905Y-88000131D01*
X103699306Y-87947833D01*
X103833669Y-87934600D01*
X104446331Y-87934600D01*
X104580694Y-87947833D01*
X104580694Y-87947833D01*
G37*
G36*
X129121000Y-89751000D02*
G01*
X127419000Y-89751000D01*
X127419000Y-88049000D01*
X129121000Y-88049000D01*
X129121000Y-89751000D01*
X129121000Y-89751000D01*
G37*
G36*
X136056823Y-88061313D02*
G01*
X136217242Y-88109976D01*
X136268146Y-88137185D01*
X136365078Y-88188996D01*
X136494659Y-88295341D01*
X136601004Y-88424922D01*
X136601005Y-88424924D01*
X136680024Y-88572758D01*
X136728687Y-88733177D01*
X136745117Y-88900000D01*
X136728687Y-89066823D01*
X136680024Y-89227242D01*
X136609179Y-89359783D01*
X136601004Y-89375078D01*
X136494659Y-89504659D01*
X136365078Y-89611004D01*
X136365076Y-89611005D01*
X136217242Y-89690024D01*
X136056823Y-89738687D01*
X135931804Y-89751000D01*
X135848196Y-89751000D01*
X135723177Y-89738687D01*
X135562758Y-89690024D01*
X135414924Y-89611005D01*
X135414922Y-89611004D01*
X135285341Y-89504659D01*
X135178996Y-89375078D01*
X135170821Y-89359783D01*
X135099976Y-89227242D01*
X135051313Y-89066823D01*
X135034883Y-88900000D01*
X135051313Y-88733177D01*
X135099976Y-88572758D01*
X135178995Y-88424924D01*
X135178996Y-88424922D01*
X135285341Y-88295341D01*
X135414922Y-88188996D01*
X135511854Y-88137185D01*
X135562758Y-88109976D01*
X135723177Y-88061313D01*
X135848196Y-88049000D01*
X135931804Y-88049000D01*
X136056823Y-88061313D01*
X136056823Y-88061313D01*
G37*
G36*
X88295444Y-87370519D02*
G01*
X88361628Y-87377037D01*
X88531467Y-87428557D01*
X88687992Y-87512222D01*
X88723730Y-87541552D01*
X88825187Y-87624814D01*
X88908449Y-87726271D01*
X88937779Y-87762009D01*
X89021444Y-87918534D01*
X89072964Y-88088373D01*
X89090360Y-88265000D01*
X89072964Y-88441627D01*
X89033185Y-88572761D01*
X89021443Y-88611468D01*
X89008520Y-88635645D01*
X88937779Y-88767991D01*
X88908449Y-88803729D01*
X88825187Y-88905186D01*
X88723730Y-88988448D01*
X88687992Y-89017778D01*
X88531467Y-89101443D01*
X88361628Y-89152963D01*
X88295444Y-89159481D01*
X88229261Y-89166000D01*
X88140741Y-89166000D01*
X88074558Y-89159481D01*
X88008374Y-89152963D01*
X87838535Y-89101443D01*
X87682010Y-89017778D01*
X87646272Y-88988448D01*
X87544815Y-88905186D01*
X87461553Y-88803729D01*
X87432223Y-88767991D01*
X87361482Y-88635645D01*
X87348559Y-88611468D01*
X87336817Y-88572761D01*
X87297038Y-88441627D01*
X87279642Y-88265000D01*
X87297038Y-88088373D01*
X87348558Y-87918534D01*
X87432223Y-87762009D01*
X87461553Y-87726271D01*
X87544815Y-87624814D01*
X87646272Y-87541552D01*
X87682010Y-87512222D01*
X87838535Y-87428557D01*
X88008374Y-87377037D01*
X88074558Y-87370519D01*
X88140741Y-87364000D01*
X88229261Y-87364000D01*
X88295444Y-87370519D01*
X88295444Y-87370519D01*
G37*
G36*
X95915444Y-87370519D02*
G01*
X95981628Y-87377037D01*
X96151467Y-87428557D01*
X96307992Y-87512222D01*
X96343730Y-87541552D01*
X96445187Y-87624814D01*
X96528449Y-87726271D01*
X96557779Y-87762009D01*
X96641444Y-87918534D01*
X96692964Y-88088373D01*
X96710360Y-88265000D01*
X96692964Y-88441627D01*
X96653185Y-88572761D01*
X96641443Y-88611468D01*
X96628520Y-88635645D01*
X96557779Y-88767991D01*
X96528449Y-88803729D01*
X96445187Y-88905186D01*
X96343730Y-88988448D01*
X96307992Y-89017778D01*
X96151467Y-89101443D01*
X95981628Y-89152963D01*
X95915444Y-89159481D01*
X95849261Y-89166000D01*
X95760741Y-89166000D01*
X95694558Y-89159481D01*
X95628374Y-89152963D01*
X95458535Y-89101443D01*
X95302010Y-89017778D01*
X95266272Y-88988448D01*
X95164815Y-88905186D01*
X95081553Y-88803729D01*
X95052223Y-88767991D01*
X94981482Y-88635645D01*
X94968559Y-88611468D01*
X94956817Y-88572761D01*
X94917038Y-88441627D01*
X94899642Y-88265000D01*
X94917038Y-88088373D01*
X94968558Y-87918534D01*
X95052223Y-87762009D01*
X95081553Y-87726271D01*
X95164815Y-87624814D01*
X95266272Y-87541552D01*
X95302010Y-87512222D01*
X95458535Y-87428557D01*
X95628374Y-87377037D01*
X95694558Y-87370519D01*
X95760741Y-87364000D01*
X95849261Y-87364000D01*
X95915444Y-87370519D01*
X95915444Y-87370519D01*
G37*
G36*
X93375444Y-87370519D02*
G01*
X93441628Y-87377037D01*
X93611467Y-87428557D01*
X93767992Y-87512222D01*
X93803730Y-87541552D01*
X93905187Y-87624814D01*
X93988449Y-87726271D01*
X94017779Y-87762009D01*
X94101444Y-87918534D01*
X94152964Y-88088373D01*
X94170360Y-88265000D01*
X94152964Y-88441627D01*
X94113185Y-88572761D01*
X94101443Y-88611468D01*
X94088520Y-88635645D01*
X94017779Y-88767991D01*
X93988449Y-88803729D01*
X93905187Y-88905186D01*
X93803730Y-88988448D01*
X93767992Y-89017778D01*
X93611467Y-89101443D01*
X93441628Y-89152963D01*
X93375444Y-89159481D01*
X93309261Y-89166000D01*
X93220741Y-89166000D01*
X93154558Y-89159481D01*
X93088374Y-89152963D01*
X92918535Y-89101443D01*
X92762010Y-89017778D01*
X92726272Y-88988448D01*
X92624815Y-88905186D01*
X92541553Y-88803729D01*
X92512223Y-88767991D01*
X92441482Y-88635645D01*
X92428559Y-88611468D01*
X92416817Y-88572761D01*
X92377038Y-88441627D01*
X92359642Y-88265000D01*
X92377038Y-88088373D01*
X92428558Y-87918534D01*
X92512223Y-87762009D01*
X92541553Y-87726271D01*
X92624815Y-87624814D01*
X92726272Y-87541552D01*
X92762010Y-87512222D01*
X92918535Y-87428557D01*
X93088374Y-87377037D01*
X93154558Y-87370519D01*
X93220741Y-87364000D01*
X93309261Y-87364000D01*
X93375444Y-87370519D01*
X93375444Y-87370519D01*
G37*
G36*
X83215444Y-87370519D02*
G01*
X83281628Y-87377037D01*
X83451467Y-87428557D01*
X83607992Y-87512222D01*
X83643730Y-87541552D01*
X83745187Y-87624814D01*
X83828449Y-87726271D01*
X83857779Y-87762009D01*
X83941444Y-87918534D01*
X83992964Y-88088373D01*
X84010360Y-88265000D01*
X83992964Y-88441627D01*
X83953185Y-88572761D01*
X83941443Y-88611468D01*
X83928520Y-88635645D01*
X83857779Y-88767991D01*
X83828449Y-88803729D01*
X83745187Y-88905186D01*
X83643730Y-88988448D01*
X83607992Y-89017778D01*
X83451467Y-89101443D01*
X83281628Y-89152963D01*
X83215444Y-89159481D01*
X83149261Y-89166000D01*
X83060741Y-89166000D01*
X82994558Y-89159481D01*
X82928374Y-89152963D01*
X82758535Y-89101443D01*
X82602010Y-89017778D01*
X82566272Y-88988448D01*
X82464815Y-88905186D01*
X82381553Y-88803729D01*
X82352223Y-88767991D01*
X82281482Y-88635645D01*
X82268559Y-88611468D01*
X82256817Y-88572761D01*
X82217038Y-88441627D01*
X82199642Y-88265000D01*
X82217038Y-88088373D01*
X82268558Y-87918534D01*
X82352223Y-87762009D01*
X82381553Y-87726271D01*
X82464815Y-87624814D01*
X82566272Y-87541552D01*
X82602010Y-87512222D01*
X82758535Y-87428557D01*
X82928374Y-87377037D01*
X82994558Y-87370519D01*
X83060741Y-87364000D01*
X83149261Y-87364000D01*
X83215444Y-87370519D01*
X83215444Y-87370519D01*
G37*
G36*
X85755444Y-87370519D02*
G01*
X85821628Y-87377037D01*
X85991467Y-87428557D01*
X86147992Y-87512222D01*
X86183730Y-87541552D01*
X86285187Y-87624814D01*
X86368449Y-87726271D01*
X86397779Y-87762009D01*
X86481444Y-87918534D01*
X86532964Y-88088373D01*
X86550360Y-88265000D01*
X86532964Y-88441627D01*
X86493185Y-88572761D01*
X86481443Y-88611468D01*
X86468520Y-88635645D01*
X86397779Y-88767991D01*
X86368449Y-88803729D01*
X86285187Y-88905186D01*
X86183730Y-88988448D01*
X86147992Y-89017778D01*
X85991467Y-89101443D01*
X85821628Y-89152963D01*
X85755444Y-89159481D01*
X85689261Y-89166000D01*
X85600741Y-89166000D01*
X85534558Y-89159481D01*
X85468374Y-89152963D01*
X85298535Y-89101443D01*
X85142010Y-89017778D01*
X85106272Y-88988448D01*
X85004815Y-88905186D01*
X84921553Y-88803729D01*
X84892223Y-88767991D01*
X84821482Y-88635645D01*
X84808559Y-88611468D01*
X84796817Y-88572761D01*
X84757038Y-88441627D01*
X84739642Y-88265000D01*
X84757038Y-88088373D01*
X84808558Y-87918534D01*
X84892223Y-87762009D01*
X84921553Y-87726271D01*
X85004815Y-87624814D01*
X85106272Y-87541552D01*
X85142010Y-87512222D01*
X85298535Y-87428557D01*
X85468374Y-87377037D01*
X85534558Y-87370519D01*
X85600741Y-87364000D01*
X85689261Y-87364000D01*
X85755444Y-87370519D01*
X85755444Y-87370519D01*
G37*
G36*
X90835444Y-87370519D02*
G01*
X90901628Y-87377037D01*
X91071467Y-87428557D01*
X91227992Y-87512222D01*
X91263730Y-87541552D01*
X91365187Y-87624814D01*
X91448449Y-87726271D01*
X91477779Y-87762009D01*
X91561444Y-87918534D01*
X91612964Y-88088373D01*
X91630360Y-88265000D01*
X91612964Y-88441627D01*
X91573185Y-88572761D01*
X91561443Y-88611468D01*
X91548520Y-88635645D01*
X91477779Y-88767991D01*
X91448449Y-88803729D01*
X91365187Y-88905186D01*
X91263730Y-88988448D01*
X91227992Y-89017778D01*
X91071467Y-89101443D01*
X90901628Y-89152963D01*
X90835444Y-89159481D01*
X90769261Y-89166000D01*
X90680741Y-89166000D01*
X90614558Y-89159481D01*
X90548374Y-89152963D01*
X90378535Y-89101443D01*
X90222010Y-89017778D01*
X90186272Y-88988448D01*
X90084815Y-88905186D01*
X90001553Y-88803729D01*
X89972223Y-88767991D01*
X89901482Y-88635645D01*
X89888559Y-88611468D01*
X89876817Y-88572761D01*
X89837038Y-88441627D01*
X89819642Y-88265000D01*
X89837038Y-88088373D01*
X89888558Y-87918534D01*
X89972223Y-87762009D01*
X90001553Y-87726271D01*
X90084815Y-87624814D01*
X90186272Y-87541552D01*
X90222010Y-87512222D01*
X90378535Y-87428557D01*
X90548374Y-87377037D01*
X90614558Y-87370519D01*
X90680741Y-87364000D01*
X90769261Y-87364000D01*
X90835444Y-87370519D01*
X90835444Y-87370519D01*
G37*
G36*
X80675444Y-87370519D02*
G01*
X80741628Y-87377037D01*
X80911467Y-87428557D01*
X81067992Y-87512222D01*
X81103730Y-87541552D01*
X81205187Y-87624814D01*
X81288449Y-87726271D01*
X81317779Y-87762009D01*
X81401444Y-87918534D01*
X81452964Y-88088373D01*
X81470360Y-88265000D01*
X81452964Y-88441627D01*
X81413185Y-88572761D01*
X81401443Y-88611468D01*
X81388520Y-88635645D01*
X81317779Y-88767991D01*
X81288449Y-88803729D01*
X81205187Y-88905186D01*
X81103730Y-88988448D01*
X81067992Y-89017778D01*
X80911467Y-89101443D01*
X80741628Y-89152963D01*
X80675444Y-89159481D01*
X80609261Y-89166000D01*
X80520741Y-89166000D01*
X80454558Y-89159481D01*
X80388374Y-89152963D01*
X80218535Y-89101443D01*
X80062010Y-89017778D01*
X80026272Y-88988448D01*
X79924815Y-88905186D01*
X79841553Y-88803729D01*
X79812223Y-88767991D01*
X79741482Y-88635645D01*
X79728559Y-88611468D01*
X79716817Y-88572761D01*
X79677038Y-88441627D01*
X79659642Y-88265000D01*
X79677038Y-88088373D01*
X79728558Y-87918534D01*
X79812223Y-87762009D01*
X79841553Y-87726271D01*
X79924815Y-87624814D01*
X80026272Y-87541552D01*
X80062010Y-87512222D01*
X80218535Y-87428557D01*
X80388374Y-87377037D01*
X80454558Y-87370519D01*
X80520741Y-87364000D01*
X80609261Y-87364000D01*
X80675444Y-87370519D01*
X80675444Y-87370519D01*
G37*
G36*
X73846001Y-89166000D02*
G01*
X72044001Y-89166000D01*
X72044001Y-87364000D01*
X73846001Y-87364000D01*
X73846001Y-89166000D01*
X73846001Y-89166000D01*
G37*
G36*
X78135444Y-87370519D02*
G01*
X78201628Y-87377037D01*
X78371467Y-87428557D01*
X78527992Y-87512222D01*
X78563730Y-87541552D01*
X78665187Y-87624814D01*
X78748449Y-87726271D01*
X78777779Y-87762009D01*
X78861444Y-87918534D01*
X78912964Y-88088373D01*
X78930360Y-88265000D01*
X78912964Y-88441627D01*
X78873185Y-88572761D01*
X78861443Y-88611468D01*
X78848520Y-88635645D01*
X78777779Y-88767991D01*
X78748449Y-88803729D01*
X78665187Y-88905186D01*
X78563730Y-88988448D01*
X78527992Y-89017778D01*
X78371467Y-89101443D01*
X78201628Y-89152963D01*
X78135444Y-89159481D01*
X78069261Y-89166000D01*
X77980741Y-89166000D01*
X77914558Y-89159481D01*
X77848374Y-89152963D01*
X77678535Y-89101443D01*
X77522010Y-89017778D01*
X77486272Y-88988448D01*
X77384815Y-88905186D01*
X77301553Y-88803729D01*
X77272223Y-88767991D01*
X77201482Y-88635645D01*
X77188559Y-88611468D01*
X77176817Y-88572761D01*
X77137038Y-88441627D01*
X77119642Y-88265000D01*
X77137038Y-88088373D01*
X77188558Y-87918534D01*
X77272223Y-87762009D01*
X77301553Y-87726271D01*
X77384815Y-87624814D01*
X77486272Y-87541552D01*
X77522010Y-87512222D01*
X77678535Y-87428557D01*
X77848374Y-87377037D01*
X77914558Y-87370519D01*
X77980741Y-87364000D01*
X78069261Y-87364000D01*
X78135444Y-87370519D01*
X78135444Y-87370519D01*
G37*
G36*
X75595444Y-87370519D02*
G01*
X75661628Y-87377037D01*
X75831467Y-87428557D01*
X75987992Y-87512222D01*
X76023730Y-87541552D01*
X76125187Y-87624814D01*
X76208449Y-87726271D01*
X76237779Y-87762009D01*
X76321444Y-87918534D01*
X76372964Y-88088373D01*
X76390360Y-88265000D01*
X76372964Y-88441627D01*
X76333185Y-88572761D01*
X76321443Y-88611468D01*
X76308520Y-88635645D01*
X76237779Y-88767991D01*
X76208449Y-88803729D01*
X76125187Y-88905186D01*
X76023730Y-88988448D01*
X75987992Y-89017778D01*
X75831467Y-89101443D01*
X75661628Y-89152963D01*
X75595444Y-89159481D01*
X75529261Y-89166000D01*
X75440741Y-89166000D01*
X75374558Y-89159481D01*
X75308374Y-89152963D01*
X75138535Y-89101443D01*
X74982010Y-89017778D01*
X74946272Y-88988448D01*
X74844815Y-88905186D01*
X74761553Y-88803729D01*
X74732223Y-88767991D01*
X74661482Y-88635645D01*
X74648559Y-88611468D01*
X74636817Y-88572761D01*
X74597038Y-88441627D01*
X74579642Y-88265000D01*
X74597038Y-88088373D01*
X74648558Y-87918534D01*
X74732223Y-87762009D01*
X74761553Y-87726271D01*
X74844815Y-87624814D01*
X74946272Y-87541552D01*
X74982010Y-87512222D01*
X75138535Y-87428557D01*
X75308374Y-87377037D01*
X75374558Y-87370519D01*
X75440741Y-87364000D01*
X75529261Y-87364000D01*
X75595444Y-87370519D01*
X75595444Y-87370519D01*
G37*
G36*
X107177023Y-87131673D02*
G01*
X107337442Y-87180336D01*
X107418757Y-87223800D01*
X107485278Y-87259356D01*
X107614859Y-87365701D01*
X107721204Y-87495282D01*
X107721205Y-87495284D01*
X107800224Y-87643118D01*
X107848887Y-87803537D01*
X107865317Y-87970360D01*
X107848887Y-88137183D01*
X107800224Y-88297602D01*
X107778301Y-88338617D01*
X107721204Y-88445438D01*
X107614859Y-88575019D01*
X107485278Y-88681364D01*
X107485276Y-88681365D01*
X107337442Y-88760384D01*
X107337439Y-88760385D01*
X107312372Y-88767989D01*
X107177023Y-88809047D01*
X107052004Y-88821360D01*
X106968396Y-88821360D01*
X106843377Y-88809047D01*
X106708028Y-88767989D01*
X106682961Y-88760385D01*
X106682958Y-88760384D01*
X106535124Y-88681365D01*
X106535122Y-88681364D01*
X106405541Y-88575019D01*
X106299196Y-88445438D01*
X106242099Y-88338617D01*
X106220176Y-88297602D01*
X106171513Y-88137183D01*
X106155083Y-87970360D01*
X106171513Y-87803537D01*
X106220176Y-87643118D01*
X106299195Y-87495284D01*
X106299196Y-87495282D01*
X106405541Y-87365701D01*
X106535122Y-87259356D01*
X106601643Y-87223800D01*
X106682958Y-87180336D01*
X106843377Y-87131673D01*
X106968396Y-87119360D01*
X107052004Y-87119360D01*
X107177023Y-87131673D01*
X107177023Y-87131673D01*
G37*
G36*
X110692383Y-87085953D02*
G01*
X110802510Y-87119360D01*
X110843101Y-87131673D01*
X110852802Y-87134616D01*
X110938336Y-87180335D01*
X111000638Y-87213636D01*
X111130219Y-87319981D01*
X111236564Y-87449562D01*
X111236565Y-87449564D01*
X111315584Y-87597398D01*
X111364247Y-87757817D01*
X111380677Y-87924640D01*
X111364247Y-88091463D01*
X111315584Y-88251882D01*
X111291146Y-88297602D01*
X111236564Y-88399718D01*
X111130219Y-88529299D01*
X111000638Y-88635644D01*
X111000636Y-88635645D01*
X110852802Y-88714664D01*
X110692383Y-88763327D01*
X110567364Y-88775640D01*
X110483756Y-88775640D01*
X110358737Y-88763327D01*
X110198318Y-88714664D01*
X110050484Y-88635645D01*
X110050482Y-88635644D01*
X109920901Y-88529299D01*
X109814556Y-88399718D01*
X109759974Y-88297602D01*
X109735536Y-88251882D01*
X109686873Y-88091463D01*
X109670443Y-87924640D01*
X109686873Y-87757817D01*
X109735536Y-87597398D01*
X109814555Y-87449564D01*
X109814556Y-87449562D01*
X109920901Y-87319981D01*
X110050482Y-87213636D01*
X110112784Y-87180335D01*
X110198318Y-87134616D01*
X110208020Y-87131673D01*
X110248610Y-87119360D01*
X110358737Y-87085953D01*
X110483756Y-87073640D01*
X110567364Y-87073640D01*
X110692383Y-87085953D01*
X110692383Y-87085953D01*
G37*
G36*
X147483467Y-85305668D02*
G01*
X147499567Y-85307254D01*
X147585899Y-85333443D01*
X147672233Y-85359632D01*
X147831364Y-85444689D01*
X147970844Y-85559156D01*
X148085311Y-85698635D01*
X148170368Y-85857766D01*
X148222746Y-86030433D01*
X148236000Y-86165002D01*
X148236000Y-86554997D01*
X148229007Y-86626000D01*
X148222746Y-86689567D01*
X148205455Y-86746566D01*
X148170368Y-86862234D01*
X148085311Y-87021365D01*
X147970844Y-87160844D01*
X147831365Y-87275311D01*
X147672234Y-87360368D01*
X147499568Y-87412746D01*
X147483468Y-87414332D01*
X147320000Y-87430432D01*
X147156533Y-87414332D01*
X147140433Y-87412746D01*
X146967767Y-87360368D01*
X146808636Y-87275311D01*
X146669157Y-87160844D01*
X146554689Y-87021365D01*
X146469632Y-86862234D01*
X146417254Y-86689567D01*
X146404000Y-86554998D01*
X146404000Y-86165003D01*
X146417254Y-86030434D01*
X146417255Y-86030432D01*
X146443443Y-85944100D01*
X146469632Y-85857767D01*
X146554689Y-85698636D01*
X146669156Y-85559156D01*
X146808635Y-85444689D01*
X146967766Y-85359632D01*
X147054100Y-85333443D01*
X147140432Y-85307254D01*
X147156532Y-85305668D01*
X147320000Y-85289568D01*
X147483467Y-85305668D01*
X147483467Y-85305668D01*
G37*
G36*
X155103467Y-85305668D02*
G01*
X155119567Y-85307254D01*
X155205899Y-85333443D01*
X155292233Y-85359632D01*
X155451364Y-85444689D01*
X155590844Y-85559156D01*
X155705311Y-85698635D01*
X155790368Y-85857766D01*
X155842746Y-86030433D01*
X155856000Y-86165002D01*
X155856000Y-86554997D01*
X155849007Y-86626000D01*
X155842746Y-86689567D01*
X155825455Y-86746566D01*
X155790368Y-86862234D01*
X155705311Y-87021365D01*
X155590844Y-87160844D01*
X155451365Y-87275311D01*
X155292234Y-87360368D01*
X155119568Y-87412746D01*
X155103468Y-87414332D01*
X154940000Y-87430432D01*
X154776533Y-87414332D01*
X154760433Y-87412746D01*
X154587767Y-87360368D01*
X154428636Y-87275311D01*
X154289157Y-87160844D01*
X154174689Y-87021365D01*
X154089632Y-86862234D01*
X154037254Y-86689567D01*
X154024000Y-86554998D01*
X154024000Y-86165003D01*
X154037254Y-86030434D01*
X154037255Y-86030432D01*
X154063443Y-85944100D01*
X154089632Y-85857767D01*
X154174689Y-85698636D01*
X154289156Y-85559156D01*
X154428635Y-85444689D01*
X154587766Y-85359632D01*
X154674100Y-85333443D01*
X154760432Y-85307254D01*
X154776532Y-85305668D01*
X154940000Y-85289568D01*
X155103467Y-85305668D01*
X155103467Y-85305668D01*
G37*
G36*
X167803467Y-85305668D02*
G01*
X167819567Y-85307254D01*
X167905899Y-85333443D01*
X167992233Y-85359632D01*
X168151364Y-85444689D01*
X168290844Y-85559156D01*
X168405311Y-85698635D01*
X168490368Y-85857766D01*
X168542746Y-86030433D01*
X168556000Y-86165002D01*
X168556000Y-86554997D01*
X168549007Y-86626000D01*
X168542746Y-86689567D01*
X168525455Y-86746566D01*
X168490368Y-86862234D01*
X168405311Y-87021365D01*
X168290844Y-87160844D01*
X168151365Y-87275311D01*
X167992234Y-87360368D01*
X167819568Y-87412746D01*
X167803468Y-87414332D01*
X167640000Y-87430432D01*
X167476533Y-87414332D01*
X167460433Y-87412746D01*
X167287767Y-87360368D01*
X167128636Y-87275311D01*
X166989157Y-87160844D01*
X166874689Y-87021365D01*
X166789632Y-86862234D01*
X166737254Y-86689567D01*
X166724000Y-86554998D01*
X166724000Y-86165003D01*
X166737254Y-86030434D01*
X166737255Y-86030432D01*
X166763443Y-85944100D01*
X166789632Y-85857767D01*
X166874689Y-85698636D01*
X166989156Y-85559156D01*
X167128635Y-85444689D01*
X167287766Y-85359632D01*
X167374100Y-85333443D01*
X167460432Y-85307254D01*
X167476532Y-85305668D01*
X167640000Y-85289568D01*
X167803467Y-85305668D01*
X167803467Y-85305668D01*
G37*
G36*
X165263467Y-85305668D02*
G01*
X165279567Y-85307254D01*
X165365899Y-85333443D01*
X165452233Y-85359632D01*
X165611364Y-85444689D01*
X165750844Y-85559156D01*
X165865311Y-85698635D01*
X165950368Y-85857766D01*
X166002746Y-86030433D01*
X166016000Y-86165002D01*
X166016000Y-86554997D01*
X166009007Y-86626000D01*
X166002746Y-86689567D01*
X165985455Y-86746566D01*
X165950368Y-86862234D01*
X165865311Y-87021365D01*
X165750844Y-87160844D01*
X165611365Y-87275311D01*
X165452234Y-87360368D01*
X165279568Y-87412746D01*
X165263468Y-87414332D01*
X165100000Y-87430432D01*
X164936533Y-87414332D01*
X164920433Y-87412746D01*
X164747767Y-87360368D01*
X164588636Y-87275311D01*
X164449157Y-87160844D01*
X164334689Y-87021365D01*
X164249632Y-86862234D01*
X164197254Y-86689567D01*
X164184000Y-86554998D01*
X164184000Y-86165003D01*
X164197254Y-86030434D01*
X164197255Y-86030432D01*
X164223443Y-85944100D01*
X164249632Y-85857767D01*
X164334689Y-85698636D01*
X164449156Y-85559156D01*
X164588635Y-85444689D01*
X164747766Y-85359632D01*
X164834100Y-85333443D01*
X164920432Y-85307254D01*
X164936532Y-85305668D01*
X165100000Y-85289568D01*
X165263467Y-85305668D01*
X165263467Y-85305668D01*
G37*
G36*
X157643467Y-85305668D02*
G01*
X157659567Y-85307254D01*
X157745899Y-85333443D01*
X157832233Y-85359632D01*
X157991364Y-85444689D01*
X158130844Y-85559156D01*
X158245311Y-85698635D01*
X158330368Y-85857766D01*
X158382746Y-86030433D01*
X158396000Y-86165002D01*
X158396000Y-86554997D01*
X158389007Y-86626000D01*
X158382746Y-86689567D01*
X158365455Y-86746566D01*
X158330368Y-86862234D01*
X158245311Y-87021365D01*
X158130844Y-87160844D01*
X157991365Y-87275311D01*
X157832234Y-87360368D01*
X157659568Y-87412746D01*
X157643468Y-87414332D01*
X157480000Y-87430432D01*
X157316533Y-87414332D01*
X157300433Y-87412746D01*
X157127767Y-87360368D01*
X156968636Y-87275311D01*
X156829157Y-87160844D01*
X156714689Y-87021365D01*
X156629632Y-86862234D01*
X156577254Y-86689567D01*
X156564000Y-86554998D01*
X156564000Y-86165003D01*
X156577254Y-86030434D01*
X156577255Y-86030432D01*
X156603443Y-85944100D01*
X156629632Y-85857767D01*
X156714689Y-85698636D01*
X156829156Y-85559156D01*
X156968635Y-85444689D01*
X157127766Y-85359632D01*
X157214100Y-85333443D01*
X157300432Y-85307254D01*
X157316532Y-85305668D01*
X157480000Y-85289568D01*
X157643467Y-85305668D01*
X157643467Y-85305668D01*
G37*
G36*
X144943467Y-85305668D02*
G01*
X144959567Y-85307254D01*
X145045899Y-85333443D01*
X145132233Y-85359632D01*
X145291364Y-85444689D01*
X145430844Y-85559156D01*
X145545311Y-85698635D01*
X145630368Y-85857766D01*
X145682746Y-86030433D01*
X145696000Y-86165002D01*
X145696000Y-86554997D01*
X145689007Y-86626000D01*
X145682746Y-86689567D01*
X145665455Y-86746566D01*
X145630368Y-86862234D01*
X145545311Y-87021365D01*
X145430844Y-87160844D01*
X145291365Y-87275311D01*
X145132234Y-87360368D01*
X144959568Y-87412746D01*
X144943468Y-87414332D01*
X144780000Y-87430432D01*
X144616533Y-87414332D01*
X144600433Y-87412746D01*
X144427767Y-87360368D01*
X144268636Y-87275311D01*
X144129157Y-87160844D01*
X144014689Y-87021365D01*
X143929632Y-86862234D01*
X143877254Y-86689567D01*
X143864000Y-86554998D01*
X143864000Y-86165003D01*
X143877254Y-86030434D01*
X143877255Y-86030432D01*
X143903443Y-85944100D01*
X143929632Y-85857767D01*
X144014689Y-85698636D01*
X144129156Y-85559156D01*
X144268635Y-85444689D01*
X144427766Y-85359632D01*
X144514100Y-85333443D01*
X144600432Y-85307254D01*
X144616532Y-85305668D01*
X144780000Y-85289568D01*
X144943467Y-85305668D01*
X144943467Y-85305668D01*
G37*
G36*
X143156000Y-87426000D02*
G01*
X141324000Y-87426000D01*
X141324000Y-85294000D01*
X143156000Y-85294000D01*
X143156000Y-87426000D01*
X143156000Y-87426000D01*
G37*
G36*
X153316000Y-87426000D02*
G01*
X151484000Y-87426000D01*
X151484000Y-85294000D01*
X153316000Y-85294000D01*
X153316000Y-87426000D01*
X153316000Y-87426000D01*
G37*
G36*
X163476000Y-87426000D02*
G01*
X161644000Y-87426000D01*
X161644000Y-85294000D01*
X163476000Y-85294000D01*
X163476000Y-87426000D01*
X163476000Y-87426000D01*
G37*
G36*
X119820694Y-85407833D02*
G01*
X119993095Y-85460131D01*
X120151983Y-85545058D01*
X120291249Y-85659351D01*
X120405542Y-85798617D01*
X120490469Y-85957505D01*
X120542767Y-86129906D01*
X120560425Y-86309200D01*
X120542767Y-86488494D01*
X120490469Y-86660895D01*
X120405542Y-86819783D01*
X120291249Y-86959049D01*
X120151983Y-87073342D01*
X119993095Y-87158269D01*
X119820694Y-87210567D01*
X119686331Y-87223800D01*
X119073669Y-87223800D01*
X118939306Y-87210567D01*
X118766905Y-87158269D01*
X118608017Y-87073342D01*
X118468751Y-86959049D01*
X118354458Y-86819783D01*
X118269531Y-86660895D01*
X118217233Y-86488494D01*
X118199575Y-86309200D01*
X118217233Y-86129906D01*
X118269531Y-85957505D01*
X118354458Y-85798617D01*
X118468751Y-85659351D01*
X118608017Y-85545058D01*
X118766905Y-85460131D01*
X118939306Y-85407833D01*
X119073669Y-85394600D01*
X119686331Y-85394600D01*
X119820694Y-85407833D01*
X119820694Y-85407833D01*
G37*
G36*
X104580694Y-85407833D02*
G01*
X104753095Y-85460131D01*
X104911983Y-85545058D01*
X105051249Y-85659351D01*
X105165542Y-85798617D01*
X105250469Y-85957505D01*
X105302767Y-86129906D01*
X105320425Y-86309200D01*
X105302767Y-86488494D01*
X105250469Y-86660895D01*
X105165542Y-86819783D01*
X105051249Y-86959049D01*
X104911983Y-87073342D01*
X104753095Y-87158269D01*
X104580694Y-87210567D01*
X104446331Y-87223800D01*
X103833669Y-87223800D01*
X103699306Y-87210567D01*
X103526905Y-87158269D01*
X103368017Y-87073342D01*
X103228751Y-86959049D01*
X103114458Y-86819783D01*
X103029531Y-86660895D01*
X102977233Y-86488494D01*
X102959575Y-86309200D01*
X102977233Y-86129906D01*
X103029531Y-85957505D01*
X103114458Y-85798617D01*
X103228751Y-85659351D01*
X103368017Y-85545058D01*
X103526905Y-85460131D01*
X103699306Y-85407833D01*
X103833669Y-85394600D01*
X104446331Y-85394600D01*
X104580694Y-85407833D01*
X104580694Y-85407833D01*
G37*
G36*
X114070583Y-85069193D02*
G01*
X114231002Y-85117856D01*
X114363666Y-85188766D01*
X114378838Y-85196876D01*
X114508419Y-85303221D01*
X114614764Y-85432802D01*
X114614765Y-85432804D01*
X114693784Y-85580638D01*
X114742447Y-85741057D01*
X114758877Y-85907880D01*
X114742447Y-86074703D01*
X114693784Y-86235122D01*
X114654188Y-86309200D01*
X114614764Y-86382958D01*
X114508419Y-86512539D01*
X114378838Y-86618884D01*
X114378836Y-86618885D01*
X114231002Y-86697904D01*
X114070583Y-86746567D01*
X113945564Y-86758880D01*
X113861956Y-86758880D01*
X113736937Y-86746567D01*
X113576518Y-86697904D01*
X113428684Y-86618885D01*
X113428682Y-86618884D01*
X113299101Y-86512539D01*
X113192756Y-86382958D01*
X113153332Y-86309200D01*
X113113736Y-86235122D01*
X113065073Y-86074703D01*
X113048643Y-85907880D01*
X113065073Y-85741057D01*
X113113736Y-85580638D01*
X113192755Y-85432804D01*
X113192756Y-85432802D01*
X113299101Y-85303221D01*
X113428682Y-85196876D01*
X113443854Y-85188766D01*
X113576518Y-85117856D01*
X113736937Y-85069193D01*
X113861956Y-85056880D01*
X113945564Y-85056880D01*
X114070583Y-85069193D01*
X114070583Y-85069193D01*
G37*
G36*
X75595444Y-84830519D02*
G01*
X75661628Y-84837037D01*
X75831467Y-84888557D01*
X75987992Y-84972222D01*
X76023730Y-85001552D01*
X76125187Y-85084814D01*
X76208449Y-85186271D01*
X76237779Y-85222009D01*
X76321444Y-85378534D01*
X76372964Y-85548373D01*
X76390360Y-85725000D01*
X76372964Y-85901627D01*
X76321444Y-86071466D01*
X76237779Y-86227991D01*
X76208449Y-86263729D01*
X76125187Y-86365186D01*
X76023730Y-86448448D01*
X75987992Y-86477778D01*
X75831467Y-86561443D01*
X75661628Y-86612963D01*
X75601510Y-86618884D01*
X75529261Y-86626000D01*
X75440741Y-86626000D01*
X75368492Y-86618884D01*
X75308374Y-86612963D01*
X75138535Y-86561443D01*
X74982010Y-86477778D01*
X74946272Y-86448448D01*
X74844815Y-86365186D01*
X74761553Y-86263729D01*
X74732223Y-86227991D01*
X74648558Y-86071466D01*
X74597038Y-85901627D01*
X74579642Y-85725000D01*
X74597038Y-85548373D01*
X74648558Y-85378534D01*
X74732223Y-85222009D01*
X74761553Y-85186271D01*
X74844815Y-85084814D01*
X74946272Y-85001552D01*
X74982010Y-84972222D01*
X75138535Y-84888557D01*
X75308374Y-84837037D01*
X75374558Y-84830519D01*
X75440741Y-84824000D01*
X75529261Y-84824000D01*
X75595444Y-84830519D01*
X75595444Y-84830519D01*
G37*
G36*
X95915444Y-84830519D02*
G01*
X95981628Y-84837037D01*
X96151467Y-84888557D01*
X96307992Y-84972222D01*
X96343730Y-85001552D01*
X96445187Y-85084814D01*
X96528449Y-85186271D01*
X96557779Y-85222009D01*
X96641444Y-85378534D01*
X96692964Y-85548373D01*
X96710360Y-85725000D01*
X96692964Y-85901627D01*
X96641444Y-86071466D01*
X96557779Y-86227991D01*
X96528449Y-86263729D01*
X96445187Y-86365186D01*
X96343730Y-86448448D01*
X96307992Y-86477778D01*
X96151467Y-86561443D01*
X95981628Y-86612963D01*
X95921510Y-86618884D01*
X95849261Y-86626000D01*
X95760741Y-86626000D01*
X95688492Y-86618884D01*
X95628374Y-86612963D01*
X95458535Y-86561443D01*
X95302010Y-86477778D01*
X95266272Y-86448448D01*
X95164815Y-86365186D01*
X95081553Y-86263729D01*
X95052223Y-86227991D01*
X94968558Y-86071466D01*
X94917038Y-85901627D01*
X94899642Y-85725000D01*
X94917038Y-85548373D01*
X94968558Y-85378534D01*
X95052223Y-85222009D01*
X95081553Y-85186271D01*
X95164815Y-85084814D01*
X95266272Y-85001552D01*
X95302010Y-84972222D01*
X95458535Y-84888557D01*
X95628374Y-84837037D01*
X95694558Y-84830519D01*
X95760741Y-84824000D01*
X95849261Y-84824000D01*
X95915444Y-84830519D01*
X95915444Y-84830519D01*
G37*
G36*
X93375444Y-84830519D02*
G01*
X93441628Y-84837037D01*
X93611467Y-84888557D01*
X93767992Y-84972222D01*
X93803730Y-85001552D01*
X93905187Y-85084814D01*
X93988449Y-85186271D01*
X94017779Y-85222009D01*
X94101444Y-85378534D01*
X94152964Y-85548373D01*
X94170360Y-85725000D01*
X94152964Y-85901627D01*
X94101444Y-86071466D01*
X94017779Y-86227991D01*
X93988449Y-86263729D01*
X93905187Y-86365186D01*
X93803730Y-86448448D01*
X93767992Y-86477778D01*
X93611467Y-86561443D01*
X93441628Y-86612963D01*
X93381510Y-86618884D01*
X93309261Y-86626000D01*
X93220741Y-86626000D01*
X93148492Y-86618884D01*
X93088374Y-86612963D01*
X92918535Y-86561443D01*
X92762010Y-86477778D01*
X92726272Y-86448448D01*
X92624815Y-86365186D01*
X92541553Y-86263729D01*
X92512223Y-86227991D01*
X92428558Y-86071466D01*
X92377038Y-85901627D01*
X92359642Y-85725000D01*
X92377038Y-85548373D01*
X92428558Y-85378534D01*
X92512223Y-85222009D01*
X92541553Y-85186271D01*
X92624815Y-85084814D01*
X92726272Y-85001552D01*
X92762010Y-84972222D01*
X92918535Y-84888557D01*
X93088374Y-84837037D01*
X93154558Y-84830519D01*
X93220741Y-84824000D01*
X93309261Y-84824000D01*
X93375444Y-84830519D01*
X93375444Y-84830519D01*
G37*
G36*
X90835444Y-84830519D02*
G01*
X90901628Y-84837037D01*
X91071467Y-84888557D01*
X91227992Y-84972222D01*
X91263730Y-85001552D01*
X91365187Y-85084814D01*
X91448449Y-85186271D01*
X91477779Y-85222009D01*
X91561444Y-85378534D01*
X91612964Y-85548373D01*
X91630360Y-85725000D01*
X91612964Y-85901627D01*
X91561444Y-86071466D01*
X91477779Y-86227991D01*
X91448449Y-86263729D01*
X91365187Y-86365186D01*
X91263730Y-86448448D01*
X91227992Y-86477778D01*
X91071467Y-86561443D01*
X90901628Y-86612963D01*
X90841510Y-86618884D01*
X90769261Y-86626000D01*
X90680741Y-86626000D01*
X90608492Y-86618884D01*
X90548374Y-86612963D01*
X90378535Y-86561443D01*
X90222010Y-86477778D01*
X90186272Y-86448448D01*
X90084815Y-86365186D01*
X90001553Y-86263729D01*
X89972223Y-86227991D01*
X89888558Y-86071466D01*
X89837038Y-85901627D01*
X89819642Y-85725000D01*
X89837038Y-85548373D01*
X89888558Y-85378534D01*
X89972223Y-85222009D01*
X90001553Y-85186271D01*
X90084815Y-85084814D01*
X90186272Y-85001552D01*
X90222010Y-84972222D01*
X90378535Y-84888557D01*
X90548374Y-84837037D01*
X90614558Y-84830519D01*
X90680741Y-84824000D01*
X90769261Y-84824000D01*
X90835444Y-84830519D01*
X90835444Y-84830519D01*
G37*
G36*
X73055444Y-84830519D02*
G01*
X73121628Y-84837037D01*
X73291467Y-84888557D01*
X73447992Y-84972222D01*
X73483730Y-85001552D01*
X73585187Y-85084814D01*
X73668449Y-85186271D01*
X73697779Y-85222009D01*
X73781444Y-85378534D01*
X73832964Y-85548373D01*
X73850360Y-85725000D01*
X73832964Y-85901627D01*
X73781444Y-86071466D01*
X73697779Y-86227991D01*
X73668449Y-86263729D01*
X73585187Y-86365186D01*
X73483730Y-86448448D01*
X73447992Y-86477778D01*
X73291467Y-86561443D01*
X73121628Y-86612963D01*
X73061510Y-86618884D01*
X72989261Y-86626000D01*
X72900741Y-86626000D01*
X72828492Y-86618884D01*
X72768374Y-86612963D01*
X72598535Y-86561443D01*
X72442010Y-86477778D01*
X72406272Y-86448448D01*
X72304815Y-86365186D01*
X72221553Y-86263729D01*
X72192223Y-86227991D01*
X72108558Y-86071466D01*
X72057038Y-85901627D01*
X72039642Y-85725000D01*
X72057038Y-85548373D01*
X72108558Y-85378534D01*
X72192223Y-85222009D01*
X72221553Y-85186271D01*
X72304815Y-85084814D01*
X72406272Y-85001552D01*
X72442010Y-84972222D01*
X72598535Y-84888557D01*
X72768374Y-84837037D01*
X72834558Y-84830519D01*
X72900741Y-84824000D01*
X72989261Y-84824000D01*
X73055444Y-84830519D01*
X73055444Y-84830519D01*
G37*
G36*
X78135444Y-84830519D02*
G01*
X78201628Y-84837037D01*
X78371467Y-84888557D01*
X78527992Y-84972222D01*
X78563730Y-85001552D01*
X78665187Y-85084814D01*
X78748449Y-85186271D01*
X78777779Y-85222009D01*
X78861444Y-85378534D01*
X78912964Y-85548373D01*
X78930360Y-85725000D01*
X78912964Y-85901627D01*
X78861444Y-86071466D01*
X78777779Y-86227991D01*
X78748449Y-86263729D01*
X78665187Y-86365186D01*
X78563730Y-86448448D01*
X78527992Y-86477778D01*
X78371467Y-86561443D01*
X78201628Y-86612963D01*
X78141510Y-86618884D01*
X78069261Y-86626000D01*
X77980741Y-86626000D01*
X77908492Y-86618884D01*
X77848374Y-86612963D01*
X77678535Y-86561443D01*
X77522010Y-86477778D01*
X77486272Y-86448448D01*
X77384815Y-86365186D01*
X77301553Y-86263729D01*
X77272223Y-86227991D01*
X77188558Y-86071466D01*
X77137038Y-85901627D01*
X77119642Y-85725000D01*
X77137038Y-85548373D01*
X77188558Y-85378534D01*
X77272223Y-85222009D01*
X77301553Y-85186271D01*
X77384815Y-85084814D01*
X77486272Y-85001552D01*
X77522010Y-84972222D01*
X77678535Y-84888557D01*
X77848374Y-84837037D01*
X77914558Y-84830519D01*
X77980741Y-84824000D01*
X78069261Y-84824000D01*
X78135444Y-84830519D01*
X78135444Y-84830519D01*
G37*
G36*
X80675444Y-84830519D02*
G01*
X80741628Y-84837037D01*
X80911467Y-84888557D01*
X81067992Y-84972222D01*
X81103730Y-85001552D01*
X81205187Y-85084814D01*
X81288449Y-85186271D01*
X81317779Y-85222009D01*
X81401444Y-85378534D01*
X81452964Y-85548373D01*
X81470360Y-85725000D01*
X81452964Y-85901627D01*
X81401444Y-86071466D01*
X81317779Y-86227991D01*
X81288449Y-86263729D01*
X81205187Y-86365186D01*
X81103730Y-86448448D01*
X81067992Y-86477778D01*
X80911467Y-86561443D01*
X80741628Y-86612963D01*
X80681510Y-86618884D01*
X80609261Y-86626000D01*
X80520741Y-86626000D01*
X80448492Y-86618884D01*
X80388374Y-86612963D01*
X80218535Y-86561443D01*
X80062010Y-86477778D01*
X80026272Y-86448448D01*
X79924815Y-86365186D01*
X79841553Y-86263729D01*
X79812223Y-86227991D01*
X79728558Y-86071466D01*
X79677038Y-85901627D01*
X79659642Y-85725000D01*
X79677038Y-85548373D01*
X79728558Y-85378534D01*
X79812223Y-85222009D01*
X79841553Y-85186271D01*
X79924815Y-85084814D01*
X80026272Y-85001552D01*
X80062010Y-84972222D01*
X80218535Y-84888557D01*
X80388374Y-84837037D01*
X80454558Y-84830519D01*
X80520741Y-84824000D01*
X80609261Y-84824000D01*
X80675444Y-84830519D01*
X80675444Y-84830519D01*
G37*
G36*
X83215444Y-84830519D02*
G01*
X83281628Y-84837037D01*
X83451467Y-84888557D01*
X83607992Y-84972222D01*
X83643730Y-85001552D01*
X83745187Y-85084814D01*
X83828449Y-85186271D01*
X83857779Y-85222009D01*
X83941444Y-85378534D01*
X83992964Y-85548373D01*
X84010360Y-85725000D01*
X83992964Y-85901627D01*
X83941444Y-86071466D01*
X83857779Y-86227991D01*
X83828449Y-86263729D01*
X83745187Y-86365186D01*
X83643730Y-86448448D01*
X83607992Y-86477778D01*
X83451467Y-86561443D01*
X83281628Y-86612963D01*
X83221510Y-86618884D01*
X83149261Y-86626000D01*
X83060741Y-86626000D01*
X82988492Y-86618884D01*
X82928374Y-86612963D01*
X82758535Y-86561443D01*
X82602010Y-86477778D01*
X82566272Y-86448448D01*
X82464815Y-86365186D01*
X82381553Y-86263729D01*
X82352223Y-86227991D01*
X82268558Y-86071466D01*
X82217038Y-85901627D01*
X82199642Y-85725000D01*
X82217038Y-85548373D01*
X82268558Y-85378534D01*
X82352223Y-85222009D01*
X82381553Y-85186271D01*
X82464815Y-85084814D01*
X82566272Y-85001552D01*
X82602010Y-84972222D01*
X82758535Y-84888557D01*
X82928374Y-84837037D01*
X82994558Y-84830519D01*
X83060741Y-84824000D01*
X83149261Y-84824000D01*
X83215444Y-84830519D01*
X83215444Y-84830519D01*
G37*
G36*
X85755444Y-84830519D02*
G01*
X85821628Y-84837037D01*
X85991467Y-84888557D01*
X86147992Y-84972222D01*
X86183730Y-85001552D01*
X86285187Y-85084814D01*
X86368449Y-85186271D01*
X86397779Y-85222009D01*
X86481444Y-85378534D01*
X86532964Y-85548373D01*
X86550360Y-85725000D01*
X86532964Y-85901627D01*
X86481444Y-86071466D01*
X86397779Y-86227991D01*
X86368449Y-86263729D01*
X86285187Y-86365186D01*
X86183730Y-86448448D01*
X86147992Y-86477778D01*
X85991467Y-86561443D01*
X85821628Y-86612963D01*
X85761510Y-86618884D01*
X85689261Y-86626000D01*
X85600741Y-86626000D01*
X85528492Y-86618884D01*
X85468374Y-86612963D01*
X85298535Y-86561443D01*
X85142010Y-86477778D01*
X85106272Y-86448448D01*
X85004815Y-86365186D01*
X84921553Y-86263729D01*
X84892223Y-86227991D01*
X84808558Y-86071466D01*
X84757038Y-85901627D01*
X84739642Y-85725000D01*
X84757038Y-85548373D01*
X84808558Y-85378534D01*
X84892223Y-85222009D01*
X84921553Y-85186271D01*
X85004815Y-85084814D01*
X85106272Y-85001552D01*
X85142010Y-84972222D01*
X85298535Y-84888557D01*
X85468374Y-84837037D01*
X85534558Y-84830519D01*
X85600741Y-84824000D01*
X85689261Y-84824000D01*
X85755444Y-84830519D01*
X85755444Y-84830519D01*
G37*
G36*
X88295444Y-84830519D02*
G01*
X88361628Y-84837037D01*
X88531467Y-84888557D01*
X88687992Y-84972222D01*
X88723730Y-85001552D01*
X88825187Y-85084814D01*
X88908449Y-85186271D01*
X88937779Y-85222009D01*
X89021444Y-85378534D01*
X89072964Y-85548373D01*
X89090360Y-85725000D01*
X89072964Y-85901627D01*
X89021444Y-86071466D01*
X88937779Y-86227991D01*
X88908449Y-86263729D01*
X88825187Y-86365186D01*
X88723730Y-86448448D01*
X88687992Y-86477778D01*
X88531467Y-86561443D01*
X88361628Y-86612963D01*
X88301510Y-86618884D01*
X88229261Y-86626000D01*
X88140741Y-86626000D01*
X88068492Y-86618884D01*
X88008374Y-86612963D01*
X87838535Y-86561443D01*
X87682010Y-86477778D01*
X87646272Y-86448448D01*
X87544815Y-86365186D01*
X87461553Y-86263729D01*
X87432223Y-86227991D01*
X87348558Y-86071466D01*
X87297038Y-85901627D01*
X87279642Y-85725000D01*
X87297038Y-85548373D01*
X87348558Y-85378534D01*
X87432223Y-85222009D01*
X87461553Y-85186271D01*
X87544815Y-85084814D01*
X87646272Y-85001552D01*
X87682010Y-84972222D01*
X87838535Y-84888557D01*
X88008374Y-84837037D01*
X88074558Y-84830519D01*
X88140741Y-84824000D01*
X88229261Y-84824000D01*
X88295444Y-84830519D01*
X88295444Y-84830519D01*
G37*
G36*
X104580694Y-82867833D02*
G01*
X104753095Y-82920131D01*
X104911983Y-83005058D01*
X105051249Y-83119351D01*
X105165542Y-83258617D01*
X105250469Y-83417505D01*
X105302767Y-83589906D01*
X105320425Y-83769200D01*
X105302767Y-83948494D01*
X105250469Y-84120895D01*
X105165542Y-84279783D01*
X105051249Y-84419049D01*
X104911983Y-84533342D01*
X104753095Y-84618269D01*
X104580694Y-84670567D01*
X104446331Y-84683800D01*
X103833669Y-84683800D01*
X103699306Y-84670567D01*
X103526905Y-84618269D01*
X103368017Y-84533342D01*
X103228751Y-84419049D01*
X103114458Y-84279783D01*
X103029531Y-84120895D01*
X102977233Y-83948494D01*
X102959575Y-83769200D01*
X102977233Y-83589906D01*
X103029531Y-83417505D01*
X103114458Y-83258617D01*
X103228751Y-83119351D01*
X103368017Y-83005058D01*
X103526905Y-82920131D01*
X103699306Y-82867833D01*
X103833669Y-82854600D01*
X104446331Y-82854600D01*
X104580694Y-82867833D01*
X104580694Y-82867833D01*
G37*
G36*
X119820694Y-82867833D02*
G01*
X119993095Y-82920131D01*
X120151983Y-83005058D01*
X120291249Y-83119351D01*
X120405542Y-83258617D01*
X120490469Y-83417505D01*
X120542767Y-83589906D01*
X120560425Y-83769200D01*
X120542767Y-83948494D01*
X120490469Y-84120895D01*
X120405542Y-84279783D01*
X120291249Y-84419049D01*
X120151983Y-84533342D01*
X119993095Y-84618269D01*
X119820694Y-84670567D01*
X119686331Y-84683800D01*
X119073669Y-84683800D01*
X118939306Y-84670567D01*
X118766905Y-84618269D01*
X118608017Y-84533342D01*
X118468751Y-84419049D01*
X118354458Y-84279783D01*
X118269531Y-84120895D01*
X118217233Y-83948494D01*
X118199575Y-83769200D01*
X118217233Y-83589906D01*
X118269531Y-83417505D01*
X118354458Y-83258617D01*
X118468751Y-83119351D01*
X118608017Y-83005058D01*
X118766905Y-82920131D01*
X118939306Y-82867833D01*
X119073669Y-82854600D01*
X119686331Y-82854600D01*
X119820694Y-82867833D01*
X119820694Y-82867833D01*
G37*
G36*
X104580694Y-80327833D02*
G01*
X104753095Y-80380131D01*
X104911983Y-80465058D01*
X105051249Y-80579351D01*
X105165542Y-80718617D01*
X105250469Y-80877505D01*
X105302767Y-81049906D01*
X105320425Y-81229200D01*
X105302767Y-81408494D01*
X105250469Y-81580895D01*
X105165542Y-81739783D01*
X105051249Y-81879049D01*
X104911983Y-81993342D01*
X104753095Y-82078269D01*
X104580694Y-82130567D01*
X104446331Y-82143800D01*
X103833669Y-82143800D01*
X103699306Y-82130567D01*
X103526905Y-82078269D01*
X103368017Y-81993342D01*
X103228751Y-81879049D01*
X103114458Y-81739783D01*
X103029531Y-81580895D01*
X102977233Y-81408494D01*
X102959575Y-81229200D01*
X102977233Y-81049906D01*
X103029531Y-80877505D01*
X103114458Y-80718617D01*
X103228751Y-80579351D01*
X103368017Y-80465058D01*
X103526905Y-80380131D01*
X103699306Y-80327833D01*
X103833669Y-80314600D01*
X104446331Y-80314600D01*
X104580694Y-80327833D01*
X104580694Y-80327833D01*
G37*
G36*
X119820694Y-80327833D02*
G01*
X119993095Y-80380131D01*
X120151983Y-80465058D01*
X120291249Y-80579351D01*
X120405542Y-80718617D01*
X120490469Y-80877505D01*
X120542767Y-81049906D01*
X120560425Y-81229200D01*
X120542767Y-81408494D01*
X120490469Y-81580895D01*
X120405542Y-81739783D01*
X120291249Y-81879049D01*
X120151983Y-81993342D01*
X119993095Y-82078269D01*
X119820694Y-82130567D01*
X119686331Y-82143800D01*
X119073669Y-82143800D01*
X118939306Y-82130567D01*
X118766905Y-82078269D01*
X118608017Y-81993342D01*
X118468751Y-81879049D01*
X118354458Y-81739783D01*
X118269531Y-81580895D01*
X118217233Y-81408494D01*
X118199575Y-81229200D01*
X118217233Y-81049906D01*
X118269531Y-80877505D01*
X118354458Y-80718617D01*
X118468751Y-80579351D01*
X118608017Y-80465058D01*
X118766905Y-80380131D01*
X118939306Y-80327833D01*
X119073669Y-80314600D01*
X119686331Y-80314600D01*
X119820694Y-80327833D01*
X119820694Y-80327833D01*
G37*
G36*
X136056823Y-79171313D02*
G01*
X136217242Y-79219976D01*
X136349906Y-79290886D01*
X136365078Y-79298996D01*
X136494659Y-79405341D01*
X136601004Y-79534922D01*
X136601005Y-79534924D01*
X136680024Y-79682758D01*
X136728687Y-79843177D01*
X136745117Y-80010000D01*
X136728687Y-80176823D01*
X136680024Y-80337242D01*
X136611705Y-80465058D01*
X136601004Y-80485078D01*
X136494659Y-80614659D01*
X136365078Y-80721004D01*
X136365076Y-80721005D01*
X136217242Y-80800024D01*
X136056823Y-80848687D01*
X135931804Y-80861000D01*
X135848196Y-80861000D01*
X135723177Y-80848687D01*
X135562758Y-80800024D01*
X135414924Y-80721005D01*
X135414922Y-80721004D01*
X135285341Y-80614659D01*
X135178996Y-80485078D01*
X135168295Y-80465058D01*
X135099976Y-80337242D01*
X135051313Y-80176823D01*
X135034883Y-80010000D01*
X135051313Y-79843177D01*
X135099976Y-79682758D01*
X135178995Y-79534924D01*
X135178996Y-79534922D01*
X135285341Y-79405341D01*
X135414922Y-79298996D01*
X135430094Y-79290886D01*
X135562758Y-79219976D01*
X135723177Y-79171313D01*
X135848196Y-79159000D01*
X135931804Y-79159000D01*
X136056823Y-79171313D01*
X136056823Y-79171313D01*
G37*
G36*
X128436823Y-79171313D02*
G01*
X128597242Y-79219976D01*
X128729906Y-79290886D01*
X128745078Y-79298996D01*
X128874659Y-79405341D01*
X128981004Y-79534922D01*
X128981005Y-79534924D01*
X129060024Y-79682758D01*
X129108687Y-79843177D01*
X129125117Y-80010000D01*
X129108687Y-80176823D01*
X129060024Y-80337242D01*
X128991705Y-80465058D01*
X128981004Y-80485078D01*
X128874659Y-80614659D01*
X128745078Y-80721004D01*
X128745076Y-80721005D01*
X128597242Y-80800024D01*
X128436823Y-80848687D01*
X128311804Y-80861000D01*
X128228196Y-80861000D01*
X128103177Y-80848687D01*
X127942758Y-80800024D01*
X127794924Y-80721005D01*
X127794922Y-80721004D01*
X127665341Y-80614659D01*
X127558996Y-80485078D01*
X127548295Y-80465058D01*
X127479976Y-80337242D01*
X127431313Y-80176823D01*
X127414883Y-80010000D01*
X127431313Y-79843177D01*
X127479976Y-79682758D01*
X127558995Y-79534924D01*
X127558996Y-79534922D01*
X127665341Y-79405341D01*
X127794922Y-79298996D01*
X127810094Y-79290886D01*
X127942758Y-79219976D01*
X128103177Y-79171313D01*
X128228196Y-79159000D01*
X128311804Y-79159000D01*
X128436823Y-79171313D01*
X128436823Y-79171313D01*
G37*
G36*
X119820694Y-77787833D02*
G01*
X119993095Y-77840131D01*
X120151983Y-77925058D01*
X120291249Y-78039351D01*
X120405542Y-78178617D01*
X120490469Y-78337505D01*
X120542767Y-78509906D01*
X120560425Y-78689200D01*
X120542767Y-78868494D01*
X120490469Y-79040895D01*
X120405542Y-79199783D01*
X120291249Y-79339049D01*
X120151983Y-79453342D01*
X119993095Y-79538269D01*
X119820694Y-79590567D01*
X119686331Y-79603800D01*
X119073669Y-79603800D01*
X118939306Y-79590567D01*
X118766905Y-79538269D01*
X118608017Y-79453342D01*
X118468751Y-79339049D01*
X118354458Y-79199783D01*
X118269531Y-79040895D01*
X118217233Y-78868494D01*
X118199575Y-78689200D01*
X118217233Y-78509906D01*
X118269531Y-78337505D01*
X118354458Y-78178617D01*
X118468751Y-78039351D01*
X118608017Y-77925058D01*
X118766905Y-77840131D01*
X118939306Y-77787833D01*
X119073669Y-77774600D01*
X119686331Y-77774600D01*
X119820694Y-77787833D01*
X119820694Y-77787833D01*
G37*
G36*
X104580694Y-77787833D02*
G01*
X104753095Y-77840131D01*
X104911983Y-77925058D01*
X105051249Y-78039351D01*
X105165542Y-78178617D01*
X105250469Y-78337505D01*
X105302767Y-78509906D01*
X105320425Y-78689200D01*
X105302767Y-78868494D01*
X105250469Y-79040895D01*
X105165542Y-79199783D01*
X105051249Y-79339049D01*
X104911983Y-79453342D01*
X104753095Y-79538269D01*
X104580694Y-79590567D01*
X104446331Y-79603800D01*
X103833669Y-79603800D01*
X103699306Y-79590567D01*
X103526905Y-79538269D01*
X103368017Y-79453342D01*
X103228751Y-79339049D01*
X103114458Y-79199783D01*
X103029531Y-79040895D01*
X102977233Y-78868494D01*
X102959575Y-78689200D01*
X102977233Y-78509906D01*
X103029531Y-78337505D01*
X103114458Y-78178617D01*
X103228751Y-78039351D01*
X103368017Y-77925058D01*
X103526905Y-77840131D01*
X103699306Y-77787833D01*
X103833669Y-77774600D01*
X104446331Y-77774600D01*
X104580694Y-77787833D01*
X104580694Y-77787833D01*
G37*
G36*
X107258428Y-76992063D02*
G01*
X107413300Y-77056213D01*
X107552681Y-77149345D01*
X107671215Y-77267879D01*
X107764347Y-77407260D01*
X107828497Y-77562132D01*
X107861200Y-77726544D01*
X107861200Y-77894176D01*
X107828497Y-78058588D01*
X107764347Y-78213460D01*
X107671215Y-78352841D01*
X107552681Y-78471375D01*
X107413300Y-78564507D01*
X107258428Y-78628657D01*
X107094016Y-78661360D01*
X106926384Y-78661360D01*
X106761972Y-78628657D01*
X106607100Y-78564507D01*
X106467719Y-78471375D01*
X106349185Y-78352841D01*
X106256053Y-78213460D01*
X106191903Y-78058588D01*
X106159200Y-77894176D01*
X106159200Y-77726544D01*
X106191903Y-77562132D01*
X106256053Y-77407260D01*
X106349185Y-77267879D01*
X106467719Y-77149345D01*
X106607100Y-77056213D01*
X106761972Y-76992063D01*
X106926384Y-76959360D01*
X107094016Y-76959360D01*
X107258428Y-76992063D01*
X107258428Y-76992063D01*
G37*
G36*
X110773788Y-76946343D02*
G01*
X110928660Y-77010493D01*
X111068041Y-77103625D01*
X111186575Y-77222159D01*
X111279707Y-77361540D01*
X111343857Y-77516412D01*
X111376560Y-77680824D01*
X111376560Y-77848456D01*
X111343857Y-78012868D01*
X111279707Y-78167740D01*
X111186575Y-78307121D01*
X111068041Y-78425655D01*
X110928660Y-78518787D01*
X110773788Y-78582937D01*
X110609376Y-78615640D01*
X110441744Y-78615640D01*
X110277332Y-78582937D01*
X110122460Y-78518787D01*
X109983079Y-78425655D01*
X109864545Y-78307121D01*
X109771413Y-78167740D01*
X109707263Y-78012868D01*
X109674560Y-77848456D01*
X109674560Y-77680824D01*
X109707263Y-77516412D01*
X109771413Y-77361540D01*
X109864545Y-77222159D01*
X109983079Y-77103625D01*
X110122460Y-77010493D01*
X110277332Y-76946343D01*
X110441744Y-76913640D01*
X110609376Y-76913640D01*
X110773788Y-76946343D01*
X110773788Y-76946343D01*
G37*
G36*
X167803467Y-76415668D02*
G01*
X167819567Y-76417254D01*
X167905899Y-76443443D01*
X167992233Y-76469632D01*
X168151364Y-76554689D01*
X168290844Y-76669156D01*
X168405311Y-76808635D01*
X168490368Y-76967766D01*
X168499621Y-76998269D01*
X168531581Y-77103625D01*
X168542746Y-77140433D01*
X168556000Y-77275002D01*
X168556000Y-77664997D01*
X168554441Y-77680824D01*
X168542746Y-77799567D01*
X168525287Y-77857122D01*
X168490368Y-77972234D01*
X168405311Y-78131365D01*
X168290844Y-78270844D01*
X168151365Y-78385311D01*
X167992234Y-78470368D01*
X167905900Y-78496557D01*
X167819568Y-78522746D01*
X167803468Y-78524332D01*
X167640000Y-78540432D01*
X167476533Y-78524332D01*
X167460433Y-78522746D01*
X167374101Y-78496557D01*
X167287767Y-78470368D01*
X167128636Y-78385311D01*
X166989157Y-78270844D01*
X166874689Y-78131365D01*
X166789632Y-77972234D01*
X166737254Y-77799567D01*
X166724000Y-77664998D01*
X166724000Y-77275003D01*
X166737254Y-77140434D01*
X166737255Y-77140432D01*
X166776672Y-77010492D01*
X166789632Y-76967767D01*
X166874689Y-76808636D01*
X166989156Y-76669156D01*
X167128635Y-76554689D01*
X167287766Y-76469632D01*
X167374100Y-76443443D01*
X167460432Y-76417254D01*
X167476532Y-76415668D01*
X167640000Y-76399568D01*
X167803467Y-76415668D01*
X167803467Y-76415668D01*
G37*
G36*
X157643467Y-76415668D02*
G01*
X157659567Y-76417254D01*
X157745899Y-76443443D01*
X157832233Y-76469632D01*
X157991364Y-76554689D01*
X158130844Y-76669156D01*
X158245311Y-76808635D01*
X158330368Y-76967766D01*
X158339621Y-76998269D01*
X158371581Y-77103625D01*
X158382746Y-77140433D01*
X158396000Y-77275002D01*
X158396000Y-77664997D01*
X158394441Y-77680824D01*
X158382746Y-77799567D01*
X158365287Y-77857122D01*
X158330368Y-77972234D01*
X158245311Y-78131365D01*
X158130844Y-78270844D01*
X157991365Y-78385311D01*
X157832234Y-78470368D01*
X157745900Y-78496557D01*
X157659568Y-78522746D01*
X157643468Y-78524332D01*
X157480000Y-78540432D01*
X157316533Y-78524332D01*
X157300433Y-78522746D01*
X157214101Y-78496557D01*
X157127767Y-78470368D01*
X156968636Y-78385311D01*
X156829157Y-78270844D01*
X156714689Y-78131365D01*
X156629632Y-77972234D01*
X156577254Y-77799567D01*
X156564000Y-77664998D01*
X156564000Y-77275003D01*
X156577254Y-77140434D01*
X156577255Y-77140432D01*
X156616672Y-77010492D01*
X156629632Y-76967767D01*
X156714689Y-76808636D01*
X156829156Y-76669156D01*
X156968635Y-76554689D01*
X157127766Y-76469632D01*
X157214100Y-76443443D01*
X157300432Y-76417254D01*
X157316532Y-76415668D01*
X157480000Y-76399568D01*
X157643467Y-76415668D01*
X157643467Y-76415668D01*
G37*
G36*
X165263467Y-76415668D02*
G01*
X165279567Y-76417254D01*
X165365899Y-76443443D01*
X165452233Y-76469632D01*
X165611364Y-76554689D01*
X165750844Y-76669156D01*
X165865311Y-76808635D01*
X165950368Y-76967766D01*
X165959621Y-76998269D01*
X165991581Y-77103625D01*
X166002746Y-77140433D01*
X166016000Y-77275002D01*
X166016000Y-77664997D01*
X166014441Y-77680824D01*
X166002746Y-77799567D01*
X165985287Y-77857122D01*
X165950368Y-77972234D01*
X165865311Y-78131365D01*
X165750844Y-78270844D01*
X165611365Y-78385311D01*
X165452234Y-78470368D01*
X165365900Y-78496557D01*
X165279568Y-78522746D01*
X165263468Y-78524332D01*
X165100000Y-78540432D01*
X164936533Y-78524332D01*
X164920433Y-78522746D01*
X164834101Y-78496557D01*
X164747767Y-78470368D01*
X164588636Y-78385311D01*
X164449157Y-78270844D01*
X164334689Y-78131365D01*
X164249632Y-77972234D01*
X164197254Y-77799567D01*
X164184000Y-77664998D01*
X164184000Y-77275003D01*
X164197254Y-77140434D01*
X164197255Y-77140432D01*
X164236672Y-77010492D01*
X164249632Y-76967767D01*
X164334689Y-76808636D01*
X164449156Y-76669156D01*
X164588635Y-76554689D01*
X164747766Y-76469632D01*
X164834100Y-76443443D01*
X164920432Y-76417254D01*
X164936532Y-76415668D01*
X165100000Y-76399568D01*
X165263467Y-76415668D01*
X165263467Y-76415668D01*
G37*
G36*
X155103467Y-76415668D02*
G01*
X155119567Y-76417254D01*
X155205899Y-76443443D01*
X155292233Y-76469632D01*
X155451364Y-76554689D01*
X155590844Y-76669156D01*
X155705311Y-76808635D01*
X155790368Y-76967766D01*
X155799621Y-76998269D01*
X155831581Y-77103625D01*
X155842746Y-77140433D01*
X155856000Y-77275002D01*
X155856000Y-77664997D01*
X155854441Y-77680824D01*
X155842746Y-77799567D01*
X155825287Y-77857122D01*
X155790368Y-77972234D01*
X155705311Y-78131365D01*
X155590844Y-78270844D01*
X155451365Y-78385311D01*
X155292234Y-78470368D01*
X155205900Y-78496557D01*
X155119568Y-78522746D01*
X155103468Y-78524332D01*
X154940000Y-78540432D01*
X154776533Y-78524332D01*
X154760433Y-78522746D01*
X154674101Y-78496557D01*
X154587767Y-78470368D01*
X154428636Y-78385311D01*
X154289157Y-78270844D01*
X154174689Y-78131365D01*
X154089632Y-77972234D01*
X154037254Y-77799567D01*
X154024000Y-77664998D01*
X154024000Y-77275003D01*
X154037254Y-77140434D01*
X154037255Y-77140432D01*
X154076672Y-77010492D01*
X154089632Y-76967767D01*
X154174689Y-76808636D01*
X154289156Y-76669156D01*
X154428635Y-76554689D01*
X154587766Y-76469632D01*
X154674100Y-76443443D01*
X154760432Y-76417254D01*
X154776532Y-76415668D01*
X154940000Y-76399568D01*
X155103467Y-76415668D01*
X155103467Y-76415668D01*
G37*
G36*
X144943467Y-76415668D02*
G01*
X144959567Y-76417254D01*
X145045899Y-76443443D01*
X145132233Y-76469632D01*
X145291364Y-76554689D01*
X145430844Y-76669156D01*
X145545311Y-76808635D01*
X145630368Y-76967766D01*
X145639621Y-76998269D01*
X145671581Y-77103625D01*
X145682746Y-77140433D01*
X145696000Y-77275002D01*
X145696000Y-77664997D01*
X145694441Y-77680824D01*
X145682746Y-77799567D01*
X145665287Y-77857122D01*
X145630368Y-77972234D01*
X145545311Y-78131365D01*
X145430844Y-78270844D01*
X145291365Y-78385311D01*
X145132234Y-78470368D01*
X145045900Y-78496557D01*
X144959568Y-78522746D01*
X144943468Y-78524332D01*
X144780000Y-78540432D01*
X144616533Y-78524332D01*
X144600433Y-78522746D01*
X144514101Y-78496557D01*
X144427767Y-78470368D01*
X144268636Y-78385311D01*
X144129157Y-78270844D01*
X144014689Y-78131365D01*
X143929632Y-77972234D01*
X143877254Y-77799567D01*
X143864000Y-77664998D01*
X143864000Y-77275003D01*
X143877254Y-77140434D01*
X143877255Y-77140432D01*
X143916672Y-77010492D01*
X143929632Y-76967767D01*
X144014689Y-76808636D01*
X144129156Y-76669156D01*
X144268635Y-76554689D01*
X144427766Y-76469632D01*
X144514100Y-76443443D01*
X144600432Y-76417254D01*
X144616532Y-76415668D01*
X144780000Y-76399568D01*
X144943467Y-76415668D01*
X144943467Y-76415668D01*
G37*
G36*
X147483467Y-76415668D02*
G01*
X147499567Y-76417254D01*
X147585899Y-76443443D01*
X147672233Y-76469632D01*
X147831364Y-76554689D01*
X147970844Y-76669156D01*
X148085311Y-76808635D01*
X148170368Y-76967766D01*
X148179621Y-76998269D01*
X148211581Y-77103625D01*
X148222746Y-77140433D01*
X148236000Y-77275002D01*
X148236000Y-77664997D01*
X148234441Y-77680824D01*
X148222746Y-77799567D01*
X148205287Y-77857122D01*
X148170368Y-77972234D01*
X148085311Y-78131365D01*
X147970844Y-78270844D01*
X147831365Y-78385311D01*
X147672234Y-78470368D01*
X147585900Y-78496557D01*
X147499568Y-78522746D01*
X147483468Y-78524332D01*
X147320000Y-78540432D01*
X147156533Y-78524332D01*
X147140433Y-78522746D01*
X147054101Y-78496557D01*
X146967767Y-78470368D01*
X146808636Y-78385311D01*
X146669157Y-78270844D01*
X146554689Y-78131365D01*
X146469632Y-77972234D01*
X146417254Y-77799567D01*
X146404000Y-77664998D01*
X146404000Y-77275003D01*
X146417254Y-77140434D01*
X146417255Y-77140432D01*
X146456672Y-77010492D01*
X146469632Y-76967767D01*
X146554689Y-76808636D01*
X146669156Y-76669156D01*
X146808635Y-76554689D01*
X146967766Y-76469632D01*
X147054100Y-76443443D01*
X147140432Y-76417254D01*
X147156532Y-76415668D01*
X147320000Y-76399568D01*
X147483467Y-76415668D01*
X147483467Y-76415668D01*
G37*
G36*
X163476000Y-78536000D02*
G01*
X161644000Y-78536000D01*
X161644000Y-76404000D01*
X163476000Y-76404000D01*
X163476000Y-78536000D01*
X163476000Y-78536000D01*
G37*
G36*
X153316000Y-78536000D02*
G01*
X151484000Y-78536000D01*
X151484000Y-76404000D01*
X153316000Y-76404000D01*
X153316000Y-78536000D01*
X153316000Y-78536000D01*
G37*
G36*
X143156000Y-78536000D02*
G01*
X141324000Y-78536000D01*
X141324000Y-76404000D01*
X143156000Y-76404000D01*
X143156000Y-78536000D01*
X143156000Y-78536000D01*
G37*
G36*
X136056823Y-76631313D02*
G01*
X136217242Y-76679976D01*
X136349906Y-76750886D01*
X136365078Y-76758996D01*
X136494659Y-76865341D01*
X136601004Y-76994922D01*
X136601005Y-76994924D01*
X136680024Y-77142758D01*
X136728687Y-77303177D01*
X136745117Y-77470000D01*
X136728687Y-77636823D01*
X136680024Y-77797242D01*
X136611705Y-77925058D01*
X136601004Y-77945078D01*
X136494659Y-78074659D01*
X136365078Y-78181004D01*
X136365076Y-78181005D01*
X136217242Y-78260024D01*
X136056823Y-78308687D01*
X135931804Y-78321000D01*
X135848196Y-78321000D01*
X135723177Y-78308687D01*
X135562758Y-78260024D01*
X135414924Y-78181005D01*
X135414922Y-78181004D01*
X135285341Y-78074659D01*
X135178996Y-77945078D01*
X135168295Y-77925058D01*
X135099976Y-77797242D01*
X135051313Y-77636823D01*
X135034883Y-77470000D01*
X135051313Y-77303177D01*
X135099976Y-77142758D01*
X135178995Y-76994924D01*
X135178996Y-76994922D01*
X135285341Y-76865341D01*
X135414922Y-76758996D01*
X135430094Y-76750886D01*
X135562758Y-76679976D01*
X135723177Y-76631313D01*
X135848196Y-76619000D01*
X135931804Y-76619000D01*
X136056823Y-76631313D01*
X136056823Y-76631313D01*
G37*
G36*
X128436823Y-76631313D02*
G01*
X128597242Y-76679976D01*
X128729906Y-76750886D01*
X128745078Y-76758996D01*
X128874659Y-76865341D01*
X128981004Y-76994922D01*
X128981005Y-76994924D01*
X129060024Y-77142758D01*
X129108687Y-77303177D01*
X129125117Y-77470000D01*
X129108687Y-77636823D01*
X129060024Y-77797242D01*
X128991705Y-77925058D01*
X128981004Y-77945078D01*
X128874659Y-78074659D01*
X128745078Y-78181004D01*
X128745076Y-78181005D01*
X128597242Y-78260024D01*
X128436823Y-78308687D01*
X128311804Y-78321000D01*
X128228196Y-78321000D01*
X128103177Y-78308687D01*
X127942758Y-78260024D01*
X127794924Y-78181005D01*
X127794922Y-78181004D01*
X127665341Y-78074659D01*
X127558996Y-77945078D01*
X127548295Y-77925058D01*
X127479976Y-77797242D01*
X127431313Y-77636823D01*
X127414883Y-77470000D01*
X127431313Y-77303177D01*
X127479976Y-77142758D01*
X127558995Y-76994924D01*
X127558996Y-76994922D01*
X127665341Y-76865341D01*
X127794922Y-76758996D01*
X127810094Y-76750886D01*
X127942758Y-76679976D01*
X128103177Y-76631313D01*
X128228196Y-76619000D01*
X128311804Y-76619000D01*
X128436823Y-76631313D01*
X128436823Y-76631313D01*
G37*
G36*
X104580694Y-75247833D02*
G01*
X104753095Y-75300131D01*
X104911983Y-75385058D01*
X105051249Y-75499351D01*
X105165542Y-75638617D01*
X105250469Y-75797505D01*
X105302767Y-75969906D01*
X105320425Y-76149200D01*
X105302767Y-76328494D01*
X105250469Y-76500895D01*
X105165542Y-76659783D01*
X105051249Y-76799049D01*
X104911983Y-76913342D01*
X104753095Y-76998269D01*
X104580694Y-77050567D01*
X104446331Y-77063800D01*
X103833669Y-77063800D01*
X103699306Y-77050567D01*
X103526905Y-76998269D01*
X103368017Y-76913342D01*
X103228751Y-76799049D01*
X103114458Y-76659783D01*
X103029531Y-76500895D01*
X102977233Y-76328494D01*
X102959575Y-76149200D01*
X102977233Y-75969906D01*
X103029531Y-75797505D01*
X103114458Y-75638617D01*
X103228751Y-75499351D01*
X103368017Y-75385058D01*
X103526905Y-75300131D01*
X103699306Y-75247833D01*
X103833669Y-75234600D01*
X104446331Y-75234600D01*
X104580694Y-75247833D01*
X104580694Y-75247833D01*
G37*
G36*
X119820694Y-75247833D02*
G01*
X119993095Y-75300131D01*
X120151983Y-75385058D01*
X120291249Y-75499351D01*
X120405542Y-75638617D01*
X120490469Y-75797505D01*
X120542767Y-75969906D01*
X120560425Y-76149200D01*
X120542767Y-76328494D01*
X120490469Y-76500895D01*
X120405542Y-76659783D01*
X120291249Y-76799049D01*
X120151983Y-76913342D01*
X119993095Y-76998269D01*
X119820694Y-77050567D01*
X119686331Y-77063800D01*
X119073669Y-77063800D01*
X118939306Y-77050567D01*
X118766905Y-76998269D01*
X118608017Y-76913342D01*
X118468751Y-76799049D01*
X118354458Y-76659783D01*
X118269531Y-76500895D01*
X118217233Y-76328494D01*
X118199575Y-76149200D01*
X118217233Y-75969906D01*
X118269531Y-75797505D01*
X118354458Y-75638617D01*
X118468751Y-75499351D01*
X118608017Y-75385058D01*
X118766905Y-75300131D01*
X118939306Y-75247833D01*
X119073669Y-75234600D01*
X119686331Y-75234600D01*
X119820694Y-75247833D01*
X119820694Y-75247833D01*
G37*
G36*
X128436823Y-74091313D02*
G01*
X128597242Y-74139976D01*
X128729906Y-74210886D01*
X128745078Y-74218996D01*
X128874659Y-74325341D01*
X128981004Y-74454922D01*
X128981005Y-74454924D01*
X129060024Y-74602758D01*
X129108687Y-74763177D01*
X129125117Y-74930000D01*
X129108687Y-75096823D01*
X129060024Y-75257242D01*
X128991705Y-75385058D01*
X128981004Y-75405078D01*
X128874659Y-75534659D01*
X128745078Y-75641004D01*
X128745076Y-75641005D01*
X128597242Y-75720024D01*
X128436823Y-75768687D01*
X128311804Y-75781000D01*
X128228196Y-75781000D01*
X128103177Y-75768687D01*
X127942758Y-75720024D01*
X127794924Y-75641005D01*
X127794922Y-75641004D01*
X127665341Y-75534659D01*
X127558996Y-75405078D01*
X127548295Y-75385058D01*
X127479976Y-75257242D01*
X127431313Y-75096823D01*
X127414883Y-74930000D01*
X127431313Y-74763177D01*
X127479976Y-74602758D01*
X127558995Y-74454924D01*
X127558996Y-74454922D01*
X127665341Y-74325341D01*
X127794922Y-74218996D01*
X127810094Y-74210886D01*
X127942758Y-74139976D01*
X128103177Y-74091313D01*
X128228196Y-74079000D01*
X128311804Y-74079000D01*
X128436823Y-74091313D01*
X128436823Y-74091313D01*
G37*
G36*
X136056823Y-74091313D02*
G01*
X136217242Y-74139976D01*
X136349906Y-74210886D01*
X136365078Y-74218996D01*
X136494659Y-74325341D01*
X136601004Y-74454922D01*
X136601005Y-74454924D01*
X136680024Y-74602758D01*
X136728687Y-74763177D01*
X136745117Y-74930000D01*
X136728687Y-75096823D01*
X136680024Y-75257242D01*
X136611705Y-75385058D01*
X136601004Y-75405078D01*
X136494659Y-75534659D01*
X136365078Y-75641004D01*
X136365076Y-75641005D01*
X136217242Y-75720024D01*
X136056823Y-75768687D01*
X135931804Y-75781000D01*
X135848196Y-75781000D01*
X135723177Y-75768687D01*
X135562758Y-75720024D01*
X135414924Y-75641005D01*
X135414922Y-75641004D01*
X135285341Y-75534659D01*
X135178996Y-75405078D01*
X135168295Y-75385058D01*
X135099976Y-75257242D01*
X135051313Y-75096823D01*
X135034883Y-74930000D01*
X135051313Y-74763177D01*
X135099976Y-74602758D01*
X135178995Y-74454924D01*
X135178996Y-74454922D01*
X135285341Y-74325341D01*
X135414922Y-74218996D01*
X135430094Y-74210886D01*
X135562758Y-74139976D01*
X135723177Y-74091313D01*
X135848196Y-74079000D01*
X135931804Y-74079000D01*
X136056823Y-74091313D01*
X136056823Y-74091313D01*
G37*
G36*
X104580694Y-72707833D02*
G01*
X104753095Y-72760131D01*
X104911983Y-72845058D01*
X105051249Y-72959351D01*
X105165542Y-73098617D01*
X105250469Y-73257505D01*
X105302767Y-73429906D01*
X105320425Y-73609200D01*
X105302767Y-73788494D01*
X105250469Y-73960895D01*
X105165542Y-74119783D01*
X105051249Y-74259049D01*
X104911983Y-74373342D01*
X104753095Y-74458269D01*
X104580694Y-74510567D01*
X104446331Y-74523800D01*
X103833669Y-74523800D01*
X103699306Y-74510567D01*
X103526905Y-74458269D01*
X103368017Y-74373342D01*
X103228751Y-74259049D01*
X103114458Y-74119783D01*
X103029531Y-73960895D01*
X102977233Y-73788494D01*
X102959575Y-73609200D01*
X102977233Y-73429906D01*
X103029531Y-73257505D01*
X103114458Y-73098617D01*
X103228751Y-72959351D01*
X103368017Y-72845058D01*
X103526905Y-72760131D01*
X103699306Y-72707833D01*
X103833669Y-72694600D01*
X104446331Y-72694600D01*
X104580694Y-72707833D01*
X104580694Y-72707833D01*
G37*
G36*
X119820694Y-72707833D02*
G01*
X119993095Y-72760131D01*
X120151983Y-72845058D01*
X120291249Y-72959351D01*
X120405542Y-73098617D01*
X120490469Y-73257505D01*
X120542767Y-73429906D01*
X120560425Y-73609200D01*
X120542767Y-73788494D01*
X120490469Y-73960895D01*
X120405542Y-74119783D01*
X120291249Y-74259049D01*
X120151983Y-74373342D01*
X119993095Y-74458269D01*
X119820694Y-74510567D01*
X119686331Y-74523800D01*
X119073669Y-74523800D01*
X118939306Y-74510567D01*
X118766905Y-74458269D01*
X118608017Y-74373342D01*
X118468751Y-74259049D01*
X118354458Y-74119783D01*
X118269531Y-73960895D01*
X118217233Y-73788494D01*
X118199575Y-73609200D01*
X118217233Y-73429906D01*
X118269531Y-73257505D01*
X118354458Y-73098617D01*
X118468751Y-72959351D01*
X118608017Y-72845058D01*
X118766905Y-72760131D01*
X118939306Y-72707833D01*
X119073669Y-72694600D01*
X119686331Y-72694600D01*
X119820694Y-72707833D01*
X119820694Y-72707833D01*
G37*
G36*
X136056823Y-71551313D02*
G01*
X136217242Y-71599976D01*
X136349906Y-71670886D01*
X136365078Y-71678996D01*
X136494659Y-71785341D01*
X136601004Y-71914922D01*
X136601005Y-71914924D01*
X136680024Y-72062758D01*
X136728687Y-72223177D01*
X136745117Y-72390000D01*
X136728687Y-72556823D01*
X136680024Y-72717242D01*
X136611705Y-72845058D01*
X136601004Y-72865078D01*
X136494659Y-72994659D01*
X136365078Y-73101004D01*
X136365076Y-73101005D01*
X136217242Y-73180024D01*
X136056823Y-73228687D01*
X135931804Y-73241000D01*
X135848196Y-73241000D01*
X135723177Y-73228687D01*
X135562758Y-73180024D01*
X135414924Y-73101005D01*
X135414922Y-73101004D01*
X135285341Y-72994659D01*
X135178996Y-72865078D01*
X135168295Y-72845058D01*
X135099976Y-72717242D01*
X135051313Y-72556823D01*
X135034883Y-72390000D01*
X135051313Y-72223177D01*
X135099976Y-72062758D01*
X135178995Y-71914924D01*
X135178996Y-71914922D01*
X135285341Y-71785341D01*
X135414922Y-71678996D01*
X135430094Y-71670886D01*
X135562758Y-71599976D01*
X135723177Y-71551313D01*
X135848196Y-71539000D01*
X135931804Y-71539000D01*
X136056823Y-71551313D01*
X136056823Y-71551313D01*
G37*
G36*
X128436823Y-71551313D02*
G01*
X128597242Y-71599976D01*
X128729906Y-71670886D01*
X128745078Y-71678996D01*
X128874659Y-71785341D01*
X128981004Y-71914922D01*
X128981005Y-71914924D01*
X129060024Y-72062758D01*
X129108687Y-72223177D01*
X129125117Y-72390000D01*
X129108687Y-72556823D01*
X129060024Y-72717242D01*
X128991705Y-72845058D01*
X128981004Y-72865078D01*
X128874659Y-72994659D01*
X128745078Y-73101004D01*
X128745076Y-73101005D01*
X128597242Y-73180024D01*
X128436823Y-73228687D01*
X128311804Y-73241000D01*
X128228196Y-73241000D01*
X128103177Y-73228687D01*
X127942758Y-73180024D01*
X127794924Y-73101005D01*
X127794922Y-73101004D01*
X127665341Y-72994659D01*
X127558996Y-72865078D01*
X127548295Y-72845058D01*
X127479976Y-72717242D01*
X127431313Y-72556823D01*
X127414883Y-72390000D01*
X127431313Y-72223177D01*
X127479976Y-72062758D01*
X127558995Y-71914924D01*
X127558996Y-71914922D01*
X127665341Y-71785341D01*
X127794922Y-71678996D01*
X127810094Y-71670886D01*
X127942758Y-71599976D01*
X128103177Y-71551313D01*
X128228196Y-71539000D01*
X128311804Y-71539000D01*
X128436823Y-71551313D01*
X128436823Y-71551313D01*
G37*
G36*
X73846001Y-72021000D02*
G01*
X72044001Y-72021000D01*
X72044001Y-70219000D01*
X73846001Y-70219000D01*
X73846001Y-72021000D01*
X73846001Y-72021000D01*
G37*
G36*
X85755443Y-70225518D02*
G01*
X85821628Y-70232037D01*
X85991467Y-70283557D01*
X86147992Y-70367222D01*
X86183730Y-70396552D01*
X86285187Y-70479814D01*
X86368449Y-70581271D01*
X86397779Y-70617009D01*
X86481444Y-70773534D01*
X86532964Y-70943373D01*
X86550360Y-71120000D01*
X86532964Y-71296627D01*
X86481444Y-71466466D01*
X86397779Y-71622991D01*
X86368449Y-71658729D01*
X86285187Y-71760186D01*
X86196046Y-71833341D01*
X86147992Y-71872778D01*
X85991467Y-71956443D01*
X85821628Y-72007963D01*
X85755444Y-72014481D01*
X85689261Y-72021000D01*
X85600741Y-72021000D01*
X85534558Y-72014481D01*
X85468374Y-72007963D01*
X85298535Y-71956443D01*
X85142010Y-71872778D01*
X85093956Y-71833341D01*
X85004815Y-71760186D01*
X84921553Y-71658729D01*
X84892223Y-71622991D01*
X84808558Y-71466466D01*
X84757038Y-71296627D01*
X84739642Y-71120000D01*
X84757038Y-70943373D01*
X84808558Y-70773534D01*
X84892223Y-70617009D01*
X84921553Y-70581271D01*
X85004815Y-70479814D01*
X85106272Y-70396552D01*
X85142010Y-70367222D01*
X85298535Y-70283557D01*
X85468374Y-70232037D01*
X85534559Y-70225518D01*
X85600741Y-70219000D01*
X85689261Y-70219000D01*
X85755443Y-70225518D01*
X85755443Y-70225518D01*
G37*
G36*
X83215443Y-70225518D02*
G01*
X83281628Y-70232037D01*
X83451467Y-70283557D01*
X83607992Y-70367222D01*
X83643730Y-70396552D01*
X83745187Y-70479814D01*
X83828449Y-70581271D01*
X83857779Y-70617009D01*
X83941444Y-70773534D01*
X83992964Y-70943373D01*
X84010360Y-71120000D01*
X83992964Y-71296627D01*
X83941444Y-71466466D01*
X83857779Y-71622991D01*
X83828449Y-71658729D01*
X83745187Y-71760186D01*
X83656046Y-71833341D01*
X83607992Y-71872778D01*
X83451467Y-71956443D01*
X83281628Y-72007963D01*
X83215444Y-72014481D01*
X83149261Y-72021000D01*
X83060741Y-72021000D01*
X82994558Y-72014481D01*
X82928374Y-72007963D01*
X82758535Y-71956443D01*
X82602010Y-71872778D01*
X82553956Y-71833341D01*
X82464815Y-71760186D01*
X82381553Y-71658729D01*
X82352223Y-71622991D01*
X82268558Y-71466466D01*
X82217038Y-71296627D01*
X82199642Y-71120000D01*
X82217038Y-70943373D01*
X82268558Y-70773534D01*
X82352223Y-70617009D01*
X82381553Y-70581271D01*
X82464815Y-70479814D01*
X82566272Y-70396552D01*
X82602010Y-70367222D01*
X82758535Y-70283557D01*
X82928374Y-70232037D01*
X82994559Y-70225518D01*
X83060741Y-70219000D01*
X83149261Y-70219000D01*
X83215443Y-70225518D01*
X83215443Y-70225518D01*
G37*
G36*
X88295443Y-70225518D02*
G01*
X88361628Y-70232037D01*
X88531467Y-70283557D01*
X88687992Y-70367222D01*
X88723730Y-70396552D01*
X88825187Y-70479814D01*
X88908449Y-70581271D01*
X88937779Y-70617009D01*
X89021444Y-70773534D01*
X89072964Y-70943373D01*
X89090360Y-71120000D01*
X89072964Y-71296627D01*
X89021444Y-71466466D01*
X88937779Y-71622991D01*
X88908449Y-71658729D01*
X88825187Y-71760186D01*
X88736046Y-71833341D01*
X88687992Y-71872778D01*
X88531467Y-71956443D01*
X88361628Y-72007963D01*
X88295444Y-72014481D01*
X88229261Y-72021000D01*
X88140741Y-72021000D01*
X88074558Y-72014481D01*
X88008374Y-72007963D01*
X87838535Y-71956443D01*
X87682010Y-71872778D01*
X87633956Y-71833341D01*
X87544815Y-71760186D01*
X87461553Y-71658729D01*
X87432223Y-71622991D01*
X87348558Y-71466466D01*
X87297038Y-71296627D01*
X87279642Y-71120000D01*
X87297038Y-70943373D01*
X87348558Y-70773534D01*
X87432223Y-70617009D01*
X87461553Y-70581271D01*
X87544815Y-70479814D01*
X87646272Y-70396552D01*
X87682010Y-70367222D01*
X87838535Y-70283557D01*
X88008374Y-70232037D01*
X88074559Y-70225518D01*
X88140741Y-70219000D01*
X88229261Y-70219000D01*
X88295443Y-70225518D01*
X88295443Y-70225518D01*
G37*
G36*
X80675443Y-70225518D02*
G01*
X80741628Y-70232037D01*
X80911467Y-70283557D01*
X81067992Y-70367222D01*
X81103730Y-70396552D01*
X81205187Y-70479814D01*
X81288449Y-70581271D01*
X81317779Y-70617009D01*
X81401444Y-70773534D01*
X81452964Y-70943373D01*
X81470360Y-71120000D01*
X81452964Y-71296627D01*
X81401444Y-71466466D01*
X81317779Y-71622991D01*
X81288449Y-71658729D01*
X81205187Y-71760186D01*
X81116046Y-71833341D01*
X81067992Y-71872778D01*
X80911467Y-71956443D01*
X80741628Y-72007963D01*
X80675444Y-72014481D01*
X80609261Y-72021000D01*
X80520741Y-72021000D01*
X80454558Y-72014481D01*
X80388374Y-72007963D01*
X80218535Y-71956443D01*
X80062010Y-71872778D01*
X80013956Y-71833341D01*
X79924815Y-71760186D01*
X79841553Y-71658729D01*
X79812223Y-71622991D01*
X79728558Y-71466466D01*
X79677038Y-71296627D01*
X79659642Y-71120000D01*
X79677038Y-70943373D01*
X79728558Y-70773534D01*
X79812223Y-70617009D01*
X79841553Y-70581271D01*
X79924815Y-70479814D01*
X80026272Y-70396552D01*
X80062010Y-70367222D01*
X80218535Y-70283557D01*
X80388374Y-70232037D01*
X80454559Y-70225518D01*
X80520741Y-70219000D01*
X80609261Y-70219000D01*
X80675443Y-70225518D01*
X80675443Y-70225518D01*
G37*
G36*
X78135443Y-70225518D02*
G01*
X78201628Y-70232037D01*
X78371467Y-70283557D01*
X78527992Y-70367222D01*
X78563730Y-70396552D01*
X78665187Y-70479814D01*
X78748449Y-70581271D01*
X78777779Y-70617009D01*
X78861444Y-70773534D01*
X78912964Y-70943373D01*
X78930360Y-71120000D01*
X78912964Y-71296627D01*
X78861444Y-71466466D01*
X78777779Y-71622991D01*
X78748449Y-71658729D01*
X78665187Y-71760186D01*
X78576046Y-71833341D01*
X78527992Y-71872778D01*
X78371467Y-71956443D01*
X78201628Y-72007963D01*
X78135444Y-72014481D01*
X78069261Y-72021000D01*
X77980741Y-72021000D01*
X77914558Y-72014481D01*
X77848374Y-72007963D01*
X77678535Y-71956443D01*
X77522010Y-71872778D01*
X77473956Y-71833341D01*
X77384815Y-71760186D01*
X77301553Y-71658729D01*
X77272223Y-71622991D01*
X77188558Y-71466466D01*
X77137038Y-71296627D01*
X77119642Y-71120000D01*
X77137038Y-70943373D01*
X77188558Y-70773534D01*
X77272223Y-70617009D01*
X77301553Y-70581271D01*
X77384815Y-70479814D01*
X77486272Y-70396552D01*
X77522010Y-70367222D01*
X77678535Y-70283557D01*
X77848374Y-70232037D01*
X77914559Y-70225518D01*
X77980741Y-70219000D01*
X78069261Y-70219000D01*
X78135443Y-70225518D01*
X78135443Y-70225518D01*
G37*
G36*
X90835443Y-70225518D02*
G01*
X90901628Y-70232037D01*
X91071467Y-70283557D01*
X91227992Y-70367222D01*
X91263730Y-70396552D01*
X91365187Y-70479814D01*
X91448449Y-70581271D01*
X91477779Y-70617009D01*
X91561444Y-70773534D01*
X91612964Y-70943373D01*
X91630360Y-71120000D01*
X91612964Y-71296627D01*
X91561444Y-71466466D01*
X91477779Y-71622991D01*
X91448449Y-71658729D01*
X91365187Y-71760186D01*
X91276046Y-71833341D01*
X91227992Y-71872778D01*
X91071467Y-71956443D01*
X90901628Y-72007963D01*
X90835444Y-72014481D01*
X90769261Y-72021000D01*
X90680741Y-72021000D01*
X90614558Y-72014481D01*
X90548374Y-72007963D01*
X90378535Y-71956443D01*
X90222010Y-71872778D01*
X90173956Y-71833341D01*
X90084815Y-71760186D01*
X90001553Y-71658729D01*
X89972223Y-71622991D01*
X89888558Y-71466466D01*
X89837038Y-71296627D01*
X89819642Y-71120000D01*
X89837038Y-70943373D01*
X89888558Y-70773534D01*
X89972223Y-70617009D01*
X90001553Y-70581271D01*
X90084815Y-70479814D01*
X90186272Y-70396552D01*
X90222010Y-70367222D01*
X90378535Y-70283557D01*
X90548374Y-70232037D01*
X90614559Y-70225518D01*
X90680741Y-70219000D01*
X90769261Y-70219000D01*
X90835443Y-70225518D01*
X90835443Y-70225518D01*
G37*
G36*
X95915443Y-70225518D02*
G01*
X95981628Y-70232037D01*
X96151467Y-70283557D01*
X96307992Y-70367222D01*
X96343730Y-70396552D01*
X96445187Y-70479814D01*
X96528449Y-70581271D01*
X96557779Y-70617009D01*
X96641444Y-70773534D01*
X96692964Y-70943373D01*
X96710360Y-71120000D01*
X96692964Y-71296627D01*
X96641444Y-71466466D01*
X96557779Y-71622991D01*
X96528449Y-71658729D01*
X96445187Y-71760186D01*
X96356046Y-71833341D01*
X96307992Y-71872778D01*
X96151467Y-71956443D01*
X95981628Y-72007963D01*
X95915444Y-72014481D01*
X95849261Y-72021000D01*
X95760741Y-72021000D01*
X95694558Y-72014481D01*
X95628374Y-72007963D01*
X95458535Y-71956443D01*
X95302010Y-71872778D01*
X95253956Y-71833341D01*
X95164815Y-71760186D01*
X95081553Y-71658729D01*
X95052223Y-71622991D01*
X94968558Y-71466466D01*
X94917038Y-71296627D01*
X94899642Y-71120000D01*
X94917038Y-70943373D01*
X94968558Y-70773534D01*
X95052223Y-70617009D01*
X95081553Y-70581271D01*
X95164815Y-70479814D01*
X95266272Y-70396552D01*
X95302010Y-70367222D01*
X95458535Y-70283557D01*
X95628374Y-70232037D01*
X95694559Y-70225518D01*
X95760741Y-70219000D01*
X95849261Y-70219000D01*
X95915443Y-70225518D01*
X95915443Y-70225518D01*
G37*
G36*
X93375443Y-70225518D02*
G01*
X93441628Y-70232037D01*
X93611467Y-70283557D01*
X93767992Y-70367222D01*
X93803730Y-70396552D01*
X93905187Y-70479814D01*
X93988449Y-70581271D01*
X94017779Y-70617009D01*
X94101444Y-70773534D01*
X94152964Y-70943373D01*
X94170360Y-71120000D01*
X94152964Y-71296627D01*
X94101444Y-71466466D01*
X94017779Y-71622991D01*
X93988449Y-71658729D01*
X93905187Y-71760186D01*
X93816046Y-71833341D01*
X93767992Y-71872778D01*
X93611467Y-71956443D01*
X93441628Y-72007963D01*
X93375444Y-72014481D01*
X93309261Y-72021000D01*
X93220741Y-72021000D01*
X93154558Y-72014481D01*
X93088374Y-72007963D01*
X92918535Y-71956443D01*
X92762010Y-71872778D01*
X92713956Y-71833341D01*
X92624815Y-71760186D01*
X92541553Y-71658729D01*
X92512223Y-71622991D01*
X92428558Y-71466466D01*
X92377038Y-71296627D01*
X92359642Y-71120000D01*
X92377038Y-70943373D01*
X92428558Y-70773534D01*
X92512223Y-70617009D01*
X92541553Y-70581271D01*
X92624815Y-70479814D01*
X92726272Y-70396552D01*
X92762010Y-70367222D01*
X92918535Y-70283557D01*
X93088374Y-70232037D01*
X93154559Y-70225518D01*
X93220741Y-70219000D01*
X93309261Y-70219000D01*
X93375443Y-70225518D01*
X93375443Y-70225518D01*
G37*
G36*
X75595443Y-70225518D02*
G01*
X75661628Y-70232037D01*
X75831467Y-70283557D01*
X75987992Y-70367222D01*
X76023730Y-70396552D01*
X76125187Y-70479814D01*
X76208449Y-70581271D01*
X76237779Y-70617009D01*
X76321444Y-70773534D01*
X76372964Y-70943373D01*
X76390360Y-71120000D01*
X76372964Y-71296627D01*
X76321444Y-71466466D01*
X76237779Y-71622991D01*
X76208449Y-71658729D01*
X76125187Y-71760186D01*
X76036046Y-71833341D01*
X75987992Y-71872778D01*
X75831467Y-71956443D01*
X75661628Y-72007963D01*
X75595444Y-72014481D01*
X75529261Y-72021000D01*
X75440741Y-72021000D01*
X75374558Y-72014481D01*
X75308374Y-72007963D01*
X75138535Y-71956443D01*
X74982010Y-71872778D01*
X74933956Y-71833341D01*
X74844815Y-71760186D01*
X74761553Y-71658729D01*
X74732223Y-71622991D01*
X74648558Y-71466466D01*
X74597038Y-71296627D01*
X74579642Y-71120000D01*
X74597038Y-70943373D01*
X74648558Y-70773534D01*
X74732223Y-70617009D01*
X74761553Y-70581271D01*
X74844815Y-70479814D01*
X74946272Y-70396552D01*
X74982010Y-70367222D01*
X75138535Y-70283557D01*
X75308374Y-70232037D01*
X75374559Y-70225518D01*
X75440741Y-70219000D01*
X75529261Y-70219000D01*
X75595443Y-70225518D01*
X75595443Y-70225518D01*
G37*
G36*
X119820694Y-70167833D02*
G01*
X119993095Y-70220131D01*
X120151983Y-70305058D01*
X120291249Y-70419351D01*
X120405542Y-70558617D01*
X120490469Y-70717505D01*
X120542767Y-70889906D01*
X120560425Y-71069200D01*
X120542767Y-71248494D01*
X120490469Y-71420895D01*
X120405542Y-71579783D01*
X120291249Y-71719049D01*
X120151983Y-71833342D01*
X119993095Y-71918269D01*
X119820694Y-71970567D01*
X119686331Y-71983800D01*
X119073669Y-71983800D01*
X118939306Y-71970567D01*
X118766905Y-71918269D01*
X118608017Y-71833342D01*
X118468751Y-71719049D01*
X118354458Y-71579783D01*
X118269531Y-71420895D01*
X118217233Y-71248494D01*
X118199575Y-71069200D01*
X118217233Y-70889906D01*
X118269531Y-70717505D01*
X118354458Y-70558617D01*
X118468751Y-70419351D01*
X118608017Y-70305058D01*
X118766905Y-70220131D01*
X118939306Y-70167833D01*
X119073669Y-70154600D01*
X119686331Y-70154600D01*
X119820694Y-70167833D01*
X119820694Y-70167833D01*
G37*
G36*
X104580694Y-70167833D02*
G01*
X104753095Y-70220131D01*
X104911983Y-70305058D01*
X105051249Y-70419351D01*
X105165542Y-70558617D01*
X105250469Y-70717505D01*
X105302767Y-70889906D01*
X105320425Y-71069200D01*
X105302767Y-71248494D01*
X105250469Y-71420895D01*
X105165542Y-71579783D01*
X105051249Y-71719049D01*
X104911983Y-71833342D01*
X104753095Y-71918269D01*
X104580694Y-71970567D01*
X104446331Y-71983800D01*
X103833669Y-71983800D01*
X103699306Y-71970567D01*
X103526905Y-71918269D01*
X103368017Y-71833342D01*
X103228751Y-71719049D01*
X103114458Y-71579783D01*
X103029531Y-71420895D01*
X102977233Y-71248494D01*
X102959575Y-71069200D01*
X102977233Y-70889906D01*
X103029531Y-70717505D01*
X103114458Y-70558617D01*
X103228751Y-70419351D01*
X103368017Y-70305058D01*
X103526905Y-70220131D01*
X103699306Y-70167833D01*
X103833669Y-70154600D01*
X104446331Y-70154600D01*
X104580694Y-70167833D01*
X104580694Y-70167833D01*
G37*
G36*
X128436823Y-69011313D02*
G01*
X128597242Y-69059976D01*
X128729906Y-69130886D01*
X128745078Y-69138996D01*
X128874659Y-69245341D01*
X128981004Y-69374922D01*
X128981005Y-69374924D01*
X129060024Y-69522758D01*
X129108687Y-69683177D01*
X129125117Y-69850000D01*
X129108687Y-70016823D01*
X129060024Y-70177242D01*
X129030735Y-70232037D01*
X128981004Y-70325078D01*
X128874659Y-70454659D01*
X128745078Y-70561004D01*
X128745076Y-70561005D01*
X128597242Y-70640024D01*
X128436823Y-70688687D01*
X128311804Y-70701000D01*
X128228196Y-70701000D01*
X128103177Y-70688687D01*
X127942758Y-70640024D01*
X127794924Y-70561005D01*
X127794922Y-70561004D01*
X127665341Y-70454659D01*
X127558996Y-70325078D01*
X127509265Y-70232037D01*
X127479976Y-70177242D01*
X127431313Y-70016823D01*
X127414883Y-69850000D01*
X127431313Y-69683177D01*
X127479976Y-69522758D01*
X127558995Y-69374924D01*
X127558996Y-69374922D01*
X127665341Y-69245341D01*
X127794922Y-69138996D01*
X127810094Y-69130886D01*
X127942758Y-69059976D01*
X128103177Y-69011313D01*
X128228196Y-68999000D01*
X128311804Y-68999000D01*
X128436823Y-69011313D01*
X128436823Y-69011313D01*
G37*
G36*
X136056823Y-69011313D02*
G01*
X136217242Y-69059976D01*
X136349906Y-69130886D01*
X136365078Y-69138996D01*
X136494659Y-69245341D01*
X136601004Y-69374922D01*
X136601005Y-69374924D01*
X136680024Y-69522758D01*
X136728687Y-69683177D01*
X136745117Y-69850000D01*
X136728687Y-70016823D01*
X136680024Y-70177242D01*
X136650735Y-70232037D01*
X136601004Y-70325078D01*
X136494659Y-70454659D01*
X136365078Y-70561004D01*
X136365076Y-70561005D01*
X136217242Y-70640024D01*
X136056823Y-70688687D01*
X135931804Y-70701000D01*
X135848196Y-70701000D01*
X135723177Y-70688687D01*
X135562758Y-70640024D01*
X135414924Y-70561005D01*
X135414922Y-70561004D01*
X135285341Y-70454659D01*
X135178996Y-70325078D01*
X135129265Y-70232037D01*
X135099976Y-70177242D01*
X135051313Y-70016823D01*
X135034883Y-69850000D01*
X135051313Y-69683177D01*
X135099976Y-69522758D01*
X135178995Y-69374924D01*
X135178996Y-69374922D01*
X135285341Y-69245341D01*
X135414922Y-69138996D01*
X135430094Y-69130886D01*
X135562758Y-69059976D01*
X135723177Y-69011313D01*
X135848196Y-68999000D01*
X135931804Y-68999000D01*
X136056823Y-69011313D01*
X136056823Y-69011313D01*
G37*
G36*
X144943467Y-67525668D02*
G01*
X144959567Y-67527254D01*
X145132233Y-67579632D01*
X145291364Y-67664689D01*
X145430844Y-67779156D01*
X145545311Y-67918635D01*
X145630368Y-68077766D01*
X145682746Y-68250433D01*
X145696000Y-68385002D01*
X145696000Y-68774997D01*
X145685570Y-68880895D01*
X145682746Y-68909567D01*
X145677619Y-68926468D01*
X145630368Y-69082234D01*
X145545311Y-69241365D01*
X145430844Y-69380844D01*
X145291365Y-69495311D01*
X145132234Y-69580368D01*
X145045900Y-69606557D01*
X144959568Y-69632746D01*
X144943468Y-69634332D01*
X144780000Y-69650432D01*
X144616533Y-69634332D01*
X144600433Y-69632746D01*
X144514101Y-69606557D01*
X144427767Y-69580368D01*
X144268636Y-69495311D01*
X144129157Y-69380844D01*
X144014689Y-69241365D01*
X143929632Y-69082234D01*
X143877254Y-68909567D01*
X143864000Y-68774998D01*
X143864000Y-68385003D01*
X143877254Y-68250434D01*
X143877255Y-68250432D01*
X143908119Y-68148686D01*
X143929632Y-68077767D01*
X144014689Y-67918636D01*
X144129156Y-67779156D01*
X144268635Y-67664689D01*
X144427766Y-67579632D01*
X144600432Y-67527254D01*
X144616532Y-67525668D01*
X144780000Y-67509568D01*
X144943467Y-67525668D01*
X144943467Y-67525668D01*
G37*
G36*
X167803467Y-67525668D02*
G01*
X167819567Y-67527254D01*
X167992233Y-67579632D01*
X168151364Y-67664689D01*
X168290844Y-67779156D01*
X168405311Y-67918635D01*
X168490368Y-68077766D01*
X168542746Y-68250433D01*
X168556000Y-68385002D01*
X168556000Y-68774997D01*
X168545570Y-68880895D01*
X168542746Y-68909567D01*
X168537619Y-68926468D01*
X168490368Y-69082234D01*
X168405311Y-69241365D01*
X168290844Y-69380844D01*
X168151365Y-69495311D01*
X167992234Y-69580368D01*
X167905900Y-69606557D01*
X167819568Y-69632746D01*
X167803468Y-69634332D01*
X167640000Y-69650432D01*
X167476533Y-69634332D01*
X167460433Y-69632746D01*
X167374101Y-69606557D01*
X167287767Y-69580368D01*
X167128636Y-69495311D01*
X166989157Y-69380844D01*
X166874689Y-69241365D01*
X166789632Y-69082234D01*
X166737254Y-68909567D01*
X166724000Y-68774998D01*
X166724000Y-68385003D01*
X166737254Y-68250434D01*
X166737255Y-68250432D01*
X166768119Y-68148686D01*
X166789632Y-68077767D01*
X166874689Y-67918636D01*
X166989156Y-67779156D01*
X167128635Y-67664689D01*
X167287766Y-67579632D01*
X167460432Y-67527254D01*
X167476532Y-67525668D01*
X167640000Y-67509568D01*
X167803467Y-67525668D01*
X167803467Y-67525668D01*
G37*
G36*
X147483467Y-67525668D02*
G01*
X147499567Y-67527254D01*
X147672233Y-67579632D01*
X147831364Y-67664689D01*
X147970844Y-67779156D01*
X148085311Y-67918635D01*
X148170368Y-68077766D01*
X148222746Y-68250433D01*
X148236000Y-68385002D01*
X148236000Y-68774997D01*
X148225570Y-68880895D01*
X148222746Y-68909567D01*
X148217619Y-68926468D01*
X148170368Y-69082234D01*
X148085311Y-69241365D01*
X147970844Y-69380844D01*
X147831365Y-69495311D01*
X147672234Y-69580368D01*
X147585900Y-69606557D01*
X147499568Y-69632746D01*
X147483468Y-69634332D01*
X147320000Y-69650432D01*
X147156533Y-69634332D01*
X147140433Y-69632746D01*
X147054101Y-69606557D01*
X146967767Y-69580368D01*
X146808636Y-69495311D01*
X146669157Y-69380844D01*
X146554689Y-69241365D01*
X146469632Y-69082234D01*
X146417254Y-68909567D01*
X146404000Y-68774998D01*
X146404000Y-68385003D01*
X146417254Y-68250434D01*
X146417255Y-68250432D01*
X146448119Y-68148686D01*
X146469632Y-68077767D01*
X146554689Y-67918636D01*
X146669156Y-67779156D01*
X146808635Y-67664689D01*
X146967766Y-67579632D01*
X147140432Y-67527254D01*
X147156532Y-67525668D01*
X147320000Y-67509568D01*
X147483467Y-67525668D01*
X147483467Y-67525668D01*
G37*
G36*
X155103467Y-67525668D02*
G01*
X155119567Y-67527254D01*
X155292233Y-67579632D01*
X155451364Y-67664689D01*
X155590844Y-67779156D01*
X155705311Y-67918635D01*
X155790368Y-68077766D01*
X155842746Y-68250433D01*
X155856000Y-68385002D01*
X155856000Y-68774997D01*
X155845570Y-68880895D01*
X155842746Y-68909567D01*
X155837619Y-68926468D01*
X155790368Y-69082234D01*
X155705311Y-69241365D01*
X155590844Y-69380844D01*
X155451365Y-69495311D01*
X155292234Y-69580368D01*
X155205900Y-69606557D01*
X155119568Y-69632746D01*
X155103468Y-69634332D01*
X154940000Y-69650432D01*
X154776533Y-69634332D01*
X154760433Y-69632746D01*
X154674101Y-69606557D01*
X154587767Y-69580368D01*
X154428636Y-69495311D01*
X154289157Y-69380844D01*
X154174689Y-69241365D01*
X154089632Y-69082234D01*
X154037254Y-68909567D01*
X154024000Y-68774998D01*
X154024000Y-68385003D01*
X154037254Y-68250434D01*
X154037255Y-68250432D01*
X154068119Y-68148686D01*
X154089632Y-68077767D01*
X154174689Y-67918636D01*
X154289156Y-67779156D01*
X154428635Y-67664689D01*
X154587766Y-67579632D01*
X154760432Y-67527254D01*
X154776532Y-67525668D01*
X154940000Y-67509568D01*
X155103467Y-67525668D01*
X155103467Y-67525668D01*
G37*
G36*
X165263467Y-67525668D02*
G01*
X165279567Y-67527254D01*
X165452233Y-67579632D01*
X165611364Y-67664689D01*
X165750844Y-67779156D01*
X165865311Y-67918635D01*
X165950368Y-68077766D01*
X166002746Y-68250433D01*
X166016000Y-68385002D01*
X166016000Y-68774997D01*
X166005570Y-68880895D01*
X166002746Y-68909567D01*
X165997619Y-68926468D01*
X165950368Y-69082234D01*
X165865311Y-69241365D01*
X165750844Y-69380844D01*
X165611365Y-69495311D01*
X165452234Y-69580368D01*
X165365900Y-69606557D01*
X165279568Y-69632746D01*
X165263468Y-69634332D01*
X165100000Y-69650432D01*
X164936533Y-69634332D01*
X164920433Y-69632746D01*
X164834101Y-69606557D01*
X164747767Y-69580368D01*
X164588636Y-69495311D01*
X164449157Y-69380844D01*
X164334689Y-69241365D01*
X164249632Y-69082234D01*
X164197254Y-68909567D01*
X164184000Y-68774998D01*
X164184000Y-68385003D01*
X164197254Y-68250434D01*
X164197255Y-68250432D01*
X164228119Y-68148686D01*
X164249632Y-68077767D01*
X164334689Y-67918636D01*
X164449156Y-67779156D01*
X164588635Y-67664689D01*
X164747766Y-67579632D01*
X164920432Y-67527254D01*
X164936532Y-67525668D01*
X165100000Y-67509568D01*
X165263467Y-67525668D01*
X165263467Y-67525668D01*
G37*
G36*
X157643467Y-67525668D02*
G01*
X157659567Y-67527254D01*
X157832233Y-67579632D01*
X157991364Y-67664689D01*
X158130844Y-67779156D01*
X158245311Y-67918635D01*
X158330368Y-68077766D01*
X158382746Y-68250433D01*
X158396000Y-68385002D01*
X158396000Y-68774997D01*
X158385570Y-68880895D01*
X158382746Y-68909567D01*
X158377619Y-68926468D01*
X158330368Y-69082234D01*
X158245311Y-69241365D01*
X158130844Y-69380844D01*
X157991365Y-69495311D01*
X157832234Y-69580368D01*
X157745900Y-69606557D01*
X157659568Y-69632746D01*
X157643468Y-69634332D01*
X157480000Y-69650432D01*
X157316533Y-69634332D01*
X157300433Y-69632746D01*
X157214101Y-69606557D01*
X157127767Y-69580368D01*
X156968636Y-69495311D01*
X156829157Y-69380844D01*
X156714689Y-69241365D01*
X156629632Y-69082234D01*
X156577254Y-68909567D01*
X156564000Y-68774998D01*
X156564000Y-68385003D01*
X156577254Y-68250434D01*
X156577255Y-68250432D01*
X156608119Y-68148686D01*
X156629632Y-68077767D01*
X156714689Y-67918636D01*
X156829156Y-67779156D01*
X156968635Y-67664689D01*
X157127766Y-67579632D01*
X157300432Y-67527254D01*
X157316532Y-67525668D01*
X157480000Y-67509568D01*
X157643467Y-67525668D01*
X157643467Y-67525668D01*
G37*
G36*
X143156000Y-69646000D02*
G01*
X141324000Y-69646000D01*
X141324000Y-67514000D01*
X143156000Y-67514000D01*
X143156000Y-69646000D01*
X143156000Y-69646000D01*
G37*
G36*
X153316000Y-69646000D02*
G01*
X151484000Y-69646000D01*
X151484000Y-67514000D01*
X153316000Y-67514000D01*
X153316000Y-69646000D01*
X153316000Y-69646000D01*
G37*
G36*
X163476000Y-69646000D02*
G01*
X161644000Y-69646000D01*
X161644000Y-67514000D01*
X163476000Y-67514000D01*
X163476000Y-69646000D01*
X163476000Y-69646000D01*
G37*
G36*
X73055444Y-67685519D02*
G01*
X73121628Y-67692037D01*
X73291467Y-67743557D01*
X73447992Y-67827222D01*
X73483730Y-67856552D01*
X73585187Y-67939814D01*
X73668449Y-68041271D01*
X73697779Y-68077009D01*
X73781444Y-68233534D01*
X73832964Y-68403373D01*
X73850360Y-68580000D01*
X73832964Y-68756627D01*
X73781444Y-68926466D01*
X73697779Y-69082991D01*
X73668449Y-69118729D01*
X73585187Y-69220186D01*
X73496046Y-69293341D01*
X73447992Y-69332778D01*
X73291467Y-69416443D01*
X73121628Y-69467963D01*
X73055443Y-69474482D01*
X72989261Y-69481000D01*
X72900741Y-69481000D01*
X72834559Y-69474482D01*
X72768374Y-69467963D01*
X72598535Y-69416443D01*
X72442010Y-69332778D01*
X72393956Y-69293341D01*
X72304815Y-69220186D01*
X72221553Y-69118729D01*
X72192223Y-69082991D01*
X72108558Y-68926466D01*
X72057038Y-68756627D01*
X72039642Y-68580000D01*
X72057038Y-68403373D01*
X72108558Y-68233534D01*
X72192223Y-68077009D01*
X72221553Y-68041271D01*
X72304815Y-67939814D01*
X72406272Y-67856552D01*
X72442010Y-67827222D01*
X72598535Y-67743557D01*
X72768374Y-67692037D01*
X72834558Y-67685519D01*
X72900741Y-67679000D01*
X72989261Y-67679000D01*
X73055444Y-67685519D01*
X73055444Y-67685519D01*
G37*
G36*
X75595444Y-67685519D02*
G01*
X75661628Y-67692037D01*
X75831467Y-67743557D01*
X75987992Y-67827222D01*
X76023730Y-67856552D01*
X76125187Y-67939814D01*
X76208449Y-68041271D01*
X76237779Y-68077009D01*
X76321444Y-68233534D01*
X76372964Y-68403373D01*
X76390360Y-68580000D01*
X76372964Y-68756627D01*
X76321444Y-68926466D01*
X76237779Y-69082991D01*
X76208449Y-69118729D01*
X76125187Y-69220186D01*
X76036046Y-69293341D01*
X75987992Y-69332778D01*
X75831467Y-69416443D01*
X75661628Y-69467963D01*
X75595443Y-69474482D01*
X75529261Y-69481000D01*
X75440741Y-69481000D01*
X75374559Y-69474482D01*
X75308374Y-69467963D01*
X75138535Y-69416443D01*
X74982010Y-69332778D01*
X74933956Y-69293341D01*
X74844815Y-69220186D01*
X74761553Y-69118729D01*
X74732223Y-69082991D01*
X74648558Y-68926466D01*
X74597038Y-68756627D01*
X74579642Y-68580000D01*
X74597038Y-68403373D01*
X74648558Y-68233534D01*
X74732223Y-68077009D01*
X74761553Y-68041271D01*
X74844815Y-67939814D01*
X74946272Y-67856552D01*
X74982010Y-67827222D01*
X75138535Y-67743557D01*
X75308374Y-67692037D01*
X75374558Y-67685519D01*
X75440741Y-67679000D01*
X75529261Y-67679000D01*
X75595444Y-67685519D01*
X75595444Y-67685519D01*
G37*
G36*
X78135444Y-67685519D02*
G01*
X78201628Y-67692037D01*
X78371467Y-67743557D01*
X78527992Y-67827222D01*
X78563730Y-67856552D01*
X78665187Y-67939814D01*
X78748449Y-68041271D01*
X78777779Y-68077009D01*
X78861444Y-68233534D01*
X78912964Y-68403373D01*
X78930360Y-68580000D01*
X78912964Y-68756627D01*
X78861444Y-68926466D01*
X78777779Y-69082991D01*
X78748449Y-69118729D01*
X78665187Y-69220186D01*
X78576046Y-69293341D01*
X78527992Y-69332778D01*
X78371467Y-69416443D01*
X78201628Y-69467963D01*
X78135443Y-69474482D01*
X78069261Y-69481000D01*
X77980741Y-69481000D01*
X77914559Y-69474482D01*
X77848374Y-69467963D01*
X77678535Y-69416443D01*
X77522010Y-69332778D01*
X77473956Y-69293341D01*
X77384815Y-69220186D01*
X77301553Y-69118729D01*
X77272223Y-69082991D01*
X77188558Y-68926466D01*
X77137038Y-68756627D01*
X77119642Y-68580000D01*
X77137038Y-68403373D01*
X77188558Y-68233534D01*
X77272223Y-68077009D01*
X77301553Y-68041271D01*
X77384815Y-67939814D01*
X77486272Y-67856552D01*
X77522010Y-67827222D01*
X77678535Y-67743557D01*
X77848374Y-67692037D01*
X77914558Y-67685519D01*
X77980741Y-67679000D01*
X78069261Y-67679000D01*
X78135444Y-67685519D01*
X78135444Y-67685519D01*
G37*
G36*
X80675444Y-67685519D02*
G01*
X80741628Y-67692037D01*
X80911467Y-67743557D01*
X81067992Y-67827222D01*
X81103730Y-67856552D01*
X81205187Y-67939814D01*
X81288449Y-68041271D01*
X81317779Y-68077009D01*
X81401444Y-68233534D01*
X81452964Y-68403373D01*
X81470360Y-68580000D01*
X81452964Y-68756627D01*
X81401444Y-68926466D01*
X81317779Y-69082991D01*
X81288449Y-69118729D01*
X81205187Y-69220186D01*
X81116046Y-69293341D01*
X81067992Y-69332778D01*
X80911467Y-69416443D01*
X80741628Y-69467963D01*
X80675443Y-69474482D01*
X80609261Y-69481000D01*
X80520741Y-69481000D01*
X80454559Y-69474482D01*
X80388374Y-69467963D01*
X80218535Y-69416443D01*
X80062010Y-69332778D01*
X80013956Y-69293341D01*
X79924815Y-69220186D01*
X79841553Y-69118729D01*
X79812223Y-69082991D01*
X79728558Y-68926466D01*
X79677038Y-68756627D01*
X79659642Y-68580000D01*
X79677038Y-68403373D01*
X79728558Y-68233534D01*
X79812223Y-68077009D01*
X79841553Y-68041271D01*
X79924815Y-67939814D01*
X80026272Y-67856552D01*
X80062010Y-67827222D01*
X80218535Y-67743557D01*
X80388374Y-67692037D01*
X80454558Y-67685519D01*
X80520741Y-67679000D01*
X80609261Y-67679000D01*
X80675444Y-67685519D01*
X80675444Y-67685519D01*
G37*
G36*
X85755444Y-67685519D02*
G01*
X85821628Y-67692037D01*
X85991467Y-67743557D01*
X86147992Y-67827222D01*
X86183730Y-67856552D01*
X86285187Y-67939814D01*
X86368449Y-68041271D01*
X86397779Y-68077009D01*
X86481444Y-68233534D01*
X86532964Y-68403373D01*
X86550360Y-68580000D01*
X86532964Y-68756627D01*
X86481444Y-68926466D01*
X86397779Y-69082991D01*
X86368449Y-69118729D01*
X86285187Y-69220186D01*
X86196046Y-69293341D01*
X86147992Y-69332778D01*
X85991467Y-69416443D01*
X85821628Y-69467963D01*
X85755443Y-69474482D01*
X85689261Y-69481000D01*
X85600741Y-69481000D01*
X85534559Y-69474482D01*
X85468374Y-69467963D01*
X85298535Y-69416443D01*
X85142010Y-69332778D01*
X85093956Y-69293341D01*
X85004815Y-69220186D01*
X84921553Y-69118729D01*
X84892223Y-69082991D01*
X84808558Y-68926466D01*
X84757038Y-68756627D01*
X84739642Y-68580000D01*
X84757038Y-68403373D01*
X84808558Y-68233534D01*
X84892223Y-68077009D01*
X84921553Y-68041271D01*
X85004815Y-67939814D01*
X85106272Y-67856552D01*
X85142010Y-67827222D01*
X85298535Y-67743557D01*
X85468374Y-67692037D01*
X85534558Y-67685519D01*
X85600741Y-67679000D01*
X85689261Y-67679000D01*
X85755444Y-67685519D01*
X85755444Y-67685519D01*
G37*
G36*
X88295444Y-67685519D02*
G01*
X88361628Y-67692037D01*
X88531467Y-67743557D01*
X88687992Y-67827222D01*
X88723730Y-67856552D01*
X88825187Y-67939814D01*
X88908449Y-68041271D01*
X88937779Y-68077009D01*
X89021444Y-68233534D01*
X89072964Y-68403373D01*
X89090360Y-68580000D01*
X89072964Y-68756627D01*
X89021444Y-68926466D01*
X88937779Y-69082991D01*
X88908449Y-69118729D01*
X88825187Y-69220186D01*
X88736046Y-69293341D01*
X88687992Y-69332778D01*
X88531467Y-69416443D01*
X88361628Y-69467963D01*
X88295443Y-69474482D01*
X88229261Y-69481000D01*
X88140741Y-69481000D01*
X88074559Y-69474482D01*
X88008374Y-69467963D01*
X87838535Y-69416443D01*
X87682010Y-69332778D01*
X87633956Y-69293341D01*
X87544815Y-69220186D01*
X87461553Y-69118729D01*
X87432223Y-69082991D01*
X87348558Y-68926466D01*
X87297038Y-68756627D01*
X87279642Y-68580000D01*
X87297038Y-68403373D01*
X87348558Y-68233534D01*
X87432223Y-68077009D01*
X87461553Y-68041271D01*
X87544815Y-67939814D01*
X87646272Y-67856552D01*
X87682010Y-67827222D01*
X87838535Y-67743557D01*
X88008374Y-67692037D01*
X88074558Y-67685519D01*
X88140741Y-67679000D01*
X88229261Y-67679000D01*
X88295444Y-67685519D01*
X88295444Y-67685519D01*
G37*
G36*
X90835444Y-67685519D02*
G01*
X90901628Y-67692037D01*
X91071467Y-67743557D01*
X91227992Y-67827222D01*
X91263730Y-67856552D01*
X91365187Y-67939814D01*
X91448449Y-68041271D01*
X91477779Y-68077009D01*
X91561444Y-68233534D01*
X91612964Y-68403373D01*
X91630360Y-68580000D01*
X91612964Y-68756627D01*
X91561444Y-68926466D01*
X91477779Y-69082991D01*
X91448449Y-69118729D01*
X91365187Y-69220186D01*
X91276046Y-69293341D01*
X91227992Y-69332778D01*
X91071467Y-69416443D01*
X90901628Y-69467963D01*
X90835443Y-69474482D01*
X90769261Y-69481000D01*
X90680741Y-69481000D01*
X90614559Y-69474482D01*
X90548374Y-69467963D01*
X90378535Y-69416443D01*
X90222010Y-69332778D01*
X90173956Y-69293341D01*
X90084815Y-69220186D01*
X90001553Y-69118729D01*
X89972223Y-69082991D01*
X89888558Y-68926466D01*
X89837038Y-68756627D01*
X89819642Y-68580000D01*
X89837038Y-68403373D01*
X89888558Y-68233534D01*
X89972223Y-68077009D01*
X90001553Y-68041271D01*
X90084815Y-67939814D01*
X90186272Y-67856552D01*
X90222010Y-67827222D01*
X90378535Y-67743557D01*
X90548374Y-67692037D01*
X90614558Y-67685519D01*
X90680741Y-67679000D01*
X90769261Y-67679000D01*
X90835444Y-67685519D01*
X90835444Y-67685519D01*
G37*
G36*
X93375444Y-67685519D02*
G01*
X93441628Y-67692037D01*
X93611467Y-67743557D01*
X93767992Y-67827222D01*
X93803730Y-67856552D01*
X93905187Y-67939814D01*
X93988449Y-68041271D01*
X94017779Y-68077009D01*
X94101444Y-68233534D01*
X94152964Y-68403373D01*
X94170360Y-68580000D01*
X94152964Y-68756627D01*
X94101444Y-68926466D01*
X94017779Y-69082991D01*
X93988449Y-69118729D01*
X93905187Y-69220186D01*
X93816046Y-69293341D01*
X93767992Y-69332778D01*
X93611467Y-69416443D01*
X93441628Y-69467963D01*
X93375443Y-69474482D01*
X93309261Y-69481000D01*
X93220741Y-69481000D01*
X93154559Y-69474482D01*
X93088374Y-69467963D01*
X92918535Y-69416443D01*
X92762010Y-69332778D01*
X92713956Y-69293341D01*
X92624815Y-69220186D01*
X92541553Y-69118729D01*
X92512223Y-69082991D01*
X92428558Y-68926466D01*
X92377038Y-68756627D01*
X92359642Y-68580000D01*
X92377038Y-68403373D01*
X92428558Y-68233534D01*
X92512223Y-68077009D01*
X92541553Y-68041271D01*
X92624815Y-67939814D01*
X92726272Y-67856552D01*
X92762010Y-67827222D01*
X92918535Y-67743557D01*
X93088374Y-67692037D01*
X93154558Y-67685519D01*
X93220741Y-67679000D01*
X93309261Y-67679000D01*
X93375444Y-67685519D01*
X93375444Y-67685519D01*
G37*
G36*
X95915444Y-67685519D02*
G01*
X95981628Y-67692037D01*
X96151467Y-67743557D01*
X96307992Y-67827222D01*
X96343730Y-67856552D01*
X96445187Y-67939814D01*
X96528449Y-68041271D01*
X96557779Y-68077009D01*
X96641444Y-68233534D01*
X96692964Y-68403373D01*
X96710360Y-68580000D01*
X96692964Y-68756627D01*
X96641444Y-68926466D01*
X96557779Y-69082991D01*
X96528449Y-69118729D01*
X96445187Y-69220186D01*
X96356046Y-69293341D01*
X96307992Y-69332778D01*
X96151467Y-69416443D01*
X95981628Y-69467963D01*
X95915443Y-69474482D01*
X95849261Y-69481000D01*
X95760741Y-69481000D01*
X95694559Y-69474482D01*
X95628374Y-69467963D01*
X95458535Y-69416443D01*
X95302010Y-69332778D01*
X95253956Y-69293341D01*
X95164815Y-69220186D01*
X95081553Y-69118729D01*
X95052223Y-69082991D01*
X94968558Y-68926466D01*
X94917038Y-68756627D01*
X94899642Y-68580000D01*
X94917038Y-68403373D01*
X94968558Y-68233534D01*
X95052223Y-68077009D01*
X95081553Y-68041271D01*
X95164815Y-67939814D01*
X95266272Y-67856552D01*
X95302010Y-67827222D01*
X95458535Y-67743557D01*
X95628374Y-67692037D01*
X95694558Y-67685519D01*
X95760741Y-67679000D01*
X95849261Y-67679000D01*
X95915444Y-67685519D01*
X95915444Y-67685519D01*
G37*
G36*
X83215444Y-67685519D02*
G01*
X83281628Y-67692037D01*
X83451467Y-67743557D01*
X83607992Y-67827222D01*
X83643730Y-67856552D01*
X83745187Y-67939814D01*
X83828449Y-68041271D01*
X83857779Y-68077009D01*
X83941444Y-68233534D01*
X83992964Y-68403373D01*
X84010360Y-68580000D01*
X83992964Y-68756627D01*
X83941444Y-68926466D01*
X83857779Y-69082991D01*
X83828449Y-69118729D01*
X83745187Y-69220186D01*
X83656046Y-69293341D01*
X83607992Y-69332778D01*
X83451467Y-69416443D01*
X83281628Y-69467963D01*
X83215443Y-69474482D01*
X83149261Y-69481000D01*
X83060741Y-69481000D01*
X82994559Y-69474482D01*
X82928374Y-69467963D01*
X82758535Y-69416443D01*
X82602010Y-69332778D01*
X82553956Y-69293341D01*
X82464815Y-69220186D01*
X82381553Y-69118729D01*
X82352223Y-69082991D01*
X82268558Y-68926466D01*
X82217038Y-68756627D01*
X82199642Y-68580000D01*
X82217038Y-68403373D01*
X82268558Y-68233534D01*
X82352223Y-68077009D01*
X82381553Y-68041271D01*
X82464815Y-67939814D01*
X82566272Y-67856552D01*
X82602010Y-67827222D01*
X82758535Y-67743557D01*
X82928374Y-67692037D01*
X82994558Y-67685519D01*
X83060741Y-67679000D01*
X83149261Y-67679000D01*
X83215444Y-67685519D01*
X83215444Y-67685519D01*
G37*
G36*
X119820694Y-67627833D02*
G01*
X119993095Y-67680131D01*
X120151983Y-67765058D01*
X120291249Y-67879351D01*
X120405542Y-68018617D01*
X120490469Y-68177505D01*
X120542767Y-68349906D01*
X120560425Y-68529200D01*
X120542767Y-68708494D01*
X120490469Y-68880895D01*
X120405542Y-69039783D01*
X120291249Y-69179049D01*
X120151983Y-69293342D01*
X119993095Y-69378269D01*
X119820694Y-69430567D01*
X119686331Y-69443800D01*
X119073669Y-69443800D01*
X118939306Y-69430567D01*
X118766905Y-69378269D01*
X118608017Y-69293342D01*
X118468751Y-69179049D01*
X118354458Y-69039783D01*
X118269531Y-68880895D01*
X118217233Y-68708494D01*
X118199575Y-68529200D01*
X118217233Y-68349906D01*
X118269531Y-68177505D01*
X118354458Y-68018617D01*
X118468751Y-67879351D01*
X118608017Y-67765058D01*
X118766905Y-67680131D01*
X118939306Y-67627833D01*
X119073669Y-67614600D01*
X119686331Y-67614600D01*
X119820694Y-67627833D01*
X119820694Y-67627833D01*
G37*
G36*
X104580694Y-67627833D02*
G01*
X104753095Y-67680131D01*
X104911983Y-67765058D01*
X105051249Y-67879351D01*
X105165542Y-68018617D01*
X105250469Y-68177505D01*
X105302767Y-68349906D01*
X105320425Y-68529200D01*
X105302767Y-68708494D01*
X105250469Y-68880895D01*
X105165542Y-69039783D01*
X105051249Y-69179049D01*
X104911983Y-69293342D01*
X104753095Y-69378269D01*
X104580694Y-69430567D01*
X104446331Y-69443800D01*
X103833669Y-69443800D01*
X103699306Y-69430567D01*
X103526905Y-69378269D01*
X103368017Y-69293342D01*
X103228751Y-69179049D01*
X103114458Y-69039783D01*
X103029531Y-68880895D01*
X102977233Y-68708494D01*
X102959575Y-68529200D01*
X102977233Y-68349906D01*
X103029531Y-68177505D01*
X103114458Y-68018617D01*
X103228751Y-67879351D01*
X103368017Y-67765058D01*
X103526905Y-67680131D01*
X103699306Y-67627833D01*
X103833669Y-67614600D01*
X104446331Y-67614600D01*
X104580694Y-67627833D01*
X104580694Y-67627833D01*
G37*
G36*
X110679294Y-66357833D02*
G01*
X110851695Y-66410131D01*
X111010583Y-66495058D01*
X111149849Y-66609351D01*
X111264142Y-66748617D01*
X111349069Y-66907505D01*
X111401367Y-67079906D01*
X111419025Y-67259200D01*
X111401367Y-67438494D01*
X111349069Y-67610895D01*
X111264142Y-67769783D01*
X111149849Y-67909049D01*
X111010583Y-68023342D01*
X110851695Y-68108269D01*
X110679294Y-68160567D01*
X110544931Y-68173800D01*
X110455069Y-68173800D01*
X110320706Y-68160567D01*
X110148305Y-68108269D01*
X109989417Y-68023342D01*
X109850151Y-67909049D01*
X109735858Y-67769783D01*
X109650931Y-67610895D01*
X109598633Y-67438494D01*
X109580975Y-67259200D01*
X109598633Y-67079906D01*
X109650931Y-66907505D01*
X109735858Y-66748617D01*
X109850151Y-66609351D01*
X109989417Y-66495058D01*
X110148305Y-66410131D01*
X110320706Y-66357833D01*
X110455069Y-66344600D01*
X110544931Y-66344600D01*
X110679294Y-66357833D01*
X110679294Y-66357833D01*
G37*
G36*
X113219294Y-66357833D02*
G01*
X113391695Y-66410131D01*
X113550583Y-66495058D01*
X113689849Y-66609351D01*
X113804142Y-66748617D01*
X113889069Y-66907505D01*
X113941367Y-67079906D01*
X113959025Y-67259200D01*
X113941367Y-67438494D01*
X113889069Y-67610895D01*
X113804142Y-67769783D01*
X113689849Y-67909049D01*
X113550583Y-68023342D01*
X113391695Y-68108269D01*
X113219294Y-68160567D01*
X113084931Y-68173800D01*
X112995069Y-68173800D01*
X112860706Y-68160567D01*
X112688305Y-68108269D01*
X112529417Y-68023342D01*
X112390151Y-67909049D01*
X112275858Y-67769783D01*
X112190931Y-67610895D01*
X112138633Y-67438494D01*
X112120975Y-67259200D01*
X112138633Y-67079906D01*
X112190931Y-66907505D01*
X112275858Y-66748617D01*
X112390151Y-66609351D01*
X112529417Y-66495058D01*
X112688305Y-66410131D01*
X112860706Y-66357833D01*
X112995069Y-66344600D01*
X113084931Y-66344600D01*
X113219294Y-66357833D01*
X113219294Y-66357833D01*
G37*
G36*
X136056823Y-66471313D02*
G01*
X136217242Y-66519976D01*
X136349906Y-66590886D01*
X136365078Y-66598996D01*
X136494659Y-66705341D01*
X136601004Y-66834922D01*
X136601005Y-66834924D01*
X136680024Y-66982758D01*
X136728687Y-67143177D01*
X136745117Y-67310000D01*
X136728687Y-67476823D01*
X136680024Y-67637242D01*
X136650735Y-67692037D01*
X136601004Y-67785078D01*
X136494659Y-67914659D01*
X136365078Y-68021004D01*
X136365076Y-68021005D01*
X136217242Y-68100024D01*
X136056823Y-68148687D01*
X135931804Y-68161000D01*
X135848196Y-68161000D01*
X135723177Y-68148687D01*
X135562758Y-68100024D01*
X135414924Y-68021005D01*
X135414922Y-68021004D01*
X135285341Y-67914659D01*
X135178996Y-67785078D01*
X135129265Y-67692037D01*
X135099976Y-67637242D01*
X135051313Y-67476823D01*
X135034883Y-67310000D01*
X135051313Y-67143177D01*
X135099976Y-66982758D01*
X135178995Y-66834924D01*
X135178996Y-66834922D01*
X135285341Y-66705341D01*
X135414922Y-66598996D01*
X135430094Y-66590886D01*
X135562758Y-66519976D01*
X135723177Y-66471313D01*
X135848196Y-66459000D01*
X135931804Y-66459000D01*
X136056823Y-66471313D01*
X136056823Y-66471313D01*
G37*
G36*
X128436823Y-66471313D02*
G01*
X128597242Y-66519976D01*
X128729906Y-66590886D01*
X128745078Y-66598996D01*
X128874659Y-66705341D01*
X128981004Y-66834922D01*
X128981005Y-66834924D01*
X129060024Y-66982758D01*
X129108687Y-67143177D01*
X129125117Y-67310000D01*
X129108687Y-67476823D01*
X129060024Y-67637242D01*
X129030735Y-67692037D01*
X128981004Y-67785078D01*
X128874659Y-67914659D01*
X128745078Y-68021004D01*
X128745076Y-68021005D01*
X128597242Y-68100024D01*
X128436823Y-68148687D01*
X128311804Y-68161000D01*
X128228196Y-68161000D01*
X128103177Y-68148687D01*
X127942758Y-68100024D01*
X127794924Y-68021005D01*
X127794922Y-68021004D01*
X127665341Y-67914659D01*
X127558996Y-67785078D01*
X127509265Y-67692037D01*
X127479976Y-67637242D01*
X127431313Y-67476823D01*
X127414883Y-67310000D01*
X127431313Y-67143177D01*
X127479976Y-66982758D01*
X127558995Y-66834924D01*
X127558996Y-66834922D01*
X127665341Y-66705341D01*
X127794922Y-66598996D01*
X127810094Y-66590886D01*
X127942758Y-66519976D01*
X128103177Y-66471313D01*
X128228196Y-66459000D01*
X128311804Y-66459000D01*
X128436823Y-66471313D01*
X128436823Y-66471313D01*
G37*
G36*
X104580694Y-65087833D02*
G01*
X104753095Y-65140131D01*
X104911983Y-65225058D01*
X105051249Y-65339351D01*
X105165542Y-65478617D01*
X105250469Y-65637505D01*
X105302767Y-65809906D01*
X105320425Y-65989200D01*
X105302767Y-66168494D01*
X105250469Y-66340895D01*
X105165542Y-66499783D01*
X105051249Y-66639049D01*
X104911983Y-66753342D01*
X104753095Y-66838269D01*
X104580694Y-66890567D01*
X104446331Y-66903800D01*
X103833669Y-66903800D01*
X103699306Y-66890567D01*
X103526905Y-66838269D01*
X103368017Y-66753342D01*
X103228751Y-66639049D01*
X103114458Y-66499783D01*
X103029531Y-66340895D01*
X102977233Y-66168494D01*
X102959575Y-65989200D01*
X102977233Y-65809906D01*
X103029531Y-65637505D01*
X103114458Y-65478617D01*
X103228751Y-65339351D01*
X103368017Y-65225058D01*
X103526905Y-65140131D01*
X103699306Y-65087833D01*
X103833669Y-65074600D01*
X104446331Y-65074600D01*
X104580694Y-65087833D01*
X104580694Y-65087833D01*
G37*
G36*
X119820694Y-65087833D02*
G01*
X119993095Y-65140131D01*
X120151983Y-65225058D01*
X120291249Y-65339351D01*
X120405542Y-65478617D01*
X120490469Y-65637505D01*
X120542767Y-65809906D01*
X120560425Y-65989200D01*
X120542767Y-66168494D01*
X120490469Y-66340895D01*
X120405542Y-66499783D01*
X120291249Y-66639049D01*
X120151983Y-66753342D01*
X119993095Y-66838269D01*
X119820694Y-66890567D01*
X119686331Y-66903800D01*
X119073669Y-66903800D01*
X118939306Y-66890567D01*
X118766905Y-66838269D01*
X118608017Y-66753342D01*
X118468751Y-66639049D01*
X118354458Y-66499783D01*
X118269531Y-66340895D01*
X118217233Y-66168494D01*
X118199575Y-65989200D01*
X118217233Y-65809906D01*
X118269531Y-65637505D01*
X118354458Y-65478617D01*
X118468751Y-65339351D01*
X118608017Y-65225058D01*
X118766905Y-65140131D01*
X118939306Y-65087833D01*
X119073669Y-65074600D01*
X119686331Y-65074600D01*
X119820694Y-65087833D01*
X119820694Y-65087833D01*
G37*
G36*
X128436823Y-63931313D02*
G01*
X128597242Y-63979976D01*
X128633658Y-63999441D01*
X128745078Y-64058996D01*
X128874659Y-64165341D01*
X128981004Y-64294922D01*
X128981005Y-64294924D01*
X129060024Y-64442758D01*
X129108687Y-64603177D01*
X129125117Y-64770000D01*
X129108687Y-64936823D01*
X129060024Y-65097242D01*
X128991705Y-65225058D01*
X128981004Y-65245078D01*
X128874659Y-65374659D01*
X128745078Y-65481004D01*
X128745076Y-65481005D01*
X128597242Y-65560024D01*
X128436823Y-65608687D01*
X128311804Y-65621000D01*
X128228196Y-65621000D01*
X128103177Y-65608687D01*
X127942758Y-65560024D01*
X127794924Y-65481005D01*
X127794922Y-65481004D01*
X127665341Y-65374659D01*
X127558996Y-65245078D01*
X127548295Y-65225058D01*
X127479976Y-65097242D01*
X127431313Y-64936823D01*
X127414883Y-64770000D01*
X127431313Y-64603177D01*
X127479976Y-64442758D01*
X127558995Y-64294924D01*
X127558996Y-64294922D01*
X127665341Y-64165341D01*
X127794922Y-64058996D01*
X127906342Y-63999441D01*
X127942758Y-63979976D01*
X128103177Y-63931313D01*
X128228196Y-63919000D01*
X128311804Y-63919000D01*
X128436823Y-63931313D01*
X128436823Y-63931313D01*
G37*
G36*
X136056823Y-63931313D02*
G01*
X136217242Y-63979976D01*
X136253658Y-63999441D01*
X136365078Y-64058996D01*
X136494659Y-64165341D01*
X136601004Y-64294922D01*
X136601005Y-64294924D01*
X136680024Y-64442758D01*
X136728687Y-64603177D01*
X136745117Y-64770000D01*
X136728687Y-64936823D01*
X136680024Y-65097242D01*
X136611705Y-65225058D01*
X136601004Y-65245078D01*
X136494659Y-65374659D01*
X136365078Y-65481004D01*
X136365076Y-65481005D01*
X136217242Y-65560024D01*
X136056823Y-65608687D01*
X135931804Y-65621000D01*
X135848196Y-65621000D01*
X135723177Y-65608687D01*
X135562758Y-65560024D01*
X135414924Y-65481005D01*
X135414922Y-65481004D01*
X135285341Y-65374659D01*
X135178996Y-65245078D01*
X135168295Y-65225058D01*
X135099976Y-65097242D01*
X135051313Y-64936823D01*
X135034883Y-64770000D01*
X135051313Y-64603177D01*
X135099976Y-64442758D01*
X135178995Y-64294924D01*
X135178996Y-64294922D01*
X135285341Y-64165341D01*
X135414922Y-64058996D01*
X135526342Y-63999441D01*
X135562758Y-63979976D01*
X135723177Y-63931313D01*
X135848196Y-63919000D01*
X135931804Y-63919000D01*
X136056823Y-63931313D01*
X136056823Y-63931313D01*
G37*
G36*
X165923085Y-60607975D02*
G01*
X166278143Y-60755045D01*
X166278145Y-60755046D01*
X166597690Y-60968559D01*
X166869441Y-61240310D01*
X167002853Y-61439976D01*
X167082955Y-61559857D01*
X167230025Y-61914915D01*
X167305000Y-62291842D01*
X167305000Y-62676158D01*
X167230025Y-63053085D01*
X167161256Y-63219107D01*
X167082954Y-63408145D01*
X166869441Y-63727690D01*
X166597690Y-63999441D01*
X166278145Y-64212954D01*
X166278144Y-64212955D01*
X166278143Y-64212955D01*
X165923085Y-64360025D01*
X165546158Y-64435000D01*
X165161842Y-64435000D01*
X164784915Y-64360025D01*
X164429857Y-64212955D01*
X164429856Y-64212955D01*
X164429855Y-64212954D01*
X164110310Y-63999441D01*
X163838559Y-63727690D01*
X163625046Y-63408145D01*
X163546744Y-63219107D01*
X163477975Y-63053085D01*
X163403000Y-62676158D01*
X163403000Y-62291842D01*
X163477975Y-61914915D01*
X163625045Y-61559857D01*
X163705147Y-61439976D01*
X163838559Y-61240310D01*
X164110310Y-60968559D01*
X164429855Y-60755046D01*
X164429857Y-60755045D01*
X164784915Y-60607975D01*
X165161842Y-60533000D01*
X165546158Y-60533000D01*
X165923085Y-60607975D01*
X165923085Y-60607975D01*
G37*
G36*
X74483085Y-60607975D02*
G01*
X74838143Y-60755045D01*
X74838145Y-60755046D01*
X75157690Y-60968559D01*
X75429441Y-61240310D01*
X75562853Y-61439976D01*
X75642955Y-61559857D01*
X75790025Y-61914915D01*
X75865000Y-62291842D01*
X75865000Y-62676158D01*
X75790025Y-63053085D01*
X75721256Y-63219107D01*
X75642954Y-63408145D01*
X75429441Y-63727690D01*
X75157690Y-63999441D01*
X74838145Y-64212954D01*
X74838144Y-64212955D01*
X74838143Y-64212955D01*
X74483085Y-64360025D01*
X74106158Y-64435000D01*
X73721842Y-64435000D01*
X73344915Y-64360025D01*
X72989857Y-64212955D01*
X72989856Y-64212955D01*
X72989855Y-64212954D01*
X72670310Y-63999441D01*
X72398559Y-63727690D01*
X72185046Y-63408145D01*
X72106744Y-63219107D01*
X72037975Y-63053085D01*
X71963000Y-62676158D01*
X71963000Y-62291842D01*
X72037975Y-61914915D01*
X72185045Y-61559857D01*
X72265147Y-61439976D01*
X72398559Y-61240310D01*
X72670310Y-60968559D01*
X72989855Y-60755046D01*
X72989857Y-60755045D01*
X73344915Y-60607975D01*
X73721842Y-60533000D01*
X74106158Y-60533000D01*
X74483085Y-60607975D01*
X74483085Y-60607975D01*
G37*
G36*
X105316000Y-64363800D02*
G01*
X102964000Y-64363800D01*
X102964000Y-62534600D01*
X105316000Y-62534600D01*
X105316000Y-64363800D01*
X105316000Y-64363800D01*
G37*
G36*
X119820694Y-62497033D02*
G01*
X119993095Y-62549331D01*
X120151983Y-62634258D01*
X120291249Y-62748551D01*
X120405542Y-62887817D01*
X120490469Y-63046705D01*
X120542767Y-63219106D01*
X120560425Y-63398400D01*
X120542767Y-63577694D01*
X120490469Y-63750095D01*
X120405542Y-63908983D01*
X120291249Y-64048249D01*
X120151983Y-64162542D01*
X119993095Y-64247469D01*
X119820694Y-64299767D01*
X119686331Y-64313000D01*
X119073669Y-64313000D01*
X118939306Y-64299767D01*
X118766905Y-64247469D01*
X118608017Y-64162542D01*
X118468751Y-64048249D01*
X118354458Y-63908983D01*
X118269531Y-63750095D01*
X118217233Y-63577694D01*
X118199575Y-63398400D01*
X118217233Y-63219106D01*
X118269531Y-63046705D01*
X118354458Y-62887817D01*
X118468751Y-62748551D01*
X118608017Y-62634258D01*
X118766905Y-62549331D01*
X118939306Y-62497033D01*
X119073669Y-62483800D01*
X119686331Y-62483800D01*
X119820694Y-62497033D01*
X119820694Y-62497033D01*
G37*
G36*
X136056823Y-61391313D02*
G01*
X136217242Y-61439976D01*
X136349906Y-61510886D01*
X136365078Y-61518996D01*
X136494659Y-61625341D01*
X136601004Y-61754922D01*
X136601005Y-61754924D01*
X136680024Y-61902758D01*
X136728687Y-62063177D01*
X136745117Y-62230000D01*
X136728687Y-62396823D01*
X136698288Y-62497033D01*
X136682424Y-62549332D01*
X136680024Y-62557242D01*
X136616462Y-62676158D01*
X136601004Y-62705078D01*
X136494659Y-62834659D01*
X136365078Y-62941004D01*
X136365076Y-62941005D01*
X136217242Y-63020024D01*
X136056823Y-63068687D01*
X135931804Y-63081000D01*
X135848196Y-63081000D01*
X135723177Y-63068687D01*
X135562758Y-63020024D01*
X135414924Y-62941005D01*
X135414922Y-62941004D01*
X135285341Y-62834659D01*
X135178996Y-62705078D01*
X135163538Y-62676158D01*
X135099976Y-62557242D01*
X135097577Y-62549332D01*
X135081712Y-62497033D01*
X135051313Y-62396823D01*
X135034883Y-62230000D01*
X135051313Y-62063177D01*
X135099976Y-61902758D01*
X135178995Y-61754924D01*
X135178996Y-61754922D01*
X135285341Y-61625341D01*
X135414922Y-61518996D01*
X135430094Y-61510886D01*
X135562758Y-61439976D01*
X135723177Y-61391313D01*
X135848196Y-61379000D01*
X135931804Y-61379000D01*
X136056823Y-61391313D01*
X136056823Y-61391313D01*
G37*
G36*
X129121000Y-63081000D02*
G01*
X127419000Y-63081000D01*
X127419000Y-61379000D01*
X129121000Y-61379000D01*
X129121000Y-63081000D01*
X129121000Y-63081000D01*
G37*
M02*
