M48
; DRILL file {KiCad 5.1.4-e60b266~84~ubuntu18.04.1} date Di 03 Sep 2019 19:43:06 CEST
; FORMAT={-:-/ absolute / metric / decimal}
; #@! TF.CreationDate,2019-09-03T19:43:06+02:00
; #@! TF.GenerationSoftware,Kicad,Pcbnew,5.1.4-e60b266~84~ubuntu18.04.1
FMAT,2
METRIC
T1C0.400
T2C0.800
T3C1.000
T4C1.016
T5C1.020
T6C2.200
%
G90
G05
T1
X75.184Y-108.204
X77.978Y-108.204
X80.264Y-107.95
X83.058Y-107.95
X89.662Y-73.152
X90.424Y-107.696
X90.932Y-108.966
X92.202Y-74.676
X96.708Y-83.769
X96.774Y-73.152
X96.774Y-74.422
X97.897Y-86.111
X101.6Y-105.904
X102.977Y-67.376
X105.991Y-95.431
X106.172Y-113.284
X106.426Y-75.438
X107.137Y-93.452
X107.442Y-113.792
X107.95Y-73.914
X107.95Y-75.438
X108.646Y-93.157
X109.474Y-75.692
X110.663Y-69.002
X116.332Y-101.6
X125.984Y-89.154
X131.064Y-84.074
X131.064Y-105.664
X131.959Y-103.918
X132.005Y-97.865
X133.35Y-74.93
X133.604Y-106.68
X135.382Y-83.058
X137.414Y-84.074
T2
X113.904Y-85.908
X113.904Y-96.068
X128.27Y-62.23
X128.27Y-64.77
X128.27Y-67.31
X128.27Y-69.85
X128.27Y-72.39
X128.27Y-74.93
X128.27Y-77.47
X128.27Y-80.01
X135.89Y-62.23
X135.89Y-64.77
X135.89Y-67.31
X135.89Y-69.85
X135.89Y-72.39
X135.89Y-74.93
X135.89Y-77.47
X135.89Y-80.01
X110.637Y-90.353
X110.637Y-100.513
X128.27Y-88.9
X128.27Y-91.44
X128.27Y-93.98
X128.27Y-96.52
X128.27Y-99.06
X128.27Y-101.6
X128.27Y-104.14
X128.27Y-106.68
X135.89Y-88.9
X135.89Y-91.44
X135.89Y-93.98
X135.89Y-96.52
X135.89Y-99.06
X135.89Y-101.6
X135.89Y-104.14
X135.89Y-106.68
X107.01Y-77.81
X107.01Y-87.97
X113.629Y-99.136
X113.629Y-109.296
X110.526Y-77.765
X110.526Y-87.925
X110.637Y-102.845
X110.637Y-113.005
T3
X72.945Y-102.87
X72.945Y-105.41
X75.485Y-102.87
X75.485Y-105.41
X78.025Y-102.87
X78.025Y-105.41
X80.565Y-102.87
X80.565Y-105.41
X83.105Y-102.87
X83.105Y-105.41
X85.645Y-102.87
X85.645Y-105.41
X88.185Y-102.87
X88.185Y-105.41
X90.725Y-102.87
X90.725Y-105.41
X93.265Y-102.87
X93.265Y-105.41
X95.805Y-102.87
X95.805Y-105.41
X72.945Y-68.58
X72.945Y-71.12
X75.485Y-68.58
X75.485Y-71.12
X78.025Y-68.58
X78.025Y-71.12
X80.565Y-68.58
X80.565Y-71.12
X83.105Y-68.58
X83.105Y-71.12
X85.645Y-68.58
X85.645Y-71.12
X88.185Y-68.58
X88.185Y-71.12
X90.725Y-68.58
X90.725Y-71.12
X93.265Y-68.58
X93.265Y-71.12
X95.805Y-68.58
X95.805Y-71.12
X72.945Y-85.725
X72.945Y-88.265
X75.485Y-85.725
X75.485Y-88.265
X78.025Y-85.725
X78.025Y-88.265
X80.565Y-85.725
X80.565Y-88.265
X83.105Y-85.725
X83.105Y-88.265
X85.645Y-85.725
X85.645Y-88.265
X88.185Y-85.725
X88.185Y-88.265
X90.725Y-85.725
X90.725Y-88.265
X93.265Y-85.725
X93.265Y-88.265
X95.805Y-85.725
X95.805Y-88.265
T4
X104.14Y-63.449
X104.14Y-65.989
X104.14Y-68.529
X104.14Y-71.069
X104.14Y-73.609
X104.14Y-76.149
X104.14Y-78.689
X104.14Y-81.229
X104.14Y-83.769
X104.14Y-86.309
X104.14Y-88.849
X104.14Y-91.389
X104.14Y-93.929
X104.14Y-96.469
X104.14Y-99.009
X104.14Y-101.549
X104.14Y-104.089
X104.14Y-106.629
X104.14Y-109.169
X104.14Y-111.709
X110.5Y-67.259
X113.04Y-67.259
X119.38Y-63.398
X119.38Y-65.989
X119.38Y-68.529
X119.38Y-71.069
X119.38Y-73.609
X119.38Y-76.149
X119.38Y-78.689
X119.38Y-81.229
X119.38Y-83.769
X119.38Y-86.309
X119.38Y-88.849
X119.38Y-91.389
X119.38Y-93.929
X119.38Y-96.469
X119.38Y-99.009
X119.38Y-101.549
X119.38Y-104.089
X119.38Y-106.629
X119.38Y-109.169
X119.38Y-111.709
T5
X152.4Y-68.58
X154.94Y-68.58
X157.48Y-68.58
X162.56Y-68.58
X165.1Y-68.58
X167.64Y-68.58
X142.24Y-68.58
X144.78Y-68.58
X147.32Y-68.58
X142.24Y-86.36
X144.78Y-86.36
X147.32Y-86.36
X142.24Y-104.14
X144.78Y-104.14
X147.32Y-104.14
X142.24Y-95.25
X144.78Y-95.25
X147.32Y-95.25
X162.56Y-104.14
X165.1Y-104.14
X167.64Y-104.14
X152.4Y-95.25
X154.94Y-95.25
X157.48Y-95.25
X162.56Y-86.36
X165.1Y-86.36
X167.64Y-86.36
X142.24Y-77.47
X144.78Y-77.47
X147.32Y-77.47
X152.4Y-77.47
X154.94Y-77.47
X157.48Y-77.47
X152.4Y-104.14
X154.94Y-104.14
X157.48Y-104.14
X152.4Y-86.36
X154.94Y-86.36
X157.48Y-86.36
X162.56Y-77.47
X165.1Y-77.47
X167.64Y-77.47
X162.56Y-95.25
X165.1Y-95.25
X167.64Y-95.25
T6
X165.354Y-112.014
X165.354Y-62.484
X73.914Y-112.014
X73.914Y-62.484
T0
M30
