G04 #@! TF.GenerationSoftware,KiCad,Pcbnew,5.1.4-e60b266~84~ubuntu18.04.1*
G04 #@! TF.CreationDate,2019-09-03T19:43:04+02:00*
G04 #@! TF.ProjectId,xfaders,78666164-6572-4732-9e6b-696361645f70,rev?*
G04 #@! TF.SameCoordinates,Original*
G04 #@! TF.FileFunction,Copper,L1,Top*
G04 #@! TF.FilePolarity,Positive*
%FSLAX46Y46*%
G04 Gerber Fmt 4.6, Leading zero omitted, Abs format (unit mm)*
G04 Created by KiCad (PCBNEW 5.1.4-e60b266~84~ubuntu18.04.1) date 2019-09-03 19:43:04*
%MOMM*%
%LPD*%
G04 APERTURE LIST*
%ADD10C,3.800000*%
%ADD11O,1.600000X1.600000*%
%ADD12C,1.600000*%
%ADD13R,1.730000X2.030000*%
%ADD14O,1.730000X2.030000*%
%ADD15R,2.250000X1.727200*%
%ADD16O,2.250000X1.727200*%
%ADD17O,1.727200X1.727200*%
%ADD18R,1.600000X1.600000*%
%ADD19R,1.700000X1.700000*%
%ADD20O,1.700000X1.700000*%
%ADD21C,0.800000*%
%ADD22C,0.250000*%
%ADD23C,0.254000*%
G04 APERTURE END LIST*
D10*
X73914000Y-62484000D03*
X73914000Y-112014000D03*
X165354000Y-112014000D03*
X165354000Y-62484000D03*
D11*
X110637320Y-113004600D03*
D12*
X110637320Y-102844600D03*
D11*
X110525560Y-87924640D03*
D12*
X110525560Y-77764640D03*
D11*
X113629440Y-99136200D03*
D12*
X113629440Y-109296200D03*
D11*
X107010200Y-87970360D03*
D12*
X107010200Y-77810360D03*
D11*
X110637320Y-90352880D03*
D12*
X110637320Y-100512880D03*
D11*
X113903760Y-85907880D03*
D12*
X113903760Y-96067880D03*
D13*
X142240000Y-68580000D03*
D14*
X144780000Y-68580000D03*
X147320000Y-68580000D03*
X157480000Y-68580000D03*
X154940000Y-68580000D03*
D13*
X152400000Y-68580000D03*
X162560000Y-68580000D03*
D14*
X165100000Y-68580000D03*
X167640000Y-68580000D03*
X147320000Y-77470000D03*
X144780000Y-77470000D03*
D13*
X142240000Y-77470000D03*
X152400000Y-77470000D03*
D14*
X154940000Y-77470000D03*
X157480000Y-77470000D03*
X167640000Y-77470000D03*
X165100000Y-77470000D03*
D13*
X162560000Y-77470000D03*
X142240000Y-86360000D03*
D14*
X144780000Y-86360000D03*
X147320000Y-86360000D03*
D13*
X152400000Y-86360000D03*
D14*
X154940000Y-86360000D03*
X157480000Y-86360000D03*
X167640000Y-86360000D03*
X165100000Y-86360000D03*
D13*
X162560000Y-86360000D03*
X142240000Y-95250000D03*
D14*
X144780000Y-95250000D03*
X147320000Y-95250000D03*
X157480000Y-95250000D03*
X154940000Y-95250000D03*
D13*
X152400000Y-95250000D03*
X162560000Y-95250000D03*
D14*
X165100000Y-95250000D03*
X167640000Y-95250000D03*
X147320000Y-104140000D03*
X144780000Y-104140000D03*
D13*
X142240000Y-104140000D03*
X152400000Y-104140000D03*
D14*
X154940000Y-104140000D03*
X157480000Y-104140000D03*
X167640000Y-104140000D03*
X165100000Y-104140000D03*
D13*
X162560000Y-104140000D03*
D15*
X104140000Y-63449200D03*
D16*
X104140000Y-65989200D03*
X104140000Y-68529200D03*
X104140000Y-71069200D03*
X104140000Y-73609200D03*
X104140000Y-76149200D03*
X104140000Y-78689200D03*
X104140000Y-81229200D03*
X104140000Y-83769200D03*
X104140000Y-86309200D03*
X104140000Y-88849200D03*
X104140000Y-91389200D03*
X104140000Y-93929200D03*
X104140000Y-96469200D03*
X104140000Y-99009200D03*
X104140000Y-101549200D03*
X104140000Y-104089200D03*
X104140000Y-106629200D03*
X104140000Y-109169200D03*
X104140000Y-111709200D03*
X119380000Y-111709200D03*
X119380000Y-109169200D03*
X119380000Y-106629200D03*
X119380000Y-104089200D03*
X119380000Y-101549200D03*
X119380000Y-99009200D03*
X119380000Y-96469200D03*
X119380000Y-93929200D03*
X119380000Y-91389200D03*
X119380000Y-88849200D03*
X119380000Y-86309200D03*
X119380000Y-83769200D03*
X119380000Y-81229200D03*
X119380000Y-78689200D03*
X119380000Y-76149200D03*
X119380000Y-73609200D03*
X119380000Y-71069200D03*
X119380000Y-68529200D03*
X119380000Y-65989200D03*
X119380000Y-63398400D03*
D17*
X113040000Y-67259200D03*
X110500000Y-67259200D03*
D18*
X128270000Y-88900000D03*
D11*
X135890000Y-106680000D03*
X128270000Y-91440000D03*
X135890000Y-104140000D03*
X128270000Y-93980000D03*
X135890000Y-101600000D03*
X128270000Y-96520000D03*
X135890000Y-99060000D03*
X128270000Y-99060000D03*
X135890000Y-96520000D03*
X128270000Y-101600000D03*
X135890000Y-93980000D03*
X128270000Y-104140000D03*
X135890000Y-91440000D03*
X128270000Y-106680000D03*
X135890000Y-88900000D03*
X135890000Y-62230000D03*
X128270000Y-80010000D03*
X135890000Y-64770000D03*
X128270000Y-77470000D03*
X135890000Y-67310000D03*
X128270000Y-74930000D03*
X135890000Y-69850000D03*
X128270000Y-72390000D03*
X135890000Y-72390000D03*
X128270000Y-69850000D03*
X135890000Y-74930000D03*
X128270000Y-67310000D03*
X135890000Y-77470000D03*
X128270000Y-64770000D03*
X135890000Y-80010000D03*
D18*
X128270000Y-62230000D03*
D19*
X72945001Y-105410000D03*
D20*
X72945001Y-102870000D03*
X75485001Y-105410000D03*
X75485001Y-102870000D03*
X78025001Y-105410000D03*
X78025001Y-102870000D03*
X80565001Y-105410000D03*
X80565001Y-102870000D03*
X83105001Y-105410000D03*
X83105001Y-102870000D03*
X85645001Y-105410000D03*
X85645001Y-102870000D03*
X88185001Y-105410000D03*
X88185001Y-102870000D03*
X90725001Y-105410000D03*
X90725001Y-102870000D03*
X93265001Y-105410000D03*
X93265001Y-102870000D03*
X95805001Y-105410000D03*
X95805001Y-102870000D03*
X95805001Y-85725000D03*
X95805001Y-88265000D03*
X93265001Y-85725000D03*
X93265001Y-88265000D03*
X90725001Y-85725000D03*
X90725001Y-88265000D03*
X88185001Y-85725000D03*
X88185001Y-88265000D03*
X85645001Y-85725000D03*
X85645001Y-88265000D03*
X83105001Y-85725000D03*
X83105001Y-88265000D03*
X80565001Y-85725000D03*
X80565001Y-88265000D03*
X78025001Y-85725000D03*
X78025001Y-88265000D03*
X75485001Y-85725000D03*
X75485001Y-88265000D03*
X72945001Y-85725000D03*
D19*
X72945001Y-88265000D03*
X72945001Y-71120000D03*
D20*
X72945001Y-68580000D03*
X75485001Y-71120000D03*
X75485001Y-68580000D03*
X78025001Y-71120000D03*
X78025001Y-68580000D03*
X80565001Y-71120000D03*
X80565001Y-68580000D03*
X83105001Y-71120000D03*
X83105001Y-68580000D03*
X85645001Y-71120000D03*
X85645001Y-68580000D03*
X88185001Y-71120000D03*
X88185001Y-68580000D03*
X90725001Y-71120000D03*
X90725001Y-68580000D03*
X93265001Y-71120000D03*
X93265001Y-68580000D03*
X95805001Y-71120000D03*
X95805001Y-68580000D03*
D21*
X133350000Y-74930000D03*
X132004846Y-97865154D03*
X131959497Y-103917505D03*
X135382000Y-83058000D03*
X110662720Y-69001640D03*
X125984000Y-89154000D03*
X131064000Y-105664000D03*
X133604000Y-106680000D03*
X106426000Y-75438000D03*
X102977144Y-67376159D03*
X131064000Y-84074000D03*
X137414000Y-84074000D03*
X107442000Y-113792000D03*
X75184000Y-108204000D03*
X106172000Y-113284000D03*
X77978000Y-108204000D03*
X101600000Y-105904200D03*
X90932000Y-108966000D03*
X80264000Y-107950000D03*
X90424000Y-107696000D03*
X83058000Y-107950000D03*
X116332000Y-101600000D03*
X107950000Y-73914000D03*
X96774000Y-73152000D03*
X89662000Y-73152000D03*
X105991247Y-95430753D03*
X107137200Y-93451680D03*
X107950000Y-75438000D03*
X96774000Y-74422000D03*
X92202000Y-74676000D03*
X109474000Y-75692000D03*
X97896680Y-86111080D03*
X96707960Y-83769200D03*
X108645960Y-93157040D03*
D22*
X133350000Y-74930000D02*
X133350000Y-75946000D01*
X133350000Y-75946000D02*
X132004846Y-77291154D01*
X132004846Y-77291154D02*
X132004846Y-97865154D01*
X135890000Y-77470000D02*
X132842000Y-80518000D01*
X132842000Y-80518000D02*
X132842000Y-103035002D01*
X132842000Y-103035002D02*
X131959497Y-103917505D01*
X167640000Y-68580000D02*
X167640000Y-77470000D01*
X167640000Y-77470000D02*
X167640000Y-86360000D01*
X167640000Y-87625000D02*
X167640000Y-95250000D01*
X167640000Y-86360000D02*
X167640000Y-87625000D01*
X167640000Y-95250000D02*
X167640000Y-104140000D01*
X157480000Y-104140000D02*
X157480000Y-95250000D01*
X157480000Y-93985000D02*
X157480000Y-86360000D01*
X157480000Y-95250000D02*
X157480000Y-93985000D01*
X157480000Y-86360000D02*
X157480000Y-77470000D01*
X157480000Y-76205000D02*
X157480000Y-68580000D01*
X157480000Y-77470000D02*
X157480000Y-76205000D01*
X147320000Y-69845000D02*
X147320000Y-77470000D01*
X147320000Y-68580000D02*
X147320000Y-69845000D01*
X147320000Y-77470000D02*
X147320000Y-86360000D01*
X147320000Y-87625000D02*
X147320000Y-95250000D01*
X147320000Y-86360000D02*
X147320000Y-87625000D01*
X147320000Y-96515000D02*
X147320000Y-104140000D01*
X147320000Y-95250000D02*
X147320000Y-96515000D01*
X71845001Y-88265000D02*
X72945001Y-88265000D01*
X71770000Y-88189999D02*
X71845001Y-88265000D01*
X71770000Y-73395001D02*
X71770000Y-88189999D01*
X72945001Y-72220000D02*
X71770000Y-73395001D01*
X72945001Y-71120000D02*
X72945001Y-72220000D01*
X71770000Y-105334999D02*
X71845001Y-105410000D01*
X71770000Y-90540001D02*
X71770000Y-105334999D01*
X72945001Y-89365000D02*
X71770000Y-90540001D01*
X71845001Y-105410000D02*
X72945001Y-105410000D01*
X72945001Y-88265000D02*
X72945001Y-89365000D01*
X135090001Y-61430001D02*
X135890000Y-62230000D01*
X134764999Y-61104999D02*
X135090001Y-61430001D01*
X121934801Y-61104999D02*
X134764999Y-61104999D01*
X119641400Y-63398400D02*
X121934801Y-61104999D01*
X119380000Y-63398400D02*
X119641400Y-63398400D01*
X135890000Y-88900000D02*
X135890000Y-83566000D01*
X135890000Y-83566000D02*
X135382000Y-83058000D01*
X124592190Y-107817810D02*
X127470001Y-104939999D01*
X127470001Y-104939999D02*
X128270000Y-104140000D01*
X105515000Y-106629200D02*
X106703610Y-107817810D01*
X104140000Y-106629200D02*
X105515000Y-106629200D01*
X72945001Y-106510000D02*
X72945001Y-105410000D01*
X73064201Y-106629200D02*
X72945001Y-106510000D01*
X104140000Y-106629200D02*
X73064201Y-106629200D01*
X110479840Y-77810360D02*
X110525560Y-77764640D01*
X107010200Y-77810360D02*
X110479840Y-77810360D01*
X110525560Y-77764640D02*
X110525560Y-69138800D01*
X110525560Y-69138800D02*
X110662720Y-69001640D01*
X113507410Y-108042800D02*
X113507410Y-107817810D01*
X113629440Y-109296200D02*
X113629440Y-108164830D01*
X113629440Y-108164830D02*
X113507410Y-108042800D01*
X113507410Y-107817810D02*
X124592190Y-107817810D01*
X111470330Y-107137090D02*
X111470330Y-107817810D01*
X110637320Y-106304080D02*
X111470330Y-107137090D01*
X110637320Y-102844600D02*
X110637320Y-106304080D01*
X106703610Y-107817810D02*
X111470330Y-107817810D01*
X111470330Y-107817810D02*
X113507410Y-107817810D01*
X157480000Y-68730000D02*
X157480000Y-68580000D01*
X156289990Y-69920010D02*
X157480000Y-68730000D01*
X149775010Y-69920010D02*
X156289990Y-69920010D01*
X148435000Y-68580000D02*
X149775010Y-69920010D01*
X147320000Y-68580000D02*
X148435000Y-68580000D01*
X167640000Y-68730000D02*
X167640000Y-68580000D01*
X166449990Y-69920010D02*
X167640000Y-68730000D01*
X159935010Y-69920010D02*
X166449990Y-69920010D01*
X158595000Y-68580000D02*
X159935010Y-69920010D01*
X157480000Y-68580000D02*
X158595000Y-68580000D01*
X137021370Y-62230000D02*
X135890000Y-62230000D01*
X141120000Y-62230000D02*
X137021370Y-62230000D01*
X147320000Y-68430000D02*
X141120000Y-62230000D01*
X147320000Y-68580000D02*
X147320000Y-68430000D01*
X125984000Y-101854000D02*
X128270000Y-104140000D01*
X125984000Y-89154000D02*
X125984000Y-101854000D01*
X131064000Y-105664000D02*
X131064000Y-92964000D01*
X129794000Y-92964000D02*
X128270000Y-91440000D01*
X131064000Y-92964000D02*
X129794000Y-92964000D01*
X135890000Y-80010000D02*
X133604000Y-82296000D01*
X133604000Y-82296000D02*
X133604000Y-106680000D01*
X104597200Y-73609200D02*
X104140000Y-73609200D01*
X106426000Y-75438000D02*
X104597200Y-73609200D01*
X95805001Y-85725000D02*
X96694001Y-86614000D01*
X96694001Y-86614000D02*
X96774000Y-86614000D01*
X96774000Y-87494997D02*
X98433003Y-89154000D01*
X96774000Y-86614000D02*
X96774000Y-87494997D01*
X82343001Y-59182000D02*
X72945001Y-68580000D01*
X116586000Y-59182000D02*
X82343001Y-59182000D01*
X117348000Y-59944000D02*
X116586000Y-59182000D01*
X117348000Y-76918600D02*
X117348000Y-59944000D01*
X119380000Y-78689200D02*
X119118600Y-78689200D01*
X119118600Y-78689200D02*
X117348000Y-76918600D01*
X74635002Y-87415001D02*
X75485001Y-88265000D01*
X74310000Y-87089999D02*
X74635002Y-87415001D01*
X74310000Y-85160999D02*
X74310000Y-87089999D01*
X75485001Y-83985998D02*
X74310000Y-85160999D01*
X75485001Y-71120000D02*
X75485001Y-83985998D01*
X74635002Y-104560001D02*
X75485001Y-105410000D01*
X74310000Y-104234999D02*
X74635002Y-104560001D01*
X74310000Y-89440001D02*
X74310000Y-104234999D01*
X75485001Y-88265000D02*
X74310000Y-89440001D01*
X81171999Y-114191999D02*
X75184000Y-108204000D01*
X107442000Y-113792000D02*
X107042001Y-114191999D01*
X107042001Y-114191999D02*
X81171999Y-114191999D01*
X119118600Y-81229200D02*
X116586000Y-78696600D01*
X119380000Y-81229200D02*
X119118600Y-81229200D01*
X116586000Y-78696600D02*
X116586000Y-60452000D01*
X116586000Y-60452000D02*
X116078000Y-59944000D01*
X84121001Y-59944000D02*
X75485001Y-68580000D01*
X116078000Y-59944000D02*
X84121001Y-59944000D01*
X77175002Y-87415001D02*
X78025001Y-88265000D01*
X76850000Y-87089999D02*
X77175002Y-87415001D01*
X76850000Y-85160999D02*
X76850000Y-87089999D01*
X78025001Y-83985998D02*
X76850000Y-85160999D01*
X78025001Y-71120000D02*
X78025001Y-83985998D01*
X77175002Y-104560001D02*
X78025001Y-105410000D01*
X76850000Y-104234999D02*
X77175002Y-104560001D01*
X76850000Y-90642082D02*
X76850000Y-104234999D01*
X78025001Y-89467081D02*
X76850000Y-90642082D01*
X78025001Y-88265000D02*
X78025001Y-89467081D01*
X106172000Y-113284000D02*
X83058000Y-113284000D01*
X83058000Y-113284000D02*
X77978000Y-108204000D01*
X119380000Y-83769200D02*
X118005000Y-83769200D01*
X118005000Y-83769200D02*
X115570000Y-81334200D01*
X115570000Y-81334200D02*
X115570000Y-62484000D01*
X85645001Y-60960000D02*
X78875000Y-67730001D01*
X115570000Y-62484000D02*
X114046000Y-60960000D01*
X78875000Y-67730001D02*
X78025001Y-68580000D01*
X114046000Y-60960000D02*
X85645001Y-60960000D01*
X79715002Y-87415001D02*
X80565001Y-88265000D01*
X79390000Y-87089999D02*
X79715002Y-87415001D01*
X79390000Y-72295001D02*
X79390000Y-87089999D01*
X80565001Y-71120000D02*
X79390000Y-72295001D01*
X79390000Y-104234999D02*
X79715002Y-104560001D01*
X79390000Y-102305999D02*
X79390000Y-104234999D01*
X80565001Y-101130998D02*
X79390000Y-102305999D01*
X79715002Y-104560001D02*
X80565001Y-105410000D01*
X80565001Y-88265000D02*
X80565001Y-101130998D01*
X101600000Y-100174200D02*
X101600000Y-105904200D01*
X104140000Y-99009200D02*
X102765000Y-99009200D01*
X102765000Y-99009200D02*
X101600000Y-100174200D01*
X90932000Y-108966000D02*
X81280000Y-108966000D01*
X81280000Y-108966000D02*
X80264000Y-107950000D01*
X118005000Y-86309200D02*
X114554000Y-82858200D01*
X119380000Y-86309200D02*
X118005000Y-86309200D01*
X114554000Y-82858200D02*
X114554000Y-62992000D01*
X81415000Y-67730001D02*
X80565001Y-68580000D01*
X86884402Y-62260599D02*
X81415000Y-67730001D01*
X113822599Y-62260599D02*
X86884402Y-62260599D01*
X114554000Y-62992000D02*
X113822599Y-62260599D01*
X82255002Y-87415001D02*
X83105001Y-88265000D01*
X81930000Y-87089999D02*
X82255002Y-87415001D01*
X81930000Y-85160999D02*
X81930000Y-87089999D01*
X83105001Y-83985998D02*
X81930000Y-85160999D01*
X83105001Y-71120000D02*
X83105001Y-83985998D01*
X82255002Y-104560001D02*
X83105001Y-105410000D01*
X81930000Y-104234999D02*
X82255002Y-104560001D01*
X81930000Y-89440001D02*
X81930000Y-104234999D01*
X83105001Y-88265000D02*
X81930000Y-89440001D01*
X90424000Y-107696000D02*
X83312000Y-107696000D01*
X83312000Y-107696000D02*
X83058000Y-107950000D01*
X119118600Y-88849200D02*
X111760000Y-81490600D01*
X119380000Y-88849200D02*
X119118600Y-88849200D01*
X83955000Y-67730001D02*
X83105001Y-68580000D01*
X109800520Y-64800590D02*
X86884411Y-64800590D01*
X111760000Y-66760070D02*
X109800520Y-64800590D01*
X86884411Y-64800590D02*
X83955000Y-67730001D01*
X111760000Y-81490600D02*
X111760000Y-66760070D01*
X84470000Y-87089999D02*
X84795002Y-87415001D01*
X84795002Y-87415001D02*
X85645001Y-88265000D01*
X84470000Y-85160999D02*
X84470000Y-87089999D01*
X85645001Y-83985998D02*
X84470000Y-85160999D01*
X85645001Y-71120000D02*
X85645001Y-83985998D01*
X84795002Y-104560001D02*
X85645001Y-105410000D01*
X84470000Y-104234999D02*
X84795002Y-104560001D01*
X84470000Y-89440001D02*
X84470000Y-104234999D01*
X85645001Y-88265000D02*
X84470000Y-89440001D01*
X119380000Y-101549200D02*
X116382800Y-101549200D01*
X116382800Y-101549200D02*
X116332000Y-101600000D01*
X87335002Y-87415001D02*
X88185001Y-88265000D01*
X87010000Y-87089999D02*
X87335002Y-87415001D01*
X87010000Y-85160999D02*
X87010000Y-87089999D01*
X88185001Y-83985998D02*
X87010000Y-85160999D01*
X88185001Y-71120000D02*
X88185001Y-83985998D01*
X87335002Y-104560001D02*
X88185001Y-105410000D01*
X87010000Y-104234999D02*
X87335002Y-104560001D01*
X87010000Y-89440001D02*
X87010000Y-104234999D01*
X88185001Y-88265000D02*
X87010000Y-89440001D01*
X89035000Y-70270001D02*
X88185001Y-71120000D01*
X89360002Y-69944999D02*
X89035000Y-70270001D01*
X96179004Y-69944999D02*
X89360002Y-69944999D01*
X97594803Y-68529200D02*
X96179004Y-69944999D01*
X104140000Y-68529200D02*
X97594803Y-68529200D01*
X104401400Y-78689200D02*
X104140000Y-78689200D01*
X105515000Y-80064200D02*
X105515000Y-79802800D01*
X105515000Y-79802800D02*
X104401400Y-78689200D01*
X111358680Y-85907880D02*
X105515000Y-80064200D01*
X113903760Y-85907880D02*
X111358680Y-85907880D01*
X89550000Y-87089999D02*
X89875002Y-87415001D01*
X89550000Y-72295001D02*
X89550000Y-87089999D01*
X89875002Y-87415001D02*
X90725001Y-88265000D01*
X90725001Y-71120000D02*
X89550000Y-72295001D01*
X89875002Y-104560001D02*
X90725001Y-105410000D01*
X89550000Y-104234999D02*
X89875002Y-104560001D01*
X89550000Y-89440001D02*
X89550000Y-104234999D01*
X90725001Y-88265000D02*
X89550000Y-89440001D01*
X97505410Y-72420590D02*
X96774000Y-73152000D01*
X107950000Y-73914000D02*
X106456590Y-72420590D01*
X106456590Y-72420590D02*
X97505410Y-72420590D01*
X109837321Y-89552881D02*
X110637320Y-90352880D01*
X109400559Y-89116119D02*
X109837321Y-89552881D01*
X109400559Y-86228359D02*
X109400559Y-89116119D01*
X104401400Y-81229200D02*
X109400559Y-86228359D01*
X104140000Y-81229200D02*
X104401400Y-81229200D01*
X105991247Y-95430753D02*
X105991247Y-94597633D01*
X105991247Y-94597633D02*
X107137200Y-93451680D01*
X92090000Y-72295001D02*
X92090000Y-87089999D01*
X92415002Y-87415001D02*
X93265001Y-88265000D01*
X92090000Y-87089999D02*
X92415002Y-87415001D01*
X93265001Y-71120000D02*
X92090000Y-72295001D01*
X92090000Y-104234999D02*
X92415002Y-104560001D01*
X92415002Y-104560001D02*
X93265001Y-105410000D01*
X92090000Y-102305999D02*
X92090000Y-104234999D01*
X93265001Y-101130998D02*
X92090000Y-102305999D01*
X93265001Y-88265000D02*
X93265001Y-101130998D01*
X107950000Y-75438000D02*
X107224999Y-76163001D01*
X107224999Y-76163001D02*
X106077999Y-76163001D01*
X106077999Y-76163001D02*
X105700999Y-75786001D01*
X97149810Y-74797810D02*
X96774000Y-74422000D01*
X105700999Y-75786001D02*
X105700999Y-75605071D01*
X105700999Y-75605071D02*
X104893738Y-74797810D01*
X104893738Y-74797810D02*
X97149810Y-74797810D01*
X94955002Y-87415001D02*
X95805001Y-88265000D01*
X94630000Y-87089999D02*
X94955002Y-87415001D01*
X94630000Y-72295001D02*
X94630000Y-87089999D01*
X95805001Y-71120000D02*
X94630000Y-72295001D01*
X94955002Y-104560001D02*
X95805001Y-105410000D01*
X94630000Y-104234999D02*
X94955002Y-104560001D01*
X94630000Y-89440001D02*
X94630000Y-104234999D01*
X95805001Y-88265000D02*
X94630000Y-89440001D01*
X96655000Y-70270001D02*
X95805001Y-71120000D01*
X97044411Y-69880590D02*
X96655000Y-70270001D01*
X105948590Y-69880590D02*
X97044411Y-69880590D01*
X109474000Y-73406000D02*
X105948590Y-69880590D01*
X109474000Y-75692000D02*
X109474000Y-73406000D01*
X103941880Y-86111080D02*
X104140000Y-86309200D01*
X97896680Y-86111080D02*
X103941880Y-86111080D01*
X105515000Y-87422800D02*
X105515000Y-88281852D01*
X105515000Y-88281852D02*
X109413040Y-92179892D01*
X104140000Y-86309200D02*
X104401400Y-86309200D01*
X104401400Y-86309200D02*
X105515000Y-87422800D01*
X109413040Y-94919800D02*
X113629440Y-99136200D01*
X109413040Y-92179892D02*
X109413040Y-94919800D01*
X104140000Y-83769200D02*
X96707960Y-83769200D01*
X105515000Y-91389200D02*
X104140000Y-91389200D01*
X108645960Y-92591355D02*
X107443805Y-91389200D01*
X107443805Y-91389200D02*
X105515000Y-91389200D01*
X108645960Y-93157040D02*
X108645960Y-92591355D01*
D23*
G36*
X73310997Y-67139203D02*
G01*
X73236112Y-67116487D01*
X73017951Y-67095000D01*
X72872051Y-67095000D01*
X72653890Y-67116487D01*
X72373967Y-67201401D01*
X72115987Y-67339294D01*
X71889867Y-67524866D01*
X71704295Y-67750986D01*
X71566402Y-68008966D01*
X71481488Y-68288889D01*
X71452816Y-68580000D01*
X71481488Y-68871111D01*
X71566402Y-69151034D01*
X71704295Y-69409014D01*
X71889867Y-69635134D01*
X71919688Y-69659607D01*
X71850821Y-69680498D01*
X71740507Y-69739463D01*
X71643816Y-69818815D01*
X71564464Y-69915506D01*
X71505499Y-70025820D01*
X71469189Y-70145518D01*
X71456929Y-70270000D01*
X71456929Y-71970000D01*
X71469189Y-72094482D01*
X71505499Y-72214180D01*
X71564464Y-72324494D01*
X71643816Y-72421185D01*
X71657656Y-72432543D01*
X71259003Y-72831197D01*
X71229999Y-72855000D01*
X71197175Y-72894997D01*
X71135026Y-72970725D01*
X71082390Y-73069199D01*
X71064454Y-73102755D01*
X71020997Y-73246016D01*
X71010000Y-73357669D01*
X71010000Y-73357679D01*
X71006324Y-73395001D01*
X71010000Y-73432323D01*
X71010001Y-88152667D01*
X71006324Y-88189999D01*
X71010001Y-88227332D01*
X71020998Y-88338985D01*
X71029532Y-88367117D01*
X71064454Y-88482245D01*
X71135026Y-88614275D01*
X71197992Y-88690998D01*
X71230000Y-88730000D01*
X71258996Y-88753796D01*
X71281200Y-88776001D01*
X71305000Y-88805001D01*
X71420725Y-88899974D01*
X71456929Y-88919326D01*
X71456929Y-89115000D01*
X71469189Y-89239482D01*
X71505499Y-89359180D01*
X71564464Y-89469494D01*
X71643816Y-89566185D01*
X71657656Y-89577543D01*
X71259003Y-89976197D01*
X71229999Y-90000000D01*
X71180239Y-90060633D01*
X71135026Y-90115725D01*
X71087899Y-90203893D01*
X71064454Y-90247755D01*
X71020997Y-90391016D01*
X71010000Y-90502669D01*
X71010000Y-90502679D01*
X71006324Y-90540001D01*
X71010000Y-90577323D01*
X71010001Y-105297667D01*
X71006324Y-105334999D01*
X71010001Y-105372332D01*
X71019836Y-105472182D01*
X71020998Y-105483984D01*
X71064454Y-105627245D01*
X71135026Y-105759275D01*
X71206201Y-105846001D01*
X71230000Y-105875000D01*
X71258996Y-105898796D01*
X71281200Y-105921001D01*
X71305000Y-105950001D01*
X71420725Y-106044974D01*
X71456929Y-106064326D01*
X71456929Y-106260000D01*
X71469189Y-106384482D01*
X71505499Y-106504180D01*
X71564464Y-106614494D01*
X71643816Y-106711185D01*
X71740507Y-106790537D01*
X71850821Y-106849502D01*
X71970519Y-106885812D01*
X72095001Y-106898072D01*
X72290675Y-106898072D01*
X72310027Y-106934276D01*
X72349110Y-106981898D01*
X72405000Y-107050001D01*
X72434004Y-107073804D01*
X72500397Y-107140197D01*
X72524200Y-107169201D01*
X72639925Y-107264174D01*
X72771954Y-107334746D01*
X72915215Y-107378203D01*
X73026868Y-107389200D01*
X73026878Y-107389200D01*
X73064200Y-107392876D01*
X73101523Y-107389200D01*
X74540484Y-107389200D01*
X74524226Y-107400063D01*
X74380063Y-107544226D01*
X74266795Y-107713744D01*
X74188774Y-107902102D01*
X74149000Y-108102061D01*
X74149000Y-108305939D01*
X74188774Y-108505898D01*
X74266795Y-108694256D01*
X74380063Y-108863774D01*
X74524226Y-109007937D01*
X74693744Y-109121205D01*
X74882102Y-109199226D01*
X75082061Y-109239000D01*
X75144199Y-109239000D01*
X80608204Y-114703007D01*
X80631998Y-114732000D01*
X80660991Y-114755794D01*
X80660995Y-114755798D01*
X80699291Y-114787226D01*
X80747723Y-114826973D01*
X80879752Y-114897545D01*
X81023013Y-114941002D01*
X81134666Y-114951999D01*
X81134675Y-114951999D01*
X81171998Y-114955675D01*
X81209321Y-114951999D01*
X107004679Y-114951999D01*
X107042001Y-114955675D01*
X107079323Y-114951999D01*
X107079334Y-114951999D01*
X107190987Y-114941002D01*
X107334248Y-114897545D01*
X107466226Y-114827000D01*
X107543939Y-114827000D01*
X107743898Y-114787226D01*
X107932256Y-114709205D01*
X108101774Y-114595937D01*
X108245937Y-114451774D01*
X108359205Y-114282256D01*
X108437226Y-114093898D01*
X108477000Y-113893939D01*
X108477000Y-113690061D01*
X108437226Y-113490102D01*
X108359205Y-113301744D01*
X108245937Y-113132226D01*
X108118311Y-113004600D01*
X109195377Y-113004600D01*
X109223084Y-113285909D01*
X109305138Y-113556408D01*
X109438388Y-113805701D01*
X109617712Y-114024208D01*
X109836219Y-114203532D01*
X110085512Y-114336782D01*
X110356011Y-114418836D01*
X110566828Y-114439600D01*
X110707812Y-114439600D01*
X110918629Y-114418836D01*
X111189128Y-114336782D01*
X111438421Y-114203532D01*
X111656928Y-114024208D01*
X111836252Y-113805701D01*
X111969502Y-113556408D01*
X112051556Y-113285909D01*
X112079263Y-113004600D01*
X112051556Y-112723291D01*
X111969502Y-112452792D01*
X111836252Y-112203499D01*
X111656928Y-111984992D01*
X111438421Y-111805668D01*
X111189128Y-111672418D01*
X110918629Y-111590364D01*
X110707812Y-111569600D01*
X110566828Y-111569600D01*
X110356011Y-111590364D01*
X110085512Y-111672418D01*
X109836219Y-111805668D01*
X109617712Y-111984992D01*
X109438388Y-112203499D01*
X109305138Y-112452792D01*
X109223084Y-112723291D01*
X109195377Y-113004600D01*
X108118311Y-113004600D01*
X108101774Y-112988063D01*
X107932256Y-112874795D01*
X107743898Y-112796774D01*
X107543939Y-112757000D01*
X107340061Y-112757000D01*
X107140102Y-112796774D01*
X107097730Y-112814325D01*
X107089205Y-112793744D01*
X106975937Y-112624226D01*
X106831774Y-112480063D01*
X106662256Y-112366795D01*
X106473898Y-112288774D01*
X106273939Y-112249000D01*
X106070061Y-112249000D01*
X105870102Y-112288774D01*
X105762191Y-112333473D01*
X105834527Y-112165357D01*
X105856358Y-112068226D01*
X105735217Y-111836200D01*
X104267000Y-111836200D01*
X104267000Y-111856200D01*
X104013000Y-111856200D01*
X104013000Y-111836200D01*
X102544783Y-111836200D01*
X102423642Y-112068226D01*
X102445473Y-112165357D01*
X102562002Y-112436181D01*
X102622428Y-112524000D01*
X83372802Y-112524000D01*
X79013000Y-108164199D01*
X79013000Y-108102061D01*
X78973226Y-107902102D01*
X78895205Y-107713744D01*
X78781937Y-107544226D01*
X78637774Y-107400063D01*
X78621516Y-107389200D01*
X79393931Y-107389200D01*
X79346795Y-107459744D01*
X79268774Y-107648102D01*
X79229000Y-107848061D01*
X79229000Y-108051939D01*
X79268774Y-108251898D01*
X79346795Y-108440256D01*
X79460063Y-108609774D01*
X79604226Y-108753937D01*
X79773744Y-108867205D01*
X79962102Y-108945226D01*
X80162061Y-108985000D01*
X80224199Y-108985000D01*
X80716201Y-109477003D01*
X80739999Y-109506001D01*
X80768997Y-109529799D01*
X80855723Y-109600974D01*
X80987753Y-109671546D01*
X81131014Y-109715003D01*
X81242667Y-109726000D01*
X81242677Y-109726000D01*
X81280000Y-109729676D01*
X81317322Y-109726000D01*
X90228289Y-109726000D01*
X90272226Y-109769937D01*
X90441744Y-109883205D01*
X90630102Y-109961226D01*
X90830061Y-110001000D01*
X91033939Y-110001000D01*
X91233898Y-109961226D01*
X91422256Y-109883205D01*
X91591774Y-109769937D01*
X91735937Y-109625774D01*
X91801116Y-109528226D01*
X102423642Y-109528226D01*
X102445473Y-109625357D01*
X102562002Y-109896181D01*
X102729127Y-110139068D01*
X102940426Y-110344683D01*
X103086142Y-110439200D01*
X102940426Y-110533717D01*
X102729127Y-110739332D01*
X102562002Y-110982219D01*
X102445473Y-111253043D01*
X102423642Y-111350174D01*
X102544783Y-111582200D01*
X104013000Y-111582200D01*
X104013000Y-109296200D01*
X104267000Y-109296200D01*
X104267000Y-111582200D01*
X105735217Y-111582200D01*
X105856358Y-111350174D01*
X105834527Y-111253043D01*
X105717998Y-110982219D01*
X105550873Y-110739332D01*
X105339574Y-110533717D01*
X105193858Y-110439200D01*
X105339574Y-110344683D01*
X105550873Y-110139068D01*
X105717998Y-109896181D01*
X105834527Y-109625357D01*
X105856358Y-109528226D01*
X105735217Y-109296200D01*
X104267000Y-109296200D01*
X104013000Y-109296200D01*
X102544783Y-109296200D01*
X102423642Y-109528226D01*
X91801116Y-109528226D01*
X91849205Y-109456256D01*
X91927226Y-109267898D01*
X91967000Y-109067939D01*
X91967000Y-108864061D01*
X91927226Y-108664102D01*
X91849205Y-108475744D01*
X91735937Y-108306226D01*
X91591774Y-108162063D01*
X91422256Y-108048795D01*
X91401675Y-108040270D01*
X91419226Y-107997898D01*
X91459000Y-107797939D01*
X91459000Y-107594061D01*
X91419226Y-107394102D01*
X91417196Y-107389200D01*
X102585584Y-107389200D01*
X102626531Y-107465806D01*
X102813803Y-107693997D01*
X103041994Y-107881269D01*
X103081353Y-107902307D01*
X102940426Y-107993717D01*
X102729127Y-108199332D01*
X102562002Y-108442219D01*
X102445473Y-108713043D01*
X102423642Y-108810174D01*
X102544783Y-109042200D01*
X104013000Y-109042200D01*
X104013000Y-109022200D01*
X104267000Y-109022200D01*
X104267000Y-109042200D01*
X105735217Y-109042200D01*
X105856358Y-108810174D01*
X105834527Y-108713043D01*
X105717998Y-108442219D01*
X105550873Y-108199332D01*
X105339574Y-107993717D01*
X105198647Y-107902307D01*
X105238006Y-107881269D01*
X105466197Y-107693997D01*
X105483685Y-107672687D01*
X106139815Y-108328818D01*
X106163609Y-108357811D01*
X106192602Y-108381605D01*
X106192606Y-108381609D01*
X106216900Y-108401546D01*
X106279334Y-108452784D01*
X106411363Y-108523356D01*
X106554624Y-108566813D01*
X106666277Y-108577810D01*
X106666286Y-108577810D01*
X106703609Y-108581486D01*
X106740932Y-108577810D01*
X111432997Y-108577810D01*
X111470330Y-108581487D01*
X111507663Y-108577810D01*
X112383594Y-108577810D01*
X112357760Y-108616473D01*
X112249587Y-108877626D01*
X112194440Y-109154865D01*
X112194440Y-109437535D01*
X112249587Y-109714774D01*
X112357760Y-109975927D01*
X112514803Y-110210959D01*
X112714681Y-110410837D01*
X112949713Y-110567880D01*
X113210866Y-110676053D01*
X113488105Y-110731200D01*
X113770775Y-110731200D01*
X114048014Y-110676053D01*
X114309167Y-110567880D01*
X114544199Y-110410837D01*
X114744077Y-110210959D01*
X114901120Y-109975927D01*
X115009293Y-109714774D01*
X115064440Y-109437535D01*
X115064440Y-109154865D01*
X115009293Y-108877626D01*
X114901120Y-108616473D01*
X114875286Y-108577810D01*
X117735460Y-108577810D01*
X117727375Y-108592936D01*
X117641684Y-108875423D01*
X117612749Y-109169200D01*
X117641684Y-109462977D01*
X117727375Y-109745464D01*
X117866531Y-110005806D01*
X118053803Y-110233997D01*
X118281994Y-110421269D01*
X118315540Y-110439200D01*
X118281994Y-110457131D01*
X118053803Y-110644403D01*
X117866531Y-110872594D01*
X117727375Y-111132936D01*
X117641684Y-111415423D01*
X117612749Y-111709200D01*
X117641684Y-112002977D01*
X117727375Y-112285464D01*
X117866531Y-112545806D01*
X118053803Y-112773997D01*
X118281994Y-112961269D01*
X118542336Y-113100425D01*
X118824823Y-113186116D01*
X119044981Y-113207800D01*
X119715019Y-113207800D01*
X119935177Y-113186116D01*
X120217664Y-113100425D01*
X120478006Y-112961269D01*
X120706197Y-112773997D01*
X120893469Y-112545806D01*
X121032625Y-112285464D01*
X121118316Y-112002977D01*
X121141821Y-111764324D01*
X162819000Y-111764324D01*
X162819000Y-112263676D01*
X162916418Y-112753432D01*
X163107512Y-113214773D01*
X163384937Y-113629968D01*
X163738032Y-113983063D01*
X164153227Y-114260488D01*
X164614568Y-114451582D01*
X165104324Y-114549000D01*
X165603676Y-114549000D01*
X166093432Y-114451582D01*
X166554773Y-114260488D01*
X166969968Y-113983063D01*
X167323063Y-113629968D01*
X167600488Y-113214773D01*
X167791582Y-112753432D01*
X167889000Y-112263676D01*
X167889000Y-111764324D01*
X167791582Y-111274568D01*
X167600488Y-110813227D01*
X167323063Y-110398032D01*
X166969968Y-110044937D01*
X166554773Y-109767512D01*
X166093432Y-109576418D01*
X165603676Y-109479000D01*
X165104324Y-109479000D01*
X164614568Y-109576418D01*
X164153227Y-109767512D01*
X163738032Y-110044937D01*
X163384937Y-110398032D01*
X163107512Y-110813227D01*
X162916418Y-111274568D01*
X162819000Y-111764324D01*
X121141821Y-111764324D01*
X121147251Y-111709200D01*
X121118316Y-111415423D01*
X121032625Y-111132936D01*
X120893469Y-110872594D01*
X120706197Y-110644403D01*
X120478006Y-110457131D01*
X120444460Y-110439200D01*
X120478006Y-110421269D01*
X120706197Y-110233997D01*
X120893469Y-110005806D01*
X121032625Y-109745464D01*
X121118316Y-109462977D01*
X121147251Y-109169200D01*
X121118316Y-108875423D01*
X121032625Y-108592936D01*
X121024540Y-108577810D01*
X124554868Y-108577810D01*
X124592190Y-108581486D01*
X124629512Y-108577810D01*
X124629523Y-108577810D01*
X124741176Y-108566813D01*
X124884437Y-108523356D01*
X125016466Y-108452784D01*
X125132191Y-108357811D01*
X125155994Y-108328807D01*
X126455762Y-107029039D01*
X126878096Y-107029039D01*
X126918754Y-107163087D01*
X127038963Y-107417420D01*
X127206481Y-107643414D01*
X127414869Y-107832385D01*
X127656119Y-107977070D01*
X127920960Y-108071909D01*
X128143000Y-107950624D01*
X128143000Y-106807000D01*
X128397000Y-106807000D01*
X128397000Y-107950624D01*
X128619040Y-108071909D01*
X128883881Y-107977070D01*
X129125131Y-107832385D01*
X129333519Y-107643414D01*
X129501037Y-107417420D01*
X129621246Y-107163087D01*
X129661904Y-107029039D01*
X129539915Y-106807000D01*
X128397000Y-106807000D01*
X128143000Y-106807000D01*
X127000085Y-106807000D01*
X126878096Y-107029039D01*
X126455762Y-107029039D01*
X126975872Y-106508929D01*
X127000085Y-106553000D01*
X128143000Y-106553000D01*
X128143000Y-105341801D01*
X128397000Y-105087802D01*
X128397000Y-106553000D01*
X129539915Y-106553000D01*
X129661904Y-106330961D01*
X129621246Y-106196913D01*
X129501037Y-105942580D01*
X129333519Y-105716586D01*
X129125131Y-105527615D01*
X128929018Y-105410000D01*
X129125131Y-105292385D01*
X129333519Y-105103414D01*
X129501037Y-104877420D01*
X129621246Y-104623087D01*
X129661904Y-104489039D01*
X129539915Y-104267000D01*
X129021168Y-104267000D01*
X129033676Y-104140001D01*
X129030791Y-104110706D01*
X129021168Y-104013000D01*
X129539915Y-104013000D01*
X129661904Y-103790961D01*
X129621246Y-103656913D01*
X129501037Y-103402580D01*
X129333519Y-103176586D01*
X129125131Y-102987615D01*
X128929018Y-102870000D01*
X129125131Y-102752385D01*
X129333519Y-102563414D01*
X129501037Y-102337420D01*
X129621246Y-102083087D01*
X129661904Y-101949039D01*
X129539915Y-101727000D01*
X128397000Y-101727000D01*
X128397000Y-103192198D01*
X128143000Y-102938198D01*
X128143000Y-101727000D01*
X127000085Y-101727000D01*
X126975872Y-101771071D01*
X126744000Y-101539199D01*
X126744000Y-89857711D01*
X126787937Y-89813774D01*
X126836043Y-89741779D01*
X126844188Y-89824482D01*
X126880498Y-89944180D01*
X126939463Y-90054494D01*
X127018815Y-90151185D01*
X127115506Y-90230537D01*
X127225820Y-90289502D01*
X127345518Y-90325812D01*
X127363482Y-90327581D01*
X127250392Y-90420392D01*
X127071068Y-90638899D01*
X126937818Y-90888192D01*
X126855764Y-91158691D01*
X126828057Y-91440000D01*
X126855764Y-91721309D01*
X126937818Y-91991808D01*
X127071068Y-92241101D01*
X127250392Y-92459608D01*
X127468899Y-92638932D01*
X127601858Y-92710000D01*
X127468899Y-92781068D01*
X127250392Y-92960392D01*
X127071068Y-93178899D01*
X126937818Y-93428192D01*
X126855764Y-93698691D01*
X126828057Y-93980000D01*
X126855764Y-94261309D01*
X126937818Y-94531808D01*
X127071068Y-94781101D01*
X127250392Y-94999608D01*
X127468899Y-95178932D01*
X127601858Y-95250000D01*
X127468899Y-95321068D01*
X127250392Y-95500392D01*
X127071068Y-95718899D01*
X126937818Y-95968192D01*
X126855764Y-96238691D01*
X126828057Y-96520000D01*
X126855764Y-96801309D01*
X126937818Y-97071808D01*
X127071068Y-97321101D01*
X127250392Y-97539608D01*
X127468899Y-97718932D01*
X127601858Y-97790000D01*
X127468899Y-97861068D01*
X127250392Y-98040392D01*
X127071068Y-98258899D01*
X126937818Y-98508192D01*
X126855764Y-98778691D01*
X126828057Y-99060000D01*
X126855764Y-99341309D01*
X126937818Y-99611808D01*
X127071068Y-99861101D01*
X127250392Y-100079608D01*
X127468899Y-100258932D01*
X127606682Y-100332579D01*
X127414869Y-100447615D01*
X127206481Y-100636586D01*
X127038963Y-100862580D01*
X126918754Y-101116913D01*
X126878096Y-101250961D01*
X127000085Y-101473000D01*
X128143000Y-101473000D01*
X128143000Y-101453000D01*
X128397000Y-101453000D01*
X128397000Y-101473000D01*
X129539915Y-101473000D01*
X129661904Y-101250961D01*
X129621246Y-101116913D01*
X129501037Y-100862580D01*
X129333519Y-100636586D01*
X129125131Y-100447615D01*
X128933318Y-100332579D01*
X129071101Y-100258932D01*
X129289608Y-100079608D01*
X129468932Y-99861101D01*
X129602182Y-99611808D01*
X129684236Y-99341309D01*
X129711943Y-99060000D01*
X129684236Y-98778691D01*
X129602182Y-98508192D01*
X129468932Y-98258899D01*
X129289608Y-98040392D01*
X129071101Y-97861068D01*
X128938142Y-97790000D01*
X129071101Y-97718932D01*
X129289608Y-97539608D01*
X129468932Y-97321101D01*
X129602182Y-97071808D01*
X129684236Y-96801309D01*
X129711943Y-96520000D01*
X129684236Y-96238691D01*
X129602182Y-95968192D01*
X129468932Y-95718899D01*
X129289608Y-95500392D01*
X129071101Y-95321068D01*
X128938142Y-95250000D01*
X129071101Y-95178932D01*
X129289608Y-94999608D01*
X129468932Y-94781101D01*
X129602182Y-94531808D01*
X129684236Y-94261309D01*
X129711943Y-93980000D01*
X129686044Y-93717044D01*
X129756667Y-93724000D01*
X129756676Y-93724000D01*
X129793999Y-93727676D01*
X129831322Y-93724000D01*
X130304001Y-93724000D01*
X130304000Y-104960289D01*
X130260063Y-105004226D01*
X130146795Y-105173744D01*
X130068774Y-105362102D01*
X130029000Y-105562061D01*
X130029000Y-105765939D01*
X130068774Y-105965898D01*
X130146795Y-106154256D01*
X130260063Y-106323774D01*
X130404226Y-106467937D01*
X130573744Y-106581205D01*
X130762102Y-106659226D01*
X130962061Y-106699000D01*
X131165939Y-106699000D01*
X131365898Y-106659226D01*
X131554256Y-106581205D01*
X131723774Y-106467937D01*
X131867937Y-106323774D01*
X131981205Y-106154256D01*
X132059226Y-105965898D01*
X132099000Y-105765939D01*
X132099000Y-105562061D01*
X132059226Y-105362102D01*
X131981205Y-105173744D01*
X131867937Y-105004226D01*
X131824000Y-104960289D01*
X131824000Y-104945830D01*
X131857558Y-104952505D01*
X132061436Y-104952505D01*
X132261395Y-104912731D01*
X132449753Y-104834710D01*
X132619271Y-104721442D01*
X132763434Y-104577279D01*
X132844001Y-104456702D01*
X132844001Y-105976288D01*
X132800063Y-106020226D01*
X132686795Y-106189744D01*
X132608774Y-106378102D01*
X132569000Y-106578061D01*
X132569000Y-106781939D01*
X132608774Y-106981898D01*
X132686795Y-107170256D01*
X132800063Y-107339774D01*
X132944226Y-107483937D01*
X133113744Y-107597205D01*
X133302102Y-107675226D01*
X133502061Y-107715000D01*
X133705939Y-107715000D01*
X133905898Y-107675226D01*
X134094256Y-107597205D01*
X134263774Y-107483937D01*
X134407937Y-107339774D01*
X134521205Y-107170256D01*
X134531562Y-107145252D01*
X134557818Y-107231808D01*
X134691068Y-107481101D01*
X134870392Y-107699608D01*
X135088899Y-107878932D01*
X135338192Y-108012182D01*
X135608691Y-108094236D01*
X135819508Y-108115000D01*
X135960492Y-108115000D01*
X136171309Y-108094236D01*
X136441808Y-108012182D01*
X136691101Y-107878932D01*
X136909608Y-107699608D01*
X137088932Y-107481101D01*
X137222182Y-107231808D01*
X137304236Y-106961309D01*
X137331943Y-106680000D01*
X137304236Y-106398691D01*
X137222182Y-106128192D01*
X137088932Y-105878899D01*
X136909608Y-105660392D01*
X136691101Y-105481068D01*
X136558142Y-105410000D01*
X136691101Y-105338932D01*
X136909608Y-105159608D01*
X136913389Y-105155000D01*
X140736928Y-105155000D01*
X140749188Y-105279482D01*
X140785498Y-105399180D01*
X140844463Y-105509494D01*
X140923815Y-105606185D01*
X141020506Y-105685537D01*
X141130820Y-105744502D01*
X141250518Y-105780812D01*
X141375000Y-105793072D01*
X141954250Y-105790000D01*
X142113000Y-105631250D01*
X142113000Y-104267000D01*
X140898750Y-104267000D01*
X140740000Y-104425750D01*
X140736928Y-105155000D01*
X136913389Y-105155000D01*
X137088932Y-104941101D01*
X137222182Y-104691808D01*
X137304236Y-104421309D01*
X137331943Y-104140000D01*
X137304236Y-103858691D01*
X137222182Y-103588192D01*
X137088932Y-103338899D01*
X136913390Y-103125000D01*
X140736928Y-103125000D01*
X140740000Y-103854250D01*
X140898750Y-104013000D01*
X142113000Y-104013000D01*
X142113000Y-102648750D01*
X141954250Y-102490000D01*
X141375000Y-102486928D01*
X141250518Y-102499188D01*
X141130820Y-102535498D01*
X141020506Y-102594463D01*
X140923815Y-102673815D01*
X140844463Y-102770506D01*
X140785498Y-102880820D01*
X140749188Y-103000518D01*
X140736928Y-103125000D01*
X136913390Y-103125000D01*
X136909608Y-103120392D01*
X136691101Y-102941068D01*
X136558142Y-102870000D01*
X136691101Y-102798932D01*
X136909608Y-102619608D01*
X137088932Y-102401101D01*
X137222182Y-102151808D01*
X137304236Y-101881309D01*
X137331943Y-101600000D01*
X137304236Y-101318691D01*
X137222182Y-101048192D01*
X137088932Y-100798899D01*
X136909608Y-100580392D01*
X136691101Y-100401068D01*
X136558142Y-100330000D01*
X136691101Y-100258932D01*
X136909608Y-100079608D01*
X137088932Y-99861101D01*
X137222182Y-99611808D01*
X137304236Y-99341309D01*
X137331943Y-99060000D01*
X137304236Y-98778691D01*
X137222182Y-98508192D01*
X137088932Y-98258899D01*
X136909608Y-98040392D01*
X136691101Y-97861068D01*
X136558142Y-97790000D01*
X136691101Y-97718932D01*
X136909608Y-97539608D01*
X137088932Y-97321101D01*
X137222182Y-97071808D01*
X137304236Y-96801309D01*
X137331943Y-96520000D01*
X137306828Y-96265000D01*
X140736928Y-96265000D01*
X140749188Y-96389482D01*
X140785498Y-96509180D01*
X140844463Y-96619494D01*
X140923815Y-96716185D01*
X141020506Y-96795537D01*
X141130820Y-96854502D01*
X141250518Y-96890812D01*
X141375000Y-96903072D01*
X141954250Y-96900000D01*
X142113000Y-96741250D01*
X142113000Y-95377000D01*
X140898750Y-95377000D01*
X140740000Y-95535750D01*
X140736928Y-96265000D01*
X137306828Y-96265000D01*
X137304236Y-96238691D01*
X137222182Y-95968192D01*
X137088932Y-95718899D01*
X136909608Y-95500392D01*
X136691101Y-95321068D01*
X136558142Y-95250000D01*
X136691101Y-95178932D01*
X136909608Y-94999608D01*
X137088932Y-94781101D01*
X137222182Y-94531808D01*
X137304236Y-94261309D01*
X137306827Y-94235000D01*
X140736928Y-94235000D01*
X140740000Y-94964250D01*
X140898750Y-95123000D01*
X142113000Y-95123000D01*
X142113000Y-93758750D01*
X141954250Y-93600000D01*
X141375000Y-93596928D01*
X141250518Y-93609188D01*
X141130820Y-93645498D01*
X141020506Y-93704463D01*
X140923815Y-93783815D01*
X140844463Y-93880506D01*
X140785498Y-93990820D01*
X140749188Y-94110518D01*
X140736928Y-94235000D01*
X137306827Y-94235000D01*
X137331943Y-93980000D01*
X137304236Y-93698691D01*
X137222182Y-93428192D01*
X137088932Y-93178899D01*
X136909608Y-92960392D01*
X136691101Y-92781068D01*
X136558142Y-92710000D01*
X136691101Y-92638932D01*
X136909608Y-92459608D01*
X137088932Y-92241101D01*
X137222182Y-91991808D01*
X137304236Y-91721309D01*
X137331943Y-91440000D01*
X137304236Y-91158691D01*
X137222182Y-90888192D01*
X137088932Y-90638899D01*
X136909608Y-90420392D01*
X136691101Y-90241068D01*
X136558142Y-90170000D01*
X136691101Y-90098932D01*
X136909608Y-89919608D01*
X137088932Y-89701101D01*
X137222182Y-89451808D01*
X137304236Y-89181309D01*
X137331943Y-88900000D01*
X137304236Y-88618691D01*
X137222182Y-88348192D01*
X137088932Y-88098899D01*
X136909608Y-87880392D01*
X136691101Y-87701068D01*
X136650000Y-87679099D01*
X136650000Y-87375000D01*
X140736928Y-87375000D01*
X140749188Y-87499482D01*
X140785498Y-87619180D01*
X140844463Y-87729494D01*
X140923815Y-87826185D01*
X141020506Y-87905537D01*
X141130820Y-87964502D01*
X141250518Y-88000812D01*
X141375000Y-88013072D01*
X141954250Y-88010000D01*
X142113000Y-87851250D01*
X142113000Y-86487000D01*
X140898750Y-86487000D01*
X140740000Y-86645750D01*
X140736928Y-87375000D01*
X136650000Y-87375000D01*
X136650000Y-85345000D01*
X140736928Y-85345000D01*
X140740000Y-86074250D01*
X140898750Y-86233000D01*
X142113000Y-86233000D01*
X142113000Y-84868750D01*
X141954250Y-84710000D01*
X141375000Y-84706928D01*
X141250518Y-84719188D01*
X141130820Y-84755498D01*
X141020506Y-84814463D01*
X140923815Y-84893815D01*
X140844463Y-84990506D01*
X140785498Y-85100820D01*
X140749188Y-85220518D01*
X140736928Y-85345000D01*
X136650000Y-85345000D01*
X136650000Y-83603322D01*
X136653676Y-83565999D01*
X136650000Y-83528676D01*
X136650000Y-83528667D01*
X136639003Y-83417014D01*
X136595546Y-83273753D01*
X136524974Y-83141724D01*
X136430001Y-83025999D01*
X136417000Y-83015329D01*
X136417000Y-82956061D01*
X136377226Y-82756102D01*
X136299205Y-82567744D01*
X136185937Y-82398226D01*
X136041774Y-82254063D01*
X135872256Y-82140795D01*
X135683898Y-82062774D01*
X135483939Y-82023000D01*
X135280061Y-82023000D01*
X135080102Y-82062774D01*
X134891744Y-82140795D01*
X134722226Y-82254063D01*
X134578063Y-82398226D01*
X134464795Y-82567744D01*
X134386774Y-82756102D01*
X134364000Y-82870596D01*
X134364000Y-82610801D01*
X135564094Y-81410708D01*
X135608691Y-81424236D01*
X135819508Y-81445000D01*
X135960492Y-81445000D01*
X136171309Y-81424236D01*
X136441808Y-81342182D01*
X136691101Y-81208932D01*
X136909608Y-81029608D01*
X137088932Y-80811101D01*
X137222182Y-80561808D01*
X137304236Y-80291309D01*
X137331943Y-80010000D01*
X137304236Y-79728691D01*
X137222182Y-79458192D01*
X137088932Y-79208899D01*
X136909608Y-78990392D01*
X136691101Y-78811068D01*
X136558142Y-78740000D01*
X136691101Y-78668932D01*
X136909608Y-78489608D01*
X136913389Y-78485000D01*
X140736928Y-78485000D01*
X140749188Y-78609482D01*
X140785498Y-78729180D01*
X140844463Y-78839494D01*
X140923815Y-78936185D01*
X141020506Y-79015537D01*
X141130820Y-79074502D01*
X141250518Y-79110812D01*
X141375000Y-79123072D01*
X141954250Y-79120000D01*
X142113000Y-78961250D01*
X142113000Y-77597000D01*
X140898750Y-77597000D01*
X140740000Y-77755750D01*
X140736928Y-78485000D01*
X136913389Y-78485000D01*
X137088932Y-78271101D01*
X137222182Y-78021808D01*
X137304236Y-77751309D01*
X137331943Y-77470000D01*
X137304236Y-77188691D01*
X137222182Y-76918192D01*
X137088932Y-76668899D01*
X136913390Y-76455000D01*
X140736928Y-76455000D01*
X140740000Y-77184250D01*
X140898750Y-77343000D01*
X142113000Y-77343000D01*
X142113000Y-75978750D01*
X141954250Y-75820000D01*
X141375000Y-75816928D01*
X141250518Y-75829188D01*
X141130820Y-75865498D01*
X141020506Y-75924463D01*
X140923815Y-76003815D01*
X140844463Y-76100506D01*
X140785498Y-76210820D01*
X140749188Y-76330518D01*
X140736928Y-76455000D01*
X136913390Y-76455000D01*
X136909608Y-76450392D01*
X136691101Y-76271068D01*
X136558142Y-76200000D01*
X136691101Y-76128932D01*
X136909608Y-75949608D01*
X137088932Y-75731101D01*
X137222182Y-75481808D01*
X137304236Y-75211309D01*
X137331943Y-74930000D01*
X137304236Y-74648691D01*
X137222182Y-74378192D01*
X137088932Y-74128899D01*
X136909608Y-73910392D01*
X136691101Y-73731068D01*
X136558142Y-73660000D01*
X136691101Y-73588932D01*
X136909608Y-73409608D01*
X137088932Y-73191101D01*
X137222182Y-72941808D01*
X137304236Y-72671309D01*
X137331943Y-72390000D01*
X137304236Y-72108691D01*
X137222182Y-71838192D01*
X137088932Y-71588899D01*
X136909608Y-71370392D01*
X136691101Y-71191068D01*
X136558142Y-71120000D01*
X136691101Y-71048932D01*
X136909608Y-70869608D01*
X137088932Y-70651101D01*
X137222182Y-70401808D01*
X137304236Y-70131309D01*
X137331943Y-69850000D01*
X137306828Y-69595000D01*
X140736928Y-69595000D01*
X140749188Y-69719482D01*
X140785498Y-69839180D01*
X140844463Y-69949494D01*
X140923815Y-70046185D01*
X141020506Y-70125537D01*
X141130820Y-70184502D01*
X141250518Y-70220812D01*
X141375000Y-70233072D01*
X141954250Y-70230000D01*
X142113000Y-70071250D01*
X142113000Y-68707000D01*
X140898750Y-68707000D01*
X140740000Y-68865750D01*
X140736928Y-69595000D01*
X137306828Y-69595000D01*
X137304236Y-69568691D01*
X137222182Y-69298192D01*
X137088932Y-69048899D01*
X136909608Y-68830392D01*
X136691101Y-68651068D01*
X136558142Y-68580000D01*
X136691101Y-68508932D01*
X136909608Y-68329608D01*
X137088932Y-68111101D01*
X137222182Y-67861808D01*
X137304236Y-67591309D01*
X137306827Y-67565000D01*
X140736928Y-67565000D01*
X140740000Y-68294250D01*
X140898750Y-68453000D01*
X142113000Y-68453000D01*
X142113000Y-67088750D01*
X141954250Y-66930000D01*
X141375000Y-66926928D01*
X141250518Y-66939188D01*
X141130820Y-66975498D01*
X141020506Y-67034463D01*
X140923815Y-67113815D01*
X140844463Y-67210506D01*
X140785498Y-67320820D01*
X140749188Y-67440518D01*
X140736928Y-67565000D01*
X137306827Y-67565000D01*
X137331943Y-67310000D01*
X137304236Y-67028691D01*
X137222182Y-66758192D01*
X137088932Y-66508899D01*
X136909608Y-66290392D01*
X136691101Y-66111068D01*
X136558142Y-66040000D01*
X136691101Y-65968932D01*
X136909608Y-65789608D01*
X137088932Y-65571101D01*
X137222182Y-65321808D01*
X137304236Y-65051309D01*
X137331943Y-64770000D01*
X137304236Y-64488691D01*
X137222182Y-64218192D01*
X137088932Y-63968899D01*
X136909608Y-63750392D01*
X136691101Y-63571068D01*
X136558142Y-63500000D01*
X136691101Y-63428932D01*
X136909608Y-63249608D01*
X137088932Y-63031101D01*
X137110901Y-62990000D01*
X140805199Y-62990000D01*
X144741712Y-66926514D01*
X144485949Y-66951705D01*
X144203198Y-67037476D01*
X143942613Y-67176762D01*
X143714208Y-67364208D01*
X143709430Y-67370030D01*
X143694502Y-67320820D01*
X143635537Y-67210506D01*
X143556185Y-67113815D01*
X143459494Y-67034463D01*
X143349180Y-66975498D01*
X143229482Y-66939188D01*
X143105000Y-66926928D01*
X142525750Y-66930000D01*
X142367000Y-67088750D01*
X142367000Y-68453000D01*
X142387000Y-68453000D01*
X142387000Y-68707000D01*
X142367000Y-68707000D01*
X142367000Y-70071250D01*
X142525750Y-70230000D01*
X143105000Y-70233072D01*
X143229482Y-70220812D01*
X143349180Y-70184502D01*
X143459494Y-70125537D01*
X143556185Y-70046185D01*
X143635537Y-69949494D01*
X143694502Y-69839180D01*
X143709430Y-69789970D01*
X143714208Y-69795792D01*
X143942614Y-69983238D01*
X144203199Y-70122524D01*
X144485950Y-70208295D01*
X144780000Y-70237257D01*
X145074051Y-70208295D01*
X145356802Y-70122524D01*
X145617387Y-69983238D01*
X145845792Y-69795792D01*
X146033238Y-69567387D01*
X146050000Y-69536028D01*
X146066762Y-69567387D01*
X146254208Y-69795792D01*
X146482614Y-69983238D01*
X146560000Y-70024602D01*
X146560001Y-76025397D01*
X146482613Y-76066762D01*
X146254208Y-76254208D01*
X146066762Y-76482614D01*
X146050000Y-76513973D01*
X146033238Y-76482613D01*
X145845792Y-76254208D01*
X145617386Y-76066762D01*
X145356801Y-75927476D01*
X145074050Y-75841705D01*
X144780000Y-75812743D01*
X144485949Y-75841705D01*
X144203198Y-75927476D01*
X143942613Y-76066762D01*
X143714208Y-76254208D01*
X143709430Y-76260030D01*
X143694502Y-76210820D01*
X143635537Y-76100506D01*
X143556185Y-76003815D01*
X143459494Y-75924463D01*
X143349180Y-75865498D01*
X143229482Y-75829188D01*
X143105000Y-75816928D01*
X142525750Y-75820000D01*
X142367000Y-75978750D01*
X142367000Y-77343000D01*
X142387000Y-77343000D01*
X142387000Y-77597000D01*
X142367000Y-77597000D01*
X142367000Y-78961250D01*
X142525750Y-79120000D01*
X143105000Y-79123072D01*
X143229482Y-79110812D01*
X143349180Y-79074502D01*
X143459494Y-79015537D01*
X143556185Y-78936185D01*
X143635537Y-78839494D01*
X143694502Y-78729180D01*
X143709430Y-78679970D01*
X143714208Y-78685792D01*
X143942614Y-78873238D01*
X144203199Y-79012524D01*
X144485950Y-79098295D01*
X144780000Y-79127257D01*
X145074051Y-79098295D01*
X145356802Y-79012524D01*
X145617387Y-78873238D01*
X145845792Y-78685792D01*
X146033238Y-78457387D01*
X146050000Y-78426028D01*
X146066762Y-78457387D01*
X146254208Y-78685792D01*
X146482614Y-78873238D01*
X146560000Y-78914602D01*
X146560001Y-84915397D01*
X146482613Y-84956762D01*
X146254208Y-85144208D01*
X146066762Y-85372614D01*
X146050000Y-85403973D01*
X146033238Y-85372613D01*
X145845792Y-85144208D01*
X145617386Y-84956762D01*
X145356801Y-84817476D01*
X145074050Y-84731705D01*
X144780000Y-84702743D01*
X144485949Y-84731705D01*
X144203198Y-84817476D01*
X143942613Y-84956762D01*
X143714208Y-85144208D01*
X143709430Y-85150030D01*
X143694502Y-85100820D01*
X143635537Y-84990506D01*
X143556185Y-84893815D01*
X143459494Y-84814463D01*
X143349180Y-84755498D01*
X143229482Y-84719188D01*
X143105000Y-84706928D01*
X142525750Y-84710000D01*
X142367000Y-84868750D01*
X142367000Y-86233000D01*
X142387000Y-86233000D01*
X142387000Y-86487000D01*
X142367000Y-86487000D01*
X142367000Y-87851250D01*
X142525750Y-88010000D01*
X143105000Y-88013072D01*
X143229482Y-88000812D01*
X143349180Y-87964502D01*
X143459494Y-87905537D01*
X143556185Y-87826185D01*
X143635537Y-87729494D01*
X143694502Y-87619180D01*
X143709430Y-87569970D01*
X143714208Y-87575792D01*
X143942614Y-87763238D01*
X144203199Y-87902524D01*
X144485950Y-87988295D01*
X144780000Y-88017257D01*
X145074051Y-87988295D01*
X145356802Y-87902524D01*
X145617387Y-87763238D01*
X145845792Y-87575792D01*
X146033238Y-87347387D01*
X146050000Y-87316028D01*
X146066762Y-87347387D01*
X146254208Y-87575792D01*
X146482614Y-87763238D01*
X146560000Y-87804602D01*
X146560001Y-93805397D01*
X146482613Y-93846762D01*
X146254208Y-94034208D01*
X146066762Y-94262614D01*
X146050000Y-94293973D01*
X146033238Y-94262613D01*
X145845792Y-94034208D01*
X145617386Y-93846762D01*
X145356801Y-93707476D01*
X145074050Y-93621705D01*
X144780000Y-93592743D01*
X144485949Y-93621705D01*
X144203198Y-93707476D01*
X143942613Y-93846762D01*
X143714208Y-94034208D01*
X143709430Y-94040030D01*
X143694502Y-93990820D01*
X143635537Y-93880506D01*
X143556185Y-93783815D01*
X143459494Y-93704463D01*
X143349180Y-93645498D01*
X143229482Y-93609188D01*
X143105000Y-93596928D01*
X142525750Y-93600000D01*
X142367000Y-93758750D01*
X142367000Y-95123000D01*
X142387000Y-95123000D01*
X142387000Y-95377000D01*
X142367000Y-95377000D01*
X142367000Y-96741250D01*
X142525750Y-96900000D01*
X143105000Y-96903072D01*
X143229482Y-96890812D01*
X143349180Y-96854502D01*
X143459494Y-96795537D01*
X143556185Y-96716185D01*
X143635537Y-96619494D01*
X143694502Y-96509180D01*
X143709430Y-96459970D01*
X143714208Y-96465792D01*
X143942614Y-96653238D01*
X144203199Y-96792524D01*
X144485950Y-96878295D01*
X144780000Y-96907257D01*
X145074051Y-96878295D01*
X145356802Y-96792524D01*
X145617387Y-96653238D01*
X145845792Y-96465792D01*
X146033238Y-96237387D01*
X146050000Y-96206028D01*
X146066762Y-96237387D01*
X146254208Y-96465792D01*
X146482614Y-96653238D01*
X146560000Y-96694602D01*
X146560001Y-102695397D01*
X146482613Y-102736762D01*
X146254208Y-102924208D01*
X146066762Y-103152614D01*
X146050000Y-103183973D01*
X146033238Y-103152613D01*
X145845792Y-102924208D01*
X145617386Y-102736762D01*
X145356801Y-102597476D01*
X145074050Y-102511705D01*
X144780000Y-102482743D01*
X144485949Y-102511705D01*
X144203198Y-102597476D01*
X143942613Y-102736762D01*
X143714208Y-102924208D01*
X143709430Y-102930030D01*
X143694502Y-102880820D01*
X143635537Y-102770506D01*
X143556185Y-102673815D01*
X143459494Y-102594463D01*
X143349180Y-102535498D01*
X143229482Y-102499188D01*
X143105000Y-102486928D01*
X142525750Y-102490000D01*
X142367000Y-102648750D01*
X142367000Y-104013000D01*
X142387000Y-104013000D01*
X142387000Y-104267000D01*
X142367000Y-104267000D01*
X142367000Y-105631250D01*
X142525750Y-105790000D01*
X143105000Y-105793072D01*
X143229482Y-105780812D01*
X143349180Y-105744502D01*
X143459494Y-105685537D01*
X143556185Y-105606185D01*
X143635537Y-105509494D01*
X143694502Y-105399180D01*
X143709430Y-105349970D01*
X143714208Y-105355792D01*
X143942614Y-105543238D01*
X144203199Y-105682524D01*
X144485950Y-105768295D01*
X144780000Y-105797257D01*
X145074051Y-105768295D01*
X145356802Y-105682524D01*
X145617387Y-105543238D01*
X145845792Y-105355792D01*
X146033238Y-105127387D01*
X146050000Y-105096028D01*
X146066762Y-105127387D01*
X146254208Y-105355792D01*
X146482614Y-105543238D01*
X146743199Y-105682524D01*
X147025950Y-105768295D01*
X147320000Y-105797257D01*
X147614051Y-105768295D01*
X147896802Y-105682524D01*
X148157387Y-105543238D01*
X148385792Y-105355792D01*
X148550576Y-105155000D01*
X150896928Y-105155000D01*
X150909188Y-105279482D01*
X150945498Y-105399180D01*
X151004463Y-105509494D01*
X151083815Y-105606185D01*
X151180506Y-105685537D01*
X151290820Y-105744502D01*
X151410518Y-105780812D01*
X151535000Y-105793072D01*
X152114250Y-105790000D01*
X152273000Y-105631250D01*
X152273000Y-104267000D01*
X151058750Y-104267000D01*
X150900000Y-104425750D01*
X150896928Y-105155000D01*
X148550576Y-105155000D01*
X148573238Y-105127387D01*
X148712524Y-104866801D01*
X148798295Y-104584050D01*
X148820000Y-104363679D01*
X148820000Y-103916320D01*
X148798295Y-103695949D01*
X148712524Y-103413198D01*
X148573238Y-103152613D01*
X148550577Y-103125000D01*
X150896928Y-103125000D01*
X150900000Y-103854250D01*
X151058750Y-104013000D01*
X152273000Y-104013000D01*
X152273000Y-102648750D01*
X152114250Y-102490000D01*
X151535000Y-102486928D01*
X151410518Y-102499188D01*
X151290820Y-102535498D01*
X151180506Y-102594463D01*
X151083815Y-102673815D01*
X151004463Y-102770506D01*
X150945498Y-102880820D01*
X150909188Y-103000518D01*
X150896928Y-103125000D01*
X148550577Y-103125000D01*
X148385792Y-102924208D01*
X148157386Y-102736762D01*
X148080000Y-102695398D01*
X148080000Y-96694602D01*
X148157387Y-96653238D01*
X148385792Y-96465792D01*
X148550576Y-96265000D01*
X150896928Y-96265000D01*
X150909188Y-96389482D01*
X150945498Y-96509180D01*
X151004463Y-96619494D01*
X151083815Y-96716185D01*
X151180506Y-96795537D01*
X151290820Y-96854502D01*
X151410518Y-96890812D01*
X151535000Y-96903072D01*
X152114250Y-96900000D01*
X152273000Y-96741250D01*
X152273000Y-95377000D01*
X151058750Y-95377000D01*
X150900000Y-95535750D01*
X150896928Y-96265000D01*
X148550576Y-96265000D01*
X148573238Y-96237387D01*
X148712524Y-95976801D01*
X148798295Y-95694050D01*
X148820000Y-95473679D01*
X148820000Y-95026320D01*
X148798295Y-94805949D01*
X148712524Y-94523198D01*
X148573238Y-94262613D01*
X148550577Y-94235000D01*
X150896928Y-94235000D01*
X150900000Y-94964250D01*
X151058750Y-95123000D01*
X152273000Y-95123000D01*
X152273000Y-93758750D01*
X152114250Y-93600000D01*
X151535000Y-93596928D01*
X151410518Y-93609188D01*
X151290820Y-93645498D01*
X151180506Y-93704463D01*
X151083815Y-93783815D01*
X151004463Y-93880506D01*
X150945498Y-93990820D01*
X150909188Y-94110518D01*
X150896928Y-94235000D01*
X148550577Y-94235000D01*
X148385792Y-94034208D01*
X148157386Y-93846762D01*
X148080000Y-93805398D01*
X148080000Y-87804602D01*
X148157387Y-87763238D01*
X148385792Y-87575792D01*
X148550576Y-87375000D01*
X150896928Y-87375000D01*
X150909188Y-87499482D01*
X150945498Y-87619180D01*
X151004463Y-87729494D01*
X151083815Y-87826185D01*
X151180506Y-87905537D01*
X151290820Y-87964502D01*
X151410518Y-88000812D01*
X151535000Y-88013072D01*
X152114250Y-88010000D01*
X152273000Y-87851250D01*
X152273000Y-86487000D01*
X151058750Y-86487000D01*
X150900000Y-86645750D01*
X150896928Y-87375000D01*
X148550576Y-87375000D01*
X148573238Y-87347387D01*
X148712524Y-87086801D01*
X148798295Y-86804050D01*
X148820000Y-86583679D01*
X148820000Y-86136320D01*
X148798295Y-85915949D01*
X148712524Y-85633198D01*
X148573238Y-85372613D01*
X148550577Y-85345000D01*
X150896928Y-85345000D01*
X150900000Y-86074250D01*
X151058750Y-86233000D01*
X152273000Y-86233000D01*
X152273000Y-84868750D01*
X152114250Y-84710000D01*
X151535000Y-84706928D01*
X151410518Y-84719188D01*
X151290820Y-84755498D01*
X151180506Y-84814463D01*
X151083815Y-84893815D01*
X151004463Y-84990506D01*
X150945498Y-85100820D01*
X150909188Y-85220518D01*
X150896928Y-85345000D01*
X148550577Y-85345000D01*
X148385792Y-85144208D01*
X148157386Y-84956762D01*
X148080000Y-84915398D01*
X148080000Y-78914602D01*
X148157387Y-78873238D01*
X148385792Y-78685792D01*
X148550576Y-78485000D01*
X150896928Y-78485000D01*
X150909188Y-78609482D01*
X150945498Y-78729180D01*
X151004463Y-78839494D01*
X151083815Y-78936185D01*
X151180506Y-79015537D01*
X151290820Y-79074502D01*
X151410518Y-79110812D01*
X151535000Y-79123072D01*
X152114250Y-79120000D01*
X152273000Y-78961250D01*
X152273000Y-77597000D01*
X151058750Y-77597000D01*
X150900000Y-77755750D01*
X150896928Y-78485000D01*
X148550576Y-78485000D01*
X148573238Y-78457387D01*
X148712524Y-78196801D01*
X148798295Y-77914050D01*
X148820000Y-77693679D01*
X148820000Y-77246320D01*
X148798295Y-77025949D01*
X148712524Y-76743198D01*
X148573238Y-76482613D01*
X148550577Y-76455000D01*
X150896928Y-76455000D01*
X150900000Y-77184250D01*
X151058750Y-77343000D01*
X152273000Y-77343000D01*
X152273000Y-75978750D01*
X152114250Y-75820000D01*
X151535000Y-75816928D01*
X151410518Y-75829188D01*
X151290820Y-75865498D01*
X151180506Y-75924463D01*
X151083815Y-76003815D01*
X151004463Y-76100506D01*
X150945498Y-76210820D01*
X150909188Y-76330518D01*
X150896928Y-76455000D01*
X148550577Y-76455000D01*
X148385792Y-76254208D01*
X148157386Y-76066762D01*
X148080000Y-76025398D01*
X148080000Y-70024602D01*
X148157387Y-69983238D01*
X148385792Y-69795792D01*
X148471525Y-69691326D01*
X149211211Y-70431013D01*
X149235009Y-70460011D01*
X149350734Y-70554984D01*
X149482763Y-70625556D01*
X149626024Y-70669013D01*
X149737677Y-70680010D01*
X149737686Y-70680010D01*
X149775009Y-70683686D01*
X149812332Y-70680010D01*
X156252668Y-70680010D01*
X156289990Y-70683686D01*
X156327312Y-70680010D01*
X156327323Y-70680010D01*
X156438976Y-70669013D01*
X156582237Y-70625556D01*
X156714266Y-70554984D01*
X156720001Y-70550278D01*
X156720000Y-76025398D01*
X156642613Y-76066762D01*
X156414208Y-76254208D01*
X156226762Y-76482614D01*
X156210000Y-76513973D01*
X156193238Y-76482613D01*
X156005792Y-76254208D01*
X155777386Y-76066762D01*
X155516801Y-75927476D01*
X155234050Y-75841705D01*
X154940000Y-75812743D01*
X154645949Y-75841705D01*
X154363198Y-75927476D01*
X154102613Y-76066762D01*
X153874208Y-76254208D01*
X153869430Y-76260030D01*
X153854502Y-76210820D01*
X153795537Y-76100506D01*
X153716185Y-76003815D01*
X153619494Y-75924463D01*
X153509180Y-75865498D01*
X153389482Y-75829188D01*
X153265000Y-75816928D01*
X152685750Y-75820000D01*
X152527000Y-75978750D01*
X152527000Y-77343000D01*
X152547000Y-77343000D01*
X152547000Y-77597000D01*
X152527000Y-77597000D01*
X152527000Y-78961250D01*
X152685750Y-79120000D01*
X153265000Y-79123072D01*
X153389482Y-79110812D01*
X153509180Y-79074502D01*
X153619494Y-79015537D01*
X153716185Y-78936185D01*
X153795537Y-78839494D01*
X153854502Y-78729180D01*
X153869430Y-78679970D01*
X153874208Y-78685792D01*
X154102614Y-78873238D01*
X154363199Y-79012524D01*
X154645950Y-79098295D01*
X154940000Y-79127257D01*
X155234051Y-79098295D01*
X155516802Y-79012524D01*
X155777387Y-78873238D01*
X156005792Y-78685792D01*
X156193238Y-78457387D01*
X156210000Y-78426028D01*
X156226762Y-78457387D01*
X156414208Y-78685792D01*
X156642614Y-78873238D01*
X156720001Y-78914602D01*
X156720000Y-84915398D01*
X156642613Y-84956762D01*
X156414208Y-85144208D01*
X156226762Y-85372614D01*
X156210000Y-85403973D01*
X156193238Y-85372613D01*
X156005792Y-85144208D01*
X155777386Y-84956762D01*
X155516801Y-84817476D01*
X155234050Y-84731705D01*
X154940000Y-84702743D01*
X154645949Y-84731705D01*
X154363198Y-84817476D01*
X154102613Y-84956762D01*
X153874208Y-85144208D01*
X153869430Y-85150030D01*
X153854502Y-85100820D01*
X153795537Y-84990506D01*
X153716185Y-84893815D01*
X153619494Y-84814463D01*
X153509180Y-84755498D01*
X153389482Y-84719188D01*
X153265000Y-84706928D01*
X152685750Y-84710000D01*
X152527000Y-84868750D01*
X152527000Y-86233000D01*
X152547000Y-86233000D01*
X152547000Y-86487000D01*
X152527000Y-86487000D01*
X152527000Y-87851250D01*
X152685750Y-88010000D01*
X153265000Y-88013072D01*
X153389482Y-88000812D01*
X153509180Y-87964502D01*
X153619494Y-87905537D01*
X153716185Y-87826185D01*
X153795537Y-87729494D01*
X153854502Y-87619180D01*
X153869430Y-87569970D01*
X153874208Y-87575792D01*
X154102614Y-87763238D01*
X154363199Y-87902524D01*
X154645950Y-87988295D01*
X154940000Y-88017257D01*
X155234051Y-87988295D01*
X155516802Y-87902524D01*
X155777387Y-87763238D01*
X156005792Y-87575792D01*
X156193238Y-87347387D01*
X156210000Y-87316028D01*
X156226762Y-87347387D01*
X156414208Y-87575792D01*
X156642614Y-87763238D01*
X156720001Y-87804602D01*
X156720000Y-93805398D01*
X156642613Y-93846762D01*
X156414208Y-94034208D01*
X156226762Y-94262614D01*
X156210000Y-94293973D01*
X156193238Y-94262613D01*
X156005792Y-94034208D01*
X155777386Y-93846762D01*
X155516801Y-93707476D01*
X155234050Y-93621705D01*
X154940000Y-93592743D01*
X154645949Y-93621705D01*
X154363198Y-93707476D01*
X154102613Y-93846762D01*
X153874208Y-94034208D01*
X153869430Y-94040030D01*
X153854502Y-93990820D01*
X153795537Y-93880506D01*
X153716185Y-93783815D01*
X153619494Y-93704463D01*
X153509180Y-93645498D01*
X153389482Y-93609188D01*
X153265000Y-93596928D01*
X152685750Y-93600000D01*
X152527000Y-93758750D01*
X152527000Y-95123000D01*
X152547000Y-95123000D01*
X152547000Y-95377000D01*
X152527000Y-95377000D01*
X152527000Y-96741250D01*
X152685750Y-96900000D01*
X153265000Y-96903072D01*
X153389482Y-96890812D01*
X153509180Y-96854502D01*
X153619494Y-96795537D01*
X153716185Y-96716185D01*
X153795537Y-96619494D01*
X153854502Y-96509180D01*
X153869430Y-96459970D01*
X153874208Y-96465792D01*
X154102614Y-96653238D01*
X154363199Y-96792524D01*
X154645950Y-96878295D01*
X154940000Y-96907257D01*
X155234051Y-96878295D01*
X155516802Y-96792524D01*
X155777387Y-96653238D01*
X156005792Y-96465792D01*
X156193238Y-96237387D01*
X156210000Y-96206028D01*
X156226762Y-96237387D01*
X156414208Y-96465792D01*
X156642614Y-96653238D01*
X156720001Y-96694602D01*
X156720000Y-102695398D01*
X156642613Y-102736762D01*
X156414208Y-102924208D01*
X156226762Y-103152614D01*
X156210000Y-103183973D01*
X156193238Y-103152613D01*
X156005792Y-102924208D01*
X155777386Y-102736762D01*
X155516801Y-102597476D01*
X155234050Y-102511705D01*
X154940000Y-102482743D01*
X154645949Y-102511705D01*
X154363198Y-102597476D01*
X154102613Y-102736762D01*
X153874208Y-102924208D01*
X153869430Y-102930030D01*
X153854502Y-102880820D01*
X153795537Y-102770506D01*
X153716185Y-102673815D01*
X153619494Y-102594463D01*
X153509180Y-102535498D01*
X153389482Y-102499188D01*
X153265000Y-102486928D01*
X152685750Y-102490000D01*
X152527000Y-102648750D01*
X152527000Y-104013000D01*
X152547000Y-104013000D01*
X152547000Y-104267000D01*
X152527000Y-104267000D01*
X152527000Y-105631250D01*
X152685750Y-105790000D01*
X153265000Y-105793072D01*
X153389482Y-105780812D01*
X153509180Y-105744502D01*
X153619494Y-105685537D01*
X153716185Y-105606185D01*
X153795537Y-105509494D01*
X153854502Y-105399180D01*
X153869430Y-105349970D01*
X153874208Y-105355792D01*
X154102614Y-105543238D01*
X154363199Y-105682524D01*
X154645950Y-105768295D01*
X154940000Y-105797257D01*
X155234051Y-105768295D01*
X155516802Y-105682524D01*
X155777387Y-105543238D01*
X156005792Y-105355792D01*
X156193238Y-105127387D01*
X156210000Y-105096028D01*
X156226762Y-105127387D01*
X156414208Y-105355792D01*
X156642614Y-105543238D01*
X156903199Y-105682524D01*
X157185950Y-105768295D01*
X157480000Y-105797257D01*
X157774051Y-105768295D01*
X158056802Y-105682524D01*
X158317387Y-105543238D01*
X158545792Y-105355792D01*
X158710576Y-105155000D01*
X161056928Y-105155000D01*
X161069188Y-105279482D01*
X161105498Y-105399180D01*
X161164463Y-105509494D01*
X161243815Y-105606185D01*
X161340506Y-105685537D01*
X161450820Y-105744502D01*
X161570518Y-105780812D01*
X161695000Y-105793072D01*
X162274250Y-105790000D01*
X162433000Y-105631250D01*
X162433000Y-104267000D01*
X161218750Y-104267000D01*
X161060000Y-104425750D01*
X161056928Y-105155000D01*
X158710576Y-105155000D01*
X158733238Y-105127387D01*
X158872524Y-104866801D01*
X158958295Y-104584050D01*
X158980000Y-104363679D01*
X158980000Y-103916320D01*
X158958295Y-103695949D01*
X158872524Y-103413198D01*
X158733238Y-103152613D01*
X158710577Y-103125000D01*
X161056928Y-103125000D01*
X161060000Y-103854250D01*
X161218750Y-104013000D01*
X162433000Y-104013000D01*
X162433000Y-102648750D01*
X162274250Y-102490000D01*
X161695000Y-102486928D01*
X161570518Y-102499188D01*
X161450820Y-102535498D01*
X161340506Y-102594463D01*
X161243815Y-102673815D01*
X161164463Y-102770506D01*
X161105498Y-102880820D01*
X161069188Y-103000518D01*
X161056928Y-103125000D01*
X158710577Y-103125000D01*
X158545792Y-102924208D01*
X158317386Y-102736762D01*
X158240000Y-102695398D01*
X158240000Y-96694602D01*
X158317387Y-96653238D01*
X158545792Y-96465792D01*
X158710576Y-96265000D01*
X161056928Y-96265000D01*
X161069188Y-96389482D01*
X161105498Y-96509180D01*
X161164463Y-96619494D01*
X161243815Y-96716185D01*
X161340506Y-96795537D01*
X161450820Y-96854502D01*
X161570518Y-96890812D01*
X161695000Y-96903072D01*
X162274250Y-96900000D01*
X162433000Y-96741250D01*
X162433000Y-95377000D01*
X161218750Y-95377000D01*
X161060000Y-95535750D01*
X161056928Y-96265000D01*
X158710576Y-96265000D01*
X158733238Y-96237387D01*
X158872524Y-95976801D01*
X158958295Y-95694050D01*
X158980000Y-95473679D01*
X158980000Y-95026320D01*
X158958295Y-94805949D01*
X158872524Y-94523198D01*
X158733238Y-94262613D01*
X158710577Y-94235000D01*
X161056928Y-94235000D01*
X161060000Y-94964250D01*
X161218750Y-95123000D01*
X162433000Y-95123000D01*
X162433000Y-93758750D01*
X162274250Y-93600000D01*
X161695000Y-93596928D01*
X161570518Y-93609188D01*
X161450820Y-93645498D01*
X161340506Y-93704463D01*
X161243815Y-93783815D01*
X161164463Y-93880506D01*
X161105498Y-93990820D01*
X161069188Y-94110518D01*
X161056928Y-94235000D01*
X158710577Y-94235000D01*
X158545792Y-94034208D01*
X158317386Y-93846762D01*
X158240000Y-93805398D01*
X158240000Y-87804602D01*
X158317387Y-87763238D01*
X158545792Y-87575792D01*
X158710576Y-87375000D01*
X161056928Y-87375000D01*
X161069188Y-87499482D01*
X161105498Y-87619180D01*
X161164463Y-87729494D01*
X161243815Y-87826185D01*
X161340506Y-87905537D01*
X161450820Y-87964502D01*
X161570518Y-88000812D01*
X161695000Y-88013072D01*
X162274250Y-88010000D01*
X162433000Y-87851250D01*
X162433000Y-86487000D01*
X161218750Y-86487000D01*
X161060000Y-86645750D01*
X161056928Y-87375000D01*
X158710576Y-87375000D01*
X158733238Y-87347387D01*
X158872524Y-87086801D01*
X158958295Y-86804050D01*
X158980000Y-86583679D01*
X158980000Y-86136320D01*
X158958295Y-85915949D01*
X158872524Y-85633198D01*
X158733238Y-85372613D01*
X158710577Y-85345000D01*
X161056928Y-85345000D01*
X161060000Y-86074250D01*
X161218750Y-86233000D01*
X162433000Y-86233000D01*
X162433000Y-84868750D01*
X162274250Y-84710000D01*
X161695000Y-84706928D01*
X161570518Y-84719188D01*
X161450820Y-84755498D01*
X161340506Y-84814463D01*
X161243815Y-84893815D01*
X161164463Y-84990506D01*
X161105498Y-85100820D01*
X161069188Y-85220518D01*
X161056928Y-85345000D01*
X158710577Y-85345000D01*
X158545792Y-85144208D01*
X158317386Y-84956762D01*
X158240000Y-84915398D01*
X158240000Y-78914602D01*
X158317387Y-78873238D01*
X158545792Y-78685792D01*
X158710576Y-78485000D01*
X161056928Y-78485000D01*
X161069188Y-78609482D01*
X161105498Y-78729180D01*
X161164463Y-78839494D01*
X161243815Y-78936185D01*
X161340506Y-79015537D01*
X161450820Y-79074502D01*
X161570518Y-79110812D01*
X161695000Y-79123072D01*
X162274250Y-79120000D01*
X162433000Y-78961250D01*
X162433000Y-77597000D01*
X161218750Y-77597000D01*
X161060000Y-77755750D01*
X161056928Y-78485000D01*
X158710576Y-78485000D01*
X158733238Y-78457387D01*
X158872524Y-78196801D01*
X158958295Y-77914050D01*
X158980000Y-77693679D01*
X158980000Y-77246320D01*
X158958295Y-77025949D01*
X158872524Y-76743198D01*
X158733238Y-76482613D01*
X158710577Y-76455000D01*
X161056928Y-76455000D01*
X161060000Y-77184250D01*
X161218750Y-77343000D01*
X162433000Y-77343000D01*
X162433000Y-75978750D01*
X162274250Y-75820000D01*
X161695000Y-75816928D01*
X161570518Y-75829188D01*
X161450820Y-75865498D01*
X161340506Y-75924463D01*
X161243815Y-76003815D01*
X161164463Y-76100506D01*
X161105498Y-76210820D01*
X161069188Y-76330518D01*
X161056928Y-76455000D01*
X158710577Y-76455000D01*
X158545792Y-76254208D01*
X158317386Y-76066762D01*
X158240000Y-76025398D01*
X158240000Y-70024602D01*
X158317387Y-69983238D01*
X158545792Y-69795792D01*
X158631525Y-69691326D01*
X159371211Y-70431013D01*
X159395009Y-70460011D01*
X159510734Y-70554984D01*
X159642763Y-70625556D01*
X159786024Y-70669013D01*
X159897677Y-70680010D01*
X159897686Y-70680010D01*
X159935009Y-70683686D01*
X159972332Y-70680010D01*
X166412668Y-70680010D01*
X166449990Y-70683686D01*
X166487312Y-70680010D01*
X166487323Y-70680010D01*
X166598976Y-70669013D01*
X166742237Y-70625556D01*
X166874266Y-70554984D01*
X166880000Y-70550278D01*
X166880001Y-76025397D01*
X166802613Y-76066762D01*
X166574208Y-76254208D01*
X166386762Y-76482614D01*
X166370000Y-76513973D01*
X166353238Y-76482613D01*
X166165792Y-76254208D01*
X165937386Y-76066762D01*
X165676801Y-75927476D01*
X165394050Y-75841705D01*
X165100000Y-75812743D01*
X164805949Y-75841705D01*
X164523198Y-75927476D01*
X164262613Y-76066762D01*
X164034208Y-76254208D01*
X164029430Y-76260030D01*
X164014502Y-76210820D01*
X163955537Y-76100506D01*
X163876185Y-76003815D01*
X163779494Y-75924463D01*
X163669180Y-75865498D01*
X163549482Y-75829188D01*
X163425000Y-75816928D01*
X162845750Y-75820000D01*
X162687000Y-75978750D01*
X162687000Y-77343000D01*
X162707000Y-77343000D01*
X162707000Y-77597000D01*
X162687000Y-77597000D01*
X162687000Y-78961250D01*
X162845750Y-79120000D01*
X163425000Y-79123072D01*
X163549482Y-79110812D01*
X163669180Y-79074502D01*
X163779494Y-79015537D01*
X163876185Y-78936185D01*
X163955537Y-78839494D01*
X164014502Y-78729180D01*
X164029430Y-78679970D01*
X164034208Y-78685792D01*
X164262614Y-78873238D01*
X164523199Y-79012524D01*
X164805950Y-79098295D01*
X165100000Y-79127257D01*
X165394051Y-79098295D01*
X165676802Y-79012524D01*
X165937387Y-78873238D01*
X166165792Y-78685792D01*
X166353238Y-78457387D01*
X166370000Y-78426028D01*
X166386762Y-78457387D01*
X166574208Y-78685792D01*
X166802614Y-78873238D01*
X166880000Y-78914602D01*
X166880001Y-84915397D01*
X166802613Y-84956762D01*
X166574208Y-85144208D01*
X166386762Y-85372614D01*
X166370000Y-85403973D01*
X166353238Y-85372613D01*
X166165792Y-85144208D01*
X165937386Y-84956762D01*
X165676801Y-84817476D01*
X165394050Y-84731705D01*
X165100000Y-84702743D01*
X164805949Y-84731705D01*
X164523198Y-84817476D01*
X164262613Y-84956762D01*
X164034208Y-85144208D01*
X164029430Y-85150030D01*
X164014502Y-85100820D01*
X163955537Y-84990506D01*
X163876185Y-84893815D01*
X163779494Y-84814463D01*
X163669180Y-84755498D01*
X163549482Y-84719188D01*
X163425000Y-84706928D01*
X162845750Y-84710000D01*
X162687000Y-84868750D01*
X162687000Y-86233000D01*
X162707000Y-86233000D01*
X162707000Y-86487000D01*
X162687000Y-86487000D01*
X162687000Y-87851250D01*
X162845750Y-88010000D01*
X163425000Y-88013072D01*
X163549482Y-88000812D01*
X163669180Y-87964502D01*
X163779494Y-87905537D01*
X163876185Y-87826185D01*
X163955537Y-87729494D01*
X164014502Y-87619180D01*
X164029430Y-87569970D01*
X164034208Y-87575792D01*
X164262614Y-87763238D01*
X164523199Y-87902524D01*
X164805950Y-87988295D01*
X165100000Y-88017257D01*
X165394051Y-87988295D01*
X165676802Y-87902524D01*
X165937387Y-87763238D01*
X166165792Y-87575792D01*
X166353238Y-87347387D01*
X166370000Y-87316028D01*
X166386762Y-87347387D01*
X166574208Y-87575792D01*
X166802614Y-87763238D01*
X166880000Y-87804602D01*
X166880001Y-93805397D01*
X166802613Y-93846762D01*
X166574208Y-94034208D01*
X166386762Y-94262614D01*
X166370000Y-94293973D01*
X166353238Y-94262613D01*
X166165792Y-94034208D01*
X165937386Y-93846762D01*
X165676801Y-93707476D01*
X165394050Y-93621705D01*
X165100000Y-93592743D01*
X164805949Y-93621705D01*
X164523198Y-93707476D01*
X164262613Y-93846762D01*
X164034208Y-94034208D01*
X164029430Y-94040030D01*
X164014502Y-93990820D01*
X163955537Y-93880506D01*
X163876185Y-93783815D01*
X163779494Y-93704463D01*
X163669180Y-93645498D01*
X163549482Y-93609188D01*
X163425000Y-93596928D01*
X162845750Y-93600000D01*
X162687000Y-93758750D01*
X162687000Y-95123000D01*
X162707000Y-95123000D01*
X162707000Y-95377000D01*
X162687000Y-95377000D01*
X162687000Y-96741250D01*
X162845750Y-96900000D01*
X163425000Y-96903072D01*
X163549482Y-96890812D01*
X163669180Y-96854502D01*
X163779494Y-96795537D01*
X163876185Y-96716185D01*
X163955537Y-96619494D01*
X164014502Y-96509180D01*
X164029430Y-96459970D01*
X164034208Y-96465792D01*
X164262614Y-96653238D01*
X164523199Y-96792524D01*
X164805950Y-96878295D01*
X165100000Y-96907257D01*
X165394051Y-96878295D01*
X165676802Y-96792524D01*
X165937387Y-96653238D01*
X166165792Y-96465792D01*
X166353238Y-96237387D01*
X166370000Y-96206028D01*
X166386762Y-96237387D01*
X166574208Y-96465792D01*
X166802614Y-96653238D01*
X166880000Y-96694602D01*
X166880001Y-102695397D01*
X166802613Y-102736762D01*
X166574208Y-102924208D01*
X166386762Y-103152614D01*
X166370000Y-103183973D01*
X166353238Y-103152613D01*
X166165792Y-102924208D01*
X165937386Y-102736762D01*
X165676801Y-102597476D01*
X165394050Y-102511705D01*
X165100000Y-102482743D01*
X164805949Y-102511705D01*
X164523198Y-102597476D01*
X164262613Y-102736762D01*
X164034208Y-102924208D01*
X164029430Y-102930030D01*
X164014502Y-102880820D01*
X163955537Y-102770506D01*
X163876185Y-102673815D01*
X163779494Y-102594463D01*
X163669180Y-102535498D01*
X163549482Y-102499188D01*
X163425000Y-102486928D01*
X162845750Y-102490000D01*
X162687000Y-102648750D01*
X162687000Y-104013000D01*
X162707000Y-104013000D01*
X162707000Y-104267000D01*
X162687000Y-104267000D01*
X162687000Y-105631250D01*
X162845750Y-105790000D01*
X163425000Y-105793072D01*
X163549482Y-105780812D01*
X163669180Y-105744502D01*
X163779494Y-105685537D01*
X163876185Y-105606185D01*
X163955537Y-105509494D01*
X164014502Y-105399180D01*
X164029430Y-105349970D01*
X164034208Y-105355792D01*
X164262614Y-105543238D01*
X164523199Y-105682524D01*
X164805950Y-105768295D01*
X165100000Y-105797257D01*
X165394051Y-105768295D01*
X165676802Y-105682524D01*
X165937387Y-105543238D01*
X166165792Y-105355792D01*
X166353238Y-105127387D01*
X166370000Y-105096028D01*
X166386762Y-105127387D01*
X166574208Y-105355792D01*
X166802614Y-105543238D01*
X167063199Y-105682524D01*
X167345950Y-105768295D01*
X167640000Y-105797257D01*
X167934051Y-105768295D01*
X168216802Y-105682524D01*
X168477387Y-105543238D01*
X168705792Y-105355792D01*
X168893238Y-105127387D01*
X169032524Y-104866801D01*
X169118295Y-104584050D01*
X169140000Y-104363679D01*
X169140000Y-103916320D01*
X169118295Y-103695949D01*
X169032524Y-103413198D01*
X168893238Y-103152613D01*
X168705792Y-102924208D01*
X168477386Y-102736762D01*
X168400000Y-102695398D01*
X168400000Y-96694602D01*
X168477387Y-96653238D01*
X168705792Y-96465792D01*
X168893238Y-96237387D01*
X169032524Y-95976801D01*
X169118295Y-95694050D01*
X169140000Y-95473679D01*
X169140000Y-95026320D01*
X169118295Y-94805949D01*
X169032524Y-94523198D01*
X168893238Y-94262613D01*
X168705792Y-94034208D01*
X168477386Y-93846762D01*
X168400000Y-93805398D01*
X168400000Y-87804602D01*
X168477387Y-87763238D01*
X168705792Y-87575792D01*
X168893238Y-87347387D01*
X169032524Y-87086801D01*
X169118295Y-86804050D01*
X169140000Y-86583679D01*
X169140000Y-86136320D01*
X169118295Y-85915949D01*
X169032524Y-85633198D01*
X168893238Y-85372613D01*
X168705792Y-85144208D01*
X168477386Y-84956762D01*
X168400000Y-84915398D01*
X168400000Y-78914602D01*
X168477387Y-78873238D01*
X168705792Y-78685792D01*
X168893238Y-78457387D01*
X169032524Y-78196801D01*
X169118295Y-77914050D01*
X169140000Y-77693679D01*
X169140000Y-77246320D01*
X169118295Y-77025949D01*
X169032524Y-76743198D01*
X168893238Y-76482613D01*
X168705792Y-76254208D01*
X168477386Y-76066762D01*
X168400000Y-76025398D01*
X168400000Y-70024602D01*
X168477387Y-69983238D01*
X168705792Y-69795792D01*
X168893238Y-69567387D01*
X169032524Y-69306801D01*
X169118295Y-69024050D01*
X169140000Y-68803679D01*
X169140000Y-68356320D01*
X169118295Y-68135949D01*
X169032524Y-67853198D01*
X168893238Y-67592613D01*
X168705792Y-67364208D01*
X168477386Y-67176762D01*
X168216801Y-67037476D01*
X167934050Y-66951705D01*
X167640000Y-66922743D01*
X167345949Y-66951705D01*
X167063198Y-67037476D01*
X166802613Y-67176762D01*
X166574208Y-67364208D01*
X166386762Y-67592614D01*
X166370000Y-67623973D01*
X166353238Y-67592613D01*
X166165792Y-67364208D01*
X165937386Y-67176762D01*
X165676801Y-67037476D01*
X165394050Y-66951705D01*
X165100000Y-66922743D01*
X164805949Y-66951705D01*
X164523198Y-67037476D01*
X164262613Y-67176762D01*
X164034208Y-67364208D01*
X164029430Y-67370030D01*
X164014502Y-67320820D01*
X163955537Y-67210506D01*
X163876185Y-67113815D01*
X163779494Y-67034463D01*
X163669180Y-66975498D01*
X163549482Y-66939188D01*
X163425000Y-66926928D01*
X162845750Y-66930000D01*
X162687000Y-67088750D01*
X162687000Y-68453000D01*
X162707000Y-68453000D01*
X162707000Y-68707000D01*
X162687000Y-68707000D01*
X162687000Y-68727000D01*
X162433000Y-68727000D01*
X162433000Y-68707000D01*
X161218750Y-68707000D01*
X161060000Y-68865750D01*
X161058760Y-69160010D01*
X160249812Y-69160010D01*
X159158804Y-68069003D01*
X159135001Y-68039999D01*
X159019276Y-67945026D01*
X158887247Y-67874454D01*
X158878133Y-67871689D01*
X158872524Y-67853198D01*
X158733238Y-67592613D01*
X158710577Y-67565000D01*
X161056928Y-67565000D01*
X161060000Y-68294250D01*
X161218750Y-68453000D01*
X162433000Y-68453000D01*
X162433000Y-67088750D01*
X162274250Y-66930000D01*
X161695000Y-66926928D01*
X161570518Y-66939188D01*
X161450820Y-66975498D01*
X161340506Y-67034463D01*
X161243815Y-67113815D01*
X161164463Y-67210506D01*
X161105498Y-67320820D01*
X161069188Y-67440518D01*
X161056928Y-67565000D01*
X158710577Y-67565000D01*
X158545792Y-67364208D01*
X158317386Y-67176762D01*
X158056801Y-67037476D01*
X157774050Y-66951705D01*
X157480000Y-66922743D01*
X157185949Y-66951705D01*
X156903198Y-67037476D01*
X156642613Y-67176762D01*
X156414208Y-67364208D01*
X156226762Y-67592614D01*
X156210000Y-67623973D01*
X156193238Y-67592613D01*
X156005792Y-67364208D01*
X155777386Y-67176762D01*
X155516801Y-67037476D01*
X155234050Y-66951705D01*
X154940000Y-66922743D01*
X154645949Y-66951705D01*
X154363198Y-67037476D01*
X154102613Y-67176762D01*
X153874208Y-67364208D01*
X153869430Y-67370030D01*
X153854502Y-67320820D01*
X153795537Y-67210506D01*
X153716185Y-67113815D01*
X153619494Y-67034463D01*
X153509180Y-66975498D01*
X153389482Y-66939188D01*
X153265000Y-66926928D01*
X152685750Y-66930000D01*
X152527000Y-67088750D01*
X152527000Y-68453000D01*
X152547000Y-68453000D01*
X152547000Y-68707000D01*
X152527000Y-68707000D01*
X152527000Y-68727000D01*
X152273000Y-68727000D01*
X152273000Y-68707000D01*
X151058750Y-68707000D01*
X150900000Y-68865750D01*
X150898760Y-69160010D01*
X150089812Y-69160010D01*
X148998804Y-68069003D01*
X148975001Y-68039999D01*
X148859276Y-67945026D01*
X148727247Y-67874454D01*
X148718133Y-67871689D01*
X148712524Y-67853198D01*
X148573238Y-67592613D01*
X148550577Y-67565000D01*
X150896928Y-67565000D01*
X150900000Y-68294250D01*
X151058750Y-68453000D01*
X152273000Y-68453000D01*
X152273000Y-67088750D01*
X152114250Y-66930000D01*
X151535000Y-66926928D01*
X151410518Y-66939188D01*
X151290820Y-66975498D01*
X151180506Y-67034463D01*
X151083815Y-67113815D01*
X151004463Y-67210506D01*
X150945498Y-67320820D01*
X150909188Y-67440518D01*
X150896928Y-67565000D01*
X148550577Y-67565000D01*
X148385792Y-67364208D01*
X148157386Y-67176762D01*
X147896801Y-67037476D01*
X147614050Y-66951705D01*
X147320000Y-66922743D01*
X147025949Y-66951705D01*
X146941979Y-66977177D01*
X142199126Y-62234324D01*
X162819000Y-62234324D01*
X162819000Y-62733676D01*
X162916418Y-63223432D01*
X163107512Y-63684773D01*
X163384937Y-64099968D01*
X163738032Y-64453063D01*
X164153227Y-64730488D01*
X164614568Y-64921582D01*
X165104324Y-65019000D01*
X165603676Y-65019000D01*
X166093432Y-64921582D01*
X166554773Y-64730488D01*
X166969968Y-64453063D01*
X167323063Y-64099968D01*
X167600488Y-63684773D01*
X167791582Y-63223432D01*
X167889000Y-62733676D01*
X167889000Y-62234324D01*
X167791582Y-61744568D01*
X167600488Y-61283227D01*
X167323063Y-60868032D01*
X166969968Y-60514937D01*
X166554773Y-60237512D01*
X166093432Y-60046418D01*
X165603676Y-59949000D01*
X165104324Y-59949000D01*
X164614568Y-60046418D01*
X164153227Y-60237512D01*
X163738032Y-60514937D01*
X163384937Y-60868032D01*
X163107512Y-61283227D01*
X162916418Y-61744568D01*
X162819000Y-62234324D01*
X142199126Y-62234324D01*
X141683804Y-61719003D01*
X141660001Y-61689999D01*
X141544276Y-61595026D01*
X141412247Y-61524454D01*
X141268986Y-61480997D01*
X141157333Y-61470000D01*
X141157322Y-61470000D01*
X141120000Y-61466324D01*
X141082678Y-61470000D01*
X137110901Y-61470000D01*
X137088932Y-61428899D01*
X136909608Y-61210392D01*
X136691101Y-61031068D01*
X136441808Y-60897818D01*
X136171309Y-60815764D01*
X135960492Y-60795000D01*
X135819508Y-60795000D01*
X135608691Y-60815764D01*
X135564093Y-60829292D01*
X135328803Y-60594002D01*
X135305000Y-60564998D01*
X135189275Y-60470025D01*
X135057246Y-60399453D01*
X134913985Y-60355996D01*
X134802332Y-60344999D01*
X134802321Y-60344999D01*
X134764999Y-60341323D01*
X134727677Y-60344999D01*
X121972126Y-60344999D01*
X121934801Y-60341323D01*
X121897476Y-60344999D01*
X121897468Y-60344999D01*
X121785815Y-60355996D01*
X121642554Y-60399453D01*
X121510525Y-60470025D01*
X121394800Y-60564998D01*
X121371002Y-60593996D01*
X120018300Y-61946699D01*
X119935177Y-61921484D01*
X119715019Y-61899800D01*
X119044981Y-61899800D01*
X118824823Y-61921484D01*
X118542336Y-62007175D01*
X118281994Y-62146331D01*
X118108000Y-62289125D01*
X118108000Y-59981325D01*
X118111676Y-59944000D01*
X118108000Y-59906675D01*
X118108000Y-59906667D01*
X118097003Y-59795014D01*
X118053546Y-59651753D01*
X117982974Y-59519724D01*
X117888001Y-59403999D01*
X117859002Y-59380201D01*
X117812802Y-59334000D01*
X169774000Y-59334000D01*
X169774001Y-115164000D01*
X70764000Y-115164000D01*
X70764000Y-111764324D01*
X71379000Y-111764324D01*
X71379000Y-112263676D01*
X71476418Y-112753432D01*
X71667512Y-113214773D01*
X71944937Y-113629968D01*
X72298032Y-113983063D01*
X72713227Y-114260488D01*
X73174568Y-114451582D01*
X73664324Y-114549000D01*
X74163676Y-114549000D01*
X74653432Y-114451582D01*
X75114773Y-114260488D01*
X75529968Y-113983063D01*
X75883063Y-113629968D01*
X76160488Y-113214773D01*
X76351582Y-112753432D01*
X76449000Y-112263676D01*
X76449000Y-111764324D01*
X76351582Y-111274568D01*
X76160488Y-110813227D01*
X75883063Y-110398032D01*
X75529968Y-110044937D01*
X75114773Y-109767512D01*
X74653432Y-109576418D01*
X74163676Y-109479000D01*
X73664324Y-109479000D01*
X73174568Y-109576418D01*
X72713227Y-109767512D01*
X72298032Y-110044937D01*
X71944937Y-110398032D01*
X71667512Y-110813227D01*
X71476418Y-111274568D01*
X71379000Y-111764324D01*
X70764000Y-111764324D01*
X70764000Y-62234324D01*
X71379000Y-62234324D01*
X71379000Y-62733676D01*
X71476418Y-63223432D01*
X71667512Y-63684773D01*
X71944937Y-64099968D01*
X72298032Y-64453063D01*
X72713227Y-64730488D01*
X73174568Y-64921582D01*
X73664324Y-65019000D01*
X74163676Y-65019000D01*
X74653432Y-64921582D01*
X75114773Y-64730488D01*
X75529968Y-64453063D01*
X75883063Y-64099968D01*
X76160488Y-63684773D01*
X76351582Y-63223432D01*
X76449000Y-62733676D01*
X76449000Y-62234324D01*
X76351582Y-61744568D01*
X76160488Y-61283227D01*
X75883063Y-60868032D01*
X75529968Y-60514937D01*
X75114773Y-60237512D01*
X74653432Y-60046418D01*
X74163676Y-59949000D01*
X73664324Y-59949000D01*
X73174568Y-60046418D01*
X72713227Y-60237512D01*
X72298032Y-60514937D01*
X71944937Y-60868032D01*
X71667512Y-61283227D01*
X71476418Y-61744568D01*
X71379000Y-62234324D01*
X70764000Y-62234324D01*
X70764000Y-59334000D01*
X81116199Y-59334000D01*
X73310997Y-67139203D01*
X73310997Y-67139203D01*
G37*
X73310997Y-67139203D02*
X73236112Y-67116487D01*
X73017951Y-67095000D01*
X72872051Y-67095000D01*
X72653890Y-67116487D01*
X72373967Y-67201401D01*
X72115987Y-67339294D01*
X71889867Y-67524866D01*
X71704295Y-67750986D01*
X71566402Y-68008966D01*
X71481488Y-68288889D01*
X71452816Y-68580000D01*
X71481488Y-68871111D01*
X71566402Y-69151034D01*
X71704295Y-69409014D01*
X71889867Y-69635134D01*
X71919688Y-69659607D01*
X71850821Y-69680498D01*
X71740507Y-69739463D01*
X71643816Y-69818815D01*
X71564464Y-69915506D01*
X71505499Y-70025820D01*
X71469189Y-70145518D01*
X71456929Y-70270000D01*
X71456929Y-71970000D01*
X71469189Y-72094482D01*
X71505499Y-72214180D01*
X71564464Y-72324494D01*
X71643816Y-72421185D01*
X71657656Y-72432543D01*
X71259003Y-72831197D01*
X71229999Y-72855000D01*
X71197175Y-72894997D01*
X71135026Y-72970725D01*
X71082390Y-73069199D01*
X71064454Y-73102755D01*
X71020997Y-73246016D01*
X71010000Y-73357669D01*
X71010000Y-73357679D01*
X71006324Y-73395001D01*
X71010000Y-73432323D01*
X71010001Y-88152667D01*
X71006324Y-88189999D01*
X71010001Y-88227332D01*
X71020998Y-88338985D01*
X71029532Y-88367117D01*
X71064454Y-88482245D01*
X71135026Y-88614275D01*
X71197992Y-88690998D01*
X71230000Y-88730000D01*
X71258996Y-88753796D01*
X71281200Y-88776001D01*
X71305000Y-88805001D01*
X71420725Y-88899974D01*
X71456929Y-88919326D01*
X71456929Y-89115000D01*
X71469189Y-89239482D01*
X71505499Y-89359180D01*
X71564464Y-89469494D01*
X71643816Y-89566185D01*
X71657656Y-89577543D01*
X71259003Y-89976197D01*
X71229999Y-90000000D01*
X71180239Y-90060633D01*
X71135026Y-90115725D01*
X71087899Y-90203893D01*
X71064454Y-90247755D01*
X71020997Y-90391016D01*
X71010000Y-90502669D01*
X71010000Y-90502679D01*
X71006324Y-90540001D01*
X71010000Y-90577323D01*
X71010001Y-105297667D01*
X71006324Y-105334999D01*
X71010001Y-105372332D01*
X71019836Y-105472182D01*
X71020998Y-105483984D01*
X71064454Y-105627245D01*
X71135026Y-105759275D01*
X71206201Y-105846001D01*
X71230000Y-105875000D01*
X71258996Y-105898796D01*
X71281200Y-105921001D01*
X71305000Y-105950001D01*
X71420725Y-106044974D01*
X71456929Y-106064326D01*
X71456929Y-106260000D01*
X71469189Y-106384482D01*
X71505499Y-106504180D01*
X71564464Y-106614494D01*
X71643816Y-106711185D01*
X71740507Y-106790537D01*
X71850821Y-106849502D01*
X71970519Y-106885812D01*
X72095001Y-106898072D01*
X72290675Y-106898072D01*
X72310027Y-106934276D01*
X72349110Y-106981898D01*
X72405000Y-107050001D01*
X72434004Y-107073804D01*
X72500397Y-107140197D01*
X72524200Y-107169201D01*
X72639925Y-107264174D01*
X72771954Y-107334746D01*
X72915215Y-107378203D01*
X73026868Y-107389200D01*
X73026878Y-107389200D01*
X73064200Y-107392876D01*
X73101523Y-107389200D01*
X74540484Y-107389200D01*
X74524226Y-107400063D01*
X74380063Y-107544226D01*
X74266795Y-107713744D01*
X74188774Y-107902102D01*
X74149000Y-108102061D01*
X74149000Y-108305939D01*
X74188774Y-108505898D01*
X74266795Y-108694256D01*
X74380063Y-108863774D01*
X74524226Y-109007937D01*
X74693744Y-109121205D01*
X74882102Y-109199226D01*
X75082061Y-109239000D01*
X75144199Y-109239000D01*
X80608204Y-114703007D01*
X80631998Y-114732000D01*
X80660991Y-114755794D01*
X80660995Y-114755798D01*
X80699291Y-114787226D01*
X80747723Y-114826973D01*
X80879752Y-114897545D01*
X81023013Y-114941002D01*
X81134666Y-114951999D01*
X81134675Y-114951999D01*
X81171998Y-114955675D01*
X81209321Y-114951999D01*
X107004679Y-114951999D01*
X107042001Y-114955675D01*
X107079323Y-114951999D01*
X107079334Y-114951999D01*
X107190987Y-114941002D01*
X107334248Y-114897545D01*
X107466226Y-114827000D01*
X107543939Y-114827000D01*
X107743898Y-114787226D01*
X107932256Y-114709205D01*
X108101774Y-114595937D01*
X108245937Y-114451774D01*
X108359205Y-114282256D01*
X108437226Y-114093898D01*
X108477000Y-113893939D01*
X108477000Y-113690061D01*
X108437226Y-113490102D01*
X108359205Y-113301744D01*
X108245937Y-113132226D01*
X108118311Y-113004600D01*
X109195377Y-113004600D01*
X109223084Y-113285909D01*
X109305138Y-113556408D01*
X109438388Y-113805701D01*
X109617712Y-114024208D01*
X109836219Y-114203532D01*
X110085512Y-114336782D01*
X110356011Y-114418836D01*
X110566828Y-114439600D01*
X110707812Y-114439600D01*
X110918629Y-114418836D01*
X111189128Y-114336782D01*
X111438421Y-114203532D01*
X111656928Y-114024208D01*
X111836252Y-113805701D01*
X111969502Y-113556408D01*
X112051556Y-113285909D01*
X112079263Y-113004600D01*
X112051556Y-112723291D01*
X111969502Y-112452792D01*
X111836252Y-112203499D01*
X111656928Y-111984992D01*
X111438421Y-111805668D01*
X111189128Y-111672418D01*
X110918629Y-111590364D01*
X110707812Y-111569600D01*
X110566828Y-111569600D01*
X110356011Y-111590364D01*
X110085512Y-111672418D01*
X109836219Y-111805668D01*
X109617712Y-111984992D01*
X109438388Y-112203499D01*
X109305138Y-112452792D01*
X109223084Y-112723291D01*
X109195377Y-113004600D01*
X108118311Y-113004600D01*
X108101774Y-112988063D01*
X107932256Y-112874795D01*
X107743898Y-112796774D01*
X107543939Y-112757000D01*
X107340061Y-112757000D01*
X107140102Y-112796774D01*
X107097730Y-112814325D01*
X107089205Y-112793744D01*
X106975937Y-112624226D01*
X106831774Y-112480063D01*
X106662256Y-112366795D01*
X106473898Y-112288774D01*
X106273939Y-112249000D01*
X106070061Y-112249000D01*
X105870102Y-112288774D01*
X105762191Y-112333473D01*
X105834527Y-112165357D01*
X105856358Y-112068226D01*
X105735217Y-111836200D01*
X104267000Y-111836200D01*
X104267000Y-111856200D01*
X104013000Y-111856200D01*
X104013000Y-111836200D01*
X102544783Y-111836200D01*
X102423642Y-112068226D01*
X102445473Y-112165357D01*
X102562002Y-112436181D01*
X102622428Y-112524000D01*
X83372802Y-112524000D01*
X79013000Y-108164199D01*
X79013000Y-108102061D01*
X78973226Y-107902102D01*
X78895205Y-107713744D01*
X78781937Y-107544226D01*
X78637774Y-107400063D01*
X78621516Y-107389200D01*
X79393931Y-107389200D01*
X79346795Y-107459744D01*
X79268774Y-107648102D01*
X79229000Y-107848061D01*
X79229000Y-108051939D01*
X79268774Y-108251898D01*
X79346795Y-108440256D01*
X79460063Y-108609774D01*
X79604226Y-108753937D01*
X79773744Y-108867205D01*
X79962102Y-108945226D01*
X80162061Y-108985000D01*
X80224199Y-108985000D01*
X80716201Y-109477003D01*
X80739999Y-109506001D01*
X80768997Y-109529799D01*
X80855723Y-109600974D01*
X80987753Y-109671546D01*
X81131014Y-109715003D01*
X81242667Y-109726000D01*
X81242677Y-109726000D01*
X81280000Y-109729676D01*
X81317322Y-109726000D01*
X90228289Y-109726000D01*
X90272226Y-109769937D01*
X90441744Y-109883205D01*
X90630102Y-109961226D01*
X90830061Y-110001000D01*
X91033939Y-110001000D01*
X91233898Y-109961226D01*
X91422256Y-109883205D01*
X91591774Y-109769937D01*
X91735937Y-109625774D01*
X91801116Y-109528226D01*
X102423642Y-109528226D01*
X102445473Y-109625357D01*
X102562002Y-109896181D01*
X102729127Y-110139068D01*
X102940426Y-110344683D01*
X103086142Y-110439200D01*
X102940426Y-110533717D01*
X102729127Y-110739332D01*
X102562002Y-110982219D01*
X102445473Y-111253043D01*
X102423642Y-111350174D01*
X102544783Y-111582200D01*
X104013000Y-111582200D01*
X104013000Y-109296200D01*
X104267000Y-109296200D01*
X104267000Y-111582200D01*
X105735217Y-111582200D01*
X105856358Y-111350174D01*
X105834527Y-111253043D01*
X105717998Y-110982219D01*
X105550873Y-110739332D01*
X105339574Y-110533717D01*
X105193858Y-110439200D01*
X105339574Y-110344683D01*
X105550873Y-110139068D01*
X105717998Y-109896181D01*
X105834527Y-109625357D01*
X105856358Y-109528226D01*
X105735217Y-109296200D01*
X104267000Y-109296200D01*
X104013000Y-109296200D01*
X102544783Y-109296200D01*
X102423642Y-109528226D01*
X91801116Y-109528226D01*
X91849205Y-109456256D01*
X91927226Y-109267898D01*
X91967000Y-109067939D01*
X91967000Y-108864061D01*
X91927226Y-108664102D01*
X91849205Y-108475744D01*
X91735937Y-108306226D01*
X91591774Y-108162063D01*
X91422256Y-108048795D01*
X91401675Y-108040270D01*
X91419226Y-107997898D01*
X91459000Y-107797939D01*
X91459000Y-107594061D01*
X91419226Y-107394102D01*
X91417196Y-107389200D01*
X102585584Y-107389200D01*
X102626531Y-107465806D01*
X102813803Y-107693997D01*
X103041994Y-107881269D01*
X103081353Y-107902307D01*
X102940426Y-107993717D01*
X102729127Y-108199332D01*
X102562002Y-108442219D01*
X102445473Y-108713043D01*
X102423642Y-108810174D01*
X102544783Y-109042200D01*
X104013000Y-109042200D01*
X104013000Y-109022200D01*
X104267000Y-109022200D01*
X104267000Y-109042200D01*
X105735217Y-109042200D01*
X105856358Y-108810174D01*
X105834527Y-108713043D01*
X105717998Y-108442219D01*
X105550873Y-108199332D01*
X105339574Y-107993717D01*
X105198647Y-107902307D01*
X105238006Y-107881269D01*
X105466197Y-107693997D01*
X105483685Y-107672687D01*
X106139815Y-108328818D01*
X106163609Y-108357811D01*
X106192602Y-108381605D01*
X106192606Y-108381609D01*
X106216900Y-108401546D01*
X106279334Y-108452784D01*
X106411363Y-108523356D01*
X106554624Y-108566813D01*
X106666277Y-108577810D01*
X106666286Y-108577810D01*
X106703609Y-108581486D01*
X106740932Y-108577810D01*
X111432997Y-108577810D01*
X111470330Y-108581487D01*
X111507663Y-108577810D01*
X112383594Y-108577810D01*
X112357760Y-108616473D01*
X112249587Y-108877626D01*
X112194440Y-109154865D01*
X112194440Y-109437535D01*
X112249587Y-109714774D01*
X112357760Y-109975927D01*
X112514803Y-110210959D01*
X112714681Y-110410837D01*
X112949713Y-110567880D01*
X113210866Y-110676053D01*
X113488105Y-110731200D01*
X113770775Y-110731200D01*
X114048014Y-110676053D01*
X114309167Y-110567880D01*
X114544199Y-110410837D01*
X114744077Y-110210959D01*
X114901120Y-109975927D01*
X115009293Y-109714774D01*
X115064440Y-109437535D01*
X115064440Y-109154865D01*
X115009293Y-108877626D01*
X114901120Y-108616473D01*
X114875286Y-108577810D01*
X117735460Y-108577810D01*
X117727375Y-108592936D01*
X117641684Y-108875423D01*
X117612749Y-109169200D01*
X117641684Y-109462977D01*
X117727375Y-109745464D01*
X117866531Y-110005806D01*
X118053803Y-110233997D01*
X118281994Y-110421269D01*
X118315540Y-110439200D01*
X118281994Y-110457131D01*
X118053803Y-110644403D01*
X117866531Y-110872594D01*
X117727375Y-111132936D01*
X117641684Y-111415423D01*
X117612749Y-111709200D01*
X117641684Y-112002977D01*
X117727375Y-112285464D01*
X117866531Y-112545806D01*
X118053803Y-112773997D01*
X118281994Y-112961269D01*
X118542336Y-113100425D01*
X118824823Y-113186116D01*
X119044981Y-113207800D01*
X119715019Y-113207800D01*
X119935177Y-113186116D01*
X120217664Y-113100425D01*
X120478006Y-112961269D01*
X120706197Y-112773997D01*
X120893469Y-112545806D01*
X121032625Y-112285464D01*
X121118316Y-112002977D01*
X121141821Y-111764324D01*
X162819000Y-111764324D01*
X162819000Y-112263676D01*
X162916418Y-112753432D01*
X163107512Y-113214773D01*
X163384937Y-113629968D01*
X163738032Y-113983063D01*
X164153227Y-114260488D01*
X164614568Y-114451582D01*
X165104324Y-114549000D01*
X165603676Y-114549000D01*
X166093432Y-114451582D01*
X166554773Y-114260488D01*
X166969968Y-113983063D01*
X167323063Y-113629968D01*
X167600488Y-113214773D01*
X167791582Y-112753432D01*
X167889000Y-112263676D01*
X167889000Y-111764324D01*
X167791582Y-111274568D01*
X167600488Y-110813227D01*
X167323063Y-110398032D01*
X166969968Y-110044937D01*
X166554773Y-109767512D01*
X166093432Y-109576418D01*
X165603676Y-109479000D01*
X165104324Y-109479000D01*
X164614568Y-109576418D01*
X164153227Y-109767512D01*
X163738032Y-110044937D01*
X163384937Y-110398032D01*
X163107512Y-110813227D01*
X162916418Y-111274568D01*
X162819000Y-111764324D01*
X121141821Y-111764324D01*
X121147251Y-111709200D01*
X121118316Y-111415423D01*
X121032625Y-111132936D01*
X120893469Y-110872594D01*
X120706197Y-110644403D01*
X120478006Y-110457131D01*
X120444460Y-110439200D01*
X120478006Y-110421269D01*
X120706197Y-110233997D01*
X120893469Y-110005806D01*
X121032625Y-109745464D01*
X121118316Y-109462977D01*
X121147251Y-109169200D01*
X121118316Y-108875423D01*
X121032625Y-108592936D01*
X121024540Y-108577810D01*
X124554868Y-108577810D01*
X124592190Y-108581486D01*
X124629512Y-108577810D01*
X124629523Y-108577810D01*
X124741176Y-108566813D01*
X124884437Y-108523356D01*
X125016466Y-108452784D01*
X125132191Y-108357811D01*
X125155994Y-108328807D01*
X126455762Y-107029039D01*
X126878096Y-107029039D01*
X126918754Y-107163087D01*
X127038963Y-107417420D01*
X127206481Y-107643414D01*
X127414869Y-107832385D01*
X127656119Y-107977070D01*
X127920960Y-108071909D01*
X128143000Y-107950624D01*
X128143000Y-106807000D01*
X128397000Y-106807000D01*
X128397000Y-107950624D01*
X128619040Y-108071909D01*
X128883881Y-107977070D01*
X129125131Y-107832385D01*
X129333519Y-107643414D01*
X129501037Y-107417420D01*
X129621246Y-107163087D01*
X129661904Y-107029039D01*
X129539915Y-106807000D01*
X128397000Y-106807000D01*
X128143000Y-106807000D01*
X127000085Y-106807000D01*
X126878096Y-107029039D01*
X126455762Y-107029039D01*
X126975872Y-106508929D01*
X127000085Y-106553000D01*
X128143000Y-106553000D01*
X128143000Y-105341801D01*
X128397000Y-105087802D01*
X128397000Y-106553000D01*
X129539915Y-106553000D01*
X129661904Y-106330961D01*
X129621246Y-106196913D01*
X129501037Y-105942580D01*
X129333519Y-105716586D01*
X129125131Y-105527615D01*
X128929018Y-105410000D01*
X129125131Y-105292385D01*
X129333519Y-105103414D01*
X129501037Y-104877420D01*
X129621246Y-104623087D01*
X129661904Y-104489039D01*
X129539915Y-104267000D01*
X129021168Y-104267000D01*
X129033676Y-104140001D01*
X129030791Y-104110706D01*
X129021168Y-104013000D01*
X129539915Y-104013000D01*
X129661904Y-103790961D01*
X129621246Y-103656913D01*
X129501037Y-103402580D01*
X129333519Y-103176586D01*
X129125131Y-102987615D01*
X128929018Y-102870000D01*
X129125131Y-102752385D01*
X129333519Y-102563414D01*
X129501037Y-102337420D01*
X129621246Y-102083087D01*
X129661904Y-101949039D01*
X129539915Y-101727000D01*
X128397000Y-101727000D01*
X128397000Y-103192198D01*
X128143000Y-102938198D01*
X128143000Y-101727000D01*
X127000085Y-101727000D01*
X126975872Y-101771071D01*
X126744000Y-101539199D01*
X126744000Y-89857711D01*
X126787937Y-89813774D01*
X126836043Y-89741779D01*
X126844188Y-89824482D01*
X126880498Y-89944180D01*
X126939463Y-90054494D01*
X127018815Y-90151185D01*
X127115506Y-90230537D01*
X127225820Y-90289502D01*
X127345518Y-90325812D01*
X127363482Y-90327581D01*
X127250392Y-90420392D01*
X127071068Y-90638899D01*
X126937818Y-90888192D01*
X126855764Y-91158691D01*
X126828057Y-91440000D01*
X126855764Y-91721309D01*
X126937818Y-91991808D01*
X127071068Y-92241101D01*
X127250392Y-92459608D01*
X127468899Y-92638932D01*
X127601858Y-92710000D01*
X127468899Y-92781068D01*
X127250392Y-92960392D01*
X127071068Y-93178899D01*
X126937818Y-93428192D01*
X126855764Y-93698691D01*
X126828057Y-93980000D01*
X126855764Y-94261309D01*
X126937818Y-94531808D01*
X127071068Y-94781101D01*
X127250392Y-94999608D01*
X127468899Y-95178932D01*
X127601858Y-95250000D01*
X127468899Y-95321068D01*
X127250392Y-95500392D01*
X127071068Y-95718899D01*
X126937818Y-95968192D01*
X126855764Y-96238691D01*
X126828057Y-96520000D01*
X126855764Y-96801309D01*
X126937818Y-97071808D01*
X127071068Y-97321101D01*
X127250392Y-97539608D01*
X127468899Y-97718932D01*
X127601858Y-97790000D01*
X127468899Y-97861068D01*
X127250392Y-98040392D01*
X127071068Y-98258899D01*
X126937818Y-98508192D01*
X126855764Y-98778691D01*
X126828057Y-99060000D01*
X126855764Y-99341309D01*
X126937818Y-99611808D01*
X127071068Y-99861101D01*
X127250392Y-100079608D01*
X127468899Y-100258932D01*
X127606682Y-100332579D01*
X127414869Y-100447615D01*
X127206481Y-100636586D01*
X127038963Y-100862580D01*
X126918754Y-101116913D01*
X126878096Y-101250961D01*
X127000085Y-101473000D01*
X128143000Y-101473000D01*
X128143000Y-101453000D01*
X128397000Y-101453000D01*
X128397000Y-101473000D01*
X129539915Y-101473000D01*
X129661904Y-101250961D01*
X129621246Y-101116913D01*
X129501037Y-100862580D01*
X129333519Y-100636586D01*
X129125131Y-100447615D01*
X128933318Y-100332579D01*
X129071101Y-100258932D01*
X129289608Y-100079608D01*
X129468932Y-99861101D01*
X129602182Y-99611808D01*
X129684236Y-99341309D01*
X129711943Y-99060000D01*
X129684236Y-98778691D01*
X129602182Y-98508192D01*
X129468932Y-98258899D01*
X129289608Y-98040392D01*
X129071101Y-97861068D01*
X128938142Y-97790000D01*
X129071101Y-97718932D01*
X129289608Y-97539608D01*
X129468932Y-97321101D01*
X129602182Y-97071808D01*
X129684236Y-96801309D01*
X129711943Y-96520000D01*
X129684236Y-96238691D01*
X129602182Y-95968192D01*
X129468932Y-95718899D01*
X129289608Y-95500392D01*
X129071101Y-95321068D01*
X128938142Y-95250000D01*
X129071101Y-95178932D01*
X129289608Y-94999608D01*
X129468932Y-94781101D01*
X129602182Y-94531808D01*
X129684236Y-94261309D01*
X129711943Y-93980000D01*
X129686044Y-93717044D01*
X129756667Y-93724000D01*
X129756676Y-93724000D01*
X129793999Y-93727676D01*
X129831322Y-93724000D01*
X130304001Y-93724000D01*
X130304000Y-104960289D01*
X130260063Y-105004226D01*
X130146795Y-105173744D01*
X130068774Y-105362102D01*
X130029000Y-105562061D01*
X130029000Y-105765939D01*
X130068774Y-105965898D01*
X130146795Y-106154256D01*
X130260063Y-106323774D01*
X130404226Y-106467937D01*
X130573744Y-106581205D01*
X130762102Y-106659226D01*
X130962061Y-106699000D01*
X131165939Y-106699000D01*
X131365898Y-106659226D01*
X131554256Y-106581205D01*
X131723774Y-106467937D01*
X131867937Y-106323774D01*
X131981205Y-106154256D01*
X132059226Y-105965898D01*
X132099000Y-105765939D01*
X132099000Y-105562061D01*
X132059226Y-105362102D01*
X131981205Y-105173744D01*
X131867937Y-105004226D01*
X131824000Y-104960289D01*
X131824000Y-104945830D01*
X131857558Y-104952505D01*
X132061436Y-104952505D01*
X132261395Y-104912731D01*
X132449753Y-104834710D01*
X132619271Y-104721442D01*
X132763434Y-104577279D01*
X132844001Y-104456702D01*
X132844001Y-105976288D01*
X132800063Y-106020226D01*
X132686795Y-106189744D01*
X132608774Y-106378102D01*
X132569000Y-106578061D01*
X132569000Y-106781939D01*
X132608774Y-106981898D01*
X132686795Y-107170256D01*
X132800063Y-107339774D01*
X132944226Y-107483937D01*
X133113744Y-107597205D01*
X133302102Y-107675226D01*
X133502061Y-107715000D01*
X133705939Y-107715000D01*
X133905898Y-107675226D01*
X134094256Y-107597205D01*
X134263774Y-107483937D01*
X134407937Y-107339774D01*
X134521205Y-107170256D01*
X134531562Y-107145252D01*
X134557818Y-107231808D01*
X134691068Y-107481101D01*
X134870392Y-107699608D01*
X135088899Y-107878932D01*
X135338192Y-108012182D01*
X135608691Y-108094236D01*
X135819508Y-108115000D01*
X135960492Y-108115000D01*
X136171309Y-108094236D01*
X136441808Y-108012182D01*
X136691101Y-107878932D01*
X136909608Y-107699608D01*
X137088932Y-107481101D01*
X137222182Y-107231808D01*
X137304236Y-106961309D01*
X137331943Y-106680000D01*
X137304236Y-106398691D01*
X137222182Y-106128192D01*
X137088932Y-105878899D01*
X136909608Y-105660392D01*
X136691101Y-105481068D01*
X136558142Y-105410000D01*
X136691101Y-105338932D01*
X136909608Y-105159608D01*
X136913389Y-105155000D01*
X140736928Y-105155000D01*
X140749188Y-105279482D01*
X140785498Y-105399180D01*
X140844463Y-105509494D01*
X140923815Y-105606185D01*
X141020506Y-105685537D01*
X141130820Y-105744502D01*
X141250518Y-105780812D01*
X141375000Y-105793072D01*
X141954250Y-105790000D01*
X142113000Y-105631250D01*
X142113000Y-104267000D01*
X140898750Y-104267000D01*
X140740000Y-104425750D01*
X140736928Y-105155000D01*
X136913389Y-105155000D01*
X137088932Y-104941101D01*
X137222182Y-104691808D01*
X137304236Y-104421309D01*
X137331943Y-104140000D01*
X137304236Y-103858691D01*
X137222182Y-103588192D01*
X137088932Y-103338899D01*
X136913390Y-103125000D01*
X140736928Y-103125000D01*
X140740000Y-103854250D01*
X140898750Y-104013000D01*
X142113000Y-104013000D01*
X142113000Y-102648750D01*
X141954250Y-102490000D01*
X141375000Y-102486928D01*
X141250518Y-102499188D01*
X141130820Y-102535498D01*
X141020506Y-102594463D01*
X140923815Y-102673815D01*
X140844463Y-102770506D01*
X140785498Y-102880820D01*
X140749188Y-103000518D01*
X140736928Y-103125000D01*
X136913390Y-103125000D01*
X136909608Y-103120392D01*
X136691101Y-102941068D01*
X136558142Y-102870000D01*
X136691101Y-102798932D01*
X136909608Y-102619608D01*
X137088932Y-102401101D01*
X137222182Y-102151808D01*
X137304236Y-101881309D01*
X137331943Y-101600000D01*
X137304236Y-101318691D01*
X137222182Y-101048192D01*
X137088932Y-100798899D01*
X136909608Y-100580392D01*
X136691101Y-100401068D01*
X136558142Y-100330000D01*
X136691101Y-100258932D01*
X136909608Y-100079608D01*
X137088932Y-99861101D01*
X137222182Y-99611808D01*
X137304236Y-99341309D01*
X137331943Y-99060000D01*
X137304236Y-98778691D01*
X137222182Y-98508192D01*
X137088932Y-98258899D01*
X136909608Y-98040392D01*
X136691101Y-97861068D01*
X136558142Y-97790000D01*
X136691101Y-97718932D01*
X136909608Y-97539608D01*
X137088932Y-97321101D01*
X137222182Y-97071808D01*
X137304236Y-96801309D01*
X137331943Y-96520000D01*
X137306828Y-96265000D01*
X140736928Y-96265000D01*
X140749188Y-96389482D01*
X140785498Y-96509180D01*
X140844463Y-96619494D01*
X140923815Y-96716185D01*
X141020506Y-96795537D01*
X141130820Y-96854502D01*
X141250518Y-96890812D01*
X141375000Y-96903072D01*
X141954250Y-96900000D01*
X142113000Y-96741250D01*
X142113000Y-95377000D01*
X140898750Y-95377000D01*
X140740000Y-95535750D01*
X140736928Y-96265000D01*
X137306828Y-96265000D01*
X137304236Y-96238691D01*
X137222182Y-95968192D01*
X137088932Y-95718899D01*
X136909608Y-95500392D01*
X136691101Y-95321068D01*
X136558142Y-95250000D01*
X136691101Y-95178932D01*
X136909608Y-94999608D01*
X137088932Y-94781101D01*
X137222182Y-94531808D01*
X137304236Y-94261309D01*
X137306827Y-94235000D01*
X140736928Y-94235000D01*
X140740000Y-94964250D01*
X140898750Y-95123000D01*
X142113000Y-95123000D01*
X142113000Y-93758750D01*
X141954250Y-93600000D01*
X141375000Y-93596928D01*
X141250518Y-93609188D01*
X141130820Y-93645498D01*
X141020506Y-93704463D01*
X140923815Y-93783815D01*
X140844463Y-93880506D01*
X140785498Y-93990820D01*
X140749188Y-94110518D01*
X140736928Y-94235000D01*
X137306827Y-94235000D01*
X137331943Y-93980000D01*
X137304236Y-93698691D01*
X137222182Y-93428192D01*
X137088932Y-93178899D01*
X136909608Y-92960392D01*
X136691101Y-92781068D01*
X136558142Y-92710000D01*
X136691101Y-92638932D01*
X136909608Y-92459608D01*
X137088932Y-92241101D01*
X137222182Y-91991808D01*
X137304236Y-91721309D01*
X137331943Y-91440000D01*
X137304236Y-91158691D01*
X137222182Y-90888192D01*
X137088932Y-90638899D01*
X136909608Y-90420392D01*
X136691101Y-90241068D01*
X136558142Y-90170000D01*
X136691101Y-90098932D01*
X136909608Y-89919608D01*
X137088932Y-89701101D01*
X137222182Y-89451808D01*
X137304236Y-89181309D01*
X137331943Y-88900000D01*
X137304236Y-88618691D01*
X137222182Y-88348192D01*
X137088932Y-88098899D01*
X136909608Y-87880392D01*
X136691101Y-87701068D01*
X136650000Y-87679099D01*
X136650000Y-87375000D01*
X140736928Y-87375000D01*
X140749188Y-87499482D01*
X140785498Y-87619180D01*
X140844463Y-87729494D01*
X140923815Y-87826185D01*
X141020506Y-87905537D01*
X141130820Y-87964502D01*
X141250518Y-88000812D01*
X141375000Y-88013072D01*
X141954250Y-88010000D01*
X142113000Y-87851250D01*
X142113000Y-86487000D01*
X140898750Y-86487000D01*
X140740000Y-86645750D01*
X140736928Y-87375000D01*
X136650000Y-87375000D01*
X136650000Y-85345000D01*
X140736928Y-85345000D01*
X140740000Y-86074250D01*
X140898750Y-86233000D01*
X142113000Y-86233000D01*
X142113000Y-84868750D01*
X141954250Y-84710000D01*
X141375000Y-84706928D01*
X141250518Y-84719188D01*
X141130820Y-84755498D01*
X141020506Y-84814463D01*
X140923815Y-84893815D01*
X140844463Y-84990506D01*
X140785498Y-85100820D01*
X140749188Y-85220518D01*
X140736928Y-85345000D01*
X136650000Y-85345000D01*
X136650000Y-83603322D01*
X136653676Y-83565999D01*
X136650000Y-83528676D01*
X136650000Y-83528667D01*
X136639003Y-83417014D01*
X136595546Y-83273753D01*
X136524974Y-83141724D01*
X136430001Y-83025999D01*
X136417000Y-83015329D01*
X136417000Y-82956061D01*
X136377226Y-82756102D01*
X136299205Y-82567744D01*
X136185937Y-82398226D01*
X136041774Y-82254063D01*
X135872256Y-82140795D01*
X135683898Y-82062774D01*
X135483939Y-82023000D01*
X135280061Y-82023000D01*
X135080102Y-82062774D01*
X134891744Y-82140795D01*
X134722226Y-82254063D01*
X134578063Y-82398226D01*
X134464795Y-82567744D01*
X134386774Y-82756102D01*
X134364000Y-82870596D01*
X134364000Y-82610801D01*
X135564094Y-81410708D01*
X135608691Y-81424236D01*
X135819508Y-81445000D01*
X135960492Y-81445000D01*
X136171309Y-81424236D01*
X136441808Y-81342182D01*
X136691101Y-81208932D01*
X136909608Y-81029608D01*
X137088932Y-80811101D01*
X137222182Y-80561808D01*
X137304236Y-80291309D01*
X137331943Y-80010000D01*
X137304236Y-79728691D01*
X137222182Y-79458192D01*
X137088932Y-79208899D01*
X136909608Y-78990392D01*
X136691101Y-78811068D01*
X136558142Y-78740000D01*
X136691101Y-78668932D01*
X136909608Y-78489608D01*
X136913389Y-78485000D01*
X140736928Y-78485000D01*
X140749188Y-78609482D01*
X140785498Y-78729180D01*
X140844463Y-78839494D01*
X140923815Y-78936185D01*
X141020506Y-79015537D01*
X141130820Y-79074502D01*
X141250518Y-79110812D01*
X141375000Y-79123072D01*
X141954250Y-79120000D01*
X142113000Y-78961250D01*
X142113000Y-77597000D01*
X140898750Y-77597000D01*
X140740000Y-77755750D01*
X140736928Y-78485000D01*
X136913389Y-78485000D01*
X137088932Y-78271101D01*
X137222182Y-78021808D01*
X137304236Y-77751309D01*
X137331943Y-77470000D01*
X137304236Y-77188691D01*
X137222182Y-76918192D01*
X137088932Y-76668899D01*
X136913390Y-76455000D01*
X140736928Y-76455000D01*
X140740000Y-77184250D01*
X140898750Y-77343000D01*
X142113000Y-77343000D01*
X142113000Y-75978750D01*
X141954250Y-75820000D01*
X141375000Y-75816928D01*
X141250518Y-75829188D01*
X141130820Y-75865498D01*
X141020506Y-75924463D01*
X140923815Y-76003815D01*
X140844463Y-76100506D01*
X140785498Y-76210820D01*
X140749188Y-76330518D01*
X140736928Y-76455000D01*
X136913390Y-76455000D01*
X136909608Y-76450392D01*
X136691101Y-76271068D01*
X136558142Y-76200000D01*
X136691101Y-76128932D01*
X136909608Y-75949608D01*
X137088932Y-75731101D01*
X137222182Y-75481808D01*
X137304236Y-75211309D01*
X137331943Y-74930000D01*
X137304236Y-74648691D01*
X137222182Y-74378192D01*
X137088932Y-74128899D01*
X136909608Y-73910392D01*
X136691101Y-73731068D01*
X136558142Y-73660000D01*
X136691101Y-73588932D01*
X136909608Y-73409608D01*
X137088932Y-73191101D01*
X137222182Y-72941808D01*
X137304236Y-72671309D01*
X137331943Y-72390000D01*
X137304236Y-72108691D01*
X137222182Y-71838192D01*
X137088932Y-71588899D01*
X136909608Y-71370392D01*
X136691101Y-71191068D01*
X136558142Y-71120000D01*
X136691101Y-71048932D01*
X136909608Y-70869608D01*
X137088932Y-70651101D01*
X137222182Y-70401808D01*
X137304236Y-70131309D01*
X137331943Y-69850000D01*
X137306828Y-69595000D01*
X140736928Y-69595000D01*
X140749188Y-69719482D01*
X140785498Y-69839180D01*
X140844463Y-69949494D01*
X140923815Y-70046185D01*
X141020506Y-70125537D01*
X141130820Y-70184502D01*
X141250518Y-70220812D01*
X141375000Y-70233072D01*
X141954250Y-70230000D01*
X142113000Y-70071250D01*
X142113000Y-68707000D01*
X140898750Y-68707000D01*
X140740000Y-68865750D01*
X140736928Y-69595000D01*
X137306828Y-69595000D01*
X137304236Y-69568691D01*
X137222182Y-69298192D01*
X137088932Y-69048899D01*
X136909608Y-68830392D01*
X136691101Y-68651068D01*
X136558142Y-68580000D01*
X136691101Y-68508932D01*
X136909608Y-68329608D01*
X137088932Y-68111101D01*
X137222182Y-67861808D01*
X137304236Y-67591309D01*
X137306827Y-67565000D01*
X140736928Y-67565000D01*
X140740000Y-68294250D01*
X140898750Y-68453000D01*
X142113000Y-68453000D01*
X142113000Y-67088750D01*
X141954250Y-66930000D01*
X141375000Y-66926928D01*
X141250518Y-66939188D01*
X141130820Y-66975498D01*
X141020506Y-67034463D01*
X140923815Y-67113815D01*
X140844463Y-67210506D01*
X140785498Y-67320820D01*
X140749188Y-67440518D01*
X140736928Y-67565000D01*
X137306827Y-67565000D01*
X137331943Y-67310000D01*
X137304236Y-67028691D01*
X137222182Y-66758192D01*
X137088932Y-66508899D01*
X136909608Y-66290392D01*
X136691101Y-66111068D01*
X136558142Y-66040000D01*
X136691101Y-65968932D01*
X136909608Y-65789608D01*
X137088932Y-65571101D01*
X137222182Y-65321808D01*
X137304236Y-65051309D01*
X137331943Y-64770000D01*
X137304236Y-64488691D01*
X137222182Y-64218192D01*
X137088932Y-63968899D01*
X136909608Y-63750392D01*
X136691101Y-63571068D01*
X136558142Y-63500000D01*
X136691101Y-63428932D01*
X136909608Y-63249608D01*
X137088932Y-63031101D01*
X137110901Y-62990000D01*
X140805199Y-62990000D01*
X144741712Y-66926514D01*
X144485949Y-66951705D01*
X144203198Y-67037476D01*
X143942613Y-67176762D01*
X143714208Y-67364208D01*
X143709430Y-67370030D01*
X143694502Y-67320820D01*
X143635537Y-67210506D01*
X143556185Y-67113815D01*
X143459494Y-67034463D01*
X143349180Y-66975498D01*
X143229482Y-66939188D01*
X143105000Y-66926928D01*
X142525750Y-66930000D01*
X142367000Y-67088750D01*
X142367000Y-68453000D01*
X142387000Y-68453000D01*
X142387000Y-68707000D01*
X142367000Y-68707000D01*
X142367000Y-70071250D01*
X142525750Y-70230000D01*
X143105000Y-70233072D01*
X143229482Y-70220812D01*
X143349180Y-70184502D01*
X143459494Y-70125537D01*
X143556185Y-70046185D01*
X143635537Y-69949494D01*
X143694502Y-69839180D01*
X143709430Y-69789970D01*
X143714208Y-69795792D01*
X143942614Y-69983238D01*
X144203199Y-70122524D01*
X144485950Y-70208295D01*
X144780000Y-70237257D01*
X145074051Y-70208295D01*
X145356802Y-70122524D01*
X145617387Y-69983238D01*
X145845792Y-69795792D01*
X146033238Y-69567387D01*
X146050000Y-69536028D01*
X146066762Y-69567387D01*
X146254208Y-69795792D01*
X146482614Y-69983238D01*
X146560000Y-70024602D01*
X146560001Y-76025397D01*
X146482613Y-76066762D01*
X146254208Y-76254208D01*
X146066762Y-76482614D01*
X146050000Y-76513973D01*
X146033238Y-76482613D01*
X145845792Y-76254208D01*
X145617386Y-76066762D01*
X145356801Y-75927476D01*
X145074050Y-75841705D01*
X144780000Y-75812743D01*
X144485949Y-75841705D01*
X144203198Y-75927476D01*
X143942613Y-76066762D01*
X143714208Y-76254208D01*
X143709430Y-76260030D01*
X143694502Y-76210820D01*
X143635537Y-76100506D01*
X143556185Y-76003815D01*
X143459494Y-75924463D01*
X143349180Y-75865498D01*
X143229482Y-75829188D01*
X143105000Y-75816928D01*
X142525750Y-75820000D01*
X142367000Y-75978750D01*
X142367000Y-77343000D01*
X142387000Y-77343000D01*
X142387000Y-77597000D01*
X142367000Y-77597000D01*
X142367000Y-78961250D01*
X142525750Y-79120000D01*
X143105000Y-79123072D01*
X143229482Y-79110812D01*
X143349180Y-79074502D01*
X143459494Y-79015537D01*
X143556185Y-78936185D01*
X143635537Y-78839494D01*
X143694502Y-78729180D01*
X143709430Y-78679970D01*
X143714208Y-78685792D01*
X143942614Y-78873238D01*
X144203199Y-79012524D01*
X144485950Y-79098295D01*
X144780000Y-79127257D01*
X145074051Y-79098295D01*
X145356802Y-79012524D01*
X145617387Y-78873238D01*
X145845792Y-78685792D01*
X146033238Y-78457387D01*
X146050000Y-78426028D01*
X146066762Y-78457387D01*
X146254208Y-78685792D01*
X146482614Y-78873238D01*
X146560000Y-78914602D01*
X146560001Y-84915397D01*
X146482613Y-84956762D01*
X146254208Y-85144208D01*
X146066762Y-85372614D01*
X146050000Y-85403973D01*
X146033238Y-85372613D01*
X145845792Y-85144208D01*
X145617386Y-84956762D01*
X145356801Y-84817476D01*
X145074050Y-84731705D01*
X144780000Y-84702743D01*
X144485949Y-84731705D01*
X144203198Y-84817476D01*
X143942613Y-84956762D01*
X143714208Y-85144208D01*
X143709430Y-85150030D01*
X143694502Y-85100820D01*
X143635537Y-84990506D01*
X143556185Y-84893815D01*
X143459494Y-84814463D01*
X143349180Y-84755498D01*
X143229482Y-84719188D01*
X143105000Y-84706928D01*
X142525750Y-84710000D01*
X142367000Y-84868750D01*
X142367000Y-86233000D01*
X142387000Y-86233000D01*
X142387000Y-86487000D01*
X142367000Y-86487000D01*
X142367000Y-87851250D01*
X142525750Y-88010000D01*
X143105000Y-88013072D01*
X143229482Y-88000812D01*
X143349180Y-87964502D01*
X143459494Y-87905537D01*
X143556185Y-87826185D01*
X143635537Y-87729494D01*
X143694502Y-87619180D01*
X143709430Y-87569970D01*
X143714208Y-87575792D01*
X143942614Y-87763238D01*
X144203199Y-87902524D01*
X144485950Y-87988295D01*
X144780000Y-88017257D01*
X145074051Y-87988295D01*
X145356802Y-87902524D01*
X145617387Y-87763238D01*
X145845792Y-87575792D01*
X146033238Y-87347387D01*
X146050000Y-87316028D01*
X146066762Y-87347387D01*
X146254208Y-87575792D01*
X146482614Y-87763238D01*
X146560000Y-87804602D01*
X146560001Y-93805397D01*
X146482613Y-93846762D01*
X146254208Y-94034208D01*
X146066762Y-94262614D01*
X146050000Y-94293973D01*
X146033238Y-94262613D01*
X145845792Y-94034208D01*
X145617386Y-93846762D01*
X145356801Y-93707476D01*
X145074050Y-93621705D01*
X144780000Y-93592743D01*
X144485949Y-93621705D01*
X144203198Y-93707476D01*
X143942613Y-93846762D01*
X143714208Y-94034208D01*
X143709430Y-94040030D01*
X143694502Y-93990820D01*
X143635537Y-93880506D01*
X143556185Y-93783815D01*
X143459494Y-93704463D01*
X143349180Y-93645498D01*
X143229482Y-93609188D01*
X143105000Y-93596928D01*
X142525750Y-93600000D01*
X142367000Y-93758750D01*
X142367000Y-95123000D01*
X142387000Y-95123000D01*
X142387000Y-95377000D01*
X142367000Y-95377000D01*
X142367000Y-96741250D01*
X142525750Y-96900000D01*
X143105000Y-96903072D01*
X143229482Y-96890812D01*
X143349180Y-96854502D01*
X143459494Y-96795537D01*
X143556185Y-96716185D01*
X143635537Y-96619494D01*
X143694502Y-96509180D01*
X143709430Y-96459970D01*
X143714208Y-96465792D01*
X143942614Y-96653238D01*
X144203199Y-96792524D01*
X144485950Y-96878295D01*
X144780000Y-96907257D01*
X145074051Y-96878295D01*
X145356802Y-96792524D01*
X145617387Y-96653238D01*
X145845792Y-96465792D01*
X146033238Y-96237387D01*
X146050000Y-96206028D01*
X146066762Y-96237387D01*
X146254208Y-96465792D01*
X146482614Y-96653238D01*
X146560000Y-96694602D01*
X146560001Y-102695397D01*
X146482613Y-102736762D01*
X146254208Y-102924208D01*
X146066762Y-103152614D01*
X146050000Y-103183973D01*
X146033238Y-103152613D01*
X145845792Y-102924208D01*
X145617386Y-102736762D01*
X145356801Y-102597476D01*
X145074050Y-102511705D01*
X144780000Y-102482743D01*
X144485949Y-102511705D01*
X144203198Y-102597476D01*
X143942613Y-102736762D01*
X143714208Y-102924208D01*
X143709430Y-102930030D01*
X143694502Y-102880820D01*
X143635537Y-102770506D01*
X143556185Y-102673815D01*
X143459494Y-102594463D01*
X143349180Y-102535498D01*
X143229482Y-102499188D01*
X143105000Y-102486928D01*
X142525750Y-102490000D01*
X142367000Y-102648750D01*
X142367000Y-104013000D01*
X142387000Y-104013000D01*
X142387000Y-104267000D01*
X142367000Y-104267000D01*
X142367000Y-105631250D01*
X142525750Y-105790000D01*
X143105000Y-105793072D01*
X143229482Y-105780812D01*
X143349180Y-105744502D01*
X143459494Y-105685537D01*
X143556185Y-105606185D01*
X143635537Y-105509494D01*
X143694502Y-105399180D01*
X143709430Y-105349970D01*
X143714208Y-105355792D01*
X143942614Y-105543238D01*
X144203199Y-105682524D01*
X144485950Y-105768295D01*
X144780000Y-105797257D01*
X145074051Y-105768295D01*
X145356802Y-105682524D01*
X145617387Y-105543238D01*
X145845792Y-105355792D01*
X146033238Y-105127387D01*
X146050000Y-105096028D01*
X146066762Y-105127387D01*
X146254208Y-105355792D01*
X146482614Y-105543238D01*
X146743199Y-105682524D01*
X147025950Y-105768295D01*
X147320000Y-105797257D01*
X147614051Y-105768295D01*
X147896802Y-105682524D01*
X148157387Y-105543238D01*
X148385792Y-105355792D01*
X148550576Y-105155000D01*
X150896928Y-105155000D01*
X150909188Y-105279482D01*
X150945498Y-105399180D01*
X151004463Y-105509494D01*
X151083815Y-105606185D01*
X151180506Y-105685537D01*
X151290820Y-105744502D01*
X151410518Y-105780812D01*
X151535000Y-105793072D01*
X152114250Y-105790000D01*
X152273000Y-105631250D01*
X152273000Y-104267000D01*
X151058750Y-104267000D01*
X150900000Y-104425750D01*
X150896928Y-105155000D01*
X148550576Y-105155000D01*
X148573238Y-105127387D01*
X148712524Y-104866801D01*
X148798295Y-104584050D01*
X148820000Y-104363679D01*
X148820000Y-103916320D01*
X148798295Y-103695949D01*
X148712524Y-103413198D01*
X148573238Y-103152613D01*
X148550577Y-103125000D01*
X150896928Y-103125000D01*
X150900000Y-103854250D01*
X151058750Y-104013000D01*
X152273000Y-104013000D01*
X152273000Y-102648750D01*
X152114250Y-102490000D01*
X151535000Y-102486928D01*
X151410518Y-102499188D01*
X151290820Y-102535498D01*
X151180506Y-102594463D01*
X151083815Y-102673815D01*
X151004463Y-102770506D01*
X150945498Y-102880820D01*
X150909188Y-103000518D01*
X150896928Y-103125000D01*
X148550577Y-103125000D01*
X148385792Y-102924208D01*
X148157386Y-102736762D01*
X148080000Y-102695398D01*
X148080000Y-96694602D01*
X148157387Y-96653238D01*
X148385792Y-96465792D01*
X148550576Y-96265000D01*
X150896928Y-96265000D01*
X150909188Y-96389482D01*
X150945498Y-96509180D01*
X151004463Y-96619494D01*
X151083815Y-96716185D01*
X151180506Y-96795537D01*
X151290820Y-96854502D01*
X151410518Y-96890812D01*
X151535000Y-96903072D01*
X152114250Y-96900000D01*
X152273000Y-96741250D01*
X152273000Y-95377000D01*
X151058750Y-95377000D01*
X150900000Y-95535750D01*
X150896928Y-96265000D01*
X148550576Y-96265000D01*
X148573238Y-96237387D01*
X148712524Y-95976801D01*
X148798295Y-95694050D01*
X148820000Y-95473679D01*
X148820000Y-95026320D01*
X148798295Y-94805949D01*
X148712524Y-94523198D01*
X148573238Y-94262613D01*
X148550577Y-94235000D01*
X150896928Y-94235000D01*
X150900000Y-94964250D01*
X151058750Y-95123000D01*
X152273000Y-95123000D01*
X152273000Y-93758750D01*
X152114250Y-93600000D01*
X151535000Y-93596928D01*
X151410518Y-93609188D01*
X151290820Y-93645498D01*
X151180506Y-93704463D01*
X151083815Y-93783815D01*
X151004463Y-93880506D01*
X150945498Y-93990820D01*
X150909188Y-94110518D01*
X150896928Y-94235000D01*
X148550577Y-94235000D01*
X148385792Y-94034208D01*
X148157386Y-93846762D01*
X148080000Y-93805398D01*
X148080000Y-87804602D01*
X148157387Y-87763238D01*
X148385792Y-87575792D01*
X148550576Y-87375000D01*
X150896928Y-87375000D01*
X150909188Y-87499482D01*
X150945498Y-87619180D01*
X151004463Y-87729494D01*
X151083815Y-87826185D01*
X151180506Y-87905537D01*
X151290820Y-87964502D01*
X151410518Y-88000812D01*
X151535000Y-88013072D01*
X152114250Y-88010000D01*
X152273000Y-87851250D01*
X152273000Y-86487000D01*
X151058750Y-86487000D01*
X150900000Y-86645750D01*
X150896928Y-87375000D01*
X148550576Y-87375000D01*
X148573238Y-87347387D01*
X148712524Y-87086801D01*
X148798295Y-86804050D01*
X148820000Y-86583679D01*
X148820000Y-86136320D01*
X148798295Y-85915949D01*
X148712524Y-85633198D01*
X148573238Y-85372613D01*
X148550577Y-85345000D01*
X150896928Y-85345000D01*
X150900000Y-86074250D01*
X151058750Y-86233000D01*
X152273000Y-86233000D01*
X152273000Y-84868750D01*
X152114250Y-84710000D01*
X151535000Y-84706928D01*
X151410518Y-84719188D01*
X151290820Y-84755498D01*
X151180506Y-84814463D01*
X151083815Y-84893815D01*
X151004463Y-84990506D01*
X150945498Y-85100820D01*
X150909188Y-85220518D01*
X150896928Y-85345000D01*
X148550577Y-85345000D01*
X148385792Y-85144208D01*
X148157386Y-84956762D01*
X148080000Y-84915398D01*
X148080000Y-78914602D01*
X148157387Y-78873238D01*
X148385792Y-78685792D01*
X148550576Y-78485000D01*
X150896928Y-78485000D01*
X150909188Y-78609482D01*
X150945498Y-78729180D01*
X151004463Y-78839494D01*
X151083815Y-78936185D01*
X151180506Y-79015537D01*
X151290820Y-79074502D01*
X151410518Y-79110812D01*
X151535000Y-79123072D01*
X152114250Y-79120000D01*
X152273000Y-78961250D01*
X152273000Y-77597000D01*
X151058750Y-77597000D01*
X150900000Y-77755750D01*
X150896928Y-78485000D01*
X148550576Y-78485000D01*
X148573238Y-78457387D01*
X148712524Y-78196801D01*
X148798295Y-77914050D01*
X148820000Y-77693679D01*
X148820000Y-77246320D01*
X148798295Y-77025949D01*
X148712524Y-76743198D01*
X148573238Y-76482613D01*
X148550577Y-76455000D01*
X150896928Y-76455000D01*
X150900000Y-77184250D01*
X151058750Y-77343000D01*
X152273000Y-77343000D01*
X152273000Y-75978750D01*
X152114250Y-75820000D01*
X151535000Y-75816928D01*
X151410518Y-75829188D01*
X151290820Y-75865498D01*
X151180506Y-75924463D01*
X151083815Y-76003815D01*
X151004463Y-76100506D01*
X150945498Y-76210820D01*
X150909188Y-76330518D01*
X150896928Y-76455000D01*
X148550577Y-76455000D01*
X148385792Y-76254208D01*
X148157386Y-76066762D01*
X148080000Y-76025398D01*
X148080000Y-70024602D01*
X148157387Y-69983238D01*
X148385792Y-69795792D01*
X148471525Y-69691326D01*
X149211211Y-70431013D01*
X149235009Y-70460011D01*
X149350734Y-70554984D01*
X149482763Y-70625556D01*
X149626024Y-70669013D01*
X149737677Y-70680010D01*
X149737686Y-70680010D01*
X149775009Y-70683686D01*
X149812332Y-70680010D01*
X156252668Y-70680010D01*
X156289990Y-70683686D01*
X156327312Y-70680010D01*
X156327323Y-70680010D01*
X156438976Y-70669013D01*
X156582237Y-70625556D01*
X156714266Y-70554984D01*
X156720001Y-70550278D01*
X156720000Y-76025398D01*
X156642613Y-76066762D01*
X156414208Y-76254208D01*
X156226762Y-76482614D01*
X156210000Y-76513973D01*
X156193238Y-76482613D01*
X156005792Y-76254208D01*
X155777386Y-76066762D01*
X155516801Y-75927476D01*
X155234050Y-75841705D01*
X154940000Y-75812743D01*
X154645949Y-75841705D01*
X154363198Y-75927476D01*
X154102613Y-76066762D01*
X153874208Y-76254208D01*
X153869430Y-76260030D01*
X153854502Y-76210820D01*
X153795537Y-76100506D01*
X153716185Y-76003815D01*
X153619494Y-75924463D01*
X153509180Y-75865498D01*
X153389482Y-75829188D01*
X153265000Y-75816928D01*
X152685750Y-75820000D01*
X152527000Y-75978750D01*
X152527000Y-77343000D01*
X152547000Y-77343000D01*
X152547000Y-77597000D01*
X152527000Y-77597000D01*
X152527000Y-78961250D01*
X152685750Y-79120000D01*
X153265000Y-79123072D01*
X153389482Y-79110812D01*
X153509180Y-79074502D01*
X153619494Y-79015537D01*
X153716185Y-78936185D01*
X153795537Y-78839494D01*
X153854502Y-78729180D01*
X153869430Y-78679970D01*
X153874208Y-78685792D01*
X154102614Y-78873238D01*
X154363199Y-79012524D01*
X154645950Y-79098295D01*
X154940000Y-79127257D01*
X155234051Y-79098295D01*
X155516802Y-79012524D01*
X155777387Y-78873238D01*
X156005792Y-78685792D01*
X156193238Y-78457387D01*
X156210000Y-78426028D01*
X156226762Y-78457387D01*
X156414208Y-78685792D01*
X156642614Y-78873238D01*
X156720001Y-78914602D01*
X156720000Y-84915398D01*
X156642613Y-84956762D01*
X156414208Y-85144208D01*
X156226762Y-85372614D01*
X156210000Y-85403973D01*
X156193238Y-85372613D01*
X156005792Y-85144208D01*
X155777386Y-84956762D01*
X155516801Y-84817476D01*
X155234050Y-84731705D01*
X154940000Y-84702743D01*
X154645949Y-84731705D01*
X154363198Y-84817476D01*
X154102613Y-84956762D01*
X153874208Y-85144208D01*
X153869430Y-85150030D01*
X153854502Y-85100820D01*
X153795537Y-84990506D01*
X153716185Y-84893815D01*
X153619494Y-84814463D01*
X153509180Y-84755498D01*
X153389482Y-84719188D01*
X153265000Y-84706928D01*
X152685750Y-84710000D01*
X152527000Y-84868750D01*
X152527000Y-86233000D01*
X152547000Y-86233000D01*
X152547000Y-86487000D01*
X152527000Y-86487000D01*
X152527000Y-87851250D01*
X152685750Y-88010000D01*
X153265000Y-88013072D01*
X153389482Y-88000812D01*
X153509180Y-87964502D01*
X153619494Y-87905537D01*
X153716185Y-87826185D01*
X153795537Y-87729494D01*
X153854502Y-87619180D01*
X153869430Y-87569970D01*
X153874208Y-87575792D01*
X154102614Y-87763238D01*
X154363199Y-87902524D01*
X154645950Y-87988295D01*
X154940000Y-88017257D01*
X155234051Y-87988295D01*
X155516802Y-87902524D01*
X155777387Y-87763238D01*
X156005792Y-87575792D01*
X156193238Y-87347387D01*
X156210000Y-87316028D01*
X156226762Y-87347387D01*
X156414208Y-87575792D01*
X156642614Y-87763238D01*
X156720001Y-87804602D01*
X156720000Y-93805398D01*
X156642613Y-93846762D01*
X156414208Y-94034208D01*
X156226762Y-94262614D01*
X156210000Y-94293973D01*
X156193238Y-94262613D01*
X156005792Y-94034208D01*
X155777386Y-93846762D01*
X155516801Y-93707476D01*
X155234050Y-93621705D01*
X154940000Y-93592743D01*
X154645949Y-93621705D01*
X154363198Y-93707476D01*
X154102613Y-93846762D01*
X153874208Y-94034208D01*
X153869430Y-94040030D01*
X153854502Y-93990820D01*
X153795537Y-93880506D01*
X153716185Y-93783815D01*
X153619494Y-93704463D01*
X153509180Y-93645498D01*
X153389482Y-93609188D01*
X153265000Y-93596928D01*
X152685750Y-93600000D01*
X152527000Y-93758750D01*
X152527000Y-95123000D01*
X152547000Y-95123000D01*
X152547000Y-95377000D01*
X152527000Y-95377000D01*
X152527000Y-96741250D01*
X152685750Y-96900000D01*
X153265000Y-96903072D01*
X153389482Y-96890812D01*
X153509180Y-96854502D01*
X153619494Y-96795537D01*
X153716185Y-96716185D01*
X153795537Y-96619494D01*
X153854502Y-96509180D01*
X153869430Y-96459970D01*
X153874208Y-96465792D01*
X154102614Y-96653238D01*
X154363199Y-96792524D01*
X154645950Y-96878295D01*
X154940000Y-96907257D01*
X155234051Y-96878295D01*
X155516802Y-96792524D01*
X155777387Y-96653238D01*
X156005792Y-96465792D01*
X156193238Y-96237387D01*
X156210000Y-96206028D01*
X156226762Y-96237387D01*
X156414208Y-96465792D01*
X156642614Y-96653238D01*
X156720001Y-96694602D01*
X156720000Y-102695398D01*
X156642613Y-102736762D01*
X156414208Y-102924208D01*
X156226762Y-103152614D01*
X156210000Y-103183973D01*
X156193238Y-103152613D01*
X156005792Y-102924208D01*
X155777386Y-102736762D01*
X155516801Y-102597476D01*
X155234050Y-102511705D01*
X154940000Y-102482743D01*
X154645949Y-102511705D01*
X154363198Y-102597476D01*
X154102613Y-102736762D01*
X153874208Y-102924208D01*
X153869430Y-102930030D01*
X153854502Y-102880820D01*
X153795537Y-102770506D01*
X153716185Y-102673815D01*
X153619494Y-102594463D01*
X153509180Y-102535498D01*
X153389482Y-102499188D01*
X153265000Y-102486928D01*
X152685750Y-102490000D01*
X152527000Y-102648750D01*
X152527000Y-104013000D01*
X152547000Y-104013000D01*
X152547000Y-104267000D01*
X152527000Y-104267000D01*
X152527000Y-105631250D01*
X152685750Y-105790000D01*
X153265000Y-105793072D01*
X153389482Y-105780812D01*
X153509180Y-105744502D01*
X153619494Y-105685537D01*
X153716185Y-105606185D01*
X153795537Y-105509494D01*
X153854502Y-105399180D01*
X153869430Y-105349970D01*
X153874208Y-105355792D01*
X154102614Y-105543238D01*
X154363199Y-105682524D01*
X154645950Y-105768295D01*
X154940000Y-105797257D01*
X155234051Y-105768295D01*
X155516802Y-105682524D01*
X155777387Y-105543238D01*
X156005792Y-105355792D01*
X156193238Y-105127387D01*
X156210000Y-105096028D01*
X156226762Y-105127387D01*
X156414208Y-105355792D01*
X156642614Y-105543238D01*
X156903199Y-105682524D01*
X157185950Y-105768295D01*
X157480000Y-105797257D01*
X157774051Y-105768295D01*
X158056802Y-105682524D01*
X158317387Y-105543238D01*
X158545792Y-105355792D01*
X158710576Y-105155000D01*
X161056928Y-105155000D01*
X161069188Y-105279482D01*
X161105498Y-105399180D01*
X161164463Y-105509494D01*
X161243815Y-105606185D01*
X161340506Y-105685537D01*
X161450820Y-105744502D01*
X161570518Y-105780812D01*
X161695000Y-105793072D01*
X162274250Y-105790000D01*
X162433000Y-105631250D01*
X162433000Y-104267000D01*
X161218750Y-104267000D01*
X161060000Y-104425750D01*
X161056928Y-105155000D01*
X158710576Y-105155000D01*
X158733238Y-105127387D01*
X158872524Y-104866801D01*
X158958295Y-104584050D01*
X158980000Y-104363679D01*
X158980000Y-103916320D01*
X158958295Y-103695949D01*
X158872524Y-103413198D01*
X158733238Y-103152613D01*
X158710577Y-103125000D01*
X161056928Y-103125000D01*
X161060000Y-103854250D01*
X161218750Y-104013000D01*
X162433000Y-104013000D01*
X162433000Y-102648750D01*
X162274250Y-102490000D01*
X161695000Y-102486928D01*
X161570518Y-102499188D01*
X161450820Y-102535498D01*
X161340506Y-102594463D01*
X161243815Y-102673815D01*
X161164463Y-102770506D01*
X161105498Y-102880820D01*
X161069188Y-103000518D01*
X161056928Y-103125000D01*
X158710577Y-103125000D01*
X158545792Y-102924208D01*
X158317386Y-102736762D01*
X158240000Y-102695398D01*
X158240000Y-96694602D01*
X158317387Y-96653238D01*
X158545792Y-96465792D01*
X158710576Y-96265000D01*
X161056928Y-96265000D01*
X161069188Y-96389482D01*
X161105498Y-96509180D01*
X161164463Y-96619494D01*
X161243815Y-96716185D01*
X161340506Y-96795537D01*
X161450820Y-96854502D01*
X161570518Y-96890812D01*
X161695000Y-96903072D01*
X162274250Y-96900000D01*
X162433000Y-96741250D01*
X162433000Y-95377000D01*
X161218750Y-95377000D01*
X161060000Y-95535750D01*
X161056928Y-96265000D01*
X158710576Y-96265000D01*
X158733238Y-96237387D01*
X158872524Y-95976801D01*
X158958295Y-95694050D01*
X158980000Y-95473679D01*
X158980000Y-95026320D01*
X158958295Y-94805949D01*
X158872524Y-94523198D01*
X158733238Y-94262613D01*
X158710577Y-94235000D01*
X161056928Y-94235000D01*
X161060000Y-94964250D01*
X161218750Y-95123000D01*
X162433000Y-95123000D01*
X162433000Y-93758750D01*
X162274250Y-93600000D01*
X161695000Y-93596928D01*
X161570518Y-93609188D01*
X161450820Y-93645498D01*
X161340506Y-93704463D01*
X161243815Y-93783815D01*
X161164463Y-93880506D01*
X161105498Y-93990820D01*
X161069188Y-94110518D01*
X161056928Y-94235000D01*
X158710577Y-94235000D01*
X158545792Y-94034208D01*
X158317386Y-93846762D01*
X158240000Y-93805398D01*
X158240000Y-87804602D01*
X158317387Y-87763238D01*
X158545792Y-87575792D01*
X158710576Y-87375000D01*
X161056928Y-87375000D01*
X161069188Y-87499482D01*
X161105498Y-87619180D01*
X161164463Y-87729494D01*
X161243815Y-87826185D01*
X161340506Y-87905537D01*
X161450820Y-87964502D01*
X161570518Y-88000812D01*
X161695000Y-88013072D01*
X162274250Y-88010000D01*
X162433000Y-87851250D01*
X162433000Y-86487000D01*
X161218750Y-86487000D01*
X161060000Y-86645750D01*
X161056928Y-87375000D01*
X158710576Y-87375000D01*
X158733238Y-87347387D01*
X158872524Y-87086801D01*
X158958295Y-86804050D01*
X158980000Y-86583679D01*
X158980000Y-86136320D01*
X158958295Y-85915949D01*
X158872524Y-85633198D01*
X158733238Y-85372613D01*
X158710577Y-85345000D01*
X161056928Y-85345000D01*
X161060000Y-86074250D01*
X161218750Y-86233000D01*
X162433000Y-86233000D01*
X162433000Y-84868750D01*
X162274250Y-84710000D01*
X161695000Y-84706928D01*
X161570518Y-84719188D01*
X161450820Y-84755498D01*
X161340506Y-84814463D01*
X161243815Y-84893815D01*
X161164463Y-84990506D01*
X161105498Y-85100820D01*
X161069188Y-85220518D01*
X161056928Y-85345000D01*
X158710577Y-85345000D01*
X158545792Y-85144208D01*
X158317386Y-84956762D01*
X158240000Y-84915398D01*
X158240000Y-78914602D01*
X158317387Y-78873238D01*
X158545792Y-78685792D01*
X158710576Y-78485000D01*
X161056928Y-78485000D01*
X161069188Y-78609482D01*
X161105498Y-78729180D01*
X161164463Y-78839494D01*
X161243815Y-78936185D01*
X161340506Y-79015537D01*
X161450820Y-79074502D01*
X161570518Y-79110812D01*
X161695000Y-79123072D01*
X162274250Y-79120000D01*
X162433000Y-78961250D01*
X162433000Y-77597000D01*
X161218750Y-77597000D01*
X161060000Y-77755750D01*
X161056928Y-78485000D01*
X158710576Y-78485000D01*
X158733238Y-78457387D01*
X158872524Y-78196801D01*
X158958295Y-77914050D01*
X158980000Y-77693679D01*
X158980000Y-77246320D01*
X158958295Y-77025949D01*
X158872524Y-76743198D01*
X158733238Y-76482613D01*
X158710577Y-76455000D01*
X161056928Y-76455000D01*
X161060000Y-77184250D01*
X161218750Y-77343000D01*
X162433000Y-77343000D01*
X162433000Y-75978750D01*
X162274250Y-75820000D01*
X161695000Y-75816928D01*
X161570518Y-75829188D01*
X161450820Y-75865498D01*
X161340506Y-75924463D01*
X161243815Y-76003815D01*
X161164463Y-76100506D01*
X161105498Y-76210820D01*
X161069188Y-76330518D01*
X161056928Y-76455000D01*
X158710577Y-76455000D01*
X158545792Y-76254208D01*
X158317386Y-76066762D01*
X158240000Y-76025398D01*
X158240000Y-70024602D01*
X158317387Y-69983238D01*
X158545792Y-69795792D01*
X158631525Y-69691326D01*
X159371211Y-70431013D01*
X159395009Y-70460011D01*
X159510734Y-70554984D01*
X159642763Y-70625556D01*
X159786024Y-70669013D01*
X159897677Y-70680010D01*
X159897686Y-70680010D01*
X159935009Y-70683686D01*
X159972332Y-70680010D01*
X166412668Y-70680010D01*
X166449990Y-70683686D01*
X166487312Y-70680010D01*
X166487323Y-70680010D01*
X166598976Y-70669013D01*
X166742237Y-70625556D01*
X166874266Y-70554984D01*
X166880000Y-70550278D01*
X166880001Y-76025397D01*
X166802613Y-76066762D01*
X166574208Y-76254208D01*
X166386762Y-76482614D01*
X166370000Y-76513973D01*
X166353238Y-76482613D01*
X166165792Y-76254208D01*
X165937386Y-76066762D01*
X165676801Y-75927476D01*
X165394050Y-75841705D01*
X165100000Y-75812743D01*
X164805949Y-75841705D01*
X164523198Y-75927476D01*
X164262613Y-76066762D01*
X164034208Y-76254208D01*
X164029430Y-76260030D01*
X164014502Y-76210820D01*
X163955537Y-76100506D01*
X163876185Y-76003815D01*
X163779494Y-75924463D01*
X163669180Y-75865498D01*
X163549482Y-75829188D01*
X163425000Y-75816928D01*
X162845750Y-75820000D01*
X162687000Y-75978750D01*
X162687000Y-77343000D01*
X162707000Y-77343000D01*
X162707000Y-77597000D01*
X162687000Y-77597000D01*
X162687000Y-78961250D01*
X162845750Y-79120000D01*
X163425000Y-79123072D01*
X163549482Y-79110812D01*
X163669180Y-79074502D01*
X163779494Y-79015537D01*
X163876185Y-78936185D01*
X163955537Y-78839494D01*
X164014502Y-78729180D01*
X164029430Y-78679970D01*
X164034208Y-78685792D01*
X164262614Y-78873238D01*
X164523199Y-79012524D01*
X164805950Y-79098295D01*
X165100000Y-79127257D01*
X165394051Y-79098295D01*
X165676802Y-79012524D01*
X165937387Y-78873238D01*
X166165792Y-78685792D01*
X166353238Y-78457387D01*
X166370000Y-78426028D01*
X166386762Y-78457387D01*
X166574208Y-78685792D01*
X166802614Y-78873238D01*
X166880000Y-78914602D01*
X166880001Y-84915397D01*
X166802613Y-84956762D01*
X166574208Y-85144208D01*
X166386762Y-85372614D01*
X166370000Y-85403973D01*
X166353238Y-85372613D01*
X166165792Y-85144208D01*
X165937386Y-84956762D01*
X165676801Y-84817476D01*
X165394050Y-84731705D01*
X165100000Y-84702743D01*
X164805949Y-84731705D01*
X164523198Y-84817476D01*
X164262613Y-84956762D01*
X164034208Y-85144208D01*
X164029430Y-85150030D01*
X164014502Y-85100820D01*
X163955537Y-84990506D01*
X163876185Y-84893815D01*
X163779494Y-84814463D01*
X163669180Y-84755498D01*
X163549482Y-84719188D01*
X163425000Y-84706928D01*
X162845750Y-84710000D01*
X162687000Y-84868750D01*
X162687000Y-86233000D01*
X162707000Y-86233000D01*
X162707000Y-86487000D01*
X162687000Y-86487000D01*
X162687000Y-87851250D01*
X162845750Y-88010000D01*
X163425000Y-88013072D01*
X163549482Y-88000812D01*
X163669180Y-87964502D01*
X163779494Y-87905537D01*
X163876185Y-87826185D01*
X163955537Y-87729494D01*
X164014502Y-87619180D01*
X164029430Y-87569970D01*
X164034208Y-87575792D01*
X164262614Y-87763238D01*
X164523199Y-87902524D01*
X164805950Y-87988295D01*
X165100000Y-88017257D01*
X165394051Y-87988295D01*
X165676802Y-87902524D01*
X165937387Y-87763238D01*
X166165792Y-87575792D01*
X166353238Y-87347387D01*
X166370000Y-87316028D01*
X166386762Y-87347387D01*
X166574208Y-87575792D01*
X166802614Y-87763238D01*
X166880000Y-87804602D01*
X166880001Y-93805397D01*
X166802613Y-93846762D01*
X166574208Y-94034208D01*
X166386762Y-94262614D01*
X166370000Y-94293973D01*
X166353238Y-94262613D01*
X166165792Y-94034208D01*
X165937386Y-93846762D01*
X165676801Y-93707476D01*
X165394050Y-93621705D01*
X165100000Y-93592743D01*
X164805949Y-93621705D01*
X164523198Y-93707476D01*
X164262613Y-93846762D01*
X164034208Y-94034208D01*
X164029430Y-94040030D01*
X164014502Y-93990820D01*
X163955537Y-93880506D01*
X163876185Y-93783815D01*
X163779494Y-93704463D01*
X163669180Y-93645498D01*
X163549482Y-93609188D01*
X163425000Y-93596928D01*
X162845750Y-93600000D01*
X162687000Y-93758750D01*
X162687000Y-95123000D01*
X162707000Y-95123000D01*
X162707000Y-95377000D01*
X162687000Y-95377000D01*
X162687000Y-96741250D01*
X162845750Y-96900000D01*
X163425000Y-96903072D01*
X163549482Y-96890812D01*
X163669180Y-96854502D01*
X163779494Y-96795537D01*
X163876185Y-96716185D01*
X163955537Y-96619494D01*
X164014502Y-96509180D01*
X164029430Y-96459970D01*
X164034208Y-96465792D01*
X164262614Y-96653238D01*
X164523199Y-96792524D01*
X164805950Y-96878295D01*
X165100000Y-96907257D01*
X165394051Y-96878295D01*
X165676802Y-96792524D01*
X165937387Y-96653238D01*
X166165792Y-96465792D01*
X166353238Y-96237387D01*
X166370000Y-96206028D01*
X166386762Y-96237387D01*
X166574208Y-96465792D01*
X166802614Y-96653238D01*
X166880000Y-96694602D01*
X166880001Y-102695397D01*
X166802613Y-102736762D01*
X166574208Y-102924208D01*
X166386762Y-103152614D01*
X166370000Y-103183973D01*
X166353238Y-103152613D01*
X166165792Y-102924208D01*
X165937386Y-102736762D01*
X165676801Y-102597476D01*
X165394050Y-102511705D01*
X165100000Y-102482743D01*
X164805949Y-102511705D01*
X164523198Y-102597476D01*
X164262613Y-102736762D01*
X164034208Y-102924208D01*
X164029430Y-102930030D01*
X164014502Y-102880820D01*
X163955537Y-102770506D01*
X163876185Y-102673815D01*
X163779494Y-102594463D01*
X163669180Y-102535498D01*
X163549482Y-102499188D01*
X163425000Y-102486928D01*
X162845750Y-102490000D01*
X162687000Y-102648750D01*
X162687000Y-104013000D01*
X162707000Y-104013000D01*
X162707000Y-104267000D01*
X162687000Y-104267000D01*
X162687000Y-105631250D01*
X162845750Y-105790000D01*
X163425000Y-105793072D01*
X163549482Y-105780812D01*
X163669180Y-105744502D01*
X163779494Y-105685537D01*
X163876185Y-105606185D01*
X163955537Y-105509494D01*
X164014502Y-105399180D01*
X164029430Y-105349970D01*
X164034208Y-105355792D01*
X164262614Y-105543238D01*
X164523199Y-105682524D01*
X164805950Y-105768295D01*
X165100000Y-105797257D01*
X165394051Y-105768295D01*
X165676802Y-105682524D01*
X165937387Y-105543238D01*
X166165792Y-105355792D01*
X166353238Y-105127387D01*
X166370000Y-105096028D01*
X166386762Y-105127387D01*
X166574208Y-105355792D01*
X166802614Y-105543238D01*
X167063199Y-105682524D01*
X167345950Y-105768295D01*
X167640000Y-105797257D01*
X167934051Y-105768295D01*
X168216802Y-105682524D01*
X168477387Y-105543238D01*
X168705792Y-105355792D01*
X168893238Y-105127387D01*
X169032524Y-104866801D01*
X169118295Y-104584050D01*
X169140000Y-104363679D01*
X169140000Y-103916320D01*
X169118295Y-103695949D01*
X169032524Y-103413198D01*
X168893238Y-103152613D01*
X168705792Y-102924208D01*
X168477386Y-102736762D01*
X168400000Y-102695398D01*
X168400000Y-96694602D01*
X168477387Y-96653238D01*
X168705792Y-96465792D01*
X168893238Y-96237387D01*
X169032524Y-95976801D01*
X169118295Y-95694050D01*
X169140000Y-95473679D01*
X169140000Y-95026320D01*
X169118295Y-94805949D01*
X169032524Y-94523198D01*
X168893238Y-94262613D01*
X168705792Y-94034208D01*
X168477386Y-93846762D01*
X168400000Y-93805398D01*
X168400000Y-87804602D01*
X168477387Y-87763238D01*
X168705792Y-87575792D01*
X168893238Y-87347387D01*
X169032524Y-87086801D01*
X169118295Y-86804050D01*
X169140000Y-86583679D01*
X169140000Y-86136320D01*
X169118295Y-85915949D01*
X169032524Y-85633198D01*
X168893238Y-85372613D01*
X168705792Y-85144208D01*
X168477386Y-84956762D01*
X168400000Y-84915398D01*
X168400000Y-78914602D01*
X168477387Y-78873238D01*
X168705792Y-78685792D01*
X168893238Y-78457387D01*
X169032524Y-78196801D01*
X169118295Y-77914050D01*
X169140000Y-77693679D01*
X169140000Y-77246320D01*
X169118295Y-77025949D01*
X169032524Y-76743198D01*
X168893238Y-76482613D01*
X168705792Y-76254208D01*
X168477386Y-76066762D01*
X168400000Y-76025398D01*
X168400000Y-70024602D01*
X168477387Y-69983238D01*
X168705792Y-69795792D01*
X168893238Y-69567387D01*
X169032524Y-69306801D01*
X169118295Y-69024050D01*
X169140000Y-68803679D01*
X169140000Y-68356320D01*
X169118295Y-68135949D01*
X169032524Y-67853198D01*
X168893238Y-67592613D01*
X168705792Y-67364208D01*
X168477386Y-67176762D01*
X168216801Y-67037476D01*
X167934050Y-66951705D01*
X167640000Y-66922743D01*
X167345949Y-66951705D01*
X167063198Y-67037476D01*
X166802613Y-67176762D01*
X166574208Y-67364208D01*
X166386762Y-67592614D01*
X166370000Y-67623973D01*
X166353238Y-67592613D01*
X166165792Y-67364208D01*
X165937386Y-67176762D01*
X165676801Y-67037476D01*
X165394050Y-66951705D01*
X165100000Y-66922743D01*
X164805949Y-66951705D01*
X164523198Y-67037476D01*
X164262613Y-67176762D01*
X164034208Y-67364208D01*
X164029430Y-67370030D01*
X164014502Y-67320820D01*
X163955537Y-67210506D01*
X163876185Y-67113815D01*
X163779494Y-67034463D01*
X163669180Y-66975498D01*
X163549482Y-66939188D01*
X163425000Y-66926928D01*
X162845750Y-66930000D01*
X162687000Y-67088750D01*
X162687000Y-68453000D01*
X162707000Y-68453000D01*
X162707000Y-68707000D01*
X162687000Y-68707000D01*
X162687000Y-68727000D01*
X162433000Y-68727000D01*
X162433000Y-68707000D01*
X161218750Y-68707000D01*
X161060000Y-68865750D01*
X161058760Y-69160010D01*
X160249812Y-69160010D01*
X159158804Y-68069003D01*
X159135001Y-68039999D01*
X159019276Y-67945026D01*
X158887247Y-67874454D01*
X158878133Y-67871689D01*
X158872524Y-67853198D01*
X158733238Y-67592613D01*
X158710577Y-67565000D01*
X161056928Y-67565000D01*
X161060000Y-68294250D01*
X161218750Y-68453000D01*
X162433000Y-68453000D01*
X162433000Y-67088750D01*
X162274250Y-66930000D01*
X161695000Y-66926928D01*
X161570518Y-66939188D01*
X161450820Y-66975498D01*
X161340506Y-67034463D01*
X161243815Y-67113815D01*
X161164463Y-67210506D01*
X161105498Y-67320820D01*
X161069188Y-67440518D01*
X161056928Y-67565000D01*
X158710577Y-67565000D01*
X158545792Y-67364208D01*
X158317386Y-67176762D01*
X158056801Y-67037476D01*
X157774050Y-66951705D01*
X157480000Y-66922743D01*
X157185949Y-66951705D01*
X156903198Y-67037476D01*
X156642613Y-67176762D01*
X156414208Y-67364208D01*
X156226762Y-67592614D01*
X156210000Y-67623973D01*
X156193238Y-67592613D01*
X156005792Y-67364208D01*
X155777386Y-67176762D01*
X155516801Y-67037476D01*
X155234050Y-66951705D01*
X154940000Y-66922743D01*
X154645949Y-66951705D01*
X154363198Y-67037476D01*
X154102613Y-67176762D01*
X153874208Y-67364208D01*
X153869430Y-67370030D01*
X153854502Y-67320820D01*
X153795537Y-67210506D01*
X153716185Y-67113815D01*
X153619494Y-67034463D01*
X153509180Y-66975498D01*
X153389482Y-66939188D01*
X153265000Y-66926928D01*
X152685750Y-66930000D01*
X152527000Y-67088750D01*
X152527000Y-68453000D01*
X152547000Y-68453000D01*
X152547000Y-68707000D01*
X152527000Y-68707000D01*
X152527000Y-68727000D01*
X152273000Y-68727000D01*
X152273000Y-68707000D01*
X151058750Y-68707000D01*
X150900000Y-68865750D01*
X150898760Y-69160010D01*
X150089812Y-69160010D01*
X148998804Y-68069003D01*
X148975001Y-68039999D01*
X148859276Y-67945026D01*
X148727247Y-67874454D01*
X148718133Y-67871689D01*
X148712524Y-67853198D01*
X148573238Y-67592613D01*
X148550577Y-67565000D01*
X150896928Y-67565000D01*
X150900000Y-68294250D01*
X151058750Y-68453000D01*
X152273000Y-68453000D01*
X152273000Y-67088750D01*
X152114250Y-66930000D01*
X151535000Y-66926928D01*
X151410518Y-66939188D01*
X151290820Y-66975498D01*
X151180506Y-67034463D01*
X151083815Y-67113815D01*
X151004463Y-67210506D01*
X150945498Y-67320820D01*
X150909188Y-67440518D01*
X150896928Y-67565000D01*
X148550577Y-67565000D01*
X148385792Y-67364208D01*
X148157386Y-67176762D01*
X147896801Y-67037476D01*
X147614050Y-66951705D01*
X147320000Y-66922743D01*
X147025949Y-66951705D01*
X146941979Y-66977177D01*
X142199126Y-62234324D01*
X162819000Y-62234324D01*
X162819000Y-62733676D01*
X162916418Y-63223432D01*
X163107512Y-63684773D01*
X163384937Y-64099968D01*
X163738032Y-64453063D01*
X164153227Y-64730488D01*
X164614568Y-64921582D01*
X165104324Y-65019000D01*
X165603676Y-65019000D01*
X166093432Y-64921582D01*
X166554773Y-64730488D01*
X166969968Y-64453063D01*
X167323063Y-64099968D01*
X167600488Y-63684773D01*
X167791582Y-63223432D01*
X167889000Y-62733676D01*
X167889000Y-62234324D01*
X167791582Y-61744568D01*
X167600488Y-61283227D01*
X167323063Y-60868032D01*
X166969968Y-60514937D01*
X166554773Y-60237512D01*
X166093432Y-60046418D01*
X165603676Y-59949000D01*
X165104324Y-59949000D01*
X164614568Y-60046418D01*
X164153227Y-60237512D01*
X163738032Y-60514937D01*
X163384937Y-60868032D01*
X163107512Y-61283227D01*
X162916418Y-61744568D01*
X162819000Y-62234324D01*
X142199126Y-62234324D01*
X141683804Y-61719003D01*
X141660001Y-61689999D01*
X141544276Y-61595026D01*
X141412247Y-61524454D01*
X141268986Y-61480997D01*
X141157333Y-61470000D01*
X141157322Y-61470000D01*
X141120000Y-61466324D01*
X141082678Y-61470000D01*
X137110901Y-61470000D01*
X137088932Y-61428899D01*
X136909608Y-61210392D01*
X136691101Y-61031068D01*
X136441808Y-60897818D01*
X136171309Y-60815764D01*
X135960492Y-60795000D01*
X135819508Y-60795000D01*
X135608691Y-60815764D01*
X135564093Y-60829292D01*
X135328803Y-60594002D01*
X135305000Y-60564998D01*
X135189275Y-60470025D01*
X135057246Y-60399453D01*
X134913985Y-60355996D01*
X134802332Y-60344999D01*
X134802321Y-60344999D01*
X134764999Y-60341323D01*
X134727677Y-60344999D01*
X121972126Y-60344999D01*
X121934801Y-60341323D01*
X121897476Y-60344999D01*
X121897468Y-60344999D01*
X121785815Y-60355996D01*
X121642554Y-60399453D01*
X121510525Y-60470025D01*
X121394800Y-60564998D01*
X121371002Y-60593996D01*
X120018300Y-61946699D01*
X119935177Y-61921484D01*
X119715019Y-61899800D01*
X119044981Y-61899800D01*
X118824823Y-61921484D01*
X118542336Y-62007175D01*
X118281994Y-62146331D01*
X118108000Y-62289125D01*
X118108000Y-59981325D01*
X118111676Y-59944000D01*
X118108000Y-59906675D01*
X118108000Y-59906667D01*
X118097003Y-59795014D01*
X118053546Y-59651753D01*
X117982974Y-59519724D01*
X117888001Y-59403999D01*
X117859002Y-59380201D01*
X117812802Y-59334000D01*
X169774000Y-59334000D01*
X169774001Y-115164000D01*
X70764000Y-115164000D01*
X70764000Y-111764324D01*
X71379000Y-111764324D01*
X71379000Y-112263676D01*
X71476418Y-112753432D01*
X71667512Y-113214773D01*
X71944937Y-113629968D01*
X72298032Y-113983063D01*
X72713227Y-114260488D01*
X73174568Y-114451582D01*
X73664324Y-114549000D01*
X74163676Y-114549000D01*
X74653432Y-114451582D01*
X75114773Y-114260488D01*
X75529968Y-113983063D01*
X75883063Y-113629968D01*
X76160488Y-113214773D01*
X76351582Y-112753432D01*
X76449000Y-112263676D01*
X76449000Y-111764324D01*
X76351582Y-111274568D01*
X76160488Y-110813227D01*
X75883063Y-110398032D01*
X75529968Y-110044937D01*
X75114773Y-109767512D01*
X74653432Y-109576418D01*
X74163676Y-109479000D01*
X73664324Y-109479000D01*
X73174568Y-109576418D01*
X72713227Y-109767512D01*
X72298032Y-110044937D01*
X71944937Y-110398032D01*
X71667512Y-110813227D01*
X71476418Y-111274568D01*
X71379000Y-111764324D01*
X70764000Y-111764324D01*
X70764000Y-62234324D01*
X71379000Y-62234324D01*
X71379000Y-62733676D01*
X71476418Y-63223432D01*
X71667512Y-63684773D01*
X71944937Y-64099968D01*
X72298032Y-64453063D01*
X72713227Y-64730488D01*
X73174568Y-64921582D01*
X73664324Y-65019000D01*
X74163676Y-65019000D01*
X74653432Y-64921582D01*
X75114773Y-64730488D01*
X75529968Y-64453063D01*
X75883063Y-64099968D01*
X76160488Y-63684773D01*
X76351582Y-63223432D01*
X76449000Y-62733676D01*
X76449000Y-62234324D01*
X76351582Y-61744568D01*
X76160488Y-61283227D01*
X75883063Y-60868032D01*
X75529968Y-60514937D01*
X75114773Y-60237512D01*
X74653432Y-60046418D01*
X74163676Y-59949000D01*
X73664324Y-59949000D01*
X73174568Y-60046418D01*
X72713227Y-60237512D01*
X72298032Y-60514937D01*
X71944937Y-60868032D01*
X71667512Y-61283227D01*
X71476418Y-61744568D01*
X71379000Y-62234324D01*
X70764000Y-62234324D01*
X70764000Y-59334000D01*
X81116199Y-59334000D01*
X73310997Y-67139203D01*
G36*
X126831928Y-63030000D02*
G01*
X126844188Y-63154482D01*
X126880498Y-63274180D01*
X126939463Y-63384494D01*
X127018815Y-63481185D01*
X127115506Y-63560537D01*
X127225820Y-63619502D01*
X127345518Y-63655812D01*
X127363482Y-63657581D01*
X127250392Y-63750392D01*
X127071068Y-63968899D01*
X126937818Y-64218192D01*
X126855764Y-64488691D01*
X126828057Y-64770000D01*
X126855764Y-65051309D01*
X126937818Y-65321808D01*
X127071068Y-65571101D01*
X127250392Y-65789608D01*
X127468899Y-65968932D01*
X127601858Y-66040000D01*
X127468899Y-66111068D01*
X127250392Y-66290392D01*
X127071068Y-66508899D01*
X126937818Y-66758192D01*
X126855764Y-67028691D01*
X126828057Y-67310000D01*
X126855764Y-67591309D01*
X126937818Y-67861808D01*
X127071068Y-68111101D01*
X127250392Y-68329608D01*
X127468899Y-68508932D01*
X127601858Y-68580000D01*
X127468899Y-68651068D01*
X127250392Y-68830392D01*
X127071068Y-69048899D01*
X126937818Y-69298192D01*
X126855764Y-69568691D01*
X126828057Y-69850000D01*
X126855764Y-70131309D01*
X126937818Y-70401808D01*
X127071068Y-70651101D01*
X127250392Y-70869608D01*
X127468899Y-71048932D01*
X127601858Y-71120000D01*
X127468899Y-71191068D01*
X127250392Y-71370392D01*
X127071068Y-71588899D01*
X126937818Y-71838192D01*
X126855764Y-72108691D01*
X126828057Y-72390000D01*
X126855764Y-72671309D01*
X126937818Y-72941808D01*
X127071068Y-73191101D01*
X127250392Y-73409608D01*
X127468899Y-73588932D01*
X127606682Y-73662579D01*
X127414869Y-73777615D01*
X127206481Y-73966586D01*
X127038963Y-74192580D01*
X126918754Y-74446913D01*
X126878096Y-74580961D01*
X127000085Y-74803000D01*
X128143000Y-74803000D01*
X128143000Y-74783000D01*
X128397000Y-74783000D01*
X128397000Y-74803000D01*
X129539915Y-74803000D01*
X129661904Y-74580961D01*
X129621246Y-74446913D01*
X129501037Y-74192580D01*
X129333519Y-73966586D01*
X129125131Y-73777615D01*
X128933318Y-73662579D01*
X129071101Y-73588932D01*
X129289608Y-73409608D01*
X129468932Y-73191101D01*
X129602182Y-72941808D01*
X129684236Y-72671309D01*
X129711943Y-72390000D01*
X129684236Y-72108691D01*
X129602182Y-71838192D01*
X129468932Y-71588899D01*
X129289608Y-71370392D01*
X129071101Y-71191068D01*
X128938142Y-71120000D01*
X129071101Y-71048932D01*
X129289608Y-70869608D01*
X129468932Y-70651101D01*
X129602182Y-70401808D01*
X129684236Y-70131309D01*
X129711943Y-69850000D01*
X129684236Y-69568691D01*
X129602182Y-69298192D01*
X129468932Y-69048899D01*
X129289608Y-68830392D01*
X129071101Y-68651068D01*
X128938142Y-68580000D01*
X129071101Y-68508932D01*
X129289608Y-68329608D01*
X129468932Y-68111101D01*
X129602182Y-67861808D01*
X129684236Y-67591309D01*
X129711943Y-67310000D01*
X129684236Y-67028691D01*
X129602182Y-66758192D01*
X129468932Y-66508899D01*
X129289608Y-66290392D01*
X129071101Y-66111068D01*
X128938142Y-66040000D01*
X129071101Y-65968932D01*
X129289608Y-65789608D01*
X129468932Y-65571101D01*
X129602182Y-65321808D01*
X129684236Y-65051309D01*
X129711943Y-64770000D01*
X129684236Y-64488691D01*
X129602182Y-64218192D01*
X129468932Y-63968899D01*
X129289608Y-63750392D01*
X129176518Y-63657581D01*
X129194482Y-63655812D01*
X129314180Y-63619502D01*
X129424494Y-63560537D01*
X129521185Y-63481185D01*
X129600537Y-63384494D01*
X129659502Y-63274180D01*
X129695812Y-63154482D01*
X129708072Y-63030000D01*
X129708072Y-61864999D01*
X134450198Y-61864999D01*
X134489292Y-61904093D01*
X134475764Y-61948691D01*
X134448057Y-62230000D01*
X134475764Y-62511309D01*
X134557818Y-62781808D01*
X134691068Y-63031101D01*
X134870392Y-63249608D01*
X135088899Y-63428932D01*
X135221858Y-63500000D01*
X135088899Y-63571068D01*
X134870392Y-63750392D01*
X134691068Y-63968899D01*
X134557818Y-64218192D01*
X134475764Y-64488691D01*
X134448057Y-64770000D01*
X134475764Y-65051309D01*
X134557818Y-65321808D01*
X134691068Y-65571101D01*
X134870392Y-65789608D01*
X135088899Y-65968932D01*
X135221858Y-66040000D01*
X135088899Y-66111068D01*
X134870392Y-66290392D01*
X134691068Y-66508899D01*
X134557818Y-66758192D01*
X134475764Y-67028691D01*
X134448057Y-67310000D01*
X134475764Y-67591309D01*
X134557818Y-67861808D01*
X134691068Y-68111101D01*
X134870392Y-68329608D01*
X135088899Y-68508932D01*
X135221858Y-68580000D01*
X135088899Y-68651068D01*
X134870392Y-68830392D01*
X134691068Y-69048899D01*
X134557818Y-69298192D01*
X134475764Y-69568691D01*
X134448057Y-69850000D01*
X134475764Y-70131309D01*
X134557818Y-70401808D01*
X134691068Y-70651101D01*
X134870392Y-70869608D01*
X135088899Y-71048932D01*
X135221858Y-71120000D01*
X135088899Y-71191068D01*
X134870392Y-71370392D01*
X134691068Y-71588899D01*
X134557818Y-71838192D01*
X134475764Y-72108691D01*
X134448057Y-72390000D01*
X134475764Y-72671309D01*
X134557818Y-72941808D01*
X134691068Y-73191101D01*
X134870392Y-73409608D01*
X135088899Y-73588932D01*
X135221858Y-73660000D01*
X135088899Y-73731068D01*
X134870392Y-73910392D01*
X134691068Y-74128899D01*
X134557818Y-74378192D01*
X134475764Y-74648691D01*
X134448057Y-74930000D01*
X134475764Y-75211309D01*
X134557818Y-75481808D01*
X134691068Y-75731101D01*
X134870392Y-75949608D01*
X135088899Y-76128932D01*
X135221858Y-76200000D01*
X135088899Y-76271068D01*
X134870392Y-76450392D01*
X134691068Y-76668899D01*
X134557818Y-76918192D01*
X134475764Y-77188691D01*
X134448057Y-77470000D01*
X134475764Y-77751309D01*
X134489292Y-77795906D01*
X132764846Y-79520353D01*
X132764846Y-77605955D01*
X133861003Y-76509799D01*
X133890001Y-76486001D01*
X133926930Y-76441003D01*
X133984974Y-76370277D01*
X134055546Y-76238247D01*
X134064031Y-76210276D01*
X134099003Y-76094986D01*
X134110000Y-75983333D01*
X134110000Y-75983324D01*
X134113676Y-75946001D01*
X134110000Y-75908678D01*
X134110000Y-75633711D01*
X134153937Y-75589774D01*
X134267205Y-75420256D01*
X134345226Y-75231898D01*
X134385000Y-75031939D01*
X134385000Y-74828061D01*
X134345226Y-74628102D01*
X134267205Y-74439744D01*
X134153937Y-74270226D01*
X134009774Y-74126063D01*
X133840256Y-74012795D01*
X133651898Y-73934774D01*
X133451939Y-73895000D01*
X133248061Y-73895000D01*
X133048102Y-73934774D01*
X132859744Y-74012795D01*
X132690226Y-74126063D01*
X132546063Y-74270226D01*
X132432795Y-74439744D01*
X132354774Y-74628102D01*
X132315000Y-74828061D01*
X132315000Y-75031939D01*
X132354774Y-75231898D01*
X132432795Y-75420256D01*
X132546063Y-75589774D01*
X132588744Y-75632455D01*
X131493849Y-76727350D01*
X131464845Y-76751153D01*
X131426420Y-76797975D01*
X131369872Y-76866878D01*
X131322271Y-76955932D01*
X131299300Y-76998908D01*
X131255843Y-77142169D01*
X131244846Y-77253822D01*
X131244846Y-77253832D01*
X131241170Y-77291154D01*
X131244846Y-77328476D01*
X131244847Y-92224662D01*
X131212986Y-92214997D01*
X131101333Y-92204000D01*
X131064000Y-92200323D01*
X131026667Y-92204000D01*
X130108803Y-92204000D01*
X129670708Y-91765906D01*
X129684236Y-91721309D01*
X129711943Y-91440000D01*
X129684236Y-91158691D01*
X129602182Y-90888192D01*
X129468932Y-90638899D01*
X129289608Y-90420392D01*
X129176518Y-90327581D01*
X129194482Y-90325812D01*
X129314180Y-90289502D01*
X129424494Y-90230537D01*
X129521185Y-90151185D01*
X129600537Y-90054494D01*
X129659502Y-89944180D01*
X129695812Y-89824482D01*
X129708072Y-89700000D01*
X129708072Y-88100000D01*
X129695812Y-87975518D01*
X129659502Y-87855820D01*
X129600537Y-87745506D01*
X129521185Y-87648815D01*
X129424494Y-87569463D01*
X129314180Y-87510498D01*
X129194482Y-87474188D01*
X129070000Y-87461928D01*
X127470000Y-87461928D01*
X127345518Y-87474188D01*
X127225820Y-87510498D01*
X127115506Y-87569463D01*
X127018815Y-87648815D01*
X126939463Y-87745506D01*
X126880498Y-87855820D01*
X126844188Y-87975518D01*
X126831928Y-88100000D01*
X126831928Y-88560063D01*
X126787937Y-88494226D01*
X126643774Y-88350063D01*
X126474256Y-88236795D01*
X126285898Y-88158774D01*
X126085939Y-88119000D01*
X125882061Y-88119000D01*
X125682102Y-88158774D01*
X125493744Y-88236795D01*
X125324226Y-88350063D01*
X125180063Y-88494226D01*
X125066795Y-88663744D01*
X124988774Y-88852102D01*
X124949000Y-89052061D01*
X124949000Y-89255939D01*
X124988774Y-89455898D01*
X125066795Y-89644256D01*
X125180063Y-89813774D01*
X125224000Y-89857711D01*
X125224001Y-101816668D01*
X125220324Y-101854000D01*
X125224001Y-101891333D01*
X125232092Y-101973476D01*
X125234998Y-102002985D01*
X125278454Y-102146246D01*
X125349026Y-102278276D01*
X125391029Y-102329456D01*
X125444000Y-102394001D01*
X125472998Y-102417799D01*
X126917036Y-103861837D01*
X127000085Y-104013000D01*
X127068198Y-104013000D01*
X127195198Y-104140000D01*
X127068199Y-104267000D01*
X127000085Y-104267000D01*
X126917036Y-104418162D01*
X124277389Y-107057810D01*
X121077415Y-107057810D01*
X121118316Y-106922977D01*
X121147251Y-106629200D01*
X121118316Y-106335423D01*
X121032625Y-106052936D01*
X120893469Y-105792594D01*
X120706197Y-105564403D01*
X120478006Y-105377131D01*
X120444460Y-105359200D01*
X120478006Y-105341269D01*
X120706197Y-105153997D01*
X120893469Y-104925806D01*
X121032625Y-104665464D01*
X121118316Y-104382977D01*
X121147251Y-104089200D01*
X121118316Y-103795423D01*
X121032625Y-103512936D01*
X120893469Y-103252594D01*
X120706197Y-103024403D01*
X120478006Y-102837131D01*
X120444460Y-102819200D01*
X120478006Y-102801269D01*
X120706197Y-102613997D01*
X120893469Y-102385806D01*
X121032625Y-102125464D01*
X121118316Y-101842977D01*
X121147251Y-101549200D01*
X121118316Y-101255423D01*
X121032625Y-100972936D01*
X120893469Y-100712594D01*
X120706197Y-100484403D01*
X120478006Y-100297131D01*
X120444460Y-100279200D01*
X120478006Y-100261269D01*
X120706197Y-100073997D01*
X120893469Y-99845806D01*
X121032625Y-99585464D01*
X121118316Y-99302977D01*
X121147251Y-99009200D01*
X121118316Y-98715423D01*
X121032625Y-98432936D01*
X120893469Y-98172594D01*
X120706197Y-97944403D01*
X120478006Y-97757131D01*
X120444460Y-97739200D01*
X120478006Y-97721269D01*
X120706197Y-97533997D01*
X120893469Y-97305806D01*
X121032625Y-97045464D01*
X121118316Y-96762977D01*
X121147251Y-96469200D01*
X121118316Y-96175423D01*
X121032625Y-95892936D01*
X120893469Y-95632594D01*
X120706197Y-95404403D01*
X120478006Y-95217131D01*
X120444460Y-95199200D01*
X120478006Y-95181269D01*
X120706197Y-94993997D01*
X120893469Y-94765806D01*
X121032625Y-94505464D01*
X121118316Y-94222977D01*
X121147251Y-93929200D01*
X121118316Y-93635423D01*
X121032625Y-93352936D01*
X120893469Y-93092594D01*
X120706197Y-92864403D01*
X120478006Y-92677131D01*
X120444460Y-92659200D01*
X120478006Y-92641269D01*
X120706197Y-92453997D01*
X120893469Y-92225806D01*
X121032625Y-91965464D01*
X121118316Y-91682977D01*
X121147251Y-91389200D01*
X121118316Y-91095423D01*
X121032625Y-90812936D01*
X120893469Y-90552594D01*
X120706197Y-90324403D01*
X120478006Y-90137131D01*
X120444460Y-90119200D01*
X120478006Y-90101269D01*
X120706197Y-89913997D01*
X120893469Y-89685806D01*
X121032625Y-89425464D01*
X121118316Y-89142977D01*
X121147251Y-88849200D01*
X121118316Y-88555423D01*
X121032625Y-88272936D01*
X120893469Y-88012594D01*
X120706197Y-87784403D01*
X120478006Y-87597131D01*
X120444460Y-87579200D01*
X120478006Y-87561269D01*
X120706197Y-87373997D01*
X120893469Y-87145806D01*
X121032625Y-86885464D01*
X121118316Y-86602977D01*
X121147251Y-86309200D01*
X121118316Y-86015423D01*
X121032625Y-85732936D01*
X120893469Y-85472594D01*
X120706197Y-85244403D01*
X120478006Y-85057131D01*
X120444460Y-85039200D01*
X120478006Y-85021269D01*
X120706197Y-84833997D01*
X120893469Y-84605806D01*
X121032625Y-84345464D01*
X121118316Y-84062977D01*
X121147251Y-83769200D01*
X121118316Y-83475423D01*
X121032625Y-83192936D01*
X120893469Y-82932594D01*
X120706197Y-82704403D01*
X120478006Y-82517131D01*
X120444460Y-82499200D01*
X120478006Y-82481269D01*
X120706197Y-82293997D01*
X120893469Y-82065806D01*
X121032625Y-81805464D01*
X121118316Y-81522977D01*
X121147251Y-81229200D01*
X121118316Y-80935423D01*
X121032625Y-80652936D01*
X120893469Y-80392594D01*
X120865932Y-80359039D01*
X126878096Y-80359039D01*
X126918754Y-80493087D01*
X127038963Y-80747420D01*
X127206481Y-80973414D01*
X127414869Y-81162385D01*
X127656119Y-81307070D01*
X127920960Y-81401909D01*
X128143000Y-81280624D01*
X128143000Y-80137000D01*
X128397000Y-80137000D01*
X128397000Y-81280624D01*
X128619040Y-81401909D01*
X128883881Y-81307070D01*
X129125131Y-81162385D01*
X129333519Y-80973414D01*
X129501037Y-80747420D01*
X129621246Y-80493087D01*
X129661904Y-80359039D01*
X129539915Y-80137000D01*
X128397000Y-80137000D01*
X128143000Y-80137000D01*
X127000085Y-80137000D01*
X126878096Y-80359039D01*
X120865932Y-80359039D01*
X120706197Y-80164403D01*
X120478006Y-79977131D01*
X120444460Y-79959200D01*
X120478006Y-79941269D01*
X120706197Y-79753997D01*
X120893469Y-79525806D01*
X121032625Y-79265464D01*
X121118316Y-78982977D01*
X121147251Y-78689200D01*
X121118316Y-78395423D01*
X121032625Y-78112936D01*
X120893469Y-77852594D01*
X120865932Y-77819039D01*
X126878096Y-77819039D01*
X126918754Y-77953087D01*
X127038963Y-78207420D01*
X127206481Y-78433414D01*
X127414869Y-78622385D01*
X127610982Y-78740000D01*
X127414869Y-78857615D01*
X127206481Y-79046586D01*
X127038963Y-79272580D01*
X126918754Y-79526913D01*
X126878096Y-79660961D01*
X127000085Y-79883000D01*
X128143000Y-79883000D01*
X128143000Y-77597000D01*
X128397000Y-77597000D01*
X128397000Y-79883000D01*
X129539915Y-79883000D01*
X129661904Y-79660961D01*
X129621246Y-79526913D01*
X129501037Y-79272580D01*
X129333519Y-79046586D01*
X129125131Y-78857615D01*
X128929018Y-78740000D01*
X129125131Y-78622385D01*
X129333519Y-78433414D01*
X129501037Y-78207420D01*
X129621246Y-77953087D01*
X129661904Y-77819039D01*
X129539915Y-77597000D01*
X128397000Y-77597000D01*
X128143000Y-77597000D01*
X127000085Y-77597000D01*
X126878096Y-77819039D01*
X120865932Y-77819039D01*
X120706197Y-77624403D01*
X120478006Y-77437131D01*
X120444460Y-77419200D01*
X120478006Y-77401269D01*
X120706197Y-77213997D01*
X120893469Y-76985806D01*
X121032625Y-76725464D01*
X121118316Y-76442977D01*
X121147251Y-76149200D01*
X121118316Y-75855423D01*
X121032625Y-75572936D01*
X120893469Y-75312594D01*
X120865932Y-75279039D01*
X126878096Y-75279039D01*
X126918754Y-75413087D01*
X127038963Y-75667420D01*
X127206481Y-75893414D01*
X127414869Y-76082385D01*
X127610982Y-76200000D01*
X127414869Y-76317615D01*
X127206481Y-76506586D01*
X127038963Y-76732580D01*
X126918754Y-76986913D01*
X126878096Y-77120961D01*
X127000085Y-77343000D01*
X128143000Y-77343000D01*
X128143000Y-75057000D01*
X128397000Y-75057000D01*
X128397000Y-77343000D01*
X129539915Y-77343000D01*
X129661904Y-77120961D01*
X129621246Y-76986913D01*
X129501037Y-76732580D01*
X129333519Y-76506586D01*
X129125131Y-76317615D01*
X128929018Y-76200000D01*
X129125131Y-76082385D01*
X129333519Y-75893414D01*
X129501037Y-75667420D01*
X129621246Y-75413087D01*
X129661904Y-75279039D01*
X129539915Y-75057000D01*
X128397000Y-75057000D01*
X128143000Y-75057000D01*
X127000085Y-75057000D01*
X126878096Y-75279039D01*
X120865932Y-75279039D01*
X120706197Y-75084403D01*
X120478006Y-74897131D01*
X120444460Y-74879200D01*
X120478006Y-74861269D01*
X120706197Y-74673997D01*
X120893469Y-74445806D01*
X121032625Y-74185464D01*
X121118316Y-73902977D01*
X121147251Y-73609200D01*
X121118316Y-73315423D01*
X121032625Y-73032936D01*
X120893469Y-72772594D01*
X120706197Y-72544403D01*
X120478006Y-72357131D01*
X120444460Y-72339200D01*
X120478006Y-72321269D01*
X120706197Y-72133997D01*
X120893469Y-71905806D01*
X121032625Y-71645464D01*
X121118316Y-71362977D01*
X121147251Y-71069200D01*
X121118316Y-70775423D01*
X121032625Y-70492936D01*
X120893469Y-70232594D01*
X120706197Y-70004403D01*
X120478006Y-69817131D01*
X120444460Y-69799200D01*
X120478006Y-69781269D01*
X120706197Y-69593997D01*
X120893469Y-69365806D01*
X121032625Y-69105464D01*
X121118316Y-68822977D01*
X121147251Y-68529200D01*
X121118316Y-68235423D01*
X121032625Y-67952936D01*
X120893469Y-67692594D01*
X120706197Y-67464403D01*
X120478006Y-67277131D01*
X120438647Y-67256093D01*
X120579574Y-67164683D01*
X120790873Y-66959068D01*
X120957998Y-66716181D01*
X121074527Y-66445357D01*
X121096358Y-66348226D01*
X120975217Y-66116200D01*
X119507000Y-66116200D01*
X119507000Y-66136200D01*
X119253000Y-66136200D01*
X119253000Y-66116200D01*
X119233000Y-66116200D01*
X119233000Y-65862200D01*
X119253000Y-65862200D01*
X119253000Y-65842200D01*
X119507000Y-65842200D01*
X119507000Y-65862200D01*
X120975217Y-65862200D01*
X121096358Y-65630174D01*
X121074527Y-65533043D01*
X120957998Y-65262219D01*
X120790873Y-65019332D01*
X120579574Y-64813717D01*
X120395711Y-64694457D01*
X120478006Y-64650469D01*
X120706197Y-64463197D01*
X120893469Y-64235006D01*
X121032625Y-63974664D01*
X121118316Y-63692177D01*
X121147251Y-63398400D01*
X121118316Y-63104623D01*
X121093101Y-63021500D01*
X122249603Y-61864999D01*
X126831928Y-61864999D01*
X126831928Y-63030000D01*
X126831928Y-63030000D01*
G37*
X126831928Y-63030000D02*
X126844188Y-63154482D01*
X126880498Y-63274180D01*
X126939463Y-63384494D01*
X127018815Y-63481185D01*
X127115506Y-63560537D01*
X127225820Y-63619502D01*
X127345518Y-63655812D01*
X127363482Y-63657581D01*
X127250392Y-63750392D01*
X127071068Y-63968899D01*
X126937818Y-64218192D01*
X126855764Y-64488691D01*
X126828057Y-64770000D01*
X126855764Y-65051309D01*
X126937818Y-65321808D01*
X127071068Y-65571101D01*
X127250392Y-65789608D01*
X127468899Y-65968932D01*
X127601858Y-66040000D01*
X127468899Y-66111068D01*
X127250392Y-66290392D01*
X127071068Y-66508899D01*
X126937818Y-66758192D01*
X126855764Y-67028691D01*
X126828057Y-67310000D01*
X126855764Y-67591309D01*
X126937818Y-67861808D01*
X127071068Y-68111101D01*
X127250392Y-68329608D01*
X127468899Y-68508932D01*
X127601858Y-68580000D01*
X127468899Y-68651068D01*
X127250392Y-68830392D01*
X127071068Y-69048899D01*
X126937818Y-69298192D01*
X126855764Y-69568691D01*
X126828057Y-69850000D01*
X126855764Y-70131309D01*
X126937818Y-70401808D01*
X127071068Y-70651101D01*
X127250392Y-70869608D01*
X127468899Y-71048932D01*
X127601858Y-71120000D01*
X127468899Y-71191068D01*
X127250392Y-71370392D01*
X127071068Y-71588899D01*
X126937818Y-71838192D01*
X126855764Y-72108691D01*
X126828057Y-72390000D01*
X126855764Y-72671309D01*
X126937818Y-72941808D01*
X127071068Y-73191101D01*
X127250392Y-73409608D01*
X127468899Y-73588932D01*
X127606682Y-73662579D01*
X127414869Y-73777615D01*
X127206481Y-73966586D01*
X127038963Y-74192580D01*
X126918754Y-74446913D01*
X126878096Y-74580961D01*
X127000085Y-74803000D01*
X128143000Y-74803000D01*
X128143000Y-74783000D01*
X128397000Y-74783000D01*
X128397000Y-74803000D01*
X129539915Y-74803000D01*
X129661904Y-74580961D01*
X129621246Y-74446913D01*
X129501037Y-74192580D01*
X129333519Y-73966586D01*
X129125131Y-73777615D01*
X128933318Y-73662579D01*
X129071101Y-73588932D01*
X129289608Y-73409608D01*
X129468932Y-73191101D01*
X129602182Y-72941808D01*
X129684236Y-72671309D01*
X129711943Y-72390000D01*
X129684236Y-72108691D01*
X129602182Y-71838192D01*
X129468932Y-71588899D01*
X129289608Y-71370392D01*
X129071101Y-71191068D01*
X128938142Y-71120000D01*
X129071101Y-71048932D01*
X129289608Y-70869608D01*
X129468932Y-70651101D01*
X129602182Y-70401808D01*
X129684236Y-70131309D01*
X129711943Y-69850000D01*
X129684236Y-69568691D01*
X129602182Y-69298192D01*
X129468932Y-69048899D01*
X129289608Y-68830392D01*
X129071101Y-68651068D01*
X128938142Y-68580000D01*
X129071101Y-68508932D01*
X129289608Y-68329608D01*
X129468932Y-68111101D01*
X129602182Y-67861808D01*
X129684236Y-67591309D01*
X129711943Y-67310000D01*
X129684236Y-67028691D01*
X129602182Y-66758192D01*
X129468932Y-66508899D01*
X129289608Y-66290392D01*
X129071101Y-66111068D01*
X128938142Y-66040000D01*
X129071101Y-65968932D01*
X129289608Y-65789608D01*
X129468932Y-65571101D01*
X129602182Y-65321808D01*
X129684236Y-65051309D01*
X129711943Y-64770000D01*
X129684236Y-64488691D01*
X129602182Y-64218192D01*
X129468932Y-63968899D01*
X129289608Y-63750392D01*
X129176518Y-63657581D01*
X129194482Y-63655812D01*
X129314180Y-63619502D01*
X129424494Y-63560537D01*
X129521185Y-63481185D01*
X129600537Y-63384494D01*
X129659502Y-63274180D01*
X129695812Y-63154482D01*
X129708072Y-63030000D01*
X129708072Y-61864999D01*
X134450198Y-61864999D01*
X134489292Y-61904093D01*
X134475764Y-61948691D01*
X134448057Y-62230000D01*
X134475764Y-62511309D01*
X134557818Y-62781808D01*
X134691068Y-63031101D01*
X134870392Y-63249608D01*
X135088899Y-63428932D01*
X135221858Y-63500000D01*
X135088899Y-63571068D01*
X134870392Y-63750392D01*
X134691068Y-63968899D01*
X134557818Y-64218192D01*
X134475764Y-64488691D01*
X134448057Y-64770000D01*
X134475764Y-65051309D01*
X134557818Y-65321808D01*
X134691068Y-65571101D01*
X134870392Y-65789608D01*
X135088899Y-65968932D01*
X135221858Y-66040000D01*
X135088899Y-66111068D01*
X134870392Y-66290392D01*
X134691068Y-66508899D01*
X134557818Y-66758192D01*
X134475764Y-67028691D01*
X134448057Y-67310000D01*
X134475764Y-67591309D01*
X134557818Y-67861808D01*
X134691068Y-68111101D01*
X134870392Y-68329608D01*
X135088899Y-68508932D01*
X135221858Y-68580000D01*
X135088899Y-68651068D01*
X134870392Y-68830392D01*
X134691068Y-69048899D01*
X134557818Y-69298192D01*
X134475764Y-69568691D01*
X134448057Y-69850000D01*
X134475764Y-70131309D01*
X134557818Y-70401808D01*
X134691068Y-70651101D01*
X134870392Y-70869608D01*
X135088899Y-71048932D01*
X135221858Y-71120000D01*
X135088899Y-71191068D01*
X134870392Y-71370392D01*
X134691068Y-71588899D01*
X134557818Y-71838192D01*
X134475764Y-72108691D01*
X134448057Y-72390000D01*
X134475764Y-72671309D01*
X134557818Y-72941808D01*
X134691068Y-73191101D01*
X134870392Y-73409608D01*
X135088899Y-73588932D01*
X135221858Y-73660000D01*
X135088899Y-73731068D01*
X134870392Y-73910392D01*
X134691068Y-74128899D01*
X134557818Y-74378192D01*
X134475764Y-74648691D01*
X134448057Y-74930000D01*
X134475764Y-75211309D01*
X134557818Y-75481808D01*
X134691068Y-75731101D01*
X134870392Y-75949608D01*
X135088899Y-76128932D01*
X135221858Y-76200000D01*
X135088899Y-76271068D01*
X134870392Y-76450392D01*
X134691068Y-76668899D01*
X134557818Y-76918192D01*
X134475764Y-77188691D01*
X134448057Y-77470000D01*
X134475764Y-77751309D01*
X134489292Y-77795906D01*
X132764846Y-79520353D01*
X132764846Y-77605955D01*
X133861003Y-76509799D01*
X133890001Y-76486001D01*
X133926930Y-76441003D01*
X133984974Y-76370277D01*
X134055546Y-76238247D01*
X134064031Y-76210276D01*
X134099003Y-76094986D01*
X134110000Y-75983333D01*
X134110000Y-75983324D01*
X134113676Y-75946001D01*
X134110000Y-75908678D01*
X134110000Y-75633711D01*
X134153937Y-75589774D01*
X134267205Y-75420256D01*
X134345226Y-75231898D01*
X134385000Y-75031939D01*
X134385000Y-74828061D01*
X134345226Y-74628102D01*
X134267205Y-74439744D01*
X134153937Y-74270226D01*
X134009774Y-74126063D01*
X133840256Y-74012795D01*
X133651898Y-73934774D01*
X133451939Y-73895000D01*
X133248061Y-73895000D01*
X133048102Y-73934774D01*
X132859744Y-74012795D01*
X132690226Y-74126063D01*
X132546063Y-74270226D01*
X132432795Y-74439744D01*
X132354774Y-74628102D01*
X132315000Y-74828061D01*
X132315000Y-75031939D01*
X132354774Y-75231898D01*
X132432795Y-75420256D01*
X132546063Y-75589774D01*
X132588744Y-75632455D01*
X131493849Y-76727350D01*
X131464845Y-76751153D01*
X131426420Y-76797975D01*
X131369872Y-76866878D01*
X131322271Y-76955932D01*
X131299300Y-76998908D01*
X131255843Y-77142169D01*
X131244846Y-77253822D01*
X131244846Y-77253832D01*
X131241170Y-77291154D01*
X131244846Y-77328476D01*
X131244847Y-92224662D01*
X131212986Y-92214997D01*
X131101333Y-92204000D01*
X131064000Y-92200323D01*
X131026667Y-92204000D01*
X130108803Y-92204000D01*
X129670708Y-91765906D01*
X129684236Y-91721309D01*
X129711943Y-91440000D01*
X129684236Y-91158691D01*
X129602182Y-90888192D01*
X129468932Y-90638899D01*
X129289608Y-90420392D01*
X129176518Y-90327581D01*
X129194482Y-90325812D01*
X129314180Y-90289502D01*
X129424494Y-90230537D01*
X129521185Y-90151185D01*
X129600537Y-90054494D01*
X129659502Y-89944180D01*
X129695812Y-89824482D01*
X129708072Y-89700000D01*
X129708072Y-88100000D01*
X129695812Y-87975518D01*
X129659502Y-87855820D01*
X129600537Y-87745506D01*
X129521185Y-87648815D01*
X129424494Y-87569463D01*
X129314180Y-87510498D01*
X129194482Y-87474188D01*
X129070000Y-87461928D01*
X127470000Y-87461928D01*
X127345518Y-87474188D01*
X127225820Y-87510498D01*
X127115506Y-87569463D01*
X127018815Y-87648815D01*
X126939463Y-87745506D01*
X126880498Y-87855820D01*
X126844188Y-87975518D01*
X126831928Y-88100000D01*
X126831928Y-88560063D01*
X126787937Y-88494226D01*
X126643774Y-88350063D01*
X126474256Y-88236795D01*
X126285898Y-88158774D01*
X126085939Y-88119000D01*
X125882061Y-88119000D01*
X125682102Y-88158774D01*
X125493744Y-88236795D01*
X125324226Y-88350063D01*
X125180063Y-88494226D01*
X125066795Y-88663744D01*
X124988774Y-88852102D01*
X124949000Y-89052061D01*
X124949000Y-89255939D01*
X124988774Y-89455898D01*
X125066795Y-89644256D01*
X125180063Y-89813774D01*
X125224000Y-89857711D01*
X125224001Y-101816668D01*
X125220324Y-101854000D01*
X125224001Y-101891333D01*
X125232092Y-101973476D01*
X125234998Y-102002985D01*
X125278454Y-102146246D01*
X125349026Y-102278276D01*
X125391029Y-102329456D01*
X125444000Y-102394001D01*
X125472998Y-102417799D01*
X126917036Y-103861837D01*
X127000085Y-104013000D01*
X127068198Y-104013000D01*
X127195198Y-104140000D01*
X127068199Y-104267000D01*
X127000085Y-104267000D01*
X126917036Y-104418162D01*
X124277389Y-107057810D01*
X121077415Y-107057810D01*
X121118316Y-106922977D01*
X121147251Y-106629200D01*
X121118316Y-106335423D01*
X121032625Y-106052936D01*
X120893469Y-105792594D01*
X120706197Y-105564403D01*
X120478006Y-105377131D01*
X120444460Y-105359200D01*
X120478006Y-105341269D01*
X120706197Y-105153997D01*
X120893469Y-104925806D01*
X121032625Y-104665464D01*
X121118316Y-104382977D01*
X121147251Y-104089200D01*
X121118316Y-103795423D01*
X121032625Y-103512936D01*
X120893469Y-103252594D01*
X120706197Y-103024403D01*
X120478006Y-102837131D01*
X120444460Y-102819200D01*
X120478006Y-102801269D01*
X120706197Y-102613997D01*
X120893469Y-102385806D01*
X121032625Y-102125464D01*
X121118316Y-101842977D01*
X121147251Y-101549200D01*
X121118316Y-101255423D01*
X121032625Y-100972936D01*
X120893469Y-100712594D01*
X120706197Y-100484403D01*
X120478006Y-100297131D01*
X120444460Y-100279200D01*
X120478006Y-100261269D01*
X120706197Y-100073997D01*
X120893469Y-99845806D01*
X121032625Y-99585464D01*
X121118316Y-99302977D01*
X121147251Y-99009200D01*
X121118316Y-98715423D01*
X121032625Y-98432936D01*
X120893469Y-98172594D01*
X120706197Y-97944403D01*
X120478006Y-97757131D01*
X120444460Y-97739200D01*
X120478006Y-97721269D01*
X120706197Y-97533997D01*
X120893469Y-97305806D01*
X121032625Y-97045464D01*
X121118316Y-96762977D01*
X121147251Y-96469200D01*
X121118316Y-96175423D01*
X121032625Y-95892936D01*
X120893469Y-95632594D01*
X120706197Y-95404403D01*
X120478006Y-95217131D01*
X120444460Y-95199200D01*
X120478006Y-95181269D01*
X120706197Y-94993997D01*
X120893469Y-94765806D01*
X121032625Y-94505464D01*
X121118316Y-94222977D01*
X121147251Y-93929200D01*
X121118316Y-93635423D01*
X121032625Y-93352936D01*
X120893469Y-93092594D01*
X120706197Y-92864403D01*
X120478006Y-92677131D01*
X120444460Y-92659200D01*
X120478006Y-92641269D01*
X120706197Y-92453997D01*
X120893469Y-92225806D01*
X121032625Y-91965464D01*
X121118316Y-91682977D01*
X121147251Y-91389200D01*
X121118316Y-91095423D01*
X121032625Y-90812936D01*
X120893469Y-90552594D01*
X120706197Y-90324403D01*
X120478006Y-90137131D01*
X120444460Y-90119200D01*
X120478006Y-90101269D01*
X120706197Y-89913997D01*
X120893469Y-89685806D01*
X121032625Y-89425464D01*
X121118316Y-89142977D01*
X121147251Y-88849200D01*
X121118316Y-88555423D01*
X121032625Y-88272936D01*
X120893469Y-88012594D01*
X120706197Y-87784403D01*
X120478006Y-87597131D01*
X120444460Y-87579200D01*
X120478006Y-87561269D01*
X120706197Y-87373997D01*
X120893469Y-87145806D01*
X121032625Y-86885464D01*
X121118316Y-86602977D01*
X121147251Y-86309200D01*
X121118316Y-86015423D01*
X121032625Y-85732936D01*
X120893469Y-85472594D01*
X120706197Y-85244403D01*
X120478006Y-85057131D01*
X120444460Y-85039200D01*
X120478006Y-85021269D01*
X120706197Y-84833997D01*
X120893469Y-84605806D01*
X121032625Y-84345464D01*
X121118316Y-84062977D01*
X121147251Y-83769200D01*
X121118316Y-83475423D01*
X121032625Y-83192936D01*
X120893469Y-82932594D01*
X120706197Y-82704403D01*
X120478006Y-82517131D01*
X120444460Y-82499200D01*
X120478006Y-82481269D01*
X120706197Y-82293997D01*
X120893469Y-82065806D01*
X121032625Y-81805464D01*
X121118316Y-81522977D01*
X121147251Y-81229200D01*
X121118316Y-80935423D01*
X121032625Y-80652936D01*
X120893469Y-80392594D01*
X120865932Y-80359039D01*
X126878096Y-80359039D01*
X126918754Y-80493087D01*
X127038963Y-80747420D01*
X127206481Y-80973414D01*
X127414869Y-81162385D01*
X127656119Y-81307070D01*
X127920960Y-81401909D01*
X128143000Y-81280624D01*
X128143000Y-80137000D01*
X128397000Y-80137000D01*
X128397000Y-81280624D01*
X128619040Y-81401909D01*
X128883881Y-81307070D01*
X129125131Y-81162385D01*
X129333519Y-80973414D01*
X129501037Y-80747420D01*
X129621246Y-80493087D01*
X129661904Y-80359039D01*
X129539915Y-80137000D01*
X128397000Y-80137000D01*
X128143000Y-80137000D01*
X127000085Y-80137000D01*
X126878096Y-80359039D01*
X120865932Y-80359039D01*
X120706197Y-80164403D01*
X120478006Y-79977131D01*
X120444460Y-79959200D01*
X120478006Y-79941269D01*
X120706197Y-79753997D01*
X120893469Y-79525806D01*
X121032625Y-79265464D01*
X121118316Y-78982977D01*
X121147251Y-78689200D01*
X121118316Y-78395423D01*
X121032625Y-78112936D01*
X120893469Y-77852594D01*
X120865932Y-77819039D01*
X126878096Y-77819039D01*
X126918754Y-77953087D01*
X127038963Y-78207420D01*
X127206481Y-78433414D01*
X127414869Y-78622385D01*
X127610982Y-78740000D01*
X127414869Y-78857615D01*
X127206481Y-79046586D01*
X127038963Y-79272580D01*
X126918754Y-79526913D01*
X126878096Y-79660961D01*
X127000085Y-79883000D01*
X128143000Y-79883000D01*
X128143000Y-77597000D01*
X128397000Y-77597000D01*
X128397000Y-79883000D01*
X129539915Y-79883000D01*
X129661904Y-79660961D01*
X129621246Y-79526913D01*
X129501037Y-79272580D01*
X129333519Y-79046586D01*
X129125131Y-78857615D01*
X128929018Y-78740000D01*
X129125131Y-78622385D01*
X129333519Y-78433414D01*
X129501037Y-78207420D01*
X129621246Y-77953087D01*
X129661904Y-77819039D01*
X129539915Y-77597000D01*
X128397000Y-77597000D01*
X128143000Y-77597000D01*
X127000085Y-77597000D01*
X126878096Y-77819039D01*
X120865932Y-77819039D01*
X120706197Y-77624403D01*
X120478006Y-77437131D01*
X120444460Y-77419200D01*
X120478006Y-77401269D01*
X120706197Y-77213997D01*
X120893469Y-76985806D01*
X121032625Y-76725464D01*
X121118316Y-76442977D01*
X121147251Y-76149200D01*
X121118316Y-75855423D01*
X121032625Y-75572936D01*
X120893469Y-75312594D01*
X120865932Y-75279039D01*
X126878096Y-75279039D01*
X126918754Y-75413087D01*
X127038963Y-75667420D01*
X127206481Y-75893414D01*
X127414869Y-76082385D01*
X127610982Y-76200000D01*
X127414869Y-76317615D01*
X127206481Y-76506586D01*
X127038963Y-76732580D01*
X126918754Y-76986913D01*
X126878096Y-77120961D01*
X127000085Y-77343000D01*
X128143000Y-77343000D01*
X128143000Y-75057000D01*
X128397000Y-75057000D01*
X128397000Y-77343000D01*
X129539915Y-77343000D01*
X129661904Y-77120961D01*
X129621246Y-76986913D01*
X129501037Y-76732580D01*
X129333519Y-76506586D01*
X129125131Y-76317615D01*
X128929018Y-76200000D01*
X129125131Y-76082385D01*
X129333519Y-75893414D01*
X129501037Y-75667420D01*
X129621246Y-75413087D01*
X129661904Y-75279039D01*
X129539915Y-75057000D01*
X128397000Y-75057000D01*
X128143000Y-75057000D01*
X127000085Y-75057000D01*
X126878096Y-75279039D01*
X120865932Y-75279039D01*
X120706197Y-75084403D01*
X120478006Y-74897131D01*
X120444460Y-74879200D01*
X120478006Y-74861269D01*
X120706197Y-74673997D01*
X120893469Y-74445806D01*
X121032625Y-74185464D01*
X121118316Y-73902977D01*
X121147251Y-73609200D01*
X121118316Y-73315423D01*
X121032625Y-73032936D01*
X120893469Y-72772594D01*
X120706197Y-72544403D01*
X120478006Y-72357131D01*
X120444460Y-72339200D01*
X120478006Y-72321269D01*
X120706197Y-72133997D01*
X120893469Y-71905806D01*
X121032625Y-71645464D01*
X121118316Y-71362977D01*
X121147251Y-71069200D01*
X121118316Y-70775423D01*
X121032625Y-70492936D01*
X120893469Y-70232594D01*
X120706197Y-70004403D01*
X120478006Y-69817131D01*
X120444460Y-69799200D01*
X120478006Y-69781269D01*
X120706197Y-69593997D01*
X120893469Y-69365806D01*
X121032625Y-69105464D01*
X121118316Y-68822977D01*
X121147251Y-68529200D01*
X121118316Y-68235423D01*
X121032625Y-67952936D01*
X120893469Y-67692594D01*
X120706197Y-67464403D01*
X120478006Y-67277131D01*
X120438647Y-67256093D01*
X120579574Y-67164683D01*
X120790873Y-66959068D01*
X120957998Y-66716181D01*
X121074527Y-66445357D01*
X121096358Y-66348226D01*
X120975217Y-66116200D01*
X119507000Y-66116200D01*
X119507000Y-66136200D01*
X119253000Y-66136200D01*
X119253000Y-66116200D01*
X119233000Y-66116200D01*
X119233000Y-65862200D01*
X119253000Y-65862200D01*
X119253000Y-65842200D01*
X119507000Y-65842200D01*
X119507000Y-65862200D01*
X120975217Y-65862200D01*
X121096358Y-65630174D01*
X121074527Y-65533043D01*
X120957998Y-65262219D01*
X120790873Y-65019332D01*
X120579574Y-64813717D01*
X120395711Y-64694457D01*
X120478006Y-64650469D01*
X120706197Y-64463197D01*
X120893469Y-64235006D01*
X121032625Y-63974664D01*
X121118316Y-63692177D01*
X121147251Y-63398400D01*
X121118316Y-63104623D01*
X121093101Y-63021500D01*
X122249603Y-61864999D01*
X126831928Y-61864999D01*
X126831928Y-63030000D01*
G36*
X97092743Y-86770854D02*
G01*
X97236906Y-86915017D01*
X97406424Y-87028285D01*
X97594782Y-87106306D01*
X97794741Y-87146080D01*
X97998619Y-87146080D01*
X98198578Y-87106306D01*
X98386936Y-87028285D01*
X98556454Y-86915017D01*
X98600391Y-86871080D01*
X102483012Y-86871080D01*
X102487375Y-86885464D01*
X102626531Y-87145806D01*
X102813803Y-87373997D01*
X103041994Y-87561269D01*
X103075540Y-87579200D01*
X103041994Y-87597131D01*
X102813803Y-87784403D01*
X102626531Y-88012594D01*
X102487375Y-88272936D01*
X102401684Y-88555423D01*
X102372749Y-88849200D01*
X102401684Y-89142977D01*
X102487375Y-89425464D01*
X102626531Y-89685806D01*
X102813803Y-89913997D01*
X103041994Y-90101269D01*
X103075540Y-90119200D01*
X103041994Y-90137131D01*
X102813803Y-90324403D01*
X102626531Y-90552594D01*
X102487375Y-90812936D01*
X102401684Y-91095423D01*
X102372749Y-91389200D01*
X102401684Y-91682977D01*
X102487375Y-91965464D01*
X102626531Y-92225806D01*
X102813803Y-92453997D01*
X103041994Y-92641269D01*
X103075540Y-92659200D01*
X103041994Y-92677131D01*
X102813803Y-92864403D01*
X102626531Y-93092594D01*
X102487375Y-93352936D01*
X102401684Y-93635423D01*
X102372749Y-93929200D01*
X102401684Y-94222977D01*
X102487375Y-94505464D01*
X102626531Y-94765806D01*
X102813803Y-94993997D01*
X103041994Y-95181269D01*
X103075540Y-95199200D01*
X103041994Y-95217131D01*
X102813803Y-95404403D01*
X102626531Y-95632594D01*
X102487375Y-95892936D01*
X102401684Y-96175423D01*
X102372749Y-96469200D01*
X102401684Y-96762977D01*
X102487375Y-97045464D01*
X102626531Y-97305806D01*
X102813803Y-97533997D01*
X103041994Y-97721269D01*
X103075540Y-97739200D01*
X103041994Y-97757131D01*
X102813803Y-97944403D01*
X102626531Y-98172594D01*
X102572680Y-98273342D01*
X102472753Y-98303654D01*
X102340724Y-98374226D01*
X102224999Y-98469199D01*
X102201201Y-98498197D01*
X101089003Y-99610396D01*
X101059999Y-99634199D01*
X101015840Y-99688008D01*
X100965026Y-99749924D01*
X100960601Y-99758203D01*
X100894454Y-99881954D01*
X100850997Y-100025215D01*
X100840000Y-100136868D01*
X100840000Y-100136878D01*
X100836324Y-100174200D01*
X100840000Y-100211523D01*
X100840001Y-105200488D01*
X100796063Y-105244426D01*
X100682795Y-105413944D01*
X100604774Y-105602302D01*
X100565000Y-105802261D01*
X100565000Y-105869200D01*
X97217525Y-105869200D01*
X97268514Y-105701111D01*
X97297186Y-105410000D01*
X97268514Y-105118889D01*
X97183600Y-104838966D01*
X97045707Y-104580986D01*
X96860135Y-104354866D01*
X96634015Y-104169294D01*
X96576245Y-104138416D01*
X96805270Y-103967588D01*
X97000179Y-103751355D01*
X97149158Y-103501252D01*
X97246482Y-103226891D01*
X97125815Y-102997000D01*
X95932001Y-102997000D01*
X95932001Y-103017000D01*
X95678001Y-103017000D01*
X95678001Y-102997000D01*
X95658001Y-102997000D01*
X95658001Y-102743000D01*
X95678001Y-102743000D01*
X95678001Y-101549845D01*
X95932001Y-101549845D01*
X95932001Y-102743000D01*
X97125815Y-102743000D01*
X97246482Y-102513109D01*
X97149158Y-102238748D01*
X97000179Y-101988645D01*
X96805270Y-101772412D01*
X96571921Y-101598359D01*
X96309100Y-101473175D01*
X96161891Y-101428524D01*
X95932001Y-101549845D01*
X95678001Y-101549845D01*
X95448111Y-101428524D01*
X95390000Y-101446150D01*
X95390000Y-89754802D01*
X95439005Y-89705797D01*
X95513890Y-89728513D01*
X95732051Y-89750000D01*
X95877951Y-89750000D01*
X96096112Y-89728513D01*
X96376035Y-89643599D01*
X96634015Y-89505706D01*
X96860135Y-89320134D01*
X97045707Y-89094014D01*
X97183600Y-88836034D01*
X97268514Y-88556111D01*
X97297186Y-88265000D01*
X97268514Y-87973889D01*
X97183600Y-87693966D01*
X97045707Y-87435986D01*
X96860135Y-87209866D01*
X96634015Y-87024294D01*
X96576245Y-86993416D01*
X96805270Y-86822588D01*
X96990215Y-86617409D01*
X97092743Y-86770854D01*
X97092743Y-86770854D01*
G37*
X97092743Y-86770854D02*
X97236906Y-86915017D01*
X97406424Y-87028285D01*
X97594782Y-87106306D01*
X97794741Y-87146080D01*
X97998619Y-87146080D01*
X98198578Y-87106306D01*
X98386936Y-87028285D01*
X98556454Y-86915017D01*
X98600391Y-86871080D01*
X102483012Y-86871080D01*
X102487375Y-86885464D01*
X102626531Y-87145806D01*
X102813803Y-87373997D01*
X103041994Y-87561269D01*
X103075540Y-87579200D01*
X103041994Y-87597131D01*
X102813803Y-87784403D01*
X102626531Y-88012594D01*
X102487375Y-88272936D01*
X102401684Y-88555423D01*
X102372749Y-88849200D01*
X102401684Y-89142977D01*
X102487375Y-89425464D01*
X102626531Y-89685806D01*
X102813803Y-89913997D01*
X103041994Y-90101269D01*
X103075540Y-90119200D01*
X103041994Y-90137131D01*
X102813803Y-90324403D01*
X102626531Y-90552594D01*
X102487375Y-90812936D01*
X102401684Y-91095423D01*
X102372749Y-91389200D01*
X102401684Y-91682977D01*
X102487375Y-91965464D01*
X102626531Y-92225806D01*
X102813803Y-92453997D01*
X103041994Y-92641269D01*
X103075540Y-92659200D01*
X103041994Y-92677131D01*
X102813803Y-92864403D01*
X102626531Y-93092594D01*
X102487375Y-93352936D01*
X102401684Y-93635423D01*
X102372749Y-93929200D01*
X102401684Y-94222977D01*
X102487375Y-94505464D01*
X102626531Y-94765806D01*
X102813803Y-94993997D01*
X103041994Y-95181269D01*
X103075540Y-95199200D01*
X103041994Y-95217131D01*
X102813803Y-95404403D01*
X102626531Y-95632594D01*
X102487375Y-95892936D01*
X102401684Y-96175423D01*
X102372749Y-96469200D01*
X102401684Y-96762977D01*
X102487375Y-97045464D01*
X102626531Y-97305806D01*
X102813803Y-97533997D01*
X103041994Y-97721269D01*
X103075540Y-97739200D01*
X103041994Y-97757131D01*
X102813803Y-97944403D01*
X102626531Y-98172594D01*
X102572680Y-98273342D01*
X102472753Y-98303654D01*
X102340724Y-98374226D01*
X102224999Y-98469199D01*
X102201201Y-98498197D01*
X101089003Y-99610396D01*
X101059999Y-99634199D01*
X101015840Y-99688008D01*
X100965026Y-99749924D01*
X100960601Y-99758203D01*
X100894454Y-99881954D01*
X100850997Y-100025215D01*
X100840000Y-100136868D01*
X100840000Y-100136878D01*
X100836324Y-100174200D01*
X100840000Y-100211523D01*
X100840001Y-105200488D01*
X100796063Y-105244426D01*
X100682795Y-105413944D01*
X100604774Y-105602302D01*
X100565000Y-105802261D01*
X100565000Y-105869200D01*
X97217525Y-105869200D01*
X97268514Y-105701111D01*
X97297186Y-105410000D01*
X97268514Y-105118889D01*
X97183600Y-104838966D01*
X97045707Y-104580986D01*
X96860135Y-104354866D01*
X96634015Y-104169294D01*
X96576245Y-104138416D01*
X96805270Y-103967588D01*
X97000179Y-103751355D01*
X97149158Y-103501252D01*
X97246482Y-103226891D01*
X97125815Y-102997000D01*
X95932001Y-102997000D01*
X95932001Y-103017000D01*
X95678001Y-103017000D01*
X95678001Y-102997000D01*
X95658001Y-102997000D01*
X95658001Y-102743000D01*
X95678001Y-102743000D01*
X95678001Y-101549845D01*
X95932001Y-101549845D01*
X95932001Y-102743000D01*
X97125815Y-102743000D01*
X97246482Y-102513109D01*
X97149158Y-102238748D01*
X97000179Y-101988645D01*
X96805270Y-101772412D01*
X96571921Y-101598359D01*
X96309100Y-101473175D01*
X96161891Y-101428524D01*
X95932001Y-101549845D01*
X95678001Y-101549845D01*
X95448111Y-101428524D01*
X95390000Y-101446150D01*
X95390000Y-89754802D01*
X95439005Y-89705797D01*
X95513890Y-89728513D01*
X95732051Y-89750000D01*
X95877951Y-89750000D01*
X96096112Y-89728513D01*
X96376035Y-89643599D01*
X96634015Y-89505706D01*
X96860135Y-89320134D01*
X97045707Y-89094014D01*
X97183600Y-88836034D01*
X97268514Y-88556111D01*
X97297186Y-88265000D01*
X97268514Y-87973889D01*
X97183600Y-87693966D01*
X97045707Y-87435986D01*
X96860135Y-87209866D01*
X96634015Y-87024294D01*
X96576245Y-86993416D01*
X96805270Y-86822588D01*
X96990215Y-86617409D01*
X97092743Y-86770854D01*
G36*
X95932001Y-85598000D02*
G01*
X95952001Y-85598000D01*
X95952001Y-85852000D01*
X95932001Y-85852000D01*
X95932001Y-85872000D01*
X95678001Y-85872000D01*
X95678001Y-85852000D01*
X95658001Y-85852000D01*
X95658001Y-85598000D01*
X95678001Y-85598000D01*
X95678001Y-85578000D01*
X95932001Y-85578000D01*
X95932001Y-85598000D01*
X95932001Y-85598000D01*
G37*
X95932001Y-85598000D02*
X95952001Y-85598000D01*
X95952001Y-85852000D01*
X95932001Y-85852000D01*
X95932001Y-85872000D01*
X95678001Y-85872000D01*
X95678001Y-85852000D01*
X95658001Y-85852000D01*
X95658001Y-85598000D01*
X95678001Y-85598000D01*
X95678001Y-85578000D01*
X95932001Y-85578000D01*
X95932001Y-85598000D01*
G36*
X102401684Y-65695423D02*
G01*
X102372749Y-65989200D01*
X102401684Y-66282977D01*
X102487375Y-66565464D01*
X102626531Y-66825806D01*
X102813803Y-67053997D01*
X103041994Y-67241269D01*
X103075540Y-67259200D01*
X103041994Y-67277131D01*
X102813803Y-67464403D01*
X102626531Y-67692594D01*
X102585584Y-67769200D01*
X97632125Y-67769200D01*
X97594802Y-67765524D01*
X97557479Y-67769200D01*
X97557470Y-67769200D01*
X97445817Y-67780197D01*
X97314602Y-67820000D01*
X97302556Y-67823654D01*
X97170526Y-67894226D01*
X97134361Y-67923906D01*
X97000179Y-67698645D01*
X96805270Y-67482412D01*
X96571921Y-67308359D01*
X96309100Y-67183175D01*
X96161891Y-67138524D01*
X95932001Y-67259845D01*
X95932001Y-68453000D01*
X95952001Y-68453000D01*
X95952001Y-68707000D01*
X95932001Y-68707000D01*
X95932001Y-68727000D01*
X95678001Y-68727000D01*
X95678001Y-68707000D01*
X95658001Y-68707000D01*
X95658001Y-68453000D01*
X95678001Y-68453000D01*
X95678001Y-67259845D01*
X95448111Y-67138524D01*
X95300902Y-67183175D01*
X95038081Y-67308359D01*
X94804732Y-67482412D01*
X94609823Y-67698645D01*
X94540202Y-67815523D01*
X94505707Y-67750986D01*
X94320135Y-67524866D01*
X94094015Y-67339294D01*
X93836035Y-67201401D01*
X93556112Y-67116487D01*
X93337951Y-67095000D01*
X93192051Y-67095000D01*
X92973890Y-67116487D01*
X92693967Y-67201401D01*
X92435987Y-67339294D01*
X92209867Y-67524866D01*
X92024295Y-67750986D01*
X91995001Y-67805791D01*
X91965707Y-67750986D01*
X91780135Y-67524866D01*
X91554015Y-67339294D01*
X91296035Y-67201401D01*
X91016112Y-67116487D01*
X90797951Y-67095000D01*
X90652051Y-67095000D01*
X90433890Y-67116487D01*
X90153967Y-67201401D01*
X89895987Y-67339294D01*
X89669867Y-67524866D01*
X89484295Y-67750986D01*
X89455001Y-67805791D01*
X89425707Y-67750986D01*
X89240135Y-67524866D01*
X89014015Y-67339294D01*
X88756035Y-67201401D01*
X88476112Y-67116487D01*
X88257951Y-67095000D01*
X88112051Y-67095000D01*
X87893890Y-67116487D01*
X87613967Y-67201401D01*
X87355987Y-67339294D01*
X87129867Y-67524866D01*
X86944295Y-67750986D01*
X86915001Y-67805791D01*
X86885707Y-67750986D01*
X86700135Y-67524866D01*
X86474015Y-67339294D01*
X86216035Y-67201401D01*
X85936112Y-67116487D01*
X85717951Y-67095000D01*
X85664802Y-67095000D01*
X87199213Y-65560590D01*
X102442585Y-65560590D01*
X102401684Y-65695423D01*
X102401684Y-65695423D01*
G37*
X102401684Y-65695423D02*
X102372749Y-65989200D01*
X102401684Y-66282977D01*
X102487375Y-66565464D01*
X102626531Y-66825806D01*
X102813803Y-67053997D01*
X103041994Y-67241269D01*
X103075540Y-67259200D01*
X103041994Y-67277131D01*
X102813803Y-67464403D01*
X102626531Y-67692594D01*
X102585584Y-67769200D01*
X97632125Y-67769200D01*
X97594802Y-67765524D01*
X97557479Y-67769200D01*
X97557470Y-67769200D01*
X97445817Y-67780197D01*
X97314602Y-67820000D01*
X97302556Y-67823654D01*
X97170526Y-67894226D01*
X97134361Y-67923906D01*
X97000179Y-67698645D01*
X96805270Y-67482412D01*
X96571921Y-67308359D01*
X96309100Y-67183175D01*
X96161891Y-67138524D01*
X95932001Y-67259845D01*
X95932001Y-68453000D01*
X95952001Y-68453000D01*
X95952001Y-68707000D01*
X95932001Y-68707000D01*
X95932001Y-68727000D01*
X95678001Y-68727000D01*
X95678001Y-68707000D01*
X95658001Y-68707000D01*
X95658001Y-68453000D01*
X95678001Y-68453000D01*
X95678001Y-67259845D01*
X95448111Y-67138524D01*
X95300902Y-67183175D01*
X95038081Y-67308359D01*
X94804732Y-67482412D01*
X94609823Y-67698645D01*
X94540202Y-67815523D01*
X94505707Y-67750986D01*
X94320135Y-67524866D01*
X94094015Y-67339294D01*
X93836035Y-67201401D01*
X93556112Y-67116487D01*
X93337951Y-67095000D01*
X93192051Y-67095000D01*
X92973890Y-67116487D01*
X92693967Y-67201401D01*
X92435987Y-67339294D01*
X92209867Y-67524866D01*
X92024295Y-67750986D01*
X91995001Y-67805791D01*
X91965707Y-67750986D01*
X91780135Y-67524866D01*
X91554015Y-67339294D01*
X91296035Y-67201401D01*
X91016112Y-67116487D01*
X90797951Y-67095000D01*
X90652051Y-67095000D01*
X90433890Y-67116487D01*
X90153967Y-67201401D01*
X89895987Y-67339294D01*
X89669867Y-67524866D01*
X89484295Y-67750986D01*
X89455001Y-67805791D01*
X89425707Y-67750986D01*
X89240135Y-67524866D01*
X89014015Y-67339294D01*
X88756035Y-67201401D01*
X88476112Y-67116487D01*
X88257951Y-67095000D01*
X88112051Y-67095000D01*
X87893890Y-67116487D01*
X87613967Y-67201401D01*
X87355987Y-67339294D01*
X87129867Y-67524866D01*
X86944295Y-67750986D01*
X86915001Y-67805791D01*
X86885707Y-67750986D01*
X86700135Y-67524866D01*
X86474015Y-67339294D01*
X86216035Y-67201401D01*
X85936112Y-67116487D01*
X85717951Y-67095000D01*
X85664802Y-67095000D01*
X87199213Y-65560590D01*
X102442585Y-65560590D01*
X102401684Y-65695423D01*
M02*
